%FSLAX25Y25*%
%MOIN*%
G70*
G01*
G75*
G04 Layer_Color=16711935*
%ADD10R,0.25197X0.22835*%
%ADD11R,0.08661X0.03150*%
%ADD12O,0.02362X0.07087*%
%ADD13C,0.04000*%
%ADD14C,0.01000*%
%ADD15C,0.07874*%
%ADD16O,0.03937X0.05906*%
%ADD17O,0.05906X0.03937*%
%ADD18C,0.04500*%
%ADD19R,0.03543X0.02756*%
%ADD20R,0.02756X0.03543*%
%ADD21R,0.02362X0.04528*%
%ADD22C,0.02362*%
%ADD23C,0.00984*%
%ADD24C,0.00787*%
%ADD25C,0.00600*%
%ADD26R,0.25997X0.23635*%
%ADD27R,0.08898X0.03386*%
%ADD28O,0.03162X0.07887*%
%ADD29C,0.08674*%
%ADD30O,0.04737X0.06706*%
%ADD31O,0.06706X0.04737*%
%ADD32C,0.05300*%
%ADD33R,0.04343X0.03556*%
%ADD34R,0.03556X0.04343*%
%ADD35R,0.03162X0.05328*%
%ADD36C,0.00500*%
%ADD37C,0.00394*%
D37*
X29768Y30567D02*
G03*
X29768Y30567I-1969J0D01*
G01*
X28870Y15154D02*
Y21846D01*
X25130Y15154D02*
Y21846D01*
Y15154D02*
X28870D01*
X25130Y21846D02*
X28870D01*
X58653Y24370D02*
X65346D01*
X58653Y20630D02*
X65346D01*
Y24370D01*
X58653Y20630D02*
Y24370D01*
X13654Y14630D02*
X20346D01*
X13654Y18370D02*
X20346D01*
X13654Y14630D02*
Y18370D01*
X20346Y14630D02*
Y18370D01*
X10095Y24244D02*
X21905D01*
X10095Y29756D02*
X21905D01*
Y24244D02*
Y29756D01*
X10095Y24244D02*
Y29756D01*
X11658Y18362D02*
Y34110D01*
X31343Y18362D02*
Y34110D01*
X11658Y18362D02*
X31343D01*
X11658Y34110D02*
X31343D01*
X46567Y33717D02*
X53260D01*
X46567Y37457D02*
X53260D01*
X46567Y33717D02*
Y37457D01*
X53260Y33717D02*
Y37457D01*
X42870Y19153D02*
Y25846D01*
X39130Y19153D02*
Y25846D01*
Y19153D02*
X42870D01*
X39130Y25846D02*
X42870D01*
M02*
