M48
;Layer_Color=9474304
;FILE_FORMAT=2:5
INCH,LZ
;TYPE=PLATED
T1F00S00C0.02362
T2F00S00C0.02500
T3F00S00C0.03543
%
T01
X00055Y00055
Y0011
Y00165
Y0022
Y00275
Y0033
Y00385
X00125Y00065
X0018
X00235
X0029
X00345
X004
T02
X00245Y0027
X00355Y00305
X00345Y0038
X0035Y00215
T03
X0048Y00075
X00575
X0067
X00765
M30
