%FSLAX25Y25*%
%MOIN*%
G70*
G01*
G75*
G04 Layer_Physical_Order=1*
G04 Layer_Color=255*
%ADD10R,0.25197X0.22835*%
%ADD11R,0.08661X0.03150*%
%ADD12O,0.02362X0.07087*%
%ADD13C,0.04000*%
%ADD14C,0.01000*%
%ADD15C,0.07874*%
%ADD16O,0.03937X0.05906*%
%ADD17O,0.05906X0.03937*%
%ADD18C,0.04500*%
G36*
X84500Y500D02*
X500D01*
Y43000D01*
X84500D01*
Y500D01*
D02*
G37*
%LPC*%
G36*
X77000Y12414D02*
Y8000D01*
X81414D01*
X81310Y8789D01*
X80813Y9990D01*
X80021Y11021D01*
X78990Y11812D01*
X77789Y12310D01*
X77000Y12414D01*
D02*
G37*
G36*
X24500Y30278D02*
X23652Y30166D01*
X22861Y29839D01*
X22182Y29318D01*
X21661Y28639D01*
X21334Y27848D01*
X21222Y27000D01*
X21334Y26152D01*
X21661Y25361D01*
X22182Y24682D01*
X22471Y24461D01*
Y19963D01*
X22427Y19935D01*
X21945Y19213D01*
X21776Y18362D01*
Y13638D01*
X21945Y12787D01*
X22427Y12065D01*
X23149Y11583D01*
X24000Y11414D01*
X24851Y11583D01*
X25572Y12065D01*
X26055Y12787D01*
X26224Y13638D01*
Y18362D01*
X26055Y19213D01*
X26029Y19251D01*
Y20000D01*
X25913Y20585D01*
X25581Y21081D01*
X25529Y21116D01*
Y23909D01*
X26139Y24161D01*
X26818Y24682D01*
X27339Y25361D01*
X27666Y26152D01*
X27778Y27000D01*
X27666Y27848D01*
X27339Y28639D01*
X26818Y29318D01*
X26139Y29839D01*
X25348Y30166D01*
X24500Y30278D01*
D02*
G37*
G36*
X9413Y16000D02*
X1587D01*
X1624Y15725D01*
X1923Y15003D01*
X2399Y14383D01*
X2898Y14000D01*
Y13500D01*
X2399Y13117D01*
X1923Y12497D01*
X1624Y11775D01*
X1587Y11500D01*
X9413D01*
X9376Y11775D01*
X9077Y12497D01*
X8601Y13117D01*
X8102Y13500D01*
Y14000D01*
X8601Y14383D01*
X9077Y15003D01*
X9376Y15725D01*
X9413Y16000D01*
D02*
G37*
G36*
X81414Y7000D02*
X77000D01*
Y3500D01*
Y2586D01*
X77789Y2690D01*
X78990Y3187D01*
X80021Y3979D01*
X80813Y5010D01*
X81310Y6211D01*
X81414Y7000D01*
D02*
G37*
G36*
X5000Y5000D02*
X1587D01*
X1624Y4725D01*
X1923Y4003D01*
X2399Y3383D01*
X3019Y2907D01*
X3741Y2608D01*
X4516Y2506D01*
X5000D01*
Y5000D01*
D02*
G37*
G36*
X69897Y3500D02*
X67500D01*
Y2586D01*
X68289Y2690D01*
X69490Y3187D01*
X69897Y3500D01*
D02*
G37*
G36*
X76000D02*
X73603D01*
X74010Y3187D01*
X75211Y2690D01*
X76000Y2586D01*
Y3500D01*
D02*
G37*
G36*
X6484Y41494D02*
X4516D01*
X3741Y41392D01*
X3019Y41093D01*
X2399Y40617D01*
X1923Y39997D01*
X1624Y39275D01*
X1522Y38500D01*
X1624Y37725D01*
X1923Y37003D01*
X2399Y36383D01*
X2898Y36000D01*
Y35500D01*
X2399Y35117D01*
X1923Y34497D01*
X1624Y33775D01*
X1522Y33000D01*
X1624Y32225D01*
X1923Y31503D01*
X2399Y30883D01*
X2898Y30500D01*
Y30000D01*
X2399Y29617D01*
X1923Y28997D01*
X1624Y28275D01*
X1522Y27500D01*
X1624Y26725D01*
X1923Y26003D01*
X2399Y25383D01*
X2898Y25000D01*
Y24500D01*
X2399Y24117D01*
X1923Y23497D01*
X1624Y22775D01*
X1587Y22500D01*
X9413D01*
X9376Y22775D01*
X9077Y23497D01*
X8601Y24117D01*
X8102Y24500D01*
Y25000D01*
X8601Y25383D01*
X9077Y26003D01*
X9271Y26471D01*
X10490D01*
X11075Y26587D01*
X11572Y26919D01*
X12553Y27900D01*
X18111D01*
X18696Y28016D01*
X19192Y28348D01*
X19192Y28348D01*
X19192Y28348D01*
X22762Y31918D01*
X22945Y32192D01*
X23149Y32056D01*
X24000Y31886D01*
X24851Y32056D01*
X25572Y32538D01*
X26055Y33259D01*
X26224Y34110D01*
Y38835D01*
X26055Y39686D01*
X25572Y40407D01*
X24851Y40889D01*
X24000Y41058D01*
X23149Y40889D01*
X22427Y40407D01*
X21945Y39686D01*
X21776Y38835D01*
Y36734D01*
X21360Y36456D01*
X21224Y36512D01*
Y38835D01*
X21055Y39686D01*
X20572Y40407D01*
X19851Y40889D01*
X19000Y41058D01*
X18149Y40889D01*
X17427Y40407D01*
X16945Y39686D01*
X16776Y38835D01*
Y36734D01*
X16360Y36456D01*
X16224Y36512D01*
Y38835D01*
X16055Y39686D01*
X15573Y40407D01*
X14851Y40889D01*
X14000Y41058D01*
X13149Y40889D01*
X12427Y40407D01*
X12427D01*
Y40407D01*
X12149Y40352D01*
X12058Y40413D01*
X11472Y40529D01*
X8669D01*
X8601Y40617D01*
X7981Y41093D01*
X7259Y41392D01*
X6484Y41494D01*
D02*
G37*
G36*
X28500Y20487D02*
X28149Y20417D01*
X27428Y19935D01*
X26945Y19213D01*
X26776Y18362D01*
Y16500D01*
X28500D01*
Y20487D01*
D02*
G37*
G36*
X9413Y21500D02*
X1587D01*
X1624Y21225D01*
X1923Y20503D01*
X2399Y19883D01*
X2898Y19500D01*
Y19000D01*
X2399Y18617D01*
X1923Y17997D01*
X1624Y17275D01*
X1587Y17000D01*
X9413D01*
X9376Y17275D01*
X9077Y17997D01*
X8601Y18617D01*
X8102Y19000D01*
Y19500D01*
X8601Y19883D01*
X9077Y20503D01*
X9376Y21225D01*
X9413Y21500D01*
D02*
G37*
G36*
X31224Y15500D02*
X29500D01*
Y11513D01*
X29851Y11583D01*
X30573Y12065D01*
X31055Y12787D01*
X31224Y13638D01*
Y15500D01*
D02*
G37*
G36*
X28500D02*
X26776D01*
Y13638D01*
X26945Y12787D01*
X27428Y12065D01*
X28149Y11583D01*
X28500Y11513D01*
Y15500D01*
D02*
G37*
G36*
X76000Y12414D02*
X75211Y12310D01*
X74010Y11812D01*
X73603Y11500D01*
X76000D01*
Y12414D01*
D02*
G37*
G36*
X34500Y41278D02*
X33652Y41166D01*
X32861Y40839D01*
X32182Y40318D01*
X31661Y39639D01*
X31587Y39461D01*
X31090Y39509D01*
X31055Y39686D01*
X30573Y40407D01*
X29851Y40889D01*
X29000Y41058D01*
X28149Y40889D01*
X27428Y40407D01*
X26945Y39686D01*
X26776Y38835D01*
Y34110D01*
X26945Y33259D01*
X27428Y32538D01*
X28149Y32056D01*
X29000Y31886D01*
X29334Y31953D01*
X29721Y31636D01*
Y20837D01*
X29500Y20656D01*
Y16500D01*
X31224D01*
Y17114D01*
X31686Y17305D01*
X32971Y16020D01*
Y10052D01*
X32383Y9601D01*
X32000Y9103D01*
X31500D01*
X31117Y9601D01*
X30497Y10077D01*
X29775Y10376D01*
X29000Y10478D01*
X28225Y10376D01*
X27503Y10077D01*
X26883Y9601D01*
X26500Y9103D01*
X26000D01*
X25617Y9601D01*
X24997Y10077D01*
X24275Y10376D01*
X23500Y10478D01*
X22725Y10376D01*
X22003Y10077D01*
X21383Y9601D01*
X21000Y9103D01*
X20500D01*
X20117Y9601D01*
X19935Y9741D01*
X19903Y10240D01*
X20081Y10419D01*
X20413Y10915D01*
X20529Y11500D01*
Y12037D01*
X20572Y12065D01*
X21055Y12787D01*
X21224Y13638D01*
Y18362D01*
X21055Y19213D01*
X20572Y19935D01*
X19851Y20417D01*
X19000Y20586D01*
X18149Y20417D01*
X17427Y19935D01*
X16945Y19213D01*
X16776Y18362D01*
Y13638D01*
X16945Y12787D01*
X17417Y12080D01*
X16919Y11581D01*
X16587Y11085D01*
X16471Y10500D01*
Y10052D01*
X15883Y9601D01*
X15500Y9103D01*
X15000D01*
X14681Y9518D01*
X15081Y9919D01*
X15413Y10415D01*
X15529Y11000D01*
Y12037D01*
X15573Y12065D01*
X16055Y12787D01*
X16224Y13638D01*
Y18362D01*
X16055Y19213D01*
X15573Y19935D01*
X14851Y20417D01*
X14000Y20586D01*
X13149Y20417D01*
X12427Y19935D01*
X11945Y19213D01*
X11776Y18362D01*
Y13638D01*
X11945Y12787D01*
X12427Y12065D01*
X12427Y12065D01*
X11419Y10581D01*
X11418Y10581D01*
X11419D01*
X11112Y10122D01*
X11003Y10077D01*
X10383Y9601D01*
X9907Y8981D01*
X9608Y8259D01*
X9506Y7484D01*
Y7216D01*
X9032Y7056D01*
X8601Y7617D01*
X8102Y8000D01*
Y8500D01*
X8601Y8883D01*
X9077Y9503D01*
X9376Y10225D01*
X9413Y10500D01*
X1587D01*
X1624Y10225D01*
X1923Y9503D01*
X2399Y8883D01*
X2898Y8500D01*
Y8000D01*
X2399Y7617D01*
X1923Y6997D01*
X1624Y6275D01*
X1587Y6000D01*
X5500D01*
Y5500D01*
X6000D01*
Y2506D01*
X6484D01*
X7259Y2608D01*
X7981Y2907D01*
X8601Y3383D01*
X9077Y4003D01*
X9245Y4409D01*
X9745D01*
X9907Y4019D01*
X10383Y3399D01*
X11003Y2923D01*
X11725Y2624D01*
X12500Y2522D01*
X13275Y2624D01*
X13997Y2923D01*
X14617Y3399D01*
X15000Y3898D01*
X15500D01*
X15883Y3399D01*
X16503Y2923D01*
X17225Y2624D01*
X18000Y2522D01*
X18775Y2624D01*
X19497Y2923D01*
X20117Y3399D01*
X20500Y3898D01*
X21000D01*
X21383Y3399D01*
X22003Y2923D01*
X22725Y2624D01*
X23500Y2522D01*
X24275Y2624D01*
X24997Y2923D01*
X25617Y3399D01*
X26000Y3898D01*
X26500D01*
X26883Y3399D01*
X27503Y2923D01*
X28225Y2624D01*
X29000Y2522D01*
X29775Y2624D01*
X30497Y2923D01*
X31117Y3399D01*
X31500Y3898D01*
X32000D01*
X32383Y3399D01*
X33003Y2923D01*
X33725Y2624D01*
X34500Y2522D01*
X35275Y2624D01*
X35997Y2923D01*
X36617Y3399D01*
X37000Y3898D01*
X37500D01*
X37883Y3399D01*
X38503Y2923D01*
X39225Y2624D01*
X40000Y2522D01*
X40775Y2624D01*
X41497Y2923D01*
X42117Y3399D01*
X42593Y4019D01*
X42892Y4741D01*
X42985Y5445D01*
X43481Y5510D01*
X43687Y5010D01*
X44479Y3979D01*
X45510Y3187D01*
X46711Y2690D01*
X48000Y2520D01*
X49289Y2690D01*
X50490Y3187D01*
X51521Y3979D01*
X52312Y5010D01*
X52500Y5463D01*
X53000D01*
X53188Y5010D01*
X53979Y3979D01*
X55010Y3187D01*
X56211Y2690D01*
X57500Y2520D01*
X58789Y2690D01*
X59990Y3187D01*
X61021Y3979D01*
X61813Y5010D01*
X62000Y5463D01*
X62500D01*
X62687Y5010D01*
X63479Y3979D01*
X64510Y3187D01*
X65711Y2690D01*
X66500Y2586D01*
Y7500D01*
X67000D01*
Y11500D01*
X69897D01*
X69490Y11812D01*
X68289Y12310D01*
X68010Y12347D01*
X67830Y12617D01*
X67742Y12810D01*
X67942Y13110D01*
X68020Y13500D01*
Y13606D01*
X81902D01*
Y38441D01*
X54705D01*
Y18312D01*
X54577Y18004D01*
X54573Y17971D01*
X54140Y17721D01*
X53923Y17811D01*
X54026Y18595D01*
Y34500D01*
X53923Y35283D01*
X53620Y36013D01*
X53140Y36640D01*
X52053Y37726D01*
X51426Y38207D01*
X51213Y38296D01*
X50696Y38509D01*
X49913Y38612D01*
X42000D01*
X41217Y38509D01*
X40487Y38207D01*
X39860Y37726D01*
X39744Y37575D01*
X38197D01*
Y37575D01*
X38169D01*
Y37575D01*
X38080Y37587D01*
X37776Y37983D01*
X37778Y38000D01*
X37666Y38848D01*
X37339Y39639D01*
X36818Y40318D01*
X36139Y40839D01*
X35348Y41166D01*
X34500Y41278D01*
D02*
G37*
%LPD*%
G36*
X33861Y27661D02*
X34652Y27334D01*
X35500Y27222D01*
X36348Y27334D01*
X37139Y27661D01*
X37499Y27937D01*
X38169Y27937D01*
Y27937D01*
X47974D01*
Y24110D01*
X38169D01*
Y23486D01*
X37696Y23325D01*
X37318Y23818D01*
X36639Y24339D01*
X35848Y24666D01*
X35000Y24778D01*
X34152Y24666D01*
X33361Y24339D01*
X33228Y24237D01*
X32779Y24458D01*
Y27926D01*
X33228Y28147D01*
X33861Y27661D01*
D02*
G37*
G36*
X38169Y19514D02*
Y18961D01*
Y14472D01*
X39145D01*
X39192Y14378D01*
X43126Y9263D01*
X42877Y8830D01*
X42643Y8861D01*
X42593Y8981D01*
X42117Y9601D01*
X41497Y10077D01*
X40775Y10376D01*
X40000Y10478D01*
X39225Y10376D01*
X38503Y10077D01*
X37883Y9601D01*
X37500Y9103D01*
X37000D01*
X36617Y9601D01*
X36029Y10052D01*
Y16654D01*
X35932Y17142D01*
X35913Y17239D01*
X35581Y17735D01*
X35483Y17833D01*
X35644Y18307D01*
X35848Y18334D01*
X36639Y18661D01*
X37318Y19182D01*
X37696Y19675D01*
X38169Y19514D01*
D02*
G37*
G36*
X67000Y15500D02*
Y13500D01*
X65000D01*
X60500Y8000D01*
X54000D01*
Y15000D01*
X55500Y17500D01*
X67000Y15500D01*
D02*
G37*
G36*
X52000Y7000D02*
X51500Y7500D01*
X45000D01*
Y8500D01*
X40000Y15000D01*
Y16500D01*
X50000D01*
X52000Y18500D01*
Y7000D01*
D02*
G37*
D10*
X68303Y26024D02*
D03*
D11*
X43500Y17047D02*
D03*
Y21535D02*
D03*
Y30512D02*
D03*
Y35000D02*
D03*
D12*
X14000Y16000D02*
D03*
X19000D02*
D03*
X24000D02*
D03*
X29000D02*
D03*
X14000Y36472D02*
D03*
X19000D02*
D03*
X24000D02*
D03*
X29000D02*
D03*
D13*
X48500Y7500D02*
Y10961D01*
X42000Y35587D02*
X49913D01*
X57500Y17221D02*
X66803Y26524D01*
X42961Y16500D02*
X48500Y10961D01*
X42961Y16500D02*
X48906D01*
X51000Y18595D01*
Y34500D01*
X49913Y35587D02*
X51000Y34500D01*
D14*
X41988Y31000D02*
X42000Y31012D01*
X24500Y16500D02*
Y20000D01*
X24000Y16000D02*
X24500Y16500D01*
X5500Y5500D02*
Y11000D01*
Y16500D01*
Y22000D01*
X11472Y39000D02*
X14000Y36472D01*
X5500Y39000D02*
X11472D01*
X16681Y34154D02*
X19000Y36472D01*
X16681Y33000D02*
Y34154D01*
X15111Y31429D02*
X16681Y33000D01*
X12889Y31429D02*
X15111D01*
X10819Y33500D02*
X12889Y31429D01*
X5500Y33500D02*
X10819D01*
X21681Y34154D02*
X24000Y36472D01*
X21681Y33000D02*
Y34154D01*
X18111Y29429D02*
X21681Y33000D01*
X12061Y29429D02*
X18111D01*
X11990Y29500D02*
X12061Y29429D01*
X10490Y28000D02*
X11990Y29500D01*
X5500Y28000D02*
X10490D01*
X18000Y6500D02*
Y10500D01*
X19000Y11500D01*
Y16000D01*
X12500Y6500D02*
Y9500D01*
X14000Y11000D01*
Y16000D01*
X31972Y36472D02*
X33500Y38000D01*
X29000Y36472D02*
X31972D01*
X34500Y6500D02*
X40000D01*
X29000D02*
X34500D01*
X23500D02*
X29000D01*
Y16000D02*
Y20343D01*
X5500Y22500D02*
X19843D01*
X24000Y16000D02*
Y27000D01*
X7111Y6000D02*
X11063Y2047D01*
X61547D01*
X67000Y7500D01*
X5500Y5500D02*
X7111D01*
X34000Y31000D02*
X41988D01*
X35035Y21535D02*
X43500D01*
X35000Y21500D02*
X35035Y21535D01*
X34500Y35157D02*
Y38000D01*
X31250Y31907D02*
X34500Y35157D01*
X31250Y19904D02*
Y31907D01*
Y19904D02*
X34500Y16654D01*
Y6500D02*
Y16654D01*
X28500Y20843D02*
X29000Y20343D01*
X28500Y20843D02*
Y28657D01*
X26157Y31000D02*
X28500Y28657D01*
X22843Y31000D02*
X26157D01*
X20500Y28657D02*
X22843Y31000D01*
X20500Y23157D02*
Y28657D01*
X19843Y22500D02*
X20500Y23157D01*
D15*
X67000Y7500D02*
D03*
X76500D02*
D03*
X57500D02*
D03*
X48000D02*
D03*
D16*
X40000Y6500D02*
D03*
X34500D02*
D03*
X29000D02*
D03*
X23500D02*
D03*
X12500D02*
D03*
X18000D02*
D03*
D17*
X5500Y5500D02*
D03*
Y11000D02*
D03*
Y16500D02*
D03*
Y22000D02*
D03*
Y27500D02*
D03*
Y33000D02*
D03*
Y38500D02*
D03*
D18*
X35000Y21500D02*
D03*
X24500Y27000D02*
D03*
X34500Y38000D02*
D03*
X35500Y30500D02*
D03*
M02*
