%FSLAX25Y25*%
%MOIN*%
G70*
G01*
G75*
G04 Layer_Color=8388736*
%ADD10R,0.25197X0.22835*%
%ADD11R,0.08661X0.03150*%
%ADD12O,0.02362X0.07087*%
%ADD13C,0.04000*%
%ADD14C,0.01000*%
%ADD15C,0.07874*%
%ADD16O,0.03937X0.05906*%
%ADD17O,0.05906X0.03937*%
%ADD18C,0.04500*%
%ADD19R,0.03543X0.02756*%
%ADD20R,0.02756X0.03543*%
%ADD21R,0.02362X0.04528*%
%ADD22C,0.02362*%
%ADD23C,0.00984*%
%ADD24C,0.00787*%
%ADD25C,0.00600*%
%ADD26R,0.25997X0.23635*%
%ADD27R,0.08898X0.03386*%
%ADD28O,0.03162X0.07887*%
%ADD29C,0.08674*%
%ADD30O,0.04737X0.06706*%
%ADD31O,0.06706X0.04737*%
%ADD32C,0.05300*%
D26*
X68303Y26024D02*
D03*
D27*
X43500Y17047D02*
D03*
Y21535D02*
D03*
Y30512D02*
D03*
Y35000D02*
D03*
D28*
X14000Y16000D02*
D03*
X19000D02*
D03*
X24000D02*
D03*
X29000D02*
D03*
X14000Y36472D02*
D03*
X19000D02*
D03*
X24000D02*
D03*
X29000D02*
D03*
D29*
X67000Y7500D02*
D03*
X76500D02*
D03*
X57500D02*
D03*
X48000D02*
D03*
D30*
X40000Y6500D02*
D03*
X34500D02*
D03*
X29000D02*
D03*
X23500D02*
D03*
X12500D02*
D03*
X18000D02*
D03*
D31*
X5500Y5500D02*
D03*
Y11000D02*
D03*
Y16500D02*
D03*
Y22000D02*
D03*
Y27500D02*
D03*
Y33000D02*
D03*
Y38500D02*
D03*
D32*
X35000Y21500D02*
D03*
X24500Y27000D02*
D03*
X34500Y38000D02*
D03*
X35500Y30500D02*
D03*
M02*
