%FSLAX25Y25*%
%MOIN*%
G70*
G01*
G75*
G04 Layer_Color=32768*
%ADD10R,0.25197X0.22835*%
%ADD11R,0.08661X0.03150*%
%ADD12O,0.02362X0.07087*%
%ADD13C,0.04000*%
%ADD14C,0.01000*%
%ADD15C,0.07874*%
%ADD16O,0.03937X0.05906*%
%ADD17O,0.05906X0.03937*%
%ADD18C,0.04500*%
%ADD19R,0.03543X0.02756*%
%ADD20R,0.02756X0.03543*%
%ADD21R,0.02362X0.04528*%
%ADD22C,0.02362*%
%ADD23C,0.00984*%
%ADD24C,0.00787*%
%ADD25C,0.00600*%
%ADD26R,0.25997X0.23635*%
%ADD27R,0.08898X0.03386*%
%ADD28O,0.03162X0.07887*%
%ADD29C,0.08674*%
%ADD30O,0.04737X0.06706*%
%ADD31O,0.06706X0.04737*%
%ADD32C,0.05300*%
%ADD33R,0.04343X0.03556*%
%ADD34R,0.03556X0.04343*%
%ADD35R,0.03162X0.05328*%
%ADD36C,0.00500*%
%ADD37C,0.00394*%
D37*
X25130Y18500D02*
X28870D01*
X27000Y16630D02*
Y20370D01*
X29165Y13776D02*
Y23224D01*
X24835Y13776D02*
Y23224D01*
Y13776D02*
X29165D01*
X24835Y23224D02*
X29165D01*
X62000Y20630D02*
Y24370D01*
X60130Y22500D02*
X63870D01*
X57276Y24665D02*
X66724D01*
X57276Y20335D02*
X66724D01*
Y24665D01*
X57276Y20335D02*
Y24665D01*
X17000Y14630D02*
Y18370D01*
X15130Y16500D02*
X18870D01*
X12276Y14335D02*
X21724D01*
X12276Y18665D02*
X21724D01*
X12276Y14335D02*
Y18665D01*
X21724Y14335D02*
Y18665D01*
X9110Y19323D02*
X22890D01*
X9110Y34677D02*
X22890D01*
Y19323D02*
Y34677D01*
X9110Y19323D02*
Y34677D01*
X16000Y25032D02*
Y28969D01*
X14031Y27000D02*
X17968D01*
X19532Y26236D02*
X23469D01*
X21500Y24268D02*
Y28205D01*
X10673Y11472D02*
Y41000D01*
X32327Y11472D02*
Y41000D01*
X10673Y11472D02*
X32327D01*
X10673Y41000D02*
X32327D01*
X49913Y33717D02*
Y37457D01*
X48043Y35587D02*
X51784D01*
X45189Y33421D02*
X54638D01*
X45189Y37752D02*
X54638D01*
X45189Y33421D02*
Y37752D01*
X54638Y33421D02*
Y37752D01*
X39130Y22500D02*
X42870D01*
X41000Y20630D02*
Y24370D01*
X43165Y17776D02*
Y27224D01*
X38835Y17776D02*
Y27224D01*
Y17776D02*
X43165D01*
X38835Y27224D02*
X43165D01*
M02*
