G04 Layer_Physical_Order=2*
G04 Layer_Color=16711680*
%FSLAX25Y25*%
%MOIN*%
G70*
G01*
G75*
%ADD10O,0.07087X0.02362*%
%ADD14C,0.03000*%
%ADD15C,0.01000*%
%ADD16O,0.08000X0.10000*%
%ADD17C,0.15748*%
%ADD18C,0.06000*%
%ADD19C,0.05000*%
G36*
X51500Y86000D02*
Y71000D01*
X42500D01*
Y86000D01*
X50500D01*
X51000Y86500D01*
X51500Y86000D01*
D02*
G37*
D10*
X57236D02*
D03*
Y81000D02*
D03*
Y76000D02*
D03*
Y71000D02*
D03*
X36764Y86000D02*
D03*
Y81000D02*
D03*
Y76000D02*
D03*
Y71000D02*
D03*
D14*
X51500Y86000D02*
X57236D01*
X47000Y81500D02*
X51500Y86000D01*
X36764Y81000D02*
X46500D01*
X47000Y81500D01*
X31000Y76000D02*
X36764D01*
Y68236D02*
Y71000D01*
Y68236D02*
X39500Y65500D01*
X51736D01*
X57236Y71000D01*
X62000Y66236D01*
X66236D01*
X68500Y68500D01*
X32000Y86000D02*
X36764D01*
X73500Y38067D02*
X82677Y47244D01*
X73500Y35192D02*
Y38067D01*
X57500Y41000D02*
X64500Y34000D01*
X72308D01*
X73500Y35192D01*
X42500Y41000D02*
X57500D01*
X30000Y53500D02*
X42500Y41000D01*
X30000Y53500D02*
Y75000D01*
X31000Y76000D01*
X11811Y47244D02*
X26000Y61433D01*
Y80000D01*
X32000Y86000D01*
X54000Y57000D02*
X59000D01*
X62000Y50000D02*
Y54000D01*
X68500Y39343D02*
Y43500D01*
X62000Y50000D02*
Y54000D01*
X59000Y57000D02*
X62000Y54000D01*
Y50000D02*
X68500Y43500D01*
D15*
X57236Y76000D02*
X70500D01*
X74000Y72500D01*
X76000Y62236D02*
Y73328D01*
X57236Y81000D02*
X68328D01*
X76000Y73328D01*
X74000Y65222D02*
Y72500D01*
X25500Y31000D02*
Y40500D01*
X22000Y27500D02*
X25500Y31000D01*
X70000Y61222D02*
X74000Y65222D01*
X70000Y55843D02*
X71000Y54843D01*
X70000Y55843D02*
Y61222D01*
X69500Y51000D02*
Y53343D01*
X71000Y54843D01*
X74000Y60236D02*
X76000Y62236D01*
X74000Y57500D02*
Y60236D01*
D16*
X33500Y20000D02*
D03*
X69000Y22500D02*
D03*
X45500Y19500D02*
D03*
X57500D02*
D03*
X68500Y68500D02*
D03*
X79000Y30500D02*
D03*
X22000Y27500D02*
D03*
X18500Y67000D02*
D03*
D17*
X82677Y47244D02*
D03*
X11811D02*
D03*
D18*
X47000Y81500D02*
D03*
Y74500D02*
D03*
D19*
X68500Y39343D02*
D03*
X25500Y40500D02*
D03*
X74000Y57500D02*
D03*
X54000Y57000D02*
D03*
X62000Y54000D02*
D03*
X69500Y51000D02*
D03*
M02*
