G04 Layer_Color=65535*
%FSLAX25Y25*%
%MOIN*%
G70*
G01*
G75*
%ADD20C,0.00984*%
%ADD21C,0.02362*%
%ADD22C,0.00787*%
%ADD23C,0.00600*%
D20*
X37756Y48346D02*
G03*
X37756Y48346I-492J0D01*
G01*
D21*
X47500Y43406D02*
G03*
X47500Y43406I-1181J0D01*
G01*
D22*
X42382Y27657D02*
Y47343D01*
X52618Y27657D02*
Y47343D01*
X42382D02*
X52618D01*
X42382Y27657D02*
X52618D01*
X32213Y52622D02*
X33787D01*
X32213Y55378D02*
X33787D01*
X32213Y59122D02*
X33787D01*
X32213Y61878D02*
X33787D01*
X60953Y76925D02*
Y80075D01*
X55047Y76925D02*
Y80075D01*
D23*
X25666Y75499D02*
X23000D01*
Y73499D01*
X24333Y74166D01*
X24999D01*
X25666Y73499D01*
Y72166D01*
X24999Y71500D01*
X23666D01*
X23000Y72166D01*
X70000Y55000D02*
Y56333D01*
Y55666D01*
X66001D01*
X66668Y55000D01*
X70000Y60998D02*
Y58332D01*
X67334Y60998D01*
X66668D01*
X66001Y60332D01*
Y58999D01*
X66668Y58332D01*
X57666Y65832D02*
X56999Y66499D01*
X55666D01*
X55000Y65832D01*
Y63166D01*
X55666Y62500D01*
X56999D01*
X57666Y63166D01*
X58999Y62500D02*
X60332D01*
X59665D01*
Y66499D01*
X58999Y65832D01*
X44166Y52832D02*
X43499Y53499D01*
X42166D01*
X41500Y52832D01*
Y50166D01*
X42166Y49500D01*
X43499D01*
X44166Y50166D01*
X48164Y49500D02*
X45499D01*
X48164Y52166D01*
Y52832D01*
X47498Y53499D01*
X46165D01*
X45499Y52832D01*
X42166Y12832D02*
X41499Y13499D01*
X40166D01*
X39500Y12832D01*
Y10166D01*
X40166Y9500D01*
X41499D01*
X42166Y10166D01*
X52000Y13499D02*
Y9500D01*
X53999D01*
X54666Y10166D01*
Y12832D01*
X53999Y13499D01*
X52000D01*
X14666Y36999D02*
X12000D01*
Y33000D01*
X14666D01*
X12000Y34999D02*
X13333D01*
X15999Y33000D02*
X17332D01*
X16665D01*
Y36999D01*
X15999Y36332D01*
X22666Y19999D02*
X20000D01*
Y16000D01*
X22666D01*
X20000Y17999D02*
X21333D01*
X26665Y16000D02*
X23999D01*
X26665Y18666D01*
Y19332D01*
X25998Y19999D01*
X24665D01*
X23999Y19332D01*
X77666Y23499D02*
X75000D01*
Y19500D01*
X77666D01*
X75000Y21499D02*
X76333D01*
X81665Y22832D02*
X80998Y23499D01*
X79665D01*
X78999Y22832D01*
Y20166D01*
X79665Y19500D01*
X80998D01*
X81665Y20166D01*
Y21499D01*
X80332D01*
X66166Y15832D02*
X65499Y16499D01*
X64166D01*
X63500Y15832D01*
Y13167D01*
X64166Y12500D01*
X65499D01*
X66166Y13167D01*
Y14499D01*
X64833D01*
X8000Y57500D02*
Y61499D01*
X9333Y60166D01*
X10666Y61499D01*
Y57500D01*
X11999Y59499D02*
X14664D01*
X13332Y60832D02*
Y58166D01*
X80000Y60500D02*
Y64499D01*
X81333Y63166D01*
X82666Y64499D01*
Y60500D01*
X83999Y62499D02*
X86664D01*
X21500Y51500D02*
Y55499D01*
X23499D01*
X24166Y54832D01*
Y53499D01*
X23499Y52833D01*
X21500D01*
X22833D02*
X24166Y51500D01*
X25499D02*
X26832D01*
X26165D01*
Y55499D01*
X25499Y54832D01*
X24500Y64500D02*
Y68499D01*
X26499D01*
X27166Y67832D01*
Y66499D01*
X26499Y65833D01*
X24500D01*
X25833D02*
X27166Y64500D01*
X31165D02*
X28499D01*
X31165Y67166D01*
Y67832D01*
X30498Y68499D01*
X29165D01*
X28499Y67832D01*
X45501Y31000D02*
X48834D01*
X49500Y31666D01*
Y32999D01*
X48834Y33666D01*
X45501D01*
X49500Y37664D02*
Y34999D01*
X46834Y37664D01*
X46168D01*
X45501Y36998D01*
Y35665D01*
X46168Y34999D01*
M02*
