%FSLAX25Y25*%
%MOIN*%
G70*
G01*
G75*
G04 Layer_Color=16711935*
%ADD10O,0.02362X0.09055*%
%ADD11R,0.02756X0.03543*%
%ADD12O,0.01969X0.06299*%
%ADD13R,0.03150X0.03543*%
%ADD14R,0.06693X0.02953*%
%ADD15O,0.07087X0.02362*%
%ADD16R,0.03543X0.02756*%
%ADD17R,0.03543X0.03150*%
%ADD18O,0.06299X0.01969*%
%ADD19C,0.02000*%
%ADD20C,0.01000*%
%ADD21C,0.07874*%
%ADD22O,0.03937X0.05906*%
%ADD23C,0.04724*%
%ADD24O,0.05906X0.03937*%
%ADD25C,0.05000*%
%ADD26C,0.00984*%
%ADD27C,0.02362*%
%ADD28C,0.00787*%
%ADD29C,0.00600*%
%ADD30O,0.02762X0.09455*%
%ADD31R,0.03156X0.03943*%
%ADD32O,0.02369X0.06699*%
%ADD33R,0.03550X0.03943*%
%ADD34R,0.07093X0.03353*%
%ADD35O,0.07487X0.02762*%
%ADD36R,0.03943X0.03156*%
%ADD37R,0.03943X0.03550*%
%ADD38O,0.06699X0.02369*%
%ADD39C,0.08274*%
%ADD40O,0.04337X0.06306*%
%ADD41C,0.05124*%
%ADD42O,0.06306X0.04337*%
%ADD43C,0.05400*%
D39*
X6618Y78697D02*
D03*
X26118D02*
D03*
X171118Y78197D02*
D03*
X184618D02*
D03*
X167618Y56197D02*
D03*
Y40197D02*
D03*
Y23197D02*
D03*
X81118Y9197D02*
D03*
X159618Y6707D02*
D03*
X168618Y6697D02*
D03*
X81118Y19197D02*
D03*
X63618Y52697D02*
D03*
X79618D02*
D03*
X50118Y70197D02*
D03*
X45118Y78697D02*
D03*
X35618D02*
D03*
X16618D02*
D03*
X12118Y70197D02*
D03*
X21618D02*
D03*
X31118D02*
D03*
X40618D02*
D03*
X7118Y38697D02*
D03*
X201500Y78697D02*
D03*
X221000D02*
D03*
X366000Y78197D02*
D03*
X379500D02*
D03*
X362500Y56197D02*
D03*
Y40197D02*
D03*
Y23197D02*
D03*
X276000Y9197D02*
D03*
X354500Y6707D02*
D03*
X363500Y6697D02*
D03*
X276000Y19197D02*
D03*
X258500Y52697D02*
D03*
X274500D02*
D03*
X245000Y70197D02*
D03*
X240000Y78697D02*
D03*
X230500D02*
D03*
X211500D02*
D03*
X207000Y70197D02*
D03*
X216500D02*
D03*
X226000D02*
D03*
X235500D02*
D03*
X202000Y38697D02*
D03*
X6618Y166098D02*
D03*
X26118D02*
D03*
X171118Y165598D02*
D03*
X184618D02*
D03*
X167618Y143598D02*
D03*
Y127598D02*
D03*
Y110598D02*
D03*
X81118Y96598D02*
D03*
X159618Y94109D02*
D03*
X168618Y94098D02*
D03*
X81118Y106598D02*
D03*
X63618Y140098D02*
D03*
X79618D02*
D03*
X50118Y157598D02*
D03*
X45118Y166098D02*
D03*
X35618D02*
D03*
X16618D02*
D03*
X12118Y157598D02*
D03*
X21618D02*
D03*
X31118D02*
D03*
X40618D02*
D03*
X7118Y126098D02*
D03*
X201500Y166098D02*
D03*
X221000D02*
D03*
X366000Y165598D02*
D03*
X379500D02*
D03*
X362500Y143598D02*
D03*
Y127598D02*
D03*
Y110598D02*
D03*
X276000Y96598D02*
D03*
X354500Y94109D02*
D03*
X363500Y94098D02*
D03*
X276000Y106598D02*
D03*
X258500Y140098D02*
D03*
X274500D02*
D03*
X245000Y157598D02*
D03*
X240000Y166098D02*
D03*
X230500D02*
D03*
X211500D02*
D03*
X207000Y157598D02*
D03*
X216500D02*
D03*
X226000D02*
D03*
X235500D02*
D03*
X202000Y126098D02*
D03*
X6618Y253500D02*
D03*
X26118D02*
D03*
X171118Y253000D02*
D03*
X184618D02*
D03*
X167618Y231000D02*
D03*
Y215000D02*
D03*
Y198000D02*
D03*
X81118Y184000D02*
D03*
X159618Y181510D02*
D03*
X168618Y181500D02*
D03*
X81118Y194000D02*
D03*
X63618Y227500D02*
D03*
X79618D02*
D03*
X50118Y245000D02*
D03*
X45118Y253500D02*
D03*
X35618D02*
D03*
X16618D02*
D03*
X12118Y245000D02*
D03*
X21618D02*
D03*
X31118D02*
D03*
X40618D02*
D03*
X7118Y213500D02*
D03*
X201500Y253500D02*
D03*
X221000D02*
D03*
X366000Y253000D02*
D03*
X379500D02*
D03*
X362500Y231000D02*
D03*
Y215000D02*
D03*
Y198000D02*
D03*
X276000Y184000D02*
D03*
X354500Y181510D02*
D03*
X363500Y181500D02*
D03*
X276000Y194000D02*
D03*
X258500Y227500D02*
D03*
X274500D02*
D03*
X245000Y245000D02*
D03*
X240000Y253500D02*
D03*
X230500D02*
D03*
X211500D02*
D03*
X207000Y245000D02*
D03*
X216500D02*
D03*
X226000D02*
D03*
X235500D02*
D03*
X202000Y213500D02*
D03*
X6618Y340902D02*
D03*
X26118D02*
D03*
X171118Y340402D02*
D03*
X184618D02*
D03*
X167618Y318402D02*
D03*
Y302402D02*
D03*
Y285402D02*
D03*
X81118Y271402D02*
D03*
X159618Y268912D02*
D03*
X168618Y268902D02*
D03*
X81118Y281402D02*
D03*
X63618Y314902D02*
D03*
X79618D02*
D03*
X50118Y332402D02*
D03*
X45118Y340902D02*
D03*
X35618D02*
D03*
X16618D02*
D03*
X12118Y332402D02*
D03*
X21618D02*
D03*
X31118D02*
D03*
X40618D02*
D03*
X7118Y300902D02*
D03*
X201500Y340902D02*
D03*
X221000D02*
D03*
X366000Y340402D02*
D03*
X379500D02*
D03*
X362500Y318402D02*
D03*
Y302402D02*
D03*
Y285402D02*
D03*
X276000Y271402D02*
D03*
X354500Y268912D02*
D03*
X363500Y268902D02*
D03*
X276000Y281402D02*
D03*
X258500Y314902D02*
D03*
X274500D02*
D03*
X245000Y332402D02*
D03*
X240000Y340902D02*
D03*
X230500D02*
D03*
X211500D02*
D03*
X207000Y332402D02*
D03*
X216500D02*
D03*
X226000D02*
D03*
X235500D02*
D03*
X202000Y300902D02*
D03*
D40*
X156618Y78197D02*
D03*
X131118D02*
D03*
X125118D02*
D03*
X119118D02*
D03*
X113118D02*
D03*
X107118D02*
D03*
X101118D02*
D03*
X95118D02*
D03*
X156618Y23697D02*
D03*
X103618Y11697D02*
D03*
Y19697D02*
D03*
X351500Y78197D02*
D03*
X326000D02*
D03*
X320000D02*
D03*
X314000D02*
D03*
X308000D02*
D03*
X302000D02*
D03*
X296000D02*
D03*
X290000D02*
D03*
X351500Y23697D02*
D03*
X298500Y11697D02*
D03*
Y19697D02*
D03*
X156618Y165598D02*
D03*
X131118D02*
D03*
X125118D02*
D03*
X119118D02*
D03*
X113118D02*
D03*
X107118D02*
D03*
X101118D02*
D03*
X95118D02*
D03*
X156618Y111098D02*
D03*
X103618Y99098D02*
D03*
Y107098D02*
D03*
X351500Y165598D02*
D03*
X326000D02*
D03*
X320000D02*
D03*
X314000D02*
D03*
X308000D02*
D03*
X302000D02*
D03*
X296000D02*
D03*
X290000D02*
D03*
X351500Y111098D02*
D03*
X298500Y99098D02*
D03*
Y107098D02*
D03*
X156618Y253000D02*
D03*
X131118D02*
D03*
X125118D02*
D03*
X119118D02*
D03*
X113118D02*
D03*
X107118D02*
D03*
X101118D02*
D03*
X95118D02*
D03*
X156618Y198500D02*
D03*
X103618Y186500D02*
D03*
Y194500D02*
D03*
X351500Y253000D02*
D03*
X326000D02*
D03*
X320000D02*
D03*
X314000D02*
D03*
X308000D02*
D03*
X302000D02*
D03*
X296000D02*
D03*
X290000D02*
D03*
X351500Y198500D02*
D03*
X298500Y186500D02*
D03*
Y194500D02*
D03*
X156618Y340402D02*
D03*
X131118D02*
D03*
X125118D02*
D03*
X119118D02*
D03*
X113118D02*
D03*
X107118D02*
D03*
X101118D02*
D03*
X95118D02*
D03*
X156618Y285902D02*
D03*
X103618Y273902D02*
D03*
Y281902D02*
D03*
X351500Y340402D02*
D03*
X326000D02*
D03*
X320000D02*
D03*
X314000D02*
D03*
X308000D02*
D03*
X302000D02*
D03*
X296000D02*
D03*
X290000D02*
D03*
X351500Y285902D02*
D03*
X298500Y273902D02*
D03*
Y281902D02*
D03*
D41*
X123906Y11197D02*
D03*
X143118D02*
D03*
X318787D02*
D03*
X338000D02*
D03*
X123906Y98598D02*
D03*
X143118D02*
D03*
X318787D02*
D03*
X338000D02*
D03*
X123906Y186000D02*
D03*
X143118D02*
D03*
X318787D02*
D03*
X338000D02*
D03*
X123906Y273402D02*
D03*
X143118D02*
D03*
X318787D02*
D03*
X338000D02*
D03*
D42*
X82618Y28197D02*
D03*
X277500D02*
D03*
X82618Y115598D02*
D03*
X277500D02*
D03*
X82618Y203000D02*
D03*
X277500D02*
D03*
X82618Y290402D02*
D03*
X277500D02*
D03*
D43*
X157118Y57197D02*
D03*
X142618D02*
D03*
X135618Y57697D02*
D03*
X7118Y29697D02*
D03*
X67618Y16697D02*
D03*
X94118Y22197D02*
D03*
X20618Y46697D02*
D03*
X127618Y58197D02*
D03*
X126118Y41697D02*
D03*
X44118Y24697D02*
D03*
X56118Y61197D02*
D03*
X352000Y57197D02*
D03*
X337500D02*
D03*
X330500Y57697D02*
D03*
X202000Y29697D02*
D03*
X262500Y16697D02*
D03*
X289000Y22197D02*
D03*
X215500Y46697D02*
D03*
X322500Y58197D02*
D03*
X321000Y41697D02*
D03*
X239000Y24697D02*
D03*
X251000Y61197D02*
D03*
X157118Y144598D02*
D03*
X142618D02*
D03*
X135618Y145098D02*
D03*
X7118Y117098D02*
D03*
X67618Y104098D02*
D03*
X94118Y109598D02*
D03*
X20618Y134098D02*
D03*
X127618Y145598D02*
D03*
X126118Y129098D02*
D03*
X44118Y112098D02*
D03*
X56118Y148598D02*
D03*
X352000Y144598D02*
D03*
X337500D02*
D03*
X330500Y145098D02*
D03*
X202000Y117098D02*
D03*
X262500Y104098D02*
D03*
X289000Y109598D02*
D03*
X215500Y134098D02*
D03*
X322500Y145598D02*
D03*
X321000Y129098D02*
D03*
X239000Y112098D02*
D03*
X251000Y148598D02*
D03*
X157118Y232000D02*
D03*
X142618D02*
D03*
X135618Y232500D02*
D03*
X7118Y204500D02*
D03*
X67618Y191500D02*
D03*
X94118Y197000D02*
D03*
X20618Y221500D02*
D03*
X127618Y233000D02*
D03*
X126118Y216500D02*
D03*
X44118Y199500D02*
D03*
X56118Y236000D02*
D03*
X352000Y232000D02*
D03*
X337500D02*
D03*
X330500Y232500D02*
D03*
X202000Y204500D02*
D03*
X262500Y191500D02*
D03*
X289000Y197000D02*
D03*
X215500Y221500D02*
D03*
X322500Y233000D02*
D03*
X321000Y216500D02*
D03*
X239000Y199500D02*
D03*
X251000Y236000D02*
D03*
X157118Y319402D02*
D03*
X142618D02*
D03*
X135618Y319902D02*
D03*
X7118Y291902D02*
D03*
X67618Y278902D02*
D03*
X94118Y284402D02*
D03*
X20618Y308902D02*
D03*
X127618Y320402D02*
D03*
X126118Y303902D02*
D03*
X44118Y286902D02*
D03*
X56118Y323402D02*
D03*
X352000Y319402D02*
D03*
X337500D02*
D03*
X330500Y319902D02*
D03*
X202000Y291902D02*
D03*
X262500Y278902D02*
D03*
X289000Y284402D02*
D03*
X215500Y308902D02*
D03*
X322500Y320402D02*
D03*
X321000Y303902D02*
D03*
X239000Y286902D02*
D03*
X251000Y323402D02*
D03*
M02*
