%FSLAX25Y25*%
%MOIN*%
G70*
G01*
G75*
G04 Layer_Color=16711935*
%ADD10O,0.02362X0.09055*%
%ADD11R,0.02756X0.03543*%
%ADD12O,0.01969X0.06299*%
%ADD13R,0.03150X0.03543*%
%ADD14R,0.06693X0.02953*%
%ADD15O,0.07087X0.02362*%
%ADD16R,0.03543X0.02756*%
%ADD17R,0.03543X0.03150*%
%ADD18O,0.06299X0.01969*%
%ADD19C,0.02000*%
%ADD20C,0.01000*%
%ADD21C,0.07874*%
%ADD22O,0.03937X0.05906*%
%ADD23C,0.04724*%
%ADD24O,0.05906X0.03937*%
%ADD25C,0.05000*%
%ADD26C,0.00984*%
%ADD27C,0.02362*%
%ADD28C,0.00787*%
%ADD29C,0.00600*%
%ADD30O,0.02762X0.09455*%
%ADD31R,0.03156X0.03943*%
%ADD32O,0.02369X0.06699*%
%ADD33R,0.03550X0.03943*%
%ADD34R,0.07093X0.03353*%
%ADD35O,0.07487X0.02762*%
%ADD36R,0.03943X0.03156*%
%ADD37R,0.03943X0.03550*%
%ADD38O,0.06699X0.02369*%
%ADD39C,0.08274*%
%ADD40O,0.04337X0.06306*%
%ADD41C,0.05124*%
%ADD42O,0.06306X0.04337*%
%ADD43C,0.05400*%
%ADD44C,0.01181*%
%ADD45C,0.00394*%
D45*
X93980Y39779D02*
G03*
X93980Y39779I-1969J0D01*
G01*
X31917Y15898D02*
G03*
X31917Y15898I-1969J0D01*
G01*
X22256Y60496D02*
G03*
X22256Y60496I-1969J0D01*
G01*
X88468Y36236D02*
X159768D01*
X88468Y66158D02*
X159768D01*
X88468Y36236D02*
Y66158D01*
X159768Y36236D02*
Y66158D01*
X79272Y76327D02*
X85965D01*
X79272Y80067D02*
X85965D01*
Y76327D02*
Y80067D01*
X79272Y76327D02*
Y80067D01*
X164272Y66567D02*
X170965D01*
X164272Y62827D02*
X170965D01*
X164272D02*
Y66567D01*
X170965Y62827D02*
Y66567D01*
X164272Y50067D02*
X170965D01*
X164272Y46327D02*
X170965D01*
X164272D02*
Y50067D01*
X170965Y46327D02*
Y50067D01*
X187221Y61850D02*
Y68543D01*
X175016Y61850D02*
Y68543D01*
X187221D01*
X175016Y61850D02*
X187221D01*
X164272Y12827D02*
X170965D01*
X164272Y16567D02*
X170965D01*
Y12827D02*
Y16567D01*
X164272Y12827D02*
Y16567D01*
Y29827D02*
X170965D01*
X164272Y33567D02*
X170965D01*
Y29827D02*
Y33567D01*
X164272Y29827D02*
Y33567D01*
X136173Y24567D02*
X143063D01*
X136173Y20827D02*
X143063D01*
X136173D02*
Y24567D01*
X143063Y20827D02*
Y24567D01*
X124673Y20827D02*
X131563D01*
X124673Y24567D02*
X131563D01*
Y20827D02*
Y24567D01*
X124673Y20827D02*
Y24567D01*
X90772Y13827D02*
X97465D01*
X90772Y17567D02*
X97465D01*
Y13827D02*
Y17567D01*
X90772Y13827D02*
Y17567D01*
X55468Y29496D02*
X61768D01*
X55468Y16898D02*
X61768D01*
Y29496D01*
X55468Y16898D02*
Y29496D01*
X17744Y32039D02*
X33492D01*
X17744Y12354D02*
X33492D01*
X17744D02*
Y32039D01*
X33492Y12354D02*
Y32039D01*
X17272Y39067D02*
X23965D01*
X17272Y35327D02*
X23965D01*
X17272D02*
Y39067D01*
X23965Y35327D02*
Y39067D01*
X7988Y50350D02*
Y57043D01*
X4248Y50350D02*
Y57043D01*
X7988D01*
X4248Y50350D02*
X7988D01*
X44272Y63067D02*
X50965D01*
X44272Y59327D02*
X50965D01*
X44272D02*
Y63067D01*
X50965Y59327D02*
Y63067D01*
X45488Y43252D02*
Y50142D01*
X41748Y43252D02*
Y50142D01*
X45488D01*
X41748Y43252D02*
X45488D01*
X52772Y35094D02*
X59465D01*
X52772Y47299D02*
X59465D01*
Y35094D02*
Y47299D01*
X52772Y35094D02*
Y47299D01*
X63272Y81299D02*
X69965D01*
X63272Y69095D02*
X69965D01*
X63272D02*
Y81299D01*
X69965Y69095D02*
Y81299D01*
X49272Y55067D02*
X55965D01*
X49272Y51327D02*
X55965D01*
X49272D02*
Y55067D01*
X55965Y51327D02*
Y55067D01*
X16744Y44354D02*
X32492D01*
X16744Y64039D02*
X32492D01*
Y44354D02*
Y64039D01*
X16744Y44354D02*
Y64039D01*
X71272Y33595D02*
X77965D01*
X71272Y45799D02*
X77965D01*
Y33595D02*
Y45799D01*
X71272Y33595D02*
Y45799D01*
X73488Y49850D02*
Y56543D01*
X69748Y49850D02*
Y56543D01*
X73488D01*
X69748Y49850D02*
X73488D01*
X187221Y9350D02*
Y16043D01*
X175016Y9350D02*
Y16043D01*
X187221D01*
X175016Y9350D02*
X187221D01*
Y26850D02*
Y33543D01*
X175016Y26850D02*
Y33543D01*
X187221D01*
X175016Y26850D02*
X187221D01*
Y44350D02*
Y51043D01*
X175016Y44350D02*
Y51043D01*
X187221D01*
X175016Y44350D02*
X187221D01*
X288862Y39779D02*
G03*
X288862Y39779I-1969J0D01*
G01*
X226799Y15898D02*
G03*
X226799Y15898I-1969J0D01*
G01*
X217138Y60496D02*
G03*
X217138Y60496I-1969J0D01*
G01*
X283350Y36236D02*
X354650D01*
X283350Y66158D02*
X354650D01*
X283350Y36236D02*
Y66158D01*
X354650Y36236D02*
Y66158D01*
X274153Y76327D02*
X280847D01*
X274153Y80067D02*
X280847D01*
Y76327D02*
Y80067D01*
X274153Y76327D02*
Y80067D01*
X359154Y66567D02*
X365846D01*
X359154Y62827D02*
X365846D01*
X359154D02*
Y66567D01*
X365846Y62827D02*
Y66567D01*
X359154Y50067D02*
X365846D01*
X359154Y46327D02*
X365846D01*
X359154D02*
Y50067D01*
X365846Y46327D02*
Y50067D01*
X382102Y61850D02*
Y68543D01*
X369898Y61850D02*
Y68543D01*
X382102D01*
X369898Y61850D02*
X382102D01*
X359154Y12827D02*
X365846D01*
X359154Y16567D02*
X365846D01*
Y12827D02*
Y16567D01*
X359154Y12827D02*
Y16567D01*
Y29827D02*
X365846D01*
X359154Y33567D02*
X365846D01*
Y29827D02*
Y33567D01*
X359154Y29827D02*
Y33567D01*
X331055Y24567D02*
X337945D01*
X331055Y20827D02*
X337945D01*
X331055D02*
Y24567D01*
X337945Y20827D02*
Y24567D01*
X319555Y20827D02*
X326445D01*
X319555Y24567D02*
X326445D01*
Y20827D02*
Y24567D01*
X319555Y20827D02*
Y24567D01*
X285653Y13827D02*
X292347D01*
X285653Y17567D02*
X292347D01*
Y13827D02*
Y17567D01*
X285653Y13827D02*
Y17567D01*
X250350Y29496D02*
X256650D01*
X250350Y16898D02*
X256650D01*
Y29496D01*
X250350Y16898D02*
Y29496D01*
X212626Y32039D02*
X228374D01*
X212626Y12354D02*
X228374D01*
X212626D02*
Y32039D01*
X228374Y12354D02*
Y32039D01*
X212154Y39067D02*
X218847D01*
X212154Y35327D02*
X218847D01*
X212154D02*
Y39067D01*
X218847Y35327D02*
Y39067D01*
X202870Y50350D02*
Y57043D01*
X199130Y50350D02*
Y57043D01*
X202870D01*
X199130Y50350D02*
X202870D01*
X239154Y63067D02*
X245847D01*
X239154Y59327D02*
X245847D01*
X239154D02*
Y63067D01*
X245847Y59327D02*
Y63067D01*
X240370Y43252D02*
Y50142D01*
X236630Y43252D02*
Y50142D01*
X240370D01*
X236630Y43252D02*
X240370D01*
X247654Y35094D02*
X254346D01*
X247654Y47299D02*
X254346D01*
Y35094D02*
Y47299D01*
X247654Y35094D02*
Y47299D01*
X258154Y81299D02*
X264846D01*
X258154Y69095D02*
X264846D01*
X258154D02*
Y81299D01*
X264846Y69095D02*
Y81299D01*
X244153Y55067D02*
X250847D01*
X244153Y51327D02*
X250847D01*
X244153D02*
Y55067D01*
X250847Y51327D02*
Y55067D01*
X211626Y44354D02*
X227374D01*
X211626Y64039D02*
X227374D01*
Y44354D02*
Y64039D01*
X211626Y44354D02*
Y64039D01*
X266154Y33595D02*
X272847D01*
X266154Y45799D02*
X272847D01*
Y33595D02*
Y45799D01*
X266154Y33595D02*
Y45799D01*
X268370Y49850D02*
Y56543D01*
X264630Y49850D02*
Y56543D01*
X268370D01*
X264630Y49850D02*
X268370D01*
X382102Y9350D02*
Y16043D01*
X369898Y9350D02*
Y16043D01*
X382102D01*
X369898Y9350D02*
X382102D01*
Y26850D02*
Y33543D01*
X369898Y26850D02*
Y33543D01*
X382102D01*
X369898Y26850D02*
X382102D01*
Y44350D02*
Y51043D01*
X369898Y44350D02*
Y51043D01*
X382102D01*
X369898Y44350D02*
X382102D01*
X93980Y127181D02*
G03*
X93980Y127181I-1969J0D01*
G01*
X31917Y103299D02*
G03*
X31917Y103299I-1969J0D01*
G01*
X22256Y147898D02*
G03*
X22256Y147898I-1969J0D01*
G01*
X88468Y123638D02*
X159768D01*
X88468Y153559D02*
X159768D01*
X88468Y123638D02*
Y153559D01*
X159768Y123638D02*
Y153559D01*
X79272Y163728D02*
X85965D01*
X79272Y167469D02*
X85965D01*
Y163728D02*
Y167469D01*
X79272Y163728D02*
Y167469D01*
X164272Y153969D02*
X170965D01*
X164272Y150228D02*
X170965D01*
X164272D02*
Y153969D01*
X170965Y150228D02*
Y153969D01*
X164272Y137469D02*
X170965D01*
X164272Y133728D02*
X170965D01*
X164272D02*
Y137469D01*
X170965Y133728D02*
Y137469D01*
X187221Y149252D02*
Y155945D01*
X175016Y149252D02*
Y155945D01*
X187221D01*
X175016Y149252D02*
X187221D01*
X164272Y100228D02*
X170965D01*
X164272Y103969D02*
X170965D01*
Y100228D02*
Y103969D01*
X164272Y100228D02*
Y103969D01*
Y117228D02*
X170965D01*
X164272Y120968D02*
X170965D01*
Y117228D02*
Y120968D01*
X164272Y117228D02*
Y120968D01*
X136173Y111969D02*
X143063D01*
X136173Y108228D02*
X143063D01*
X136173D02*
Y111969D01*
X143063Y108228D02*
Y111969D01*
X124673Y108228D02*
X131563D01*
X124673Y111969D02*
X131563D01*
Y108228D02*
Y111969D01*
X124673Y108228D02*
Y111969D01*
X90772Y101228D02*
X97465D01*
X90772Y104969D02*
X97465D01*
Y101228D02*
Y104969D01*
X90772Y101228D02*
Y104969D01*
X55468Y116898D02*
X61768D01*
X55468Y104299D02*
X61768D01*
Y116898D01*
X55468Y104299D02*
Y116898D01*
X17744Y119441D02*
X33492D01*
X17744Y99756D02*
X33492D01*
X17744D02*
Y119441D01*
X33492Y99756D02*
Y119441D01*
X17272Y126469D02*
X23965D01*
X17272Y122728D02*
X23965D01*
X17272D02*
Y126469D01*
X23965Y122728D02*
Y126469D01*
X7988Y137752D02*
Y144445D01*
X4248Y137752D02*
Y144445D01*
X7988D01*
X4248Y137752D02*
X7988D01*
X44272Y150469D02*
X50965D01*
X44272Y146728D02*
X50965D01*
X44272D02*
Y150469D01*
X50965Y146728D02*
Y150469D01*
X45488Y130654D02*
Y137543D01*
X41748Y130654D02*
Y137543D01*
X45488D01*
X41748Y130654D02*
X45488D01*
X52772Y122496D02*
X59465D01*
X52772Y134701D02*
X59465D01*
Y122496D02*
Y134701D01*
X52772Y122496D02*
Y134701D01*
X63272Y168701D02*
X69965D01*
X63272Y156496D02*
X69965D01*
X63272D02*
Y168701D01*
X69965Y156496D02*
Y168701D01*
X49272Y142469D02*
X55965D01*
X49272Y138728D02*
X55965D01*
X49272D02*
Y142469D01*
X55965Y138728D02*
Y142469D01*
X16744Y131756D02*
X32492D01*
X16744Y151441D02*
X32492D01*
Y131756D02*
Y151441D01*
X16744Y131756D02*
Y151441D01*
X71272Y120996D02*
X77965D01*
X71272Y133201D02*
X77965D01*
Y120996D02*
Y133201D01*
X71272Y120996D02*
Y133201D01*
X73488Y137252D02*
Y143945D01*
X69748Y137252D02*
Y143945D01*
X73488D01*
X69748Y137252D02*
X73488D01*
X187221Y96752D02*
Y103445D01*
X175016Y96752D02*
Y103445D01*
X187221D01*
X175016Y96752D02*
X187221D01*
Y114252D02*
Y120945D01*
X175016Y114252D02*
Y120945D01*
X187221D01*
X175016Y114252D02*
X187221D01*
Y131752D02*
Y138445D01*
X175016Y131752D02*
Y138445D01*
X187221D01*
X175016Y131752D02*
X187221D01*
X288862Y127181D02*
G03*
X288862Y127181I-1969J0D01*
G01*
X226799Y103299D02*
G03*
X226799Y103299I-1969J0D01*
G01*
X217138Y147898D02*
G03*
X217138Y147898I-1969J0D01*
G01*
X283350Y123638D02*
X354650D01*
X283350Y153559D02*
X354650D01*
X283350Y123638D02*
Y153559D01*
X354650Y123638D02*
Y153559D01*
X274153Y163728D02*
X280847D01*
X274153Y167469D02*
X280847D01*
Y163728D02*
Y167469D01*
X274153Y163728D02*
Y167469D01*
X359154Y153969D02*
X365846D01*
X359154Y150228D02*
X365846D01*
X359154D02*
Y153969D01*
X365846Y150228D02*
Y153969D01*
X359154Y137469D02*
X365846D01*
X359154Y133728D02*
X365846D01*
X359154D02*
Y137469D01*
X365846Y133728D02*
Y137469D01*
X382102Y149252D02*
Y155945D01*
X369898Y149252D02*
Y155945D01*
X382102D01*
X369898Y149252D02*
X382102D01*
X359154Y100228D02*
X365846D01*
X359154Y103969D02*
X365846D01*
Y100228D02*
Y103969D01*
X359154Y100228D02*
Y103969D01*
Y117228D02*
X365846D01*
X359154Y120968D02*
X365846D01*
Y117228D02*
Y120968D01*
X359154Y117228D02*
Y120968D01*
X331055Y111969D02*
X337945D01*
X331055Y108228D02*
X337945D01*
X331055D02*
Y111969D01*
X337945Y108228D02*
Y111969D01*
X319555Y108228D02*
X326445D01*
X319555Y111969D02*
X326445D01*
Y108228D02*
Y111969D01*
X319555Y108228D02*
Y111969D01*
X285653Y101228D02*
X292347D01*
X285653Y104969D02*
X292347D01*
Y101228D02*
Y104969D01*
X285653Y101228D02*
Y104969D01*
X250350Y116898D02*
X256650D01*
X250350Y104299D02*
X256650D01*
Y116898D01*
X250350Y104299D02*
Y116898D01*
X212626Y119441D02*
X228374D01*
X212626Y99756D02*
X228374D01*
X212626D02*
Y119441D01*
X228374Y99756D02*
Y119441D01*
X212154Y126469D02*
X218847D01*
X212154Y122728D02*
X218847D01*
X212154D02*
Y126469D01*
X218847Y122728D02*
Y126469D01*
X202870Y137752D02*
Y144445D01*
X199130Y137752D02*
Y144445D01*
X202870D01*
X199130Y137752D02*
X202870D01*
X239154Y150469D02*
X245847D01*
X239154Y146728D02*
X245847D01*
X239154D02*
Y150469D01*
X245847Y146728D02*
Y150469D01*
X240370Y130654D02*
Y137543D01*
X236630Y130654D02*
Y137543D01*
X240370D01*
X236630Y130654D02*
X240370D01*
X247654Y122496D02*
X254346D01*
X247654Y134701D02*
X254346D01*
Y122496D02*
Y134701D01*
X247654Y122496D02*
Y134701D01*
X258154Y168701D02*
X264846D01*
X258154Y156496D02*
X264846D01*
X258154D02*
Y168701D01*
X264846Y156496D02*
Y168701D01*
X244153Y142469D02*
X250847D01*
X244153Y138728D02*
X250847D01*
X244153D02*
Y142469D01*
X250847Y138728D02*
Y142469D01*
X211626Y131756D02*
X227374D01*
X211626Y151441D02*
X227374D01*
Y131756D02*
Y151441D01*
X211626Y131756D02*
Y151441D01*
X266154Y120996D02*
X272847D01*
X266154Y133201D02*
X272847D01*
Y120996D02*
Y133201D01*
X266154Y120996D02*
Y133201D01*
X268370Y137252D02*
Y143945D01*
X264630Y137252D02*
Y143945D01*
X268370D01*
X264630Y137252D02*
X268370D01*
X382102Y96752D02*
Y103445D01*
X369898Y96752D02*
Y103445D01*
X382102D01*
X369898Y96752D02*
X382102D01*
Y114252D02*
Y120945D01*
X369898Y114252D02*
Y120945D01*
X382102D01*
X369898Y114252D02*
X382102D01*
Y131752D02*
Y138445D01*
X369898Y131752D02*
Y138445D01*
X382102D01*
X369898Y131752D02*
X382102D01*
X93980Y214583D02*
G03*
X93980Y214583I-1969J0D01*
G01*
X31917Y190701D02*
G03*
X31917Y190701I-1969J0D01*
G01*
X22256Y235299D02*
G03*
X22256Y235299I-1969J0D01*
G01*
X88468Y211039D02*
X159768D01*
X88468Y240961D02*
X159768D01*
X88468Y211039D02*
Y240961D01*
X159768Y211039D02*
Y240961D01*
X79272Y251130D02*
X85965D01*
X79272Y254870D02*
X85965D01*
Y251130D02*
Y254870D01*
X79272Y251130D02*
Y254870D01*
X164272Y241370D02*
X170965D01*
X164272Y237630D02*
X170965D01*
X164272D02*
Y241370D01*
X170965Y237630D02*
Y241370D01*
X164272Y224870D02*
X170965D01*
X164272Y221130D02*
X170965D01*
X164272D02*
Y224870D01*
X170965Y221130D02*
Y224870D01*
X187221Y236653D02*
Y243347D01*
X175016Y236653D02*
Y243347D01*
X187221D01*
X175016Y236653D02*
X187221D01*
X164272Y187630D02*
X170965D01*
X164272Y191370D02*
X170965D01*
Y187630D02*
Y191370D01*
X164272Y187630D02*
Y191370D01*
Y204630D02*
X170965D01*
X164272Y208370D02*
X170965D01*
Y204630D02*
Y208370D01*
X164272Y204630D02*
Y208370D01*
X136173Y199370D02*
X143063D01*
X136173Y195630D02*
X143063D01*
X136173D02*
Y199370D01*
X143063Y195630D02*
Y199370D01*
X124673Y195630D02*
X131563D01*
X124673Y199370D02*
X131563D01*
Y195630D02*
Y199370D01*
X124673Y195630D02*
Y199370D01*
X90772Y188630D02*
X97465D01*
X90772Y192370D02*
X97465D01*
Y188630D02*
Y192370D01*
X90772Y188630D02*
Y192370D01*
X55468Y204299D02*
X61768D01*
X55468Y191701D02*
X61768D01*
Y204299D01*
X55468Y191701D02*
Y204299D01*
X17744Y206842D02*
X33492D01*
X17744Y187157D02*
X33492D01*
X17744D02*
Y206842D01*
X33492Y187157D02*
Y206842D01*
X17272Y213870D02*
X23965D01*
X17272Y210130D02*
X23965D01*
X17272D02*
Y213870D01*
X23965Y210130D02*
Y213870D01*
X7988Y225153D02*
Y231846D01*
X4248Y225153D02*
Y231846D01*
X7988D01*
X4248Y225153D02*
X7988D01*
X44272Y237870D02*
X50965D01*
X44272Y234130D02*
X50965D01*
X44272D02*
Y237870D01*
X50965Y234130D02*
Y237870D01*
X45488Y218055D02*
Y224945D01*
X41748Y218055D02*
Y224945D01*
X45488D01*
X41748Y218055D02*
X45488D01*
X52772Y209898D02*
X59465D01*
X52772Y222102D02*
X59465D01*
Y209898D02*
Y222102D01*
X52772Y209898D02*
Y222102D01*
X63272Y256102D02*
X69965D01*
X63272Y243898D02*
X69965D01*
X63272D02*
Y256102D01*
X69965Y243898D02*
Y256102D01*
X49272Y229870D02*
X55965D01*
X49272Y226130D02*
X55965D01*
X49272D02*
Y229870D01*
X55965Y226130D02*
Y229870D01*
X16744Y219158D02*
X32492D01*
X16744Y238843D02*
X32492D01*
Y219158D02*
Y238843D01*
X16744Y219158D02*
Y238843D01*
X71272Y208398D02*
X77965D01*
X71272Y220602D02*
X77965D01*
Y208398D02*
Y220602D01*
X71272Y208398D02*
Y220602D01*
X73488Y224654D02*
Y231347D01*
X69748Y224654D02*
Y231347D01*
X73488D01*
X69748Y224654D02*
X73488D01*
X187221Y184153D02*
Y190847D01*
X175016Y184153D02*
Y190847D01*
X187221D01*
X175016Y184153D02*
X187221D01*
Y201654D02*
Y208347D01*
X175016Y201654D02*
Y208347D01*
X187221D01*
X175016Y201654D02*
X187221D01*
Y219153D02*
Y225847D01*
X175016Y219153D02*
Y225847D01*
X187221D01*
X175016Y219153D02*
X187221D01*
X288862Y214583D02*
G03*
X288862Y214583I-1969J0D01*
G01*
X226799Y190701D02*
G03*
X226799Y190701I-1969J0D01*
G01*
X217138Y235299D02*
G03*
X217138Y235299I-1969J0D01*
G01*
X283350Y211039D02*
X354650D01*
X283350Y240961D02*
X354650D01*
X283350Y211039D02*
Y240961D01*
X354650Y211039D02*
Y240961D01*
X274153Y251130D02*
X280847D01*
X274153Y254870D02*
X280847D01*
Y251130D02*
Y254870D01*
X274153Y251130D02*
Y254870D01*
X359154Y241370D02*
X365846D01*
X359154Y237630D02*
X365846D01*
X359154D02*
Y241370D01*
X365846Y237630D02*
Y241370D01*
X359154Y224870D02*
X365846D01*
X359154Y221130D02*
X365846D01*
X359154D02*
Y224870D01*
X365846Y221130D02*
Y224870D01*
X382102Y236653D02*
Y243347D01*
X369898Y236653D02*
Y243347D01*
X382102D01*
X369898Y236653D02*
X382102D01*
X359154Y187630D02*
X365846D01*
X359154Y191370D02*
X365846D01*
Y187630D02*
Y191370D01*
X359154Y187630D02*
Y191370D01*
Y204630D02*
X365846D01*
X359154Y208370D02*
X365846D01*
Y204630D02*
Y208370D01*
X359154Y204630D02*
Y208370D01*
X331055Y199370D02*
X337945D01*
X331055Y195630D02*
X337945D01*
X331055D02*
Y199370D01*
X337945Y195630D02*
Y199370D01*
X319555Y195630D02*
X326445D01*
X319555Y199370D02*
X326445D01*
Y195630D02*
Y199370D01*
X319555Y195630D02*
Y199370D01*
X285653Y188630D02*
X292347D01*
X285653Y192370D02*
X292347D01*
Y188630D02*
Y192370D01*
X285653Y188630D02*
Y192370D01*
X250350Y204299D02*
X256650D01*
X250350Y191701D02*
X256650D01*
Y204299D01*
X250350Y191701D02*
Y204299D01*
X212626Y206842D02*
X228374D01*
X212626Y187157D02*
X228374D01*
X212626D02*
Y206842D01*
X228374Y187157D02*
Y206842D01*
X212154Y213870D02*
X218847D01*
X212154Y210130D02*
X218847D01*
X212154D02*
Y213870D01*
X218847Y210130D02*
Y213870D01*
X202870Y225153D02*
Y231846D01*
X199130Y225153D02*
Y231846D01*
X202870D01*
X199130Y225153D02*
X202870D01*
X239154Y237870D02*
X245847D01*
X239154Y234130D02*
X245847D01*
X239154D02*
Y237870D01*
X245847Y234130D02*
Y237870D01*
X240370Y218055D02*
Y224945D01*
X236630Y218055D02*
Y224945D01*
X240370D01*
X236630Y218055D02*
X240370D01*
X247654Y209898D02*
X254346D01*
X247654Y222102D02*
X254346D01*
Y209898D02*
Y222102D01*
X247654Y209898D02*
Y222102D01*
X258154Y256102D02*
X264846D01*
X258154Y243898D02*
X264846D01*
X258154D02*
Y256102D01*
X264846Y243898D02*
Y256102D01*
X244153Y229870D02*
X250847D01*
X244153Y226130D02*
X250847D01*
X244153D02*
Y229870D01*
X250847Y226130D02*
Y229870D01*
X211626Y219158D02*
X227374D01*
X211626Y238843D02*
X227374D01*
Y219158D02*
Y238843D01*
X211626Y219158D02*
Y238843D01*
X266154Y208398D02*
X272847D01*
X266154Y220602D02*
X272847D01*
Y208398D02*
Y220602D01*
X266154Y208398D02*
Y220602D01*
X268370Y224654D02*
Y231347D01*
X264630Y224654D02*
Y231347D01*
X268370D01*
X264630Y224654D02*
X268370D01*
X382102Y184153D02*
Y190847D01*
X369898Y184153D02*
Y190847D01*
X382102D01*
X369898Y184153D02*
X382102D01*
Y201654D02*
Y208347D01*
X369898Y201654D02*
Y208347D01*
X382102D01*
X369898Y201654D02*
X382102D01*
Y219153D02*
Y225847D01*
X369898Y219153D02*
Y225847D01*
X382102D01*
X369898Y219153D02*
X382102D01*
X93980Y301984D02*
G03*
X93980Y301984I-1969J0D01*
G01*
X31917Y278102D02*
G03*
X31917Y278102I-1969J0D01*
G01*
X22256Y322701D02*
G03*
X22256Y322701I-1969J0D01*
G01*
X88468Y298441D02*
X159768D01*
X88468Y328362D02*
X159768D01*
X88468Y298441D02*
Y328362D01*
X159768Y298441D02*
Y328362D01*
X79272Y338531D02*
X85965D01*
X79272Y342272D02*
X85965D01*
Y338531D02*
Y342272D01*
X79272Y338531D02*
Y342272D01*
X164272Y328772D02*
X170965D01*
X164272Y325031D02*
X170965D01*
X164272D02*
Y328772D01*
X170965Y325031D02*
Y328772D01*
X164272Y312272D02*
X170965D01*
X164272Y308531D02*
X170965D01*
X164272D02*
Y312272D01*
X170965Y308531D02*
Y312272D01*
X187221Y324055D02*
Y330748D01*
X175016Y324055D02*
Y330748D01*
X187221D01*
X175016Y324055D02*
X187221D01*
X164272Y275031D02*
X170965D01*
X164272Y278772D02*
X170965D01*
Y275031D02*
Y278772D01*
X164272Y275031D02*
Y278772D01*
Y292032D02*
X170965D01*
X164272Y295772D02*
X170965D01*
Y292032D02*
Y295772D01*
X164272Y292032D02*
Y295772D01*
X136173Y286772D02*
X143063D01*
X136173Y283032D02*
X143063D01*
X136173D02*
Y286772D01*
X143063Y283032D02*
Y286772D01*
X124673Y283032D02*
X131563D01*
X124673Y286772D02*
X131563D01*
Y283032D02*
Y286772D01*
X124673Y283032D02*
Y286772D01*
X90772Y276031D02*
X97465D01*
X90772Y279772D02*
X97465D01*
Y276031D02*
Y279772D01*
X90772Y276031D02*
Y279772D01*
X55468Y291701D02*
X61768D01*
X55468Y279102D02*
X61768D01*
Y291701D01*
X55468Y279102D02*
Y291701D01*
X17744Y294244D02*
X33492D01*
X17744Y274559D02*
X33492D01*
X17744D02*
Y294244D01*
X33492Y274559D02*
Y294244D01*
X17272Y301272D02*
X23965D01*
X17272Y297532D02*
X23965D01*
X17272D02*
Y301272D01*
X23965Y297532D02*
Y301272D01*
X7988Y312555D02*
Y319248D01*
X4248Y312555D02*
Y319248D01*
X7988D01*
X4248Y312555D02*
X7988D01*
X44272Y325272D02*
X50965D01*
X44272Y321532D02*
X50965D01*
X44272D02*
Y325272D01*
X50965Y321532D02*
Y325272D01*
X45488Y305457D02*
Y312347D01*
X41748Y305457D02*
Y312347D01*
X45488D01*
X41748Y305457D02*
X45488D01*
X52772Y297299D02*
X59465D01*
X52772Y309504D02*
X59465D01*
Y297299D02*
Y309504D01*
X52772Y297299D02*
Y309504D01*
X63272Y343504D02*
X69965D01*
X63272Y331299D02*
X69965D01*
X63272D02*
Y343504D01*
X69965Y331299D02*
Y343504D01*
X49272Y317272D02*
X55965D01*
X49272Y313531D02*
X55965D01*
X49272D02*
Y317272D01*
X55965Y313531D02*
Y317272D01*
X16744Y306559D02*
X32492D01*
X16744Y326244D02*
X32492D01*
Y306559D02*
Y326244D01*
X16744Y306559D02*
Y326244D01*
X71272Y295799D02*
X77965D01*
X71272Y308004D02*
X77965D01*
Y295799D02*
Y308004D01*
X71272Y295799D02*
Y308004D01*
X73488Y312055D02*
Y318748D01*
X69748Y312055D02*
Y318748D01*
X73488D01*
X69748Y312055D02*
X73488D01*
X187221Y271555D02*
Y278248D01*
X175016Y271555D02*
Y278248D01*
X187221D01*
X175016Y271555D02*
X187221D01*
Y289055D02*
Y295748D01*
X175016Y289055D02*
Y295748D01*
X187221D01*
X175016Y289055D02*
X187221D01*
Y306555D02*
Y313248D01*
X175016Y306555D02*
Y313248D01*
X187221D01*
X175016Y306555D02*
X187221D01*
X288862Y301984D02*
G03*
X288862Y301984I-1969J0D01*
G01*
X226799Y278102D02*
G03*
X226799Y278102I-1969J0D01*
G01*
X217138Y322701D02*
G03*
X217138Y322701I-1969J0D01*
G01*
X283350Y298441D02*
X354650D01*
X283350Y328362D02*
X354650D01*
X283350Y298441D02*
Y328362D01*
X354650Y298441D02*
Y328362D01*
X274153Y338531D02*
X280847D01*
X274153Y342272D02*
X280847D01*
Y338531D02*
Y342272D01*
X274153Y338531D02*
Y342272D01*
X359154Y328772D02*
X365846D01*
X359154Y325031D02*
X365846D01*
X359154D02*
Y328772D01*
X365846Y325031D02*
Y328772D01*
X359154Y312272D02*
X365846D01*
X359154Y308531D02*
X365846D01*
X359154D02*
Y312272D01*
X365846Y308531D02*
Y312272D01*
X382102Y324055D02*
Y330748D01*
X369898Y324055D02*
Y330748D01*
X382102D01*
X369898Y324055D02*
X382102D01*
X359154Y275031D02*
X365846D01*
X359154Y278772D02*
X365846D01*
Y275031D02*
Y278772D01*
X359154Y275031D02*
Y278772D01*
Y292032D02*
X365846D01*
X359154Y295772D02*
X365846D01*
Y292032D02*
Y295772D01*
X359154Y292032D02*
Y295772D01*
X331055Y286772D02*
X337945D01*
X331055Y283032D02*
X337945D01*
X331055D02*
Y286772D01*
X337945Y283032D02*
Y286772D01*
X319555Y283032D02*
X326445D01*
X319555Y286772D02*
X326445D01*
Y283032D02*
Y286772D01*
X319555Y283032D02*
Y286772D01*
X285653Y276031D02*
X292347D01*
X285653Y279772D02*
X292347D01*
Y276031D02*
Y279772D01*
X285653Y276031D02*
Y279772D01*
X250350Y291701D02*
X256650D01*
X250350Y279102D02*
X256650D01*
Y291701D01*
X250350Y279102D02*
Y291701D01*
X212626Y294244D02*
X228374D01*
X212626Y274559D02*
X228374D01*
X212626D02*
Y294244D01*
X228374Y274559D02*
Y294244D01*
X212154Y301272D02*
X218847D01*
X212154Y297532D02*
X218847D01*
X212154D02*
Y301272D01*
X218847Y297532D02*
Y301272D01*
X202870Y312555D02*
Y319248D01*
X199130Y312555D02*
Y319248D01*
X202870D01*
X199130Y312555D02*
X202870D01*
X239154Y325272D02*
X245847D01*
X239154Y321532D02*
X245847D01*
X239154D02*
Y325272D01*
X245847Y321532D02*
Y325272D01*
X240370Y305457D02*
Y312347D01*
X236630Y305457D02*
Y312347D01*
X240370D01*
X236630Y305457D02*
X240370D01*
X247654Y297299D02*
X254346D01*
X247654Y309504D02*
X254346D01*
Y297299D02*
Y309504D01*
X247654Y297299D02*
Y309504D01*
X258154Y343504D02*
X264846D01*
X258154Y331299D02*
X264846D01*
X258154D02*
Y343504D01*
X264846Y331299D02*
Y343504D01*
X244153Y317272D02*
X250847D01*
X244153Y313531D02*
X250847D01*
X244153D02*
Y317272D01*
X250847Y313531D02*
Y317272D01*
X211626Y306559D02*
X227374D01*
X211626Y326244D02*
X227374D01*
Y306559D02*
Y326244D01*
X211626Y306559D02*
Y326244D01*
X266154Y295799D02*
X272847D01*
X266154Y308004D02*
X272847D01*
Y295799D02*
Y308004D01*
X266154Y295799D02*
Y308004D01*
X268370Y312055D02*
Y318748D01*
X264630Y312055D02*
Y318748D01*
X268370D01*
X264630Y312055D02*
X268370D01*
X382102Y271555D02*
Y278248D01*
X369898Y271555D02*
Y278248D01*
X382102D01*
X369898Y271555D02*
X382102D01*
Y289055D02*
Y295748D01*
X369898Y289055D02*
Y295748D01*
X382102D01*
X369898Y289055D02*
X382102D01*
Y306555D02*
Y313248D01*
X369898Y306555D02*
Y313248D01*
X382102D01*
X369898Y306555D02*
X382102D01*
M02*
