%FSLAX25Y25*%
%MOIN*%
G70*
G01*
G75*
%ADD10O,0.02362X0.09055*%
%ADD11R,0.02756X0.03543*%
%ADD12O,0.01969X0.06299*%
%ADD13R,0.03150X0.03543*%
%ADD14R,0.06693X0.02953*%
%ADD15O,0.07087X0.02362*%
%ADD16R,0.03543X0.02756*%
%ADD17R,0.03543X0.03150*%
%ADD18O,0.06299X0.01969*%
%ADD19C,0.02000*%
%ADD20C,0.01000*%
%ADD21C,0.07874*%
%ADD22O,0.03937X0.05906*%
%ADD23C,0.04724*%
%ADD24O,0.05906X0.03937*%
%ADD25C,0.05000*%
%ADD26C,0.00984*%
%ADD27C,0.02362*%
%ADD28C,0.00787*%
%ADD29C,0.00600*%
D20*
X154618Y11197D02*
G03*
X147138Y18677I-7480J0D01*
G01*
X112638Y11177D02*
G03*
X120118Y3697I7480J0D01*
G01*
Y18657D02*
G03*
X112638Y11177I0J-7480D01*
G01*
X147138Y3717D02*
G03*
X154618Y11197I0J7480D01*
G01*
X120118Y3697D02*
X148118D01*
X120118Y18657D02*
X148118D01*
X349500Y11197D02*
G03*
X342020Y18677I-7480J0D01*
G01*
X307520Y11177D02*
G03*
X315000Y3697I7480J0D01*
G01*
Y18657D02*
G03*
X307520Y11177I0J-7480D01*
G01*
X342020Y3717D02*
G03*
X349500Y11197I0J7480D01*
G01*
X315000Y3697D02*
X343000D01*
X315000Y18657D02*
X343000D01*
X154618Y98598D02*
G03*
X147138Y106079I-7480J0D01*
G01*
X112638Y98579D02*
G03*
X120118Y91098I7480J0D01*
G01*
Y106059D02*
G03*
X112638Y98579I0J-7480D01*
G01*
X147138Y91118D02*
G03*
X154618Y98598I0J7480D01*
G01*
X120118Y91098D02*
X148118D01*
X120118Y106059D02*
X148118D01*
X349500Y98598D02*
G03*
X342020Y106079I-7480J0D01*
G01*
X307520Y98579D02*
G03*
X315000Y91098I7480J0D01*
G01*
Y106059D02*
G03*
X307520Y98579I0J-7480D01*
G01*
X342020Y91118D02*
G03*
X349500Y98598I0J7480D01*
G01*
X315000Y91098D02*
X343000D01*
X315000Y106059D02*
X343000D01*
X154618Y186000D02*
G03*
X147138Y193480I-7480J0D01*
G01*
X112638Y185980D02*
G03*
X120118Y178500I7480J0D01*
G01*
Y193461D02*
G03*
X112638Y185980I0J-7480D01*
G01*
X147138Y178520D02*
G03*
X154618Y186000I0J7480D01*
G01*
X120118Y178500D02*
X148118D01*
X120118Y193461D02*
X148118D01*
X349500Y186000D02*
G03*
X342020Y193480I-7480J0D01*
G01*
X307520Y185980D02*
G03*
X315000Y178500I7480J0D01*
G01*
Y193461D02*
G03*
X307520Y185980I0J-7480D01*
G01*
X342020Y178520D02*
G03*
X349500Y186000I0J7480D01*
G01*
X315000Y178500D02*
X343000D01*
X315000Y193461D02*
X343000D01*
X154618Y273402D02*
G03*
X147138Y280882I-7480J0D01*
G01*
X112638Y273382D02*
G03*
X120118Y265902I7480J0D01*
G01*
Y280862D02*
G03*
X112638Y273382I0J-7480D01*
G01*
X147138Y265921D02*
G03*
X154618Y273402I0J7480D01*
G01*
X120118Y265902D02*
X148118D01*
X120118Y280862D02*
X148118D01*
X349500Y273402D02*
G03*
X342020Y280882I-7480J0D01*
G01*
X307520Y273382D02*
G03*
X315000Y265902I7480J0D01*
G01*
Y280862D02*
G03*
X307520Y273382I0J-7480D01*
G01*
X342020Y265921D02*
G03*
X349500Y273402I0J7480D01*
G01*
X315000Y265902D02*
X343000D01*
X315000Y280862D02*
X343000D01*
D26*
X88764Y33283D02*
G03*
X88764Y33283I-492J0D01*
G01*
X174721Y60866D02*
G03*
X174721Y60866I-492J0D01*
G01*
X36347Y11350D02*
G03*
X36347Y11350I-492J0D01*
G01*
X52280Y48087D02*
G03*
X52280Y48087I-492J0D01*
G01*
X71441Y68307D02*
G03*
X71441Y68307I-492J0D01*
G01*
X14874Y65043D02*
G03*
X14874Y65043I-492J0D01*
G01*
X70780Y46587D02*
G03*
X70780Y46587I-492J0D01*
G01*
X174721Y8366D02*
G03*
X174721Y8366I-492J0D01*
G01*
Y25866D02*
G03*
X174721Y25866I-492J0D01*
G01*
Y43366D02*
G03*
X174721Y43366I-492J0D01*
G01*
X283646Y33283D02*
G03*
X283646Y33283I-492J0D01*
G01*
X369602Y60866D02*
G03*
X369602Y60866I-492J0D01*
G01*
X231228Y11350D02*
G03*
X231228Y11350I-492J0D01*
G01*
X247161Y48087D02*
G03*
X247161Y48087I-492J0D01*
G01*
X266323Y68307D02*
G03*
X266323Y68307I-492J0D01*
G01*
X209756Y65043D02*
G03*
X209756Y65043I-492J0D01*
G01*
X265661Y46587D02*
G03*
X265661Y46587I-492J0D01*
G01*
X369602Y8366D02*
G03*
X369602Y8366I-492J0D01*
G01*
Y25866D02*
G03*
X369602Y25866I-492J0D01*
G01*
Y43366D02*
G03*
X369602Y43366I-492J0D01*
G01*
X88764Y120685D02*
G03*
X88764Y120685I-492J0D01*
G01*
X174721Y148268D02*
G03*
X174721Y148268I-492J0D01*
G01*
X36347Y98752D02*
G03*
X36347Y98752I-492J0D01*
G01*
X52280Y135488D02*
G03*
X52280Y135488I-492J0D01*
G01*
X71441Y155709D02*
G03*
X71441Y155709I-492J0D01*
G01*
X14874Y152445D02*
G03*
X14874Y152445I-492J0D01*
G01*
X70780Y133988D02*
G03*
X70780Y133988I-492J0D01*
G01*
X174721Y95768D02*
G03*
X174721Y95768I-492J0D01*
G01*
Y113268D02*
G03*
X174721Y113268I-492J0D01*
G01*
Y130768D02*
G03*
X174721Y130768I-492J0D01*
G01*
X283646Y120685D02*
G03*
X283646Y120685I-492J0D01*
G01*
X369602Y148268D02*
G03*
X369602Y148268I-492J0D01*
G01*
X231228Y98752D02*
G03*
X231228Y98752I-492J0D01*
G01*
X247161Y135488D02*
G03*
X247161Y135488I-492J0D01*
G01*
X266323Y155709D02*
G03*
X266323Y155709I-492J0D01*
G01*
X209756Y152445D02*
G03*
X209756Y152445I-492J0D01*
G01*
X265661Y133988D02*
G03*
X265661Y133988I-492J0D01*
G01*
X369602Y95768D02*
G03*
X369602Y95768I-492J0D01*
G01*
Y113268D02*
G03*
X369602Y113268I-492J0D01*
G01*
Y130768D02*
G03*
X369602Y130768I-492J0D01*
G01*
X88764Y208087D02*
G03*
X88764Y208087I-492J0D01*
G01*
X174721Y235669D02*
G03*
X174721Y235669I-492J0D01*
G01*
X36347Y186153D02*
G03*
X36347Y186153I-492J0D01*
G01*
X52280Y222890D02*
G03*
X52280Y222890I-492J0D01*
G01*
X71441Y243110D02*
G03*
X71441Y243110I-492J0D01*
G01*
X14874Y239846D02*
G03*
X14874Y239846I-492J0D01*
G01*
X70780Y221390D02*
G03*
X70780Y221390I-492J0D01*
G01*
X174721Y183169D02*
G03*
X174721Y183169I-492J0D01*
G01*
Y200669D02*
G03*
X174721Y200669I-492J0D01*
G01*
Y218169D02*
G03*
X174721Y218169I-492J0D01*
G01*
X283646Y208087D02*
G03*
X283646Y208087I-492J0D01*
G01*
X369602Y235669D02*
G03*
X369602Y235669I-492J0D01*
G01*
X231228Y186153D02*
G03*
X231228Y186153I-492J0D01*
G01*
X247161Y222890D02*
G03*
X247161Y222890I-492J0D01*
G01*
X266323Y243110D02*
G03*
X266323Y243110I-492J0D01*
G01*
X209756Y239846D02*
G03*
X209756Y239846I-492J0D01*
G01*
X265661Y221390D02*
G03*
X265661Y221390I-492J0D01*
G01*
X369602Y183169D02*
G03*
X369602Y183169I-492J0D01*
G01*
Y200669D02*
G03*
X369602Y200669I-492J0D01*
G01*
Y218169D02*
G03*
X369602Y218169I-492J0D01*
G01*
X88764Y295488D02*
G03*
X88764Y295488I-492J0D01*
G01*
X174721Y323071D02*
G03*
X174721Y323071I-492J0D01*
G01*
X36347Y273555D02*
G03*
X36347Y273555I-492J0D01*
G01*
X52280Y310291D02*
G03*
X52280Y310291I-492J0D01*
G01*
X71441Y330512D02*
G03*
X71441Y330512I-492J0D01*
G01*
X14874Y327248D02*
G03*
X14874Y327248I-492J0D01*
G01*
X70780Y308791D02*
G03*
X70780Y308791I-492J0D01*
G01*
X174721Y270571D02*
G03*
X174721Y270571I-492J0D01*
G01*
Y288071D02*
G03*
X174721Y288071I-492J0D01*
G01*
Y305571D02*
G03*
X174721Y305571I-492J0D01*
G01*
X283646Y295488D02*
G03*
X283646Y295488I-492J0D01*
G01*
X369602Y323071D02*
G03*
X369602Y323071I-492J0D01*
G01*
X231228Y273555D02*
G03*
X231228Y273555I-492J0D01*
G01*
X247161Y310291D02*
G03*
X247161Y310291I-492J0D01*
G01*
X266323Y330512D02*
G03*
X266323Y330512I-492J0D01*
G01*
X209756Y327248D02*
G03*
X209756Y327248I-492J0D01*
G01*
X265661Y308791D02*
G03*
X265661Y308791I-492J0D01*
G01*
X369602Y270571D02*
G03*
X369602Y270571I-492J0D01*
G01*
Y288071D02*
G03*
X369602Y288071I-492J0D01*
G01*
Y305571D02*
G03*
X369602Y305571I-492J0D01*
G01*
D27*
X93606Y43323D02*
G03*
X93606Y43323I-1181J0D01*
G01*
X27980Y16291D02*
G03*
X27980Y16291I-1181J0D01*
G01*
X24618Y60102D02*
G03*
X24618Y60102I-1181J0D01*
G01*
X288488Y43323D02*
G03*
X288488Y43323I-1181J0D01*
G01*
X222862Y16291D02*
G03*
X222862Y16291I-1181J0D01*
G01*
X219500Y60102D02*
G03*
X219500Y60102I-1181J0D01*
G01*
X93606Y130724D02*
G03*
X93606Y130724I-1181J0D01*
G01*
X27980Y103693D02*
G03*
X27980Y103693I-1181J0D01*
G01*
X24618Y147504D02*
G03*
X24618Y147504I-1181J0D01*
G01*
X288488Y130724D02*
G03*
X288488Y130724I-1181J0D01*
G01*
X222862Y103693D02*
G03*
X222862Y103693I-1181J0D01*
G01*
X219500Y147504D02*
G03*
X219500Y147504I-1181J0D01*
G01*
X93606Y218126D02*
G03*
X93606Y218126I-1181J0D01*
G01*
X27980Y191095D02*
G03*
X27980Y191095I-1181J0D01*
G01*
X24618Y234906D02*
G03*
X24618Y234906I-1181J0D01*
G01*
X288488Y218126D02*
G03*
X288488Y218126I-1181J0D01*
G01*
X222862Y191095D02*
G03*
X222862Y191095I-1181J0D01*
G01*
X219500Y234906D02*
G03*
X219500Y234906I-1181J0D01*
G01*
X93606Y305528D02*
G03*
X93606Y305528I-1181J0D01*
G01*
X27980Y278496D02*
G03*
X27980Y278496I-1181J0D01*
G01*
X24618Y322307D02*
G03*
X24618Y322307I-1181J0D01*
G01*
X288488Y305528D02*
G03*
X288488Y305528I-1181J0D01*
G01*
X222862Y278496D02*
G03*
X222862Y278496I-1181J0D01*
G01*
X219500Y322307D02*
G03*
X219500Y322307I-1181J0D01*
G01*
D28*
X88488Y39386D02*
X159748D01*
X88488Y63008D02*
X159748D01*
X88488Y39386D02*
Y63008D01*
X159748Y39386D02*
Y63008D01*
X81831Y76819D02*
X83406D01*
X81831Y79575D02*
X83406D01*
X166831Y66075D02*
X168405D01*
X166831Y63319D02*
X168405D01*
X166831Y49575D02*
X168405D01*
X166831Y46819D02*
X168405D01*
X187221Y64803D02*
Y65591D01*
X175016Y64803D02*
Y65591D01*
X166831Y13319D02*
X168405D01*
X166831Y16075D02*
X168405D01*
X166831Y30319D02*
X168405D01*
X166831Y33075D02*
X168405D01*
X93331Y14319D02*
X94906D01*
X93331Y17075D02*
X94906D01*
X61571Y19457D02*
Y26937D01*
X55665Y19457D02*
Y26937D01*
X20500Y32039D02*
X30736D01*
X20500Y12354D02*
X30736D01*
X20500D02*
Y32039D01*
X30736Y12354D02*
Y32039D01*
X19831Y38575D02*
X21406D01*
X19831Y35819D02*
X21406D01*
X7496Y52909D02*
Y54484D01*
X4740Y52909D02*
Y54484D01*
X46831Y62575D02*
X48406D01*
X46831Y59819D02*
X48406D01*
X55724Y35094D02*
X56512D01*
X55724Y47299D02*
X56512D01*
X66224Y81299D02*
X67012D01*
X66224Y69095D02*
X67012D01*
X51831Y54575D02*
X53405D01*
X51831Y51819D02*
X53405D01*
X19500Y44354D02*
X29736D01*
X19500Y64039D02*
X29736D01*
Y44354D02*
Y64039D01*
X19500Y44354D02*
Y64039D01*
X74224Y33595D02*
X75012D01*
X74224Y45799D02*
X75012D01*
X72996Y52409D02*
Y53984D01*
X70240Y52409D02*
Y53984D01*
X187221Y12303D02*
Y13091D01*
X175016Y12303D02*
Y13091D01*
X187221Y29803D02*
Y30591D01*
X175016Y29803D02*
Y30591D01*
X187221Y47303D02*
Y48091D01*
X175016Y47303D02*
Y48091D01*
X283370Y39386D02*
X354630D01*
X283370Y63008D02*
X354630D01*
X283370Y39386D02*
Y63008D01*
X354630Y39386D02*
Y63008D01*
X276713Y76819D02*
X278287D01*
X276713Y79575D02*
X278287D01*
X361713Y66075D02*
X363287D01*
X361713Y63319D02*
X363287D01*
X361713Y49575D02*
X363287D01*
X361713Y46819D02*
X363287D01*
X382102Y64803D02*
Y65591D01*
X369898Y64803D02*
Y65591D01*
X361713Y13319D02*
X363287D01*
X361713Y16075D02*
X363287D01*
X361713Y30319D02*
X363287D01*
X361713Y33075D02*
X363287D01*
X288213Y14319D02*
X289787D01*
X288213Y17075D02*
X289787D01*
X256453Y19457D02*
Y26937D01*
X250547Y19457D02*
Y26937D01*
X215382Y32039D02*
X225618D01*
X215382Y12354D02*
X225618D01*
X215382D02*
Y32039D01*
X225618Y12354D02*
Y32039D01*
X214713Y38575D02*
X216287D01*
X214713Y35819D02*
X216287D01*
X202378Y52909D02*
Y54484D01*
X199622Y52909D02*
Y54484D01*
X241713Y62575D02*
X243287D01*
X241713Y59819D02*
X243287D01*
X250606Y35094D02*
X251394D01*
X250606Y47299D02*
X251394D01*
X261106Y81299D02*
X261894D01*
X261106Y69095D02*
X261894D01*
X246713Y54575D02*
X248287D01*
X246713Y51819D02*
X248287D01*
X214382Y44354D02*
X224618D01*
X214382Y64039D02*
X224618D01*
Y44354D02*
Y64039D01*
X214382Y44354D02*
Y64039D01*
X269106Y33595D02*
X269894D01*
X269106Y45799D02*
X269894D01*
X267878Y52409D02*
Y53984D01*
X265122Y52409D02*
Y53984D01*
X382102Y12303D02*
Y13091D01*
X369898Y12303D02*
Y13091D01*
X382102Y29803D02*
Y30591D01*
X369898Y29803D02*
Y30591D01*
X382102Y47303D02*
Y48091D01*
X369898Y47303D02*
Y48091D01*
X88488Y126787D02*
X159748D01*
X88488Y150409D02*
X159748D01*
X88488Y126787D02*
Y150409D01*
X159748Y126787D02*
Y150409D01*
X81831Y164220D02*
X83406D01*
X81831Y166976D02*
X83406D01*
X166831Y153476D02*
X168405D01*
X166831Y150721D02*
X168405D01*
X166831Y136976D02*
X168405D01*
X166831Y134221D02*
X168405D01*
X187221Y152205D02*
Y152992D01*
X175016Y152205D02*
Y152992D01*
X166831Y100721D02*
X168405D01*
X166831Y103476D02*
X168405D01*
X166831Y117720D02*
X168405D01*
X166831Y120476D02*
X168405D01*
X93331Y101720D02*
X94906D01*
X93331Y104476D02*
X94906D01*
X61571Y106858D02*
Y114339D01*
X55665Y106858D02*
Y114339D01*
X20500Y119441D02*
X30736D01*
X20500Y99756D02*
X30736D01*
X20500D02*
Y119441D01*
X30736Y99756D02*
Y119441D01*
X19831Y125976D02*
X21406D01*
X19831Y123221D02*
X21406D01*
X7496Y140311D02*
Y141886D01*
X4740Y140311D02*
Y141886D01*
X46831Y149976D02*
X48406D01*
X46831Y147221D02*
X48406D01*
X55724Y122496D02*
X56512D01*
X55724Y134701D02*
X56512D01*
X66224Y168701D02*
X67012D01*
X66224Y156496D02*
X67012D01*
X51831Y141976D02*
X53405D01*
X51831Y139220D02*
X53405D01*
X19500Y131756D02*
X29736D01*
X19500Y151441D02*
X29736D01*
Y131756D02*
Y151441D01*
X19500Y131756D02*
Y151441D01*
X74224Y120996D02*
X75012D01*
X74224Y133201D02*
X75012D01*
X72996Y139811D02*
Y141386D01*
X70240Y139811D02*
Y141386D01*
X187221Y99705D02*
Y100492D01*
X175016Y99705D02*
Y100492D01*
X187221Y117205D02*
Y117992D01*
X175016Y117205D02*
Y117992D01*
X187221Y134705D02*
Y135492D01*
X175016Y134705D02*
Y135492D01*
X283370Y126787D02*
X354630D01*
X283370Y150409D02*
X354630D01*
X283370Y126787D02*
Y150409D01*
X354630Y126787D02*
Y150409D01*
X276713Y164220D02*
X278287D01*
X276713Y166976D02*
X278287D01*
X361713Y153476D02*
X363287D01*
X361713Y150721D02*
X363287D01*
X361713Y136976D02*
X363287D01*
X361713Y134221D02*
X363287D01*
X382102Y152205D02*
Y152992D01*
X369898Y152205D02*
Y152992D01*
X361713Y100721D02*
X363287D01*
X361713Y103476D02*
X363287D01*
X361713Y117720D02*
X363287D01*
X361713Y120476D02*
X363287D01*
X288213Y101720D02*
X289787D01*
X288213Y104476D02*
X289787D01*
X256453Y106858D02*
Y114339D01*
X250547Y106858D02*
Y114339D01*
X215382Y119441D02*
X225618D01*
X215382Y99756D02*
X225618D01*
X215382D02*
Y119441D01*
X225618Y99756D02*
Y119441D01*
X214713Y125976D02*
X216287D01*
X214713Y123221D02*
X216287D01*
X202378Y140311D02*
Y141886D01*
X199622Y140311D02*
Y141886D01*
X241713Y149976D02*
X243287D01*
X241713Y147221D02*
X243287D01*
X250606Y122496D02*
X251394D01*
X250606Y134701D02*
X251394D01*
X261106Y168701D02*
X261894D01*
X261106Y156496D02*
X261894D01*
X246713Y141976D02*
X248287D01*
X246713Y139220D02*
X248287D01*
X214382Y131756D02*
X224618D01*
X214382Y151441D02*
X224618D01*
Y131756D02*
Y151441D01*
X214382Y131756D02*
Y151441D01*
X269106Y120996D02*
X269894D01*
X269106Y133201D02*
X269894D01*
X267878Y139811D02*
Y141386D01*
X265122Y139811D02*
Y141386D01*
X382102Y99705D02*
Y100492D01*
X369898Y99705D02*
Y100492D01*
X382102Y117205D02*
Y117992D01*
X369898Y117205D02*
Y117992D01*
X382102Y134705D02*
Y135492D01*
X369898Y134705D02*
Y135492D01*
X88488Y214189D02*
X159748D01*
X88488Y237811D02*
X159748D01*
X88488Y214189D02*
Y237811D01*
X159748Y214189D02*
Y237811D01*
X81831Y251622D02*
X83406D01*
X81831Y254378D02*
X83406D01*
X166831Y240878D02*
X168405D01*
X166831Y238122D02*
X168405D01*
X166831Y224378D02*
X168405D01*
X166831Y221622D02*
X168405D01*
X187221Y239606D02*
Y240394D01*
X175016Y239606D02*
Y240394D01*
X166831Y188122D02*
X168405D01*
X166831Y190878D02*
X168405D01*
X166831Y205122D02*
X168405D01*
X166831Y207878D02*
X168405D01*
X93331Y189122D02*
X94906D01*
X93331Y191878D02*
X94906D01*
X61571Y194260D02*
Y201740D01*
X55665Y194260D02*
Y201740D01*
X20500Y206842D02*
X30736D01*
X20500Y187157D02*
X30736D01*
X20500D02*
Y206842D01*
X30736Y187157D02*
Y206842D01*
X19831Y213378D02*
X21406D01*
X19831Y210622D02*
X21406D01*
X7496Y227713D02*
Y229287D01*
X4740Y227713D02*
Y229287D01*
X46831Y237378D02*
X48406D01*
X46831Y234622D02*
X48406D01*
X55724Y209898D02*
X56512D01*
X55724Y222102D02*
X56512D01*
X66224Y256102D02*
X67012D01*
X66224Y243898D02*
X67012D01*
X51831Y229378D02*
X53405D01*
X51831Y226622D02*
X53405D01*
X19500Y219158D02*
X29736D01*
X19500Y238843D02*
X29736D01*
Y219158D02*
Y238843D01*
X19500Y219158D02*
Y238843D01*
X74224Y208398D02*
X75012D01*
X74224Y220602D02*
X75012D01*
X72996Y227213D02*
Y228787D01*
X70240Y227213D02*
Y228787D01*
X187221Y187106D02*
Y187894D01*
X175016Y187106D02*
Y187894D01*
X187221Y204606D02*
Y205394D01*
X175016Y204606D02*
Y205394D01*
X187221Y222106D02*
Y222894D01*
X175016Y222106D02*
Y222894D01*
X283370Y214189D02*
X354630D01*
X283370Y237811D02*
X354630D01*
X283370Y214189D02*
Y237811D01*
X354630Y214189D02*
Y237811D01*
X276713Y251622D02*
X278287D01*
X276713Y254378D02*
X278287D01*
X361713Y240878D02*
X363287D01*
X361713Y238122D02*
X363287D01*
X361713Y224378D02*
X363287D01*
X361713Y221622D02*
X363287D01*
X382102Y239606D02*
Y240394D01*
X369898Y239606D02*
Y240394D01*
X361713Y188122D02*
X363287D01*
X361713Y190878D02*
X363287D01*
X361713Y205122D02*
X363287D01*
X361713Y207878D02*
X363287D01*
X288213Y189122D02*
X289787D01*
X288213Y191878D02*
X289787D01*
X256453Y194260D02*
Y201740D01*
X250547Y194260D02*
Y201740D01*
X215382Y206842D02*
X225618D01*
X215382Y187157D02*
X225618D01*
X215382D02*
Y206842D01*
X225618Y187157D02*
Y206842D01*
X214713Y213378D02*
X216287D01*
X214713Y210622D02*
X216287D01*
X202378Y227713D02*
Y229287D01*
X199622Y227713D02*
Y229287D01*
X241713Y237378D02*
X243287D01*
X241713Y234622D02*
X243287D01*
X250606Y209898D02*
X251394D01*
X250606Y222102D02*
X251394D01*
X261106Y256102D02*
X261894D01*
X261106Y243898D02*
X261894D01*
X246713Y229378D02*
X248287D01*
X246713Y226622D02*
X248287D01*
X214382Y219158D02*
X224618D01*
X214382Y238843D02*
X224618D01*
Y219158D02*
Y238843D01*
X214382Y219158D02*
Y238843D01*
X269106Y208398D02*
X269894D01*
X269106Y220602D02*
X269894D01*
X267878Y227213D02*
Y228787D01*
X265122Y227213D02*
Y228787D01*
X382102Y187106D02*
Y187894D01*
X369898Y187106D02*
Y187894D01*
X382102Y204606D02*
Y205394D01*
X369898Y204606D02*
Y205394D01*
X382102Y222106D02*
Y222894D01*
X369898Y222106D02*
Y222894D01*
X88488Y301590D02*
X159748D01*
X88488Y325213D02*
X159748D01*
X88488Y301590D02*
Y325213D01*
X159748Y301590D02*
Y325213D01*
X81831Y339024D02*
X83406D01*
X81831Y341779D02*
X83406D01*
X166831Y328279D02*
X168405D01*
X166831Y325524D02*
X168405D01*
X166831Y311779D02*
X168405D01*
X166831Y309024D02*
X168405D01*
X187221Y327008D02*
Y327795D01*
X175016Y327008D02*
Y327795D01*
X166831Y275524D02*
X168405D01*
X166831Y278279D02*
X168405D01*
X166831Y292524D02*
X168405D01*
X166831Y295280D02*
X168405D01*
X93331Y276524D02*
X94906D01*
X93331Y279279D02*
X94906D01*
X61571Y281661D02*
Y289142D01*
X55665Y281661D02*
Y289142D01*
X20500Y294244D02*
X30736D01*
X20500Y274559D02*
X30736D01*
X20500D02*
Y294244D01*
X30736Y274559D02*
Y294244D01*
X19831Y300780D02*
X21406D01*
X19831Y298024D02*
X21406D01*
X7496Y315114D02*
Y316689D01*
X4740Y315114D02*
Y316689D01*
X46831Y324780D02*
X48406D01*
X46831Y322024D02*
X48406D01*
X55724Y297299D02*
X56512D01*
X55724Y309504D02*
X56512D01*
X66224Y343504D02*
X67012D01*
X66224Y331299D02*
X67012D01*
X51831Y316779D02*
X53405D01*
X51831Y314024D02*
X53405D01*
X19500Y306559D02*
X29736D01*
X19500Y326244D02*
X29736D01*
Y306559D02*
Y326244D01*
X19500Y306559D02*
Y326244D01*
X74224Y295799D02*
X75012D01*
X74224Y308004D02*
X75012D01*
X72996Y314614D02*
Y316189D01*
X70240Y314614D02*
Y316189D01*
X187221Y274508D02*
Y275295D01*
X175016Y274508D02*
Y275295D01*
X187221Y292008D02*
Y292795D01*
X175016Y292008D02*
Y292795D01*
X187221Y309508D02*
Y310295D01*
X175016Y309508D02*
Y310295D01*
X283370Y301590D02*
X354630D01*
X283370Y325213D02*
X354630D01*
X283370Y301590D02*
Y325213D01*
X354630Y301590D02*
Y325213D01*
X276713Y339024D02*
X278287D01*
X276713Y341779D02*
X278287D01*
X361713Y328279D02*
X363287D01*
X361713Y325524D02*
X363287D01*
X361713Y311779D02*
X363287D01*
X361713Y309024D02*
X363287D01*
X382102Y327008D02*
Y327795D01*
X369898Y327008D02*
Y327795D01*
X361713Y275524D02*
X363287D01*
X361713Y278279D02*
X363287D01*
X361713Y292524D02*
X363287D01*
X361713Y295280D02*
X363287D01*
X288213Y276524D02*
X289787D01*
X288213Y279279D02*
X289787D01*
X256453Y281661D02*
Y289142D01*
X250547Y281661D02*
Y289142D01*
X215382Y294244D02*
X225618D01*
X215382Y274559D02*
X225618D01*
X215382D02*
Y294244D01*
X225618Y274559D02*
Y294244D01*
X214713Y300780D02*
X216287D01*
X214713Y298024D02*
X216287D01*
X202378Y315114D02*
Y316689D01*
X199622Y315114D02*
Y316689D01*
X241713Y324780D02*
X243287D01*
X241713Y322024D02*
X243287D01*
X250606Y297299D02*
X251394D01*
X250606Y309504D02*
X251394D01*
X261106Y343504D02*
X261894D01*
X261106Y331299D02*
X261894D01*
X246713Y316779D02*
X248287D01*
X246713Y314024D02*
X248287D01*
X214382Y306559D02*
X224618D01*
X214382Y326244D02*
X224618D01*
Y306559D02*
Y326244D01*
X214382Y306559D02*
Y326244D01*
X269106Y295799D02*
X269894D01*
X269106Y308004D02*
X269894D01*
X267878Y314614D02*
Y316189D01*
X265122Y314614D02*
Y316189D01*
X382102Y274508D02*
Y275295D01*
X369898Y274508D02*
Y275295D01*
X382102Y292008D02*
Y292795D01*
X369898Y292008D02*
Y292795D01*
X382102Y309508D02*
Y310295D01*
X369898Y309508D02*
Y310295D01*
D29*
X58618Y56197D02*
X60793Y58372D01*
X66118Y24896D02*
Y21697D01*
X67718D01*
X68251Y22230D01*
Y22763D01*
X67718Y23296D01*
X66118D01*
X67718D01*
X68251Y23830D01*
Y24363D01*
X67718Y24896D01*
X66118D01*
X69317D02*
Y22230D01*
X69850Y21697D01*
X70917D01*
X71450Y22230D01*
Y24896D01*
X72516D02*
X74649D01*
Y24363D01*
X72516Y22230D01*
Y21697D01*
X74649D01*
X75715D02*
X76781D01*
X76248D01*
Y24896D01*
X75715Y24363D01*
X148251Y23863D02*
X147718Y24396D01*
X146651D01*
X146118Y23863D01*
Y21730D01*
X146651Y21197D01*
X147718D01*
X148251Y21730D01*
X149317Y21197D02*
X150383D01*
X149850D01*
Y24396D01*
X149317Y23863D01*
X118251Y24363D02*
X117718Y24896D01*
X116651D01*
X116118Y24363D01*
Y22230D01*
X116651Y21697D01*
X117718D01*
X118251Y22230D01*
X121450Y21697D02*
X119317D01*
X121450Y23830D01*
Y24363D01*
X120917Y24896D01*
X119850D01*
X119317Y24363D01*
X39452Y37330D02*
X38919Y36796D01*
Y35730D01*
X39452Y35197D01*
X41585D01*
X42118Y35730D01*
Y36796D01*
X41585Y37330D01*
X39452Y38396D02*
X38919Y38929D01*
Y39995D01*
X39452Y40529D01*
X39985D01*
X40519Y39995D01*
Y39462D01*
Y39995D01*
X41052Y40529D01*
X41585D01*
X42118Y39995D01*
Y38929D01*
X41585Y38396D01*
X72251Y10363D02*
X71718Y10896D01*
X70651D01*
X70118Y10363D01*
Y8230D01*
X70651Y7697D01*
X71718D01*
X72251Y8230D01*
Y9296D01*
X71184D01*
X73317Y10363D02*
X73850Y10896D01*
X74917D01*
X75450Y10363D01*
Y9830D01*
X74917Y9296D01*
X74383D01*
X74917D01*
X75450Y8763D01*
Y8230D01*
X74917Y7697D01*
X73850D01*
X73317Y8230D01*
X27618Y35697D02*
Y38896D01*
X29218D01*
X29751Y38363D01*
Y37296D01*
X29218Y36763D01*
X27618D01*
X28684D02*
X29751Y35697D01*
X30817D02*
X31883D01*
X31350D01*
Y38896D01*
X30817Y38363D01*
X41618Y54697D02*
Y57896D01*
X43218D01*
X43751Y57363D01*
Y56296D01*
X43218Y55763D01*
X41618D01*
X42684D02*
X43751Y54697D01*
X46950D02*
X44817D01*
X46950Y56830D01*
Y57363D01*
X46417Y57896D01*
X45350D01*
X44817Y57363D01*
X72618Y59697D02*
X69419D01*
Y61296D01*
X69952Y61830D01*
X71019D01*
X71552Y61296D01*
Y59697D01*
Y60763D02*
X72618Y61830D01*
X69952Y62896D02*
X69419Y63429D01*
Y64495D01*
X69952Y65029D01*
X70486D01*
X71019Y64495D01*
Y63962D01*
Y64495D01*
X71552Y65029D01*
X72085D01*
X72618Y64495D01*
Y63429D01*
X72085Y62896D01*
X7618Y60697D02*
X4419D01*
Y62296D01*
X4952Y62830D01*
X6019D01*
X6552Y62296D01*
Y60697D01*
Y61763D02*
X7618Y62830D01*
Y65495D02*
X4419D01*
X6019Y63896D01*
Y66028D01*
X52618Y20697D02*
X49419D01*
Y22296D01*
X49952Y22829D01*
X51019D01*
X51552Y22296D01*
Y20697D01*
Y21763D02*
X52618Y22829D01*
X49419Y26028D02*
Y23896D01*
X51019D01*
X50485Y24962D01*
Y25495D01*
X51019Y26028D01*
X52085D01*
X52618Y25495D01*
Y24429D01*
X52085Y23896D01*
X91118Y8697D02*
Y11896D01*
X92718D01*
X93251Y11363D01*
Y10296D01*
X92718Y9763D01*
X91118D01*
X92184D02*
X93251Y8697D01*
X96450Y11896D02*
X95383Y11363D01*
X94317Y10296D01*
Y9230D01*
X94850Y8697D01*
X95917D01*
X96450Y9230D01*
Y9763D01*
X95917Y10296D01*
X94317D01*
X61118Y59894D02*
Y63092D01*
X62718D01*
X63251Y62559D01*
Y61493D01*
X62718Y60960D01*
X61118D01*
X62184D02*
X63251Y59894D01*
X64317Y63092D02*
X66450D01*
Y62559D01*
X64317Y60427D01*
Y59894D01*
X163618Y68697D02*
Y71896D01*
X165218D01*
X165751Y71363D01*
Y70296D01*
X165218Y69763D01*
X163618D01*
X164684D02*
X165751Y68697D01*
X166817Y71363D02*
X167350Y71896D01*
X168417D01*
X168950Y71363D01*
Y70829D01*
X168417Y70296D01*
X168950Y69763D01*
Y69230D01*
X168417Y68697D01*
X167350D01*
X166817Y69230D01*
Y69763D01*
X167350Y70296D01*
X166817Y70829D01*
Y71363D01*
X167350Y70296D02*
X168417D01*
X80618Y71697D02*
Y74896D01*
X82218D01*
X82751Y74363D01*
Y73296D01*
X82218Y72763D01*
X80618D01*
X81684D02*
X82751Y71697D01*
X83817Y72230D02*
X84350Y71697D01*
X85417D01*
X85950Y72230D01*
Y74363D01*
X85417Y74896D01*
X84350D01*
X83817Y74363D01*
Y73830D01*
X84350Y73296D01*
X85950D01*
X149618Y49697D02*
Y52896D01*
X151218D01*
X151751Y52363D01*
Y51296D01*
X151218Y50763D01*
X149618D01*
X150684D02*
X151751Y49697D01*
X152817D02*
X153883D01*
X153350D01*
Y52896D01*
X152817Y52363D01*
X155483D02*
X156016Y52896D01*
X157082D01*
X157615Y52363D01*
Y50230D01*
X157082Y49697D01*
X156016D01*
X155483Y50230D01*
Y52363D01*
X154618Y16197D02*
Y19396D01*
X156218D01*
X156751Y18863D01*
Y17796D01*
X156218Y17263D01*
X154618D01*
X155684D02*
X156751Y16197D01*
X157817D02*
X158883D01*
X158350D01*
Y19396D01*
X157817Y18863D01*
X160483Y16197D02*
X161549D01*
X161016D01*
Y19396D01*
X160483Y18863D01*
X149618Y41197D02*
Y44396D01*
X151218D01*
X151751Y43863D01*
Y42796D01*
X151218Y42263D01*
X149618D01*
X150684D02*
X151751Y41197D01*
X152817D02*
X153883D01*
X153350D01*
Y44396D01*
X152817Y43863D01*
X157615Y41197D02*
X155483D01*
X157615Y43330D01*
Y43863D01*
X157082Y44396D01*
X156016D01*
X155483Y43863D01*
X144251Y79363D02*
X143718Y79896D01*
X142651D01*
X142118Y79363D01*
Y78829D01*
X142651Y78296D01*
X143718D01*
X144251Y77763D01*
Y77230D01*
X143718Y76697D01*
X142651D01*
X142118Y77230D01*
X145317Y79896D02*
Y76697D01*
X146917D01*
X147450Y77230D01*
Y79363D01*
X146917Y79896D01*
X145317D01*
X148516Y76697D02*
Y78829D01*
X149582Y79896D01*
X150649Y78829D01*
Y76697D01*
Y78296D01*
X148516D01*
X151715Y76697D02*
X152781D01*
X152248D01*
Y79896D01*
X151715Y79363D01*
X97118Y55896D02*
Y53230D01*
X97651Y52697D01*
X98718D01*
X99251Y53230D01*
Y55896D01*
X100317Y52697D02*
X101383D01*
X100850D01*
Y55896D01*
X100317Y55363D01*
X65919Y27697D02*
X68585D01*
X69118Y28230D01*
Y29296D01*
X68585Y29829D01*
X65919D01*
X69118Y33029D02*
Y30896D01*
X66985Y33029D01*
X66452D01*
X65919Y32495D01*
Y31429D01*
X66452Y30896D01*
X22419Y22697D02*
X25085D01*
X25618Y23230D01*
Y24296D01*
X25085Y24829D01*
X22419D01*
X22952Y25896D02*
X22419Y26429D01*
Y27495D01*
X22952Y28029D01*
X23485D01*
X24019Y27495D01*
Y26962D01*
Y27495D01*
X24552Y28029D01*
X25085D01*
X25618Y27495D01*
Y26429D01*
X25085Y25896D01*
X23919Y49697D02*
X26585D01*
X27118Y50230D01*
Y51296D01*
X26585Y51829D01*
X23919D01*
X27118Y54495D02*
X23919D01*
X25519Y52896D01*
Y55028D01*
X47419Y29197D02*
X50085D01*
X50618Y29730D01*
Y30796D01*
X50085Y31330D01*
X47419D01*
Y34528D02*
Y32396D01*
X49019D01*
X48485Y33462D01*
Y33995D01*
X49019Y34528D01*
X50085D01*
X50618Y33995D01*
Y32929D01*
X50085Y32396D01*
X55618Y67896D02*
Y65230D01*
X56151Y64697D01*
X57218D01*
X57751Y65230D01*
Y67896D01*
X58817D02*
X60950D01*
Y67363D01*
X58817Y65230D01*
Y64697D01*
X131618Y12896D02*
Y12363D01*
X132684Y11296D01*
X133751Y12363D01*
Y12896D01*
X132684Y11296D02*
Y9697D01*
X134817D02*
X135883D01*
X135350D01*
Y12896D01*
X134817Y12363D01*
X253500Y56197D02*
X255675Y58372D01*
X261000Y24896D02*
Y21697D01*
X262599D01*
X263133Y22230D01*
Y22763D01*
X262599Y23296D01*
X261000D01*
X262599D01*
X263133Y23830D01*
Y24363D01*
X262599Y24896D01*
X261000D01*
X264199D02*
Y22230D01*
X264732Y21697D01*
X265798D01*
X266332Y22230D01*
Y24896D01*
X267398D02*
X269531D01*
Y24363D01*
X267398Y22230D01*
Y21697D01*
X269531D01*
X270597D02*
X271663D01*
X271130D01*
Y24896D01*
X270597Y24363D01*
X343133Y23863D02*
X342600Y24396D01*
X341533D01*
X341000Y23863D01*
Y21730D01*
X341533Y21197D01*
X342600D01*
X343133Y21730D01*
X344199Y21197D02*
X345265D01*
X344732D01*
Y24396D01*
X344199Y23863D01*
X313133Y24363D02*
X312599Y24896D01*
X311533D01*
X311000Y24363D01*
Y22230D01*
X311533Y21697D01*
X312599D01*
X313133Y22230D01*
X316332Y21697D02*
X314199D01*
X316332Y23830D01*
Y24363D01*
X315798Y24896D01*
X314732D01*
X314199Y24363D01*
X234334Y37330D02*
X233801Y36796D01*
Y35730D01*
X234334Y35197D01*
X236467D01*
X237000Y35730D01*
Y36796D01*
X236467Y37330D01*
X234334Y38396D02*
X233801Y38929D01*
Y39995D01*
X234334Y40529D01*
X234867D01*
X235401Y39995D01*
Y39462D01*
Y39995D01*
X235934Y40529D01*
X236467D01*
X237000Y39995D01*
Y38929D01*
X236467Y38396D01*
X267133Y10363D02*
X266599Y10896D01*
X265533D01*
X265000Y10363D01*
Y8230D01*
X265533Y7697D01*
X266599D01*
X267133Y8230D01*
Y9296D01*
X266066D01*
X268199Y10363D02*
X268732Y10896D01*
X269798D01*
X270332Y10363D01*
Y9830D01*
X269798Y9296D01*
X269265D01*
X269798D01*
X270332Y8763D01*
Y8230D01*
X269798Y7697D01*
X268732D01*
X268199Y8230D01*
X222500Y35697D02*
Y38896D01*
X224099D01*
X224633Y38363D01*
Y37296D01*
X224099Y36763D01*
X222500D01*
X223566D02*
X224633Y35697D01*
X225699D02*
X226765D01*
X226232D01*
Y38896D01*
X225699Y38363D01*
X236500Y54697D02*
Y57896D01*
X238100D01*
X238633Y57363D01*
Y56296D01*
X238100Y55763D01*
X236500D01*
X237566D02*
X238633Y54697D01*
X241832D02*
X239699D01*
X241832Y56830D01*
Y57363D01*
X241299Y57896D01*
X240232D01*
X239699Y57363D01*
X267500Y59697D02*
X264301D01*
Y61296D01*
X264834Y61830D01*
X265900D01*
X266434Y61296D01*
Y59697D01*
Y60763D02*
X267500Y61830D01*
X264834Y62896D02*
X264301Y63429D01*
Y64495D01*
X264834Y65029D01*
X265367D01*
X265900Y64495D01*
Y63962D01*
Y64495D01*
X266434Y65029D01*
X266967D01*
X267500Y64495D01*
Y63429D01*
X266967Y62896D01*
X202500Y60697D02*
X199301D01*
Y62296D01*
X199834Y62830D01*
X200901D01*
X201434Y62296D01*
Y60697D01*
Y61763D02*
X202500Y62830D01*
Y65495D02*
X199301D01*
X200901Y63896D01*
Y66028D01*
X247500Y20697D02*
X244301D01*
Y22296D01*
X244834Y22829D01*
X245901D01*
X246434Y22296D01*
Y20697D01*
Y21763D02*
X247500Y22829D01*
X244301Y26028D02*
Y23896D01*
X245901D01*
X245367Y24962D01*
Y25495D01*
X245901Y26028D01*
X246967D01*
X247500Y25495D01*
Y24429D01*
X246967Y23896D01*
X286000Y8697D02*
Y11896D01*
X287599D01*
X288133Y11363D01*
Y10296D01*
X287599Y9763D01*
X286000D01*
X287066D02*
X288133Y8697D01*
X291332Y11896D02*
X290265Y11363D01*
X289199Y10296D01*
Y9230D01*
X289732Y8697D01*
X290798D01*
X291332Y9230D01*
Y9763D01*
X290798Y10296D01*
X289199D01*
X256000Y59894D02*
Y63092D01*
X257599D01*
X258133Y62559D01*
Y61493D01*
X257599Y60960D01*
X256000D01*
X257066D02*
X258133Y59894D01*
X259199Y63092D02*
X261332D01*
Y62559D01*
X259199Y60427D01*
Y59894D01*
X358500Y68697D02*
Y71896D01*
X360100D01*
X360633Y71363D01*
Y70296D01*
X360100Y69763D01*
X358500D01*
X359566D02*
X360633Y68697D01*
X361699Y71363D02*
X362232Y71896D01*
X363299D01*
X363832Y71363D01*
Y70829D01*
X363299Y70296D01*
X363832Y69763D01*
Y69230D01*
X363299Y68697D01*
X362232D01*
X361699Y69230D01*
Y69763D01*
X362232Y70296D01*
X361699Y70829D01*
Y71363D01*
X362232Y70296D02*
X363299D01*
X275500Y71697D02*
Y74896D01*
X277099D01*
X277633Y74363D01*
Y73296D01*
X277099Y72763D01*
X275500D01*
X276566D02*
X277633Y71697D01*
X278699Y72230D02*
X279232Y71697D01*
X280298D01*
X280832Y72230D01*
Y74363D01*
X280298Y74896D01*
X279232D01*
X278699Y74363D01*
Y73830D01*
X279232Y73296D01*
X280832D01*
X344500Y49697D02*
Y52896D01*
X346099D01*
X346633Y52363D01*
Y51296D01*
X346099Y50763D01*
X344500D01*
X345566D02*
X346633Y49697D01*
X347699D02*
X348765D01*
X348232D01*
Y52896D01*
X347699Y52363D01*
X350365D02*
X350898Y52896D01*
X351964D01*
X352497Y52363D01*
Y50230D01*
X351964Y49697D01*
X350898D01*
X350365Y50230D01*
Y52363D01*
X349500Y16197D02*
Y19396D01*
X351099D01*
X351633Y18863D01*
Y17796D01*
X351099Y17263D01*
X349500D01*
X350566D02*
X351633Y16197D01*
X352699D02*
X353765D01*
X353232D01*
Y19396D01*
X352699Y18863D01*
X355365Y16197D02*
X356431D01*
X355898D01*
Y19396D01*
X355365Y18863D01*
X344500Y41197D02*
Y44396D01*
X346099D01*
X346633Y43863D01*
Y42796D01*
X346099Y42263D01*
X344500D01*
X345566D02*
X346633Y41197D01*
X347699D02*
X348765D01*
X348232D01*
Y44396D01*
X347699Y43863D01*
X352497Y41197D02*
X350365D01*
X352497Y43330D01*
Y43863D01*
X351964Y44396D01*
X350898D01*
X350365Y43863D01*
X339133Y79363D02*
X338599Y79896D01*
X337533D01*
X337000Y79363D01*
Y78829D01*
X337533Y78296D01*
X338599D01*
X339133Y77763D01*
Y77230D01*
X338599Y76697D01*
X337533D01*
X337000Y77230D01*
X340199Y79896D02*
Y76697D01*
X341798D01*
X342332Y77230D01*
Y79363D01*
X341798Y79896D01*
X340199D01*
X343398Y76697D02*
Y78829D01*
X344464Y79896D01*
X345531Y78829D01*
Y76697D01*
Y78296D01*
X343398D01*
X346597Y76697D02*
X347663D01*
X347130D01*
Y79896D01*
X346597Y79363D01*
X292000Y55896D02*
Y53230D01*
X292533Y52697D01*
X293600D01*
X294133Y53230D01*
Y55896D01*
X295199Y52697D02*
X296265D01*
X295732D01*
Y55896D01*
X295199Y55363D01*
X260801Y27697D02*
X263467D01*
X264000Y28230D01*
Y29296D01*
X263467Y29829D01*
X260801D01*
X264000Y33029D02*
Y30896D01*
X261867Y33029D01*
X261334D01*
X260801Y32495D01*
Y31429D01*
X261334Y30896D01*
X217301Y22697D02*
X219967D01*
X220500Y23230D01*
Y24296D01*
X219967Y24829D01*
X217301D01*
X217834Y25896D02*
X217301Y26429D01*
Y27495D01*
X217834Y28029D01*
X218367D01*
X218900Y27495D01*
Y26962D01*
Y27495D01*
X219434Y28029D01*
X219967D01*
X220500Y27495D01*
Y26429D01*
X219967Y25896D01*
X218801Y49697D02*
X221467D01*
X222000Y50230D01*
Y51296D01*
X221467Y51829D01*
X218801D01*
X222000Y54495D02*
X218801D01*
X220401Y52896D01*
Y55028D01*
X242301Y29197D02*
X244967D01*
X245500Y29730D01*
Y30796D01*
X244967Y31330D01*
X242301D01*
Y34528D02*
Y32396D01*
X243900D01*
X243367Y33462D01*
Y33995D01*
X243900Y34528D01*
X244967D01*
X245500Y33995D01*
Y32929D01*
X244967Y32396D01*
X250500Y67896D02*
Y65230D01*
X251033Y64697D01*
X252099D01*
X252633Y65230D01*
Y67896D01*
X253699D02*
X255832D01*
Y67363D01*
X253699Y65230D01*
Y64697D01*
X326500Y12896D02*
Y12363D01*
X327566Y11296D01*
X328633Y12363D01*
Y12896D01*
X327566Y11296D02*
Y9697D01*
X329699D02*
X330765D01*
X330232D01*
Y12896D01*
X329699Y12363D01*
X58618Y143598D02*
X60793Y145773D01*
X66118Y112297D02*
Y109098D01*
X67718D01*
X68251Y109632D01*
Y110165D01*
X67718Y110698D01*
X66118D01*
X67718D01*
X68251Y111231D01*
Y111764D01*
X67718Y112297D01*
X66118D01*
X69317D02*
Y109632D01*
X69850Y109098D01*
X70917D01*
X71450Y109632D01*
Y112297D01*
X72516D02*
X74649D01*
Y111764D01*
X72516Y109632D01*
Y109098D01*
X74649D01*
X75715D02*
X76781D01*
X76248D01*
Y112297D01*
X75715Y111764D01*
X148251Y111264D02*
X147718Y111797D01*
X146651D01*
X146118Y111264D01*
Y109132D01*
X146651Y108598D01*
X147718D01*
X148251Y109132D01*
X149317Y108598D02*
X150383D01*
X149850D01*
Y111797D01*
X149317Y111264D01*
X118251Y111764D02*
X117718Y112297D01*
X116651D01*
X116118Y111764D01*
Y109632D01*
X116651Y109098D01*
X117718D01*
X118251Y109632D01*
X121450Y109098D02*
X119317D01*
X121450Y111231D01*
Y111764D01*
X120917Y112297D01*
X119850D01*
X119317Y111764D01*
X39452Y124731D02*
X38919Y124198D01*
Y123132D01*
X39452Y122598D01*
X41585D01*
X42118Y123132D01*
Y124198D01*
X41585Y124731D01*
X39452Y125797D02*
X38919Y126331D01*
Y127397D01*
X39452Y127930D01*
X39985D01*
X40519Y127397D01*
Y126864D01*
Y127397D01*
X41052Y127930D01*
X41585D01*
X42118Y127397D01*
Y126331D01*
X41585Y125797D01*
X72251Y97764D02*
X71718Y98297D01*
X70651D01*
X70118Y97764D01*
Y95632D01*
X70651Y95098D01*
X71718D01*
X72251Y95632D01*
Y96698D01*
X71184D01*
X73317Y97764D02*
X73850Y98297D01*
X74917D01*
X75450Y97764D01*
Y97231D01*
X74917Y96698D01*
X74383D01*
X74917D01*
X75450Y96165D01*
Y95632D01*
X74917Y95098D01*
X73850D01*
X73317Y95632D01*
X27618Y123098D02*
Y126297D01*
X29218D01*
X29751Y125764D01*
Y124698D01*
X29218Y124165D01*
X27618D01*
X28684D02*
X29751Y123098D01*
X30817D02*
X31883D01*
X31350D01*
Y126297D01*
X30817Y125764D01*
X41618Y142098D02*
Y145297D01*
X43218D01*
X43751Y144764D01*
Y143698D01*
X43218Y143165D01*
X41618D01*
X42684D02*
X43751Y142098D01*
X46950D02*
X44817D01*
X46950Y144231D01*
Y144764D01*
X46417Y145297D01*
X45350D01*
X44817Y144764D01*
X72618Y147098D02*
X69419D01*
Y148698D01*
X69952Y149231D01*
X71019D01*
X71552Y148698D01*
Y147098D01*
Y148165D02*
X72618Y149231D01*
X69952Y150297D02*
X69419Y150831D01*
Y151897D01*
X69952Y152430D01*
X70486D01*
X71019Y151897D01*
Y151364D01*
Y151897D01*
X71552Y152430D01*
X72085D01*
X72618Y151897D01*
Y150831D01*
X72085Y150297D01*
X7618Y148098D02*
X4419D01*
Y149698D01*
X4952Y150231D01*
X6019D01*
X6552Y149698D01*
Y148098D01*
Y149165D02*
X7618Y150231D01*
Y152897D02*
X4419D01*
X6019Y151297D01*
Y153430D01*
X52618Y108098D02*
X49419D01*
Y109698D01*
X49952Y110231D01*
X51019D01*
X51552Y109698D01*
Y108098D01*
Y109165D02*
X52618Y110231D01*
X49419Y113430D02*
Y111297D01*
X51019D01*
X50485Y112364D01*
Y112897D01*
X51019Y113430D01*
X52085D01*
X52618Y112897D01*
Y111831D01*
X52085Y111297D01*
X91118Y96098D02*
Y99297D01*
X92718D01*
X93251Y98764D01*
Y97698D01*
X92718Y97165D01*
X91118D01*
X92184D02*
X93251Y96098D01*
X96450Y99297D02*
X95383Y98764D01*
X94317Y97698D01*
Y96632D01*
X94850Y96098D01*
X95917D01*
X96450Y96632D01*
Y97165D01*
X95917Y97698D01*
X94317D01*
X61118Y147295D02*
Y150494D01*
X62718D01*
X63251Y149961D01*
Y148895D01*
X62718Y148361D01*
X61118D01*
X62184D02*
X63251Y147295D01*
X64317Y150494D02*
X66450D01*
Y149961D01*
X64317Y147828D01*
Y147295D01*
X163618Y156098D02*
Y159297D01*
X165218D01*
X165751Y158764D01*
Y157698D01*
X165218Y157165D01*
X163618D01*
X164684D02*
X165751Y156098D01*
X166817Y158764D02*
X167350Y159297D01*
X168417D01*
X168950Y158764D01*
Y158231D01*
X168417Y157698D01*
X168950Y157165D01*
Y156632D01*
X168417Y156098D01*
X167350D01*
X166817Y156632D01*
Y157165D01*
X167350Y157698D01*
X166817Y158231D01*
Y158764D01*
X167350Y157698D02*
X168417D01*
X80618Y159098D02*
Y162297D01*
X82218D01*
X82751Y161764D01*
Y160698D01*
X82218Y160165D01*
X80618D01*
X81684D02*
X82751Y159098D01*
X83817Y159632D02*
X84350Y159098D01*
X85417D01*
X85950Y159632D01*
Y161764D01*
X85417Y162297D01*
X84350D01*
X83817Y161764D01*
Y161231D01*
X84350Y160698D01*
X85950D01*
X149618Y137098D02*
Y140297D01*
X151218D01*
X151751Y139764D01*
Y138698D01*
X151218Y138165D01*
X149618D01*
X150684D02*
X151751Y137098D01*
X152817D02*
X153883D01*
X153350D01*
Y140297D01*
X152817Y139764D01*
X155483D02*
X156016Y140297D01*
X157082D01*
X157615Y139764D01*
Y137632D01*
X157082Y137098D01*
X156016D01*
X155483Y137632D01*
Y139764D01*
X154618Y103598D02*
Y106797D01*
X156218D01*
X156751Y106264D01*
Y105198D01*
X156218Y104665D01*
X154618D01*
X155684D02*
X156751Y103598D01*
X157817D02*
X158883D01*
X158350D01*
Y106797D01*
X157817Y106264D01*
X160483Y103598D02*
X161549D01*
X161016D01*
Y106797D01*
X160483Y106264D01*
X149618Y128598D02*
Y131797D01*
X151218D01*
X151751Y131264D01*
Y130198D01*
X151218Y129665D01*
X149618D01*
X150684D02*
X151751Y128598D01*
X152817D02*
X153883D01*
X153350D01*
Y131797D01*
X152817Y131264D01*
X157615Y128598D02*
X155483D01*
X157615Y130731D01*
Y131264D01*
X157082Y131797D01*
X156016D01*
X155483Y131264D01*
X144251Y166764D02*
X143718Y167297D01*
X142651D01*
X142118Y166764D01*
Y166231D01*
X142651Y165698D01*
X143718D01*
X144251Y165165D01*
Y164632D01*
X143718Y164098D01*
X142651D01*
X142118Y164632D01*
X145317Y167297D02*
Y164098D01*
X146917D01*
X147450Y164632D01*
Y166764D01*
X146917Y167297D01*
X145317D01*
X148516Y164098D02*
Y166231D01*
X149582Y167297D01*
X150649Y166231D01*
Y164098D01*
Y165698D01*
X148516D01*
X151715Y164098D02*
X152781D01*
X152248D01*
Y167297D01*
X151715Y166764D01*
X97118Y143297D02*
Y140632D01*
X97651Y140098D01*
X98718D01*
X99251Y140632D01*
Y143297D01*
X100317Y140098D02*
X101383D01*
X100850D01*
Y143297D01*
X100317Y142764D01*
X65919Y115098D02*
X68585D01*
X69118Y115632D01*
Y116698D01*
X68585Y117231D01*
X65919D01*
X69118Y120430D02*
Y118297D01*
X66985Y120430D01*
X66452D01*
X65919Y119897D01*
Y118831D01*
X66452Y118297D01*
X22419Y110098D02*
X25085D01*
X25618Y110632D01*
Y111698D01*
X25085Y112231D01*
X22419D01*
X22952Y113297D02*
X22419Y113831D01*
Y114897D01*
X22952Y115430D01*
X23485D01*
X24019Y114897D01*
Y114364D01*
Y114897D01*
X24552Y115430D01*
X25085D01*
X25618Y114897D01*
Y113831D01*
X25085Y113297D01*
X23919Y137098D02*
X26585D01*
X27118Y137632D01*
Y138698D01*
X26585Y139231D01*
X23919D01*
X27118Y141897D02*
X23919D01*
X25519Y140297D01*
Y142430D01*
X47419Y116598D02*
X50085D01*
X50618Y117132D01*
Y118198D01*
X50085Y118731D01*
X47419D01*
Y121930D02*
Y119797D01*
X49019D01*
X48485Y120864D01*
Y121397D01*
X49019Y121930D01*
X50085D01*
X50618Y121397D01*
Y120331D01*
X50085Y119797D01*
X55618Y155297D02*
Y152632D01*
X56151Y152098D01*
X57218D01*
X57751Y152632D01*
Y155297D01*
X58817D02*
X60950D01*
Y154764D01*
X58817Y152632D01*
Y152098D01*
X131618Y100297D02*
Y99764D01*
X132684Y98698D01*
X133751Y99764D01*
Y100297D01*
X132684Y98698D02*
Y97098D01*
X134817D02*
X135883D01*
X135350D01*
Y100297D01*
X134817Y99764D01*
X253500Y143598D02*
X255675Y145773D01*
X261000Y112297D02*
Y109098D01*
X262599D01*
X263133Y109632D01*
Y110165D01*
X262599Y110698D01*
X261000D01*
X262599D01*
X263133Y111231D01*
Y111764D01*
X262599Y112297D01*
X261000D01*
X264199D02*
Y109632D01*
X264732Y109098D01*
X265798D01*
X266332Y109632D01*
Y112297D01*
X267398D02*
X269531D01*
Y111764D01*
X267398Y109632D01*
Y109098D01*
X269531D01*
X270597D02*
X271663D01*
X271130D01*
Y112297D01*
X270597Y111764D01*
X343133Y111264D02*
X342600Y111797D01*
X341533D01*
X341000Y111264D01*
Y109132D01*
X341533Y108598D01*
X342600D01*
X343133Y109132D01*
X344199Y108598D02*
X345265D01*
X344732D01*
Y111797D01*
X344199Y111264D01*
X313133Y111764D02*
X312599Y112297D01*
X311533D01*
X311000Y111764D01*
Y109632D01*
X311533Y109098D01*
X312599D01*
X313133Y109632D01*
X316332Y109098D02*
X314199D01*
X316332Y111231D01*
Y111764D01*
X315798Y112297D01*
X314732D01*
X314199Y111764D01*
X234334Y124731D02*
X233801Y124198D01*
Y123132D01*
X234334Y122598D01*
X236467D01*
X237000Y123132D01*
Y124198D01*
X236467Y124731D01*
X234334Y125797D02*
X233801Y126331D01*
Y127397D01*
X234334Y127930D01*
X234867D01*
X235401Y127397D01*
Y126864D01*
Y127397D01*
X235934Y127930D01*
X236467D01*
X237000Y127397D01*
Y126331D01*
X236467Y125797D01*
X267133Y97764D02*
X266599Y98297D01*
X265533D01*
X265000Y97764D01*
Y95632D01*
X265533Y95098D01*
X266599D01*
X267133Y95632D01*
Y96698D01*
X266066D01*
X268199Y97764D02*
X268732Y98297D01*
X269798D01*
X270332Y97764D01*
Y97231D01*
X269798Y96698D01*
X269265D01*
X269798D01*
X270332Y96165D01*
Y95632D01*
X269798Y95098D01*
X268732D01*
X268199Y95632D01*
X222500Y123098D02*
Y126297D01*
X224099D01*
X224633Y125764D01*
Y124698D01*
X224099Y124165D01*
X222500D01*
X223566D02*
X224633Y123098D01*
X225699D02*
X226765D01*
X226232D01*
Y126297D01*
X225699Y125764D01*
X236500Y142098D02*
Y145297D01*
X238100D01*
X238633Y144764D01*
Y143698D01*
X238100Y143165D01*
X236500D01*
X237566D02*
X238633Y142098D01*
X241832D02*
X239699D01*
X241832Y144231D01*
Y144764D01*
X241299Y145297D01*
X240232D01*
X239699Y144764D01*
X267500Y147098D02*
X264301D01*
Y148698D01*
X264834Y149231D01*
X265900D01*
X266434Y148698D01*
Y147098D01*
Y148165D02*
X267500Y149231D01*
X264834Y150297D02*
X264301Y150831D01*
Y151897D01*
X264834Y152430D01*
X265367D01*
X265900Y151897D01*
Y151364D01*
Y151897D01*
X266434Y152430D01*
X266967D01*
X267500Y151897D01*
Y150831D01*
X266967Y150297D01*
X202500Y148098D02*
X199301D01*
Y149698D01*
X199834Y150231D01*
X200901D01*
X201434Y149698D01*
Y148098D01*
Y149165D02*
X202500Y150231D01*
Y152897D02*
X199301D01*
X200901Y151297D01*
Y153430D01*
X247500Y108098D02*
X244301D01*
Y109698D01*
X244834Y110231D01*
X245901D01*
X246434Y109698D01*
Y108098D01*
Y109165D02*
X247500Y110231D01*
X244301Y113430D02*
Y111297D01*
X245901D01*
X245367Y112364D01*
Y112897D01*
X245901Y113430D01*
X246967D01*
X247500Y112897D01*
Y111831D01*
X246967Y111297D01*
X286000Y96098D02*
Y99297D01*
X287599D01*
X288133Y98764D01*
Y97698D01*
X287599Y97165D01*
X286000D01*
X287066D02*
X288133Y96098D01*
X291332Y99297D02*
X290265Y98764D01*
X289199Y97698D01*
Y96632D01*
X289732Y96098D01*
X290798D01*
X291332Y96632D01*
Y97165D01*
X290798Y97698D01*
X289199D01*
X256000Y147295D02*
Y150494D01*
X257599D01*
X258133Y149961D01*
Y148895D01*
X257599Y148361D01*
X256000D01*
X257066D02*
X258133Y147295D01*
X259199Y150494D02*
X261332D01*
Y149961D01*
X259199Y147828D01*
Y147295D01*
X358500Y156098D02*
Y159297D01*
X360100D01*
X360633Y158764D01*
Y157698D01*
X360100Y157165D01*
X358500D01*
X359566D02*
X360633Y156098D01*
X361699Y158764D02*
X362232Y159297D01*
X363299D01*
X363832Y158764D01*
Y158231D01*
X363299Y157698D01*
X363832Y157165D01*
Y156632D01*
X363299Y156098D01*
X362232D01*
X361699Y156632D01*
Y157165D01*
X362232Y157698D01*
X361699Y158231D01*
Y158764D01*
X362232Y157698D02*
X363299D01*
X275500Y159098D02*
Y162297D01*
X277099D01*
X277633Y161764D01*
Y160698D01*
X277099Y160165D01*
X275500D01*
X276566D02*
X277633Y159098D01*
X278699Y159632D02*
X279232Y159098D01*
X280298D01*
X280832Y159632D01*
Y161764D01*
X280298Y162297D01*
X279232D01*
X278699Y161764D01*
Y161231D01*
X279232Y160698D01*
X280832D01*
X344500Y137098D02*
Y140297D01*
X346099D01*
X346633Y139764D01*
Y138698D01*
X346099Y138165D01*
X344500D01*
X345566D02*
X346633Y137098D01*
X347699D02*
X348765D01*
X348232D01*
Y140297D01*
X347699Y139764D01*
X350365D02*
X350898Y140297D01*
X351964D01*
X352497Y139764D01*
Y137632D01*
X351964Y137098D01*
X350898D01*
X350365Y137632D01*
Y139764D01*
X349500Y103598D02*
Y106797D01*
X351099D01*
X351633Y106264D01*
Y105198D01*
X351099Y104665D01*
X349500D01*
X350566D02*
X351633Y103598D01*
X352699D02*
X353765D01*
X353232D01*
Y106797D01*
X352699Y106264D01*
X355365Y103598D02*
X356431D01*
X355898D01*
Y106797D01*
X355365Y106264D01*
X344500Y128598D02*
Y131797D01*
X346099D01*
X346633Y131264D01*
Y130198D01*
X346099Y129665D01*
X344500D01*
X345566D02*
X346633Y128598D01*
X347699D02*
X348765D01*
X348232D01*
Y131797D01*
X347699Y131264D01*
X352497Y128598D02*
X350365D01*
X352497Y130731D01*
Y131264D01*
X351964Y131797D01*
X350898D01*
X350365Y131264D01*
X339133Y166764D02*
X338599Y167297D01*
X337533D01*
X337000Y166764D01*
Y166231D01*
X337533Y165698D01*
X338599D01*
X339133Y165165D01*
Y164632D01*
X338599Y164098D01*
X337533D01*
X337000Y164632D01*
X340199Y167297D02*
Y164098D01*
X341798D01*
X342332Y164632D01*
Y166764D01*
X341798Y167297D01*
X340199D01*
X343398Y164098D02*
Y166231D01*
X344464Y167297D01*
X345531Y166231D01*
Y164098D01*
Y165698D01*
X343398D01*
X346597Y164098D02*
X347663D01*
X347130D01*
Y167297D01*
X346597Y166764D01*
X292000Y143297D02*
Y140632D01*
X292533Y140098D01*
X293600D01*
X294133Y140632D01*
Y143297D01*
X295199Y140098D02*
X296265D01*
X295732D01*
Y143297D01*
X295199Y142764D01*
X260801Y115098D02*
X263467D01*
X264000Y115632D01*
Y116698D01*
X263467Y117231D01*
X260801D01*
X264000Y120430D02*
Y118297D01*
X261867Y120430D01*
X261334D01*
X260801Y119897D01*
Y118831D01*
X261334Y118297D01*
X217301Y110098D02*
X219967D01*
X220500Y110632D01*
Y111698D01*
X219967Y112231D01*
X217301D01*
X217834Y113297D02*
X217301Y113831D01*
Y114897D01*
X217834Y115430D01*
X218367D01*
X218900Y114897D01*
Y114364D01*
Y114897D01*
X219434Y115430D01*
X219967D01*
X220500Y114897D01*
Y113831D01*
X219967Y113297D01*
X218801Y137098D02*
X221467D01*
X222000Y137632D01*
Y138698D01*
X221467Y139231D01*
X218801D01*
X222000Y141897D02*
X218801D01*
X220401Y140297D01*
Y142430D01*
X242301Y116598D02*
X244967D01*
X245500Y117132D01*
Y118198D01*
X244967Y118731D01*
X242301D01*
Y121930D02*
Y119797D01*
X243900D01*
X243367Y120864D01*
Y121397D01*
X243900Y121930D01*
X244967D01*
X245500Y121397D01*
Y120331D01*
X244967Y119797D01*
X250500Y155297D02*
Y152632D01*
X251033Y152098D01*
X252099D01*
X252633Y152632D01*
Y155297D01*
X253699D02*
X255832D01*
Y154764D01*
X253699Y152632D01*
Y152098D01*
X326500Y100297D02*
Y99764D01*
X327566Y98698D01*
X328633Y99764D01*
Y100297D01*
X327566Y98698D02*
Y97098D01*
X329699D02*
X330765D01*
X330232D01*
Y100297D01*
X329699Y99764D01*
X58618Y231000D02*
X60793Y233175D01*
X66118Y199699D02*
Y196500D01*
X67718D01*
X68251Y197033D01*
Y197566D01*
X67718Y198100D01*
X66118D01*
X67718D01*
X68251Y198633D01*
Y199166D01*
X67718Y199699D01*
X66118D01*
X69317D02*
Y197033D01*
X69850Y196500D01*
X70917D01*
X71450Y197033D01*
Y199699D01*
X72516D02*
X74649D01*
Y199166D01*
X72516Y197033D01*
Y196500D01*
X74649D01*
X75715D02*
X76781D01*
X76248D01*
Y199699D01*
X75715Y199166D01*
X148251Y198666D02*
X147718Y199199D01*
X146651D01*
X146118Y198666D01*
Y196533D01*
X146651Y196000D01*
X147718D01*
X148251Y196533D01*
X149317Y196000D02*
X150383D01*
X149850D01*
Y199199D01*
X149317Y198666D01*
X118251Y199166D02*
X117718Y199699D01*
X116651D01*
X116118Y199166D01*
Y197033D01*
X116651Y196500D01*
X117718D01*
X118251Y197033D01*
X121450Y196500D02*
X119317D01*
X121450Y198633D01*
Y199166D01*
X120917Y199699D01*
X119850D01*
X119317Y199166D01*
X39452Y212133D02*
X38919Y211599D01*
Y210533D01*
X39452Y210000D01*
X41585D01*
X42118Y210533D01*
Y211599D01*
X41585Y212133D01*
X39452Y213199D02*
X38919Y213732D01*
Y214798D01*
X39452Y215332D01*
X39985D01*
X40519Y214798D01*
Y214265D01*
Y214798D01*
X41052Y215332D01*
X41585D01*
X42118Y214798D01*
Y213732D01*
X41585Y213199D01*
X72251Y185166D02*
X71718Y185699D01*
X70651D01*
X70118Y185166D01*
Y183033D01*
X70651Y182500D01*
X71718D01*
X72251Y183033D01*
Y184099D01*
X71184D01*
X73317Y185166D02*
X73850Y185699D01*
X74917D01*
X75450Y185166D01*
Y184633D01*
X74917Y184099D01*
X74383D01*
X74917D01*
X75450Y183566D01*
Y183033D01*
X74917Y182500D01*
X73850D01*
X73317Y183033D01*
X27618Y210500D02*
Y213699D01*
X29218D01*
X29751Y213166D01*
Y212100D01*
X29218Y211566D01*
X27618D01*
X28684D02*
X29751Y210500D01*
X30817D02*
X31883D01*
X31350D01*
Y213699D01*
X30817Y213166D01*
X41618Y229500D02*
Y232699D01*
X43218D01*
X43751Y232166D01*
Y231100D01*
X43218Y230566D01*
X41618D01*
X42684D02*
X43751Y229500D01*
X46950D02*
X44817D01*
X46950Y231633D01*
Y232166D01*
X46417Y232699D01*
X45350D01*
X44817Y232166D01*
X72618Y234500D02*
X69419D01*
Y236100D01*
X69952Y236633D01*
X71019D01*
X71552Y236100D01*
Y234500D01*
Y235566D02*
X72618Y236633D01*
X69952Y237699D02*
X69419Y238232D01*
Y239299D01*
X69952Y239832D01*
X70486D01*
X71019Y239299D01*
Y238765D01*
Y239299D01*
X71552Y239832D01*
X72085D01*
X72618Y239299D01*
Y238232D01*
X72085Y237699D01*
X7618Y235500D02*
X4419D01*
Y237100D01*
X4952Y237633D01*
X6019D01*
X6552Y237100D01*
Y235500D01*
Y236566D02*
X7618Y237633D01*
Y240299D02*
X4419D01*
X6019Y238699D01*
Y240832D01*
X52618Y195500D02*
X49419D01*
Y197099D01*
X49952Y197633D01*
X51019D01*
X51552Y197099D01*
Y195500D01*
Y196566D02*
X52618Y197633D01*
X49419Y200832D02*
Y198699D01*
X51019D01*
X50485Y199765D01*
Y200299D01*
X51019Y200832D01*
X52085D01*
X52618Y200299D01*
Y199232D01*
X52085Y198699D01*
X91118Y183500D02*
Y186699D01*
X92718D01*
X93251Y186166D01*
Y185099D01*
X92718Y184566D01*
X91118D01*
X92184D02*
X93251Y183500D01*
X96450Y186699D02*
X95383Y186166D01*
X94317Y185099D01*
Y184033D01*
X94850Y183500D01*
X95917D01*
X96450Y184033D01*
Y184566D01*
X95917Y185099D01*
X94317D01*
X61118Y234697D02*
Y237896D01*
X62718D01*
X63251Y237363D01*
Y236296D01*
X62718Y235763D01*
X61118D01*
X62184D02*
X63251Y234697D01*
X64317Y237896D02*
X66450D01*
Y237363D01*
X64317Y235230D01*
Y234697D01*
X163618Y243500D02*
Y246699D01*
X165218D01*
X165751Y246166D01*
Y245099D01*
X165218Y244566D01*
X163618D01*
X164684D02*
X165751Y243500D01*
X166817Y246166D02*
X167350Y246699D01*
X168417D01*
X168950Y246166D01*
Y245633D01*
X168417Y245099D01*
X168950Y244566D01*
Y244033D01*
X168417Y243500D01*
X167350D01*
X166817Y244033D01*
Y244566D01*
X167350Y245099D01*
X166817Y245633D01*
Y246166D01*
X167350Y245099D02*
X168417D01*
X80618Y246500D02*
Y249699D01*
X82218D01*
X82751Y249166D01*
Y248099D01*
X82218Y247566D01*
X80618D01*
X81684D02*
X82751Y246500D01*
X83817Y247033D02*
X84350Y246500D01*
X85417D01*
X85950Y247033D01*
Y249166D01*
X85417Y249699D01*
X84350D01*
X83817Y249166D01*
Y248633D01*
X84350Y248099D01*
X85950D01*
X149618Y224500D02*
Y227699D01*
X151218D01*
X151751Y227166D01*
Y226099D01*
X151218Y225566D01*
X149618D01*
X150684D02*
X151751Y224500D01*
X152817D02*
X153883D01*
X153350D01*
Y227699D01*
X152817Y227166D01*
X155483D02*
X156016Y227699D01*
X157082D01*
X157615Y227166D01*
Y225033D01*
X157082Y224500D01*
X156016D01*
X155483Y225033D01*
Y227166D01*
X154618Y191000D02*
Y194199D01*
X156218D01*
X156751Y193666D01*
Y192599D01*
X156218Y192066D01*
X154618D01*
X155684D02*
X156751Y191000D01*
X157817D02*
X158883D01*
X158350D01*
Y194199D01*
X157817Y193666D01*
X160483Y191000D02*
X161549D01*
X161016D01*
Y194199D01*
X160483Y193666D01*
X149618Y216000D02*
Y219199D01*
X151218D01*
X151751Y218666D01*
Y217600D01*
X151218Y217066D01*
X149618D01*
X150684D02*
X151751Y216000D01*
X152817D02*
X153883D01*
X153350D01*
Y219199D01*
X152817Y218666D01*
X157615Y216000D02*
X155483D01*
X157615Y218133D01*
Y218666D01*
X157082Y219199D01*
X156016D01*
X155483Y218666D01*
X144251Y254166D02*
X143718Y254699D01*
X142651D01*
X142118Y254166D01*
Y253633D01*
X142651Y253099D01*
X143718D01*
X144251Y252566D01*
Y252033D01*
X143718Y251500D01*
X142651D01*
X142118Y252033D01*
X145317Y254699D02*
Y251500D01*
X146917D01*
X147450Y252033D01*
Y254166D01*
X146917Y254699D01*
X145317D01*
X148516Y251500D02*
Y253633D01*
X149582Y254699D01*
X150649Y253633D01*
Y251500D01*
Y253099D01*
X148516D01*
X151715Y251500D02*
X152781D01*
X152248D01*
Y254699D01*
X151715Y254166D01*
X97118Y230699D02*
Y228033D01*
X97651Y227500D01*
X98718D01*
X99251Y228033D01*
Y230699D01*
X100317Y227500D02*
X101383D01*
X100850D01*
Y230699D01*
X100317Y230166D01*
X65919Y202500D02*
X68585D01*
X69118Y203033D01*
Y204099D01*
X68585Y204633D01*
X65919D01*
X69118Y207832D02*
Y205699D01*
X66985Y207832D01*
X66452D01*
X65919Y207298D01*
Y206232D01*
X66452Y205699D01*
X22419Y197500D02*
X25085D01*
X25618Y198033D01*
Y199100D01*
X25085Y199633D01*
X22419D01*
X22952Y200699D02*
X22419Y201232D01*
Y202298D01*
X22952Y202832D01*
X23485D01*
X24019Y202298D01*
Y201765D01*
Y202298D01*
X24552Y202832D01*
X25085D01*
X25618Y202298D01*
Y201232D01*
X25085Y200699D01*
X23919Y224500D02*
X26585D01*
X27118Y225033D01*
Y226099D01*
X26585Y226633D01*
X23919D01*
X27118Y229298D02*
X23919D01*
X25519Y227699D01*
Y229832D01*
X47419Y204000D02*
X50085D01*
X50618Y204533D01*
Y205599D01*
X50085Y206133D01*
X47419D01*
Y209332D02*
Y207199D01*
X49019D01*
X48485Y208265D01*
Y208799D01*
X49019Y209332D01*
X50085D01*
X50618Y208799D01*
Y207732D01*
X50085Y207199D01*
X55618Y242699D02*
Y240033D01*
X56151Y239500D01*
X57218D01*
X57751Y240033D01*
Y242699D01*
X58817D02*
X60950D01*
Y242166D01*
X58817Y240033D01*
Y239500D01*
X131618Y187699D02*
Y187166D01*
X132684Y186100D01*
X133751Y187166D01*
Y187699D01*
X132684Y186100D02*
Y184500D01*
X134817D02*
X135883D01*
X135350D01*
Y187699D01*
X134817Y187166D01*
X253500Y231000D02*
X255675Y233175D01*
X261000Y199699D02*
Y196500D01*
X262599D01*
X263133Y197033D01*
Y197566D01*
X262599Y198100D01*
X261000D01*
X262599D01*
X263133Y198633D01*
Y199166D01*
X262599Y199699D01*
X261000D01*
X264199D02*
Y197033D01*
X264732Y196500D01*
X265798D01*
X266332Y197033D01*
Y199699D01*
X267398D02*
X269531D01*
Y199166D01*
X267398Y197033D01*
Y196500D01*
X269531D01*
X270597D02*
X271663D01*
X271130D01*
Y199699D01*
X270597Y199166D01*
X343133Y198666D02*
X342600Y199199D01*
X341533D01*
X341000Y198666D01*
Y196533D01*
X341533Y196000D01*
X342600D01*
X343133Y196533D01*
X344199Y196000D02*
X345265D01*
X344732D01*
Y199199D01*
X344199Y198666D01*
X313133Y199166D02*
X312599Y199699D01*
X311533D01*
X311000Y199166D01*
Y197033D01*
X311533Y196500D01*
X312599D01*
X313133Y197033D01*
X316332Y196500D02*
X314199D01*
X316332Y198633D01*
Y199166D01*
X315798Y199699D01*
X314732D01*
X314199Y199166D01*
X234334Y212133D02*
X233801Y211599D01*
Y210533D01*
X234334Y210000D01*
X236467D01*
X237000Y210533D01*
Y211599D01*
X236467Y212133D01*
X234334Y213199D02*
X233801Y213732D01*
Y214798D01*
X234334Y215332D01*
X234867D01*
X235401Y214798D01*
Y214265D01*
Y214798D01*
X235934Y215332D01*
X236467D01*
X237000Y214798D01*
Y213732D01*
X236467Y213199D01*
X267133Y185166D02*
X266599Y185699D01*
X265533D01*
X265000Y185166D01*
Y183033D01*
X265533Y182500D01*
X266599D01*
X267133Y183033D01*
Y184099D01*
X266066D01*
X268199Y185166D02*
X268732Y185699D01*
X269798D01*
X270332Y185166D01*
Y184633D01*
X269798Y184099D01*
X269265D01*
X269798D01*
X270332Y183566D01*
Y183033D01*
X269798Y182500D01*
X268732D01*
X268199Y183033D01*
X222500Y210500D02*
Y213699D01*
X224099D01*
X224633Y213166D01*
Y212100D01*
X224099Y211566D01*
X222500D01*
X223566D02*
X224633Y210500D01*
X225699D02*
X226765D01*
X226232D01*
Y213699D01*
X225699Y213166D01*
X236500Y229500D02*
Y232699D01*
X238100D01*
X238633Y232166D01*
Y231100D01*
X238100Y230566D01*
X236500D01*
X237566D02*
X238633Y229500D01*
X241832D02*
X239699D01*
X241832Y231633D01*
Y232166D01*
X241299Y232699D01*
X240232D01*
X239699Y232166D01*
X267500Y234500D02*
X264301D01*
Y236100D01*
X264834Y236633D01*
X265900D01*
X266434Y236100D01*
Y234500D01*
Y235566D02*
X267500Y236633D01*
X264834Y237699D02*
X264301Y238232D01*
Y239299D01*
X264834Y239832D01*
X265367D01*
X265900Y239299D01*
Y238765D01*
Y239299D01*
X266434Y239832D01*
X266967D01*
X267500Y239299D01*
Y238232D01*
X266967Y237699D01*
X202500Y235500D02*
X199301D01*
Y237100D01*
X199834Y237633D01*
X200901D01*
X201434Y237100D01*
Y235500D01*
Y236566D02*
X202500Y237633D01*
Y240299D02*
X199301D01*
X200901Y238699D01*
Y240832D01*
X247500Y195500D02*
X244301D01*
Y197099D01*
X244834Y197633D01*
X245901D01*
X246434Y197099D01*
Y195500D01*
Y196566D02*
X247500Y197633D01*
X244301Y200832D02*
Y198699D01*
X245901D01*
X245367Y199765D01*
Y200299D01*
X245901Y200832D01*
X246967D01*
X247500Y200299D01*
Y199232D01*
X246967Y198699D01*
X286000Y183500D02*
Y186699D01*
X287599D01*
X288133Y186166D01*
Y185099D01*
X287599Y184566D01*
X286000D01*
X287066D02*
X288133Y183500D01*
X291332Y186699D02*
X290265Y186166D01*
X289199Y185099D01*
Y184033D01*
X289732Y183500D01*
X290798D01*
X291332Y184033D01*
Y184566D01*
X290798Y185099D01*
X289199D01*
X256000Y234697D02*
Y237896D01*
X257599D01*
X258133Y237363D01*
Y236296D01*
X257599Y235763D01*
X256000D01*
X257066D02*
X258133Y234697D01*
X259199Y237896D02*
X261332D01*
Y237363D01*
X259199Y235230D01*
Y234697D01*
X358500Y243500D02*
Y246699D01*
X360100D01*
X360633Y246166D01*
Y245099D01*
X360100Y244566D01*
X358500D01*
X359566D02*
X360633Y243500D01*
X361699Y246166D02*
X362232Y246699D01*
X363299D01*
X363832Y246166D01*
Y245633D01*
X363299Y245099D01*
X363832Y244566D01*
Y244033D01*
X363299Y243500D01*
X362232D01*
X361699Y244033D01*
Y244566D01*
X362232Y245099D01*
X361699Y245633D01*
Y246166D01*
X362232Y245099D02*
X363299D01*
X275500Y246500D02*
Y249699D01*
X277099D01*
X277633Y249166D01*
Y248099D01*
X277099Y247566D01*
X275500D01*
X276566D02*
X277633Y246500D01*
X278699Y247033D02*
X279232Y246500D01*
X280298D01*
X280832Y247033D01*
Y249166D01*
X280298Y249699D01*
X279232D01*
X278699Y249166D01*
Y248633D01*
X279232Y248099D01*
X280832D01*
X344500Y224500D02*
Y227699D01*
X346099D01*
X346633Y227166D01*
Y226099D01*
X346099Y225566D01*
X344500D01*
X345566D02*
X346633Y224500D01*
X347699D02*
X348765D01*
X348232D01*
Y227699D01*
X347699Y227166D01*
X350365D02*
X350898Y227699D01*
X351964D01*
X352497Y227166D01*
Y225033D01*
X351964Y224500D01*
X350898D01*
X350365Y225033D01*
Y227166D01*
X349500Y191000D02*
Y194199D01*
X351099D01*
X351633Y193666D01*
Y192599D01*
X351099Y192066D01*
X349500D01*
X350566D02*
X351633Y191000D01*
X352699D02*
X353765D01*
X353232D01*
Y194199D01*
X352699Y193666D01*
X355365Y191000D02*
X356431D01*
X355898D01*
Y194199D01*
X355365Y193666D01*
X344500Y216000D02*
Y219199D01*
X346099D01*
X346633Y218666D01*
Y217600D01*
X346099Y217066D01*
X344500D01*
X345566D02*
X346633Y216000D01*
X347699D02*
X348765D01*
X348232D01*
Y219199D01*
X347699Y218666D01*
X352497Y216000D02*
X350365D01*
X352497Y218133D01*
Y218666D01*
X351964Y219199D01*
X350898D01*
X350365Y218666D01*
X339133Y254166D02*
X338599Y254699D01*
X337533D01*
X337000Y254166D01*
Y253633D01*
X337533Y253099D01*
X338599D01*
X339133Y252566D01*
Y252033D01*
X338599Y251500D01*
X337533D01*
X337000Y252033D01*
X340199Y254699D02*
Y251500D01*
X341798D01*
X342332Y252033D01*
Y254166D01*
X341798Y254699D01*
X340199D01*
X343398Y251500D02*
Y253633D01*
X344464Y254699D01*
X345531Y253633D01*
Y251500D01*
Y253099D01*
X343398D01*
X346597Y251500D02*
X347663D01*
X347130D01*
Y254699D01*
X346597Y254166D01*
X292000Y230699D02*
Y228033D01*
X292533Y227500D01*
X293600D01*
X294133Y228033D01*
Y230699D01*
X295199Y227500D02*
X296265D01*
X295732D01*
Y230699D01*
X295199Y230166D01*
X260801Y202500D02*
X263467D01*
X264000Y203033D01*
Y204099D01*
X263467Y204633D01*
X260801D01*
X264000Y207832D02*
Y205699D01*
X261867Y207832D01*
X261334D01*
X260801Y207298D01*
Y206232D01*
X261334Y205699D01*
X217301Y197500D02*
X219967D01*
X220500Y198033D01*
Y199100D01*
X219967Y199633D01*
X217301D01*
X217834Y200699D02*
X217301Y201232D01*
Y202298D01*
X217834Y202832D01*
X218367D01*
X218900Y202298D01*
Y201765D01*
Y202298D01*
X219434Y202832D01*
X219967D01*
X220500Y202298D01*
Y201232D01*
X219967Y200699D01*
X218801Y224500D02*
X221467D01*
X222000Y225033D01*
Y226099D01*
X221467Y226633D01*
X218801D01*
X222000Y229298D02*
X218801D01*
X220401Y227699D01*
Y229832D01*
X242301Y204000D02*
X244967D01*
X245500Y204533D01*
Y205599D01*
X244967Y206133D01*
X242301D01*
Y209332D02*
Y207199D01*
X243900D01*
X243367Y208265D01*
Y208799D01*
X243900Y209332D01*
X244967D01*
X245500Y208799D01*
Y207732D01*
X244967Y207199D01*
X250500Y242699D02*
Y240033D01*
X251033Y239500D01*
X252099D01*
X252633Y240033D01*
Y242699D01*
X253699D02*
X255832D01*
Y242166D01*
X253699Y240033D01*
Y239500D01*
X326500Y187699D02*
Y187166D01*
X327566Y186100D01*
X328633Y187166D01*
Y187699D01*
X327566Y186100D02*
Y184500D01*
X329699D02*
X330765D01*
X330232D01*
Y187699D01*
X329699Y187166D01*
X58618Y318402D02*
X60793Y320577D01*
X66118Y287101D02*
Y283902D01*
X67718D01*
X68251Y284435D01*
Y284968D01*
X67718Y285501D01*
X66118D01*
X67718D01*
X68251Y286034D01*
Y286567D01*
X67718Y287101D01*
X66118D01*
X69317D02*
Y284435D01*
X69850Y283902D01*
X70917D01*
X71450Y284435D01*
Y287101D01*
X72516D02*
X74649D01*
Y286567D01*
X72516Y284435D01*
Y283902D01*
X74649D01*
X75715D02*
X76781D01*
X76248D01*
Y287101D01*
X75715Y286567D01*
X148251Y286067D02*
X147718Y286600D01*
X146651D01*
X146118Y286067D01*
Y283935D01*
X146651Y283402D01*
X147718D01*
X148251Y283935D01*
X149317Y283402D02*
X150383D01*
X149850D01*
Y286600D01*
X149317Y286067D01*
X118251Y286567D02*
X117718Y287101D01*
X116651D01*
X116118Y286567D01*
Y284435D01*
X116651Y283902D01*
X117718D01*
X118251Y284435D01*
X121450Y283902D02*
X119317D01*
X121450Y286034D01*
Y286567D01*
X120917Y287101D01*
X119850D01*
X119317Y286567D01*
X39452Y299534D02*
X38919Y299001D01*
Y297935D01*
X39452Y297402D01*
X41585D01*
X42118Y297935D01*
Y299001D01*
X41585Y299534D01*
X39452Y300601D02*
X38919Y301134D01*
Y302200D01*
X39452Y302733D01*
X39985D01*
X40519Y302200D01*
Y301667D01*
Y302200D01*
X41052Y302733D01*
X41585D01*
X42118Y302200D01*
Y301134D01*
X41585Y300601D01*
X72251Y272567D02*
X71718Y273100D01*
X70651D01*
X70118Y272567D01*
Y270435D01*
X70651Y269902D01*
X71718D01*
X72251Y270435D01*
Y271501D01*
X71184D01*
X73317Y272567D02*
X73850Y273100D01*
X74917D01*
X75450Y272567D01*
Y272034D01*
X74917Y271501D01*
X74383D01*
X74917D01*
X75450Y270968D01*
Y270435D01*
X74917Y269902D01*
X73850D01*
X73317Y270435D01*
X27618Y297902D02*
Y301100D01*
X29218D01*
X29751Y300567D01*
Y299501D01*
X29218Y298968D01*
X27618D01*
X28684D02*
X29751Y297902D01*
X30817D02*
X31883D01*
X31350D01*
Y301100D01*
X30817Y300567D01*
X41618Y316902D02*
Y320100D01*
X43218D01*
X43751Y319567D01*
Y318501D01*
X43218Y317968D01*
X41618D01*
X42684D02*
X43751Y316902D01*
X46950D02*
X44817D01*
X46950Y319034D01*
Y319567D01*
X46417Y320100D01*
X45350D01*
X44817Y319567D01*
X72618Y321902D02*
X69419D01*
Y323501D01*
X69952Y324034D01*
X71019D01*
X71552Y323501D01*
Y321902D01*
Y322968D02*
X72618Y324034D01*
X69952Y325100D02*
X69419Y325634D01*
Y326700D01*
X69952Y327233D01*
X70486D01*
X71019Y326700D01*
Y326167D01*
Y326700D01*
X71552Y327233D01*
X72085D01*
X72618Y326700D01*
Y325634D01*
X72085Y325100D01*
X7618Y322902D02*
X4419D01*
Y324501D01*
X4952Y325034D01*
X6019D01*
X6552Y324501D01*
Y322902D01*
Y323968D02*
X7618Y325034D01*
Y327700D02*
X4419D01*
X6019Y326100D01*
Y328233D01*
X52618Y282902D02*
X49419D01*
Y284501D01*
X49952Y285034D01*
X51019D01*
X51552Y284501D01*
Y282902D01*
Y283968D02*
X52618Y285034D01*
X49419Y288233D02*
Y286101D01*
X51019D01*
X50485Y287167D01*
Y287700D01*
X51019Y288233D01*
X52085D01*
X52618Y287700D01*
Y286634D01*
X52085Y286101D01*
X91118Y270902D02*
Y274100D01*
X92718D01*
X93251Y273567D01*
Y272501D01*
X92718Y271968D01*
X91118D01*
X92184D02*
X93251Y270902D01*
X96450Y274100D02*
X95383Y273567D01*
X94317Y272501D01*
Y271435D01*
X94850Y270902D01*
X95917D01*
X96450Y271435D01*
Y271968D01*
X95917Y272501D01*
X94317D01*
X61118Y322098D02*
Y325297D01*
X62718D01*
X63251Y324764D01*
Y323698D01*
X62718Y323165D01*
X61118D01*
X62184D02*
X63251Y322098D01*
X64317Y325297D02*
X66450D01*
Y324764D01*
X64317Y322631D01*
Y322098D01*
X163618Y330902D02*
Y334101D01*
X165218D01*
X165751Y333567D01*
Y332501D01*
X165218Y331968D01*
X163618D01*
X164684D02*
X165751Y330902D01*
X166817Y333567D02*
X167350Y334101D01*
X168417D01*
X168950Y333567D01*
Y333034D01*
X168417Y332501D01*
X168950Y331968D01*
Y331435D01*
X168417Y330902D01*
X167350D01*
X166817Y331435D01*
Y331968D01*
X167350Y332501D01*
X166817Y333034D01*
Y333567D01*
X167350Y332501D02*
X168417D01*
X80618Y333902D02*
Y337101D01*
X82218D01*
X82751Y336567D01*
Y335501D01*
X82218Y334968D01*
X80618D01*
X81684D02*
X82751Y333902D01*
X83817Y334435D02*
X84350Y333902D01*
X85417D01*
X85950Y334435D01*
Y336567D01*
X85417Y337101D01*
X84350D01*
X83817Y336567D01*
Y336034D01*
X84350Y335501D01*
X85950D01*
X149618Y311902D02*
Y315101D01*
X151218D01*
X151751Y314567D01*
Y313501D01*
X151218Y312968D01*
X149618D01*
X150684D02*
X151751Y311902D01*
X152817D02*
X153883D01*
X153350D01*
Y315101D01*
X152817Y314567D01*
X155483D02*
X156016Y315101D01*
X157082D01*
X157615Y314567D01*
Y312435D01*
X157082Y311902D01*
X156016D01*
X155483Y312435D01*
Y314567D01*
X154618Y278402D02*
Y281600D01*
X156218D01*
X156751Y281067D01*
Y280001D01*
X156218Y279468D01*
X154618D01*
X155684D02*
X156751Y278402D01*
X157817D02*
X158883D01*
X158350D01*
Y281600D01*
X157817Y281067D01*
X160483Y278402D02*
X161549D01*
X161016D01*
Y281600D01*
X160483Y281067D01*
X149618Y303402D02*
Y306600D01*
X151218D01*
X151751Y306067D01*
Y305001D01*
X151218Y304468D01*
X149618D01*
X150684D02*
X151751Y303402D01*
X152817D02*
X153883D01*
X153350D01*
Y306600D01*
X152817Y306067D01*
X157615Y303402D02*
X155483D01*
X157615Y305534D01*
Y306067D01*
X157082Y306600D01*
X156016D01*
X155483Y306067D01*
X144251Y341567D02*
X143718Y342101D01*
X142651D01*
X142118Y341567D01*
Y341034D01*
X142651Y340501D01*
X143718D01*
X144251Y339968D01*
Y339435D01*
X143718Y338902D01*
X142651D01*
X142118Y339435D01*
X145317Y342101D02*
Y338902D01*
X146917D01*
X147450Y339435D01*
Y341567D01*
X146917Y342101D01*
X145317D01*
X148516Y338902D02*
Y341034D01*
X149582Y342101D01*
X150649Y341034D01*
Y338902D01*
Y340501D01*
X148516D01*
X151715Y338902D02*
X152781D01*
X152248D01*
Y342101D01*
X151715Y341567D01*
X97118Y318101D02*
Y315435D01*
X97651Y314902D01*
X98718D01*
X99251Y315435D01*
Y318101D01*
X100317Y314902D02*
X101383D01*
X100850D01*
Y318101D01*
X100317Y317567D01*
X65919Y289902D02*
X68585D01*
X69118Y290435D01*
Y291501D01*
X68585Y292034D01*
X65919D01*
X69118Y295233D02*
Y293101D01*
X66985Y295233D01*
X66452D01*
X65919Y294700D01*
Y293634D01*
X66452Y293101D01*
X22419Y284902D02*
X25085D01*
X25618Y285435D01*
Y286501D01*
X25085Y287034D01*
X22419D01*
X22952Y288101D02*
X22419Y288634D01*
Y289700D01*
X22952Y290233D01*
X23485D01*
X24019Y289700D01*
Y289167D01*
Y289700D01*
X24552Y290233D01*
X25085D01*
X25618Y289700D01*
Y288634D01*
X25085Y288101D01*
X23919Y311902D02*
X26585D01*
X27118Y312435D01*
Y313501D01*
X26585Y314034D01*
X23919D01*
X27118Y316700D02*
X23919D01*
X25519Y315101D01*
Y317233D01*
X47419Y291402D02*
X50085D01*
X50618Y291935D01*
Y293001D01*
X50085Y293534D01*
X47419D01*
Y296733D02*
Y294601D01*
X49019D01*
X48485Y295667D01*
Y296200D01*
X49019Y296733D01*
X50085D01*
X50618Y296200D01*
Y295134D01*
X50085Y294601D01*
X55618Y330100D02*
Y327435D01*
X56151Y326902D01*
X57218D01*
X57751Y327435D01*
Y330100D01*
X58817D02*
X60950D01*
Y329567D01*
X58817Y327435D01*
Y326902D01*
X131618Y275100D02*
Y274567D01*
X132684Y273501D01*
X133751Y274567D01*
Y275100D01*
X132684Y273501D02*
Y271902D01*
X134817D02*
X135883D01*
X135350D01*
Y275100D01*
X134817Y274567D01*
X253500Y318402D02*
X255675Y320577D01*
X261000Y287101D02*
Y283902D01*
X262599D01*
X263133Y284435D01*
Y284968D01*
X262599Y285501D01*
X261000D01*
X262599D01*
X263133Y286034D01*
Y286567D01*
X262599Y287101D01*
X261000D01*
X264199D02*
Y284435D01*
X264732Y283902D01*
X265798D01*
X266332Y284435D01*
Y287101D01*
X267398D02*
X269531D01*
Y286567D01*
X267398Y284435D01*
Y283902D01*
X269531D01*
X270597D02*
X271663D01*
X271130D01*
Y287101D01*
X270597Y286567D01*
X343133Y286067D02*
X342600Y286600D01*
X341533D01*
X341000Y286067D01*
Y283935D01*
X341533Y283402D01*
X342600D01*
X343133Y283935D01*
X344199Y283402D02*
X345265D01*
X344732D01*
Y286600D01*
X344199Y286067D01*
X313133Y286567D02*
X312599Y287101D01*
X311533D01*
X311000Y286567D01*
Y284435D01*
X311533Y283902D01*
X312599D01*
X313133Y284435D01*
X316332Y283902D02*
X314199D01*
X316332Y286034D01*
Y286567D01*
X315798Y287101D01*
X314732D01*
X314199Y286567D01*
X234334Y299534D02*
X233801Y299001D01*
Y297935D01*
X234334Y297402D01*
X236467D01*
X237000Y297935D01*
Y299001D01*
X236467Y299534D01*
X234334Y300601D02*
X233801Y301134D01*
Y302200D01*
X234334Y302733D01*
X234867D01*
X235401Y302200D01*
Y301667D01*
Y302200D01*
X235934Y302733D01*
X236467D01*
X237000Y302200D01*
Y301134D01*
X236467Y300601D01*
X267133Y272567D02*
X266599Y273100D01*
X265533D01*
X265000Y272567D01*
Y270435D01*
X265533Y269902D01*
X266599D01*
X267133Y270435D01*
Y271501D01*
X266066D01*
X268199Y272567D02*
X268732Y273100D01*
X269798D01*
X270332Y272567D01*
Y272034D01*
X269798Y271501D01*
X269265D01*
X269798D01*
X270332Y270968D01*
Y270435D01*
X269798Y269902D01*
X268732D01*
X268199Y270435D01*
X222500Y297902D02*
Y301100D01*
X224099D01*
X224633Y300567D01*
Y299501D01*
X224099Y298968D01*
X222500D01*
X223566D02*
X224633Y297902D01*
X225699D02*
X226765D01*
X226232D01*
Y301100D01*
X225699Y300567D01*
X236500Y316902D02*
Y320100D01*
X238100D01*
X238633Y319567D01*
Y318501D01*
X238100Y317968D01*
X236500D01*
X237566D02*
X238633Y316902D01*
X241832D02*
X239699D01*
X241832Y319034D01*
Y319567D01*
X241299Y320100D01*
X240232D01*
X239699Y319567D01*
X267500Y321902D02*
X264301D01*
Y323501D01*
X264834Y324034D01*
X265900D01*
X266434Y323501D01*
Y321902D01*
Y322968D02*
X267500Y324034D01*
X264834Y325100D02*
X264301Y325634D01*
Y326700D01*
X264834Y327233D01*
X265367D01*
X265900Y326700D01*
Y326167D01*
Y326700D01*
X266434Y327233D01*
X266967D01*
X267500Y326700D01*
Y325634D01*
X266967Y325100D01*
X202500Y322902D02*
X199301D01*
Y324501D01*
X199834Y325034D01*
X200901D01*
X201434Y324501D01*
Y322902D01*
Y323968D02*
X202500Y325034D01*
Y327700D02*
X199301D01*
X200901Y326100D01*
Y328233D01*
X247500Y282902D02*
X244301D01*
Y284501D01*
X244834Y285034D01*
X245901D01*
X246434Y284501D01*
Y282902D01*
Y283968D02*
X247500Y285034D01*
X244301Y288233D02*
Y286101D01*
X245901D01*
X245367Y287167D01*
Y287700D01*
X245901Y288233D01*
X246967D01*
X247500Y287700D01*
Y286634D01*
X246967Y286101D01*
X286000Y270902D02*
Y274100D01*
X287599D01*
X288133Y273567D01*
Y272501D01*
X287599Y271968D01*
X286000D01*
X287066D02*
X288133Y270902D01*
X291332Y274100D02*
X290265Y273567D01*
X289199Y272501D01*
Y271435D01*
X289732Y270902D01*
X290798D01*
X291332Y271435D01*
Y271968D01*
X290798Y272501D01*
X289199D01*
X256000Y322098D02*
Y325297D01*
X257599D01*
X258133Y324764D01*
Y323698D01*
X257599Y323165D01*
X256000D01*
X257066D02*
X258133Y322098D01*
X259199Y325297D02*
X261332D01*
Y324764D01*
X259199Y322631D01*
Y322098D01*
X358500Y330902D02*
Y334101D01*
X360100D01*
X360633Y333567D01*
Y332501D01*
X360100Y331968D01*
X358500D01*
X359566D02*
X360633Y330902D01*
X361699Y333567D02*
X362232Y334101D01*
X363299D01*
X363832Y333567D01*
Y333034D01*
X363299Y332501D01*
X363832Y331968D01*
Y331435D01*
X363299Y330902D01*
X362232D01*
X361699Y331435D01*
Y331968D01*
X362232Y332501D01*
X361699Y333034D01*
Y333567D01*
X362232Y332501D02*
X363299D01*
X275500Y333902D02*
Y337101D01*
X277099D01*
X277633Y336567D01*
Y335501D01*
X277099Y334968D01*
X275500D01*
X276566D02*
X277633Y333902D01*
X278699Y334435D02*
X279232Y333902D01*
X280298D01*
X280832Y334435D01*
Y336567D01*
X280298Y337101D01*
X279232D01*
X278699Y336567D01*
Y336034D01*
X279232Y335501D01*
X280832D01*
X344500Y311902D02*
Y315101D01*
X346099D01*
X346633Y314567D01*
Y313501D01*
X346099Y312968D01*
X344500D01*
X345566D02*
X346633Y311902D01*
X347699D02*
X348765D01*
X348232D01*
Y315101D01*
X347699Y314567D01*
X350365D02*
X350898Y315101D01*
X351964D01*
X352497Y314567D01*
Y312435D01*
X351964Y311902D01*
X350898D01*
X350365Y312435D01*
Y314567D01*
X349500Y278402D02*
Y281600D01*
X351099D01*
X351633Y281067D01*
Y280001D01*
X351099Y279468D01*
X349500D01*
X350566D02*
X351633Y278402D01*
X352699D02*
X353765D01*
X353232D01*
Y281600D01*
X352699Y281067D01*
X355365Y278402D02*
X356431D01*
X355898D01*
Y281600D01*
X355365Y281067D01*
X344500Y303402D02*
Y306600D01*
X346099D01*
X346633Y306067D01*
Y305001D01*
X346099Y304468D01*
X344500D01*
X345566D02*
X346633Y303402D01*
X347699D02*
X348765D01*
X348232D01*
Y306600D01*
X347699Y306067D01*
X352497Y303402D02*
X350365D01*
X352497Y305534D01*
Y306067D01*
X351964Y306600D01*
X350898D01*
X350365Y306067D01*
X339133Y341567D02*
X338599Y342101D01*
X337533D01*
X337000Y341567D01*
Y341034D01*
X337533Y340501D01*
X338599D01*
X339133Y339968D01*
Y339435D01*
X338599Y338902D01*
X337533D01*
X337000Y339435D01*
X340199Y342101D02*
Y338902D01*
X341798D01*
X342332Y339435D01*
Y341567D01*
X341798Y342101D01*
X340199D01*
X343398Y338902D02*
Y341034D01*
X344464Y342101D01*
X345531Y341034D01*
Y338902D01*
Y340501D01*
X343398D01*
X346597Y338902D02*
X347663D01*
X347130D01*
Y342101D01*
X346597Y341567D01*
X292000Y318101D02*
Y315435D01*
X292533Y314902D01*
X293600D01*
X294133Y315435D01*
Y318101D01*
X295199Y314902D02*
X296265D01*
X295732D01*
Y318101D01*
X295199Y317567D01*
X260801Y289902D02*
X263467D01*
X264000Y290435D01*
Y291501D01*
X263467Y292034D01*
X260801D01*
X264000Y295233D02*
Y293101D01*
X261867Y295233D01*
X261334D01*
X260801Y294700D01*
Y293634D01*
X261334Y293101D01*
X217301Y284902D02*
X219967D01*
X220500Y285435D01*
Y286501D01*
X219967Y287034D01*
X217301D01*
X217834Y288101D02*
X217301Y288634D01*
Y289700D01*
X217834Y290233D01*
X218367D01*
X218900Y289700D01*
Y289167D01*
Y289700D01*
X219434Y290233D01*
X219967D01*
X220500Y289700D01*
Y288634D01*
X219967Y288101D01*
X218801Y311902D02*
X221467D01*
X222000Y312435D01*
Y313501D01*
X221467Y314034D01*
X218801D01*
X222000Y316700D02*
X218801D01*
X220401Y315101D01*
Y317233D01*
X242301Y291402D02*
X244967D01*
X245500Y291935D01*
Y293001D01*
X244967Y293534D01*
X242301D01*
Y296733D02*
Y294601D01*
X243900D01*
X243367Y295667D01*
Y296200D01*
X243900Y296733D01*
X244967D01*
X245500Y296200D01*
Y295134D01*
X244967Y294601D01*
X250500Y330100D02*
Y327435D01*
X251033Y326902D01*
X252099D01*
X252633Y327435D01*
Y330100D01*
X253699D02*
X255832D01*
Y329567D01*
X253699Y327435D01*
Y326902D01*
X326500Y275100D02*
Y274567D01*
X327566Y273501D01*
X328633Y274567D01*
Y275100D01*
X327566Y273501D02*
Y271902D01*
X329699D02*
X330765D01*
X330232D01*
Y275100D01*
X329699Y274567D01*
M02*
