%FSLAX25Y25*%
%MOIN*%
G70*
G01*
G75*
G04 Layer_Color=32768*
%ADD10O,0.02362X0.09055*%
%ADD11R,0.02756X0.03543*%
%ADD12O,0.01969X0.06299*%
%ADD13R,0.03150X0.03543*%
%ADD14R,0.06693X0.02953*%
%ADD15O,0.07087X0.02362*%
%ADD16R,0.03543X0.02756*%
%ADD17R,0.03543X0.03150*%
%ADD18O,0.06299X0.01969*%
%ADD19C,0.02000*%
%ADD20C,0.01000*%
%ADD21C,0.07874*%
%ADD22O,0.03937X0.05906*%
%ADD23C,0.04724*%
%ADD24O,0.05906X0.03937*%
%ADD25C,0.05000*%
%ADD26C,0.00984*%
%ADD27C,0.02362*%
%ADD28C,0.00787*%
%ADD29C,0.00600*%
%ADD30O,0.02762X0.09455*%
%ADD31R,0.03156X0.03943*%
%ADD32O,0.02369X0.06699*%
%ADD33R,0.03550X0.03943*%
%ADD34R,0.07093X0.03353*%
%ADD35O,0.07487X0.02762*%
%ADD36R,0.03943X0.03156*%
%ADD37R,0.03943X0.03550*%
%ADD38O,0.06699X0.02369*%
%ADD39C,0.08274*%
%ADD40O,0.04337X0.06306*%
%ADD41C,0.05124*%
%ADD42O,0.06306X0.04337*%
%ADD43C,0.05400*%
%ADD44C,0.01181*%
%ADD45C,0.00394*%
%ADD46C,0.00197*%
D45*
X87504Y27772D02*
X160732D01*
X87504Y74622D02*
X160732D01*
X87504Y27772D02*
Y74622D01*
X160732Y27772D02*
Y74622D01*
X124118Y49228D02*
Y53165D01*
X122150Y51197D02*
X126087D01*
X82618Y76327D02*
Y80067D01*
X80748Y78197D02*
X84488D01*
X77894Y76032D02*
X87343D01*
X77894Y80362D02*
X87343D01*
Y76032D02*
Y80362D01*
X77894Y76032D02*
Y80362D01*
X167618Y62827D02*
Y66567D01*
X165748Y64697D02*
X169488D01*
X162894Y66862D02*
X172343D01*
X162894Y62532D02*
X172343D01*
X162894D02*
Y66862D01*
X172343Y62532D02*
Y66862D01*
X167618Y46327D02*
Y50067D01*
X165748Y48197D02*
X169488D01*
X162894Y50362D02*
X172343D01*
X162894Y46031D02*
X172343D01*
X162894D02*
Y50362D01*
X172343Y46031D02*
Y50362D01*
X179150Y65197D02*
X183087D01*
X181118Y63228D02*
Y67165D01*
X167618Y12827D02*
Y16567D01*
X165748Y14697D02*
X169488D01*
X162894Y12531D02*
X172343D01*
X162894Y16862D02*
X172343D01*
Y12531D02*
Y16862D01*
X162894Y12531D02*
Y16862D01*
X167618Y29827D02*
Y33567D01*
X165748Y31697D02*
X169488D01*
X162894Y29531D02*
X172343D01*
X162894Y33862D02*
X172343D01*
Y29531D02*
Y33862D01*
X162894Y29531D02*
Y33862D01*
X139618Y20827D02*
Y24567D01*
X137748Y22697D02*
X141488D01*
X134894Y24862D02*
X144343D01*
X134894Y20531D02*
X144343D01*
X134894D02*
Y24862D01*
X144343Y20531D02*
Y24862D01*
X128118Y20827D02*
Y24567D01*
X126248Y22697D02*
X129988D01*
X123394Y20531D02*
X132843D01*
X123394Y24862D02*
X132843D01*
Y20531D02*
Y24862D01*
X123394Y20531D02*
Y24862D01*
X94118Y13827D02*
Y17567D01*
X92248Y15697D02*
X95988D01*
X89394Y13532D02*
X98843D01*
X89394Y17862D02*
X98843D01*
Y13532D02*
Y17862D01*
X89394Y13532D02*
Y17862D01*
X58618Y21228D02*
Y25165D01*
X56650Y23197D02*
X60587D01*
X25618Y20228D02*
Y24165D01*
X23650Y22197D02*
X27587D01*
X10854Y33024D02*
X40382D01*
X10854Y11370D02*
X40382D01*
X10854D02*
Y33024D01*
X40382Y11370D02*
Y33024D01*
X20618Y35327D02*
Y39067D01*
X18748Y37197D02*
X22488D01*
X15894Y39362D02*
X25343D01*
X15894Y35032D02*
X25343D01*
X15894D02*
Y39362D01*
X25343Y35032D02*
Y39362D01*
X4248Y53697D02*
X7988D01*
X6118Y51827D02*
Y55567D01*
X8283Y48972D02*
Y58421D01*
X3953Y48972D02*
Y58421D01*
X8283D01*
X3953Y48972D02*
X8283D01*
X47618Y59327D02*
Y63067D01*
X45748Y61197D02*
X49488D01*
X42894Y63362D02*
X52342D01*
X42894Y59031D02*
X52342D01*
X42894D02*
Y63362D01*
X52342Y59031D02*
Y63362D01*
X41748Y46697D02*
X45488D01*
X43618Y44827D02*
Y48567D01*
X45783Y41973D02*
Y51421D01*
X41453Y41973D02*
Y51421D01*
X45783D01*
X41453Y41973D02*
X45783D01*
X56118Y39228D02*
Y43165D01*
X54150Y41197D02*
X58087D01*
X66618Y73228D02*
Y77165D01*
X64650Y75197D02*
X68587D01*
X52618Y51327D02*
Y55067D01*
X50748Y53197D02*
X54488D01*
X47894Y55362D02*
X57342D01*
X47894Y51032D02*
X57342D01*
X47894D02*
Y55362D01*
X57342Y51032D02*
Y55362D01*
X24618Y52228D02*
Y56165D01*
X22650Y54197D02*
X26587D01*
X9854Y43370D02*
X39382D01*
X9854Y65024D02*
X39382D01*
Y43370D02*
Y65024D01*
X9854Y43370D02*
Y65024D01*
X74618Y37728D02*
Y41665D01*
X72650Y39697D02*
X76587D01*
X69748Y53197D02*
X73488D01*
X71618Y51327D02*
Y55067D01*
X73783Y48472D02*
Y57921D01*
X69453Y48472D02*
Y57921D01*
X73783D01*
X69453Y48472D02*
X73783D01*
X179150Y12697D02*
X183087D01*
X181118Y10728D02*
Y14665D01*
X179150Y30197D02*
X183087D01*
X181118Y28228D02*
Y32165D01*
X179150Y47697D02*
X183087D01*
X181118Y45728D02*
Y49665D01*
X282386Y27772D02*
X355614D01*
X282386Y74622D02*
X355614D01*
X282386Y27772D02*
Y74622D01*
X355614Y27772D02*
Y74622D01*
X319000Y49228D02*
Y53165D01*
X317032Y51197D02*
X320969D01*
X277500Y76327D02*
Y80067D01*
X275630Y78197D02*
X279370D01*
X272776Y76032D02*
X282224D01*
X272776Y80362D02*
X282224D01*
Y76032D02*
Y80362D01*
X272776Y76032D02*
Y80362D01*
X362500Y62827D02*
Y66567D01*
X360630Y64697D02*
X364370D01*
X357776Y66862D02*
X367224D01*
X357776Y62532D02*
X367224D01*
X357776D02*
Y66862D01*
X367224Y62532D02*
Y66862D01*
X362500Y46327D02*
Y50067D01*
X360630Y48197D02*
X364370D01*
X357776Y50362D02*
X367224D01*
X357776Y46031D02*
X367224D01*
X357776D02*
Y50362D01*
X367224Y46031D02*
Y50362D01*
X374031Y65197D02*
X377969D01*
X376000Y63228D02*
Y67165D01*
X362500Y12827D02*
Y16567D01*
X360630Y14697D02*
X364370D01*
X357776Y12531D02*
X367224D01*
X357776Y16862D02*
X367224D01*
Y12531D02*
Y16862D01*
X357776Y12531D02*
Y16862D01*
X362500Y29827D02*
Y33567D01*
X360630Y31697D02*
X364370D01*
X357776Y29531D02*
X367224D01*
X357776Y33862D02*
X367224D01*
Y29531D02*
Y33862D01*
X357776Y29531D02*
Y33862D01*
X334500Y20827D02*
Y24567D01*
X332630Y22697D02*
X336370D01*
X329776Y24862D02*
X339224D01*
X329776Y20531D02*
X339224D01*
X329776D02*
Y24862D01*
X339224Y20531D02*
Y24862D01*
X323000Y20827D02*
Y24567D01*
X321130Y22697D02*
X324870D01*
X318276Y20531D02*
X327724D01*
X318276Y24862D02*
X327724D01*
Y20531D02*
Y24862D01*
X318276Y20531D02*
Y24862D01*
X289000Y13827D02*
Y17567D01*
X287130Y15697D02*
X290870D01*
X284276Y13532D02*
X293724D01*
X284276Y17862D02*
X293724D01*
Y13532D02*
Y17862D01*
X284276Y13532D02*
Y17862D01*
X253500Y21228D02*
Y25165D01*
X251532Y23197D02*
X255469D01*
X220500Y20228D02*
Y24165D01*
X218531Y22197D02*
X222468D01*
X205736Y33024D02*
X235264D01*
X205736Y11370D02*
X235264D01*
X205736D02*
Y33024D01*
X235264Y11370D02*
Y33024D01*
X215500Y35327D02*
Y39067D01*
X213630Y37197D02*
X217370D01*
X210776Y39362D02*
X220224D01*
X210776Y35032D02*
X220224D01*
X210776D02*
Y39362D01*
X220224Y35032D02*
Y39362D01*
X199130Y53697D02*
X202870D01*
X201000Y51827D02*
Y55567D01*
X203165Y48972D02*
Y58421D01*
X198835Y48972D02*
Y58421D01*
X203165D01*
X198835Y48972D02*
X203165D01*
X242500Y59327D02*
Y63067D01*
X240630Y61197D02*
X244370D01*
X237776Y63362D02*
X247224D01*
X237776Y59031D02*
X247224D01*
X237776D02*
Y63362D01*
X247224Y59031D02*
Y63362D01*
X236630Y46697D02*
X240370D01*
X238500Y44827D02*
Y48567D01*
X240665Y41973D02*
Y51421D01*
X236335Y41973D02*
Y51421D01*
X240665D01*
X236335Y41973D02*
X240665D01*
X251000Y39228D02*
Y43165D01*
X249031Y41197D02*
X252969D01*
X261500Y73228D02*
Y77165D01*
X259531Y75197D02*
X263469D01*
X247500Y51327D02*
Y55067D01*
X245630Y53197D02*
X249370D01*
X242776Y55362D02*
X252224D01*
X242776Y51032D02*
X252224D01*
X242776D02*
Y55362D01*
X252224Y51032D02*
Y55362D01*
X219500Y52228D02*
Y56165D01*
X217531Y54197D02*
X221468D01*
X204736Y43370D02*
X234264D01*
X204736Y65024D02*
X234264D01*
Y43370D02*
Y65024D01*
X204736Y43370D02*
Y65024D01*
X269500Y37728D02*
Y41665D01*
X267531Y39697D02*
X271468D01*
X264630Y53197D02*
X268370D01*
X266500Y51327D02*
Y55067D01*
X268665Y48472D02*
Y57921D01*
X264335Y48472D02*
Y57921D01*
X268665D01*
X264335Y48472D02*
X268665D01*
X374031Y12697D02*
X377969D01*
X376000Y10728D02*
Y14665D01*
X374031Y30197D02*
X377969D01*
X376000Y28228D02*
Y32165D01*
X374031Y47697D02*
X377969D01*
X376000Y45728D02*
Y49665D01*
X87504Y115173D02*
X160732D01*
X87504Y162024D02*
X160732D01*
X87504Y115173D02*
Y162024D01*
X160732Y115173D02*
Y162024D01*
X124118Y136630D02*
Y140567D01*
X122150Y138598D02*
X126087D01*
X82618Y163728D02*
Y167469D01*
X80748Y165598D02*
X84488D01*
X77894Y163433D02*
X87343D01*
X77894Y167764D02*
X87343D01*
Y163433D02*
Y167764D01*
X77894Y163433D02*
Y167764D01*
X167618Y150228D02*
Y153969D01*
X165748Y152098D02*
X169488D01*
X162894Y154264D02*
X172343D01*
X162894Y149933D02*
X172343D01*
X162894D02*
Y154264D01*
X172343Y149933D02*
Y154264D01*
X167618Y133728D02*
Y137469D01*
X165748Y135598D02*
X169488D01*
X162894Y137764D02*
X172343D01*
X162894Y133433D02*
X172343D01*
X162894D02*
Y137764D01*
X172343Y133433D02*
Y137764D01*
X179150Y152598D02*
X183087D01*
X181118Y150630D02*
Y154567D01*
X167618Y100228D02*
Y103969D01*
X165748Y102098D02*
X169488D01*
X162894Y99933D02*
X172343D01*
X162894Y104264D02*
X172343D01*
Y99933D02*
Y104264D01*
X162894Y99933D02*
Y104264D01*
X167618Y117228D02*
Y120968D01*
X165748Y119098D02*
X169488D01*
X162894Y116933D02*
X172343D01*
X162894Y121264D02*
X172343D01*
Y116933D02*
Y121264D01*
X162894Y116933D02*
Y121264D01*
X139618Y108228D02*
Y111969D01*
X137748Y110098D02*
X141488D01*
X134894Y112264D02*
X144343D01*
X134894Y107933D02*
X144343D01*
X134894D02*
Y112264D01*
X144343Y107933D02*
Y112264D01*
X128118Y108228D02*
Y111969D01*
X126248Y110098D02*
X129988D01*
X123394Y107933D02*
X132843D01*
X123394Y112264D02*
X132843D01*
Y107933D02*
Y112264D01*
X123394Y107933D02*
Y112264D01*
X94118Y101228D02*
Y104969D01*
X92248Y103098D02*
X95988D01*
X89394Y100933D02*
X98843D01*
X89394Y105264D02*
X98843D01*
Y100933D02*
Y105264D01*
X89394Y100933D02*
Y105264D01*
X58618Y108630D02*
Y112567D01*
X56650Y110598D02*
X60587D01*
X25618Y107630D02*
Y111567D01*
X23650Y109598D02*
X27587D01*
X10854Y120425D02*
X40382D01*
X10854Y98772D02*
X40382D01*
X10854D02*
Y120425D01*
X40382Y98772D02*
Y120425D01*
X20618Y122728D02*
Y126469D01*
X18748Y124598D02*
X22488D01*
X15894Y126764D02*
X25343D01*
X15894Y122433D02*
X25343D01*
X15894D02*
Y126764D01*
X25343Y122433D02*
Y126764D01*
X4248Y141098D02*
X7988D01*
X6118Y139228D02*
Y142968D01*
X8283Y136374D02*
Y145823D01*
X3953Y136374D02*
Y145823D01*
X8283D01*
X3953Y136374D02*
X8283D01*
X47618Y146728D02*
Y150469D01*
X45748Y148598D02*
X49488D01*
X42894Y150764D02*
X52342D01*
X42894Y146433D02*
X52342D01*
X42894D02*
Y150764D01*
X52342Y146433D02*
Y150764D01*
X41748Y134098D02*
X45488D01*
X43618Y132228D02*
Y135968D01*
X45783Y129374D02*
Y138823D01*
X41453Y129374D02*
Y138823D01*
X45783D01*
X41453Y129374D02*
X45783D01*
X56118Y126630D02*
Y130567D01*
X54150Y128598D02*
X58087D01*
X66618Y160630D02*
Y164567D01*
X64650Y162598D02*
X68587D01*
X52618Y138728D02*
Y142469D01*
X50748Y140598D02*
X54488D01*
X47894Y142764D02*
X57342D01*
X47894Y138433D02*
X57342D01*
X47894D02*
Y142764D01*
X57342Y138433D02*
Y142764D01*
X24618Y139630D02*
Y143567D01*
X22650Y141598D02*
X26587D01*
X9854Y130772D02*
X39382D01*
X9854Y152425D02*
X39382D01*
Y130772D02*
Y152425D01*
X9854Y130772D02*
Y152425D01*
X74618Y125130D02*
Y129067D01*
X72650Y127098D02*
X76587D01*
X69748Y140598D02*
X73488D01*
X71618Y138728D02*
Y142469D01*
X73783Y135874D02*
Y145323D01*
X69453Y135874D02*
Y145323D01*
X73783D01*
X69453Y135874D02*
X73783D01*
X179150Y100098D02*
X183087D01*
X181118Y98130D02*
Y102067D01*
X179150Y117598D02*
X183087D01*
X181118Y115630D02*
Y119567D01*
X179150Y135098D02*
X183087D01*
X181118Y133130D02*
Y137067D01*
X282386Y115173D02*
X355614D01*
X282386Y162024D02*
X355614D01*
X282386Y115173D02*
Y162024D01*
X355614Y115173D02*
Y162024D01*
X319000Y136630D02*
Y140567D01*
X317032Y138598D02*
X320969D01*
X277500Y163728D02*
Y167469D01*
X275630Y165598D02*
X279370D01*
X272776Y163433D02*
X282224D01*
X272776Y167764D02*
X282224D01*
Y163433D02*
Y167764D01*
X272776Y163433D02*
Y167764D01*
X362500Y150228D02*
Y153969D01*
X360630Y152098D02*
X364370D01*
X357776Y154264D02*
X367224D01*
X357776Y149933D02*
X367224D01*
X357776D02*
Y154264D01*
X367224Y149933D02*
Y154264D01*
X362500Y133728D02*
Y137469D01*
X360630Y135598D02*
X364370D01*
X357776Y137764D02*
X367224D01*
X357776Y133433D02*
X367224D01*
X357776D02*
Y137764D01*
X367224Y133433D02*
Y137764D01*
X374031Y152598D02*
X377969D01*
X376000Y150630D02*
Y154567D01*
X362500Y100228D02*
Y103969D01*
X360630Y102098D02*
X364370D01*
X357776Y99933D02*
X367224D01*
X357776Y104264D02*
X367224D01*
Y99933D02*
Y104264D01*
X357776Y99933D02*
Y104264D01*
X362500Y117228D02*
Y120968D01*
X360630Y119098D02*
X364370D01*
X357776Y116933D02*
X367224D01*
X357776Y121264D02*
X367224D01*
Y116933D02*
Y121264D01*
X357776Y116933D02*
Y121264D01*
X334500Y108228D02*
Y111969D01*
X332630Y110098D02*
X336370D01*
X329776Y112264D02*
X339224D01*
X329776Y107933D02*
X339224D01*
X329776D02*
Y112264D01*
X339224Y107933D02*
Y112264D01*
X323000Y108228D02*
Y111969D01*
X321130Y110098D02*
X324870D01*
X318276Y107933D02*
X327724D01*
X318276Y112264D02*
X327724D01*
Y107933D02*
Y112264D01*
X318276Y107933D02*
Y112264D01*
X289000Y101228D02*
Y104969D01*
X287130Y103098D02*
X290870D01*
X284276Y100933D02*
X293724D01*
X284276Y105264D02*
X293724D01*
Y100933D02*
Y105264D01*
X284276Y100933D02*
Y105264D01*
X253500Y108630D02*
Y112567D01*
X251532Y110598D02*
X255469D01*
X220500Y107630D02*
Y111567D01*
X218531Y109598D02*
X222468D01*
X205736Y120425D02*
X235264D01*
X205736Y98772D02*
X235264D01*
X205736D02*
Y120425D01*
X235264Y98772D02*
Y120425D01*
X215500Y122728D02*
Y126469D01*
X213630Y124598D02*
X217370D01*
X210776Y126764D02*
X220224D01*
X210776Y122433D02*
X220224D01*
X210776D02*
Y126764D01*
X220224Y122433D02*
Y126764D01*
X199130Y141098D02*
X202870D01*
X201000Y139228D02*
Y142968D01*
X203165Y136374D02*
Y145823D01*
X198835Y136374D02*
Y145823D01*
X203165D01*
X198835Y136374D02*
X203165D01*
X242500Y146728D02*
Y150469D01*
X240630Y148598D02*
X244370D01*
X237776Y150764D02*
X247224D01*
X237776Y146433D02*
X247224D01*
X237776D02*
Y150764D01*
X247224Y146433D02*
Y150764D01*
X236630Y134098D02*
X240370D01*
X238500Y132228D02*
Y135968D01*
X240665Y129374D02*
Y138823D01*
X236335Y129374D02*
Y138823D01*
X240665D01*
X236335Y129374D02*
X240665D01*
X251000Y126630D02*
Y130567D01*
X249031Y128598D02*
X252969D01*
X261500Y160630D02*
Y164567D01*
X259531Y162598D02*
X263469D01*
X247500Y138728D02*
Y142469D01*
X245630Y140598D02*
X249370D01*
X242776Y142764D02*
X252224D01*
X242776Y138433D02*
X252224D01*
X242776D02*
Y142764D01*
X252224Y138433D02*
Y142764D01*
X219500Y139630D02*
Y143567D01*
X217531Y141598D02*
X221468D01*
X204736Y130772D02*
X234264D01*
X204736Y152425D02*
X234264D01*
Y130772D02*
Y152425D01*
X204736Y130772D02*
Y152425D01*
X269500Y125130D02*
Y129067D01*
X267531Y127098D02*
X271468D01*
X264630Y140598D02*
X268370D01*
X266500Y138728D02*
Y142469D01*
X268665Y135874D02*
Y145323D01*
X264335Y135874D02*
Y145323D01*
X268665D01*
X264335Y135874D02*
X268665D01*
X374031Y100098D02*
X377969D01*
X376000Y98130D02*
Y102067D01*
X374031Y117598D02*
X377969D01*
X376000Y115630D02*
Y119567D01*
X374031Y135098D02*
X377969D01*
X376000Y133130D02*
Y137067D01*
X87504Y202575D02*
X160732D01*
X87504Y249425D02*
X160732D01*
X87504Y202575D02*
Y249425D01*
X160732Y202575D02*
Y249425D01*
X124118Y224031D02*
Y227969D01*
X122150Y226000D02*
X126087D01*
X82618Y251130D02*
Y254870D01*
X80748Y253000D02*
X84488D01*
X77894Y250835D02*
X87343D01*
X77894Y255165D02*
X87343D01*
Y250835D02*
Y255165D01*
X77894Y250835D02*
Y255165D01*
X167618Y237630D02*
Y241370D01*
X165748Y239500D02*
X169488D01*
X162894Y241665D02*
X172343D01*
X162894Y237335D02*
X172343D01*
X162894D02*
Y241665D01*
X172343Y237335D02*
Y241665D01*
X167618Y221130D02*
Y224870D01*
X165748Y223000D02*
X169488D01*
X162894Y225165D02*
X172343D01*
X162894Y220835D02*
X172343D01*
X162894D02*
Y225165D01*
X172343Y220835D02*
Y225165D01*
X179150Y240000D02*
X183087D01*
X181118Y238032D02*
Y241968D01*
X167618Y187630D02*
Y191370D01*
X165748Y189500D02*
X169488D01*
X162894Y187335D02*
X172343D01*
X162894Y191665D02*
X172343D01*
Y187335D02*
Y191665D01*
X162894Y187335D02*
Y191665D01*
X167618Y204630D02*
Y208370D01*
X165748Y206500D02*
X169488D01*
X162894Y204335D02*
X172343D01*
X162894Y208665D02*
X172343D01*
Y204335D02*
Y208665D01*
X162894Y204335D02*
Y208665D01*
X139618Y195630D02*
Y199370D01*
X137748Y197500D02*
X141488D01*
X134894Y199665D02*
X144343D01*
X134894Y195335D02*
X144343D01*
X134894D02*
Y199665D01*
X144343Y195335D02*
Y199665D01*
X128118Y195630D02*
Y199370D01*
X126248Y197500D02*
X129988D01*
X123394Y195335D02*
X132843D01*
X123394Y199665D02*
X132843D01*
Y195335D02*
Y199665D01*
X123394Y195335D02*
Y199665D01*
X94118Y188630D02*
Y192370D01*
X92248Y190500D02*
X95988D01*
X89394Y188335D02*
X98843D01*
X89394Y192665D02*
X98843D01*
Y188335D02*
Y192665D01*
X89394Y188335D02*
Y192665D01*
X58618Y196031D02*
Y199969D01*
X56650Y198000D02*
X60587D01*
X25618Y195031D02*
Y198969D01*
X23650Y197000D02*
X27587D01*
X10854Y207827D02*
X40382D01*
X10854Y186173D02*
X40382D01*
X10854D02*
Y207827D01*
X40382Y186173D02*
Y207827D01*
X20618Y210130D02*
Y213870D01*
X18748Y212000D02*
X22488D01*
X15894Y214165D02*
X25343D01*
X15894Y209835D02*
X25343D01*
X15894D02*
Y214165D01*
X25343Y209835D02*
Y214165D01*
X4248Y228500D02*
X7988D01*
X6118Y226630D02*
Y230370D01*
X8283Y223776D02*
Y233224D01*
X3953Y223776D02*
Y233224D01*
X8283D01*
X3953Y223776D02*
X8283D01*
X47618Y234130D02*
Y237870D01*
X45748Y236000D02*
X49488D01*
X42894Y238165D02*
X52342D01*
X42894Y233835D02*
X52342D01*
X42894D02*
Y238165D01*
X52342Y233835D02*
Y238165D01*
X41748Y221500D02*
X45488D01*
X43618Y219630D02*
Y223370D01*
X45783Y216776D02*
Y226224D01*
X41453Y216776D02*
Y226224D01*
X45783D01*
X41453Y216776D02*
X45783D01*
X56118Y214032D02*
Y217969D01*
X54150Y216000D02*
X58087D01*
X66618Y248031D02*
Y251969D01*
X64650Y250000D02*
X68587D01*
X52618Y226130D02*
Y229870D01*
X50748Y228000D02*
X54488D01*
X47894Y230165D02*
X57342D01*
X47894Y225835D02*
X57342D01*
X47894D02*
Y230165D01*
X57342Y225835D02*
Y230165D01*
X24618Y227031D02*
Y230968D01*
X22650Y229000D02*
X26587D01*
X9854Y218173D02*
X39382D01*
X9854Y239827D02*
X39382D01*
Y218173D02*
Y239827D01*
X9854Y218173D02*
Y239827D01*
X74618Y212531D02*
Y216469D01*
X72650Y214500D02*
X76587D01*
X69748Y228000D02*
X73488D01*
X71618Y226130D02*
Y229870D01*
X73783Y223276D02*
Y232724D01*
X69453Y223276D02*
Y232724D01*
X73783D01*
X69453Y223276D02*
X73783D01*
X179150Y187500D02*
X183087D01*
X181118Y185531D02*
Y189469D01*
X179150Y205000D02*
X183087D01*
X181118Y203031D02*
Y206968D01*
X179150Y222500D02*
X183087D01*
X181118Y220532D02*
Y224468D01*
X282386Y202575D02*
X355614D01*
X282386Y249425D02*
X355614D01*
X282386Y202575D02*
Y249425D01*
X355614Y202575D02*
Y249425D01*
X319000Y224031D02*
Y227969D01*
X317032Y226000D02*
X320969D01*
X277500Y251130D02*
Y254870D01*
X275630Y253000D02*
X279370D01*
X272776Y250835D02*
X282224D01*
X272776Y255165D02*
X282224D01*
Y250835D02*
Y255165D01*
X272776Y250835D02*
Y255165D01*
X362500Y237630D02*
Y241370D01*
X360630Y239500D02*
X364370D01*
X357776Y241665D02*
X367224D01*
X357776Y237335D02*
X367224D01*
X357776D02*
Y241665D01*
X367224Y237335D02*
Y241665D01*
X362500Y221130D02*
Y224870D01*
X360630Y223000D02*
X364370D01*
X357776Y225165D02*
X367224D01*
X357776Y220835D02*
X367224D01*
X357776D02*
Y225165D01*
X367224Y220835D02*
Y225165D01*
X374031Y240000D02*
X377969D01*
X376000Y238032D02*
Y241968D01*
X362500Y187630D02*
Y191370D01*
X360630Y189500D02*
X364370D01*
X357776Y187335D02*
X367224D01*
X357776Y191665D02*
X367224D01*
Y187335D02*
Y191665D01*
X357776Y187335D02*
Y191665D01*
X362500Y204630D02*
Y208370D01*
X360630Y206500D02*
X364370D01*
X357776Y204335D02*
X367224D01*
X357776Y208665D02*
X367224D01*
Y204335D02*
Y208665D01*
X357776Y204335D02*
Y208665D01*
X334500Y195630D02*
Y199370D01*
X332630Y197500D02*
X336370D01*
X329776Y199665D02*
X339224D01*
X329776Y195335D02*
X339224D01*
X329776D02*
Y199665D01*
X339224Y195335D02*
Y199665D01*
X323000Y195630D02*
Y199370D01*
X321130Y197500D02*
X324870D01*
X318276Y195335D02*
X327724D01*
X318276Y199665D02*
X327724D01*
Y195335D02*
Y199665D01*
X318276Y195335D02*
Y199665D01*
X289000Y188630D02*
Y192370D01*
X287130Y190500D02*
X290870D01*
X284276Y188335D02*
X293724D01*
X284276Y192665D02*
X293724D01*
Y188335D02*
Y192665D01*
X284276Y188335D02*
Y192665D01*
X253500Y196031D02*
Y199969D01*
X251532Y198000D02*
X255469D01*
X220500Y195031D02*
Y198969D01*
X218531Y197000D02*
X222468D01*
X205736Y207827D02*
X235264D01*
X205736Y186173D02*
X235264D01*
X205736D02*
Y207827D01*
X235264Y186173D02*
Y207827D01*
X215500Y210130D02*
Y213870D01*
X213630Y212000D02*
X217370D01*
X210776Y214165D02*
X220224D01*
X210776Y209835D02*
X220224D01*
X210776D02*
Y214165D01*
X220224Y209835D02*
Y214165D01*
X199130Y228500D02*
X202870D01*
X201000Y226630D02*
Y230370D01*
X203165Y223776D02*
Y233224D01*
X198835Y223776D02*
Y233224D01*
X203165D01*
X198835Y223776D02*
X203165D01*
X242500Y234130D02*
Y237870D01*
X240630Y236000D02*
X244370D01*
X237776Y238165D02*
X247224D01*
X237776Y233835D02*
X247224D01*
X237776D02*
Y238165D01*
X247224Y233835D02*
Y238165D01*
X236630Y221500D02*
X240370D01*
X238500Y219630D02*
Y223370D01*
X240665Y216776D02*
Y226224D01*
X236335Y216776D02*
Y226224D01*
X240665D01*
X236335Y216776D02*
X240665D01*
X251000Y214032D02*
Y217969D01*
X249031Y216000D02*
X252969D01*
X261500Y248031D02*
Y251969D01*
X259531Y250000D02*
X263469D01*
X247500Y226130D02*
Y229870D01*
X245630Y228000D02*
X249370D01*
X242776Y230165D02*
X252224D01*
X242776Y225835D02*
X252224D01*
X242776D02*
Y230165D01*
X252224Y225835D02*
Y230165D01*
X219500Y227031D02*
Y230968D01*
X217531Y229000D02*
X221468D01*
X204736Y218173D02*
X234264D01*
X204736Y239827D02*
X234264D01*
Y218173D02*
Y239827D01*
X204736Y218173D02*
Y239827D01*
X269500Y212531D02*
Y216469D01*
X267531Y214500D02*
X271468D01*
X264630Y228000D02*
X268370D01*
X266500Y226130D02*
Y229870D01*
X268665Y223276D02*
Y232724D01*
X264335Y223276D02*
Y232724D01*
X268665D01*
X264335Y223276D02*
X268665D01*
X374031Y187500D02*
X377969D01*
X376000Y185531D02*
Y189469D01*
X374031Y205000D02*
X377969D01*
X376000Y203031D02*
Y206968D01*
X374031Y222500D02*
X377969D01*
X376000Y220532D02*
Y224468D01*
X87504Y289976D02*
X160732D01*
X87504Y336827D02*
X160732D01*
X87504Y289976D02*
Y336827D01*
X160732Y289976D02*
Y336827D01*
X124118Y311433D02*
Y315370D01*
X122150Y313402D02*
X126087D01*
X82618Y338531D02*
Y342272D01*
X80748Y340402D02*
X84488D01*
X77894Y338236D02*
X87343D01*
X77894Y342567D02*
X87343D01*
Y338236D02*
Y342567D01*
X77894Y338236D02*
Y342567D01*
X167618Y325031D02*
Y328772D01*
X165748Y326902D02*
X169488D01*
X162894Y329067D02*
X172343D01*
X162894Y324736D02*
X172343D01*
X162894D02*
Y329067D01*
X172343Y324736D02*
Y329067D01*
X167618Y308531D02*
Y312272D01*
X165748Y310402D02*
X169488D01*
X162894Y312567D02*
X172343D01*
X162894Y308236D02*
X172343D01*
X162894D02*
Y312567D01*
X172343Y308236D02*
Y312567D01*
X179150Y327402D02*
X183087D01*
X181118Y325433D02*
Y329370D01*
X167618Y275031D02*
Y278772D01*
X165748Y276902D02*
X169488D01*
X162894Y274736D02*
X172343D01*
X162894Y279067D02*
X172343D01*
Y274736D02*
Y279067D01*
X162894Y274736D02*
Y279067D01*
X167618Y292032D02*
Y295772D01*
X165748Y293902D02*
X169488D01*
X162894Y291736D02*
X172343D01*
X162894Y296067D02*
X172343D01*
Y291736D02*
Y296067D01*
X162894Y291736D02*
Y296067D01*
X139618Y283032D02*
Y286772D01*
X137748Y284902D02*
X141488D01*
X134894Y287067D02*
X144343D01*
X134894Y282736D02*
X144343D01*
X134894D02*
Y287067D01*
X144343Y282736D02*
Y287067D01*
X128118Y283032D02*
Y286772D01*
X126248Y284902D02*
X129988D01*
X123394Y282736D02*
X132843D01*
X123394Y287067D02*
X132843D01*
Y282736D02*
Y287067D01*
X123394Y282736D02*
Y287067D01*
X94118Y276031D02*
Y279772D01*
X92248Y277902D02*
X95988D01*
X89394Y275736D02*
X98843D01*
X89394Y280067D02*
X98843D01*
Y275736D02*
Y280067D01*
X89394Y275736D02*
Y280067D01*
X58618Y283433D02*
Y287370D01*
X56650Y285402D02*
X60587D01*
X25618Y282433D02*
Y286370D01*
X23650Y284402D02*
X27587D01*
X10854Y295228D02*
X40382D01*
X10854Y273575D02*
X40382D01*
X10854D02*
Y295228D01*
X40382Y273575D02*
Y295228D01*
X20618Y297532D02*
Y301272D01*
X18748Y299402D02*
X22488D01*
X15894Y301567D02*
X25343D01*
X15894Y297236D02*
X25343D01*
X15894D02*
Y301567D01*
X25343Y297236D02*
Y301567D01*
X4248Y315902D02*
X7988D01*
X6118Y314032D02*
Y317772D01*
X8283Y311177D02*
Y320626D01*
X3953Y311177D02*
Y320626D01*
X8283D01*
X3953Y311177D02*
X8283D01*
X47618Y321532D02*
Y325272D01*
X45748Y323402D02*
X49488D01*
X42894Y325567D02*
X52342D01*
X42894Y321236D02*
X52342D01*
X42894D02*
Y325567D01*
X52342Y321236D02*
Y325567D01*
X41748Y308902D02*
X45488D01*
X43618Y307031D02*
Y310772D01*
X45783Y304177D02*
Y313626D01*
X41453Y304177D02*
Y313626D01*
X45783D01*
X41453Y304177D02*
X45783D01*
X56118Y301433D02*
Y305370D01*
X54150Y303402D02*
X58087D01*
X66618Y335433D02*
Y339370D01*
X64650Y337402D02*
X68587D01*
X52618Y313531D02*
Y317272D01*
X50748Y315402D02*
X54488D01*
X47894Y317567D02*
X57342D01*
X47894Y313236D02*
X57342D01*
X47894D02*
Y317567D01*
X57342Y313236D02*
Y317567D01*
X24618Y314433D02*
Y318370D01*
X22650Y316402D02*
X26587D01*
X9854Y305575D02*
X39382D01*
X9854Y327228D02*
X39382D01*
Y305575D02*
Y327228D01*
X9854Y305575D02*
Y327228D01*
X74618Y299933D02*
Y303870D01*
X72650Y301902D02*
X76587D01*
X69748Y315402D02*
X73488D01*
X71618Y313531D02*
Y317272D01*
X73783Y310677D02*
Y320126D01*
X69453Y310677D02*
Y320126D01*
X73783D01*
X69453Y310677D02*
X73783D01*
X179150Y274902D02*
X183087D01*
X181118Y272933D02*
Y276870D01*
X179150Y292402D02*
X183087D01*
X181118Y290433D02*
Y294370D01*
X179150Y309902D02*
X183087D01*
X181118Y307933D02*
Y311870D01*
X282386Y289976D02*
X355614D01*
X282386Y336827D02*
X355614D01*
X282386Y289976D02*
Y336827D01*
X355614Y289976D02*
Y336827D01*
X319000Y311433D02*
Y315370D01*
X317032Y313402D02*
X320969D01*
X277500Y338531D02*
Y342272D01*
X275630Y340402D02*
X279370D01*
X272776Y338236D02*
X282224D01*
X272776Y342567D02*
X282224D01*
Y338236D02*
Y342567D01*
X272776Y338236D02*
Y342567D01*
X362500Y325031D02*
Y328772D01*
X360630Y326902D02*
X364370D01*
X357776Y329067D02*
X367224D01*
X357776Y324736D02*
X367224D01*
X357776D02*
Y329067D01*
X367224Y324736D02*
Y329067D01*
X362500Y308531D02*
Y312272D01*
X360630Y310402D02*
X364370D01*
X357776Y312567D02*
X367224D01*
X357776Y308236D02*
X367224D01*
X357776D02*
Y312567D01*
X367224Y308236D02*
Y312567D01*
X374031Y327402D02*
X377969D01*
X376000Y325433D02*
Y329370D01*
X362500Y275031D02*
Y278772D01*
X360630Y276902D02*
X364370D01*
X357776Y274736D02*
X367224D01*
X357776Y279067D02*
X367224D01*
Y274736D02*
Y279067D01*
X357776Y274736D02*
Y279067D01*
X362500Y292032D02*
Y295772D01*
X360630Y293902D02*
X364370D01*
X357776Y291736D02*
X367224D01*
X357776Y296067D02*
X367224D01*
Y291736D02*
Y296067D01*
X357776Y291736D02*
Y296067D01*
X334500Y283032D02*
Y286772D01*
X332630Y284902D02*
X336370D01*
X329776Y287067D02*
X339224D01*
X329776Y282736D02*
X339224D01*
X329776D02*
Y287067D01*
X339224Y282736D02*
Y287067D01*
X323000Y283032D02*
Y286772D01*
X321130Y284902D02*
X324870D01*
X318276Y282736D02*
X327724D01*
X318276Y287067D02*
X327724D01*
Y282736D02*
Y287067D01*
X318276Y282736D02*
Y287067D01*
X289000Y276031D02*
Y279772D01*
X287130Y277902D02*
X290870D01*
X284276Y275736D02*
X293724D01*
X284276Y280067D02*
X293724D01*
Y275736D02*
Y280067D01*
X284276Y275736D02*
Y280067D01*
X253500Y283433D02*
Y287370D01*
X251532Y285402D02*
X255469D01*
X220500Y282433D02*
Y286370D01*
X218531Y284402D02*
X222468D01*
X205736Y295228D02*
X235264D01*
X205736Y273575D02*
X235264D01*
X205736D02*
Y295228D01*
X235264Y273575D02*
Y295228D01*
X215500Y297532D02*
Y301272D01*
X213630Y299402D02*
X217370D01*
X210776Y301567D02*
X220224D01*
X210776Y297236D02*
X220224D01*
X210776D02*
Y301567D01*
X220224Y297236D02*
Y301567D01*
X199130Y315902D02*
X202870D01*
X201000Y314032D02*
Y317772D01*
X203165Y311177D02*
Y320626D01*
X198835Y311177D02*
Y320626D01*
X203165D01*
X198835Y311177D02*
X203165D01*
X242500Y321532D02*
Y325272D01*
X240630Y323402D02*
X244370D01*
X237776Y325567D02*
X247224D01*
X237776Y321236D02*
X247224D01*
X237776D02*
Y325567D01*
X247224Y321236D02*
Y325567D01*
X236630Y308902D02*
X240370D01*
X238500Y307031D02*
Y310772D01*
X240665Y304177D02*
Y313626D01*
X236335Y304177D02*
Y313626D01*
X240665D01*
X236335Y304177D02*
X240665D01*
X251000Y301433D02*
Y305370D01*
X249031Y303402D02*
X252969D01*
X261500Y335433D02*
Y339370D01*
X259531Y337402D02*
X263469D01*
X247500Y313531D02*
Y317272D01*
X245630Y315402D02*
X249370D01*
X242776Y317567D02*
X252224D01*
X242776Y313236D02*
X252224D01*
X242776D02*
Y317567D01*
X252224Y313236D02*
Y317567D01*
X219500Y314433D02*
Y318370D01*
X217531Y316402D02*
X221468D01*
X204736Y305575D02*
X234264D01*
X204736Y327228D02*
X234264D01*
Y305575D02*
Y327228D01*
X204736Y305575D02*
Y327228D01*
X269500Y299933D02*
Y303870D01*
X267531Y301902D02*
X271468D01*
X264630Y315402D02*
X268370D01*
X266500Y313531D02*
Y317272D01*
X268665Y310677D02*
Y320126D01*
X264335Y310677D02*
Y320126D01*
X268665D01*
X264335Y310677D02*
X268665D01*
X374031Y274902D02*
X377969D01*
X376000Y272933D02*
Y276870D01*
X374031Y292402D02*
X377969D01*
X376000Y290433D02*
Y294370D01*
X374031Y309902D02*
X377969D01*
X376000Y307933D02*
Y311870D01*
D46*
X188205Y56732D02*
Y73661D01*
X174031Y56732D02*
Y73661D01*
X188205D01*
X174031Y56732D02*
X188205D01*
X54287Y32449D02*
X62949D01*
X54287Y13945D02*
X62949D01*
Y32449D01*
X54287Y13945D02*
Y32449D01*
X47653Y34110D02*
X64583D01*
X47653Y48283D02*
X64583D01*
Y34110D02*
Y48283D01*
X47653Y34110D02*
Y48283D01*
X58153Y82284D02*
X75083D01*
X58153Y68110D02*
X75083D01*
X58153D02*
Y82284D01*
X75083Y68110D02*
Y82284D01*
X66154Y32610D02*
X83083D01*
X66154Y46784D02*
X83083D01*
Y32610D02*
Y46784D01*
X66154Y32610D02*
Y46784D01*
X188205Y4232D02*
Y21161D01*
X174031Y4232D02*
Y21161D01*
X188205D01*
X174031Y4232D02*
X188205D01*
Y21732D02*
Y38661D01*
X174031Y21732D02*
Y38661D01*
X188205D01*
X174031Y21732D02*
X188205D01*
Y39232D02*
Y56161D01*
X174031Y39232D02*
Y56161D01*
X188205D01*
X174031Y39232D02*
X188205D01*
X383087Y56732D02*
Y73661D01*
X368913Y56732D02*
Y73661D01*
X383087D01*
X368913Y56732D02*
X383087D01*
X249169Y32449D02*
X257831D01*
X249169Y13945D02*
X257831D01*
Y32449D01*
X249169Y13945D02*
Y32449D01*
X242535Y34110D02*
X259465D01*
X242535Y48283D02*
X259465D01*
Y34110D02*
Y48283D01*
X242535Y34110D02*
Y48283D01*
X253035Y82284D02*
X269965D01*
X253035Y68110D02*
X269965D01*
X253035D02*
Y82284D01*
X269965Y68110D02*
Y82284D01*
X261035Y32610D02*
X277965D01*
X261035Y46784D02*
X277965D01*
Y32610D02*
Y46784D01*
X261035Y32610D02*
Y46784D01*
X383087Y4232D02*
Y21161D01*
X368913Y4232D02*
Y21161D01*
X383087D01*
X368913Y4232D02*
X383087D01*
Y21732D02*
Y38661D01*
X368913Y21732D02*
Y38661D01*
X383087D01*
X368913Y21732D02*
X383087D01*
Y39232D02*
Y56161D01*
X368913Y39232D02*
Y56161D01*
X383087D01*
X368913Y39232D02*
X383087D01*
X188205Y144134D02*
Y161063D01*
X174031Y144134D02*
Y161063D01*
X188205D01*
X174031Y144134D02*
X188205D01*
X54287Y119850D02*
X62949D01*
X54287Y101347D02*
X62949D01*
Y119850D01*
X54287Y101347D02*
Y119850D01*
X47653Y121512D02*
X64583D01*
X47653Y135685D02*
X64583D01*
Y121512D02*
Y135685D01*
X47653Y121512D02*
Y135685D01*
X58153Y169685D02*
X75083D01*
X58153Y155512D02*
X75083D01*
X58153D02*
Y169685D01*
X75083Y155512D02*
Y169685D01*
X66154Y120012D02*
X83083D01*
X66154Y134185D02*
X83083D01*
Y120012D02*
Y134185D01*
X66154Y120012D02*
Y134185D01*
X188205Y91634D02*
Y108563D01*
X174031Y91634D02*
Y108563D01*
X188205D01*
X174031Y91634D02*
X188205D01*
Y109134D02*
Y126063D01*
X174031Y109134D02*
Y126063D01*
X188205D01*
X174031Y109134D02*
X188205D01*
Y126634D02*
Y143563D01*
X174031Y126634D02*
Y143563D01*
X188205D01*
X174031Y126634D02*
X188205D01*
X383087Y144134D02*
Y161063D01*
X368913Y144134D02*
Y161063D01*
X383087D01*
X368913Y144134D02*
X383087D01*
X249169Y119850D02*
X257831D01*
X249169Y101347D02*
X257831D01*
Y119850D01*
X249169Y101347D02*
Y119850D01*
X242535Y121512D02*
X259465D01*
X242535Y135685D02*
X259465D01*
Y121512D02*
Y135685D01*
X242535Y121512D02*
Y135685D01*
X253035Y169685D02*
X269965D01*
X253035Y155512D02*
X269965D01*
X253035D02*
Y169685D01*
X269965Y155512D02*
Y169685D01*
X261035Y120012D02*
X277965D01*
X261035Y134185D02*
X277965D01*
Y120012D02*
Y134185D01*
X261035Y120012D02*
Y134185D01*
X383087Y91634D02*
Y108563D01*
X368913Y91634D02*
Y108563D01*
X383087D01*
X368913Y91634D02*
X383087D01*
Y109134D02*
Y126063D01*
X368913Y109134D02*
Y126063D01*
X383087D01*
X368913Y109134D02*
X383087D01*
Y126634D02*
Y143563D01*
X368913Y126634D02*
Y143563D01*
X383087D01*
X368913Y126634D02*
X383087D01*
X188205Y231535D02*
Y248465D01*
X174031Y231535D02*
Y248465D01*
X188205D01*
X174031Y231535D02*
X188205D01*
X54287Y207252D02*
X62949D01*
X54287Y188748D02*
X62949D01*
Y207252D01*
X54287Y188748D02*
Y207252D01*
X47653Y208913D02*
X64583D01*
X47653Y223087D02*
X64583D01*
Y208913D02*
Y223087D01*
X47653Y208913D02*
Y223087D01*
X58153Y257087D02*
X75083D01*
X58153Y242913D02*
X75083D01*
X58153D02*
Y257087D01*
X75083Y242913D02*
Y257087D01*
X66154Y207413D02*
X83083D01*
X66154Y221587D02*
X83083D01*
Y207413D02*
Y221587D01*
X66154Y207413D02*
Y221587D01*
X188205Y179035D02*
Y195965D01*
X174031Y179035D02*
Y195965D01*
X188205D01*
X174031Y179035D02*
X188205D01*
Y196535D02*
Y213465D01*
X174031Y196535D02*
Y213465D01*
X188205D01*
X174031Y196535D02*
X188205D01*
Y214035D02*
Y230965D01*
X174031Y214035D02*
Y230965D01*
X188205D01*
X174031Y214035D02*
X188205D01*
X383087Y231535D02*
Y248465D01*
X368913Y231535D02*
Y248465D01*
X383087D01*
X368913Y231535D02*
X383087D01*
X249169Y207252D02*
X257831D01*
X249169Y188748D02*
X257831D01*
Y207252D01*
X249169Y188748D02*
Y207252D01*
X242535Y208913D02*
X259465D01*
X242535Y223087D02*
X259465D01*
Y208913D02*
Y223087D01*
X242535Y208913D02*
Y223087D01*
X253035Y257087D02*
X269965D01*
X253035Y242913D02*
X269965D01*
X253035D02*
Y257087D01*
X269965Y242913D02*
Y257087D01*
X261035Y207413D02*
X277965D01*
X261035Y221587D02*
X277965D01*
Y207413D02*
Y221587D01*
X261035Y207413D02*
Y221587D01*
X383087Y179035D02*
Y195965D01*
X368913Y179035D02*
Y195965D01*
X383087D01*
X368913Y179035D02*
X383087D01*
Y196535D02*
Y213465D01*
X368913Y196535D02*
Y213465D01*
X383087D01*
X368913Y196535D02*
X383087D01*
Y214035D02*
Y230965D01*
X368913Y214035D02*
Y230965D01*
X383087D01*
X368913Y214035D02*
X383087D01*
X188205Y318937D02*
Y335866D01*
X174031Y318937D02*
Y335866D01*
X188205D01*
X174031Y318937D02*
X188205D01*
X54287Y294654D02*
X62949D01*
X54287Y276150D02*
X62949D01*
Y294654D01*
X54287Y276150D02*
Y294654D01*
X47653Y296315D02*
X64583D01*
X47653Y310488D02*
X64583D01*
Y296315D02*
Y310488D01*
X47653Y296315D02*
Y310488D01*
X58153Y344488D02*
X75083D01*
X58153Y330315D02*
X75083D01*
X58153D02*
Y344488D01*
X75083Y330315D02*
Y344488D01*
X66154Y294815D02*
X83083D01*
X66154Y308988D02*
X83083D01*
Y294815D02*
Y308988D01*
X66154Y294815D02*
Y308988D01*
X188205Y266437D02*
Y283366D01*
X174031Y266437D02*
Y283366D01*
X188205D01*
X174031Y266437D02*
X188205D01*
Y283937D02*
Y300866D01*
X174031Y283937D02*
Y300866D01*
X188205D01*
X174031Y283937D02*
X188205D01*
Y301437D02*
Y318366D01*
X174031Y301437D02*
Y318366D01*
X188205D01*
X174031Y301437D02*
X188205D01*
X383087Y318937D02*
Y335866D01*
X368913Y318937D02*
Y335866D01*
X383087D01*
X368913Y318937D02*
X383087D01*
X249169Y294654D02*
X257831D01*
X249169Y276150D02*
X257831D01*
Y294654D01*
X249169Y276150D02*
Y294654D01*
X242535Y296315D02*
X259465D01*
X242535Y310488D02*
X259465D01*
Y296315D02*
Y310488D01*
X242535Y296315D02*
Y310488D01*
X253035Y344488D02*
X269965D01*
X253035Y330315D02*
X269965D01*
X253035D02*
Y344488D01*
X269965Y330315D02*
Y344488D01*
X261035Y294815D02*
X277965D01*
X261035Y308988D02*
X277965D01*
Y294815D02*
Y308988D01*
X261035Y294815D02*
Y308988D01*
X383087Y266437D02*
Y283366D01*
X368913Y266437D02*
Y283366D01*
X383087D01*
X368913Y266437D02*
X383087D01*
Y283937D02*
Y300866D01*
X368913Y283937D02*
Y300866D01*
X383087D01*
X368913Y283937D02*
X383087D01*
Y301437D02*
Y318366D01*
X368913Y301437D02*
Y318366D01*
X383087D01*
X368913Y301437D02*
X383087D01*
M02*
