%FSLAX25Y25*%
%MOIN*%
G70*
G01*
G75*
%ADD10O,0.02362X0.09055*%
%ADD11R,0.02756X0.03543*%
%ADD12O,0.01969X0.06299*%
%ADD13R,0.03150X0.03543*%
%ADD14R,0.06693X0.02953*%
%ADD15O,0.07087X0.02362*%
%ADD16R,0.03543X0.02756*%
%ADD17R,0.03543X0.03150*%
%ADD18O,0.06299X0.01969*%
%ADD19C,0.02000*%
%ADD20C,0.01000*%
%ADD21C,0.07874*%
%ADD22O,0.03937X0.05906*%
%ADD23C,0.04724*%
%ADD24O,0.05906X0.03937*%
%ADD25C,0.05000*%
%ADD26C,0.00984*%
%ADD27C,0.02362*%
%ADD28C,0.00787*%
%ADD29C,0.00600*%
%ADD30O,0.02762X0.09455*%
%ADD31R,0.03156X0.03943*%
%ADD32O,0.02369X0.06699*%
%ADD33R,0.03550X0.03943*%
%ADD34R,0.07093X0.03353*%
%ADD35O,0.07487X0.02762*%
%ADD36R,0.03943X0.03156*%
%ADD37R,0.03943X0.03550*%
%ADD38O,0.06699X0.02369*%
%ADD39C,0.08274*%
%ADD40O,0.04337X0.06306*%
%ADD41C,0.05124*%
%ADD42O,0.06306X0.04337*%
%ADD43C,0.05400*%
%ADD44C,0.01181*%
%ADD45C,0.00394*%
%ADD46C,0.00197*%
%ADD47C,0.00500*%
%ADD48C,0.00667*%
D47*
X4846Y78697D02*
X8390D01*
X6618Y76925D02*
Y80468D01*
X24347Y78697D02*
X27890D01*
X26118Y76925D02*
Y80468D01*
X155437Y78197D02*
X157799D01*
X156618Y77016D02*
Y79378D01*
X129937Y78197D02*
X132299D01*
X131118Y77016D02*
Y79378D01*
X123937Y78197D02*
X126299D01*
X125118Y77016D02*
Y79378D01*
X117937Y78197D02*
X120299D01*
X119118Y77016D02*
Y79378D01*
X111937Y78197D02*
X114299D01*
X113118Y77016D02*
Y79378D01*
X105937Y78197D02*
X108299D01*
X107118Y77016D02*
Y79378D01*
X99937Y78197D02*
X102299D01*
X101118Y77016D02*
Y79378D01*
X93937Y78197D02*
X96299D01*
X95118Y77016D02*
Y79378D01*
X169346Y78197D02*
X172890D01*
X171118Y76425D02*
Y79969D01*
X182846Y78197D02*
X186390D01*
X184618Y76425D02*
Y79969D01*
X165847Y56197D02*
X169390D01*
X167618Y54425D02*
Y57968D01*
X165847Y40197D02*
X169390D01*
X167618Y38425D02*
Y41969D01*
X165847Y23197D02*
X169390D01*
X167618Y21425D02*
Y24969D01*
X79347Y9197D02*
X82890D01*
X81118Y7425D02*
Y10968D01*
X157846Y6707D02*
X161390D01*
X159618Y4935D02*
Y8479D01*
X166847Y6697D02*
X170390D01*
X168618Y4925D02*
Y8468D01*
X155437Y23697D02*
X157799D01*
X156618Y22516D02*
Y24878D01*
X122724Y11197D02*
X125087D01*
X123906Y10016D02*
Y12378D01*
X141937Y11197D02*
X144299D01*
X143118Y10016D02*
Y12378D01*
X102437Y11697D02*
X104799D01*
X103618Y10516D02*
Y12878D01*
X102437Y19697D02*
X104799D01*
X103618Y18516D02*
Y20878D01*
X79347Y19197D02*
X82890D01*
X81118Y17425D02*
Y20968D01*
X81437Y28197D02*
X83799D01*
X82618Y27016D02*
Y29378D01*
X61847Y52697D02*
X65390D01*
X63618Y50925D02*
Y54469D01*
X77846Y52697D02*
X81390D01*
X79618Y50925D02*
Y54469D01*
X48346Y70197D02*
X51890D01*
X50118Y68425D02*
Y71969D01*
X43347Y78697D02*
X46890D01*
X45118Y76925D02*
Y80468D01*
X33847Y78697D02*
X37390D01*
X35618Y76925D02*
Y80468D01*
X14846Y78697D02*
X18390D01*
X16618Y76925D02*
Y80468D01*
X10346Y70197D02*
X13890D01*
X12118Y68425D02*
Y71969D01*
X19847Y70197D02*
X23390D01*
X21618Y68425D02*
Y71969D01*
X29346Y70197D02*
X32890D01*
X31118Y68425D02*
Y71969D01*
X38846Y70197D02*
X42390D01*
X40618Y68425D02*
Y71969D01*
X5347Y38697D02*
X8890D01*
X7118Y36925D02*
Y40468D01*
X155718Y57197D02*
X158518D01*
X157118Y55797D02*
Y58597D01*
X141218Y57197D02*
X144018D01*
X142618Y55797D02*
Y58597D01*
X134218Y57697D02*
X137018D01*
X135618Y56297D02*
Y59097D01*
X5718Y29697D02*
X8518D01*
X7118Y28297D02*
Y31097D01*
X66218Y16697D02*
X69018D01*
X67618Y15297D02*
Y18097D01*
X92718Y22197D02*
X95518D01*
X94118Y20797D02*
Y23597D01*
X19218Y46697D02*
X22018D01*
X20618Y45297D02*
Y48097D01*
X126218Y58197D02*
X129018D01*
X127618Y56797D02*
Y59597D01*
X124718Y41697D02*
X127518D01*
X126118Y40297D02*
Y43097D01*
X42718Y24697D02*
X45518D01*
X44118Y23297D02*
Y26097D01*
X54718Y61197D02*
X57518D01*
X56118Y59797D02*
Y62597D01*
X199728Y78697D02*
X203272D01*
X201500Y76925D02*
Y80468D01*
X219228Y78697D02*
X222772D01*
X221000Y76925D02*
Y80468D01*
X350319Y78197D02*
X352681D01*
X351500Y77016D02*
Y79378D01*
X324819Y78197D02*
X327181D01*
X326000Y77016D02*
Y79378D01*
X318819Y78197D02*
X321181D01*
X320000Y77016D02*
Y79378D01*
X312819Y78197D02*
X315181D01*
X314000Y77016D02*
Y79378D01*
X306819Y78197D02*
X309181D01*
X308000Y77016D02*
Y79378D01*
X300819Y78197D02*
X303181D01*
X302000Y77016D02*
Y79378D01*
X294819Y78197D02*
X297181D01*
X296000Y77016D02*
Y79378D01*
X288819Y78197D02*
X291181D01*
X290000Y77016D02*
Y79378D01*
X364228Y78197D02*
X367772D01*
X366000Y76425D02*
Y79969D01*
X377728Y78197D02*
X381272D01*
X379500Y76425D02*
Y79969D01*
X360728Y56197D02*
X364272D01*
X362500Y54425D02*
Y57968D01*
X360728Y40197D02*
X364272D01*
X362500Y38425D02*
Y41969D01*
X360728Y23197D02*
X364272D01*
X362500Y21425D02*
Y24969D01*
X274228Y9197D02*
X277772D01*
X276000Y7425D02*
Y10968D01*
X352728Y6707D02*
X356272D01*
X354500Y4935D02*
Y8479D01*
X361728Y6697D02*
X365272D01*
X363500Y4925D02*
Y8468D01*
X350319Y23697D02*
X352681D01*
X351500Y22516D02*
Y24878D01*
X317606Y11197D02*
X319969D01*
X318787Y10016D02*
Y12378D01*
X336819Y11197D02*
X339181D01*
X338000Y10016D02*
Y12378D01*
X297319Y11697D02*
X299681D01*
X298500Y10516D02*
Y12878D01*
X297319Y19697D02*
X299681D01*
X298500Y18516D02*
Y20878D01*
X274228Y19197D02*
X277772D01*
X276000Y17425D02*
Y20968D01*
X276319Y28197D02*
X278681D01*
X277500Y27016D02*
Y29378D01*
X256728Y52697D02*
X260272D01*
X258500Y50925D02*
Y54469D01*
X272728Y52697D02*
X276272D01*
X274500Y50925D02*
Y54469D01*
X243228Y70197D02*
X246772D01*
X245000Y68425D02*
Y71969D01*
X238228Y78697D02*
X241772D01*
X240000Y76925D02*
Y80468D01*
X228728Y78697D02*
X232272D01*
X230500Y76925D02*
Y80468D01*
X209728Y78697D02*
X213272D01*
X211500Y76925D02*
Y80468D01*
X205228Y70197D02*
X208772D01*
X207000Y68425D02*
Y71969D01*
X214728Y70197D02*
X218272D01*
X216500Y68425D02*
Y71969D01*
X224228Y70197D02*
X227772D01*
X226000Y68425D02*
Y71969D01*
X233728Y70197D02*
X237272D01*
X235500Y68425D02*
Y71969D01*
X200228Y38697D02*
X203772D01*
X202000Y36925D02*
Y40468D01*
X350600Y57197D02*
X353400D01*
X352000Y55797D02*
Y58597D01*
X336100Y57197D02*
X338900D01*
X337500Y55797D02*
Y58597D01*
X329100Y57697D02*
X331900D01*
X330500Y56297D02*
Y59097D01*
X200600Y29697D02*
X203400D01*
X202000Y28297D02*
Y31097D01*
X261100Y16697D02*
X263900D01*
X262500Y15297D02*
Y18097D01*
X287600Y22197D02*
X290400D01*
X289000Y20797D02*
Y23597D01*
X214100Y46697D02*
X216900D01*
X215500Y45297D02*
Y48097D01*
X321100Y58197D02*
X323900D01*
X322500Y56797D02*
Y59597D01*
X319600Y41697D02*
X322400D01*
X321000Y40297D02*
Y43097D01*
X237600Y24697D02*
X240400D01*
X239000Y23297D02*
Y26097D01*
X249600Y61197D02*
X252400D01*
X251000Y59797D02*
Y62597D01*
X4846Y166098D02*
X8390D01*
X6618Y164327D02*
Y167870D01*
X24347Y166098D02*
X27890D01*
X26118Y164327D02*
Y167870D01*
X155437Y165598D02*
X157799D01*
X156618Y164417D02*
Y166779D01*
X129937Y165598D02*
X132299D01*
X131118Y164417D02*
Y166779D01*
X123937Y165598D02*
X126299D01*
X125118Y164417D02*
Y166779D01*
X117937Y165598D02*
X120299D01*
X119118Y164417D02*
Y166779D01*
X111937Y165598D02*
X114299D01*
X113118Y164417D02*
Y166779D01*
X105937Y165598D02*
X108299D01*
X107118Y164417D02*
Y166779D01*
X99937Y165598D02*
X102299D01*
X101118Y164417D02*
Y166779D01*
X93937Y165598D02*
X96299D01*
X95118Y164417D02*
Y166779D01*
X169346Y165598D02*
X172890D01*
X171118Y163827D02*
Y167370D01*
X182846Y165598D02*
X186390D01*
X184618Y163827D02*
Y167370D01*
X165847Y143598D02*
X169390D01*
X167618Y141827D02*
Y145370D01*
X165847Y127598D02*
X169390D01*
X167618Y125827D02*
Y129370D01*
X165847Y110598D02*
X169390D01*
X167618Y108827D02*
Y112370D01*
X79347Y96598D02*
X82890D01*
X81118Y94827D02*
Y98370D01*
X157846Y94109D02*
X161390D01*
X159618Y92337D02*
Y95880D01*
X166847Y94098D02*
X170390D01*
X168618Y92327D02*
Y95870D01*
X155437Y111098D02*
X157799D01*
X156618Y109917D02*
Y112279D01*
X122724Y98598D02*
X125087D01*
X123906Y97417D02*
Y99779D01*
X141937Y98598D02*
X144299D01*
X143118Y97417D02*
Y99779D01*
X102437Y99098D02*
X104799D01*
X103618Y97917D02*
Y100279D01*
X102437Y107098D02*
X104799D01*
X103618Y105917D02*
Y108280D01*
X79347Y106598D02*
X82890D01*
X81118Y104827D02*
Y108370D01*
X81437Y115598D02*
X83799D01*
X82618Y114417D02*
Y116779D01*
X61847Y140098D02*
X65390D01*
X63618Y138327D02*
Y141870D01*
X77846Y140098D02*
X81390D01*
X79618Y138327D02*
Y141870D01*
X48346Y157598D02*
X51890D01*
X50118Y155827D02*
Y159370D01*
X43347Y166098D02*
X46890D01*
X45118Y164327D02*
Y167870D01*
X33847Y166098D02*
X37390D01*
X35618Y164327D02*
Y167870D01*
X14846Y166098D02*
X18390D01*
X16618Y164327D02*
Y167870D01*
X10346Y157598D02*
X13890D01*
X12118Y155827D02*
Y159370D01*
X19847Y157598D02*
X23390D01*
X21618Y155827D02*
Y159370D01*
X29346Y157598D02*
X32890D01*
X31118Y155827D02*
Y159370D01*
X38846Y157598D02*
X42390D01*
X40618Y155827D02*
Y159370D01*
X5347Y126098D02*
X8890D01*
X7118Y124327D02*
Y127870D01*
X155718Y144598D02*
X158518D01*
X157118Y143198D02*
Y145998D01*
X141218Y144598D02*
X144018D01*
X142618Y143198D02*
Y145998D01*
X134218Y145098D02*
X137018D01*
X135618Y143698D02*
Y146498D01*
X5718Y117098D02*
X8518D01*
X7118Y115698D02*
Y118498D01*
X66218Y104098D02*
X69018D01*
X67618Y102698D02*
Y105498D01*
X92718Y109598D02*
X95518D01*
X94118Y108198D02*
Y110998D01*
X19218Y134098D02*
X22018D01*
X20618Y132698D02*
Y135498D01*
X126218Y145598D02*
X129018D01*
X127618Y144198D02*
Y146998D01*
X124718Y129098D02*
X127518D01*
X126118Y127698D02*
Y130498D01*
X42718Y112098D02*
X45518D01*
X44118Y110698D02*
Y113498D01*
X54718Y148598D02*
X57518D01*
X56118Y147198D02*
Y149998D01*
X199728Y166098D02*
X203272D01*
X201500Y164327D02*
Y167870D01*
X219228Y166098D02*
X222772D01*
X221000Y164327D02*
Y167870D01*
X350319Y165598D02*
X352681D01*
X351500Y164417D02*
Y166779D01*
X324819Y165598D02*
X327181D01*
X326000Y164417D02*
Y166779D01*
X318819Y165598D02*
X321181D01*
X320000Y164417D02*
Y166779D01*
X312819Y165598D02*
X315181D01*
X314000Y164417D02*
Y166779D01*
X306819Y165598D02*
X309181D01*
X308000Y164417D02*
Y166779D01*
X300819Y165598D02*
X303181D01*
X302000Y164417D02*
Y166779D01*
X294819Y165598D02*
X297181D01*
X296000Y164417D02*
Y166779D01*
X288819Y165598D02*
X291181D01*
X290000Y164417D02*
Y166779D01*
X364228Y165598D02*
X367772D01*
X366000Y163827D02*
Y167370D01*
X377728Y165598D02*
X381272D01*
X379500Y163827D02*
Y167370D01*
X360728Y143598D02*
X364272D01*
X362500Y141827D02*
Y145370D01*
X360728Y127598D02*
X364272D01*
X362500Y125827D02*
Y129370D01*
X360728Y110598D02*
X364272D01*
X362500Y108827D02*
Y112370D01*
X274228Y96598D02*
X277772D01*
X276000Y94827D02*
Y98370D01*
X352728Y94109D02*
X356272D01*
X354500Y92337D02*
Y95880D01*
X361728Y94098D02*
X365272D01*
X363500Y92327D02*
Y95870D01*
X350319Y111098D02*
X352681D01*
X351500Y109917D02*
Y112279D01*
X317606Y98598D02*
X319969D01*
X318787Y97417D02*
Y99779D01*
X336819Y98598D02*
X339181D01*
X338000Y97417D02*
Y99779D01*
X297319Y99098D02*
X299681D01*
X298500Y97917D02*
Y100279D01*
X297319Y107098D02*
X299681D01*
X298500Y105917D02*
Y108280D01*
X274228Y106598D02*
X277772D01*
X276000Y104827D02*
Y108370D01*
X276319Y115598D02*
X278681D01*
X277500Y114417D02*
Y116779D01*
X256728Y140098D02*
X260272D01*
X258500Y138327D02*
Y141870D01*
X272728Y140098D02*
X276272D01*
X274500Y138327D02*
Y141870D01*
X243228Y157598D02*
X246772D01*
X245000Y155827D02*
Y159370D01*
X238228Y166098D02*
X241772D01*
X240000Y164327D02*
Y167870D01*
X228728Y166098D02*
X232272D01*
X230500Y164327D02*
Y167870D01*
X209728Y166098D02*
X213272D01*
X211500Y164327D02*
Y167870D01*
X205228Y157598D02*
X208772D01*
X207000Y155827D02*
Y159370D01*
X214728Y157598D02*
X218272D01*
X216500Y155827D02*
Y159370D01*
X224228Y157598D02*
X227772D01*
X226000Y155827D02*
Y159370D01*
X233728Y157598D02*
X237272D01*
X235500Y155827D02*
Y159370D01*
X200228Y126098D02*
X203772D01*
X202000Y124327D02*
Y127870D01*
X350600Y144598D02*
X353400D01*
X352000Y143198D02*
Y145998D01*
X336100Y144598D02*
X338900D01*
X337500Y143198D02*
Y145998D01*
X329100Y145098D02*
X331900D01*
X330500Y143698D02*
Y146498D01*
X200600Y117098D02*
X203400D01*
X202000Y115698D02*
Y118498D01*
X261100Y104098D02*
X263900D01*
X262500Y102698D02*
Y105498D01*
X287600Y109598D02*
X290400D01*
X289000Y108198D02*
Y110998D01*
X214100Y134098D02*
X216900D01*
X215500Y132698D02*
Y135498D01*
X321100Y145598D02*
X323900D01*
X322500Y144198D02*
Y146998D01*
X319600Y129098D02*
X322400D01*
X321000Y127698D02*
Y130498D01*
X237600Y112098D02*
X240400D01*
X239000Y110698D02*
Y113498D01*
X249600Y148598D02*
X252400D01*
X251000Y147198D02*
Y149998D01*
X4846Y253500D02*
X8390D01*
X6618Y251728D02*
Y255272D01*
X24347Y253500D02*
X27890D01*
X26118Y251728D02*
Y255272D01*
X155437Y253000D02*
X157799D01*
X156618Y251819D02*
Y254181D01*
X129937Y253000D02*
X132299D01*
X131118Y251819D02*
Y254181D01*
X123937Y253000D02*
X126299D01*
X125118Y251819D02*
Y254181D01*
X117937Y253000D02*
X120299D01*
X119118Y251819D02*
Y254181D01*
X111937Y253000D02*
X114299D01*
X113118Y251819D02*
Y254181D01*
X105937Y253000D02*
X108299D01*
X107118Y251819D02*
Y254181D01*
X99937Y253000D02*
X102299D01*
X101118Y251819D02*
Y254181D01*
X93937Y253000D02*
X96299D01*
X95118Y251819D02*
Y254181D01*
X169346Y253000D02*
X172890D01*
X171118Y251228D02*
Y254772D01*
X182846Y253000D02*
X186390D01*
X184618Y251228D02*
Y254772D01*
X165847Y231000D02*
X169390D01*
X167618Y229228D02*
Y232772D01*
X165847Y215000D02*
X169390D01*
X167618Y213228D02*
Y216772D01*
X165847Y198000D02*
X169390D01*
X167618Y196228D02*
Y199772D01*
X79347Y184000D02*
X82890D01*
X81118Y182228D02*
Y185772D01*
X157846Y181510D02*
X161390D01*
X159618Y179739D02*
Y183282D01*
X166847Y181500D02*
X170390D01*
X168618Y179728D02*
Y183272D01*
X155437Y198500D02*
X157799D01*
X156618Y197319D02*
Y199681D01*
X122724Y186000D02*
X125087D01*
X123906Y184819D02*
Y187181D01*
X141937Y186000D02*
X144299D01*
X143118Y184819D02*
Y187181D01*
X102437Y186500D02*
X104799D01*
X103618Y185319D02*
Y187681D01*
X102437Y194500D02*
X104799D01*
X103618Y193319D02*
Y195681D01*
X79347Y194000D02*
X82890D01*
X81118Y192228D02*
Y195772D01*
X81437Y203000D02*
X83799D01*
X82618Y201819D02*
Y204181D01*
X61847Y227500D02*
X65390D01*
X63618Y225728D02*
Y229272D01*
X77846Y227500D02*
X81390D01*
X79618Y225728D02*
Y229272D01*
X48346Y245000D02*
X51890D01*
X50118Y243228D02*
Y246772D01*
X43347Y253500D02*
X46890D01*
X45118Y251728D02*
Y255272D01*
X33847Y253500D02*
X37390D01*
X35618Y251728D02*
Y255272D01*
X14846Y253500D02*
X18390D01*
X16618Y251728D02*
Y255272D01*
X10346Y245000D02*
X13890D01*
X12118Y243228D02*
Y246772D01*
X19847Y245000D02*
X23390D01*
X21618Y243228D02*
Y246772D01*
X29346Y245000D02*
X32890D01*
X31118Y243228D02*
Y246772D01*
X38846Y245000D02*
X42390D01*
X40618Y243228D02*
Y246772D01*
X5347Y213500D02*
X8890D01*
X7118Y211728D02*
Y215272D01*
X155718Y232000D02*
X158518D01*
X157118Y230600D02*
Y233400D01*
X141218Y232000D02*
X144018D01*
X142618Y230600D02*
Y233400D01*
X134218Y232500D02*
X137018D01*
X135618Y231100D02*
Y233900D01*
X5718Y204500D02*
X8518D01*
X7118Y203100D02*
Y205900D01*
X66218Y191500D02*
X69018D01*
X67618Y190100D02*
Y192900D01*
X92718Y197000D02*
X95518D01*
X94118Y195600D02*
Y198400D01*
X19218Y221500D02*
X22018D01*
X20618Y220100D02*
Y222900D01*
X126218Y233000D02*
X129018D01*
X127618Y231600D02*
Y234400D01*
X124718Y216500D02*
X127518D01*
X126118Y215100D02*
Y217900D01*
X42718Y199500D02*
X45518D01*
X44118Y198100D02*
Y200900D01*
X54718Y236000D02*
X57518D01*
X56118Y234600D02*
Y237400D01*
X199728Y253500D02*
X203272D01*
X201500Y251728D02*
Y255272D01*
X219228Y253500D02*
X222772D01*
X221000Y251728D02*
Y255272D01*
X350319Y253000D02*
X352681D01*
X351500Y251819D02*
Y254181D01*
X324819Y253000D02*
X327181D01*
X326000Y251819D02*
Y254181D01*
X318819Y253000D02*
X321181D01*
X320000Y251819D02*
Y254181D01*
X312819Y253000D02*
X315181D01*
X314000Y251819D02*
Y254181D01*
X306819Y253000D02*
X309181D01*
X308000Y251819D02*
Y254181D01*
X300819Y253000D02*
X303181D01*
X302000Y251819D02*
Y254181D01*
X294819Y253000D02*
X297181D01*
X296000Y251819D02*
Y254181D01*
X288819Y253000D02*
X291181D01*
X290000Y251819D02*
Y254181D01*
X364228Y253000D02*
X367772D01*
X366000Y251228D02*
Y254772D01*
X377728Y253000D02*
X381272D01*
X379500Y251228D02*
Y254772D01*
X360728Y231000D02*
X364272D01*
X362500Y229228D02*
Y232772D01*
X360728Y215000D02*
X364272D01*
X362500Y213228D02*
Y216772D01*
X360728Y198000D02*
X364272D01*
X362500Y196228D02*
Y199772D01*
X274228Y184000D02*
X277772D01*
X276000Y182228D02*
Y185772D01*
X352728Y181510D02*
X356272D01*
X354500Y179739D02*
Y183282D01*
X361728Y181500D02*
X365272D01*
X363500Y179728D02*
Y183272D01*
X350319Y198500D02*
X352681D01*
X351500Y197319D02*
Y199681D01*
X317606Y186000D02*
X319969D01*
X318787Y184819D02*
Y187181D01*
X336819Y186000D02*
X339181D01*
X338000Y184819D02*
Y187181D01*
X297319Y186500D02*
X299681D01*
X298500Y185319D02*
Y187681D01*
X297319Y194500D02*
X299681D01*
X298500Y193319D02*
Y195681D01*
X274228Y194000D02*
X277772D01*
X276000Y192228D02*
Y195772D01*
X276319Y203000D02*
X278681D01*
X277500Y201819D02*
Y204181D01*
X256728Y227500D02*
X260272D01*
X258500Y225728D02*
Y229272D01*
X272728Y227500D02*
X276272D01*
X274500Y225728D02*
Y229272D01*
X243228Y245000D02*
X246772D01*
X245000Y243228D02*
Y246772D01*
X238228Y253500D02*
X241772D01*
X240000Y251728D02*
Y255272D01*
X228728Y253500D02*
X232272D01*
X230500Y251728D02*
Y255272D01*
X209728Y253500D02*
X213272D01*
X211500Y251728D02*
Y255272D01*
X205228Y245000D02*
X208772D01*
X207000Y243228D02*
Y246772D01*
X214728Y245000D02*
X218272D01*
X216500Y243228D02*
Y246772D01*
X224228Y245000D02*
X227772D01*
X226000Y243228D02*
Y246772D01*
X233728Y245000D02*
X237272D01*
X235500Y243228D02*
Y246772D01*
X200228Y213500D02*
X203772D01*
X202000Y211728D02*
Y215272D01*
X350600Y232000D02*
X353400D01*
X352000Y230600D02*
Y233400D01*
X336100Y232000D02*
X338900D01*
X337500Y230600D02*
Y233400D01*
X329100Y232500D02*
X331900D01*
X330500Y231100D02*
Y233900D01*
X200600Y204500D02*
X203400D01*
X202000Y203100D02*
Y205900D01*
X261100Y191500D02*
X263900D01*
X262500Y190100D02*
Y192900D01*
X287600Y197000D02*
X290400D01*
X289000Y195600D02*
Y198400D01*
X214100Y221500D02*
X216900D01*
X215500Y220100D02*
Y222900D01*
X321100Y233000D02*
X323900D01*
X322500Y231600D02*
Y234400D01*
X319600Y216500D02*
X322400D01*
X321000Y215100D02*
Y217900D01*
X237600Y199500D02*
X240400D01*
X239000Y198100D02*
Y200900D01*
X249600Y236000D02*
X252400D01*
X251000Y234600D02*
Y237400D01*
X4846Y340902D02*
X8390D01*
X6618Y339130D02*
Y342673D01*
X24347Y340902D02*
X27890D01*
X26118Y339130D02*
Y342673D01*
X155437Y340402D02*
X157799D01*
X156618Y339220D02*
Y341583D01*
X129937Y340402D02*
X132299D01*
X131118Y339220D02*
Y341583D01*
X123937Y340402D02*
X126299D01*
X125118Y339220D02*
Y341583D01*
X117937Y340402D02*
X120299D01*
X119118Y339220D02*
Y341583D01*
X111937Y340402D02*
X114299D01*
X113118Y339220D02*
Y341583D01*
X105937Y340402D02*
X108299D01*
X107118Y339220D02*
Y341583D01*
X99937Y340402D02*
X102299D01*
X101118Y339220D02*
Y341583D01*
X93937Y340402D02*
X96299D01*
X95118Y339220D02*
Y341583D01*
X169346Y340402D02*
X172890D01*
X171118Y338630D02*
Y342173D01*
X182846Y340402D02*
X186390D01*
X184618Y338630D02*
Y342173D01*
X165847Y318402D02*
X169390D01*
X167618Y316630D02*
Y320173D01*
X165847Y302402D02*
X169390D01*
X167618Y300630D02*
Y304173D01*
X165847Y285402D02*
X169390D01*
X167618Y283630D02*
Y287173D01*
X79347Y271402D02*
X82890D01*
X81118Y269630D02*
Y273173D01*
X157846Y268912D02*
X161390D01*
X159618Y267140D02*
Y270683D01*
X166847Y268902D02*
X170390D01*
X168618Y267130D02*
Y270673D01*
X155437Y285902D02*
X157799D01*
X156618Y284720D02*
Y287083D01*
X122724Y273402D02*
X125087D01*
X123906Y272220D02*
Y274583D01*
X141937Y273402D02*
X144299D01*
X143118Y272220D02*
Y274583D01*
X102437Y273902D02*
X104799D01*
X103618Y272721D02*
Y275083D01*
X102437Y281902D02*
X104799D01*
X103618Y280720D02*
Y283083D01*
X79347Y281402D02*
X82890D01*
X81118Y279630D02*
Y283173D01*
X81437Y290402D02*
X83799D01*
X82618Y289220D02*
Y291583D01*
X61847Y314902D02*
X65390D01*
X63618Y313130D02*
Y316673D01*
X77846Y314902D02*
X81390D01*
X79618Y313130D02*
Y316673D01*
X48346Y332402D02*
X51890D01*
X50118Y330630D02*
Y334173D01*
X43347Y340902D02*
X46890D01*
X45118Y339130D02*
Y342673D01*
X33847Y340902D02*
X37390D01*
X35618Y339130D02*
Y342673D01*
X14846Y340902D02*
X18390D01*
X16618Y339130D02*
Y342673D01*
X10346Y332402D02*
X13890D01*
X12118Y330630D02*
Y334173D01*
X19847Y332402D02*
X23390D01*
X21618Y330630D02*
Y334173D01*
X29346Y332402D02*
X32890D01*
X31118Y330630D02*
Y334173D01*
X38846Y332402D02*
X42390D01*
X40618Y330630D02*
Y334173D01*
X5347Y300902D02*
X8890D01*
X7118Y299130D02*
Y302673D01*
X155718Y319402D02*
X158518D01*
X157118Y318002D02*
Y320802D01*
X141218Y319402D02*
X144018D01*
X142618Y318002D02*
Y320802D01*
X134218Y319902D02*
X137018D01*
X135618Y318502D02*
Y321302D01*
X5718Y291902D02*
X8518D01*
X7118Y290502D02*
Y293302D01*
X66218Y278902D02*
X69018D01*
X67618Y277502D02*
Y280302D01*
X92718Y284402D02*
X95518D01*
X94118Y283002D02*
Y285802D01*
X19218Y308902D02*
X22018D01*
X20618Y307502D02*
Y310302D01*
X126218Y320402D02*
X129018D01*
X127618Y319002D02*
Y321802D01*
X124718Y303902D02*
X127518D01*
X126118Y302502D02*
Y305302D01*
X42718Y286902D02*
X45518D01*
X44118Y285502D02*
Y288302D01*
X54718Y323402D02*
X57518D01*
X56118Y322002D02*
Y324802D01*
X199728Y340902D02*
X203272D01*
X201500Y339130D02*
Y342673D01*
X219228Y340902D02*
X222772D01*
X221000Y339130D02*
Y342673D01*
X350319Y340402D02*
X352681D01*
X351500Y339220D02*
Y341583D01*
X324819Y340402D02*
X327181D01*
X326000Y339220D02*
Y341583D01*
X318819Y340402D02*
X321181D01*
X320000Y339220D02*
Y341583D01*
X312819Y340402D02*
X315181D01*
X314000Y339220D02*
Y341583D01*
X306819Y340402D02*
X309181D01*
X308000Y339220D02*
Y341583D01*
X300819Y340402D02*
X303181D01*
X302000Y339220D02*
Y341583D01*
X294819Y340402D02*
X297181D01*
X296000Y339220D02*
Y341583D01*
X288819Y340402D02*
X291181D01*
X290000Y339220D02*
Y341583D01*
X364228Y340402D02*
X367772D01*
X366000Y338630D02*
Y342173D01*
X377728Y340402D02*
X381272D01*
X379500Y338630D02*
Y342173D01*
X360728Y318402D02*
X364272D01*
X362500Y316630D02*
Y320173D01*
X360728Y302402D02*
X364272D01*
X362500Y300630D02*
Y304173D01*
X360728Y285402D02*
X364272D01*
X362500Y283630D02*
Y287173D01*
X274228Y271402D02*
X277772D01*
X276000Y269630D02*
Y273173D01*
X352728Y268912D02*
X356272D01*
X354500Y267140D02*
Y270683D01*
X361728Y268902D02*
X365272D01*
X363500Y267130D02*
Y270673D01*
X350319Y285902D02*
X352681D01*
X351500Y284720D02*
Y287083D01*
X317606Y273402D02*
X319969D01*
X318787Y272220D02*
Y274583D01*
X336819Y273402D02*
X339181D01*
X338000Y272220D02*
Y274583D01*
X297319Y273902D02*
X299681D01*
X298500Y272721D02*
Y275083D01*
X297319Y281902D02*
X299681D01*
X298500Y280720D02*
Y283083D01*
X274228Y281402D02*
X277772D01*
X276000Y279630D02*
Y283173D01*
X276319Y290402D02*
X278681D01*
X277500Y289220D02*
Y291583D01*
X256728Y314902D02*
X260272D01*
X258500Y313130D02*
Y316673D01*
X272728Y314902D02*
X276272D01*
X274500Y313130D02*
Y316673D01*
X243228Y332402D02*
X246772D01*
X245000Y330630D02*
Y334173D01*
X238228Y340902D02*
X241772D01*
X240000Y339130D02*
Y342673D01*
X228728Y340902D02*
X232272D01*
X230500Y339130D02*
Y342673D01*
X209728Y340902D02*
X213272D01*
X211500Y339130D02*
Y342673D01*
X205228Y332402D02*
X208772D01*
X207000Y330630D02*
Y334173D01*
X214728Y332402D02*
X218272D01*
X216500Y330630D02*
Y334173D01*
X224228Y332402D02*
X227772D01*
X226000Y330630D02*
Y334173D01*
X233728Y332402D02*
X237272D01*
X235500Y330630D02*
Y334173D01*
X200228Y300902D02*
X203772D01*
X202000Y299130D02*
Y302673D01*
X350600Y319402D02*
X353400D01*
X352000Y318002D02*
Y320802D01*
X336100Y319402D02*
X338900D01*
X337500Y318002D02*
Y320802D01*
X329100Y319902D02*
X331900D01*
X330500Y318502D02*
Y321302D01*
X200600Y291902D02*
X203400D01*
X202000Y290502D02*
Y293302D01*
X261100Y278902D02*
X263900D01*
X262500Y277502D02*
Y280302D01*
X287600Y284402D02*
X290400D01*
X289000Y283002D02*
Y285802D01*
X214100Y308902D02*
X216900D01*
X215500Y307502D02*
Y310302D01*
X321100Y320402D02*
X323900D01*
X322500Y319002D02*
Y321802D01*
X319600Y303902D02*
X322400D01*
X321000Y302502D02*
Y305302D01*
X237600Y286902D02*
X240400D01*
X239000Y285502D02*
Y288302D01*
X249600Y323402D02*
X252400D01*
X251000Y322002D02*
Y324802D01*
M02*
