%FSLAX25Y25*%
%MOIN*%
G70*
G01*
G75*
G04 Layer_Color=16776960*
%ADD10O,0.02362X0.09055*%
%ADD11R,0.02756X0.03543*%
%ADD12O,0.01969X0.06299*%
%ADD13R,0.03150X0.03543*%
%ADD14R,0.06693X0.02953*%
%ADD15O,0.07087X0.02362*%
%ADD16R,0.03543X0.02756*%
%ADD17R,0.03543X0.03150*%
%ADD18O,0.06299X0.01969*%
%ADD19C,0.02000*%
%ADD20C,0.01000*%
%ADD21C,0.07874*%
%ADD22O,0.03937X0.05906*%
%ADD23C,0.04724*%
%ADD24O,0.05906X0.03937*%
%ADD25C,0.05000*%
%ADD26C,0.00984*%
%ADD27C,0.02362*%
%ADD28C,0.00787*%
%ADD29C,0.00600*%
%ADD30O,0.02762X0.09455*%
%ADD31R,0.03156X0.03943*%
%ADD32O,0.02369X0.06699*%
%ADD33R,0.03550X0.03943*%
%ADD34R,0.07093X0.03353*%
%ADD35O,0.07487X0.02762*%
%ADD36R,0.03943X0.03156*%
%ADD37R,0.03943X0.03550*%
%ADD38O,0.06699X0.02369*%
%ADD39C,0.08274*%
%ADD40O,0.04337X0.06306*%
%ADD41C,0.05124*%
%ADD42O,0.06306X0.04337*%
%ADD43C,0.05400*%
D29*
X36519Y65197D02*
Y63064D01*
X35452Y64131D02*
X37585D01*
X34919Y61998D02*
X38118D01*
Y59865D01*
Y58799D02*
Y57733D01*
Y58266D01*
X34919D01*
X35452Y58799D01*
X16519Y65197D02*
Y63064D01*
X15452Y64131D02*
X17585D01*
X14919Y61998D02*
X18118D01*
Y59865D01*
Y56666D02*
Y58799D01*
X15985Y56666D01*
X15452D01*
X14919Y57199D01*
Y58266D01*
X15452Y58799D01*
X31519Y61697D02*
Y59564D01*
X30452Y60631D02*
X32585D01*
X29919Y58498D02*
X33118D01*
Y56365D01*
X30452Y55299D02*
X29919Y54766D01*
Y53699D01*
X30452Y53166D01*
X30986D01*
X31519Y53699D01*
Y54233D01*
Y53699D01*
X32052Y53166D01*
X32585D01*
X33118Y53699D01*
Y54766D01*
X32585Y55299D01*
X26519Y65197D02*
Y63064D01*
X25452Y64131D02*
X27585D01*
X24919Y61998D02*
X28118D01*
Y59865D01*
Y57199D02*
X24919D01*
X26519Y58799D01*
Y56666D01*
X6019Y66197D02*
Y64064D01*
X4952Y65131D02*
X7085D01*
X4419Y62998D02*
X7618D01*
Y60865D01*
X4419Y57666D02*
Y59799D01*
X6019D01*
X5486Y58733D01*
Y58199D01*
X6019Y57666D01*
X7085D01*
X7618Y58199D01*
Y59266D01*
X7085Y59799D01*
X21519Y61697D02*
Y59564D01*
X20452Y60631D02*
X22585D01*
X19919Y58498D02*
X23118D01*
Y56365D01*
X19919Y53166D02*
X20452Y54233D01*
X21519Y55299D01*
X22585D01*
X23118Y54766D01*
Y53699D01*
X22585Y53166D01*
X22052D01*
X21519Y53699D01*
Y55299D01*
X41519Y61697D02*
Y59564D01*
X40452Y60631D02*
X42585D01*
X39919Y58498D02*
X43118D01*
Y56365D01*
X39919Y55299D02*
Y53166D01*
X40452D01*
X42585Y55299D01*
X43118D01*
X11519Y62197D02*
Y60064D01*
X10452Y61130D02*
X12585D01*
X9919Y58998D02*
X13118D01*
Y56865D01*
X10452Y55799D02*
X9919Y55266D01*
Y54199D01*
X10452Y53666D01*
X10986D01*
X11519Y54199D01*
X12052Y53666D01*
X12585D01*
X13118Y54199D01*
Y55266D01*
X12585Y55799D01*
X12052D01*
X11519Y55266D01*
X10986Y55799D01*
X10452D01*
X11519Y55266D02*
Y54199D01*
X83118Y60296D02*
X80985D01*
X79919Y61896D02*
Y58697D01*
X77786D01*
X76720D02*
X75654D01*
X76187D01*
Y61896D01*
X76720Y61363D01*
X70618Y59796D02*
X68485D01*
X67419Y61396D02*
Y58197D01*
X65286D01*
X62088D02*
X64220D01*
X62088Y60330D01*
Y60863D01*
X62621Y61396D01*
X63687D01*
X64220Y60863D01*
X171218Y64197D02*
Y66329D01*
X172817Y67396D02*
X169618D01*
Y69529D01*
X172284Y70595D02*
X172817Y71128D01*
Y72194D01*
X172284Y72727D01*
X171751D01*
X171218Y72194D01*
Y71661D01*
Y72194D01*
X170684Y72727D01*
X170151D01*
X169618Y72194D01*
Y71128D01*
X170151Y70595D01*
X63618Y71296D02*
X61485D01*
X60419Y72896D02*
Y69697D01*
X58286D01*
X55621D02*
Y72896D01*
X57220Y71296D01*
X55088D01*
X174118Y56097D02*
X176251D01*
X177317Y54498D02*
Y57697D01*
X179450D01*
X182649Y54498D02*
X180516D01*
Y56097D01*
X181582Y55564D01*
X182115D01*
X182649Y56097D01*
Y57164D01*
X182115Y57697D01*
X181049D01*
X180516Y57164D01*
X174118Y40597D02*
X176251D01*
X177317Y38998D02*
Y42197D01*
X179450D01*
X182649Y38998D02*
X181582Y39531D01*
X180516Y40597D01*
Y41664D01*
X181049Y42197D01*
X182115D01*
X182649Y41664D01*
Y41131D01*
X182115Y40597D01*
X180516D01*
X173618Y22597D02*
X175751D01*
X176817Y20998D02*
Y24197D01*
X178950D01*
X180016Y20998D02*
X182149D01*
Y21531D01*
X180016Y23664D01*
Y24197D01*
X96986Y17863D02*
X97519Y18396D01*
X98585D01*
X99118Y17863D01*
Y15730D01*
X98585Y15197D01*
X97519D01*
X96986Y15730D01*
X95919Y15197D02*
Y18396D01*
X94320D01*
X93787Y17863D01*
Y16796D01*
X94320Y16263D01*
X95919D01*
X90588Y17863D02*
X91121Y18396D01*
X92187D01*
X92720Y17863D01*
Y17330D01*
X92187Y16796D01*
X91121D01*
X90588Y16263D01*
Y15730D01*
X91121Y15197D01*
X92187D01*
X92720Y15730D01*
X89521Y15197D02*
X88455D01*
X88988D01*
Y18396D01*
X89521Y17863D01*
X96986Y11863D02*
X97519Y12396D01*
X98585D01*
X99118Y11863D01*
Y9730D01*
X98585Y9197D01*
X97519D01*
X96986Y9730D01*
X95919Y9197D02*
Y12396D01*
X94320D01*
X93787Y11863D01*
Y10796D01*
X94320Y10263D01*
X95919D01*
X90588Y11863D02*
X91121Y12396D01*
X92187D01*
X92720Y11863D01*
Y11329D01*
X92187Y10796D01*
X91121D01*
X90588Y10263D01*
Y9730D01*
X91121Y9197D01*
X92187D01*
X92720Y9730D01*
X87389Y9197D02*
X89521D01*
X87389Y11329D01*
Y11863D01*
X87922Y12396D01*
X88988D01*
X89521Y11863D01*
X129952Y71064D02*
X129419Y71597D01*
Y72664D01*
X129952Y73197D01*
X132085D01*
X132618Y72664D01*
Y71597D01*
X132085Y71064D01*
X132618Y69998D02*
X129419D01*
Y68398D01*
X129952Y67865D01*
X131019D01*
X131552Y68398D01*
Y69998D01*
X129952Y64666D02*
X129419Y65199D01*
Y66266D01*
X129952Y66799D01*
X130485D01*
X131019Y66266D01*
Y65199D01*
X131552Y64666D01*
X132085D01*
X132618Y65199D01*
Y66266D01*
X132085Y66799D01*
X129952Y63600D02*
X129419Y63067D01*
Y62001D01*
X129952Y61467D01*
X130485D01*
X131019Y62001D01*
Y62534D01*
Y62001D01*
X131552Y61467D01*
X132085D01*
X132618Y62001D01*
Y63067D01*
X132085Y63600D01*
X123952Y71064D02*
X123419Y71597D01*
Y72664D01*
X123952Y73197D01*
X126085D01*
X126618Y72664D01*
Y71597D01*
X126085Y71064D01*
X126618Y69998D02*
X123419D01*
Y68398D01*
X123952Y67865D01*
X125019D01*
X125552Y68398D01*
Y69998D01*
X123952Y64666D02*
X123419Y65199D01*
Y66266D01*
X123952Y66799D01*
X124486D01*
X125019Y66266D01*
Y65199D01*
X125552Y64666D01*
X126085D01*
X126618Y65199D01*
Y66266D01*
X126085Y66799D01*
X126618Y62001D02*
X123419D01*
X125019Y63600D01*
Y61467D01*
X117952Y71064D02*
X117419Y71597D01*
Y72664D01*
X117952Y73197D01*
X120085D01*
X120618Y72664D01*
Y71597D01*
X120085Y71064D01*
X120618Y69998D02*
X117419D01*
Y68398D01*
X117952Y67865D01*
X119019D01*
X119552Y68398D01*
Y69998D01*
X117952Y64666D02*
X117419Y65199D01*
Y66266D01*
X117952Y66799D01*
X118485D01*
X119019Y66266D01*
Y65199D01*
X119552Y64666D01*
X120085D01*
X120618Y65199D01*
Y66266D01*
X120085Y66799D01*
X117419Y61467D02*
Y63600D01*
X119019D01*
X118485Y62534D01*
Y62001D01*
X119019Y61467D01*
X120085D01*
X120618Y62001D01*
Y63067D01*
X120085Y63600D01*
X111952Y71064D02*
X111419Y71597D01*
Y72664D01*
X111952Y73197D01*
X114085D01*
X114618Y72664D01*
Y71597D01*
X114085Y71064D01*
X114618Y69998D02*
X111419D01*
Y68398D01*
X111952Y67865D01*
X113019D01*
X113552Y68398D01*
Y69998D01*
X111952Y64666D02*
X111419Y65199D01*
Y66266D01*
X111952Y66799D01*
X112486D01*
X113019Y66266D01*
Y65199D01*
X113552Y64666D01*
X114085D01*
X114618Y65199D01*
Y66266D01*
X114085Y66799D01*
X111419Y61467D02*
X111952Y62534D01*
X113019Y63600D01*
X114085D01*
X114618Y63067D01*
Y62001D01*
X114085Y61467D01*
X113552D01*
X113019Y62001D01*
Y63600D01*
X105952Y71064D02*
X105419Y71597D01*
Y72664D01*
X105952Y73197D01*
X108085D01*
X108618Y72664D01*
Y71597D01*
X108085Y71064D01*
X108618Y69998D02*
X105419D01*
Y68398D01*
X105952Y67865D01*
X107019D01*
X107552Y68398D01*
Y69998D01*
X105952Y64666D02*
X105419Y65199D01*
Y66266D01*
X105952Y66799D01*
X106485D01*
X107019Y66266D01*
Y65199D01*
X107552Y64666D01*
X108085D01*
X108618Y65199D01*
Y66266D01*
X108085Y66799D01*
X105419Y63600D02*
Y61467D01*
X105952D01*
X108085Y63600D01*
X108618D01*
X100452Y71064D02*
X99919Y71597D01*
Y72664D01*
X100452Y73197D01*
X102585D01*
X103118Y72664D01*
Y71597D01*
X102585Y71064D01*
X103118Y69998D02*
X99919D01*
Y68398D01*
X100452Y67865D01*
X101519D01*
X102052Y68398D01*
Y69998D01*
X100452Y64666D02*
X99919Y65199D01*
Y66266D01*
X100452Y66799D01*
X100986D01*
X101519Y66266D01*
Y65199D01*
X102052Y64666D01*
X102585D01*
X103118Y65199D01*
Y66266D01*
X102585Y66799D01*
X100452Y63600D02*
X99919Y63067D01*
Y62001D01*
X100452Y61467D01*
X100986D01*
X101519Y62001D01*
X102052Y61467D01*
X102585D01*
X103118Y62001D01*
Y63067D01*
X102585Y63600D01*
X102052D01*
X101519Y63067D01*
X100986Y63600D01*
X100452D01*
X101519Y63067D02*
Y62001D01*
X168485Y15863D02*
X169019Y16396D01*
X170085D01*
X170618Y15863D01*
Y13730D01*
X170085Y13197D01*
X169019D01*
X168485Y13730D01*
Y14796D01*
X169552D01*
X167419Y13197D02*
X166353D01*
X166886D01*
Y16396D01*
X167419Y15863D01*
X158485Y15873D02*
X159019Y16406D01*
X160085D01*
X160618Y15873D01*
Y13740D01*
X160085Y13207D01*
X159019D01*
X158485Y13740D01*
Y14807D01*
X159552D01*
X155287Y13207D02*
X157419D01*
X155287Y15340D01*
Y15873D01*
X155820Y16406D01*
X156886D01*
X157419Y15873D01*
X53486Y80363D02*
X54019Y80896D01*
X55085D01*
X55618Y80363D01*
Y78230D01*
X55085Y77697D01*
X54019D01*
X53486Y78230D01*
Y79296D01*
X54552D01*
X50820Y77697D02*
Y80896D01*
X52419Y79296D01*
X50287D01*
X183952Y70564D02*
X183419Y71097D01*
Y72164D01*
X183952Y72697D01*
X186085D01*
X186618Y72164D01*
Y71097D01*
X186085Y70564D01*
X185019D01*
Y71631D01*
X183419Y67365D02*
Y69498D01*
X185019D01*
X184485Y68432D01*
Y67898D01*
X185019Y67365D01*
X186085D01*
X186618Y67898D01*
Y68965D01*
X186085Y69498D01*
X77118Y29396D02*
X76052D01*
X76585D01*
Y26197D01*
X77118D01*
X76052D01*
X74452D02*
Y29396D01*
X72320Y26197D01*
Y29396D01*
X71253Y26197D02*
X70187D01*
X70720D01*
Y29396D01*
X71253Y28863D01*
X93919Y73197D02*
Y72131D01*
Y72664D01*
X97118D01*
Y73197D01*
Y72131D01*
Y70531D02*
X93919D01*
X97118Y68398D01*
X93919D01*
X97118Y65200D02*
Y67332D01*
X94986Y65200D01*
X94452D01*
X93919Y65733D01*
Y66799D01*
X94452Y67332D01*
X149986Y24863D02*
X150519Y25396D01*
X151585D01*
X152118Y24863D01*
Y24329D01*
X151585Y23796D01*
X150519D01*
X149986Y23263D01*
Y22730D01*
X150519Y22197D01*
X151585D01*
X152118Y22730D01*
X146786Y24863D02*
X147320Y25396D01*
X148386D01*
X148919Y24863D01*
Y22730D01*
X148386Y22197D01*
X147320D01*
X146786Y22730D01*
X145720Y25396D02*
Y22197D01*
X143588D01*
X142521D02*
X141455D01*
X141988D01*
Y25396D01*
X142521Y24863D01*
X183618Y65396D02*
Y62730D01*
X183085Y62197D01*
X182019D01*
X181485Y62730D01*
Y65396D01*
X178287D02*
X179353Y64863D01*
X180419Y63796D01*
Y62730D01*
X179886Y62197D01*
X178820D01*
X178287Y62730D01*
Y63263D01*
X178820Y63796D01*
X180419D01*
X183618Y49396D02*
Y46730D01*
X183085Y46197D01*
X182019D01*
X181485Y46730D01*
Y49396D01*
X180419Y48863D02*
X179886Y49396D01*
X178820D01*
X178287Y48863D01*
Y48329D01*
X178820Y47796D01*
X178287Y47263D01*
Y46730D01*
X178820Y46197D01*
X179886D01*
X180419Y46730D01*
Y47263D01*
X179886Y47796D01*
X180419Y48329D01*
Y48863D01*
X179886Y47796D02*
X178820D01*
X183618Y31896D02*
Y29230D01*
X183085Y28697D01*
X182019D01*
X181485Y29230D01*
Y31896D01*
X180419Y29230D02*
X179886Y28697D01*
X178820D01*
X178287Y29230D01*
Y31363D01*
X178820Y31896D01*
X179886D01*
X180419Y31363D01*
Y30830D01*
X179886Y30296D01*
X178287D01*
X184118Y14396D02*
Y11730D01*
X183585Y11197D01*
X182519D01*
X181985Y11730D01*
Y14396D01*
X180919Y11197D02*
X179853D01*
X180386D01*
Y14396D01*
X180919Y13863D01*
X178253D02*
X177720Y14396D01*
X176654D01*
X176121Y13863D01*
Y11730D01*
X176654Y11197D01*
X177720D01*
X178253Y11730D01*
Y13863D01*
X4419Y54697D02*
X6552D01*
X7618Y53631D01*
X6552Y52564D01*
X4419D01*
X4952Y49365D02*
X4419Y49898D01*
Y50965D01*
X4952Y51498D01*
X7085D01*
X7618Y50965D01*
Y49898D01*
X7085Y49365D01*
X4952Y46166D02*
X4419Y46699D01*
Y47766D01*
X4952Y48299D01*
X7085D01*
X7618Y47766D01*
Y46699D01*
X7085Y46166D01*
X7618Y45100D02*
Y44034D01*
Y44567D01*
X4419D01*
X4952Y45100D01*
X231400Y65197D02*
Y63064D01*
X230334Y64131D02*
X232467D01*
X229801Y61998D02*
X233000D01*
Y59865D01*
Y58799D02*
Y57733D01*
Y58266D01*
X229801D01*
X230334Y58799D01*
X211401Y65197D02*
Y63064D01*
X210334Y64131D02*
X212467D01*
X209801Y61998D02*
X213000D01*
Y59865D01*
Y56666D02*
Y58799D01*
X210867Y56666D01*
X210334D01*
X209801Y57199D01*
Y58266D01*
X210334Y58799D01*
X226400Y61697D02*
Y59564D01*
X225334Y60631D02*
X227467D01*
X224801Y58498D02*
X228000D01*
Y56365D01*
X225334Y55299D02*
X224801Y54766D01*
Y53699D01*
X225334Y53166D01*
X225867D01*
X226400Y53699D01*
Y54233D01*
Y53699D01*
X226934Y53166D01*
X227467D01*
X228000Y53699D01*
Y54766D01*
X227467Y55299D01*
X221400Y65197D02*
Y63064D01*
X220334Y64131D02*
X222467D01*
X219801Y61998D02*
X223000D01*
Y59865D01*
Y57199D02*
X219801D01*
X221400Y58799D01*
Y56666D01*
X200901Y66197D02*
Y64064D01*
X199834Y65131D02*
X201967D01*
X199301Y62998D02*
X202500D01*
Y60865D01*
X199301Y57666D02*
Y59799D01*
X200901D01*
X200367Y58733D01*
Y58199D01*
X200901Y57666D01*
X201967D01*
X202500Y58199D01*
Y59266D01*
X201967Y59799D01*
X216401Y61697D02*
Y59564D01*
X215334Y60631D02*
X217467D01*
X214801Y58498D02*
X218000D01*
Y56365D01*
X214801Y53166D02*
X215334Y54233D01*
X216401Y55299D01*
X217467D01*
X218000Y54766D01*
Y53699D01*
X217467Y53166D01*
X216934D01*
X216401Y53699D01*
Y55299D01*
X236401Y61697D02*
Y59564D01*
X235334Y60631D02*
X237467D01*
X234801Y58498D02*
X238000D01*
Y56365D01*
X234801Y55299D02*
Y53166D01*
X235334D01*
X237467Y55299D01*
X238000D01*
X206400Y62197D02*
Y60064D01*
X205334Y61130D02*
X207467D01*
X204801Y58998D02*
X208000D01*
Y56865D01*
X205334Y55799D02*
X204801Y55266D01*
Y54199D01*
X205334Y53666D01*
X205867D01*
X206400Y54199D01*
X206934Y53666D01*
X207467D01*
X208000Y54199D01*
Y55266D01*
X207467Y55799D01*
X206934D01*
X206400Y55266D01*
X205867Y55799D01*
X205334D01*
X206400Y55266D02*
Y54199D01*
X278000Y60296D02*
X275867D01*
X274801Y61896D02*
Y58697D01*
X272668D01*
X271602D02*
X270536D01*
X271069D01*
Y61896D01*
X271602Y61363D01*
X265500Y59796D02*
X263367D01*
X262301Y61396D02*
Y58197D01*
X260168D01*
X256969D02*
X259102D01*
X256969Y60330D01*
Y60863D01*
X257503Y61396D01*
X258569D01*
X259102Y60863D01*
X366100Y64197D02*
Y66329D01*
X367699Y67396D02*
X364500D01*
Y69529D01*
X367166Y70595D02*
X367699Y71128D01*
Y72194D01*
X367166Y72727D01*
X366633D01*
X366100Y72194D01*
Y71661D01*
Y72194D01*
X365566Y72727D01*
X365033D01*
X364500Y72194D01*
Y71128D01*
X365033Y70595D01*
X258500Y71296D02*
X256367D01*
X255301Y72896D02*
Y69697D01*
X253168D01*
X250503D02*
Y72896D01*
X252102Y71296D01*
X249969D01*
X369000Y56097D02*
X371133D01*
X372199Y54498D02*
Y57697D01*
X374332D01*
X377531Y54498D02*
X375398D01*
Y56097D01*
X376464Y55564D01*
X376997D01*
X377531Y56097D01*
Y57164D01*
X376997Y57697D01*
X375931D01*
X375398Y57164D01*
X369000Y40597D02*
X371133D01*
X372199Y38998D02*
Y42197D01*
X374332D01*
X377531Y38998D02*
X376464Y39531D01*
X375398Y40597D01*
Y41664D01*
X375931Y42197D01*
X376997D01*
X377531Y41664D01*
Y41131D01*
X376997Y40597D01*
X375398D01*
X368500Y22597D02*
X370633D01*
X371699Y20998D02*
Y24197D01*
X373832D01*
X374898Y20998D02*
X377031D01*
Y21531D01*
X374898Y23664D01*
Y24197D01*
X291867Y17863D02*
X292401Y18396D01*
X293467D01*
X294000Y17863D01*
Y15730D01*
X293467Y15197D01*
X292401D01*
X291867Y15730D01*
X290801Y15197D02*
Y18396D01*
X289201D01*
X288668Y17863D01*
Y16796D01*
X289201Y16263D01*
X290801D01*
X285469Y17863D02*
X286003Y18396D01*
X287069D01*
X287602Y17863D01*
Y17330D01*
X287069Y16796D01*
X286003D01*
X285469Y16263D01*
Y15730D01*
X286003Y15197D01*
X287069D01*
X287602Y15730D01*
X284403Y15197D02*
X283337D01*
X283870D01*
Y18396D01*
X284403Y17863D01*
X291867Y11863D02*
X292401Y12396D01*
X293467D01*
X294000Y11863D01*
Y9730D01*
X293467Y9197D01*
X292401D01*
X291867Y9730D01*
X290801Y9197D02*
Y12396D01*
X289201D01*
X288668Y11863D01*
Y10796D01*
X289201Y10263D01*
X290801D01*
X285469Y11863D02*
X286003Y12396D01*
X287069D01*
X287602Y11863D01*
Y11329D01*
X287069Y10796D01*
X286003D01*
X285469Y10263D01*
Y9730D01*
X286003Y9197D01*
X287069D01*
X287602Y9730D01*
X282270Y9197D02*
X284403D01*
X282270Y11329D01*
Y11863D01*
X282804Y12396D01*
X283870D01*
X284403Y11863D01*
X324834Y71064D02*
X324301Y71597D01*
Y72664D01*
X324834Y73197D01*
X326967D01*
X327500Y72664D01*
Y71597D01*
X326967Y71064D01*
X327500Y69998D02*
X324301D01*
Y68398D01*
X324834Y67865D01*
X325901D01*
X326434Y68398D01*
Y69998D01*
X324834Y64666D02*
X324301Y65199D01*
Y66266D01*
X324834Y66799D01*
X325367D01*
X325901Y66266D01*
Y65199D01*
X326434Y64666D01*
X326967D01*
X327500Y65199D01*
Y66266D01*
X326967Y66799D01*
X324834Y63600D02*
X324301Y63067D01*
Y62001D01*
X324834Y61467D01*
X325367D01*
X325901Y62001D01*
Y62534D01*
Y62001D01*
X326434Y61467D01*
X326967D01*
X327500Y62001D01*
Y63067D01*
X326967Y63600D01*
X318834Y71064D02*
X318301Y71597D01*
Y72664D01*
X318834Y73197D01*
X320967D01*
X321500Y72664D01*
Y71597D01*
X320967Y71064D01*
X321500Y69998D02*
X318301D01*
Y68398D01*
X318834Y67865D01*
X319900D01*
X320434Y68398D01*
Y69998D01*
X318834Y64666D02*
X318301Y65199D01*
Y66266D01*
X318834Y66799D01*
X319367D01*
X319900Y66266D01*
Y65199D01*
X320434Y64666D01*
X320967D01*
X321500Y65199D01*
Y66266D01*
X320967Y66799D01*
X321500Y62001D02*
X318301D01*
X319900Y63600D01*
Y61467D01*
X312834Y71064D02*
X312301Y71597D01*
Y72664D01*
X312834Y73197D01*
X314967D01*
X315500Y72664D01*
Y71597D01*
X314967Y71064D01*
X315500Y69998D02*
X312301D01*
Y68398D01*
X312834Y67865D01*
X313900D01*
X314434Y68398D01*
Y69998D01*
X312834Y64666D02*
X312301Y65199D01*
Y66266D01*
X312834Y66799D01*
X313367D01*
X313900Y66266D01*
Y65199D01*
X314434Y64666D01*
X314967D01*
X315500Y65199D01*
Y66266D01*
X314967Y66799D01*
X312301Y61467D02*
Y63600D01*
X313900D01*
X313367Y62534D01*
Y62001D01*
X313900Y61467D01*
X314967D01*
X315500Y62001D01*
Y63067D01*
X314967Y63600D01*
X306834Y71064D02*
X306301Y71597D01*
Y72664D01*
X306834Y73197D01*
X308967D01*
X309500Y72664D01*
Y71597D01*
X308967Y71064D01*
X309500Y69998D02*
X306301D01*
Y68398D01*
X306834Y67865D01*
X307901D01*
X308434Y68398D01*
Y69998D01*
X306834Y64666D02*
X306301Y65199D01*
Y66266D01*
X306834Y66799D01*
X307367D01*
X307901Y66266D01*
Y65199D01*
X308434Y64666D01*
X308967D01*
X309500Y65199D01*
Y66266D01*
X308967Y66799D01*
X306301Y61467D02*
X306834Y62534D01*
X307901Y63600D01*
X308967D01*
X309500Y63067D01*
Y62001D01*
X308967Y61467D01*
X308434D01*
X307901Y62001D01*
Y63600D01*
X300834Y71064D02*
X300301Y71597D01*
Y72664D01*
X300834Y73197D01*
X302967D01*
X303500Y72664D01*
Y71597D01*
X302967Y71064D01*
X303500Y69998D02*
X300301D01*
Y68398D01*
X300834Y67865D01*
X301901D01*
X302434Y68398D01*
Y69998D01*
X300834Y64666D02*
X300301Y65199D01*
Y66266D01*
X300834Y66799D01*
X301367D01*
X301901Y66266D01*
Y65199D01*
X302434Y64666D01*
X302967D01*
X303500Y65199D01*
Y66266D01*
X302967Y66799D01*
X300301Y63600D02*
Y61467D01*
X300834D01*
X302967Y63600D01*
X303500D01*
X295334Y71064D02*
X294801Y71597D01*
Y72664D01*
X295334Y73197D01*
X297467D01*
X298000Y72664D01*
Y71597D01*
X297467Y71064D01*
X298000Y69998D02*
X294801D01*
Y68398D01*
X295334Y67865D01*
X296400D01*
X296934Y68398D01*
Y69998D01*
X295334Y64666D02*
X294801Y65199D01*
Y66266D01*
X295334Y66799D01*
X295867D01*
X296400Y66266D01*
Y65199D01*
X296934Y64666D01*
X297467D01*
X298000Y65199D01*
Y66266D01*
X297467Y66799D01*
X295334Y63600D02*
X294801Y63067D01*
Y62001D01*
X295334Y61467D01*
X295867D01*
X296400Y62001D01*
X296934Y61467D01*
X297467D01*
X298000Y62001D01*
Y63067D01*
X297467Y63600D01*
X296934D01*
X296400Y63067D01*
X295867Y63600D01*
X295334D01*
X296400Y63067D02*
Y62001D01*
X363367Y15863D02*
X363900Y16396D01*
X364967D01*
X365500Y15863D01*
Y13730D01*
X364967Y13197D01*
X363900D01*
X363367Y13730D01*
Y14796D01*
X364434D01*
X362301Y13197D02*
X361235D01*
X361768D01*
Y16396D01*
X362301Y15863D01*
X353367Y15873D02*
X353901Y16406D01*
X354967D01*
X355500Y15873D01*
Y13740D01*
X354967Y13207D01*
X353901D01*
X353367Y13740D01*
Y14807D01*
X354434D01*
X350168Y13207D02*
X352301D01*
X350168Y15340D01*
Y15873D01*
X350701Y16406D01*
X351768D01*
X352301Y15873D01*
X248367Y80363D02*
X248901Y80896D01*
X249967D01*
X250500Y80363D01*
Y78230D01*
X249967Y77697D01*
X248901D01*
X248367Y78230D01*
Y79296D01*
X249434D01*
X245702Y77697D02*
Y80896D01*
X247301Y79296D01*
X245168D01*
X378834Y70564D02*
X378301Y71097D01*
Y72164D01*
X378834Y72697D01*
X380967D01*
X381500Y72164D01*
Y71097D01*
X380967Y70564D01*
X379901D01*
Y71631D01*
X378301Y67365D02*
Y69498D01*
X379901D01*
X379367Y68432D01*
Y67898D01*
X379901Y67365D01*
X380967D01*
X381500Y67898D01*
Y68965D01*
X380967Y69498D01*
X272000Y29396D02*
X270934D01*
X271467D01*
Y26197D01*
X272000D01*
X270934D01*
X269334D02*
Y29396D01*
X267202Y26197D01*
Y29396D01*
X266135Y26197D02*
X265069D01*
X265602D01*
Y29396D01*
X266135Y28863D01*
X288801Y73197D02*
Y72131D01*
Y72664D01*
X292000D01*
Y73197D01*
Y72131D01*
Y70531D02*
X288801D01*
X292000Y68398D01*
X288801D01*
X292000Y65200D02*
Y67332D01*
X289867Y65200D01*
X289334D01*
X288801Y65733D01*
Y66799D01*
X289334Y67332D01*
X344867Y24863D02*
X345401Y25396D01*
X346467D01*
X347000Y24863D01*
Y24329D01*
X346467Y23796D01*
X345401D01*
X344867Y23263D01*
Y22730D01*
X345401Y22197D01*
X346467D01*
X347000Y22730D01*
X341668Y24863D02*
X342201Y25396D01*
X343268D01*
X343801Y24863D01*
Y22730D01*
X343268Y22197D01*
X342201D01*
X341668Y22730D01*
X340602Y25396D02*
Y22197D01*
X338469D01*
X337403D02*
X336337D01*
X336870D01*
Y25396D01*
X337403Y24863D01*
X378500Y65396D02*
Y62730D01*
X377967Y62197D01*
X376901D01*
X376367Y62730D01*
Y65396D01*
X373168D02*
X374235Y64863D01*
X375301Y63796D01*
Y62730D01*
X374768Y62197D01*
X373702D01*
X373168Y62730D01*
Y63263D01*
X373702Y63796D01*
X375301D01*
X378500Y49396D02*
Y46730D01*
X377967Y46197D01*
X376901D01*
X376367Y46730D01*
Y49396D01*
X375301Y48863D02*
X374768Y49396D01*
X373702D01*
X373168Y48863D01*
Y48329D01*
X373702Y47796D01*
X373168Y47263D01*
Y46730D01*
X373702Y46197D01*
X374768D01*
X375301Y46730D01*
Y47263D01*
X374768Y47796D01*
X375301Y48329D01*
Y48863D01*
X374768Y47796D02*
X373702D01*
X378500Y31896D02*
Y29230D01*
X377967Y28697D01*
X376901D01*
X376367Y29230D01*
Y31896D01*
X375301Y29230D02*
X374768Y28697D01*
X373702D01*
X373168Y29230D01*
Y31363D01*
X373702Y31896D01*
X374768D01*
X375301Y31363D01*
Y30830D01*
X374768Y30296D01*
X373168D01*
X379000Y14396D02*
Y11730D01*
X378467Y11197D01*
X377400D01*
X376867Y11730D01*
Y14396D01*
X375801Y11197D02*
X374735D01*
X375268D01*
Y14396D01*
X375801Y13863D01*
X373135D02*
X372602Y14396D01*
X371536D01*
X371003Y13863D01*
Y11730D01*
X371536Y11197D01*
X372602D01*
X373135Y11730D01*
Y13863D01*
X199301Y54697D02*
X201434D01*
X202500Y53631D01*
X201434Y52564D01*
X199301D01*
X199834Y49365D02*
X199301Y49898D01*
Y50965D01*
X199834Y51498D01*
X201967D01*
X202500Y50965D01*
Y49898D01*
X201967Y49365D01*
X199834Y46166D02*
X199301Y46699D01*
Y47766D01*
X199834Y48299D01*
X201967D01*
X202500Y47766D01*
Y46699D01*
X201967Y46166D01*
X202500Y45100D02*
Y44034D01*
Y44567D01*
X199301D01*
X199834Y45100D01*
X36519Y152598D02*
Y150466D01*
X35452Y151532D02*
X37585D01*
X34919Y149399D02*
X38118D01*
Y147267D01*
Y146201D02*
Y145134D01*
Y145667D01*
X34919D01*
X35452Y146201D01*
X16519Y152598D02*
Y150466D01*
X15452Y151532D02*
X17585D01*
X14919Y149399D02*
X18118D01*
Y147267D01*
Y144068D02*
Y146201D01*
X15985Y144068D01*
X15452D01*
X14919Y144601D01*
Y145667D01*
X15452Y146201D01*
X31519Y149098D02*
Y146966D01*
X30452Y148032D02*
X32585D01*
X29919Y145899D02*
X33118D01*
Y143767D01*
X30452Y142701D02*
X29919Y142167D01*
Y141101D01*
X30452Y140568D01*
X30986D01*
X31519Y141101D01*
Y141634D01*
Y141101D01*
X32052Y140568D01*
X32585D01*
X33118Y141101D01*
Y142167D01*
X32585Y142701D01*
X26519Y152598D02*
Y150466D01*
X25452Y151532D02*
X27585D01*
X24919Y149399D02*
X28118D01*
Y147267D01*
Y144601D02*
X24919D01*
X26519Y146201D01*
Y144068D01*
X6019Y153598D02*
Y151466D01*
X4952Y152532D02*
X7085D01*
X4419Y150399D02*
X7618D01*
Y148267D01*
X4419Y145068D02*
Y147201D01*
X6019D01*
X5486Y146134D01*
Y145601D01*
X6019Y145068D01*
X7085D01*
X7618Y145601D01*
Y146667D01*
X7085Y147201D01*
X21519Y149098D02*
Y146966D01*
X20452Y148032D02*
X22585D01*
X19919Y145899D02*
X23118D01*
Y143767D01*
X19919Y140568D02*
X20452Y141634D01*
X21519Y142701D01*
X22585D01*
X23118Y142167D01*
Y141101D01*
X22585Y140568D01*
X22052D01*
X21519Y141101D01*
Y142701D01*
X41519Y149098D02*
Y146966D01*
X40452Y148032D02*
X42585D01*
X39919Y145899D02*
X43118D01*
Y143767D01*
X39919Y142701D02*
Y140568D01*
X40452D01*
X42585Y142701D01*
X43118D01*
X11519Y149598D02*
Y147466D01*
X10452Y148532D02*
X12585D01*
X9919Y146399D02*
X13118D01*
Y144267D01*
X10452Y143201D02*
X9919Y142667D01*
Y141601D01*
X10452Y141068D01*
X10986D01*
X11519Y141601D01*
X12052Y141068D01*
X12585D01*
X13118Y141601D01*
Y142667D01*
X12585Y143201D01*
X12052D01*
X11519Y142667D01*
X10986Y143201D01*
X10452D01*
X11519Y142667D02*
Y141601D01*
X83118Y147698D02*
X80985D01*
X79919Y149297D02*
Y146098D01*
X77786D01*
X76720D02*
X75654D01*
X76187D01*
Y149297D01*
X76720Y148764D01*
X70618Y147198D02*
X68485D01*
X67419Y148797D02*
Y145598D01*
X65286D01*
X62088D02*
X64220D01*
X62088Y147731D01*
Y148264D01*
X62621Y148797D01*
X63687D01*
X64220Y148264D01*
X171218Y151598D02*
Y153731D01*
X172817Y154797D02*
X169618D01*
Y156930D01*
X172284Y157996D02*
X172817Y158529D01*
Y159596D01*
X172284Y160129D01*
X171751D01*
X171218Y159596D01*
Y159063D01*
Y159596D01*
X170684Y160129D01*
X170151D01*
X169618Y159596D01*
Y158529D01*
X170151Y157996D01*
X63618Y158698D02*
X61485D01*
X60419Y160297D02*
Y157098D01*
X58286D01*
X55621D02*
Y160297D01*
X57220Y158698D01*
X55088D01*
X174118Y143499D02*
X176251D01*
X177317Y141900D02*
Y145098D01*
X179450D01*
X182649Y141900D02*
X180516D01*
Y143499D01*
X181582Y142966D01*
X182115D01*
X182649Y143499D01*
Y144565D01*
X182115Y145098D01*
X181049D01*
X180516Y144565D01*
X174118Y127999D02*
X176251D01*
X177317Y126400D02*
Y129598D01*
X179450D01*
X182649Y126400D02*
X181582Y126933D01*
X180516Y127999D01*
Y129065D01*
X181049Y129598D01*
X182115D01*
X182649Y129065D01*
Y128532D01*
X182115Y127999D01*
X180516D01*
X173618Y109999D02*
X175751D01*
X176817Y108399D02*
Y111598D01*
X178950D01*
X180016Y108399D02*
X182149D01*
Y108933D01*
X180016Y111065D01*
Y111598D01*
X96986Y105264D02*
X97519Y105797D01*
X98585D01*
X99118Y105264D01*
Y103132D01*
X98585Y102598D01*
X97519D01*
X96986Y103132D01*
X95919Y102598D02*
Y105797D01*
X94320D01*
X93787Y105264D01*
Y104198D01*
X94320Y103665D01*
X95919D01*
X90588Y105264D02*
X91121Y105797D01*
X92187D01*
X92720Y105264D01*
Y104731D01*
X92187Y104198D01*
X91121D01*
X90588Y103665D01*
Y103132D01*
X91121Y102598D01*
X92187D01*
X92720Y103132D01*
X89521Y102598D02*
X88455D01*
X88988D01*
Y105797D01*
X89521Y105264D01*
X96986Y99264D02*
X97519Y99797D01*
X98585D01*
X99118Y99264D01*
Y97132D01*
X98585Y96598D01*
X97519D01*
X96986Y97132D01*
X95919Y96598D02*
Y99797D01*
X94320D01*
X93787Y99264D01*
Y98198D01*
X94320Y97665D01*
X95919D01*
X90588Y99264D02*
X91121Y99797D01*
X92187D01*
X92720Y99264D01*
Y98731D01*
X92187Y98198D01*
X91121D01*
X90588Y97665D01*
Y97132D01*
X91121Y96598D01*
X92187D01*
X92720Y97132D01*
X87389Y96598D02*
X89521D01*
X87389Y98731D01*
Y99264D01*
X87922Y99797D01*
X88988D01*
X89521Y99264D01*
X129952Y158466D02*
X129419Y158999D01*
Y160065D01*
X129952Y160598D01*
X132085D01*
X132618Y160065D01*
Y158999D01*
X132085Y158466D01*
X132618Y157399D02*
X129419D01*
Y155800D01*
X129952Y155267D01*
X131019D01*
X131552Y155800D01*
Y157399D01*
X129952Y152068D02*
X129419Y152601D01*
Y153667D01*
X129952Y154200D01*
X130485D01*
X131019Y153667D01*
Y152601D01*
X131552Y152068D01*
X132085D01*
X132618Y152601D01*
Y153667D01*
X132085Y154200D01*
X129952Y151002D02*
X129419Y150468D01*
Y149402D01*
X129952Y148869D01*
X130485D01*
X131019Y149402D01*
Y149935D01*
Y149402D01*
X131552Y148869D01*
X132085D01*
X132618Y149402D01*
Y150468D01*
X132085Y151002D01*
X123952Y158466D02*
X123419Y158999D01*
Y160065D01*
X123952Y160598D01*
X126085D01*
X126618Y160065D01*
Y158999D01*
X126085Y158466D01*
X126618Y157399D02*
X123419D01*
Y155800D01*
X123952Y155267D01*
X125019D01*
X125552Y155800D01*
Y157399D01*
X123952Y152068D02*
X123419Y152601D01*
Y153667D01*
X123952Y154200D01*
X124486D01*
X125019Y153667D01*
Y152601D01*
X125552Y152068D01*
X126085D01*
X126618Y152601D01*
Y153667D01*
X126085Y154200D01*
X126618Y149402D02*
X123419D01*
X125019Y151002D01*
Y148869D01*
X117952Y158466D02*
X117419Y158999D01*
Y160065D01*
X117952Y160598D01*
X120085D01*
X120618Y160065D01*
Y158999D01*
X120085Y158466D01*
X120618Y157399D02*
X117419D01*
Y155800D01*
X117952Y155267D01*
X119019D01*
X119552Y155800D01*
Y157399D01*
X117952Y152068D02*
X117419Y152601D01*
Y153667D01*
X117952Y154200D01*
X118485D01*
X119019Y153667D01*
Y152601D01*
X119552Y152068D01*
X120085D01*
X120618Y152601D01*
Y153667D01*
X120085Y154200D01*
X117419Y148869D02*
Y151002D01*
X119019D01*
X118485Y149935D01*
Y149402D01*
X119019Y148869D01*
X120085D01*
X120618Y149402D01*
Y150468D01*
X120085Y151002D01*
X111952Y158466D02*
X111419Y158999D01*
Y160065D01*
X111952Y160598D01*
X114085D01*
X114618Y160065D01*
Y158999D01*
X114085Y158466D01*
X114618Y157399D02*
X111419D01*
Y155800D01*
X111952Y155267D01*
X113019D01*
X113552Y155800D01*
Y157399D01*
X111952Y152068D02*
X111419Y152601D01*
Y153667D01*
X111952Y154200D01*
X112486D01*
X113019Y153667D01*
Y152601D01*
X113552Y152068D01*
X114085D01*
X114618Y152601D01*
Y153667D01*
X114085Y154200D01*
X111419Y148869D02*
X111952Y149935D01*
X113019Y151002D01*
X114085D01*
X114618Y150468D01*
Y149402D01*
X114085Y148869D01*
X113552D01*
X113019Y149402D01*
Y151002D01*
X105952Y158466D02*
X105419Y158999D01*
Y160065D01*
X105952Y160598D01*
X108085D01*
X108618Y160065D01*
Y158999D01*
X108085Y158466D01*
X108618Y157399D02*
X105419D01*
Y155800D01*
X105952Y155267D01*
X107019D01*
X107552Y155800D01*
Y157399D01*
X105952Y152068D02*
X105419Y152601D01*
Y153667D01*
X105952Y154200D01*
X106485D01*
X107019Y153667D01*
Y152601D01*
X107552Y152068D01*
X108085D01*
X108618Y152601D01*
Y153667D01*
X108085Y154200D01*
X105419Y151002D02*
Y148869D01*
X105952D01*
X108085Y151002D01*
X108618D01*
X100452Y158466D02*
X99919Y158999D01*
Y160065D01*
X100452Y160598D01*
X102585D01*
X103118Y160065D01*
Y158999D01*
X102585Y158466D01*
X103118Y157399D02*
X99919D01*
Y155800D01*
X100452Y155267D01*
X101519D01*
X102052Y155800D01*
Y157399D01*
X100452Y152068D02*
X99919Y152601D01*
Y153667D01*
X100452Y154200D01*
X100986D01*
X101519Y153667D01*
Y152601D01*
X102052Y152068D01*
X102585D01*
X103118Y152601D01*
Y153667D01*
X102585Y154200D01*
X100452Y151002D02*
X99919Y150468D01*
Y149402D01*
X100452Y148869D01*
X100986D01*
X101519Y149402D01*
X102052Y148869D01*
X102585D01*
X103118Y149402D01*
Y150468D01*
X102585Y151002D01*
X102052D01*
X101519Y150468D01*
X100986Y151002D01*
X100452D01*
X101519Y150468D02*
Y149402D01*
X168485Y103264D02*
X169019Y103797D01*
X170085D01*
X170618Y103264D01*
Y101132D01*
X170085Y100598D01*
X169019D01*
X168485Y101132D01*
Y102198D01*
X169552D01*
X167419Y100598D02*
X166353D01*
X166886D01*
Y103797D01*
X167419Y103264D01*
X158485Y103274D02*
X159019Y103808D01*
X160085D01*
X160618Y103274D01*
Y101142D01*
X160085Y100609D01*
X159019D01*
X158485Y101142D01*
Y102208D01*
X159552D01*
X155287Y100609D02*
X157419D01*
X155287Y102741D01*
Y103274D01*
X155820Y103808D01*
X156886D01*
X157419Y103274D01*
X53486Y167764D02*
X54019Y168297D01*
X55085D01*
X55618Y167764D01*
Y165632D01*
X55085Y165098D01*
X54019D01*
X53486Y165632D01*
Y166698D01*
X54552D01*
X50820Y165098D02*
Y168297D01*
X52419Y166698D01*
X50287D01*
X183952Y157966D02*
X183419Y158499D01*
Y159565D01*
X183952Y160098D01*
X186085D01*
X186618Y159565D01*
Y158499D01*
X186085Y157966D01*
X185019D01*
Y159032D01*
X183419Y154767D02*
Y156899D01*
X185019D01*
X184485Y155833D01*
Y155300D01*
X185019Y154767D01*
X186085D01*
X186618Y155300D01*
Y156366D01*
X186085Y156899D01*
X77118Y116797D02*
X76052D01*
X76585D01*
Y113598D01*
X77118D01*
X76052D01*
X74452D02*
Y116797D01*
X72320Y113598D01*
Y116797D01*
X71253Y113598D02*
X70187D01*
X70720D01*
Y116797D01*
X71253Y116264D01*
X93919Y160598D02*
Y159532D01*
Y160065D01*
X97118D01*
Y160598D01*
Y159532D01*
Y157933D02*
X93919D01*
X97118Y155800D01*
X93919D01*
X97118Y152601D02*
Y154734D01*
X94986Y152601D01*
X94452D01*
X93919Y153134D01*
Y154200D01*
X94452Y154734D01*
X149986Y112264D02*
X150519Y112797D01*
X151585D01*
X152118Y112264D01*
Y111731D01*
X151585Y111198D01*
X150519D01*
X149986Y110665D01*
Y110132D01*
X150519Y109598D01*
X151585D01*
X152118Y110132D01*
X146786Y112264D02*
X147320Y112797D01*
X148386D01*
X148919Y112264D01*
Y110132D01*
X148386Y109598D01*
X147320D01*
X146786Y110132D01*
X145720Y112797D02*
Y109598D01*
X143588D01*
X142521D02*
X141455D01*
X141988D01*
Y112797D01*
X142521Y112264D01*
X183618Y152797D02*
Y150132D01*
X183085Y149598D01*
X182019D01*
X181485Y150132D01*
Y152797D01*
X178287D02*
X179353Y152264D01*
X180419Y151198D01*
Y150132D01*
X179886Y149598D01*
X178820D01*
X178287Y150132D01*
Y150665D01*
X178820Y151198D01*
X180419D01*
X183618Y136797D02*
Y134132D01*
X183085Y133598D01*
X182019D01*
X181485Y134132D01*
Y136797D01*
X180419Y136264D02*
X179886Y136797D01*
X178820D01*
X178287Y136264D01*
Y135731D01*
X178820Y135198D01*
X178287Y134665D01*
Y134132D01*
X178820Y133598D01*
X179886D01*
X180419Y134132D01*
Y134665D01*
X179886Y135198D01*
X180419Y135731D01*
Y136264D01*
X179886Y135198D02*
X178820D01*
X183618Y119297D02*
Y116632D01*
X183085Y116098D01*
X182019D01*
X181485Y116632D01*
Y119297D01*
X180419Y116632D02*
X179886Y116098D01*
X178820D01*
X178287Y116632D01*
Y118764D01*
X178820Y119297D01*
X179886D01*
X180419Y118764D01*
Y118231D01*
X179886Y117698D01*
X178287D01*
X184118Y101797D02*
Y99132D01*
X183585Y98598D01*
X182519D01*
X181985Y99132D01*
Y101797D01*
X180919Y98598D02*
X179853D01*
X180386D01*
Y101797D01*
X180919Y101264D01*
X178253D02*
X177720Y101797D01*
X176654D01*
X176121Y101264D01*
Y99132D01*
X176654Y98598D01*
X177720D01*
X178253Y99132D01*
Y101264D01*
X4419Y142098D02*
X6552D01*
X7618Y141032D01*
X6552Y139966D01*
X4419D01*
X4952Y136767D02*
X4419Y137300D01*
Y138366D01*
X4952Y138900D01*
X7085D01*
X7618Y138366D01*
Y137300D01*
X7085Y136767D01*
X4952Y133568D02*
X4419Y134101D01*
Y135167D01*
X4952Y135701D01*
X7085D01*
X7618Y135167D01*
Y134101D01*
X7085Y133568D01*
X7618Y132501D02*
Y131435D01*
Y131968D01*
X4419D01*
X4952Y132501D01*
X231400Y152598D02*
Y150466D01*
X230334Y151532D02*
X232467D01*
X229801Y149399D02*
X233000D01*
Y147267D01*
Y146201D02*
Y145134D01*
Y145667D01*
X229801D01*
X230334Y146201D01*
X211401Y152598D02*
Y150466D01*
X210334Y151532D02*
X212467D01*
X209801Y149399D02*
X213000D01*
Y147267D01*
Y144068D02*
Y146201D01*
X210867Y144068D01*
X210334D01*
X209801Y144601D01*
Y145667D01*
X210334Y146201D01*
X226400Y149098D02*
Y146966D01*
X225334Y148032D02*
X227467D01*
X224801Y145899D02*
X228000D01*
Y143767D01*
X225334Y142701D02*
X224801Y142167D01*
Y141101D01*
X225334Y140568D01*
X225867D01*
X226400Y141101D01*
Y141634D01*
Y141101D01*
X226934Y140568D01*
X227467D01*
X228000Y141101D01*
Y142167D01*
X227467Y142701D01*
X221400Y152598D02*
Y150466D01*
X220334Y151532D02*
X222467D01*
X219801Y149399D02*
X223000D01*
Y147267D01*
Y144601D02*
X219801D01*
X221400Y146201D01*
Y144068D01*
X200901Y153598D02*
Y151466D01*
X199834Y152532D02*
X201967D01*
X199301Y150399D02*
X202500D01*
Y148267D01*
X199301Y145068D02*
Y147201D01*
X200901D01*
X200367Y146134D01*
Y145601D01*
X200901Y145068D01*
X201967D01*
X202500Y145601D01*
Y146667D01*
X201967Y147201D01*
X216401Y149098D02*
Y146966D01*
X215334Y148032D02*
X217467D01*
X214801Y145899D02*
X218000D01*
Y143767D01*
X214801Y140568D02*
X215334Y141634D01*
X216401Y142701D01*
X217467D01*
X218000Y142167D01*
Y141101D01*
X217467Y140568D01*
X216934D01*
X216401Y141101D01*
Y142701D01*
X236401Y149098D02*
Y146966D01*
X235334Y148032D02*
X237467D01*
X234801Y145899D02*
X238000D01*
Y143767D01*
X234801Y142701D02*
Y140568D01*
X235334D01*
X237467Y142701D01*
X238000D01*
X206400Y149598D02*
Y147466D01*
X205334Y148532D02*
X207467D01*
X204801Y146399D02*
X208000D01*
Y144267D01*
X205334Y143201D02*
X204801Y142667D01*
Y141601D01*
X205334Y141068D01*
X205867D01*
X206400Y141601D01*
X206934Y141068D01*
X207467D01*
X208000Y141601D01*
Y142667D01*
X207467Y143201D01*
X206934D01*
X206400Y142667D01*
X205867Y143201D01*
X205334D01*
X206400Y142667D02*
Y141601D01*
X278000Y147698D02*
X275867D01*
X274801Y149297D02*
Y146098D01*
X272668D01*
X271602D02*
X270536D01*
X271069D01*
Y149297D01*
X271602Y148764D01*
X265500Y147198D02*
X263367D01*
X262301Y148797D02*
Y145598D01*
X260168D01*
X256969D02*
X259102D01*
X256969Y147731D01*
Y148264D01*
X257503Y148797D01*
X258569D01*
X259102Y148264D01*
X366100Y151598D02*
Y153731D01*
X367699Y154797D02*
X364500D01*
Y156930D01*
X367166Y157996D02*
X367699Y158529D01*
Y159596D01*
X367166Y160129D01*
X366633D01*
X366100Y159596D01*
Y159063D01*
Y159596D01*
X365566Y160129D01*
X365033D01*
X364500Y159596D01*
Y158529D01*
X365033Y157996D01*
X258500Y158698D02*
X256367D01*
X255301Y160297D02*
Y157098D01*
X253168D01*
X250503D02*
Y160297D01*
X252102Y158698D01*
X249969D01*
X369000Y143499D02*
X371133D01*
X372199Y141900D02*
Y145098D01*
X374332D01*
X377531Y141900D02*
X375398D01*
Y143499D01*
X376464Y142966D01*
X376997D01*
X377531Y143499D01*
Y144565D01*
X376997Y145098D01*
X375931D01*
X375398Y144565D01*
X369000Y127999D02*
X371133D01*
X372199Y126400D02*
Y129598D01*
X374332D01*
X377531Y126400D02*
X376464Y126933D01*
X375398Y127999D01*
Y129065D01*
X375931Y129598D01*
X376997D01*
X377531Y129065D01*
Y128532D01*
X376997Y127999D01*
X375398D01*
X368500Y109999D02*
X370633D01*
X371699Y108399D02*
Y111598D01*
X373832D01*
X374898Y108399D02*
X377031D01*
Y108933D01*
X374898Y111065D01*
Y111598D01*
X291867Y105264D02*
X292401Y105797D01*
X293467D01*
X294000Y105264D01*
Y103132D01*
X293467Y102598D01*
X292401D01*
X291867Y103132D01*
X290801Y102598D02*
Y105797D01*
X289201D01*
X288668Y105264D01*
Y104198D01*
X289201Y103665D01*
X290801D01*
X285469Y105264D02*
X286003Y105797D01*
X287069D01*
X287602Y105264D01*
Y104731D01*
X287069Y104198D01*
X286003D01*
X285469Y103665D01*
Y103132D01*
X286003Y102598D01*
X287069D01*
X287602Y103132D01*
X284403Y102598D02*
X283337D01*
X283870D01*
Y105797D01*
X284403Y105264D01*
X291867Y99264D02*
X292401Y99797D01*
X293467D01*
X294000Y99264D01*
Y97132D01*
X293467Y96598D01*
X292401D01*
X291867Y97132D01*
X290801Y96598D02*
Y99797D01*
X289201D01*
X288668Y99264D01*
Y98198D01*
X289201Y97665D01*
X290801D01*
X285469Y99264D02*
X286003Y99797D01*
X287069D01*
X287602Y99264D01*
Y98731D01*
X287069Y98198D01*
X286003D01*
X285469Y97665D01*
Y97132D01*
X286003Y96598D01*
X287069D01*
X287602Y97132D01*
X282270Y96598D02*
X284403D01*
X282270Y98731D01*
Y99264D01*
X282804Y99797D01*
X283870D01*
X284403Y99264D01*
X324834Y158466D02*
X324301Y158999D01*
Y160065D01*
X324834Y160598D01*
X326967D01*
X327500Y160065D01*
Y158999D01*
X326967Y158466D01*
X327500Y157399D02*
X324301D01*
Y155800D01*
X324834Y155267D01*
X325901D01*
X326434Y155800D01*
Y157399D01*
X324834Y152068D02*
X324301Y152601D01*
Y153667D01*
X324834Y154200D01*
X325367D01*
X325901Y153667D01*
Y152601D01*
X326434Y152068D01*
X326967D01*
X327500Y152601D01*
Y153667D01*
X326967Y154200D01*
X324834Y151002D02*
X324301Y150468D01*
Y149402D01*
X324834Y148869D01*
X325367D01*
X325901Y149402D01*
Y149935D01*
Y149402D01*
X326434Y148869D01*
X326967D01*
X327500Y149402D01*
Y150468D01*
X326967Y151002D01*
X318834Y158466D02*
X318301Y158999D01*
Y160065D01*
X318834Y160598D01*
X320967D01*
X321500Y160065D01*
Y158999D01*
X320967Y158466D01*
X321500Y157399D02*
X318301D01*
Y155800D01*
X318834Y155267D01*
X319900D01*
X320434Y155800D01*
Y157399D01*
X318834Y152068D02*
X318301Y152601D01*
Y153667D01*
X318834Y154200D01*
X319367D01*
X319900Y153667D01*
Y152601D01*
X320434Y152068D01*
X320967D01*
X321500Y152601D01*
Y153667D01*
X320967Y154200D01*
X321500Y149402D02*
X318301D01*
X319900Y151002D01*
Y148869D01*
X312834Y158466D02*
X312301Y158999D01*
Y160065D01*
X312834Y160598D01*
X314967D01*
X315500Y160065D01*
Y158999D01*
X314967Y158466D01*
X315500Y157399D02*
X312301D01*
Y155800D01*
X312834Y155267D01*
X313900D01*
X314434Y155800D01*
Y157399D01*
X312834Y152068D02*
X312301Y152601D01*
Y153667D01*
X312834Y154200D01*
X313367D01*
X313900Y153667D01*
Y152601D01*
X314434Y152068D01*
X314967D01*
X315500Y152601D01*
Y153667D01*
X314967Y154200D01*
X312301Y148869D02*
Y151002D01*
X313900D01*
X313367Y149935D01*
Y149402D01*
X313900Y148869D01*
X314967D01*
X315500Y149402D01*
Y150468D01*
X314967Y151002D01*
X306834Y158466D02*
X306301Y158999D01*
Y160065D01*
X306834Y160598D01*
X308967D01*
X309500Y160065D01*
Y158999D01*
X308967Y158466D01*
X309500Y157399D02*
X306301D01*
Y155800D01*
X306834Y155267D01*
X307901D01*
X308434Y155800D01*
Y157399D01*
X306834Y152068D02*
X306301Y152601D01*
Y153667D01*
X306834Y154200D01*
X307367D01*
X307901Y153667D01*
Y152601D01*
X308434Y152068D01*
X308967D01*
X309500Y152601D01*
Y153667D01*
X308967Y154200D01*
X306301Y148869D02*
X306834Y149935D01*
X307901Y151002D01*
X308967D01*
X309500Y150468D01*
Y149402D01*
X308967Y148869D01*
X308434D01*
X307901Y149402D01*
Y151002D01*
X300834Y158466D02*
X300301Y158999D01*
Y160065D01*
X300834Y160598D01*
X302967D01*
X303500Y160065D01*
Y158999D01*
X302967Y158466D01*
X303500Y157399D02*
X300301D01*
Y155800D01*
X300834Y155267D01*
X301901D01*
X302434Y155800D01*
Y157399D01*
X300834Y152068D02*
X300301Y152601D01*
Y153667D01*
X300834Y154200D01*
X301367D01*
X301901Y153667D01*
Y152601D01*
X302434Y152068D01*
X302967D01*
X303500Y152601D01*
Y153667D01*
X302967Y154200D01*
X300301Y151002D02*
Y148869D01*
X300834D01*
X302967Y151002D01*
X303500D01*
X295334Y158466D02*
X294801Y158999D01*
Y160065D01*
X295334Y160598D01*
X297467D01*
X298000Y160065D01*
Y158999D01*
X297467Y158466D01*
X298000Y157399D02*
X294801D01*
Y155800D01*
X295334Y155267D01*
X296400D01*
X296934Y155800D01*
Y157399D01*
X295334Y152068D02*
X294801Y152601D01*
Y153667D01*
X295334Y154200D01*
X295867D01*
X296400Y153667D01*
Y152601D01*
X296934Y152068D01*
X297467D01*
X298000Y152601D01*
Y153667D01*
X297467Y154200D01*
X295334Y151002D02*
X294801Y150468D01*
Y149402D01*
X295334Y148869D01*
X295867D01*
X296400Y149402D01*
X296934Y148869D01*
X297467D01*
X298000Y149402D01*
Y150468D01*
X297467Y151002D01*
X296934D01*
X296400Y150468D01*
X295867Y151002D01*
X295334D01*
X296400Y150468D02*
Y149402D01*
X363367Y103264D02*
X363900Y103797D01*
X364967D01*
X365500Y103264D01*
Y101132D01*
X364967Y100598D01*
X363900D01*
X363367Y101132D01*
Y102198D01*
X364434D01*
X362301Y100598D02*
X361235D01*
X361768D01*
Y103797D01*
X362301Y103264D01*
X353367Y103274D02*
X353901Y103808D01*
X354967D01*
X355500Y103274D01*
Y101142D01*
X354967Y100609D01*
X353901D01*
X353367Y101142D01*
Y102208D01*
X354434D01*
X350168Y100609D02*
X352301D01*
X350168Y102741D01*
Y103274D01*
X350701Y103808D01*
X351768D01*
X352301Y103274D01*
X248367Y167764D02*
X248901Y168297D01*
X249967D01*
X250500Y167764D01*
Y165632D01*
X249967Y165098D01*
X248901D01*
X248367Y165632D01*
Y166698D01*
X249434D01*
X245702Y165098D02*
Y168297D01*
X247301Y166698D01*
X245168D01*
X378834Y157966D02*
X378301Y158499D01*
Y159565D01*
X378834Y160098D01*
X380967D01*
X381500Y159565D01*
Y158499D01*
X380967Y157966D01*
X379901D01*
Y159032D01*
X378301Y154767D02*
Y156899D01*
X379901D01*
X379367Y155833D01*
Y155300D01*
X379901Y154767D01*
X380967D01*
X381500Y155300D01*
Y156366D01*
X380967Y156899D01*
X272000Y116797D02*
X270934D01*
X271467D01*
Y113598D01*
X272000D01*
X270934D01*
X269334D02*
Y116797D01*
X267202Y113598D01*
Y116797D01*
X266135Y113598D02*
X265069D01*
X265602D01*
Y116797D01*
X266135Y116264D01*
X288801Y160598D02*
Y159532D01*
Y160065D01*
X292000D01*
Y160598D01*
Y159532D01*
Y157933D02*
X288801D01*
X292000Y155800D01*
X288801D01*
X292000Y152601D02*
Y154734D01*
X289867Y152601D01*
X289334D01*
X288801Y153134D01*
Y154200D01*
X289334Y154734D01*
X344867Y112264D02*
X345401Y112797D01*
X346467D01*
X347000Y112264D01*
Y111731D01*
X346467Y111198D01*
X345401D01*
X344867Y110665D01*
Y110132D01*
X345401Y109598D01*
X346467D01*
X347000Y110132D01*
X341668Y112264D02*
X342201Y112797D01*
X343268D01*
X343801Y112264D01*
Y110132D01*
X343268Y109598D01*
X342201D01*
X341668Y110132D01*
X340602Y112797D02*
Y109598D01*
X338469D01*
X337403D02*
X336337D01*
X336870D01*
Y112797D01*
X337403Y112264D01*
X378500Y152797D02*
Y150132D01*
X377967Y149598D01*
X376901D01*
X376367Y150132D01*
Y152797D01*
X373168D02*
X374235Y152264D01*
X375301Y151198D01*
Y150132D01*
X374768Y149598D01*
X373702D01*
X373168Y150132D01*
Y150665D01*
X373702Y151198D01*
X375301D01*
X378500Y136797D02*
Y134132D01*
X377967Y133598D01*
X376901D01*
X376367Y134132D01*
Y136797D01*
X375301Y136264D02*
X374768Y136797D01*
X373702D01*
X373168Y136264D01*
Y135731D01*
X373702Y135198D01*
X373168Y134665D01*
Y134132D01*
X373702Y133598D01*
X374768D01*
X375301Y134132D01*
Y134665D01*
X374768Y135198D01*
X375301Y135731D01*
Y136264D01*
X374768Y135198D02*
X373702D01*
X378500Y119297D02*
Y116632D01*
X377967Y116098D01*
X376901D01*
X376367Y116632D01*
Y119297D01*
X375301Y116632D02*
X374768Y116098D01*
X373702D01*
X373168Y116632D01*
Y118764D01*
X373702Y119297D01*
X374768D01*
X375301Y118764D01*
Y118231D01*
X374768Y117698D01*
X373168D01*
X379000Y101797D02*
Y99132D01*
X378467Y98598D01*
X377400D01*
X376867Y99132D01*
Y101797D01*
X375801Y98598D02*
X374735D01*
X375268D01*
Y101797D01*
X375801Y101264D01*
X373135D02*
X372602Y101797D01*
X371536D01*
X371003Y101264D01*
Y99132D01*
X371536Y98598D01*
X372602D01*
X373135Y99132D01*
Y101264D01*
X199301Y142098D02*
X201434D01*
X202500Y141032D01*
X201434Y139966D01*
X199301D01*
X199834Y136767D02*
X199301Y137300D01*
Y138366D01*
X199834Y138900D01*
X201967D01*
X202500Y138366D01*
Y137300D01*
X201967Y136767D01*
X199834Y133568D02*
X199301Y134101D01*
Y135167D01*
X199834Y135701D01*
X201967D01*
X202500Y135167D01*
Y134101D01*
X201967Y133568D01*
X202500Y132501D02*
Y131435D01*
Y131968D01*
X199301D01*
X199834Y132501D01*
X36519Y240000D02*
Y237867D01*
X35452Y238934D02*
X37585D01*
X34919Y236801D02*
X38118D01*
Y234668D01*
Y233602D02*
Y232536D01*
Y233069D01*
X34919D01*
X35452Y233602D01*
X16519Y240000D02*
Y237867D01*
X15452Y238934D02*
X17585D01*
X14919Y236801D02*
X18118D01*
Y234668D01*
Y231469D02*
Y233602D01*
X15985Y231469D01*
X15452D01*
X14919Y232003D01*
Y233069D01*
X15452Y233602D01*
X31519Y236500D02*
Y234367D01*
X30452Y235434D02*
X32585D01*
X29919Y233301D02*
X33118D01*
Y231168D01*
X30452Y230102D02*
X29919Y229569D01*
Y228503D01*
X30452Y227969D01*
X30986D01*
X31519Y228503D01*
Y229036D01*
Y228503D01*
X32052Y227969D01*
X32585D01*
X33118Y228503D01*
Y229569D01*
X32585Y230102D01*
X26519Y240000D02*
Y237867D01*
X25452Y238934D02*
X27585D01*
X24919Y236801D02*
X28118D01*
Y234668D01*
Y232003D02*
X24919D01*
X26519Y233602D01*
Y231469D01*
X6019Y241000D02*
Y238867D01*
X4952Y239934D02*
X7085D01*
X4419Y237801D02*
X7618D01*
Y235668D01*
X4419Y232469D02*
Y234602D01*
X6019D01*
X5486Y233536D01*
Y233003D01*
X6019Y232469D01*
X7085D01*
X7618Y233003D01*
Y234069D01*
X7085Y234602D01*
X21519Y236500D02*
Y234367D01*
X20452Y235434D02*
X22585D01*
X19919Y233301D02*
X23118D01*
Y231168D01*
X19919Y227969D02*
X20452Y229036D01*
X21519Y230102D01*
X22585D01*
X23118Y229569D01*
Y228503D01*
X22585Y227969D01*
X22052D01*
X21519Y228503D01*
Y230102D01*
X41519Y236500D02*
Y234367D01*
X40452Y235434D02*
X42585D01*
X39919Y233301D02*
X43118D01*
Y231168D01*
X39919Y230102D02*
Y227969D01*
X40452D01*
X42585Y230102D01*
X43118D01*
X11519Y237000D02*
Y234867D01*
X10452Y235934D02*
X12585D01*
X9919Y233801D02*
X13118D01*
Y231668D01*
X10452Y230602D02*
X9919Y230069D01*
Y229003D01*
X10452Y228469D01*
X10986D01*
X11519Y229003D01*
X12052Y228469D01*
X12585D01*
X13118Y229003D01*
Y230069D01*
X12585Y230602D01*
X12052D01*
X11519Y230069D01*
X10986Y230602D01*
X10452D01*
X11519Y230069D02*
Y229003D01*
X83118Y235100D02*
X80985D01*
X79919Y236699D02*
Y233500D01*
X77786D01*
X76720D02*
X75654D01*
X76187D01*
Y236699D01*
X76720Y236166D01*
X70618Y234599D02*
X68485D01*
X67419Y236199D02*
Y233000D01*
X65286D01*
X62088D02*
X64220D01*
X62088Y235133D01*
Y235666D01*
X62621Y236199D01*
X63687D01*
X64220Y235666D01*
X171218Y239000D02*
Y241133D01*
X172817Y242199D02*
X169618D01*
Y244332D01*
X172284Y245398D02*
X172817Y245931D01*
Y246997D01*
X172284Y247531D01*
X171751D01*
X171218Y246997D01*
Y246464D01*
Y246997D01*
X170684Y247531D01*
X170151D01*
X169618Y246997D01*
Y245931D01*
X170151Y245398D01*
X63618Y246099D02*
X61485D01*
X60419Y247699D02*
Y244500D01*
X58286D01*
X55621D02*
Y247699D01*
X57220Y246099D01*
X55088D01*
X174118Y230901D02*
X176251D01*
X177317Y229301D02*
Y232500D01*
X179450D01*
X182649Y229301D02*
X180516D01*
Y230901D01*
X181582Y230367D01*
X182115D01*
X182649Y230901D01*
Y231967D01*
X182115Y232500D01*
X181049D01*
X180516Y231967D01*
X174118Y215401D02*
X176251D01*
X177317Y213801D02*
Y217000D01*
X179450D01*
X182649Y213801D02*
X181582Y214334D01*
X180516Y215401D01*
Y216467D01*
X181049Y217000D01*
X182115D01*
X182649Y216467D01*
Y215934D01*
X182115Y215401D01*
X180516D01*
X173618Y197400D02*
X175751D01*
X176817Y195801D02*
Y199000D01*
X178950D01*
X180016Y195801D02*
X182149D01*
Y196334D01*
X180016Y198467D01*
Y199000D01*
X96986Y192666D02*
X97519Y193199D01*
X98585D01*
X99118Y192666D01*
Y190533D01*
X98585Y190000D01*
X97519D01*
X96986Y190533D01*
X95919Y190000D02*
Y193199D01*
X94320D01*
X93787Y192666D01*
Y191600D01*
X94320Y191066D01*
X95919D01*
X90588Y192666D02*
X91121Y193199D01*
X92187D01*
X92720Y192666D01*
Y192133D01*
X92187Y191600D01*
X91121D01*
X90588Y191066D01*
Y190533D01*
X91121Y190000D01*
X92187D01*
X92720Y190533D01*
X89521Y190000D02*
X88455D01*
X88988D01*
Y193199D01*
X89521Y192666D01*
X96986Y186666D02*
X97519Y187199D01*
X98585D01*
X99118Y186666D01*
Y184533D01*
X98585Y184000D01*
X97519D01*
X96986Y184533D01*
X95919Y184000D02*
Y187199D01*
X94320D01*
X93787Y186666D01*
Y185600D01*
X94320Y185066D01*
X95919D01*
X90588Y186666D02*
X91121Y187199D01*
X92187D01*
X92720Y186666D01*
Y186133D01*
X92187Y185600D01*
X91121D01*
X90588Y185066D01*
Y184533D01*
X91121Y184000D01*
X92187D01*
X92720Y184533D01*
X87389Y184000D02*
X89521D01*
X87389Y186133D01*
Y186666D01*
X87922Y187199D01*
X88988D01*
X89521Y186666D01*
X129952Y245867D02*
X129419Y246400D01*
Y247467D01*
X129952Y248000D01*
X132085D01*
X132618Y247467D01*
Y246400D01*
X132085Y245867D01*
X132618Y244801D02*
X129419D01*
Y243201D01*
X129952Y242668D01*
X131019D01*
X131552Y243201D01*
Y244801D01*
X129952Y239469D02*
X129419Y240003D01*
Y241069D01*
X129952Y241602D01*
X130485D01*
X131019Y241069D01*
Y240003D01*
X131552Y239469D01*
X132085D01*
X132618Y240003D01*
Y241069D01*
X132085Y241602D01*
X129952Y238403D02*
X129419Y237870D01*
Y236804D01*
X129952Y236270D01*
X130485D01*
X131019Y236804D01*
Y237337D01*
Y236804D01*
X131552Y236270D01*
X132085D01*
X132618Y236804D01*
Y237870D01*
X132085Y238403D01*
X123952Y245867D02*
X123419Y246400D01*
Y247467D01*
X123952Y248000D01*
X126085D01*
X126618Y247467D01*
Y246400D01*
X126085Y245867D01*
X126618Y244801D02*
X123419D01*
Y243201D01*
X123952Y242668D01*
X125019D01*
X125552Y243201D01*
Y244801D01*
X123952Y239469D02*
X123419Y240003D01*
Y241069D01*
X123952Y241602D01*
X124486D01*
X125019Y241069D01*
Y240003D01*
X125552Y239469D01*
X126085D01*
X126618Y240003D01*
Y241069D01*
X126085Y241602D01*
X126618Y236804D02*
X123419D01*
X125019Y238403D01*
Y236270D01*
X117952Y245867D02*
X117419Y246400D01*
Y247467D01*
X117952Y248000D01*
X120085D01*
X120618Y247467D01*
Y246400D01*
X120085Y245867D01*
X120618Y244801D02*
X117419D01*
Y243201D01*
X117952Y242668D01*
X119019D01*
X119552Y243201D01*
Y244801D01*
X117952Y239469D02*
X117419Y240003D01*
Y241069D01*
X117952Y241602D01*
X118485D01*
X119019Y241069D01*
Y240003D01*
X119552Y239469D01*
X120085D01*
X120618Y240003D01*
Y241069D01*
X120085Y241602D01*
X117419Y236270D02*
Y238403D01*
X119019D01*
X118485Y237337D01*
Y236804D01*
X119019Y236270D01*
X120085D01*
X120618Y236804D01*
Y237870D01*
X120085Y238403D01*
X111952Y245867D02*
X111419Y246400D01*
Y247467D01*
X111952Y248000D01*
X114085D01*
X114618Y247467D01*
Y246400D01*
X114085Y245867D01*
X114618Y244801D02*
X111419D01*
Y243201D01*
X111952Y242668D01*
X113019D01*
X113552Y243201D01*
Y244801D01*
X111952Y239469D02*
X111419Y240003D01*
Y241069D01*
X111952Y241602D01*
X112486D01*
X113019Y241069D01*
Y240003D01*
X113552Y239469D01*
X114085D01*
X114618Y240003D01*
Y241069D01*
X114085Y241602D01*
X111419Y236270D02*
X111952Y237337D01*
X113019Y238403D01*
X114085D01*
X114618Y237870D01*
Y236804D01*
X114085Y236270D01*
X113552D01*
X113019Y236804D01*
Y238403D01*
X105952Y245867D02*
X105419Y246400D01*
Y247467D01*
X105952Y248000D01*
X108085D01*
X108618Y247467D01*
Y246400D01*
X108085Y245867D01*
X108618Y244801D02*
X105419D01*
Y243201D01*
X105952Y242668D01*
X107019D01*
X107552Y243201D01*
Y244801D01*
X105952Y239469D02*
X105419Y240003D01*
Y241069D01*
X105952Y241602D01*
X106485D01*
X107019Y241069D01*
Y240003D01*
X107552Y239469D01*
X108085D01*
X108618Y240003D01*
Y241069D01*
X108085Y241602D01*
X105419Y238403D02*
Y236270D01*
X105952D01*
X108085Y238403D01*
X108618D01*
X100452Y245867D02*
X99919Y246400D01*
Y247467D01*
X100452Y248000D01*
X102585D01*
X103118Y247467D01*
Y246400D01*
X102585Y245867D01*
X103118Y244801D02*
X99919D01*
Y243201D01*
X100452Y242668D01*
X101519D01*
X102052Y243201D01*
Y244801D01*
X100452Y239469D02*
X99919Y240003D01*
Y241069D01*
X100452Y241602D01*
X100986D01*
X101519Y241069D01*
Y240003D01*
X102052Y239469D01*
X102585D01*
X103118Y240003D01*
Y241069D01*
X102585Y241602D01*
X100452Y238403D02*
X99919Y237870D01*
Y236804D01*
X100452Y236270D01*
X100986D01*
X101519Y236804D01*
X102052Y236270D01*
X102585D01*
X103118Y236804D01*
Y237870D01*
X102585Y238403D01*
X102052D01*
X101519Y237870D01*
X100986Y238403D01*
X100452D01*
X101519Y237870D02*
Y236804D01*
X168485Y190666D02*
X169019Y191199D01*
X170085D01*
X170618Y190666D01*
Y188533D01*
X170085Y188000D01*
X169019D01*
X168485Y188533D01*
Y189600D01*
X169552D01*
X167419Y188000D02*
X166353D01*
X166886D01*
Y191199D01*
X167419Y190666D01*
X158485Y190676D02*
X159019Y191209D01*
X160085D01*
X160618Y190676D01*
Y188543D01*
X160085Y188010D01*
X159019D01*
X158485Y188543D01*
Y189610D01*
X159552D01*
X155287Y188010D02*
X157419D01*
X155287Y190143D01*
Y190676D01*
X155820Y191209D01*
X156886D01*
X157419Y190676D01*
X53486Y255166D02*
X54019Y255699D01*
X55085D01*
X55618Y255166D01*
Y253033D01*
X55085Y252500D01*
X54019D01*
X53486Y253033D01*
Y254099D01*
X54552D01*
X50820Y252500D02*
Y255699D01*
X52419Y254099D01*
X50287D01*
X183952Y245367D02*
X183419Y245901D01*
Y246967D01*
X183952Y247500D01*
X186085D01*
X186618Y246967D01*
Y245901D01*
X186085Y245367D01*
X185019D01*
Y246434D01*
X183419Y242168D02*
Y244301D01*
X185019D01*
X184485Y243235D01*
Y242702D01*
X185019Y242168D01*
X186085D01*
X186618Y242702D01*
Y243768D01*
X186085Y244301D01*
X77118Y204199D02*
X76052D01*
X76585D01*
Y201000D01*
X77118D01*
X76052D01*
X74452D02*
Y204199D01*
X72320Y201000D01*
Y204199D01*
X71253Y201000D02*
X70187D01*
X70720D01*
Y204199D01*
X71253Y203666D01*
X93919Y248000D02*
Y246934D01*
Y247467D01*
X97118D01*
Y248000D01*
Y246934D01*
Y245334D02*
X93919D01*
X97118Y243202D01*
X93919D01*
X97118Y240003D02*
Y242135D01*
X94986Y240003D01*
X94452D01*
X93919Y240536D01*
Y241602D01*
X94452Y242135D01*
X149986Y199666D02*
X150519Y200199D01*
X151585D01*
X152118Y199666D01*
Y199133D01*
X151585Y198600D01*
X150519D01*
X149986Y198066D01*
Y197533D01*
X150519Y197000D01*
X151585D01*
X152118Y197533D01*
X146786Y199666D02*
X147320Y200199D01*
X148386D01*
X148919Y199666D01*
Y197533D01*
X148386Y197000D01*
X147320D01*
X146786Y197533D01*
X145720Y200199D02*
Y197000D01*
X143588D01*
X142521D02*
X141455D01*
X141988D01*
Y200199D01*
X142521Y199666D01*
X183618Y240199D02*
Y237533D01*
X183085Y237000D01*
X182019D01*
X181485Y237533D01*
Y240199D01*
X178287D02*
X179353Y239666D01*
X180419Y238599D01*
Y237533D01*
X179886Y237000D01*
X178820D01*
X178287Y237533D01*
Y238066D01*
X178820Y238599D01*
X180419D01*
X183618Y224199D02*
Y221533D01*
X183085Y221000D01*
X182019D01*
X181485Y221533D01*
Y224199D01*
X180419Y223666D02*
X179886Y224199D01*
X178820D01*
X178287Y223666D01*
Y223133D01*
X178820Y222600D01*
X178287Y222066D01*
Y221533D01*
X178820Y221000D01*
X179886D01*
X180419Y221533D01*
Y222066D01*
X179886Y222600D01*
X180419Y223133D01*
Y223666D01*
X179886Y222600D02*
X178820D01*
X183618Y206699D02*
Y204033D01*
X183085Y203500D01*
X182019D01*
X181485Y204033D01*
Y206699D01*
X180419Y204033D02*
X179886Y203500D01*
X178820D01*
X178287Y204033D01*
Y206166D01*
X178820Y206699D01*
X179886D01*
X180419Y206166D01*
Y205633D01*
X179886Y205100D01*
X178287D01*
X184118Y189199D02*
Y186533D01*
X183585Y186000D01*
X182519D01*
X181985Y186533D01*
Y189199D01*
X180919Y186000D02*
X179853D01*
X180386D01*
Y189199D01*
X180919Y188666D01*
X178253D02*
X177720Y189199D01*
X176654D01*
X176121Y188666D01*
Y186533D01*
X176654Y186000D01*
X177720D01*
X178253Y186533D01*
Y188666D01*
X4419Y229500D02*
X6552D01*
X7618Y228434D01*
X6552Y227367D01*
X4419D01*
X4952Y224168D02*
X4419Y224701D01*
Y225768D01*
X4952Y226301D01*
X7085D01*
X7618Y225768D01*
Y224701D01*
X7085Y224168D01*
X4952Y220969D02*
X4419Y221503D01*
Y222569D01*
X4952Y223102D01*
X7085D01*
X7618Y222569D01*
Y221503D01*
X7085Y220969D01*
X7618Y219903D02*
Y218837D01*
Y219370D01*
X4419D01*
X4952Y219903D01*
X231400Y240000D02*
Y237867D01*
X230334Y238934D02*
X232467D01*
X229801Y236801D02*
X233000D01*
Y234668D01*
Y233602D02*
Y232536D01*
Y233069D01*
X229801D01*
X230334Y233602D01*
X211401Y240000D02*
Y237867D01*
X210334Y238934D02*
X212467D01*
X209801Y236801D02*
X213000D01*
Y234668D01*
Y231469D02*
Y233602D01*
X210867Y231469D01*
X210334D01*
X209801Y232003D01*
Y233069D01*
X210334Y233602D01*
X226400Y236500D02*
Y234367D01*
X225334Y235434D02*
X227467D01*
X224801Y233301D02*
X228000D01*
Y231168D01*
X225334Y230102D02*
X224801Y229569D01*
Y228503D01*
X225334Y227969D01*
X225867D01*
X226400Y228503D01*
Y229036D01*
Y228503D01*
X226934Y227969D01*
X227467D01*
X228000Y228503D01*
Y229569D01*
X227467Y230102D01*
X221400Y240000D02*
Y237867D01*
X220334Y238934D02*
X222467D01*
X219801Y236801D02*
X223000D01*
Y234668D01*
Y232003D02*
X219801D01*
X221400Y233602D01*
Y231469D01*
X200901Y241000D02*
Y238867D01*
X199834Y239934D02*
X201967D01*
X199301Y237801D02*
X202500D01*
Y235668D01*
X199301Y232469D02*
Y234602D01*
X200901D01*
X200367Y233536D01*
Y233003D01*
X200901Y232469D01*
X201967D01*
X202500Y233003D01*
Y234069D01*
X201967Y234602D01*
X216401Y236500D02*
Y234367D01*
X215334Y235434D02*
X217467D01*
X214801Y233301D02*
X218000D01*
Y231168D01*
X214801Y227969D02*
X215334Y229036D01*
X216401Y230102D01*
X217467D01*
X218000Y229569D01*
Y228503D01*
X217467Y227969D01*
X216934D01*
X216401Y228503D01*
Y230102D01*
X236401Y236500D02*
Y234367D01*
X235334Y235434D02*
X237467D01*
X234801Y233301D02*
X238000D01*
Y231168D01*
X234801Y230102D02*
Y227969D01*
X235334D01*
X237467Y230102D01*
X238000D01*
X206400Y237000D02*
Y234867D01*
X205334Y235934D02*
X207467D01*
X204801Y233801D02*
X208000D01*
Y231668D01*
X205334Y230602D02*
X204801Y230069D01*
Y229003D01*
X205334Y228469D01*
X205867D01*
X206400Y229003D01*
X206934Y228469D01*
X207467D01*
X208000Y229003D01*
Y230069D01*
X207467Y230602D01*
X206934D01*
X206400Y230069D01*
X205867Y230602D01*
X205334D01*
X206400Y230069D02*
Y229003D01*
X278000Y235100D02*
X275867D01*
X274801Y236699D02*
Y233500D01*
X272668D01*
X271602D02*
X270536D01*
X271069D01*
Y236699D01*
X271602Y236166D01*
X265500Y234599D02*
X263367D01*
X262301Y236199D02*
Y233000D01*
X260168D01*
X256969D02*
X259102D01*
X256969Y235133D01*
Y235666D01*
X257503Y236199D01*
X258569D01*
X259102Y235666D01*
X366100Y239000D02*
Y241133D01*
X367699Y242199D02*
X364500D01*
Y244332D01*
X367166Y245398D02*
X367699Y245931D01*
Y246997D01*
X367166Y247531D01*
X366633D01*
X366100Y246997D01*
Y246464D01*
Y246997D01*
X365566Y247531D01*
X365033D01*
X364500Y246997D01*
Y245931D01*
X365033Y245398D01*
X258500Y246099D02*
X256367D01*
X255301Y247699D02*
Y244500D01*
X253168D01*
X250503D02*
Y247699D01*
X252102Y246099D01*
X249969D01*
X369000Y230901D02*
X371133D01*
X372199Y229301D02*
Y232500D01*
X374332D01*
X377531Y229301D02*
X375398D01*
Y230901D01*
X376464Y230367D01*
X376997D01*
X377531Y230901D01*
Y231967D01*
X376997Y232500D01*
X375931D01*
X375398Y231967D01*
X369000Y215401D02*
X371133D01*
X372199Y213801D02*
Y217000D01*
X374332D01*
X377531Y213801D02*
X376464Y214334D01*
X375398Y215401D01*
Y216467D01*
X375931Y217000D01*
X376997D01*
X377531Y216467D01*
Y215934D01*
X376997Y215401D01*
X375398D01*
X368500Y197400D02*
X370633D01*
X371699Y195801D02*
Y199000D01*
X373832D01*
X374898Y195801D02*
X377031D01*
Y196334D01*
X374898Y198467D01*
Y199000D01*
X291867Y192666D02*
X292401Y193199D01*
X293467D01*
X294000Y192666D01*
Y190533D01*
X293467Y190000D01*
X292401D01*
X291867Y190533D01*
X290801Y190000D02*
Y193199D01*
X289201D01*
X288668Y192666D01*
Y191600D01*
X289201Y191066D01*
X290801D01*
X285469Y192666D02*
X286003Y193199D01*
X287069D01*
X287602Y192666D01*
Y192133D01*
X287069Y191600D01*
X286003D01*
X285469Y191066D01*
Y190533D01*
X286003Y190000D01*
X287069D01*
X287602Y190533D01*
X284403Y190000D02*
X283337D01*
X283870D01*
Y193199D01*
X284403Y192666D01*
X291867Y186666D02*
X292401Y187199D01*
X293467D01*
X294000Y186666D01*
Y184533D01*
X293467Y184000D01*
X292401D01*
X291867Y184533D01*
X290801Y184000D02*
Y187199D01*
X289201D01*
X288668Y186666D01*
Y185600D01*
X289201Y185066D01*
X290801D01*
X285469Y186666D02*
X286003Y187199D01*
X287069D01*
X287602Y186666D01*
Y186133D01*
X287069Y185600D01*
X286003D01*
X285469Y185066D01*
Y184533D01*
X286003Y184000D01*
X287069D01*
X287602Y184533D01*
X282270Y184000D02*
X284403D01*
X282270Y186133D01*
Y186666D01*
X282804Y187199D01*
X283870D01*
X284403Y186666D01*
X324834Y245867D02*
X324301Y246400D01*
Y247467D01*
X324834Y248000D01*
X326967D01*
X327500Y247467D01*
Y246400D01*
X326967Y245867D01*
X327500Y244801D02*
X324301D01*
Y243201D01*
X324834Y242668D01*
X325901D01*
X326434Y243201D01*
Y244801D01*
X324834Y239469D02*
X324301Y240003D01*
Y241069D01*
X324834Y241602D01*
X325367D01*
X325901Y241069D01*
Y240003D01*
X326434Y239469D01*
X326967D01*
X327500Y240003D01*
Y241069D01*
X326967Y241602D01*
X324834Y238403D02*
X324301Y237870D01*
Y236804D01*
X324834Y236270D01*
X325367D01*
X325901Y236804D01*
Y237337D01*
Y236804D01*
X326434Y236270D01*
X326967D01*
X327500Y236804D01*
Y237870D01*
X326967Y238403D01*
X318834Y245867D02*
X318301Y246400D01*
Y247467D01*
X318834Y248000D01*
X320967D01*
X321500Y247467D01*
Y246400D01*
X320967Y245867D01*
X321500Y244801D02*
X318301D01*
Y243201D01*
X318834Y242668D01*
X319900D01*
X320434Y243201D01*
Y244801D01*
X318834Y239469D02*
X318301Y240003D01*
Y241069D01*
X318834Y241602D01*
X319367D01*
X319900Y241069D01*
Y240003D01*
X320434Y239469D01*
X320967D01*
X321500Y240003D01*
Y241069D01*
X320967Y241602D01*
X321500Y236804D02*
X318301D01*
X319900Y238403D01*
Y236270D01*
X312834Y245867D02*
X312301Y246400D01*
Y247467D01*
X312834Y248000D01*
X314967D01*
X315500Y247467D01*
Y246400D01*
X314967Y245867D01*
X315500Y244801D02*
X312301D01*
Y243201D01*
X312834Y242668D01*
X313900D01*
X314434Y243201D01*
Y244801D01*
X312834Y239469D02*
X312301Y240003D01*
Y241069D01*
X312834Y241602D01*
X313367D01*
X313900Y241069D01*
Y240003D01*
X314434Y239469D01*
X314967D01*
X315500Y240003D01*
Y241069D01*
X314967Y241602D01*
X312301Y236270D02*
Y238403D01*
X313900D01*
X313367Y237337D01*
Y236804D01*
X313900Y236270D01*
X314967D01*
X315500Y236804D01*
Y237870D01*
X314967Y238403D01*
X306834Y245867D02*
X306301Y246400D01*
Y247467D01*
X306834Y248000D01*
X308967D01*
X309500Y247467D01*
Y246400D01*
X308967Y245867D01*
X309500Y244801D02*
X306301D01*
Y243201D01*
X306834Y242668D01*
X307901D01*
X308434Y243201D01*
Y244801D01*
X306834Y239469D02*
X306301Y240003D01*
Y241069D01*
X306834Y241602D01*
X307367D01*
X307901Y241069D01*
Y240003D01*
X308434Y239469D01*
X308967D01*
X309500Y240003D01*
Y241069D01*
X308967Y241602D01*
X306301Y236270D02*
X306834Y237337D01*
X307901Y238403D01*
X308967D01*
X309500Y237870D01*
Y236804D01*
X308967Y236270D01*
X308434D01*
X307901Y236804D01*
Y238403D01*
X300834Y245867D02*
X300301Y246400D01*
Y247467D01*
X300834Y248000D01*
X302967D01*
X303500Y247467D01*
Y246400D01*
X302967Y245867D01*
X303500Y244801D02*
X300301D01*
Y243201D01*
X300834Y242668D01*
X301901D01*
X302434Y243201D01*
Y244801D01*
X300834Y239469D02*
X300301Y240003D01*
Y241069D01*
X300834Y241602D01*
X301367D01*
X301901Y241069D01*
Y240003D01*
X302434Y239469D01*
X302967D01*
X303500Y240003D01*
Y241069D01*
X302967Y241602D01*
X300301Y238403D02*
Y236270D01*
X300834D01*
X302967Y238403D01*
X303500D01*
X295334Y245867D02*
X294801Y246400D01*
Y247467D01*
X295334Y248000D01*
X297467D01*
X298000Y247467D01*
Y246400D01*
X297467Y245867D01*
X298000Y244801D02*
X294801D01*
Y243201D01*
X295334Y242668D01*
X296400D01*
X296934Y243201D01*
Y244801D01*
X295334Y239469D02*
X294801Y240003D01*
Y241069D01*
X295334Y241602D01*
X295867D01*
X296400Y241069D01*
Y240003D01*
X296934Y239469D01*
X297467D01*
X298000Y240003D01*
Y241069D01*
X297467Y241602D01*
X295334Y238403D02*
X294801Y237870D01*
Y236804D01*
X295334Y236270D01*
X295867D01*
X296400Y236804D01*
X296934Y236270D01*
X297467D01*
X298000Y236804D01*
Y237870D01*
X297467Y238403D01*
X296934D01*
X296400Y237870D01*
X295867Y238403D01*
X295334D01*
X296400Y237870D02*
Y236804D01*
X363367Y190666D02*
X363900Y191199D01*
X364967D01*
X365500Y190666D01*
Y188533D01*
X364967Y188000D01*
X363900D01*
X363367Y188533D01*
Y189600D01*
X364434D01*
X362301Y188000D02*
X361235D01*
X361768D01*
Y191199D01*
X362301Y190666D01*
X353367Y190676D02*
X353901Y191209D01*
X354967D01*
X355500Y190676D01*
Y188543D01*
X354967Y188010D01*
X353901D01*
X353367Y188543D01*
Y189610D01*
X354434D01*
X350168Y188010D02*
X352301D01*
X350168Y190143D01*
Y190676D01*
X350701Y191209D01*
X351768D01*
X352301Y190676D01*
X248367Y255166D02*
X248901Y255699D01*
X249967D01*
X250500Y255166D01*
Y253033D01*
X249967Y252500D01*
X248901D01*
X248367Y253033D01*
Y254099D01*
X249434D01*
X245702Y252500D02*
Y255699D01*
X247301Y254099D01*
X245168D01*
X378834Y245367D02*
X378301Y245901D01*
Y246967D01*
X378834Y247500D01*
X380967D01*
X381500Y246967D01*
Y245901D01*
X380967Y245367D01*
X379901D01*
Y246434D01*
X378301Y242168D02*
Y244301D01*
X379901D01*
X379367Y243235D01*
Y242702D01*
X379901Y242168D01*
X380967D01*
X381500Y242702D01*
Y243768D01*
X380967Y244301D01*
X272000Y204199D02*
X270934D01*
X271467D01*
Y201000D01*
X272000D01*
X270934D01*
X269334D02*
Y204199D01*
X267202Y201000D01*
Y204199D01*
X266135Y201000D02*
X265069D01*
X265602D01*
Y204199D01*
X266135Y203666D01*
X288801Y248000D02*
Y246934D01*
Y247467D01*
X292000D01*
Y248000D01*
Y246934D01*
Y245334D02*
X288801D01*
X292000Y243202D01*
X288801D01*
X292000Y240003D02*
Y242135D01*
X289867Y240003D01*
X289334D01*
X288801Y240536D01*
Y241602D01*
X289334Y242135D01*
X344867Y199666D02*
X345401Y200199D01*
X346467D01*
X347000Y199666D01*
Y199133D01*
X346467Y198600D01*
X345401D01*
X344867Y198066D01*
Y197533D01*
X345401Y197000D01*
X346467D01*
X347000Y197533D01*
X341668Y199666D02*
X342201Y200199D01*
X343268D01*
X343801Y199666D01*
Y197533D01*
X343268Y197000D01*
X342201D01*
X341668Y197533D01*
X340602Y200199D02*
Y197000D01*
X338469D01*
X337403D02*
X336337D01*
X336870D01*
Y200199D01*
X337403Y199666D01*
X378500Y240199D02*
Y237533D01*
X377967Y237000D01*
X376901D01*
X376367Y237533D01*
Y240199D01*
X373168D02*
X374235Y239666D01*
X375301Y238599D01*
Y237533D01*
X374768Y237000D01*
X373702D01*
X373168Y237533D01*
Y238066D01*
X373702Y238599D01*
X375301D01*
X378500Y224199D02*
Y221533D01*
X377967Y221000D01*
X376901D01*
X376367Y221533D01*
Y224199D01*
X375301Y223666D02*
X374768Y224199D01*
X373702D01*
X373168Y223666D01*
Y223133D01*
X373702Y222600D01*
X373168Y222066D01*
Y221533D01*
X373702Y221000D01*
X374768D01*
X375301Y221533D01*
Y222066D01*
X374768Y222600D01*
X375301Y223133D01*
Y223666D01*
X374768Y222600D02*
X373702D01*
X378500Y206699D02*
Y204033D01*
X377967Y203500D01*
X376901D01*
X376367Y204033D01*
Y206699D01*
X375301Y204033D02*
X374768Y203500D01*
X373702D01*
X373168Y204033D01*
Y206166D01*
X373702Y206699D01*
X374768D01*
X375301Y206166D01*
Y205633D01*
X374768Y205100D01*
X373168D01*
X379000Y189199D02*
Y186533D01*
X378467Y186000D01*
X377400D01*
X376867Y186533D01*
Y189199D01*
X375801Y186000D02*
X374735D01*
X375268D01*
Y189199D01*
X375801Y188666D01*
X373135D02*
X372602Y189199D01*
X371536D01*
X371003Y188666D01*
Y186533D01*
X371536Y186000D01*
X372602D01*
X373135Y186533D01*
Y188666D01*
X199301Y229500D02*
X201434D01*
X202500Y228434D01*
X201434Y227367D01*
X199301D01*
X199834Y224168D02*
X199301Y224701D01*
Y225768D01*
X199834Y226301D01*
X201967D01*
X202500Y225768D01*
Y224701D01*
X201967Y224168D01*
X199834Y220969D02*
X199301Y221503D01*
Y222569D01*
X199834Y223102D01*
X201967D01*
X202500Y222569D01*
Y221503D01*
X201967Y220969D01*
X202500Y219903D02*
Y218837D01*
Y219370D01*
X199301D01*
X199834Y219903D01*
X36519Y327402D02*
Y325269D01*
X35452Y326335D02*
X37585D01*
X34919Y324203D02*
X38118D01*
Y322070D01*
Y321004D02*
Y319937D01*
Y320470D01*
X34919D01*
X35452Y321004D01*
X16519Y327402D02*
Y325269D01*
X15452Y326335D02*
X17585D01*
X14919Y324203D02*
X18118D01*
Y322070D01*
Y318871D02*
Y321004D01*
X15985Y318871D01*
X15452D01*
X14919Y319404D01*
Y320470D01*
X15452Y321004D01*
X31519Y323902D02*
Y321769D01*
X30452Y322835D02*
X32585D01*
X29919Y320703D02*
X33118D01*
Y318570D01*
X30452Y317504D02*
X29919Y316970D01*
Y315904D01*
X30452Y315371D01*
X30986D01*
X31519Y315904D01*
Y316437D01*
Y315904D01*
X32052Y315371D01*
X32585D01*
X33118Y315904D01*
Y316970D01*
X32585Y317504D01*
X26519Y327402D02*
Y325269D01*
X25452Y326335D02*
X27585D01*
X24919Y324203D02*
X28118D01*
Y322070D01*
Y319404D02*
X24919D01*
X26519Y321004D01*
Y318871D01*
X6019Y328402D02*
Y326269D01*
X4952Y327335D02*
X7085D01*
X4419Y325203D02*
X7618D01*
Y323070D01*
X4419Y319871D02*
Y322004D01*
X6019D01*
X5486Y320937D01*
Y320404D01*
X6019Y319871D01*
X7085D01*
X7618Y320404D01*
Y321470D01*
X7085Y322004D01*
X21519Y323902D02*
Y321769D01*
X20452Y322835D02*
X22585D01*
X19919Y320703D02*
X23118D01*
Y318570D01*
X19919Y315371D02*
X20452Y316437D01*
X21519Y317504D01*
X22585D01*
X23118Y316970D01*
Y315904D01*
X22585Y315371D01*
X22052D01*
X21519Y315904D01*
Y317504D01*
X41519Y323902D02*
Y321769D01*
X40452Y322835D02*
X42585D01*
X39919Y320703D02*
X43118D01*
Y318570D01*
X39919Y317504D02*
Y315371D01*
X40452D01*
X42585Y317504D01*
X43118D01*
X11519Y324402D02*
Y322269D01*
X10452Y323335D02*
X12585D01*
X9919Y321203D02*
X13118D01*
Y319070D01*
X10452Y318004D02*
X9919Y317471D01*
Y316404D01*
X10452Y315871D01*
X10986D01*
X11519Y316404D01*
X12052Y315871D01*
X12585D01*
X13118Y316404D01*
Y317471D01*
X12585Y318004D01*
X12052D01*
X11519Y317471D01*
X10986Y318004D01*
X10452D01*
X11519Y317471D02*
Y316404D01*
X83118Y322501D02*
X80985D01*
X79919Y324100D02*
Y320902D01*
X77786D01*
X76720D02*
X75654D01*
X76187D01*
Y324100D01*
X76720Y323567D01*
X70618Y322001D02*
X68485D01*
X67419Y323601D02*
Y320402D01*
X65286D01*
X62088D02*
X64220D01*
X62088Y322534D01*
Y323067D01*
X62621Y323601D01*
X63687D01*
X64220Y323067D01*
X171218Y326402D02*
Y328534D01*
X172817Y329601D02*
X169618D01*
Y331733D01*
X172284Y332800D02*
X172817Y333333D01*
Y334399D01*
X172284Y334932D01*
X171751D01*
X171218Y334399D01*
Y333866D01*
Y334399D01*
X170684Y334932D01*
X170151D01*
X169618Y334399D01*
Y333333D01*
X170151Y332800D01*
X63618Y333501D02*
X61485D01*
X60419Y335101D02*
Y331902D01*
X58286D01*
X55621D02*
Y335101D01*
X57220Y333501D01*
X55088D01*
X174118Y318302D02*
X176251D01*
X177317Y316703D02*
Y319902D01*
X179450D01*
X182649Y316703D02*
X180516D01*
Y318302D01*
X181582Y317769D01*
X182115D01*
X182649Y318302D01*
Y319368D01*
X182115Y319902D01*
X181049D01*
X180516Y319368D01*
X174118Y302802D02*
X176251D01*
X177317Y301203D02*
Y304402D01*
X179450D01*
X182649Y301203D02*
X181582Y301736D01*
X180516Y302802D01*
Y303868D01*
X181049Y304402D01*
X182115D01*
X182649Y303868D01*
Y303335D01*
X182115Y302802D01*
X180516D01*
X173618Y284802D02*
X175751D01*
X176817Y283203D02*
Y286402D01*
X178950D01*
X180016Y283203D02*
X182149D01*
Y283736D01*
X180016Y285868D01*
Y286402D01*
X96986Y280067D02*
X97519Y280601D01*
X98585D01*
X99118Y280067D01*
Y277935D01*
X98585Y277402D01*
X97519D01*
X96986Y277935D01*
X95919Y277402D02*
Y280601D01*
X94320D01*
X93787Y280067D01*
Y279001D01*
X94320Y278468D01*
X95919D01*
X90588Y280067D02*
X91121Y280601D01*
X92187D01*
X92720Y280067D01*
Y279534D01*
X92187Y279001D01*
X91121D01*
X90588Y278468D01*
Y277935D01*
X91121Y277402D01*
X92187D01*
X92720Y277935D01*
X89521Y277402D02*
X88455D01*
X88988D01*
Y280601D01*
X89521Y280067D01*
X96986Y274067D02*
X97519Y274601D01*
X98585D01*
X99118Y274067D01*
Y271935D01*
X98585Y271402D01*
X97519D01*
X96986Y271935D01*
X95919Y271402D02*
Y274601D01*
X94320D01*
X93787Y274067D01*
Y273001D01*
X94320Y272468D01*
X95919D01*
X90588Y274067D02*
X91121Y274601D01*
X92187D01*
X92720Y274067D01*
Y273534D01*
X92187Y273001D01*
X91121D01*
X90588Y272468D01*
Y271935D01*
X91121Y271402D01*
X92187D01*
X92720Y271935D01*
X87389Y271402D02*
X89521D01*
X87389Y273534D01*
Y274067D01*
X87922Y274601D01*
X88988D01*
X89521Y274067D01*
X129952Y333269D02*
X129419Y333802D01*
Y334868D01*
X129952Y335402D01*
X132085D01*
X132618Y334868D01*
Y333802D01*
X132085Y333269D01*
X132618Y332203D02*
X129419D01*
Y330603D01*
X129952Y330070D01*
X131019D01*
X131552Y330603D01*
Y332203D01*
X129952Y326871D02*
X129419Y327404D01*
Y328470D01*
X129952Y329004D01*
X130485D01*
X131019Y328470D01*
Y327404D01*
X131552Y326871D01*
X132085D01*
X132618Y327404D01*
Y328470D01*
X132085Y329004D01*
X129952Y325805D02*
X129419Y325272D01*
Y324205D01*
X129952Y323672D01*
X130485D01*
X131019Y324205D01*
Y324738D01*
Y324205D01*
X131552Y323672D01*
X132085D01*
X132618Y324205D01*
Y325272D01*
X132085Y325805D01*
X123952Y333269D02*
X123419Y333802D01*
Y334868D01*
X123952Y335402D01*
X126085D01*
X126618Y334868D01*
Y333802D01*
X126085Y333269D01*
X126618Y332203D02*
X123419D01*
Y330603D01*
X123952Y330070D01*
X125019D01*
X125552Y330603D01*
Y332203D01*
X123952Y326871D02*
X123419Y327404D01*
Y328470D01*
X123952Y329004D01*
X124486D01*
X125019Y328470D01*
Y327404D01*
X125552Y326871D01*
X126085D01*
X126618Y327404D01*
Y328470D01*
X126085Y329004D01*
X126618Y324205D02*
X123419D01*
X125019Y325805D01*
Y323672D01*
X117952Y333269D02*
X117419Y333802D01*
Y334868D01*
X117952Y335402D01*
X120085D01*
X120618Y334868D01*
Y333802D01*
X120085Y333269D01*
X120618Y332203D02*
X117419D01*
Y330603D01*
X117952Y330070D01*
X119019D01*
X119552Y330603D01*
Y332203D01*
X117952Y326871D02*
X117419Y327404D01*
Y328470D01*
X117952Y329004D01*
X118485D01*
X119019Y328470D01*
Y327404D01*
X119552Y326871D01*
X120085D01*
X120618Y327404D01*
Y328470D01*
X120085Y329004D01*
X117419Y323672D02*
Y325805D01*
X119019D01*
X118485Y324738D01*
Y324205D01*
X119019Y323672D01*
X120085D01*
X120618Y324205D01*
Y325272D01*
X120085Y325805D01*
X111952Y333269D02*
X111419Y333802D01*
Y334868D01*
X111952Y335402D01*
X114085D01*
X114618Y334868D01*
Y333802D01*
X114085Y333269D01*
X114618Y332203D02*
X111419D01*
Y330603D01*
X111952Y330070D01*
X113019D01*
X113552Y330603D01*
Y332203D01*
X111952Y326871D02*
X111419Y327404D01*
Y328470D01*
X111952Y329004D01*
X112486D01*
X113019Y328470D01*
Y327404D01*
X113552Y326871D01*
X114085D01*
X114618Y327404D01*
Y328470D01*
X114085Y329004D01*
X111419Y323672D02*
X111952Y324738D01*
X113019Y325805D01*
X114085D01*
X114618Y325272D01*
Y324205D01*
X114085Y323672D01*
X113552D01*
X113019Y324205D01*
Y325805D01*
X105952Y333269D02*
X105419Y333802D01*
Y334868D01*
X105952Y335402D01*
X108085D01*
X108618Y334868D01*
Y333802D01*
X108085Y333269D01*
X108618Y332203D02*
X105419D01*
Y330603D01*
X105952Y330070D01*
X107019D01*
X107552Y330603D01*
Y332203D01*
X105952Y326871D02*
X105419Y327404D01*
Y328470D01*
X105952Y329004D01*
X106485D01*
X107019Y328470D01*
Y327404D01*
X107552Y326871D01*
X108085D01*
X108618Y327404D01*
Y328470D01*
X108085Y329004D01*
X105419Y325805D02*
Y323672D01*
X105952D01*
X108085Y325805D01*
X108618D01*
X100452Y333269D02*
X99919Y333802D01*
Y334868D01*
X100452Y335402D01*
X102585D01*
X103118Y334868D01*
Y333802D01*
X102585Y333269D01*
X103118Y332203D02*
X99919D01*
Y330603D01*
X100452Y330070D01*
X101519D01*
X102052Y330603D01*
Y332203D01*
X100452Y326871D02*
X99919Y327404D01*
Y328470D01*
X100452Y329004D01*
X100986D01*
X101519Y328470D01*
Y327404D01*
X102052Y326871D01*
X102585D01*
X103118Y327404D01*
Y328470D01*
X102585Y329004D01*
X100452Y325805D02*
X99919Y325272D01*
Y324205D01*
X100452Y323672D01*
X100986D01*
X101519Y324205D01*
X102052Y323672D01*
X102585D01*
X103118Y324205D01*
Y325272D01*
X102585Y325805D01*
X102052D01*
X101519Y325272D01*
X100986Y325805D01*
X100452D01*
X101519Y325272D02*
Y324205D01*
X168485Y278067D02*
X169019Y278601D01*
X170085D01*
X170618Y278067D01*
Y275935D01*
X170085Y275402D01*
X169019D01*
X168485Y275935D01*
Y277001D01*
X169552D01*
X167419Y275402D02*
X166353D01*
X166886D01*
Y278601D01*
X167419Y278067D01*
X158485Y278078D02*
X159019Y278611D01*
X160085D01*
X160618Y278078D01*
Y275945D01*
X160085Y275412D01*
X159019D01*
X158485Y275945D01*
Y277011D01*
X159552D01*
X155287Y275412D02*
X157419D01*
X155287Y277544D01*
Y278078D01*
X155820Y278611D01*
X156886D01*
X157419Y278078D01*
X53486Y342567D02*
X54019Y343101D01*
X55085D01*
X55618Y342567D01*
Y340435D01*
X55085Y339902D01*
X54019D01*
X53486Y340435D01*
Y341501D01*
X54552D01*
X50820Y339902D02*
Y343101D01*
X52419Y341501D01*
X50287D01*
X183952Y332769D02*
X183419Y333302D01*
Y334368D01*
X183952Y334902D01*
X186085D01*
X186618Y334368D01*
Y333302D01*
X186085Y332769D01*
X185019D01*
Y333835D01*
X183419Y329570D02*
Y331703D01*
X185019D01*
X184485Y330636D01*
Y330103D01*
X185019Y329570D01*
X186085D01*
X186618Y330103D01*
Y331169D01*
X186085Y331703D01*
X77118Y291600D02*
X76052D01*
X76585D01*
Y288402D01*
X77118D01*
X76052D01*
X74452D02*
Y291600D01*
X72320Y288402D01*
Y291600D01*
X71253Y288402D02*
X70187D01*
X70720D01*
Y291600D01*
X71253Y291067D01*
X93919Y335402D02*
Y334335D01*
Y334868D01*
X97118D01*
Y335402D01*
Y334335D01*
Y332736D02*
X93919D01*
X97118Y330603D01*
X93919D01*
X97118Y327404D02*
Y329537D01*
X94986Y327404D01*
X94452D01*
X93919Y327937D01*
Y329004D01*
X94452Y329537D01*
X149986Y287067D02*
X150519Y287600D01*
X151585D01*
X152118Y287067D01*
Y286534D01*
X151585Y286001D01*
X150519D01*
X149986Y285468D01*
Y284935D01*
X150519Y284402D01*
X151585D01*
X152118Y284935D01*
X146786Y287067D02*
X147320Y287600D01*
X148386D01*
X148919Y287067D01*
Y284935D01*
X148386Y284402D01*
X147320D01*
X146786Y284935D01*
X145720Y287600D02*
Y284402D01*
X143588D01*
X142521D02*
X141455D01*
X141988D01*
Y287600D01*
X142521Y287067D01*
X183618Y327601D02*
Y324935D01*
X183085Y324402D01*
X182019D01*
X181485Y324935D01*
Y327601D01*
X178287D02*
X179353Y327067D01*
X180419Y326001D01*
Y324935D01*
X179886Y324402D01*
X178820D01*
X178287Y324935D01*
Y325468D01*
X178820Y326001D01*
X180419D01*
X183618Y311600D02*
Y308935D01*
X183085Y308402D01*
X182019D01*
X181485Y308935D01*
Y311600D01*
X180419Y311067D02*
X179886Y311600D01*
X178820D01*
X178287Y311067D01*
Y310534D01*
X178820Y310001D01*
X178287Y309468D01*
Y308935D01*
X178820Y308402D01*
X179886D01*
X180419Y308935D01*
Y309468D01*
X179886Y310001D01*
X180419Y310534D01*
Y311067D01*
X179886Y310001D02*
X178820D01*
X183618Y294100D02*
Y291435D01*
X183085Y290902D01*
X182019D01*
X181485Y291435D01*
Y294100D01*
X180419Y291435D02*
X179886Y290902D01*
X178820D01*
X178287Y291435D01*
Y293567D01*
X178820Y294100D01*
X179886D01*
X180419Y293567D01*
Y293034D01*
X179886Y292501D01*
X178287D01*
X184118Y276601D02*
Y273935D01*
X183585Y273402D01*
X182519D01*
X181985Y273935D01*
Y276601D01*
X180919Y273402D02*
X179853D01*
X180386D01*
Y276601D01*
X180919Y276067D01*
X178253D02*
X177720Y276601D01*
X176654D01*
X176121Y276067D01*
Y273935D01*
X176654Y273402D01*
X177720D01*
X178253Y273935D01*
Y276067D01*
X4419Y316902D02*
X6552D01*
X7618Y315835D01*
X6552Y314769D01*
X4419D01*
X4952Y311570D02*
X4419Y312103D01*
Y313169D01*
X4952Y313703D01*
X7085D01*
X7618Y313169D01*
Y312103D01*
X7085Y311570D01*
X4952Y308371D02*
X4419Y308904D01*
Y309970D01*
X4952Y310504D01*
X7085D01*
X7618Y309970D01*
Y308904D01*
X7085Y308371D01*
X7618Y307305D02*
Y306238D01*
Y306771D01*
X4419D01*
X4952Y307305D01*
X231400Y327402D02*
Y325269D01*
X230334Y326335D02*
X232467D01*
X229801Y324203D02*
X233000D01*
Y322070D01*
Y321004D02*
Y319937D01*
Y320470D01*
X229801D01*
X230334Y321004D01*
X211401Y327402D02*
Y325269D01*
X210334Y326335D02*
X212467D01*
X209801Y324203D02*
X213000D01*
Y322070D01*
Y318871D02*
Y321004D01*
X210867Y318871D01*
X210334D01*
X209801Y319404D01*
Y320470D01*
X210334Y321004D01*
X226400Y323902D02*
Y321769D01*
X225334Y322835D02*
X227467D01*
X224801Y320703D02*
X228000D01*
Y318570D01*
X225334Y317504D02*
X224801Y316970D01*
Y315904D01*
X225334Y315371D01*
X225867D01*
X226400Y315904D01*
Y316437D01*
Y315904D01*
X226934Y315371D01*
X227467D01*
X228000Y315904D01*
Y316970D01*
X227467Y317504D01*
X221400Y327402D02*
Y325269D01*
X220334Y326335D02*
X222467D01*
X219801Y324203D02*
X223000D01*
Y322070D01*
Y319404D02*
X219801D01*
X221400Y321004D01*
Y318871D01*
X200901Y328402D02*
Y326269D01*
X199834Y327335D02*
X201967D01*
X199301Y325203D02*
X202500D01*
Y323070D01*
X199301Y319871D02*
Y322004D01*
X200901D01*
X200367Y320937D01*
Y320404D01*
X200901Y319871D01*
X201967D01*
X202500Y320404D01*
Y321470D01*
X201967Y322004D01*
X216401Y323902D02*
Y321769D01*
X215334Y322835D02*
X217467D01*
X214801Y320703D02*
X218000D01*
Y318570D01*
X214801Y315371D02*
X215334Y316437D01*
X216401Y317504D01*
X217467D01*
X218000Y316970D01*
Y315904D01*
X217467Y315371D01*
X216934D01*
X216401Y315904D01*
Y317504D01*
X236401Y323902D02*
Y321769D01*
X235334Y322835D02*
X237467D01*
X234801Y320703D02*
X238000D01*
Y318570D01*
X234801Y317504D02*
Y315371D01*
X235334D01*
X237467Y317504D01*
X238000D01*
X206400Y324402D02*
Y322269D01*
X205334Y323335D02*
X207467D01*
X204801Y321203D02*
X208000D01*
Y319070D01*
X205334Y318004D02*
X204801Y317471D01*
Y316404D01*
X205334Y315871D01*
X205867D01*
X206400Y316404D01*
X206934Y315871D01*
X207467D01*
X208000Y316404D01*
Y317471D01*
X207467Y318004D01*
X206934D01*
X206400Y317471D01*
X205867Y318004D01*
X205334D01*
X206400Y317471D02*
Y316404D01*
X278000Y322501D02*
X275867D01*
X274801Y324100D02*
Y320902D01*
X272668D01*
X271602D02*
X270536D01*
X271069D01*
Y324100D01*
X271602Y323567D01*
X265500Y322001D02*
X263367D01*
X262301Y323601D02*
Y320402D01*
X260168D01*
X256969D02*
X259102D01*
X256969Y322534D01*
Y323067D01*
X257503Y323601D01*
X258569D01*
X259102Y323067D01*
X366100Y326402D02*
Y328534D01*
X367699Y329601D02*
X364500D01*
Y331733D01*
X367166Y332800D02*
X367699Y333333D01*
Y334399D01*
X367166Y334932D01*
X366633D01*
X366100Y334399D01*
Y333866D01*
Y334399D01*
X365566Y334932D01*
X365033D01*
X364500Y334399D01*
Y333333D01*
X365033Y332800D01*
X258500Y333501D02*
X256367D01*
X255301Y335101D02*
Y331902D01*
X253168D01*
X250503D02*
Y335101D01*
X252102Y333501D01*
X249969D01*
X369000Y318302D02*
X371133D01*
X372199Y316703D02*
Y319902D01*
X374332D01*
X377531Y316703D02*
X375398D01*
Y318302D01*
X376464Y317769D01*
X376997D01*
X377531Y318302D01*
Y319368D01*
X376997Y319902D01*
X375931D01*
X375398Y319368D01*
X369000Y302802D02*
X371133D01*
X372199Y301203D02*
Y304402D01*
X374332D01*
X377531Y301203D02*
X376464Y301736D01*
X375398Y302802D01*
Y303868D01*
X375931Y304402D01*
X376997D01*
X377531Y303868D01*
Y303335D01*
X376997Y302802D01*
X375398D01*
X368500Y284802D02*
X370633D01*
X371699Y283203D02*
Y286402D01*
X373832D01*
X374898Y283203D02*
X377031D01*
Y283736D01*
X374898Y285868D01*
Y286402D01*
X291867Y280067D02*
X292401Y280601D01*
X293467D01*
X294000Y280067D01*
Y277935D01*
X293467Y277402D01*
X292401D01*
X291867Y277935D01*
X290801Y277402D02*
Y280601D01*
X289201D01*
X288668Y280067D01*
Y279001D01*
X289201Y278468D01*
X290801D01*
X285469Y280067D02*
X286003Y280601D01*
X287069D01*
X287602Y280067D01*
Y279534D01*
X287069Y279001D01*
X286003D01*
X285469Y278468D01*
Y277935D01*
X286003Y277402D01*
X287069D01*
X287602Y277935D01*
X284403Y277402D02*
X283337D01*
X283870D01*
Y280601D01*
X284403Y280067D01*
X291867Y274067D02*
X292401Y274601D01*
X293467D01*
X294000Y274067D01*
Y271935D01*
X293467Y271402D01*
X292401D01*
X291867Y271935D01*
X290801Y271402D02*
Y274601D01*
X289201D01*
X288668Y274067D01*
Y273001D01*
X289201Y272468D01*
X290801D01*
X285469Y274067D02*
X286003Y274601D01*
X287069D01*
X287602Y274067D01*
Y273534D01*
X287069Y273001D01*
X286003D01*
X285469Y272468D01*
Y271935D01*
X286003Y271402D01*
X287069D01*
X287602Y271935D01*
X282270Y271402D02*
X284403D01*
X282270Y273534D01*
Y274067D01*
X282804Y274601D01*
X283870D01*
X284403Y274067D01*
X324834Y333269D02*
X324301Y333802D01*
Y334868D01*
X324834Y335402D01*
X326967D01*
X327500Y334868D01*
Y333802D01*
X326967Y333269D01*
X327500Y332203D02*
X324301D01*
Y330603D01*
X324834Y330070D01*
X325901D01*
X326434Y330603D01*
Y332203D01*
X324834Y326871D02*
X324301Y327404D01*
Y328470D01*
X324834Y329004D01*
X325367D01*
X325901Y328470D01*
Y327404D01*
X326434Y326871D01*
X326967D01*
X327500Y327404D01*
Y328470D01*
X326967Y329004D01*
X324834Y325805D02*
X324301Y325272D01*
Y324205D01*
X324834Y323672D01*
X325367D01*
X325901Y324205D01*
Y324738D01*
Y324205D01*
X326434Y323672D01*
X326967D01*
X327500Y324205D01*
Y325272D01*
X326967Y325805D01*
X318834Y333269D02*
X318301Y333802D01*
Y334868D01*
X318834Y335402D01*
X320967D01*
X321500Y334868D01*
Y333802D01*
X320967Y333269D01*
X321500Y332203D02*
X318301D01*
Y330603D01*
X318834Y330070D01*
X319900D01*
X320434Y330603D01*
Y332203D01*
X318834Y326871D02*
X318301Y327404D01*
Y328470D01*
X318834Y329004D01*
X319367D01*
X319900Y328470D01*
Y327404D01*
X320434Y326871D01*
X320967D01*
X321500Y327404D01*
Y328470D01*
X320967Y329004D01*
X321500Y324205D02*
X318301D01*
X319900Y325805D01*
Y323672D01*
X312834Y333269D02*
X312301Y333802D01*
Y334868D01*
X312834Y335402D01*
X314967D01*
X315500Y334868D01*
Y333802D01*
X314967Y333269D01*
X315500Y332203D02*
X312301D01*
Y330603D01*
X312834Y330070D01*
X313900D01*
X314434Y330603D01*
Y332203D01*
X312834Y326871D02*
X312301Y327404D01*
Y328470D01*
X312834Y329004D01*
X313367D01*
X313900Y328470D01*
Y327404D01*
X314434Y326871D01*
X314967D01*
X315500Y327404D01*
Y328470D01*
X314967Y329004D01*
X312301Y323672D02*
Y325805D01*
X313900D01*
X313367Y324738D01*
Y324205D01*
X313900Y323672D01*
X314967D01*
X315500Y324205D01*
Y325272D01*
X314967Y325805D01*
X306834Y333269D02*
X306301Y333802D01*
Y334868D01*
X306834Y335402D01*
X308967D01*
X309500Y334868D01*
Y333802D01*
X308967Y333269D01*
X309500Y332203D02*
X306301D01*
Y330603D01*
X306834Y330070D01*
X307901D01*
X308434Y330603D01*
Y332203D01*
X306834Y326871D02*
X306301Y327404D01*
Y328470D01*
X306834Y329004D01*
X307367D01*
X307901Y328470D01*
Y327404D01*
X308434Y326871D01*
X308967D01*
X309500Y327404D01*
Y328470D01*
X308967Y329004D01*
X306301Y323672D02*
X306834Y324738D01*
X307901Y325805D01*
X308967D01*
X309500Y325272D01*
Y324205D01*
X308967Y323672D01*
X308434D01*
X307901Y324205D01*
Y325805D01*
X300834Y333269D02*
X300301Y333802D01*
Y334868D01*
X300834Y335402D01*
X302967D01*
X303500Y334868D01*
Y333802D01*
X302967Y333269D01*
X303500Y332203D02*
X300301D01*
Y330603D01*
X300834Y330070D01*
X301901D01*
X302434Y330603D01*
Y332203D01*
X300834Y326871D02*
X300301Y327404D01*
Y328470D01*
X300834Y329004D01*
X301367D01*
X301901Y328470D01*
Y327404D01*
X302434Y326871D01*
X302967D01*
X303500Y327404D01*
Y328470D01*
X302967Y329004D01*
X300301Y325805D02*
Y323672D01*
X300834D01*
X302967Y325805D01*
X303500D01*
X295334Y333269D02*
X294801Y333802D01*
Y334868D01*
X295334Y335402D01*
X297467D01*
X298000Y334868D01*
Y333802D01*
X297467Y333269D01*
X298000Y332203D02*
X294801D01*
Y330603D01*
X295334Y330070D01*
X296400D01*
X296934Y330603D01*
Y332203D01*
X295334Y326871D02*
X294801Y327404D01*
Y328470D01*
X295334Y329004D01*
X295867D01*
X296400Y328470D01*
Y327404D01*
X296934Y326871D01*
X297467D01*
X298000Y327404D01*
Y328470D01*
X297467Y329004D01*
X295334Y325805D02*
X294801Y325272D01*
Y324205D01*
X295334Y323672D01*
X295867D01*
X296400Y324205D01*
X296934Y323672D01*
X297467D01*
X298000Y324205D01*
Y325272D01*
X297467Y325805D01*
X296934D01*
X296400Y325272D01*
X295867Y325805D01*
X295334D01*
X296400Y325272D02*
Y324205D01*
X363367Y278067D02*
X363900Y278601D01*
X364967D01*
X365500Y278067D01*
Y275935D01*
X364967Y275402D01*
X363900D01*
X363367Y275935D01*
Y277001D01*
X364434D01*
X362301Y275402D02*
X361235D01*
X361768D01*
Y278601D01*
X362301Y278067D01*
X353367Y278078D02*
X353901Y278611D01*
X354967D01*
X355500Y278078D01*
Y275945D01*
X354967Y275412D01*
X353901D01*
X353367Y275945D01*
Y277011D01*
X354434D01*
X350168Y275412D02*
X352301D01*
X350168Y277544D01*
Y278078D01*
X350701Y278611D01*
X351768D01*
X352301Y278078D01*
X248367Y342567D02*
X248901Y343101D01*
X249967D01*
X250500Y342567D01*
Y340435D01*
X249967Y339902D01*
X248901D01*
X248367Y340435D01*
Y341501D01*
X249434D01*
X245702Y339902D02*
Y343101D01*
X247301Y341501D01*
X245168D01*
X378834Y332769D02*
X378301Y333302D01*
Y334368D01*
X378834Y334902D01*
X380967D01*
X381500Y334368D01*
Y333302D01*
X380967Y332769D01*
X379901D01*
Y333835D01*
X378301Y329570D02*
Y331703D01*
X379901D01*
X379367Y330636D01*
Y330103D01*
X379901Y329570D01*
X380967D01*
X381500Y330103D01*
Y331169D01*
X380967Y331703D01*
X272000Y291600D02*
X270934D01*
X271467D01*
Y288402D01*
X272000D01*
X270934D01*
X269334D02*
Y291600D01*
X267202Y288402D01*
Y291600D01*
X266135Y288402D02*
X265069D01*
X265602D01*
Y291600D01*
X266135Y291067D01*
X288801Y335402D02*
Y334335D01*
Y334868D01*
X292000D01*
Y335402D01*
Y334335D01*
Y332736D02*
X288801D01*
X292000Y330603D01*
X288801D01*
X292000Y327404D02*
Y329537D01*
X289867Y327404D01*
X289334D01*
X288801Y327937D01*
Y329004D01*
X289334Y329537D01*
X344867Y287067D02*
X345401Y287600D01*
X346467D01*
X347000Y287067D01*
Y286534D01*
X346467Y286001D01*
X345401D01*
X344867Y285468D01*
Y284935D01*
X345401Y284402D01*
X346467D01*
X347000Y284935D01*
X341668Y287067D02*
X342201Y287600D01*
X343268D01*
X343801Y287067D01*
Y284935D01*
X343268Y284402D01*
X342201D01*
X341668Y284935D01*
X340602Y287600D02*
Y284402D01*
X338469D01*
X337403D02*
X336337D01*
X336870D01*
Y287600D01*
X337403Y287067D01*
X378500Y327601D02*
Y324935D01*
X377967Y324402D01*
X376901D01*
X376367Y324935D01*
Y327601D01*
X373168D02*
X374235Y327067D01*
X375301Y326001D01*
Y324935D01*
X374768Y324402D01*
X373702D01*
X373168Y324935D01*
Y325468D01*
X373702Y326001D01*
X375301D01*
X378500Y311600D02*
Y308935D01*
X377967Y308402D01*
X376901D01*
X376367Y308935D01*
Y311600D01*
X375301Y311067D02*
X374768Y311600D01*
X373702D01*
X373168Y311067D01*
Y310534D01*
X373702Y310001D01*
X373168Y309468D01*
Y308935D01*
X373702Y308402D01*
X374768D01*
X375301Y308935D01*
Y309468D01*
X374768Y310001D01*
X375301Y310534D01*
Y311067D01*
X374768Y310001D02*
X373702D01*
X378500Y294100D02*
Y291435D01*
X377967Y290902D01*
X376901D01*
X376367Y291435D01*
Y294100D01*
X375301Y291435D02*
X374768Y290902D01*
X373702D01*
X373168Y291435D01*
Y293567D01*
X373702Y294100D01*
X374768D01*
X375301Y293567D01*
Y293034D01*
X374768Y292501D01*
X373168D01*
X379000Y276601D02*
Y273935D01*
X378467Y273402D01*
X377400D01*
X376867Y273935D01*
Y276601D01*
X375801Y273402D02*
X374735D01*
X375268D01*
Y276601D01*
X375801Y276067D01*
X373135D02*
X372602Y276601D01*
X371536D01*
X371003Y276067D01*
Y273935D01*
X371536Y273402D01*
X372602D01*
X373135Y273935D01*
Y276067D01*
X199301Y316902D02*
X201434D01*
X202500Y315835D01*
X201434Y314769D01*
X199301D01*
X199834Y311570D02*
X199301Y312103D01*
Y313169D01*
X199834Y313703D01*
X201967D01*
X202500Y313169D01*
Y312103D01*
X201967Y311570D01*
X199834Y308371D02*
X199301Y308904D01*
Y309970D01*
X199834Y310504D01*
X201967D01*
X202500Y309970D01*
Y308904D01*
X201967Y308371D01*
X202500Y307305D02*
Y306238D01*
Y306771D01*
X199301D01*
X199834Y307305D01*
M02*
