M48
;Layer_Color=9474304
;FILE_FORMAT=2:5
INCH,LZ
;TYPE=PLATED
T1F00S00C0.02362
T2F00S00C0.02800
T3F00S00C0.03543
%
T01
X0103618Y0011697
X0123906Y0011197
X0143118
X02985Y0011697
X0318787Y0011197
X0338
X03515Y0023697
Y0078197
X0326
X032
X0314
X0308
X0302
X0296
X029
X02985Y0099098
Y0107098
X0318787Y0098598
X0338
X03515Y0111098
Y0165598
X0326
X032
X0314
X0308
X0302
X0296
X029
X02775Y0115598
Y0028197
X02985Y0019697
X0156618Y0023697
Y0078197
X0131118
X0125118
X0119118
X0113118
X0107118
X0101118
X0095118
X0103618Y0099098
Y0107098
X0123906Y0098598
X0143118
X0156618Y0111098
Y0165598
X0131118
X0125118
X0119118
X0113118
X0107118
X0101118
X0095118
X0082618Y0115598
Y0028197
X0103618Y0019697
Y01865
Y01945
X0123906Y0186
X0143118
X0156618Y01985
Y0253
X0131118
X0125118
X0119118
X0113118
X0107118
X0101118
X0095118
X0103618Y0273902
Y0281902
X0123906Y0273402
X0143118
X0156618Y0285902
X0082618Y0290402
Y0203
X02775
X02985Y01945
Y01865
X0318787Y0186
X0338
X03515Y01985
Y0253
X0326
X032
X0314
X0308
X0302
X0296
X029
X02985Y0273902
Y0281902
X0318787Y0273402
X0338
X03515Y0285902
X02775Y0290402
X029Y0340402
X0296
X0302
X0308
X0314
X032
X0326
X03515
X0156618
X0131118
X0125118
X0119118
X0113118
X0107118
X0101118
X0095118
T02
X0067618Y0016697
X02625
X0239Y0024697
X02155Y0046697
X0251Y0061197
X02625Y0104098
X0239Y0112098
X02155Y0134098
X0251Y0148598
X03225Y0145598
X03305Y0145098
X03375Y0144598
X0352
X0321Y0129098
X0289Y0109598
X03225Y0058197
X03305Y0057697
X03375Y0057197
X0352
X0321Y0041697
X0289Y0022197
X0202Y0029697
X0157118Y0057197
X0142618
X0135618Y0057697
X0127618Y0058197
X0126118Y0041697
X0094118Y0022197
Y0109598
X0067618Y0104098
X0126118Y0129098
X0127618Y0145598
X0135618Y0145098
X0142618Y0144598
X0157118
X0202Y0117098
X0044118Y0112098
X0007118Y0117098
X0020618Y0134098
X0056118Y0148598
Y0061197
X0044118Y0024697
X0007118Y0029697
X0020618Y0046697
X0007118Y02045
X0020618Y02215
X0044118Y01995
X0056118Y0236
X0044118Y0286902
X0007118Y0291902
X0020618Y0308902
X0056118Y0323402
X0067618Y0278902
X0094118Y0284402
X0126118Y0303902
X0127618Y0320402
X0135618Y0319902
X0142618Y0319402
X0157118
X0202Y0291902
Y02045
X0157118Y0232
X0142618
X0135618Y02325
X0127618Y0233
X0126118Y02165
X0094118Y0197
X0067618Y01915
X02155Y02215
X0239Y01995
X02625Y01915
X0289Y0197
X0321Y02165
X03225Y0233
X03305Y02325
X03375Y0232
X0352
Y0319402
X03375
X03305Y0319902
X03225Y0320402
X0321Y0303902
X0289Y0284402
X02625Y0278902
X0239Y0286902
X02155Y0308902
X0251Y0323402
Y0236
T03
X0081118Y0009197
X0159618Y0006707
X0168618Y0006697
X0276Y0009197
X03545Y0006707
X03635Y0006697
X03795Y0078197
Y0165598
X0366
X03625Y0143598
Y0127598
Y0110598
X03635Y0094098
X03545Y0094109
X0366Y0078197
X03625Y0056197
Y0040197
Y0023197
X0276Y0019197
X02745Y0052697
X02585
X0245Y0070197
X02355
X0226
X02165
X0221Y0078697
X02305
X024
X0276Y0096598
Y0106598
X02745Y0140098
X02585
X0245Y0157598
X02355
X0226
X02165
X0221Y0166098
X02305
X024
X02115
X02015
X0207Y0157598
X0184618Y0165598
X0171118
X0167618Y0143598
Y0127598
Y0110598
X0168618Y0094098
X0159618Y0094109
X0171118Y0078197
X0184618
X02015Y0078697
X02115
X0207Y0070197
X0202Y0038697
X0167618Y0040197
Y0056197
Y0023197
X0081118Y0019197
X0079618Y0052697
X0063618
X0081118Y0096598
Y0106598
X0079618Y0140098
X0063618
X0202Y0126098
X0050118Y0157598
X0040618
X0031118
X0021618
X0012118
X0016618Y0166098
X0026118
X0035618
X0045118
X0006618
X0007118Y0126098
X0006618Y0078697
X0016618
X0026118
X0035618
X0045118
X0040618Y0070197
X0050118
X0031118
X0021618
X0012118
X0007118Y0038697
Y02135
X0012118Y0245
X0021618
X0031118
X0040618
X0050118
X0045118Y02535
X0035618
X0026118
X0016618
X0006618
X0007118Y0300902
X0063618Y0314902
X0079618
X0081118Y0281402
Y0271402
X0079618Y02275
X0063618
X0081118Y0194
Y0184
X0159618Y018151
X0168618Y01815
X0167618Y0198
Y0215
Y0231
X0171118Y0253
X0184618
X02015Y02535
X02115
X0207Y0245
X0202Y02135
Y0300902
X0167618Y0302402
Y0318402
Y0285402
X0168618Y0268902
X0159618Y0268912
X0221Y02535
X02305
X024
X02355Y0245
X0245
X0226
X02165
X02585Y02275
X02745
X0276Y0194
Y0184
X03545Y018151
X03635Y01815
X03625Y0198
Y0215
Y0231
X0366Y0253
X03635Y0268902
X03545Y0268912
X03625Y0285402
Y0302402
Y0318402
X02745Y0314902
X02585
X0276Y0281402
Y0271402
X03795Y0253
Y0340402
X0366
X024Y0340902
X02305
X0221
X02165Y0332402
X0226
X02355
X0245
X0207
X02115Y0340902
X02015
X0184618Y0340402
X0171118
X0045118Y0340902
X0035618
X0026118
X0016618
X0006618
X0012118Y0332402
X0021618
X0031118
X0040618
X0050118
M30
