%FSLAX25Y25*%
%MOIN*%
G70*
G01*
G75*
%ADD10O,0.02362X0.09055*%
%ADD11R,0.02756X0.03543*%
%ADD12O,0.01969X0.06299*%
%ADD13R,0.03150X0.03543*%
%ADD14R,0.06693X0.02953*%
%ADD15O,0.07087X0.02362*%
%ADD16R,0.03543X0.02756*%
%ADD17R,0.03543X0.03150*%
%ADD18O,0.06299X0.01969*%
%ADD19C,0.02000*%
%ADD20C,0.01000*%
%ADD21C,0.07874*%
%ADD22O,0.03937X0.05906*%
%ADD23C,0.04724*%
%ADD24O,0.05906X0.03937*%
%ADD25C,0.05000*%
D10*
X91618Y33283D02*
D03*
X96618D02*
D03*
X101618D02*
D03*
X106618D02*
D03*
X111618D02*
D03*
X116618D02*
D03*
X121618D02*
D03*
X126618D02*
D03*
X131618D02*
D03*
X136618D02*
D03*
X141618D02*
D03*
X146618D02*
D03*
X151618D02*
D03*
X156618D02*
D03*
X91618Y69110D02*
D03*
X96618D02*
D03*
X101618D02*
D03*
X106618D02*
D03*
X111618D02*
D03*
X116618D02*
D03*
X121618D02*
D03*
X126618D02*
D03*
X131618D02*
D03*
X136618D02*
D03*
X141618D02*
D03*
X146618D02*
D03*
X151618D02*
D03*
X156618D02*
D03*
X286500Y33283D02*
D03*
X291500D02*
D03*
X296500D02*
D03*
X301500D02*
D03*
X306500D02*
D03*
X311500D02*
D03*
X316500D02*
D03*
X321500D02*
D03*
X326500D02*
D03*
X331500D02*
D03*
X336500D02*
D03*
X341500D02*
D03*
X346500D02*
D03*
X351500D02*
D03*
X286500Y69110D02*
D03*
X291500D02*
D03*
X296500D02*
D03*
X301500D02*
D03*
X306500D02*
D03*
X311500D02*
D03*
X316500D02*
D03*
X321500D02*
D03*
X326500D02*
D03*
X331500D02*
D03*
X336500D02*
D03*
X341500D02*
D03*
X346500D02*
D03*
X351500D02*
D03*
X91618Y120685D02*
D03*
X96618D02*
D03*
X101618D02*
D03*
X106618D02*
D03*
X111618D02*
D03*
X116618D02*
D03*
X121618D02*
D03*
X126618D02*
D03*
X131618D02*
D03*
X136618D02*
D03*
X141618D02*
D03*
X146618D02*
D03*
X151618D02*
D03*
X156618D02*
D03*
X91618Y156512D02*
D03*
X96618D02*
D03*
X101618D02*
D03*
X106618D02*
D03*
X111618D02*
D03*
X116618D02*
D03*
X121618D02*
D03*
X126618D02*
D03*
X131618D02*
D03*
X136618D02*
D03*
X141618D02*
D03*
X146618D02*
D03*
X151618D02*
D03*
X156618D02*
D03*
X286500Y120685D02*
D03*
X291500D02*
D03*
X296500D02*
D03*
X301500D02*
D03*
X306500D02*
D03*
X311500D02*
D03*
X316500D02*
D03*
X321500D02*
D03*
X326500D02*
D03*
X331500D02*
D03*
X336500D02*
D03*
X341500D02*
D03*
X346500D02*
D03*
X351500D02*
D03*
X286500Y156512D02*
D03*
X291500D02*
D03*
X296500D02*
D03*
X301500D02*
D03*
X306500D02*
D03*
X311500D02*
D03*
X316500D02*
D03*
X321500D02*
D03*
X326500D02*
D03*
X331500D02*
D03*
X336500D02*
D03*
X341500D02*
D03*
X346500D02*
D03*
X351500D02*
D03*
X91618Y208087D02*
D03*
X96618D02*
D03*
X101618D02*
D03*
X106618D02*
D03*
X111618D02*
D03*
X116618D02*
D03*
X121618D02*
D03*
X126618D02*
D03*
X131618D02*
D03*
X136618D02*
D03*
X141618D02*
D03*
X146618D02*
D03*
X151618D02*
D03*
X156618D02*
D03*
X91618Y243913D02*
D03*
X96618D02*
D03*
X101618D02*
D03*
X106618D02*
D03*
X111618D02*
D03*
X116618D02*
D03*
X121618D02*
D03*
X126618D02*
D03*
X131618D02*
D03*
X136618D02*
D03*
X141618D02*
D03*
X146618D02*
D03*
X151618D02*
D03*
X156618D02*
D03*
X286500Y208087D02*
D03*
X291500D02*
D03*
X296500D02*
D03*
X301500D02*
D03*
X306500D02*
D03*
X311500D02*
D03*
X316500D02*
D03*
X321500D02*
D03*
X326500D02*
D03*
X331500D02*
D03*
X336500D02*
D03*
X341500D02*
D03*
X346500D02*
D03*
X351500D02*
D03*
X286500Y243913D02*
D03*
X291500D02*
D03*
X296500D02*
D03*
X301500D02*
D03*
X306500D02*
D03*
X311500D02*
D03*
X316500D02*
D03*
X321500D02*
D03*
X326500D02*
D03*
X331500D02*
D03*
X336500D02*
D03*
X341500D02*
D03*
X346500D02*
D03*
X351500D02*
D03*
X91618Y295488D02*
D03*
X96618D02*
D03*
X101618D02*
D03*
X106618D02*
D03*
X111618D02*
D03*
X116618D02*
D03*
X121618D02*
D03*
X126618D02*
D03*
X131618D02*
D03*
X136618D02*
D03*
X141618D02*
D03*
X146618D02*
D03*
X151618D02*
D03*
X156618D02*
D03*
X91618Y331315D02*
D03*
X96618D02*
D03*
X101618D02*
D03*
X106618D02*
D03*
X111618D02*
D03*
X116618D02*
D03*
X121618D02*
D03*
X126618D02*
D03*
X131618D02*
D03*
X136618D02*
D03*
X141618D02*
D03*
X146618D02*
D03*
X151618D02*
D03*
X156618D02*
D03*
X286500Y295488D02*
D03*
X291500D02*
D03*
X296500D02*
D03*
X301500D02*
D03*
X306500D02*
D03*
X311500D02*
D03*
X316500D02*
D03*
X321500D02*
D03*
X326500D02*
D03*
X331500D02*
D03*
X336500D02*
D03*
X341500D02*
D03*
X346500D02*
D03*
X351500D02*
D03*
X286500Y331315D02*
D03*
X291500D02*
D03*
X296500D02*
D03*
X301500D02*
D03*
X306500D02*
D03*
X311500D02*
D03*
X316500D02*
D03*
X321500D02*
D03*
X326500D02*
D03*
X331500D02*
D03*
X336500D02*
D03*
X341500D02*
D03*
X346500D02*
D03*
X351500D02*
D03*
D11*
X85571Y78197D02*
D03*
X79665D02*
D03*
X164665Y64697D02*
D03*
X170571D02*
D03*
X164665Y48197D02*
D03*
X170571D02*
D03*
X170571Y14697D02*
D03*
X164665D02*
D03*
X170571Y31697D02*
D03*
X164665D02*
D03*
X97071Y15697D02*
D03*
X91165D02*
D03*
X17665Y37197D02*
D03*
X23571D02*
D03*
X44665Y61197D02*
D03*
X50571D02*
D03*
X49665Y53197D02*
D03*
X55571D02*
D03*
X280453Y78197D02*
D03*
X274547D02*
D03*
X359547Y64697D02*
D03*
X365453D02*
D03*
X359547Y48197D02*
D03*
X365453D02*
D03*
X365453Y14697D02*
D03*
X359547D02*
D03*
X365453Y31697D02*
D03*
X359547D02*
D03*
X291953Y15697D02*
D03*
X286047D02*
D03*
X212547Y37197D02*
D03*
X218453D02*
D03*
X239547Y61197D02*
D03*
X245453D02*
D03*
X244547Y53197D02*
D03*
X250453D02*
D03*
X85571Y165598D02*
D03*
X79665D02*
D03*
X164665Y152098D02*
D03*
X170571D02*
D03*
X164665Y135598D02*
D03*
X170571D02*
D03*
X170571Y102098D02*
D03*
X164665D02*
D03*
X170571Y119098D02*
D03*
X164665D02*
D03*
X97071Y103098D02*
D03*
X91165D02*
D03*
X17665Y124598D02*
D03*
X23571D02*
D03*
X44665Y148598D02*
D03*
X50571D02*
D03*
X49665Y140598D02*
D03*
X55571D02*
D03*
X280453Y165598D02*
D03*
X274547D02*
D03*
X359547Y152098D02*
D03*
X365453D02*
D03*
X359547Y135598D02*
D03*
X365453D02*
D03*
X365453Y102098D02*
D03*
X359547D02*
D03*
X365453Y119098D02*
D03*
X359547D02*
D03*
X291953Y103098D02*
D03*
X286047D02*
D03*
X212547Y124598D02*
D03*
X218453D02*
D03*
X239547Y148598D02*
D03*
X245453D02*
D03*
X244547Y140598D02*
D03*
X250453D02*
D03*
X85571Y253000D02*
D03*
X79665D02*
D03*
X164665Y239500D02*
D03*
X170571D02*
D03*
X164665Y223000D02*
D03*
X170571D02*
D03*
X170571Y189500D02*
D03*
X164665D02*
D03*
X170571Y206500D02*
D03*
X164665D02*
D03*
X97071Y190500D02*
D03*
X91165D02*
D03*
X17665Y212000D02*
D03*
X23571D02*
D03*
X44665Y236000D02*
D03*
X50571D02*
D03*
X49665Y228000D02*
D03*
X55571D02*
D03*
X280453Y253000D02*
D03*
X274547D02*
D03*
X359547Y239500D02*
D03*
X365453D02*
D03*
X359547Y223000D02*
D03*
X365453D02*
D03*
X365453Y189500D02*
D03*
X359547D02*
D03*
X365453Y206500D02*
D03*
X359547D02*
D03*
X291953Y190500D02*
D03*
X286047D02*
D03*
X212547Y212000D02*
D03*
X218453D02*
D03*
X239547Y236000D02*
D03*
X245453D02*
D03*
X244547Y228000D02*
D03*
X250453D02*
D03*
X85571Y340402D02*
D03*
X79665D02*
D03*
X164665Y326902D02*
D03*
X170571D02*
D03*
X164665Y310402D02*
D03*
X170571D02*
D03*
X170571Y276902D02*
D03*
X164665D02*
D03*
X170571Y293902D02*
D03*
X164665D02*
D03*
X97071Y277902D02*
D03*
X91165D02*
D03*
X17665Y299402D02*
D03*
X23571D02*
D03*
X44665Y323402D02*
D03*
X50571D02*
D03*
X49665Y315402D02*
D03*
X55571D02*
D03*
X280453Y340402D02*
D03*
X274547D02*
D03*
X359547Y326902D02*
D03*
X365453D02*
D03*
X359547Y310402D02*
D03*
X365453D02*
D03*
X365453Y276902D02*
D03*
X359547D02*
D03*
X365453Y293902D02*
D03*
X359547D02*
D03*
X291953Y277902D02*
D03*
X286047D02*
D03*
X212547Y299402D02*
D03*
X218453D02*
D03*
X239547Y323402D02*
D03*
X245453D02*
D03*
X244547Y315402D02*
D03*
X250453D02*
D03*
D12*
X184858Y69528D02*
D03*
X181118D02*
D03*
X177378D02*
D03*
X184858Y60866D02*
D03*
X181118D02*
D03*
X177378D02*
D03*
X184858Y17028D02*
D03*
X181118D02*
D03*
X177378D02*
D03*
X184858Y8366D02*
D03*
X181118D02*
D03*
X177378D02*
D03*
X184858Y34528D02*
D03*
X181118D02*
D03*
X177378D02*
D03*
X184858Y25866D02*
D03*
X181118D02*
D03*
X177378D02*
D03*
X184858Y52028D02*
D03*
X181118D02*
D03*
X177378D02*
D03*
X184858Y43366D02*
D03*
X181118D02*
D03*
X177378D02*
D03*
X379740Y69528D02*
D03*
X376000D02*
D03*
X372260D02*
D03*
X379740Y60866D02*
D03*
X376000D02*
D03*
X372260D02*
D03*
X379740Y17028D02*
D03*
X376000D02*
D03*
X372260D02*
D03*
X379740Y8366D02*
D03*
X376000D02*
D03*
X372260D02*
D03*
X379740Y34528D02*
D03*
X376000D02*
D03*
X372260D02*
D03*
X379740Y25866D02*
D03*
X376000D02*
D03*
X372260D02*
D03*
X379740Y52028D02*
D03*
X376000D02*
D03*
X372260D02*
D03*
X379740Y43366D02*
D03*
X376000D02*
D03*
X372260D02*
D03*
X184858Y156929D02*
D03*
X181118D02*
D03*
X177378D02*
D03*
X184858Y148268D02*
D03*
X181118D02*
D03*
X177378D02*
D03*
X184858Y104429D02*
D03*
X181118D02*
D03*
X177378D02*
D03*
X184858Y95768D02*
D03*
X181118D02*
D03*
X177378D02*
D03*
X184858Y121929D02*
D03*
X181118D02*
D03*
X177378D02*
D03*
X184858Y113268D02*
D03*
X181118D02*
D03*
X177378D02*
D03*
X184858Y139429D02*
D03*
X181118D02*
D03*
X177378D02*
D03*
X184858Y130768D02*
D03*
X181118D02*
D03*
X177378D02*
D03*
X379740Y156929D02*
D03*
X376000D02*
D03*
X372260D02*
D03*
X379740Y148268D02*
D03*
X376000D02*
D03*
X372260D02*
D03*
X379740Y104429D02*
D03*
X376000D02*
D03*
X372260D02*
D03*
X379740Y95768D02*
D03*
X376000D02*
D03*
X372260D02*
D03*
X379740Y121929D02*
D03*
X376000D02*
D03*
X372260D02*
D03*
X379740Y113268D02*
D03*
X376000D02*
D03*
X372260D02*
D03*
X379740Y139429D02*
D03*
X376000D02*
D03*
X372260D02*
D03*
X379740Y130768D02*
D03*
X376000D02*
D03*
X372260D02*
D03*
X184858Y244331D02*
D03*
X181118D02*
D03*
X177378D02*
D03*
X184858Y235669D02*
D03*
X181118D02*
D03*
X177378D02*
D03*
X184858Y191831D02*
D03*
X181118D02*
D03*
X177378D02*
D03*
X184858Y183169D02*
D03*
X181118D02*
D03*
X177378D02*
D03*
X184858Y209331D02*
D03*
X181118D02*
D03*
X177378D02*
D03*
X184858Y200669D02*
D03*
X181118D02*
D03*
X177378D02*
D03*
X184858Y226831D02*
D03*
X181118D02*
D03*
X177378D02*
D03*
X184858Y218169D02*
D03*
X181118D02*
D03*
X177378D02*
D03*
X379740Y244331D02*
D03*
X376000D02*
D03*
X372260D02*
D03*
X379740Y235669D02*
D03*
X376000D02*
D03*
X372260D02*
D03*
X379740Y191831D02*
D03*
X376000D02*
D03*
X372260D02*
D03*
X379740Y183169D02*
D03*
X376000D02*
D03*
X372260D02*
D03*
X379740Y209331D02*
D03*
X376000D02*
D03*
X372260D02*
D03*
X379740Y200669D02*
D03*
X376000D02*
D03*
X372260D02*
D03*
X379740Y226831D02*
D03*
X376000D02*
D03*
X372260D02*
D03*
X379740Y218169D02*
D03*
X376000D02*
D03*
X372260D02*
D03*
X184858Y331732D02*
D03*
X181118D02*
D03*
X177378D02*
D03*
X184858Y323071D02*
D03*
X181118D02*
D03*
X177378D02*
D03*
X184858Y279232D02*
D03*
X181118D02*
D03*
X177378D02*
D03*
X184858Y270571D02*
D03*
X181118D02*
D03*
X177378D02*
D03*
X184858Y296732D02*
D03*
X181118D02*
D03*
X177378D02*
D03*
X184858Y288071D02*
D03*
X181118D02*
D03*
X177378D02*
D03*
X184858Y314232D02*
D03*
X181118D02*
D03*
X177378D02*
D03*
X184858Y305571D02*
D03*
X181118D02*
D03*
X177378D02*
D03*
X379740Y331732D02*
D03*
X376000D02*
D03*
X372260D02*
D03*
X379740Y323071D02*
D03*
X376000D02*
D03*
X372260D02*
D03*
X379740Y279232D02*
D03*
X376000D02*
D03*
X372260D02*
D03*
X379740Y270571D02*
D03*
X376000D02*
D03*
X372260D02*
D03*
X379740Y296732D02*
D03*
X376000D02*
D03*
X372260D02*
D03*
X379740Y288071D02*
D03*
X376000D02*
D03*
X372260D02*
D03*
X379740Y314232D02*
D03*
X376000D02*
D03*
X372260D02*
D03*
X379740Y305571D02*
D03*
X376000D02*
D03*
X372260D02*
D03*
D13*
X136862Y22697D02*
D03*
X142374D02*
D03*
X130874Y22697D02*
D03*
X125362D02*
D03*
X331744Y22697D02*
D03*
X337256D02*
D03*
X325756Y22697D02*
D03*
X320244D02*
D03*
X136862Y110098D02*
D03*
X142374D02*
D03*
X130874Y110098D02*
D03*
X125362D02*
D03*
X331744Y110098D02*
D03*
X337256D02*
D03*
X325756Y110098D02*
D03*
X320244D02*
D03*
X136862Y197500D02*
D03*
X142374D02*
D03*
X130874Y197500D02*
D03*
X125362D02*
D03*
X331744Y197500D02*
D03*
X337256D02*
D03*
X325756Y197500D02*
D03*
X320244D02*
D03*
X136862Y284902D02*
D03*
X142374D02*
D03*
X130874Y284902D02*
D03*
X125362D02*
D03*
X331744Y284902D02*
D03*
X337256D02*
D03*
X325756Y284902D02*
D03*
X320244D02*
D03*
D14*
X58618Y29988D02*
D03*
Y16406D02*
D03*
X253500Y29988D02*
D03*
Y16406D02*
D03*
X58618Y117390D02*
D03*
Y103807D02*
D03*
X253500Y117390D02*
D03*
Y103807D02*
D03*
X58618Y204791D02*
D03*
Y191209D02*
D03*
X253500Y204791D02*
D03*
Y191209D02*
D03*
X58618Y292193D02*
D03*
Y278610D02*
D03*
X253500Y292193D02*
D03*
Y278610D02*
D03*
D15*
X15382Y29697D02*
D03*
Y24697D02*
D03*
Y19697D02*
D03*
Y14697D02*
D03*
X35854Y29697D02*
D03*
Y24697D02*
D03*
Y19697D02*
D03*
Y14697D02*
D03*
X34854Y46697D02*
D03*
Y51697D02*
D03*
Y56697D02*
D03*
Y61697D02*
D03*
X14382Y46697D02*
D03*
Y51697D02*
D03*
Y56697D02*
D03*
Y61697D02*
D03*
X210264Y29697D02*
D03*
Y24697D02*
D03*
Y19697D02*
D03*
Y14697D02*
D03*
X230736Y29697D02*
D03*
Y24697D02*
D03*
Y19697D02*
D03*
Y14697D02*
D03*
X229736Y46697D02*
D03*
Y51697D02*
D03*
Y56697D02*
D03*
Y61697D02*
D03*
X209264Y46697D02*
D03*
Y51697D02*
D03*
Y56697D02*
D03*
Y61697D02*
D03*
X15382Y117098D02*
D03*
Y112098D02*
D03*
Y107098D02*
D03*
Y102098D02*
D03*
X35854Y117098D02*
D03*
Y112098D02*
D03*
Y107098D02*
D03*
Y102098D02*
D03*
X34854Y134098D02*
D03*
Y139098D02*
D03*
Y144098D02*
D03*
Y149098D02*
D03*
X14382Y134098D02*
D03*
Y139098D02*
D03*
Y144098D02*
D03*
Y149098D02*
D03*
X210264Y117098D02*
D03*
Y112098D02*
D03*
Y107098D02*
D03*
Y102098D02*
D03*
X230736Y117098D02*
D03*
Y112098D02*
D03*
Y107098D02*
D03*
Y102098D02*
D03*
X229736Y134098D02*
D03*
Y139098D02*
D03*
Y144098D02*
D03*
Y149098D02*
D03*
X209264Y134098D02*
D03*
Y139098D02*
D03*
Y144098D02*
D03*
Y149098D02*
D03*
X15382Y204500D02*
D03*
Y199500D02*
D03*
Y194500D02*
D03*
Y189500D02*
D03*
X35854Y204500D02*
D03*
Y199500D02*
D03*
Y194500D02*
D03*
Y189500D02*
D03*
X34854Y221500D02*
D03*
Y226500D02*
D03*
Y231500D02*
D03*
Y236500D02*
D03*
X14382Y221500D02*
D03*
Y226500D02*
D03*
Y231500D02*
D03*
Y236500D02*
D03*
X210264Y204500D02*
D03*
Y199500D02*
D03*
Y194500D02*
D03*
Y189500D02*
D03*
X230736Y204500D02*
D03*
Y199500D02*
D03*
Y194500D02*
D03*
Y189500D02*
D03*
X229736Y221500D02*
D03*
Y226500D02*
D03*
Y231500D02*
D03*
Y236500D02*
D03*
X209264Y221500D02*
D03*
Y226500D02*
D03*
Y231500D02*
D03*
Y236500D02*
D03*
X15382Y291902D02*
D03*
Y286902D02*
D03*
Y281902D02*
D03*
Y276902D02*
D03*
X35854Y291902D02*
D03*
Y286902D02*
D03*
Y281902D02*
D03*
Y276902D02*
D03*
X34854Y308902D02*
D03*
Y313902D02*
D03*
Y318902D02*
D03*
Y323902D02*
D03*
X14382Y308902D02*
D03*
Y313902D02*
D03*
Y318902D02*
D03*
Y323902D02*
D03*
X210264Y291902D02*
D03*
Y286902D02*
D03*
Y281902D02*
D03*
Y276902D02*
D03*
X230736Y291902D02*
D03*
Y286902D02*
D03*
Y281902D02*
D03*
Y276902D02*
D03*
X229736Y308902D02*
D03*
Y313902D02*
D03*
Y318902D02*
D03*
Y323902D02*
D03*
X209264Y308902D02*
D03*
Y313902D02*
D03*
Y318902D02*
D03*
Y323902D02*
D03*
D16*
X6118Y56650D02*
D03*
Y50744D02*
D03*
X71618Y56150D02*
D03*
Y50244D02*
D03*
X201000Y56650D02*
D03*
Y50744D02*
D03*
X266500Y56150D02*
D03*
Y50244D02*
D03*
X6118Y144051D02*
D03*
Y138146D02*
D03*
X71618Y143551D02*
D03*
Y137646D02*
D03*
X201000Y144051D02*
D03*
Y138146D02*
D03*
X266500Y143551D02*
D03*
Y137646D02*
D03*
X6118Y231453D02*
D03*
Y225547D02*
D03*
X71618Y230953D02*
D03*
Y225047D02*
D03*
X201000Y231453D02*
D03*
Y225547D02*
D03*
X266500Y230953D02*
D03*
Y225047D02*
D03*
X6118Y318854D02*
D03*
Y312949D02*
D03*
X71618Y318354D02*
D03*
Y312449D02*
D03*
X201000Y318854D02*
D03*
Y312949D02*
D03*
X266500Y318354D02*
D03*
Y312449D02*
D03*
D17*
X43618Y49453D02*
D03*
Y43941D02*
D03*
X238500Y49453D02*
D03*
Y43941D02*
D03*
X43618Y136854D02*
D03*
Y131342D02*
D03*
X238500Y136854D02*
D03*
Y131342D02*
D03*
X43618Y224256D02*
D03*
Y218744D02*
D03*
X238500Y224256D02*
D03*
Y218744D02*
D03*
X43618Y311658D02*
D03*
Y306146D02*
D03*
X238500Y311658D02*
D03*
Y306146D02*
D03*
D18*
X60449Y37457D02*
D03*
Y41197D02*
D03*
Y44937D02*
D03*
X51787Y37457D02*
D03*
Y41197D02*
D03*
Y44937D02*
D03*
X62287Y78937D02*
D03*
Y75197D02*
D03*
Y71457D02*
D03*
X70949Y78937D02*
D03*
Y75197D02*
D03*
Y71457D02*
D03*
X78949Y35957D02*
D03*
Y39697D02*
D03*
Y43437D02*
D03*
X70287Y35957D02*
D03*
Y39697D02*
D03*
Y43437D02*
D03*
X255331Y37457D02*
D03*
Y41197D02*
D03*
Y44937D02*
D03*
X246669Y37457D02*
D03*
Y41197D02*
D03*
Y44937D02*
D03*
X257169Y78937D02*
D03*
Y75197D02*
D03*
Y71457D02*
D03*
X265831Y78937D02*
D03*
Y75197D02*
D03*
Y71457D02*
D03*
X273831Y35957D02*
D03*
Y39697D02*
D03*
Y43437D02*
D03*
X265169Y35957D02*
D03*
Y39697D02*
D03*
Y43437D02*
D03*
X60449Y124858D02*
D03*
Y128598D02*
D03*
Y132339D02*
D03*
X51787Y124858D02*
D03*
Y128598D02*
D03*
Y132339D02*
D03*
X62287Y166339D02*
D03*
Y162598D02*
D03*
Y158858D02*
D03*
X70949Y166339D02*
D03*
Y162598D02*
D03*
Y158858D02*
D03*
X78949Y123358D02*
D03*
Y127098D02*
D03*
Y130839D02*
D03*
X70287Y123358D02*
D03*
Y127098D02*
D03*
Y130839D02*
D03*
X255331Y124858D02*
D03*
Y128598D02*
D03*
Y132339D02*
D03*
X246669Y124858D02*
D03*
Y128598D02*
D03*
Y132339D02*
D03*
X257169Y166339D02*
D03*
Y162598D02*
D03*
Y158858D02*
D03*
X265831Y166339D02*
D03*
Y162598D02*
D03*
Y158858D02*
D03*
X273831Y123358D02*
D03*
Y127098D02*
D03*
Y130839D02*
D03*
X265169Y123358D02*
D03*
Y127098D02*
D03*
Y130839D02*
D03*
X60449Y212260D02*
D03*
Y216000D02*
D03*
Y219740D02*
D03*
X51787Y212260D02*
D03*
Y216000D02*
D03*
Y219740D02*
D03*
X62287Y253740D02*
D03*
Y250000D02*
D03*
Y246260D02*
D03*
X70949Y253740D02*
D03*
Y250000D02*
D03*
Y246260D02*
D03*
X78949Y210760D02*
D03*
Y214500D02*
D03*
Y218240D02*
D03*
X70287Y210760D02*
D03*
Y214500D02*
D03*
Y218240D02*
D03*
X255331Y212260D02*
D03*
Y216000D02*
D03*
Y219740D02*
D03*
X246669Y212260D02*
D03*
Y216000D02*
D03*
Y219740D02*
D03*
X257169Y253740D02*
D03*
Y250000D02*
D03*
Y246260D02*
D03*
X265831Y253740D02*
D03*
Y250000D02*
D03*
Y246260D02*
D03*
X273831Y210760D02*
D03*
Y214500D02*
D03*
Y218240D02*
D03*
X265169Y210760D02*
D03*
Y214500D02*
D03*
Y218240D02*
D03*
X60449Y299661D02*
D03*
Y303402D02*
D03*
Y307142D02*
D03*
X51787Y299661D02*
D03*
Y303402D02*
D03*
Y307142D02*
D03*
X62287Y341142D02*
D03*
Y337402D02*
D03*
Y333661D02*
D03*
X70949Y341142D02*
D03*
Y337402D02*
D03*
Y333661D02*
D03*
X78949Y298161D02*
D03*
Y301902D02*
D03*
Y305642D02*
D03*
X70287Y298161D02*
D03*
Y301902D02*
D03*
Y305642D02*
D03*
X255331Y299661D02*
D03*
Y303402D02*
D03*
Y307142D02*
D03*
X246669Y299661D02*
D03*
Y303402D02*
D03*
Y307142D02*
D03*
X257169Y341142D02*
D03*
Y337402D02*
D03*
Y333661D02*
D03*
X265831Y341142D02*
D03*
Y337402D02*
D03*
Y333661D02*
D03*
X273831Y298161D02*
D03*
Y301902D02*
D03*
Y305642D02*
D03*
X265169Y298161D02*
D03*
Y301902D02*
D03*
Y305642D02*
D03*
D21*
X6618Y78697D02*
D03*
X26118D02*
D03*
X171118Y78197D02*
D03*
X184618D02*
D03*
X167618Y56197D02*
D03*
Y40197D02*
D03*
Y23197D02*
D03*
X81118Y9197D02*
D03*
X159618Y6707D02*
D03*
X168618Y6697D02*
D03*
X81118Y19197D02*
D03*
X63618Y52697D02*
D03*
X79618D02*
D03*
X50118Y70197D02*
D03*
X45118Y78697D02*
D03*
X35618D02*
D03*
X16618D02*
D03*
X12118Y70197D02*
D03*
X21618D02*
D03*
X31118D02*
D03*
X40618D02*
D03*
X7118Y38697D02*
D03*
X201500Y78697D02*
D03*
X221000D02*
D03*
X366000Y78197D02*
D03*
X379500D02*
D03*
X362500Y56197D02*
D03*
Y40197D02*
D03*
Y23197D02*
D03*
X276000Y9197D02*
D03*
X354500Y6707D02*
D03*
X363500Y6697D02*
D03*
X276000Y19197D02*
D03*
X258500Y52697D02*
D03*
X274500D02*
D03*
X245000Y70197D02*
D03*
X240000Y78697D02*
D03*
X230500D02*
D03*
X211500D02*
D03*
X207000Y70197D02*
D03*
X216500D02*
D03*
X226000D02*
D03*
X235500D02*
D03*
X202000Y38697D02*
D03*
X6618Y166098D02*
D03*
X26118D02*
D03*
X171118Y165598D02*
D03*
X184618D02*
D03*
X167618Y143598D02*
D03*
Y127598D02*
D03*
Y110598D02*
D03*
X81118Y96598D02*
D03*
X159618Y94109D02*
D03*
X168618Y94098D02*
D03*
X81118Y106598D02*
D03*
X63618Y140098D02*
D03*
X79618D02*
D03*
X50118Y157598D02*
D03*
X45118Y166098D02*
D03*
X35618D02*
D03*
X16618D02*
D03*
X12118Y157598D02*
D03*
X21618D02*
D03*
X31118D02*
D03*
X40618D02*
D03*
X7118Y126098D02*
D03*
X201500Y166098D02*
D03*
X221000D02*
D03*
X366000Y165598D02*
D03*
X379500D02*
D03*
X362500Y143598D02*
D03*
Y127598D02*
D03*
Y110598D02*
D03*
X276000Y96598D02*
D03*
X354500Y94109D02*
D03*
X363500Y94098D02*
D03*
X276000Y106598D02*
D03*
X258500Y140098D02*
D03*
X274500D02*
D03*
X245000Y157598D02*
D03*
X240000Y166098D02*
D03*
X230500D02*
D03*
X211500D02*
D03*
X207000Y157598D02*
D03*
X216500D02*
D03*
X226000D02*
D03*
X235500D02*
D03*
X202000Y126098D02*
D03*
X6618Y253500D02*
D03*
X26118D02*
D03*
X171118Y253000D02*
D03*
X184618D02*
D03*
X167618Y231000D02*
D03*
Y215000D02*
D03*
Y198000D02*
D03*
X81118Y184000D02*
D03*
X159618Y181510D02*
D03*
X168618Y181500D02*
D03*
X81118Y194000D02*
D03*
X63618Y227500D02*
D03*
X79618D02*
D03*
X50118Y245000D02*
D03*
X45118Y253500D02*
D03*
X35618D02*
D03*
X16618D02*
D03*
X12118Y245000D02*
D03*
X21618D02*
D03*
X31118D02*
D03*
X40618D02*
D03*
X7118Y213500D02*
D03*
X201500Y253500D02*
D03*
X221000D02*
D03*
X366000Y253000D02*
D03*
X379500D02*
D03*
X362500Y231000D02*
D03*
Y215000D02*
D03*
Y198000D02*
D03*
X276000Y184000D02*
D03*
X354500Y181510D02*
D03*
X363500Y181500D02*
D03*
X276000Y194000D02*
D03*
X258500Y227500D02*
D03*
X274500D02*
D03*
X245000Y245000D02*
D03*
X240000Y253500D02*
D03*
X230500D02*
D03*
X211500D02*
D03*
X207000Y245000D02*
D03*
X216500D02*
D03*
X226000D02*
D03*
X235500D02*
D03*
X202000Y213500D02*
D03*
X6618Y340902D02*
D03*
X26118D02*
D03*
X171118Y340402D02*
D03*
X184618D02*
D03*
X167618Y318402D02*
D03*
Y302402D02*
D03*
Y285402D02*
D03*
X81118Y271402D02*
D03*
X159618Y268912D02*
D03*
X168618Y268902D02*
D03*
X81118Y281402D02*
D03*
X63618Y314902D02*
D03*
X79618D02*
D03*
X50118Y332402D02*
D03*
X45118Y340902D02*
D03*
X35618D02*
D03*
X16618D02*
D03*
X12118Y332402D02*
D03*
X21618D02*
D03*
X31118D02*
D03*
X40618D02*
D03*
X7118Y300902D02*
D03*
X201500Y340902D02*
D03*
X221000D02*
D03*
X366000Y340402D02*
D03*
X379500D02*
D03*
X362500Y318402D02*
D03*
Y302402D02*
D03*
Y285402D02*
D03*
X276000Y271402D02*
D03*
X354500Y268912D02*
D03*
X363500Y268902D02*
D03*
X276000Y281402D02*
D03*
X258500Y314902D02*
D03*
X274500D02*
D03*
X245000Y332402D02*
D03*
X240000Y340902D02*
D03*
X230500D02*
D03*
X211500D02*
D03*
X207000Y332402D02*
D03*
X216500D02*
D03*
X226000D02*
D03*
X235500D02*
D03*
X202000Y300902D02*
D03*
D22*
X156618Y78197D02*
D03*
X131118D02*
D03*
X125118D02*
D03*
X119118D02*
D03*
X113118D02*
D03*
X107118D02*
D03*
X101118D02*
D03*
X95118D02*
D03*
X156618Y23697D02*
D03*
X103618Y11697D02*
D03*
Y19697D02*
D03*
X351500Y78197D02*
D03*
X326000D02*
D03*
X320000D02*
D03*
X314000D02*
D03*
X308000D02*
D03*
X302000D02*
D03*
X296000D02*
D03*
X290000D02*
D03*
X351500Y23697D02*
D03*
X298500Y11697D02*
D03*
Y19697D02*
D03*
X156618Y165598D02*
D03*
X131118D02*
D03*
X125118D02*
D03*
X119118D02*
D03*
X113118D02*
D03*
X107118D02*
D03*
X101118D02*
D03*
X95118D02*
D03*
X156618Y111098D02*
D03*
X103618Y99098D02*
D03*
Y107098D02*
D03*
X351500Y165598D02*
D03*
X326000D02*
D03*
X320000D02*
D03*
X314000D02*
D03*
X308000D02*
D03*
X302000D02*
D03*
X296000D02*
D03*
X290000D02*
D03*
X351500Y111098D02*
D03*
X298500Y99098D02*
D03*
Y107098D02*
D03*
X156618Y253000D02*
D03*
X131118D02*
D03*
X125118D02*
D03*
X119118D02*
D03*
X113118D02*
D03*
X107118D02*
D03*
X101118D02*
D03*
X95118D02*
D03*
X156618Y198500D02*
D03*
X103618Y186500D02*
D03*
Y194500D02*
D03*
X351500Y253000D02*
D03*
X326000D02*
D03*
X320000D02*
D03*
X314000D02*
D03*
X308000D02*
D03*
X302000D02*
D03*
X296000D02*
D03*
X290000D02*
D03*
X351500Y198500D02*
D03*
X298500Y186500D02*
D03*
Y194500D02*
D03*
X156618Y340402D02*
D03*
X131118D02*
D03*
X125118D02*
D03*
X119118D02*
D03*
X113118D02*
D03*
X107118D02*
D03*
X101118D02*
D03*
X95118D02*
D03*
X156618Y285902D02*
D03*
X103618Y273902D02*
D03*
Y281902D02*
D03*
X351500Y340402D02*
D03*
X326000D02*
D03*
X320000D02*
D03*
X314000D02*
D03*
X308000D02*
D03*
X302000D02*
D03*
X296000D02*
D03*
X290000D02*
D03*
X351500Y285902D02*
D03*
X298500Y273902D02*
D03*
Y281902D02*
D03*
D23*
X123906Y11197D02*
D03*
X143118D02*
D03*
X318787D02*
D03*
X338000D02*
D03*
X123906Y98598D02*
D03*
X143118D02*
D03*
X318787D02*
D03*
X338000D02*
D03*
X123906Y186000D02*
D03*
X143118D02*
D03*
X318787D02*
D03*
X338000D02*
D03*
X123906Y273402D02*
D03*
X143118D02*
D03*
X318787D02*
D03*
X338000D02*
D03*
D24*
X82618Y28197D02*
D03*
X277500D02*
D03*
X82618Y115598D02*
D03*
X277500D02*
D03*
X82618Y203000D02*
D03*
X277500D02*
D03*
X82618Y290402D02*
D03*
X277500D02*
D03*
M02*
