%FSLAX25Y25*%
%MOIN*%
G70*
G01*
G75*
%ADD10R,0.05118X0.12992*%
%ADD11R,0.01969X0.12992*%
%ADD12C,0.02000*%
%ADD13R,0.05000X0.15000*%
%ADD14O,0.03937X0.05906*%
%ADD15C,0.00600*%
D15*
X10000Y20677D02*
X10900Y21577D01*
X10000Y5177D02*
X27000D01*
Y21577D01*
X10900D02*
X26900D01*
X10000Y5177D02*
Y20677D01*
X6000Y18177D02*
Y20310D01*
X7066Y21376D01*
X8133Y20310D01*
Y18177D01*
Y19777D01*
X6000D01*
X45433Y20677D02*
X46333Y21577D01*
X45433Y5177D02*
X62433D01*
Y21577D01*
X46333D02*
X62333D01*
X45433Y5177D02*
Y20677D01*
X41433Y18177D02*
Y20310D01*
X42499Y21376D01*
X43566Y20310D01*
Y18177D01*
Y19777D01*
X41433D01*
X80866Y20677D02*
X81766Y21577D01*
X80866Y5177D02*
X97866D01*
Y21577D01*
X81766D02*
X97766D01*
X80866Y5177D02*
Y20677D01*
X76866Y18177D02*
Y20310D01*
X77933Y21376D01*
X78999Y20310D01*
Y18177D01*
Y19777D01*
X76866D01*
X116299Y20677D02*
X117199Y21577D01*
X116299Y5177D02*
X133299D01*
Y21577D01*
X117199D02*
X133199D01*
X116299Y5177D02*
Y20677D01*
X112299Y18177D02*
Y20310D01*
X113365Y21376D01*
X114432Y20310D01*
Y18177D01*
Y19777D01*
X112299D01*
X151732Y20677D02*
X152632Y21577D01*
X151732Y5177D02*
X168732D01*
Y21577D01*
X152632D02*
X168632D01*
X151732Y5177D02*
Y20677D01*
X147732Y18177D02*
Y20310D01*
X148799Y21376D01*
X149865Y20310D01*
Y18177D01*
Y19777D01*
X147732D01*
X187165Y20677D02*
X188065Y21577D01*
X187165Y5177D02*
X204165D01*
Y21577D01*
X188065D02*
X204065D01*
X187165Y5177D02*
Y20677D01*
X183165Y18177D02*
Y20310D01*
X184232Y21376D01*
X185298Y20310D01*
Y18177D01*
Y19777D01*
X183165D01*
X222598Y20677D02*
X223498Y21577D01*
X222598Y5177D02*
X239598D01*
Y21577D01*
X223498D02*
X239498D01*
X222598Y5177D02*
Y20677D01*
X218598Y18177D02*
Y20310D01*
X219665Y21376D01*
X220731Y20310D01*
Y18177D01*
Y19777D01*
X218598D01*
X258032Y20677D02*
X258931Y21577D01*
X258032Y5177D02*
X275031D01*
Y21577D01*
X258931D02*
X274932D01*
X258032Y5177D02*
Y20677D01*
X254031Y18177D02*
Y20310D01*
X255098Y21376D01*
X256164Y20310D01*
Y18177D01*
Y19777D01*
X254031D01*
X293465Y20677D02*
X294365Y21577D01*
X293465Y5177D02*
X310465D01*
Y21577D01*
X294365D02*
X310365D01*
X293465Y5177D02*
Y20677D01*
X289465Y18177D02*
Y20310D01*
X290531Y21376D01*
X291597Y20310D01*
Y18177D01*
Y19777D01*
X289465D01*
X328898Y20677D02*
X329798Y21577D01*
X328898Y5177D02*
X345898D01*
Y21577D01*
X329798D02*
X345798D01*
X328898Y5177D02*
Y20677D01*
X324898Y18177D02*
Y20310D01*
X325964Y21376D01*
X327030Y20310D01*
Y18177D01*
Y19777D01*
X324898D01*
X10000Y45087D02*
X10900Y45987D01*
X10000Y29587D02*
X27000D01*
Y45987D01*
X10900D02*
X26900D01*
X10000Y29587D02*
Y45087D01*
X6000Y42587D02*
Y44719D01*
X7066Y45786D01*
X8133Y44719D01*
Y42587D01*
Y44186D01*
X6000D01*
X45433Y45087D02*
X46333Y45987D01*
X45433Y29587D02*
X62433D01*
Y45987D01*
X46333D02*
X62333D01*
X45433Y29587D02*
Y45087D01*
X41433Y42587D02*
Y44719D01*
X42499Y45786D01*
X43566Y44719D01*
Y42587D01*
Y44186D01*
X41433D01*
X80866Y45087D02*
X81766Y45987D01*
X80866Y29587D02*
X97866D01*
Y45987D01*
X81766D02*
X97766D01*
X80866Y29587D02*
Y45087D01*
X76866Y42587D02*
Y44719D01*
X77933Y45786D01*
X78999Y44719D01*
Y42587D01*
Y44186D01*
X76866D01*
X116299Y45087D02*
X117199Y45987D01*
X116299Y29587D02*
X133299D01*
Y45987D01*
X117199D02*
X133199D01*
X116299Y29587D02*
Y45087D01*
X112299Y42587D02*
Y44719D01*
X113365Y45786D01*
X114432Y44719D01*
Y42587D01*
Y44186D01*
X112299D01*
X151732Y45087D02*
X152632Y45987D01*
X151732Y29587D02*
X168732D01*
Y45987D01*
X152632D02*
X168632D01*
X151732Y29587D02*
Y45087D01*
X147732Y42587D02*
Y44719D01*
X148799Y45786D01*
X149865Y44719D01*
Y42587D01*
Y44186D01*
X147732D01*
X187165Y45087D02*
X188065Y45987D01*
X187165Y29587D02*
X204165D01*
Y45987D01*
X188065D02*
X204065D01*
X187165Y29587D02*
Y45087D01*
X183165Y42587D02*
Y44719D01*
X184232Y45786D01*
X185298Y44719D01*
Y42587D01*
Y44186D01*
X183165D01*
X222598Y45087D02*
X223498Y45987D01*
X222598Y29587D02*
X239598D01*
Y45987D01*
X223498D02*
X239498D01*
X222598Y29587D02*
Y45087D01*
X218598Y42587D02*
Y44719D01*
X219665Y45786D01*
X220731Y44719D01*
Y42587D01*
Y44186D01*
X218598D01*
X258032Y45087D02*
X258931Y45987D01*
X258032Y29587D02*
X275031D01*
Y45987D01*
X258931D02*
X274932D01*
X258032Y29587D02*
Y45087D01*
X254031Y42587D02*
Y44719D01*
X255098Y45786D01*
X256164Y44719D01*
Y42587D01*
Y44186D01*
X254031D01*
X293465Y45087D02*
X294365Y45987D01*
X293465Y29587D02*
X310465D01*
Y45987D01*
X294365D02*
X310365D01*
X293465Y29587D02*
Y45087D01*
X289465Y42587D02*
Y44719D01*
X290531Y45786D01*
X291597Y44719D01*
Y42587D01*
Y44186D01*
X289465D01*
X328898Y45087D02*
X329798Y45987D01*
X328898Y29587D02*
X345898D01*
Y45987D01*
X329798D02*
X345798D01*
X328898Y29587D02*
Y45087D01*
X324898Y42587D02*
Y44719D01*
X325964Y45786D01*
X327030Y44719D01*
Y42587D01*
Y44186D01*
X324898D01*
X10000Y69496D02*
X10900Y70396D01*
X10000Y53996D02*
X27000D01*
Y70396D01*
X10900D02*
X26900D01*
X10000Y53996D02*
Y69496D01*
X6000Y66996D02*
Y69129D01*
X7066Y70195D01*
X8133Y69129D01*
Y66996D01*
Y68595D01*
X6000D01*
X45433Y69496D02*
X46333Y70396D01*
X45433Y53996D02*
X62433D01*
Y70396D01*
X46333D02*
X62333D01*
X45433Y53996D02*
Y69496D01*
X41433Y66996D02*
Y69129D01*
X42499Y70195D01*
X43566Y69129D01*
Y66996D01*
Y68595D01*
X41433D01*
X80866Y69496D02*
X81766Y70396D01*
X80866Y53996D02*
X97866D01*
Y70396D01*
X81766D02*
X97766D01*
X80866Y53996D02*
Y69496D01*
X76866Y66996D02*
Y69129D01*
X77933Y70195D01*
X78999Y69129D01*
Y66996D01*
Y68595D01*
X76866D01*
X116299Y69496D02*
X117199Y70396D01*
X116299Y53996D02*
X133299D01*
Y70396D01*
X117199D02*
X133199D01*
X116299Y53996D02*
Y69496D01*
X112299Y66996D02*
Y69129D01*
X113365Y70195D01*
X114432Y69129D01*
Y66996D01*
Y68595D01*
X112299D01*
X151732Y69496D02*
X152632Y70396D01*
X151732Y53996D02*
X168732D01*
Y70396D01*
X152632D02*
X168632D01*
X151732Y53996D02*
Y69496D01*
X147732Y66996D02*
Y69129D01*
X148799Y70195D01*
X149865Y69129D01*
Y66996D01*
Y68595D01*
X147732D01*
X187165Y69496D02*
X188065Y70396D01*
X187165Y53996D02*
X204165D01*
Y70396D01*
X188065D02*
X204065D01*
X187165Y53996D02*
Y69496D01*
X183165Y66996D02*
Y69129D01*
X184232Y70195D01*
X185298Y69129D01*
Y66996D01*
Y68595D01*
X183165D01*
X222598Y69496D02*
X223498Y70396D01*
X222598Y53996D02*
X239598D01*
Y70396D01*
X223498D02*
X239498D01*
X222598Y53996D02*
Y69496D01*
X218598Y66996D02*
Y69129D01*
X219665Y70195D01*
X220731Y69129D01*
Y66996D01*
Y68595D01*
X218598D01*
X258032Y69496D02*
X258931Y70396D01*
X258032Y53996D02*
X275031D01*
Y70396D01*
X258931D02*
X274932D01*
X258032Y53996D02*
Y69496D01*
X254031Y66996D02*
Y69129D01*
X255098Y70195D01*
X256164Y69129D01*
Y66996D01*
Y68595D01*
X254031D01*
X293465Y69496D02*
X294365Y70396D01*
X293465Y53996D02*
X310465D01*
Y70396D01*
X294365D02*
X310365D01*
X293465Y53996D02*
Y69496D01*
X289465Y66996D02*
Y69129D01*
X290531Y70195D01*
X291597Y69129D01*
Y66996D01*
Y68595D01*
X289465D01*
X328898Y69496D02*
X329798Y70396D01*
X328898Y53996D02*
X345898D01*
Y70396D01*
X329798D02*
X345798D01*
X328898Y53996D02*
Y69496D01*
X324898Y66996D02*
Y69129D01*
X325964Y70195D01*
X327030Y69129D01*
Y66996D01*
Y68595D01*
X324898D01*
X10000Y93906D02*
X10900Y94806D01*
X10000Y78405D02*
X27000D01*
Y94806D01*
X10900D02*
X26900D01*
X10000Y78405D02*
Y93906D01*
X6000Y91405D02*
Y93538D01*
X7066Y94604D01*
X8133Y93538D01*
Y91405D01*
Y93005D01*
X6000D01*
X45433Y93906D02*
X46333Y94806D01*
X45433Y78405D02*
X62433D01*
Y94806D01*
X46333D02*
X62333D01*
X45433Y78405D02*
Y93906D01*
X41433Y91405D02*
Y93538D01*
X42499Y94604D01*
X43566Y93538D01*
Y91405D01*
Y93005D01*
X41433D01*
X80866Y93906D02*
X81766Y94806D01*
X80866Y78405D02*
X97866D01*
Y94806D01*
X81766D02*
X97766D01*
X80866Y78405D02*
Y93906D01*
X76866Y91405D02*
Y93538D01*
X77933Y94604D01*
X78999Y93538D01*
Y91405D01*
Y93005D01*
X76866D01*
X116299Y93906D02*
X117199Y94806D01*
X116299Y78405D02*
X133299D01*
Y94806D01*
X117199D02*
X133199D01*
X116299Y78405D02*
Y93906D01*
X112299Y91405D02*
Y93538D01*
X113365Y94604D01*
X114432Y93538D01*
Y91405D01*
Y93005D01*
X112299D01*
X151732Y93906D02*
X152632Y94806D01*
X151732Y78405D02*
X168732D01*
Y94806D01*
X152632D02*
X168632D01*
X151732Y78405D02*
Y93906D01*
X147732Y91405D02*
Y93538D01*
X148799Y94604D01*
X149865Y93538D01*
Y91405D01*
Y93005D01*
X147732D01*
X187165Y93906D02*
X188065Y94806D01*
X187165Y78405D02*
X204165D01*
Y94806D01*
X188065D02*
X204065D01*
X187165Y78405D02*
Y93906D01*
X183165Y91405D02*
Y93538D01*
X184232Y94604D01*
X185298Y93538D01*
Y91405D01*
Y93005D01*
X183165D01*
X222598Y93906D02*
X223498Y94806D01*
X222598Y78405D02*
X239598D01*
Y94806D01*
X223498D02*
X239498D01*
X222598Y78405D02*
Y93906D01*
X218598Y91405D02*
Y93538D01*
X219665Y94604D01*
X220731Y93538D01*
Y91405D01*
Y93005D01*
X218598D01*
X258032Y93906D02*
X258931Y94806D01*
X258032Y78405D02*
X275031D01*
Y94806D01*
X258931D02*
X274932D01*
X258032Y78405D02*
Y93906D01*
X254031Y91405D02*
Y93538D01*
X255098Y94604D01*
X256164Y93538D01*
Y91405D01*
Y93005D01*
X254031D01*
X293465Y93906D02*
X294365Y94806D01*
X293465Y78405D02*
X310465D01*
Y94806D01*
X294365D02*
X310365D01*
X293465Y78405D02*
Y93906D01*
X289465Y91405D02*
Y93538D01*
X290531Y94604D01*
X291597Y93538D01*
Y91405D01*
Y93005D01*
X289465D01*
X328898Y93906D02*
X329798Y94806D01*
X328898Y78405D02*
X345898D01*
Y94806D01*
X329798D02*
X345798D01*
X328898Y78405D02*
Y93906D01*
X324898Y91405D02*
Y93538D01*
X325964Y94604D01*
X327030Y93538D01*
Y91405D01*
Y93005D01*
X324898D01*
X10000Y118315D02*
X10900Y119215D01*
X10000Y102815D02*
X27000D01*
Y119215D01*
X10900D02*
X26900D01*
X10000Y102815D02*
Y118315D01*
X6000Y115815D02*
Y117948D01*
X7066Y119014D01*
X8133Y117948D01*
Y115815D01*
Y117414D01*
X6000D01*
X45433Y118315D02*
X46333Y119215D01*
X45433Y102815D02*
X62433D01*
Y119215D01*
X46333D02*
X62333D01*
X45433Y102815D02*
Y118315D01*
X41433Y115815D02*
Y117948D01*
X42499Y119014D01*
X43566Y117948D01*
Y115815D01*
Y117414D01*
X41433D01*
X80866Y118315D02*
X81766Y119215D01*
X80866Y102815D02*
X97866D01*
Y119215D01*
X81766D02*
X97766D01*
X80866Y102815D02*
Y118315D01*
X76866Y115815D02*
Y117948D01*
X77933Y119014D01*
X78999Y117948D01*
Y115815D01*
Y117414D01*
X76866D01*
X116299Y118315D02*
X117199Y119215D01*
X116299Y102815D02*
X133299D01*
Y119215D01*
X117199D02*
X133199D01*
X116299Y102815D02*
Y118315D01*
X112299Y115815D02*
Y117948D01*
X113365Y119014D01*
X114432Y117948D01*
Y115815D01*
Y117414D01*
X112299D01*
X151732Y118315D02*
X152632Y119215D01*
X151732Y102815D02*
X168732D01*
Y119215D01*
X152632D02*
X168632D01*
X151732Y102815D02*
Y118315D01*
X147732Y115815D02*
Y117948D01*
X148799Y119014D01*
X149865Y117948D01*
Y115815D01*
Y117414D01*
X147732D01*
X187165Y118315D02*
X188065Y119215D01*
X187165Y102815D02*
X204165D01*
Y119215D01*
X188065D02*
X204065D01*
X187165Y102815D02*
Y118315D01*
X183165Y115815D02*
Y117948D01*
X184232Y119014D01*
X185298Y117948D01*
Y115815D01*
Y117414D01*
X183165D01*
X222598Y118315D02*
X223498Y119215D01*
X222598Y102815D02*
X239598D01*
Y119215D01*
X223498D02*
X239498D01*
X222598Y102815D02*
Y118315D01*
X218598Y115815D02*
Y117948D01*
X219665Y119014D01*
X220731Y117948D01*
Y115815D01*
Y117414D01*
X218598D01*
X258032Y118315D02*
X258931Y119215D01*
X258032Y102815D02*
X275031D01*
Y119215D01*
X258931D02*
X274932D01*
X258032Y102815D02*
Y118315D01*
X254031Y115815D02*
Y117948D01*
X255098Y119014D01*
X256164Y117948D01*
Y115815D01*
Y117414D01*
X254031D01*
X293465Y118315D02*
X294365Y119215D01*
X293465Y102815D02*
X310465D01*
Y119215D01*
X294365D02*
X310365D01*
X293465Y102815D02*
Y118315D01*
X289465Y115815D02*
Y117948D01*
X290531Y119014D01*
X291597Y117948D01*
Y115815D01*
Y117414D01*
X289465D01*
X328898Y118315D02*
X329798Y119215D01*
X328898Y102815D02*
X345898D01*
Y119215D01*
X329798D02*
X345798D01*
X328898Y102815D02*
Y118315D01*
X324898Y115815D02*
Y117948D01*
X325964Y119014D01*
X327030Y117948D01*
Y115815D01*
Y117414D01*
X324898D01*
X10000Y142724D02*
X10900Y143624D01*
X10000Y127224D02*
X27000D01*
Y143624D01*
X10900D02*
X26900D01*
X10000Y127224D02*
Y142724D01*
X6000Y140224D02*
Y142357D01*
X7066Y143423D01*
X8133Y142357D01*
Y140224D01*
Y141824D01*
X6000D01*
X45433Y142724D02*
X46333Y143624D01*
X45433Y127224D02*
X62433D01*
Y143624D01*
X46333D02*
X62333D01*
X45433Y127224D02*
Y142724D01*
X41433Y140224D02*
Y142357D01*
X42499Y143423D01*
X43566Y142357D01*
Y140224D01*
Y141824D01*
X41433D01*
X80866Y142724D02*
X81766Y143624D01*
X80866Y127224D02*
X97866D01*
Y143624D01*
X81766D02*
X97766D01*
X80866Y127224D02*
Y142724D01*
X76866Y140224D02*
Y142357D01*
X77933Y143423D01*
X78999Y142357D01*
Y140224D01*
Y141824D01*
X76866D01*
X116299Y142724D02*
X117199Y143624D01*
X116299Y127224D02*
X133299D01*
Y143624D01*
X117199D02*
X133199D01*
X116299Y127224D02*
Y142724D01*
X112299Y140224D02*
Y142357D01*
X113365Y143423D01*
X114432Y142357D01*
Y140224D01*
Y141824D01*
X112299D01*
X151732Y142724D02*
X152632Y143624D01*
X151732Y127224D02*
X168732D01*
Y143624D01*
X152632D02*
X168632D01*
X151732Y127224D02*
Y142724D01*
X147732Y140224D02*
Y142357D01*
X148799Y143423D01*
X149865Y142357D01*
Y140224D01*
Y141824D01*
X147732D01*
X187165Y142724D02*
X188065Y143624D01*
X187165Y127224D02*
X204165D01*
Y143624D01*
X188065D02*
X204065D01*
X187165Y127224D02*
Y142724D01*
X183165Y140224D02*
Y142357D01*
X184232Y143423D01*
X185298Y142357D01*
Y140224D01*
Y141824D01*
X183165D01*
X222598Y142724D02*
X223498Y143624D01*
X222598Y127224D02*
X239598D01*
Y143624D01*
X223498D02*
X239498D01*
X222598Y127224D02*
Y142724D01*
X218598Y140224D02*
Y142357D01*
X219665Y143423D01*
X220731Y142357D01*
Y140224D01*
Y141824D01*
X218598D01*
X258032Y142724D02*
X258931Y143624D01*
X258032Y127224D02*
X275031D01*
Y143624D01*
X258931D02*
X274932D01*
X258032Y127224D02*
Y142724D01*
X254031Y140224D02*
Y142357D01*
X255098Y143423D01*
X256164Y142357D01*
Y140224D01*
Y141824D01*
X254031D01*
X293465Y142724D02*
X294365Y143624D01*
X293465Y127224D02*
X310465D01*
Y143624D01*
X294365D02*
X310365D01*
X293465Y127224D02*
Y142724D01*
X289465Y140224D02*
Y142357D01*
X290531Y143423D01*
X291597Y142357D01*
Y140224D01*
Y141824D01*
X289465D01*
X328898Y142724D02*
X329798Y143624D01*
X328898Y127224D02*
X345898D01*
Y143624D01*
X329798D02*
X345798D01*
X328898Y127224D02*
Y142724D01*
X324898Y140224D02*
Y142357D01*
X325964Y143423D01*
X327030Y142357D01*
Y140224D01*
Y141824D01*
X324898D01*
X10000Y167134D02*
X10900Y168034D01*
X10000Y151634D02*
X27000D01*
Y168034D01*
X10900D02*
X26900D01*
X10000Y151634D02*
Y167134D01*
X6000Y164634D02*
Y166767D01*
X7066Y167833D01*
X8133Y166767D01*
Y164634D01*
Y166233D01*
X6000D01*
X45433Y167134D02*
X46333Y168034D01*
X45433Y151634D02*
X62433D01*
Y168034D01*
X46333D02*
X62333D01*
X45433Y151634D02*
Y167134D01*
X41433Y164634D02*
Y166767D01*
X42499Y167833D01*
X43566Y166767D01*
Y164634D01*
Y166233D01*
X41433D01*
X80866Y167134D02*
X81766Y168034D01*
X80866Y151634D02*
X97866D01*
Y168034D01*
X81766D02*
X97766D01*
X80866Y151634D02*
Y167134D01*
X76866Y164634D02*
Y166767D01*
X77933Y167833D01*
X78999Y166767D01*
Y164634D01*
Y166233D01*
X76866D01*
X116299Y167134D02*
X117199Y168034D01*
X116299Y151634D02*
X133299D01*
Y168034D01*
X117199D02*
X133199D01*
X116299Y151634D02*
Y167134D01*
X112299Y164634D02*
Y166767D01*
X113365Y167833D01*
X114432Y166767D01*
Y164634D01*
Y166233D01*
X112299D01*
X151732Y167134D02*
X152632Y168034D01*
X151732Y151634D02*
X168732D01*
Y168034D01*
X152632D02*
X168632D01*
X151732Y151634D02*
Y167134D01*
X147732Y164634D02*
Y166767D01*
X148799Y167833D01*
X149865Y166767D01*
Y164634D01*
Y166233D01*
X147732D01*
X187165Y167134D02*
X188065Y168034D01*
X187165Y151634D02*
X204165D01*
Y168034D01*
X188065D02*
X204065D01*
X187165Y151634D02*
Y167134D01*
X183165Y164634D02*
Y166767D01*
X184232Y167833D01*
X185298Y166767D01*
Y164634D01*
Y166233D01*
X183165D01*
X222598Y167134D02*
X223498Y168034D01*
X222598Y151634D02*
X239598D01*
Y168034D01*
X223498D02*
X239498D01*
X222598Y151634D02*
Y167134D01*
X218598Y164634D02*
Y166767D01*
X219665Y167833D01*
X220731Y166767D01*
Y164634D01*
Y166233D01*
X218598D01*
X258032Y167134D02*
X258931Y168034D01*
X258032Y151634D02*
X275031D01*
Y168034D01*
X258931D02*
X274932D01*
X258032Y151634D02*
Y167134D01*
X254031Y164634D02*
Y166767D01*
X255098Y167833D01*
X256164Y166767D01*
Y164634D01*
Y166233D01*
X254031D01*
X293465Y167134D02*
X294365Y168034D01*
X293465Y151634D02*
X310465D01*
Y168034D01*
X294365D02*
X310365D01*
X293465Y151634D02*
Y167134D01*
X289465Y164634D02*
Y166767D01*
X290531Y167833D01*
X291597Y166767D01*
Y164634D01*
Y166233D01*
X289465D01*
X328898Y167134D02*
X329798Y168034D01*
X328898Y151634D02*
X345898D01*
Y168034D01*
X329798D02*
X345798D01*
X328898Y151634D02*
Y167134D01*
X324898Y164634D02*
Y166767D01*
X325964Y167833D01*
X327030Y166767D01*
Y164634D01*
Y166233D01*
X324898D01*
X10000Y191543D02*
X10900Y192443D01*
X10000Y176043D02*
X27000D01*
Y192443D01*
X10900D02*
X26900D01*
X10000Y176043D02*
Y191543D01*
X6000Y189043D02*
Y191176D01*
X7066Y192242D01*
X8133Y191176D01*
Y189043D01*
Y190643D01*
X6000D01*
X45433Y191543D02*
X46333Y192443D01*
X45433Y176043D02*
X62433D01*
Y192443D01*
X46333D02*
X62333D01*
X45433Y176043D02*
Y191543D01*
X41433Y189043D02*
Y191176D01*
X42499Y192242D01*
X43566Y191176D01*
Y189043D01*
Y190643D01*
X41433D01*
X80866Y191543D02*
X81766Y192443D01*
X80866Y176043D02*
X97866D01*
Y192443D01*
X81766D02*
X97766D01*
X80866Y176043D02*
Y191543D01*
X76866Y189043D02*
Y191176D01*
X77933Y192242D01*
X78999Y191176D01*
Y189043D01*
Y190643D01*
X76866D01*
X116299Y191543D02*
X117199Y192443D01*
X116299Y176043D02*
X133299D01*
Y192443D01*
X117199D02*
X133199D01*
X116299Y176043D02*
Y191543D01*
X112299Y189043D02*
Y191176D01*
X113365Y192242D01*
X114432Y191176D01*
Y189043D01*
Y190643D01*
X112299D01*
X151732Y191543D02*
X152632Y192443D01*
X151732Y176043D02*
X168732D01*
Y192443D01*
X152632D02*
X168632D01*
X151732Y176043D02*
Y191543D01*
X147732Y189043D02*
Y191176D01*
X148799Y192242D01*
X149865Y191176D01*
Y189043D01*
Y190643D01*
X147732D01*
X187165Y191543D02*
X188065Y192443D01*
X187165Y176043D02*
X204165D01*
Y192443D01*
X188065D02*
X204065D01*
X187165Y176043D02*
Y191543D01*
X183165Y189043D02*
Y191176D01*
X184232Y192242D01*
X185298Y191176D01*
Y189043D01*
Y190643D01*
X183165D01*
X222598Y191543D02*
X223498Y192443D01*
X222598Y176043D02*
X239598D01*
Y192443D01*
X223498D02*
X239498D01*
X222598Y176043D02*
Y191543D01*
X218598Y189043D02*
Y191176D01*
X219665Y192242D01*
X220731Y191176D01*
Y189043D01*
Y190643D01*
X218598D01*
X258032Y191543D02*
X258931Y192443D01*
X258032Y176043D02*
X275031D01*
Y192443D01*
X258931D02*
X274932D01*
X258032Y176043D02*
Y191543D01*
X254031Y189043D02*
Y191176D01*
X255098Y192242D01*
X256164Y191176D01*
Y189043D01*
Y190643D01*
X254031D01*
X293465Y191543D02*
X294365Y192443D01*
X293465Y176043D02*
X310465D01*
Y192443D01*
X294365D02*
X310365D01*
X293465Y176043D02*
Y191543D01*
X289465Y189043D02*
Y191176D01*
X290531Y192242D01*
X291597Y191176D01*
Y189043D01*
Y190643D01*
X289465D01*
X328898Y191543D02*
X329798Y192443D01*
X328898Y176043D02*
X345898D01*
Y192443D01*
X329798D02*
X345798D01*
X328898Y176043D02*
Y191543D01*
X324898Y189043D02*
Y191176D01*
X325964Y192242D01*
X327030Y191176D01*
Y189043D01*
Y190643D01*
X324898D01*
X10000Y215953D02*
X10900Y216853D01*
X10000Y200453D02*
X27000D01*
Y216853D01*
X10900D02*
X26900D01*
X10000Y200453D02*
Y215953D01*
X6000Y213453D02*
Y215585D01*
X7066Y216652D01*
X8133Y215585D01*
Y213453D01*
Y215052D01*
X6000D01*
X45433Y215953D02*
X46333Y216853D01*
X45433Y200453D02*
X62433D01*
Y216853D01*
X46333D02*
X62333D01*
X45433Y200453D02*
Y215953D01*
X41433Y213453D02*
Y215585D01*
X42499Y216652D01*
X43566Y215585D01*
Y213453D01*
Y215052D01*
X41433D01*
X80866Y215953D02*
X81766Y216853D01*
X80866Y200453D02*
X97866D01*
Y216853D01*
X81766D02*
X97766D01*
X80866Y200453D02*
Y215953D01*
X76866Y213453D02*
Y215585D01*
X77933Y216652D01*
X78999Y215585D01*
Y213453D01*
Y215052D01*
X76866D01*
X116299Y215953D02*
X117199Y216853D01*
X116299Y200453D02*
X133299D01*
Y216853D01*
X117199D02*
X133199D01*
X116299Y200453D02*
Y215953D01*
X112299Y213453D02*
Y215585D01*
X113365Y216652D01*
X114432Y215585D01*
Y213453D01*
Y215052D01*
X112299D01*
X151732Y215953D02*
X152632Y216853D01*
X151732Y200453D02*
X168732D01*
Y216853D01*
X152632D02*
X168632D01*
X151732Y200453D02*
Y215953D01*
X147732Y213453D02*
Y215585D01*
X148799Y216652D01*
X149865Y215585D01*
Y213453D01*
Y215052D01*
X147732D01*
X187165Y215953D02*
X188065Y216853D01*
X187165Y200453D02*
X204165D01*
Y216853D01*
X188065D02*
X204065D01*
X187165Y200453D02*
Y215953D01*
X183165Y213453D02*
Y215585D01*
X184232Y216652D01*
X185298Y215585D01*
Y213453D01*
Y215052D01*
X183165D01*
X222598Y215953D02*
X223498Y216853D01*
X222598Y200453D02*
X239598D01*
Y216853D01*
X223498D02*
X239498D01*
X222598Y200453D02*
Y215953D01*
X218598Y213453D02*
Y215585D01*
X219665Y216652D01*
X220731Y215585D01*
Y213453D01*
Y215052D01*
X218598D01*
X258032Y215953D02*
X258931Y216853D01*
X258032Y200453D02*
X275031D01*
Y216853D01*
X258931D02*
X274932D01*
X258032Y200453D02*
Y215953D01*
X254031Y213453D02*
Y215585D01*
X255098Y216652D01*
X256164Y215585D01*
Y213453D01*
Y215052D01*
X254031D01*
X293465Y215953D02*
X294365Y216853D01*
X293465Y200453D02*
X310465D01*
Y216853D01*
X294365D02*
X310365D01*
X293465Y200453D02*
Y215953D01*
X289465Y213453D02*
Y215585D01*
X290531Y216652D01*
X291597Y215585D01*
Y213453D01*
Y215052D01*
X289465D01*
X328898Y215953D02*
X329798Y216853D01*
X328898Y200453D02*
X345898D01*
Y216853D01*
X329798D02*
X345798D01*
X328898Y200453D02*
Y215953D01*
X324898Y213453D02*
Y215585D01*
X325964Y216652D01*
X327030Y215585D01*
Y213453D01*
Y215052D01*
X324898D01*
X10000Y240362D02*
X10900Y241262D01*
X10000Y224862D02*
X27000D01*
Y241262D01*
X10900D02*
X26900D01*
X10000Y224862D02*
Y240362D01*
X6000Y237862D02*
Y239995D01*
X7066Y241061D01*
X8133Y239995D01*
Y237862D01*
Y239462D01*
X6000D01*
X45433Y240362D02*
X46333Y241262D01*
X45433Y224862D02*
X62433D01*
Y241262D01*
X46333D02*
X62333D01*
X45433Y224862D02*
Y240362D01*
X41433Y237862D02*
Y239995D01*
X42499Y241061D01*
X43566Y239995D01*
Y237862D01*
Y239462D01*
X41433D01*
X80866Y240362D02*
X81766Y241262D01*
X80866Y224862D02*
X97866D01*
Y241262D01*
X81766D02*
X97766D01*
X80866Y224862D02*
Y240362D01*
X76866Y237862D02*
Y239995D01*
X77933Y241061D01*
X78999Y239995D01*
Y237862D01*
Y239462D01*
X76866D01*
X116299Y240362D02*
X117199Y241262D01*
X116299Y224862D02*
X133299D01*
Y241262D01*
X117199D02*
X133199D01*
X116299Y224862D02*
Y240362D01*
X112299Y237862D02*
Y239995D01*
X113365Y241061D01*
X114432Y239995D01*
Y237862D01*
Y239462D01*
X112299D01*
X151732Y240362D02*
X152632Y241262D01*
X151732Y224862D02*
X168732D01*
Y241262D01*
X152632D02*
X168632D01*
X151732Y224862D02*
Y240362D01*
X147732Y237862D02*
Y239995D01*
X148799Y241061D01*
X149865Y239995D01*
Y237862D01*
Y239462D01*
X147732D01*
X187165Y240362D02*
X188065Y241262D01*
X187165Y224862D02*
X204165D01*
Y241262D01*
X188065D02*
X204065D01*
X187165Y224862D02*
Y240362D01*
X183165Y237862D02*
Y239995D01*
X184232Y241061D01*
X185298Y239995D01*
Y237862D01*
Y239462D01*
X183165D01*
X222598Y240362D02*
X223498Y241262D01*
X222598Y224862D02*
X239598D01*
Y241262D01*
X223498D02*
X239498D01*
X222598Y224862D02*
Y240362D01*
X218598Y237862D02*
Y239995D01*
X219665Y241061D01*
X220731Y239995D01*
Y237862D01*
Y239462D01*
X218598D01*
X258032Y240362D02*
X258931Y241262D01*
X258032Y224862D02*
X275031D01*
Y241262D01*
X258931D02*
X274932D01*
X258032Y224862D02*
Y240362D01*
X254031Y237862D02*
Y239995D01*
X255098Y241061D01*
X256164Y239995D01*
Y237862D01*
Y239462D01*
X254031D01*
X293465Y240362D02*
X294365Y241262D01*
X293465Y224862D02*
X310465D01*
Y241262D01*
X294365D02*
X310365D01*
X293465Y224862D02*
Y240362D01*
X289465Y237862D02*
Y239995D01*
X290531Y241061D01*
X291597Y239995D01*
Y237862D01*
Y239462D01*
X289465D01*
X328898Y240362D02*
X329798Y241262D01*
X328898Y224862D02*
X345898D01*
Y241262D01*
X329798D02*
X345798D01*
X328898Y224862D02*
Y240362D01*
X324898Y237862D02*
Y239995D01*
X325964Y241061D01*
X327030Y239995D01*
Y237862D01*
Y239462D01*
X324898D01*
X10000Y264772D02*
X10900Y265672D01*
X10000Y249272D02*
X27000D01*
Y265672D01*
X10900D02*
X26900D01*
X10000Y249272D02*
Y264772D01*
X6000Y262272D02*
Y264404D01*
X7066Y265471D01*
X8133Y264404D01*
Y262272D01*
Y263871D01*
X6000D01*
X45433Y264772D02*
X46333Y265672D01*
X45433Y249272D02*
X62433D01*
Y265672D01*
X46333D02*
X62333D01*
X45433Y249272D02*
Y264772D01*
X41433Y262272D02*
Y264404D01*
X42499Y265471D01*
X43566Y264404D01*
Y262272D01*
Y263871D01*
X41433D01*
X80866Y264772D02*
X81766Y265672D01*
X80866Y249272D02*
X97866D01*
Y265672D01*
X81766D02*
X97766D01*
X80866Y249272D02*
Y264772D01*
X76866Y262272D02*
Y264404D01*
X77933Y265471D01*
X78999Y264404D01*
Y262272D01*
Y263871D01*
X76866D01*
X116299Y264772D02*
X117199Y265672D01*
X116299Y249272D02*
X133299D01*
Y265672D01*
X117199D02*
X133199D01*
X116299Y249272D02*
Y264772D01*
X112299Y262272D02*
Y264404D01*
X113365Y265471D01*
X114432Y264404D01*
Y262272D01*
Y263871D01*
X112299D01*
X151732Y264772D02*
X152632Y265672D01*
X151732Y249272D02*
X168732D01*
Y265672D01*
X152632D02*
X168632D01*
X151732Y249272D02*
Y264772D01*
X147732Y262272D02*
Y264404D01*
X148799Y265471D01*
X149865Y264404D01*
Y262272D01*
Y263871D01*
X147732D01*
X187165Y264772D02*
X188065Y265672D01*
X187165Y249272D02*
X204165D01*
Y265672D01*
X188065D02*
X204065D01*
X187165Y249272D02*
Y264772D01*
X183165Y262272D02*
Y264404D01*
X184232Y265471D01*
X185298Y264404D01*
Y262272D01*
Y263871D01*
X183165D01*
X222598Y264772D02*
X223498Y265672D01*
X222598Y249272D02*
X239598D01*
Y265672D01*
X223498D02*
X239498D01*
X222598Y249272D02*
Y264772D01*
X218598Y262272D02*
Y264404D01*
X219665Y265471D01*
X220731Y264404D01*
Y262272D01*
Y263871D01*
X218598D01*
X258032Y264772D02*
X258931Y265672D01*
X258032Y249272D02*
X275031D01*
Y265672D01*
X258931D02*
X274932D01*
X258032Y249272D02*
Y264772D01*
X254031Y262272D02*
Y264404D01*
X255098Y265471D01*
X256164Y264404D01*
Y262272D01*
Y263871D01*
X254031D01*
X293465Y264772D02*
X294365Y265672D01*
X293465Y249272D02*
X310465D01*
Y265672D01*
X294365D02*
X310365D01*
X293465Y249272D02*
Y264772D01*
X289465Y262272D02*
Y264404D01*
X290531Y265471D01*
X291597Y264404D01*
Y262272D01*
Y263871D01*
X289465D01*
X328898Y264772D02*
X329798Y265672D01*
X328898Y249272D02*
X345898D01*
Y265672D01*
X329798D02*
X345798D01*
X328898Y249272D02*
Y264772D01*
X324898Y262272D02*
Y264404D01*
X325964Y265471D01*
X327030Y264404D01*
Y262272D01*
Y263871D01*
X324898D01*
X10000Y289181D02*
X10900Y290081D01*
X10000Y273681D02*
X27000D01*
Y290081D01*
X10900D02*
X26900D01*
X10000Y273681D02*
Y289181D01*
X6000Y286681D02*
Y288814D01*
X7066Y289880D01*
X8133Y288814D01*
Y286681D01*
Y288281D01*
X6000D01*
X45433Y289181D02*
X46333Y290081D01*
X45433Y273681D02*
X62433D01*
Y290081D01*
X46333D02*
X62333D01*
X45433Y273681D02*
Y289181D01*
X41433Y286681D02*
Y288814D01*
X42499Y289880D01*
X43566Y288814D01*
Y286681D01*
Y288281D01*
X41433D01*
X80866Y289181D02*
X81766Y290081D01*
X80866Y273681D02*
X97866D01*
Y290081D01*
X81766D02*
X97766D01*
X80866Y273681D02*
Y289181D01*
X76866Y286681D02*
Y288814D01*
X77933Y289880D01*
X78999Y288814D01*
Y286681D01*
Y288281D01*
X76866D01*
X116299Y289181D02*
X117199Y290081D01*
X116299Y273681D02*
X133299D01*
Y290081D01*
X117199D02*
X133199D01*
X116299Y273681D02*
Y289181D01*
X112299Y286681D02*
Y288814D01*
X113365Y289880D01*
X114432Y288814D01*
Y286681D01*
Y288281D01*
X112299D01*
X151732Y289181D02*
X152632Y290081D01*
X151732Y273681D02*
X168732D01*
Y290081D01*
X152632D02*
X168632D01*
X151732Y273681D02*
Y289181D01*
X147732Y286681D02*
Y288814D01*
X148799Y289880D01*
X149865Y288814D01*
Y286681D01*
Y288281D01*
X147732D01*
X187165Y289181D02*
X188065Y290081D01*
X187165Y273681D02*
X204165D01*
Y290081D01*
X188065D02*
X204065D01*
X187165Y273681D02*
Y289181D01*
X183165Y286681D02*
Y288814D01*
X184232Y289880D01*
X185298Y288814D01*
Y286681D01*
Y288281D01*
X183165D01*
X222598Y289181D02*
X223498Y290081D01*
X222598Y273681D02*
X239598D01*
Y290081D01*
X223498D02*
X239498D01*
X222598Y273681D02*
Y289181D01*
X218598Y286681D02*
Y288814D01*
X219665Y289880D01*
X220731Y288814D01*
Y286681D01*
Y288281D01*
X218598D01*
X258032Y289181D02*
X258931Y290081D01*
X258032Y273681D02*
X275031D01*
Y290081D01*
X258931D02*
X274932D01*
X258032Y273681D02*
Y289181D01*
X254031Y286681D02*
Y288814D01*
X255098Y289880D01*
X256164Y288814D01*
Y286681D01*
Y288281D01*
X254031D01*
X293465Y289181D02*
X294365Y290081D01*
X293465Y273681D02*
X310465D01*
Y290081D01*
X294365D02*
X310365D01*
X293465Y273681D02*
Y289181D01*
X289465Y286681D02*
Y288814D01*
X290531Y289880D01*
X291597Y288814D01*
Y286681D01*
Y288281D01*
X289465D01*
X328898Y289181D02*
X329798Y290081D01*
X328898Y273681D02*
X345898D01*
Y290081D01*
X329798D02*
X345798D01*
X328898Y273681D02*
Y289181D01*
X324898Y286681D02*
Y288814D01*
X325964Y289880D01*
X327030Y288814D01*
Y286681D01*
Y288281D01*
X324898D01*
X10000Y313591D02*
X10900Y314491D01*
X10000Y298091D02*
X27000D01*
Y314491D01*
X10900D02*
X26900D01*
X10000Y298091D02*
Y313591D01*
X6000Y311090D02*
Y313223D01*
X7066Y314289D01*
X8133Y313223D01*
Y311090D01*
Y312690D01*
X6000D01*
X45433Y313591D02*
X46333Y314491D01*
X45433Y298091D02*
X62433D01*
Y314491D01*
X46333D02*
X62333D01*
X45433Y298091D02*
Y313591D01*
X41433Y311090D02*
Y313223D01*
X42499Y314289D01*
X43566Y313223D01*
Y311090D01*
Y312690D01*
X41433D01*
X80866Y313591D02*
X81766Y314491D01*
X80866Y298091D02*
X97866D01*
Y314491D01*
X81766D02*
X97766D01*
X80866Y298091D02*
Y313591D01*
X76866Y311090D02*
Y313223D01*
X77933Y314289D01*
X78999Y313223D01*
Y311090D01*
Y312690D01*
X76866D01*
X116299Y313591D02*
X117199Y314491D01*
X116299Y298091D02*
X133299D01*
Y314491D01*
X117199D02*
X133199D01*
X116299Y298091D02*
Y313591D01*
X112299Y311090D02*
Y313223D01*
X113365Y314289D01*
X114432Y313223D01*
Y311090D01*
Y312690D01*
X112299D01*
X151732Y313591D02*
X152632Y314491D01*
X151732Y298091D02*
X168732D01*
Y314491D01*
X152632D02*
X168632D01*
X151732Y298091D02*
Y313591D01*
X147732Y311090D02*
Y313223D01*
X148799Y314289D01*
X149865Y313223D01*
Y311090D01*
Y312690D01*
X147732D01*
X187165Y313591D02*
X188065Y314491D01*
X187165Y298091D02*
X204165D01*
Y314491D01*
X188065D02*
X204065D01*
X187165Y298091D02*
Y313591D01*
X183165Y311090D02*
Y313223D01*
X184232Y314289D01*
X185298Y313223D01*
Y311090D01*
Y312690D01*
X183165D01*
X222598Y313591D02*
X223498Y314491D01*
X222598Y298091D02*
X239598D01*
Y314491D01*
X223498D02*
X239498D01*
X222598Y298091D02*
Y313591D01*
X218598Y311090D02*
Y313223D01*
X219665Y314289D01*
X220731Y313223D01*
Y311090D01*
Y312690D01*
X218598D01*
X258032Y313591D02*
X258931Y314491D01*
X258032Y298091D02*
X275031D01*
Y314491D01*
X258931D02*
X274932D01*
X258032Y298091D02*
Y313591D01*
X254031Y311090D02*
Y313223D01*
X255098Y314289D01*
X256164Y313223D01*
Y311090D01*
Y312690D01*
X254031D01*
X293465Y313591D02*
X294365Y314491D01*
X293465Y298091D02*
X310465D01*
Y314491D01*
X294365D02*
X310365D01*
X293465Y298091D02*
Y313591D01*
X289465Y311090D02*
Y313223D01*
X290531Y314289D01*
X291597Y313223D01*
Y311090D01*
Y312690D01*
X289465D01*
X328898Y313591D02*
X329798Y314491D01*
X328898Y298091D02*
X345898D01*
Y314491D01*
X329798D02*
X345798D01*
X328898Y298091D02*
Y313591D01*
X324898Y311090D02*
Y313223D01*
X325964Y314289D01*
X327030Y313223D01*
Y311090D01*
Y312690D01*
X324898D01*
X10000Y338000D02*
X10900Y338900D01*
X10000Y322500D02*
X27000D01*
Y338900D01*
X10900D02*
X26900D01*
X10000Y322500D02*
Y338000D01*
X6000Y335500D02*
Y337633D01*
X7066Y338699D01*
X8133Y337633D01*
Y335500D01*
Y337100D01*
X6000D01*
X45433Y338000D02*
X46333Y338900D01*
X45433Y322500D02*
X62433D01*
Y338900D01*
X46333D02*
X62333D01*
X45433Y322500D02*
Y338000D01*
X41433Y335500D02*
Y337633D01*
X42499Y338699D01*
X43566Y337633D01*
Y335500D01*
Y337100D01*
X41433D01*
X80866Y338000D02*
X81766Y338900D01*
X80866Y322500D02*
X97866D01*
Y338900D01*
X81766D02*
X97766D01*
X80866Y322500D02*
Y338000D01*
X76866Y335500D02*
Y337633D01*
X77933Y338699D01*
X78999Y337633D01*
Y335500D01*
Y337100D01*
X76866D01*
X116299Y338000D02*
X117199Y338900D01*
X116299Y322500D02*
X133299D01*
Y338900D01*
X117199D02*
X133199D01*
X116299Y322500D02*
Y338000D01*
X112299Y335500D02*
Y337633D01*
X113365Y338699D01*
X114432Y337633D01*
Y335500D01*
Y337100D01*
X112299D01*
X151732Y338000D02*
X152632Y338900D01*
X151732Y322500D02*
X168732D01*
Y338900D01*
X152632D02*
X168632D01*
X151732Y322500D02*
Y338000D01*
X147732Y335500D02*
Y337633D01*
X148799Y338699D01*
X149865Y337633D01*
Y335500D01*
Y337100D01*
X147732D01*
X187165Y338000D02*
X188065Y338900D01*
X187165Y322500D02*
X204165D01*
Y338900D01*
X188065D02*
X204065D01*
X187165Y322500D02*
Y338000D01*
X183165Y335500D02*
Y337633D01*
X184232Y338699D01*
X185298Y337633D01*
Y335500D01*
Y337100D01*
X183165D01*
X222598Y338000D02*
X223498Y338900D01*
X222598Y322500D02*
X239598D01*
Y338900D01*
X223498D02*
X239498D01*
X222598Y322500D02*
Y338000D01*
X218598Y335500D02*
Y337633D01*
X219665Y338699D01*
X220731Y337633D01*
Y335500D01*
Y337100D01*
X218598D01*
X258032Y338000D02*
X258931Y338900D01*
X258032Y322500D02*
X275031D01*
Y338900D01*
X258931D02*
X274932D01*
X258032Y322500D02*
Y338000D01*
X254031Y335500D02*
Y337633D01*
X255098Y338699D01*
X256164Y337633D01*
Y335500D01*
Y337100D01*
X254031D01*
X293465Y338000D02*
X294365Y338900D01*
X293465Y322500D02*
X310465D01*
Y338900D01*
X294365D02*
X310365D01*
X293465Y322500D02*
Y338000D01*
X289465Y335500D02*
Y337633D01*
X290531Y338699D01*
X291597Y337633D01*
Y335500D01*
Y337100D01*
X289465D01*
X328898Y338000D02*
X329798Y338900D01*
X328898Y322500D02*
X345898D01*
Y338900D01*
X329798D02*
X345798D01*
X328898Y322500D02*
Y338000D01*
X324898Y335500D02*
Y337633D01*
X325964Y338699D01*
X327030Y337633D01*
Y335500D01*
Y337100D01*
X324898D01*
M02*
