%FSLAX25Y25*%
%MOIN*%
G70*
G01*
G75*
%ADD10R,0.05118X0.12992*%
%ADD11R,0.01969X0.12992*%
%ADD12C,0.02000*%
%ADD13R,0.05000X0.15000*%
%ADD14O,0.03937X0.05906*%
%ADD15C,0.00600*%
%ADD16R,0.04717X0.12591*%
%ADD17R,0.01567X0.12591*%
%ADD18R,0.05518X0.13392*%
%ADD19R,0.02369X0.13392*%
%ADD20O,0.04337X0.06306*%
%ADD21C,0.01000*%
%ADD22C,0.00500*%
D22*
X5819Y13177D02*
X8181D01*
X7000Y11996D02*
Y14358D01*
X28819Y13177D02*
X31181D01*
X30000Y11996D02*
Y14358D01*
X41252Y13177D02*
X43614D01*
X42433Y11996D02*
Y14358D01*
X64252Y13177D02*
X66614D01*
X65433Y11996D02*
Y14358D01*
X76685Y13177D02*
X79047D01*
X77866Y11996D02*
Y14358D01*
X99685Y13177D02*
X102047D01*
X100866Y11996D02*
Y14358D01*
X112118Y13177D02*
X114480D01*
X113299Y11996D02*
Y14358D01*
X135118Y13177D02*
X137480D01*
X136299Y11996D02*
Y14358D01*
X147551Y13177D02*
X149913D01*
X148732Y11996D02*
Y14358D01*
X170551Y13177D02*
X172913D01*
X171732Y11996D02*
Y14358D01*
X182984Y13177D02*
X185346D01*
X184165Y11996D02*
Y14358D01*
X205984Y13177D02*
X208347D01*
X207165Y11996D02*
Y14358D01*
X218417Y13177D02*
X220779D01*
X219598Y11996D02*
Y14358D01*
X241417Y13177D02*
X243779D01*
X242598Y11996D02*
Y14358D01*
X253850Y13177D02*
X256213D01*
X255031Y11996D02*
Y14358D01*
X276850Y13177D02*
X279213D01*
X278031Y11996D02*
Y14358D01*
X289283Y13177D02*
X291646D01*
X290465Y11996D02*
Y14358D01*
X312283Y13177D02*
X314646D01*
X313465Y11996D02*
Y14358D01*
X324716Y13177D02*
X327079D01*
X325898Y11996D02*
Y14358D01*
X347716Y13177D02*
X350079D01*
X348898Y11996D02*
Y14358D01*
X5819Y37587D02*
X8181D01*
X7000Y36406D02*
Y38768D01*
X28819Y37587D02*
X31181D01*
X30000Y36406D02*
Y38768D01*
X41252Y37587D02*
X43614D01*
X42433Y36406D02*
Y38768D01*
X64252Y37587D02*
X66614D01*
X65433Y36406D02*
Y38768D01*
X76685Y37587D02*
X79047D01*
X77866Y36406D02*
Y38768D01*
X99685Y37587D02*
X102047D01*
X100866Y36406D02*
Y38768D01*
X112118Y37587D02*
X114480D01*
X113299Y36406D02*
Y38768D01*
X135118Y37587D02*
X137480D01*
X136299Y36406D02*
Y38768D01*
X147551Y37587D02*
X149913D01*
X148732Y36406D02*
Y38768D01*
X170551Y37587D02*
X172913D01*
X171732Y36406D02*
Y38768D01*
X182984Y37587D02*
X185346D01*
X184165Y36406D02*
Y38768D01*
X205984Y37587D02*
X208347D01*
X207165Y36406D02*
Y38768D01*
X218417Y37587D02*
X220779D01*
X219598Y36406D02*
Y38768D01*
X241417Y37587D02*
X243779D01*
X242598Y36406D02*
Y38768D01*
X253850Y37587D02*
X256213D01*
X255031Y36406D02*
Y38768D01*
X276850Y37587D02*
X279213D01*
X278031Y36406D02*
Y38768D01*
X289283Y37587D02*
X291646D01*
X290465Y36406D02*
Y38768D01*
X312283Y37587D02*
X314646D01*
X313465Y36406D02*
Y38768D01*
X324716Y37587D02*
X327079D01*
X325898Y36406D02*
Y38768D01*
X347716Y37587D02*
X350079D01*
X348898Y36406D02*
Y38768D01*
X5819Y61996D02*
X8181D01*
X7000Y60815D02*
Y63177D01*
X28819Y61996D02*
X31181D01*
X30000Y60815D02*
Y63177D01*
X41252Y61996D02*
X43614D01*
X42433Y60815D02*
Y63177D01*
X64252Y61996D02*
X66614D01*
X65433Y60815D02*
Y63177D01*
X76685Y61996D02*
X79047D01*
X77866Y60815D02*
Y63177D01*
X99685Y61996D02*
X102047D01*
X100866Y60815D02*
Y63177D01*
X112118Y61996D02*
X114480D01*
X113299Y60815D02*
Y63177D01*
X135118Y61996D02*
X137480D01*
X136299Y60815D02*
Y63177D01*
X147551Y61996D02*
X149913D01*
X148732Y60815D02*
Y63177D01*
X170551Y61996D02*
X172913D01*
X171732Y60815D02*
Y63177D01*
X182984Y61996D02*
X185346D01*
X184165Y60815D02*
Y63177D01*
X205984Y61996D02*
X208347D01*
X207165Y60815D02*
Y63177D01*
X218417Y61996D02*
X220779D01*
X219598Y60815D02*
Y63177D01*
X241417Y61996D02*
X243779D01*
X242598Y60815D02*
Y63177D01*
X253850Y61996D02*
X256213D01*
X255031Y60815D02*
Y63177D01*
X276850Y61996D02*
X279213D01*
X278031Y60815D02*
Y63177D01*
X289283Y61996D02*
X291646D01*
X290465Y60815D02*
Y63177D01*
X312283Y61996D02*
X314646D01*
X313465Y60815D02*
Y63177D01*
X324716Y61996D02*
X327079D01*
X325898Y60815D02*
Y63177D01*
X347716Y61996D02*
X350079D01*
X348898Y60815D02*
Y63177D01*
X5819Y86405D02*
X8181D01*
X7000Y85224D02*
Y87587D01*
X28819Y86405D02*
X31181D01*
X30000Y85224D02*
Y87587D01*
X41252Y86405D02*
X43614D01*
X42433Y85224D02*
Y87587D01*
X64252Y86405D02*
X66614D01*
X65433Y85224D02*
Y87587D01*
X76685Y86405D02*
X79047D01*
X77866Y85224D02*
Y87587D01*
X99685Y86405D02*
X102047D01*
X100866Y85224D02*
Y87587D01*
X112118Y86405D02*
X114480D01*
X113299Y85224D02*
Y87587D01*
X135118Y86405D02*
X137480D01*
X136299Y85224D02*
Y87587D01*
X147551Y86405D02*
X149913D01*
X148732Y85224D02*
Y87587D01*
X170551Y86405D02*
X172913D01*
X171732Y85224D02*
Y87587D01*
X182984Y86405D02*
X185346D01*
X184165Y85224D02*
Y87587D01*
X205984Y86405D02*
X208347D01*
X207165Y85224D02*
Y87587D01*
X218417Y86405D02*
X220779D01*
X219598Y85224D02*
Y87587D01*
X241417Y86405D02*
X243779D01*
X242598Y85224D02*
Y87587D01*
X253850Y86405D02*
X256213D01*
X255031Y85224D02*
Y87587D01*
X276850Y86405D02*
X279213D01*
X278031Y85224D02*
Y87587D01*
X289283Y86405D02*
X291646D01*
X290465Y85224D02*
Y87587D01*
X312283Y86405D02*
X314646D01*
X313465Y85224D02*
Y87587D01*
X324716Y86405D02*
X327079D01*
X325898Y85224D02*
Y87587D01*
X347716Y86405D02*
X350079D01*
X348898Y85224D02*
Y87587D01*
X5819Y110815D02*
X8181D01*
X7000Y109634D02*
Y111996D01*
X28819Y110815D02*
X31181D01*
X30000Y109634D02*
Y111996D01*
X41252Y110815D02*
X43614D01*
X42433Y109634D02*
Y111996D01*
X64252Y110815D02*
X66614D01*
X65433Y109634D02*
Y111996D01*
X76685Y110815D02*
X79047D01*
X77866Y109634D02*
Y111996D01*
X99685Y110815D02*
X102047D01*
X100866Y109634D02*
Y111996D01*
X112118Y110815D02*
X114480D01*
X113299Y109634D02*
Y111996D01*
X135118Y110815D02*
X137480D01*
X136299Y109634D02*
Y111996D01*
X147551Y110815D02*
X149913D01*
X148732Y109634D02*
Y111996D01*
X170551Y110815D02*
X172913D01*
X171732Y109634D02*
Y111996D01*
X182984Y110815D02*
X185346D01*
X184165Y109634D02*
Y111996D01*
X205984Y110815D02*
X208347D01*
X207165Y109634D02*
Y111996D01*
X218417Y110815D02*
X220779D01*
X219598Y109634D02*
Y111996D01*
X241417Y110815D02*
X243779D01*
X242598Y109634D02*
Y111996D01*
X253850Y110815D02*
X256213D01*
X255031Y109634D02*
Y111996D01*
X276850Y110815D02*
X279213D01*
X278031Y109634D02*
Y111996D01*
X289283Y110815D02*
X291646D01*
X290465Y109634D02*
Y111996D01*
X312283Y110815D02*
X314646D01*
X313465Y109634D02*
Y111996D01*
X324716Y110815D02*
X327079D01*
X325898Y109634D02*
Y111996D01*
X347716Y110815D02*
X350079D01*
X348898Y109634D02*
Y111996D01*
X5819Y135224D02*
X8181D01*
X7000Y134043D02*
Y136406D01*
X28819Y135224D02*
X31181D01*
X30000Y134043D02*
Y136406D01*
X41252Y135224D02*
X43614D01*
X42433Y134043D02*
Y136406D01*
X64252Y135224D02*
X66614D01*
X65433Y134043D02*
Y136406D01*
X76685Y135224D02*
X79047D01*
X77866Y134043D02*
Y136406D01*
X99685Y135224D02*
X102047D01*
X100866Y134043D02*
Y136406D01*
X112118Y135224D02*
X114480D01*
X113299Y134043D02*
Y136406D01*
X135118Y135224D02*
X137480D01*
X136299Y134043D02*
Y136406D01*
X147551Y135224D02*
X149913D01*
X148732Y134043D02*
Y136406D01*
X170551Y135224D02*
X172913D01*
X171732Y134043D02*
Y136406D01*
X182984Y135224D02*
X185346D01*
X184165Y134043D02*
Y136406D01*
X205984Y135224D02*
X208347D01*
X207165Y134043D02*
Y136406D01*
X218417Y135224D02*
X220779D01*
X219598Y134043D02*
Y136406D01*
X241417Y135224D02*
X243779D01*
X242598Y134043D02*
Y136406D01*
X253850Y135224D02*
X256213D01*
X255031Y134043D02*
Y136406D01*
X276850Y135224D02*
X279213D01*
X278031Y134043D02*
Y136406D01*
X289283Y135224D02*
X291646D01*
X290465Y134043D02*
Y136406D01*
X312283Y135224D02*
X314646D01*
X313465Y134043D02*
Y136406D01*
X324716Y135224D02*
X327079D01*
X325898Y134043D02*
Y136406D01*
X347716Y135224D02*
X350079D01*
X348898Y134043D02*
Y136406D01*
X5819Y159634D02*
X8181D01*
X7000Y158453D02*
Y160815D01*
X28819Y159634D02*
X31181D01*
X30000Y158453D02*
Y160815D01*
X41252Y159634D02*
X43614D01*
X42433Y158453D02*
Y160815D01*
X64252Y159634D02*
X66614D01*
X65433Y158453D02*
Y160815D01*
X76685Y159634D02*
X79047D01*
X77866Y158453D02*
Y160815D01*
X99685Y159634D02*
X102047D01*
X100866Y158453D02*
Y160815D01*
X112118Y159634D02*
X114480D01*
X113299Y158453D02*
Y160815D01*
X135118Y159634D02*
X137480D01*
X136299Y158453D02*
Y160815D01*
X147551Y159634D02*
X149913D01*
X148732Y158453D02*
Y160815D01*
X170551Y159634D02*
X172913D01*
X171732Y158453D02*
Y160815D01*
X182984Y159634D02*
X185346D01*
X184165Y158453D02*
Y160815D01*
X205984Y159634D02*
X208347D01*
X207165Y158453D02*
Y160815D01*
X218417Y159634D02*
X220779D01*
X219598Y158453D02*
Y160815D01*
X241417Y159634D02*
X243779D01*
X242598Y158453D02*
Y160815D01*
X253850Y159634D02*
X256213D01*
X255031Y158453D02*
Y160815D01*
X276850Y159634D02*
X279213D01*
X278031Y158453D02*
Y160815D01*
X289283Y159634D02*
X291646D01*
X290465Y158453D02*
Y160815D01*
X312283Y159634D02*
X314646D01*
X313465Y158453D02*
Y160815D01*
X324716Y159634D02*
X327079D01*
X325898Y158453D02*
Y160815D01*
X347716Y159634D02*
X350079D01*
X348898Y158453D02*
Y160815D01*
X5819Y184043D02*
X8181D01*
X7000Y182862D02*
Y185224D01*
X28819Y184043D02*
X31181D01*
X30000Y182862D02*
Y185224D01*
X41252Y184043D02*
X43614D01*
X42433Y182862D02*
Y185224D01*
X64252Y184043D02*
X66614D01*
X65433Y182862D02*
Y185224D01*
X76685Y184043D02*
X79047D01*
X77866Y182862D02*
Y185224D01*
X99685Y184043D02*
X102047D01*
X100866Y182862D02*
Y185224D01*
X112118Y184043D02*
X114480D01*
X113299Y182862D02*
Y185224D01*
X135118Y184043D02*
X137480D01*
X136299Y182862D02*
Y185224D01*
X147551Y184043D02*
X149913D01*
X148732Y182862D02*
Y185224D01*
X170551Y184043D02*
X172913D01*
X171732Y182862D02*
Y185224D01*
X182984Y184043D02*
X185346D01*
X184165Y182862D02*
Y185224D01*
X205984Y184043D02*
X208347D01*
X207165Y182862D02*
Y185224D01*
X218417Y184043D02*
X220779D01*
X219598Y182862D02*
Y185224D01*
X241417Y184043D02*
X243779D01*
X242598Y182862D02*
Y185224D01*
X253850Y184043D02*
X256213D01*
X255031Y182862D02*
Y185224D01*
X276850Y184043D02*
X279213D01*
X278031Y182862D02*
Y185224D01*
X289283Y184043D02*
X291646D01*
X290465Y182862D02*
Y185224D01*
X312283Y184043D02*
X314646D01*
X313465Y182862D02*
Y185224D01*
X324716Y184043D02*
X327079D01*
X325898Y182862D02*
Y185224D01*
X347716Y184043D02*
X350079D01*
X348898Y182862D02*
Y185224D01*
X5819Y208453D02*
X8181D01*
X7000Y207272D02*
Y209634D01*
X28819Y208453D02*
X31181D01*
X30000Y207272D02*
Y209634D01*
X41252Y208453D02*
X43614D01*
X42433Y207272D02*
Y209634D01*
X64252Y208453D02*
X66614D01*
X65433Y207272D02*
Y209634D01*
X76685Y208453D02*
X79047D01*
X77866Y207272D02*
Y209634D01*
X99685Y208453D02*
X102047D01*
X100866Y207272D02*
Y209634D01*
X112118Y208453D02*
X114480D01*
X113299Y207272D02*
Y209634D01*
X135118Y208453D02*
X137480D01*
X136299Y207272D02*
Y209634D01*
X147551Y208453D02*
X149913D01*
X148732Y207272D02*
Y209634D01*
X170551Y208453D02*
X172913D01*
X171732Y207272D02*
Y209634D01*
X182984Y208453D02*
X185346D01*
X184165Y207272D02*
Y209634D01*
X205984Y208453D02*
X208347D01*
X207165Y207272D02*
Y209634D01*
X218417Y208453D02*
X220779D01*
X219598Y207272D02*
Y209634D01*
X241417Y208453D02*
X243779D01*
X242598Y207272D02*
Y209634D01*
X253850Y208453D02*
X256213D01*
X255031Y207272D02*
Y209634D01*
X276850Y208453D02*
X279213D01*
X278031Y207272D02*
Y209634D01*
X289283Y208453D02*
X291646D01*
X290465Y207272D02*
Y209634D01*
X312283Y208453D02*
X314646D01*
X313465Y207272D02*
Y209634D01*
X324716Y208453D02*
X327079D01*
X325898Y207272D02*
Y209634D01*
X347716Y208453D02*
X350079D01*
X348898Y207272D02*
Y209634D01*
X5819Y232862D02*
X8181D01*
X7000Y231681D02*
Y234043D01*
X28819Y232862D02*
X31181D01*
X30000Y231681D02*
Y234043D01*
X41252Y232862D02*
X43614D01*
X42433Y231681D02*
Y234043D01*
X64252Y232862D02*
X66614D01*
X65433Y231681D02*
Y234043D01*
X76685Y232862D02*
X79047D01*
X77866Y231681D02*
Y234043D01*
X99685Y232862D02*
X102047D01*
X100866Y231681D02*
Y234043D01*
X112118Y232862D02*
X114480D01*
X113299Y231681D02*
Y234043D01*
X135118Y232862D02*
X137480D01*
X136299Y231681D02*
Y234043D01*
X147551Y232862D02*
X149913D01*
X148732Y231681D02*
Y234043D01*
X170551Y232862D02*
X172913D01*
X171732Y231681D02*
Y234043D01*
X182984Y232862D02*
X185346D01*
X184165Y231681D02*
Y234043D01*
X205984Y232862D02*
X208347D01*
X207165Y231681D02*
Y234043D01*
X218417Y232862D02*
X220779D01*
X219598Y231681D02*
Y234043D01*
X241417Y232862D02*
X243779D01*
X242598Y231681D02*
Y234043D01*
X253850Y232862D02*
X256213D01*
X255031Y231681D02*
Y234043D01*
X276850Y232862D02*
X279213D01*
X278031Y231681D02*
Y234043D01*
X289283Y232862D02*
X291646D01*
X290465Y231681D02*
Y234043D01*
X312283Y232862D02*
X314646D01*
X313465Y231681D02*
Y234043D01*
X324716Y232862D02*
X327079D01*
X325898Y231681D02*
Y234043D01*
X347716Y232862D02*
X350079D01*
X348898Y231681D02*
Y234043D01*
X5819Y257272D02*
X8181D01*
X7000Y256090D02*
Y258453D01*
X28819Y257272D02*
X31181D01*
X30000Y256090D02*
Y258453D01*
X41252Y257272D02*
X43614D01*
X42433Y256090D02*
Y258453D01*
X64252Y257272D02*
X66614D01*
X65433Y256090D02*
Y258453D01*
X76685Y257272D02*
X79047D01*
X77866Y256090D02*
Y258453D01*
X99685Y257272D02*
X102047D01*
X100866Y256090D02*
Y258453D01*
X112118Y257272D02*
X114480D01*
X113299Y256090D02*
Y258453D01*
X135118Y257272D02*
X137480D01*
X136299Y256090D02*
Y258453D01*
X147551Y257272D02*
X149913D01*
X148732Y256090D02*
Y258453D01*
X170551Y257272D02*
X172913D01*
X171732Y256090D02*
Y258453D01*
X182984Y257272D02*
X185346D01*
X184165Y256090D02*
Y258453D01*
X205984Y257272D02*
X208347D01*
X207165Y256090D02*
Y258453D01*
X218417Y257272D02*
X220779D01*
X219598Y256090D02*
Y258453D01*
X241417Y257272D02*
X243779D01*
X242598Y256090D02*
Y258453D01*
X253850Y257272D02*
X256213D01*
X255031Y256090D02*
Y258453D01*
X276850Y257272D02*
X279213D01*
X278031Y256090D02*
Y258453D01*
X289283Y257272D02*
X291646D01*
X290465Y256090D02*
Y258453D01*
X312283Y257272D02*
X314646D01*
X313465Y256090D02*
Y258453D01*
X324716Y257272D02*
X327079D01*
X325898Y256090D02*
Y258453D01*
X347716Y257272D02*
X350079D01*
X348898Y256090D02*
Y258453D01*
X5819Y281681D02*
X8181D01*
X7000Y280500D02*
Y282862D01*
X28819Y281681D02*
X31181D01*
X30000Y280500D02*
Y282862D01*
X41252Y281681D02*
X43614D01*
X42433Y280500D02*
Y282862D01*
X64252Y281681D02*
X66614D01*
X65433Y280500D02*
Y282862D01*
X76685Y281681D02*
X79047D01*
X77866Y280500D02*
Y282862D01*
X99685Y281681D02*
X102047D01*
X100866Y280500D02*
Y282862D01*
X112118Y281681D02*
X114480D01*
X113299Y280500D02*
Y282862D01*
X135118Y281681D02*
X137480D01*
X136299Y280500D02*
Y282862D01*
X147551Y281681D02*
X149913D01*
X148732Y280500D02*
Y282862D01*
X170551Y281681D02*
X172913D01*
X171732Y280500D02*
Y282862D01*
X182984Y281681D02*
X185346D01*
X184165Y280500D02*
Y282862D01*
X205984Y281681D02*
X208347D01*
X207165Y280500D02*
Y282862D01*
X218417Y281681D02*
X220779D01*
X219598Y280500D02*
Y282862D01*
X241417Y281681D02*
X243779D01*
X242598Y280500D02*
Y282862D01*
X253850Y281681D02*
X256213D01*
X255031Y280500D02*
Y282862D01*
X276850Y281681D02*
X279213D01*
X278031Y280500D02*
Y282862D01*
X289283Y281681D02*
X291646D01*
X290465Y280500D02*
Y282862D01*
X312283Y281681D02*
X314646D01*
X313465Y280500D02*
Y282862D01*
X324716Y281681D02*
X327079D01*
X325898Y280500D02*
Y282862D01*
X347716Y281681D02*
X350079D01*
X348898Y280500D02*
Y282862D01*
X5819Y306090D02*
X8181D01*
X7000Y304909D02*
Y307272D01*
X28819Y306090D02*
X31181D01*
X30000Y304909D02*
Y307272D01*
X41252Y306090D02*
X43614D01*
X42433Y304909D02*
Y307272D01*
X64252Y306090D02*
X66614D01*
X65433Y304909D02*
Y307272D01*
X76685Y306090D02*
X79047D01*
X77866Y304909D02*
Y307272D01*
X99685Y306090D02*
X102047D01*
X100866Y304909D02*
Y307272D01*
X112118Y306090D02*
X114480D01*
X113299Y304909D02*
Y307272D01*
X135118Y306090D02*
X137480D01*
X136299Y304909D02*
Y307272D01*
X147551Y306090D02*
X149913D01*
X148732Y304909D02*
Y307272D01*
X170551Y306090D02*
X172913D01*
X171732Y304909D02*
Y307272D01*
X182984Y306090D02*
X185346D01*
X184165Y304909D02*
Y307272D01*
X205984Y306090D02*
X208347D01*
X207165Y304909D02*
Y307272D01*
X218417Y306090D02*
X220779D01*
X219598Y304909D02*
Y307272D01*
X241417Y306090D02*
X243779D01*
X242598Y304909D02*
Y307272D01*
X253850Y306090D02*
X256213D01*
X255031Y304909D02*
Y307272D01*
X276850Y306090D02*
X279213D01*
X278031Y304909D02*
Y307272D01*
X289283Y306090D02*
X291646D01*
X290465Y304909D02*
Y307272D01*
X312283Y306090D02*
X314646D01*
X313465Y304909D02*
Y307272D01*
X324716Y306090D02*
X327079D01*
X325898Y304909D02*
Y307272D01*
X347716Y306090D02*
X350079D01*
X348898Y304909D02*
Y307272D01*
X5819Y330500D02*
X8181D01*
X7000Y329319D02*
Y331681D01*
X28819Y330500D02*
X31181D01*
X30000Y329319D02*
Y331681D01*
X41252Y330500D02*
X43614D01*
X42433Y329319D02*
Y331681D01*
X64252Y330500D02*
X66614D01*
X65433Y329319D02*
Y331681D01*
X76685Y330500D02*
X79047D01*
X77866Y329319D02*
Y331681D01*
X99685Y330500D02*
X102047D01*
X100866Y329319D02*
Y331681D01*
X112118Y330500D02*
X114480D01*
X113299Y329319D02*
Y331681D01*
X135118Y330500D02*
X137480D01*
X136299Y329319D02*
Y331681D01*
X147551Y330500D02*
X149913D01*
X148732Y329319D02*
Y331681D01*
X170551Y330500D02*
X172913D01*
X171732Y329319D02*
Y331681D01*
X182984Y330500D02*
X185346D01*
X184165Y329319D02*
Y331681D01*
X205984Y330500D02*
X208347D01*
X207165Y329319D02*
Y331681D01*
X218417Y330500D02*
X220779D01*
X219598Y329319D02*
Y331681D01*
X241417Y330500D02*
X243779D01*
X242598Y329319D02*
Y331681D01*
X253850Y330500D02*
X256213D01*
X255031Y329319D02*
Y331681D01*
X276850Y330500D02*
X279213D01*
X278031Y329319D02*
Y331681D01*
X289283Y330500D02*
X291646D01*
X290465Y329319D02*
Y331681D01*
X312283Y330500D02*
X314646D01*
X313465Y329319D02*
Y331681D01*
X324716Y330500D02*
X327079D01*
X325898Y329319D02*
Y331681D01*
X347716Y330500D02*
X350079D01*
X348898Y329319D02*
Y331681D01*
M02*
