%FSLAX25Y25*%
%MOIN*%
G70*
G01*
G75*
G04 Layer_Color=2752767*
%ADD10R,0.05118X0.12992*%
%ADD11R,0.01969X0.12992*%
%ADD12C,0.02000*%
%ADD13R,0.05000X0.15000*%
%ADD14O,0.03937X0.05906*%
%ADD15C,0.00600*%
%ADD16R,0.04717X0.12591*%
%ADD17R,0.01567X0.12591*%
%ADD18R,0.05518X0.13392*%
%ADD19R,0.02369X0.13392*%
%ADD20O,0.04337X0.06306*%
%ADD21C,0.01000*%
%ADD22C,0.00500*%
D22*
X5000Y11177D02*
Y15177D01*
X9000D01*
Y11177D01*
X5000D01*
X28000D02*
Y15177D01*
X32000D01*
Y11177D01*
X28000D01*
X40433D02*
Y15177D01*
X44433D01*
Y11177D01*
X40433D01*
X63433D02*
Y15177D01*
X67433D01*
Y11177D01*
X63433D01*
X75866D02*
Y15177D01*
X79866D01*
Y11177D01*
X75866D01*
X98866D02*
Y15177D01*
X102866D01*
Y11177D01*
X98866D01*
X111299D02*
Y15177D01*
X115299D01*
Y11177D01*
X111299D01*
X134299D02*
Y15177D01*
X138299D01*
Y11177D01*
X134299D01*
X146732D02*
Y15177D01*
X150732D01*
Y11177D01*
X146732D01*
X169732D02*
Y15177D01*
X173732D01*
Y11177D01*
X169732D01*
X182165D02*
Y15177D01*
X186165D01*
Y11177D01*
X182165D01*
X205165D02*
Y15177D01*
X209165D01*
Y11177D01*
X205165D01*
X217598D02*
Y15177D01*
X221598D01*
Y11177D01*
X217598D01*
X240598D02*
Y15177D01*
X244598D01*
Y11177D01*
X240598D01*
X253031D02*
Y15177D01*
X257031D01*
Y11177D01*
X253031D01*
X276031D02*
Y15177D01*
X280031D01*
Y11177D01*
X276031D01*
X288465D02*
Y15177D01*
X292465D01*
Y11177D01*
X288465D01*
X311465D02*
Y15177D01*
X315465D01*
Y11177D01*
X311465D01*
X323898D02*
Y15177D01*
X327898D01*
Y11177D01*
X323898D01*
X346898D02*
Y15177D01*
X350898D01*
Y11177D01*
X346898D01*
X5000Y35587D02*
Y39587D01*
X9000D01*
Y35587D01*
X5000D01*
X28000D02*
Y39587D01*
X32000D01*
Y35587D01*
X28000D01*
X40433D02*
Y39587D01*
X44433D01*
Y35587D01*
X40433D01*
X63433D02*
Y39587D01*
X67433D01*
Y35587D01*
X63433D01*
X75866D02*
Y39587D01*
X79866D01*
Y35587D01*
X75866D01*
X98866D02*
Y39587D01*
X102866D01*
Y35587D01*
X98866D01*
X111299D02*
Y39587D01*
X115299D01*
Y35587D01*
X111299D01*
X134299D02*
Y39587D01*
X138299D01*
Y35587D01*
X134299D01*
X146732D02*
Y39587D01*
X150732D01*
Y35587D01*
X146732D01*
X169732D02*
Y39587D01*
X173732D01*
Y35587D01*
X169732D01*
X182165D02*
Y39587D01*
X186165D01*
Y35587D01*
X182165D01*
X205165D02*
Y39587D01*
X209165D01*
Y35587D01*
X205165D01*
X217598D02*
Y39587D01*
X221598D01*
Y35587D01*
X217598D01*
X240598D02*
Y39587D01*
X244598D01*
Y35587D01*
X240598D01*
X253031D02*
Y39587D01*
X257031D01*
Y35587D01*
X253031D01*
X276031D02*
Y39587D01*
X280031D01*
Y35587D01*
X276031D01*
X288465D02*
Y39587D01*
X292465D01*
Y35587D01*
X288465D01*
X311465D02*
Y39587D01*
X315465D01*
Y35587D01*
X311465D01*
X323898D02*
Y39587D01*
X327898D01*
Y35587D01*
X323898D01*
X346898D02*
Y39587D01*
X350898D01*
Y35587D01*
X346898D01*
X5000Y59996D02*
Y63996D01*
X9000D01*
Y59996D01*
X5000D01*
X28000D02*
Y63996D01*
X32000D01*
Y59996D01*
X28000D01*
X40433D02*
Y63996D01*
X44433D01*
Y59996D01*
X40433D01*
X63433D02*
Y63996D01*
X67433D01*
Y59996D01*
X63433D01*
X75866D02*
Y63996D01*
X79866D01*
Y59996D01*
X75866D01*
X98866D02*
Y63996D01*
X102866D01*
Y59996D01*
X98866D01*
X111299D02*
Y63996D01*
X115299D01*
Y59996D01*
X111299D01*
X134299D02*
Y63996D01*
X138299D01*
Y59996D01*
X134299D01*
X146732D02*
Y63996D01*
X150732D01*
Y59996D01*
X146732D01*
X169732D02*
Y63996D01*
X173732D01*
Y59996D01*
X169732D01*
X182165D02*
Y63996D01*
X186165D01*
Y59996D01*
X182165D01*
X205165D02*
Y63996D01*
X209165D01*
Y59996D01*
X205165D01*
X217598D02*
Y63996D01*
X221598D01*
Y59996D01*
X217598D01*
X240598D02*
Y63996D01*
X244598D01*
Y59996D01*
X240598D01*
X253031D02*
Y63996D01*
X257031D01*
Y59996D01*
X253031D01*
X276031D02*
Y63996D01*
X280031D01*
Y59996D01*
X276031D01*
X288465D02*
Y63996D01*
X292465D01*
Y59996D01*
X288465D01*
X311465D02*
Y63996D01*
X315465D01*
Y59996D01*
X311465D01*
X323898D02*
Y63996D01*
X327898D01*
Y59996D01*
X323898D01*
X346898D02*
Y63996D01*
X350898D01*
Y59996D01*
X346898D01*
X5000Y84405D02*
Y88406D01*
X9000D01*
Y84405D01*
X5000D01*
X28000D02*
Y88406D01*
X32000D01*
Y84405D01*
X28000D01*
X40433D02*
Y88406D01*
X44433D01*
Y84405D01*
X40433D01*
X63433D02*
Y88406D01*
X67433D01*
Y84405D01*
X63433D01*
X75866D02*
Y88406D01*
X79866D01*
Y84405D01*
X75866D01*
X98866D02*
Y88406D01*
X102866D01*
Y84405D01*
X98866D01*
X111299D02*
Y88406D01*
X115299D01*
Y84405D01*
X111299D01*
X134299D02*
Y88406D01*
X138299D01*
Y84405D01*
X134299D01*
X146732D02*
Y88406D01*
X150732D01*
Y84405D01*
X146732D01*
X169732D02*
Y88406D01*
X173732D01*
Y84405D01*
X169732D01*
X182165D02*
Y88406D01*
X186165D01*
Y84405D01*
X182165D01*
X205165D02*
Y88406D01*
X209165D01*
Y84405D01*
X205165D01*
X217598D02*
Y88406D01*
X221598D01*
Y84405D01*
X217598D01*
X240598D02*
Y88406D01*
X244598D01*
Y84405D01*
X240598D01*
X253031D02*
Y88406D01*
X257031D01*
Y84405D01*
X253031D01*
X276031D02*
Y88406D01*
X280031D01*
Y84405D01*
X276031D01*
X288465D02*
Y88406D01*
X292465D01*
Y84405D01*
X288465D01*
X311465D02*
Y88406D01*
X315465D01*
Y84405D01*
X311465D01*
X323898D02*
Y88406D01*
X327898D01*
Y84405D01*
X323898D01*
X346898D02*
Y88406D01*
X350898D01*
Y84405D01*
X346898D01*
X5000Y108815D02*
Y112815D01*
X9000D01*
Y108815D01*
X5000D01*
X28000D02*
Y112815D01*
X32000D01*
Y108815D01*
X28000D01*
X40433D02*
Y112815D01*
X44433D01*
Y108815D01*
X40433D01*
X63433D02*
Y112815D01*
X67433D01*
Y108815D01*
X63433D01*
X75866D02*
Y112815D01*
X79866D01*
Y108815D01*
X75866D01*
X98866D02*
Y112815D01*
X102866D01*
Y108815D01*
X98866D01*
X111299D02*
Y112815D01*
X115299D01*
Y108815D01*
X111299D01*
X134299D02*
Y112815D01*
X138299D01*
Y108815D01*
X134299D01*
X146732D02*
Y112815D01*
X150732D01*
Y108815D01*
X146732D01*
X169732D02*
Y112815D01*
X173732D01*
Y108815D01*
X169732D01*
X182165D02*
Y112815D01*
X186165D01*
Y108815D01*
X182165D01*
X205165D02*
Y112815D01*
X209165D01*
Y108815D01*
X205165D01*
X217598D02*
Y112815D01*
X221598D01*
Y108815D01*
X217598D01*
X240598D02*
Y112815D01*
X244598D01*
Y108815D01*
X240598D01*
X253031D02*
Y112815D01*
X257031D01*
Y108815D01*
X253031D01*
X276031D02*
Y112815D01*
X280031D01*
Y108815D01*
X276031D01*
X288465D02*
Y112815D01*
X292465D01*
Y108815D01*
X288465D01*
X311465D02*
Y112815D01*
X315465D01*
Y108815D01*
X311465D01*
X323898D02*
Y112815D01*
X327898D01*
Y108815D01*
X323898D01*
X346898D02*
Y112815D01*
X350898D01*
Y108815D01*
X346898D01*
X5000Y133224D02*
Y137224D01*
X9000D01*
Y133224D01*
X5000D01*
X28000D02*
Y137224D01*
X32000D01*
Y133224D01*
X28000D01*
X40433D02*
Y137224D01*
X44433D01*
Y133224D01*
X40433D01*
X63433D02*
Y137224D01*
X67433D01*
Y133224D01*
X63433D01*
X75866D02*
Y137224D01*
X79866D01*
Y133224D01*
X75866D01*
X98866D02*
Y137224D01*
X102866D01*
Y133224D01*
X98866D01*
X111299D02*
Y137224D01*
X115299D01*
Y133224D01*
X111299D01*
X134299D02*
Y137224D01*
X138299D01*
Y133224D01*
X134299D01*
X146732D02*
Y137224D01*
X150732D01*
Y133224D01*
X146732D01*
X169732D02*
Y137224D01*
X173732D01*
Y133224D01*
X169732D01*
X182165D02*
Y137224D01*
X186165D01*
Y133224D01*
X182165D01*
X205165D02*
Y137224D01*
X209165D01*
Y133224D01*
X205165D01*
X217598D02*
Y137224D01*
X221598D01*
Y133224D01*
X217598D01*
X240598D02*
Y137224D01*
X244598D01*
Y133224D01*
X240598D01*
X253031D02*
Y137224D01*
X257031D01*
Y133224D01*
X253031D01*
X276031D02*
Y137224D01*
X280031D01*
Y133224D01*
X276031D01*
X288465D02*
Y137224D01*
X292465D01*
Y133224D01*
X288465D01*
X311465D02*
Y137224D01*
X315465D01*
Y133224D01*
X311465D01*
X323898D02*
Y137224D01*
X327898D01*
Y133224D01*
X323898D01*
X346898D02*
Y137224D01*
X350898D01*
Y133224D01*
X346898D01*
X5000Y157634D02*
Y161634D01*
X9000D01*
Y157634D01*
X5000D01*
X28000D02*
Y161634D01*
X32000D01*
Y157634D01*
X28000D01*
X40433D02*
Y161634D01*
X44433D01*
Y157634D01*
X40433D01*
X63433D02*
Y161634D01*
X67433D01*
Y157634D01*
X63433D01*
X75866D02*
Y161634D01*
X79866D01*
Y157634D01*
X75866D01*
X98866D02*
Y161634D01*
X102866D01*
Y157634D01*
X98866D01*
X111299D02*
Y161634D01*
X115299D01*
Y157634D01*
X111299D01*
X134299D02*
Y161634D01*
X138299D01*
Y157634D01*
X134299D01*
X146732D02*
Y161634D01*
X150732D01*
Y157634D01*
X146732D01*
X169732D02*
Y161634D01*
X173732D01*
Y157634D01*
X169732D01*
X182165D02*
Y161634D01*
X186165D01*
Y157634D01*
X182165D01*
X205165D02*
Y161634D01*
X209165D01*
Y157634D01*
X205165D01*
X217598D02*
Y161634D01*
X221598D01*
Y157634D01*
X217598D01*
X240598D02*
Y161634D01*
X244598D01*
Y157634D01*
X240598D01*
X253031D02*
Y161634D01*
X257031D01*
Y157634D01*
X253031D01*
X276031D02*
Y161634D01*
X280031D01*
Y157634D01*
X276031D01*
X288465D02*
Y161634D01*
X292465D01*
Y157634D01*
X288465D01*
X311465D02*
Y161634D01*
X315465D01*
Y157634D01*
X311465D01*
X323898D02*
Y161634D01*
X327898D01*
Y157634D01*
X323898D01*
X346898D02*
Y161634D01*
X350898D01*
Y157634D01*
X346898D01*
X5000Y182043D02*
Y186043D01*
X9000D01*
Y182043D01*
X5000D01*
X28000D02*
Y186043D01*
X32000D01*
Y182043D01*
X28000D01*
X40433D02*
Y186043D01*
X44433D01*
Y182043D01*
X40433D01*
X63433D02*
Y186043D01*
X67433D01*
Y182043D01*
X63433D01*
X75866D02*
Y186043D01*
X79866D01*
Y182043D01*
X75866D01*
X98866D02*
Y186043D01*
X102866D01*
Y182043D01*
X98866D01*
X111299D02*
Y186043D01*
X115299D01*
Y182043D01*
X111299D01*
X134299D02*
Y186043D01*
X138299D01*
Y182043D01*
X134299D01*
X146732D02*
Y186043D01*
X150732D01*
Y182043D01*
X146732D01*
X169732D02*
Y186043D01*
X173732D01*
Y182043D01*
X169732D01*
X182165D02*
Y186043D01*
X186165D01*
Y182043D01*
X182165D01*
X205165D02*
Y186043D01*
X209165D01*
Y182043D01*
X205165D01*
X217598D02*
Y186043D01*
X221598D01*
Y182043D01*
X217598D01*
X240598D02*
Y186043D01*
X244598D01*
Y182043D01*
X240598D01*
X253031D02*
Y186043D01*
X257031D01*
Y182043D01*
X253031D01*
X276031D02*
Y186043D01*
X280031D01*
Y182043D01*
X276031D01*
X288465D02*
Y186043D01*
X292465D01*
Y182043D01*
X288465D01*
X311465D02*
Y186043D01*
X315465D01*
Y182043D01*
X311465D01*
X323898D02*
Y186043D01*
X327898D01*
Y182043D01*
X323898D01*
X346898D02*
Y186043D01*
X350898D01*
Y182043D01*
X346898D01*
X5000Y206453D02*
Y210453D01*
X9000D01*
Y206453D01*
X5000D01*
X28000D02*
Y210453D01*
X32000D01*
Y206453D01*
X28000D01*
X40433D02*
Y210453D01*
X44433D01*
Y206453D01*
X40433D01*
X63433D02*
Y210453D01*
X67433D01*
Y206453D01*
X63433D01*
X75866D02*
Y210453D01*
X79866D01*
Y206453D01*
X75866D01*
X98866D02*
Y210453D01*
X102866D01*
Y206453D01*
X98866D01*
X111299D02*
Y210453D01*
X115299D01*
Y206453D01*
X111299D01*
X134299D02*
Y210453D01*
X138299D01*
Y206453D01*
X134299D01*
X146732D02*
Y210453D01*
X150732D01*
Y206453D01*
X146732D01*
X169732D02*
Y210453D01*
X173732D01*
Y206453D01*
X169732D01*
X182165D02*
Y210453D01*
X186165D01*
Y206453D01*
X182165D01*
X205165D02*
Y210453D01*
X209165D01*
Y206453D01*
X205165D01*
X217598D02*
Y210453D01*
X221598D01*
Y206453D01*
X217598D01*
X240598D02*
Y210453D01*
X244598D01*
Y206453D01*
X240598D01*
X253031D02*
Y210453D01*
X257031D01*
Y206453D01*
X253031D01*
X276031D02*
Y210453D01*
X280031D01*
Y206453D01*
X276031D01*
X288465D02*
Y210453D01*
X292465D01*
Y206453D01*
X288465D01*
X311465D02*
Y210453D01*
X315465D01*
Y206453D01*
X311465D01*
X323898D02*
Y210453D01*
X327898D01*
Y206453D01*
X323898D01*
X346898D02*
Y210453D01*
X350898D01*
Y206453D01*
X346898D01*
X5000Y230862D02*
Y234862D01*
X9000D01*
Y230862D01*
X5000D01*
X28000D02*
Y234862D01*
X32000D01*
Y230862D01*
X28000D01*
X40433D02*
Y234862D01*
X44433D01*
Y230862D01*
X40433D01*
X63433D02*
Y234862D01*
X67433D01*
Y230862D01*
X63433D01*
X75866D02*
Y234862D01*
X79866D01*
Y230862D01*
X75866D01*
X98866D02*
Y234862D01*
X102866D01*
Y230862D01*
X98866D01*
X111299D02*
Y234862D01*
X115299D01*
Y230862D01*
X111299D01*
X134299D02*
Y234862D01*
X138299D01*
Y230862D01*
X134299D01*
X146732D02*
Y234862D01*
X150732D01*
Y230862D01*
X146732D01*
X169732D02*
Y234862D01*
X173732D01*
Y230862D01*
X169732D01*
X182165D02*
Y234862D01*
X186165D01*
Y230862D01*
X182165D01*
X205165D02*
Y234862D01*
X209165D01*
Y230862D01*
X205165D01*
X217598D02*
Y234862D01*
X221598D01*
Y230862D01*
X217598D01*
X240598D02*
Y234862D01*
X244598D01*
Y230862D01*
X240598D01*
X253031D02*
Y234862D01*
X257031D01*
Y230862D01*
X253031D01*
X276031D02*
Y234862D01*
X280031D01*
Y230862D01*
X276031D01*
X288465D02*
Y234862D01*
X292465D01*
Y230862D01*
X288465D01*
X311465D02*
Y234862D01*
X315465D01*
Y230862D01*
X311465D01*
X323898D02*
Y234862D01*
X327898D01*
Y230862D01*
X323898D01*
X346898D02*
Y234862D01*
X350898D01*
Y230862D01*
X346898D01*
X5000Y255272D02*
Y259272D01*
X9000D01*
Y255272D01*
X5000D01*
X28000D02*
Y259272D01*
X32000D01*
Y255272D01*
X28000D01*
X40433D02*
Y259272D01*
X44433D01*
Y255272D01*
X40433D01*
X63433D02*
Y259272D01*
X67433D01*
Y255272D01*
X63433D01*
X75866D02*
Y259272D01*
X79866D01*
Y255272D01*
X75866D01*
X98866D02*
Y259272D01*
X102866D01*
Y255272D01*
X98866D01*
X111299D02*
Y259272D01*
X115299D01*
Y255272D01*
X111299D01*
X134299D02*
Y259272D01*
X138299D01*
Y255272D01*
X134299D01*
X146732D02*
Y259272D01*
X150732D01*
Y255272D01*
X146732D01*
X169732D02*
Y259272D01*
X173732D01*
Y255272D01*
X169732D01*
X182165D02*
Y259272D01*
X186165D01*
Y255272D01*
X182165D01*
X205165D02*
Y259272D01*
X209165D01*
Y255272D01*
X205165D01*
X217598D02*
Y259272D01*
X221598D01*
Y255272D01*
X217598D01*
X240598D02*
Y259272D01*
X244598D01*
Y255272D01*
X240598D01*
X253031D02*
Y259272D01*
X257031D01*
Y255272D01*
X253031D01*
X276031D02*
Y259272D01*
X280031D01*
Y255272D01*
X276031D01*
X288465D02*
Y259272D01*
X292465D01*
Y255272D01*
X288465D01*
X311465D02*
Y259272D01*
X315465D01*
Y255272D01*
X311465D01*
X323898D02*
Y259272D01*
X327898D01*
Y255272D01*
X323898D01*
X346898D02*
Y259272D01*
X350898D01*
Y255272D01*
X346898D01*
X5000Y279681D02*
Y283681D01*
X9000D01*
Y279681D01*
X5000D01*
X28000D02*
Y283681D01*
X32000D01*
Y279681D01*
X28000D01*
X40433D02*
Y283681D01*
X44433D01*
Y279681D01*
X40433D01*
X63433D02*
Y283681D01*
X67433D01*
Y279681D01*
X63433D01*
X75866D02*
Y283681D01*
X79866D01*
Y279681D01*
X75866D01*
X98866D02*
Y283681D01*
X102866D01*
Y279681D01*
X98866D01*
X111299D02*
Y283681D01*
X115299D01*
Y279681D01*
X111299D01*
X134299D02*
Y283681D01*
X138299D01*
Y279681D01*
X134299D01*
X146732D02*
Y283681D01*
X150732D01*
Y279681D01*
X146732D01*
X169732D02*
Y283681D01*
X173732D01*
Y279681D01*
X169732D01*
X182165D02*
Y283681D01*
X186165D01*
Y279681D01*
X182165D01*
X205165D02*
Y283681D01*
X209165D01*
Y279681D01*
X205165D01*
X217598D02*
Y283681D01*
X221598D01*
Y279681D01*
X217598D01*
X240598D02*
Y283681D01*
X244598D01*
Y279681D01*
X240598D01*
X253031D02*
Y283681D01*
X257031D01*
Y279681D01*
X253031D01*
X276031D02*
Y283681D01*
X280031D01*
Y279681D01*
X276031D01*
X288465D02*
Y283681D01*
X292465D01*
Y279681D01*
X288465D01*
X311465D02*
Y283681D01*
X315465D01*
Y279681D01*
X311465D01*
X323898D02*
Y283681D01*
X327898D01*
Y279681D01*
X323898D01*
X346898D02*
Y283681D01*
X350898D01*
Y279681D01*
X346898D01*
X5000Y304090D02*
Y308090D01*
X9000D01*
Y304090D01*
X5000D01*
X28000D02*
Y308090D01*
X32000D01*
Y304090D01*
X28000D01*
X40433D02*
Y308090D01*
X44433D01*
Y304090D01*
X40433D01*
X63433D02*
Y308090D01*
X67433D01*
Y304090D01*
X63433D01*
X75866D02*
Y308090D01*
X79866D01*
Y304090D01*
X75866D01*
X98866D02*
Y308090D01*
X102866D01*
Y304090D01*
X98866D01*
X111299D02*
Y308090D01*
X115299D01*
Y304090D01*
X111299D01*
X134299D02*
Y308090D01*
X138299D01*
Y304090D01*
X134299D01*
X146732D02*
Y308090D01*
X150732D01*
Y304090D01*
X146732D01*
X169732D02*
Y308090D01*
X173732D01*
Y304090D01*
X169732D01*
X182165D02*
Y308090D01*
X186165D01*
Y304090D01*
X182165D01*
X205165D02*
Y308090D01*
X209165D01*
Y304090D01*
X205165D01*
X217598D02*
Y308090D01*
X221598D01*
Y304090D01*
X217598D01*
X240598D02*
Y308090D01*
X244598D01*
Y304090D01*
X240598D01*
X253031D02*
Y308090D01*
X257031D01*
Y304090D01*
X253031D01*
X276031D02*
Y308090D01*
X280031D01*
Y304090D01*
X276031D01*
X288465D02*
Y308090D01*
X292465D01*
Y304090D01*
X288465D01*
X311465D02*
Y308090D01*
X315465D01*
Y304090D01*
X311465D01*
X323898D02*
Y308090D01*
X327898D01*
Y304090D01*
X323898D01*
X346898D02*
Y308090D01*
X350898D01*
Y304090D01*
X346898D01*
X5000Y328500D02*
Y332500D01*
X9000D01*
Y328500D01*
X5000D01*
X28000D02*
Y332500D01*
X32000D01*
Y328500D01*
X28000D01*
X40433D02*
Y332500D01*
X44433D01*
Y328500D01*
X40433D01*
X63433D02*
Y332500D01*
X67433D01*
Y328500D01*
X63433D01*
X75866D02*
Y332500D01*
X79866D01*
Y328500D01*
X75866D01*
X98866D02*
Y332500D01*
X102866D01*
Y328500D01*
X98866D01*
X111299D02*
Y332500D01*
X115299D01*
Y328500D01*
X111299D01*
X134299D02*
Y332500D01*
X138299D01*
Y328500D01*
X134299D01*
X146732D02*
Y332500D01*
X150732D01*
Y328500D01*
X146732D01*
X169732D02*
Y332500D01*
X173732D01*
Y328500D01*
X169732D01*
X182165D02*
Y332500D01*
X186165D01*
Y328500D01*
X182165D01*
X205165D02*
Y332500D01*
X209165D01*
Y328500D01*
X205165D01*
X217598D02*
Y332500D01*
X221598D01*
Y328500D01*
X217598D01*
X240598D02*
Y332500D01*
X244598D01*
Y328500D01*
X240598D01*
X253031D02*
Y332500D01*
X257031D01*
Y328500D01*
X253031D01*
X276031D02*
Y332500D01*
X280031D01*
Y328500D01*
X276031D01*
X288465D02*
Y332500D01*
X292465D01*
Y328500D01*
X288465D01*
X311465D02*
Y332500D01*
X315465D01*
Y328500D01*
X311465D01*
X323898D02*
Y332500D01*
X327898D01*
Y328500D01*
X323898D01*
X346898D02*
Y332500D01*
X350898D01*
Y328500D01*
X346898D01*
M02*
