M48
;Layer_Color=9474304
;FILE_FORMAT=2:5
INCH,LZ
;TYPE=PLATED
T1F00S00C0.02362
%
T01
X0219598Y0013177
X0242598
X0255031
X0278031
X0290465
X0313465
X0325898
X0348898
Y0037587
X0325898
X0313465
X0290465
X0278031
X0255031
X0242598
X0219598
Y0061996
X0242598
X0255031
X0278031
X0290465
X0313465
X0325898
X0348898
Y0086405
X0325898
X0313465
X0290465
X0278031
X0255031
X0242598
X0219598
Y0110815
X0242598
X0255031
X0278031
X0290465
X0313465
X0325898
X0348898
Y0135224
X0325898
X0313465
X0290465
X0278031
X0255031
X0242598
X0219598
X0207165
X0184165
X0171732
X0148732
X0136299
X0113299
X0100866
X0077866
X0065433
Y0110815
X0077866
X0100866
X0113299
X0136299
X0148732
X0171732
X0184165
X0207165
Y0086405
X0184165
X0171732
X0148732
X0136299
X0113299
X0100866
X0077866
X0065433
Y0061996
X0077866
X0100866
X0113299
X0136299
X0148732
X0171732
X0184165
X0207165
Y0037587
X0184165
X0171732
X0148732
X0136299
X0113299
X0100866
X0077866
X0065433
Y0013177
X0077866
X0100866
X0113299
X0136299
X0148732
X0171732
X0184165
X0207165
X0042433
X003
X0007
Y0037587
X003
X0042433
Y0061996
X003
X0007
Y0086405
X003
X0042433
Y0110815
X003
X0007
Y0135224
X003
X0042433
Y0159634
X003
X0007
Y0184043
X003
X0042433
Y0208453
X003
X0007
Y0232862
X003
X0042433
Y0257272
X003
X0007
Y0281681
X003
X0042433
Y030609
X003
X0007
X0065433
X0077866
X0100866
X0113299
X0136299
X0148732
X0171732
X0184165
X0207165
Y0281681
X0184165
X0171732
X0148732
X0136299
X0113299
X0100866
X0077866
X0065433
Y0257272
X0077866
X0100866
X0113299
X0136299
X0148732
X0171732
X0184165
X0207165
Y0232862
X0184165
X0171732
X0148732
X0136299
X0113299
X0100866
X0077866
X0065433
Y0208453
X0077866
X0100866
X0113299
X0136299
X0148732
X0171732
X0184165
X0207165
Y0184043
X0184165
X0171732
X0148732
X0136299
X0113299
X0100866
X0077866
X0065433
Y0159634
X0077866
X0100866
X0113299
X0136299
X0148732
X0171732
X0184165
X0207165
X0219598
X0242598
X0255031
X0278031
X0290465
X0313465
X0325898
X0348898
Y0184043
X0325898
X0313465
X0290465
X0278031
X0255031
X0242598
X0219598
Y0208453
X0242598
X0255031
X0278031
X0290465
X0313465
X0325898
X0348898
Y0232862
X0325898
X0313465
X0290465
X0278031
X0255031
X0242598
X0219598
Y0257272
X0242598
X0255031
X0278031
X0290465
X0313465
X0325898
X0348898
Y0281681
X0325898
X0313465
X0290465
X0278031
X0255031
X0242598
X0219598
Y030609
X0242598
X0255031
X0278031
X0290465
X0313465
X0325898
X0348898
Y03305
X0325898
X0313465
X0290465
X0278031
X0255031
X0242598
X0219598
X0207165
X0184165
X0171732
X0148732
X0136299
X0113299
X0100866
X0077866
X0065433
X0042433
X003
X0007
M30
