%FSLAX25Y25*%
%MOIN*%
G70*
G01*
G75*
G04 Layer_Color=255*
%ADD10R,0.05118X0.12992*%
%ADD11R,0.01969X0.12992*%
%ADD12C,0.02000*%
%ADD13R,0.05000X0.15000*%
%ADD14O,0.03937X0.05906*%
D14*
X7000Y13177D02*
D03*
X30000D02*
D03*
X42433D02*
D03*
X65433D02*
D03*
X77866D02*
D03*
X100866D02*
D03*
X113299D02*
D03*
X136299D02*
D03*
X148732D02*
D03*
X171732D02*
D03*
X184165D02*
D03*
X207165D02*
D03*
X219598D02*
D03*
X242598D02*
D03*
X255031D02*
D03*
X278031D02*
D03*
X290465D02*
D03*
X313465D02*
D03*
X325898D02*
D03*
X348898D02*
D03*
X7000Y37587D02*
D03*
X30000D02*
D03*
X42433D02*
D03*
X65433D02*
D03*
X77866D02*
D03*
X100866D02*
D03*
X113299D02*
D03*
X136299D02*
D03*
X148732D02*
D03*
X171732D02*
D03*
X184165D02*
D03*
X207165D02*
D03*
X219598D02*
D03*
X242598D02*
D03*
X255031D02*
D03*
X278031D02*
D03*
X290465D02*
D03*
X313465D02*
D03*
X325898D02*
D03*
X348898D02*
D03*
X7000Y61996D02*
D03*
X30000D02*
D03*
X42433D02*
D03*
X65433D02*
D03*
X77866D02*
D03*
X100866D02*
D03*
X113299D02*
D03*
X136299D02*
D03*
X148732D02*
D03*
X171732D02*
D03*
X184165D02*
D03*
X207165D02*
D03*
X219598D02*
D03*
X242598D02*
D03*
X255031D02*
D03*
X278031D02*
D03*
X290465D02*
D03*
X313465D02*
D03*
X325898D02*
D03*
X348898D02*
D03*
X7000Y86405D02*
D03*
X30000D02*
D03*
X42433D02*
D03*
X65433D02*
D03*
X77866D02*
D03*
X100866D02*
D03*
X113299D02*
D03*
X136299D02*
D03*
X148732D02*
D03*
X171732D02*
D03*
X184165D02*
D03*
X207165D02*
D03*
X219598D02*
D03*
X242598D02*
D03*
X255031D02*
D03*
X278031D02*
D03*
X290465D02*
D03*
X313465D02*
D03*
X325898D02*
D03*
X348898D02*
D03*
X7000Y110815D02*
D03*
X30000D02*
D03*
X42433D02*
D03*
X65433D02*
D03*
X77866D02*
D03*
X100866D02*
D03*
X113299D02*
D03*
X136299D02*
D03*
X148732D02*
D03*
X171732D02*
D03*
X184165D02*
D03*
X207165D02*
D03*
X219598D02*
D03*
X242598D02*
D03*
X255031D02*
D03*
X278031D02*
D03*
X290465D02*
D03*
X313465D02*
D03*
X325898D02*
D03*
X348898D02*
D03*
X7000Y135224D02*
D03*
X30000D02*
D03*
X42433D02*
D03*
X65433D02*
D03*
X77866D02*
D03*
X100866D02*
D03*
X113299D02*
D03*
X136299D02*
D03*
X148732D02*
D03*
X171732D02*
D03*
X184165D02*
D03*
X207165D02*
D03*
X219598D02*
D03*
X242598D02*
D03*
X255031D02*
D03*
X278031D02*
D03*
X290465D02*
D03*
X313465D02*
D03*
X325898D02*
D03*
X348898D02*
D03*
X7000Y159634D02*
D03*
X30000D02*
D03*
X42433D02*
D03*
X65433D02*
D03*
X77866D02*
D03*
X100866D02*
D03*
X113299D02*
D03*
X136299D02*
D03*
X148732D02*
D03*
X171732D02*
D03*
X184165D02*
D03*
X207165D02*
D03*
X219598D02*
D03*
X242598D02*
D03*
X255031D02*
D03*
X278031D02*
D03*
X290465D02*
D03*
X313465D02*
D03*
X325898D02*
D03*
X348898D02*
D03*
X7000Y184043D02*
D03*
X30000D02*
D03*
X42433D02*
D03*
X65433D02*
D03*
X77866D02*
D03*
X100866D02*
D03*
X113299D02*
D03*
X136299D02*
D03*
X148732D02*
D03*
X171732D02*
D03*
X184165D02*
D03*
X207165D02*
D03*
X219598D02*
D03*
X242598D02*
D03*
X255031D02*
D03*
X278031D02*
D03*
X290465D02*
D03*
X313465D02*
D03*
X325898D02*
D03*
X348898D02*
D03*
X7000Y208453D02*
D03*
X30000D02*
D03*
X42433D02*
D03*
X65433D02*
D03*
X77866D02*
D03*
X100866D02*
D03*
X113299D02*
D03*
X136299D02*
D03*
X148732D02*
D03*
X171732D02*
D03*
X184165D02*
D03*
X207165D02*
D03*
X219598D02*
D03*
X242598D02*
D03*
X255031D02*
D03*
X278031D02*
D03*
X290465D02*
D03*
X313465D02*
D03*
X325898D02*
D03*
X348898D02*
D03*
X7000Y232862D02*
D03*
X30000D02*
D03*
X42433D02*
D03*
X65433D02*
D03*
X77866D02*
D03*
X100866D02*
D03*
X113299D02*
D03*
X136299D02*
D03*
X148732D02*
D03*
X171732D02*
D03*
X184165D02*
D03*
X207165D02*
D03*
X219598D02*
D03*
X242598D02*
D03*
X255031D02*
D03*
X278031D02*
D03*
X290465D02*
D03*
X313465D02*
D03*
X325898D02*
D03*
X348898D02*
D03*
X7000Y257272D02*
D03*
X30000D02*
D03*
X42433D02*
D03*
X65433D02*
D03*
X77866D02*
D03*
X100866D02*
D03*
X113299D02*
D03*
X136299D02*
D03*
X148732D02*
D03*
X171732D02*
D03*
X184165D02*
D03*
X207165D02*
D03*
X219598D02*
D03*
X242598D02*
D03*
X255031D02*
D03*
X278031D02*
D03*
X290465D02*
D03*
X313465D02*
D03*
X325898D02*
D03*
X348898D02*
D03*
X7000Y281681D02*
D03*
X30000D02*
D03*
X42433D02*
D03*
X65433D02*
D03*
X77866D02*
D03*
X100866D02*
D03*
X113299D02*
D03*
X136299D02*
D03*
X148732D02*
D03*
X171732D02*
D03*
X184165D02*
D03*
X207165D02*
D03*
X219598D02*
D03*
X242598D02*
D03*
X255031D02*
D03*
X278031D02*
D03*
X290465D02*
D03*
X313465D02*
D03*
X325898D02*
D03*
X348898D02*
D03*
X7000Y306090D02*
D03*
X30000D02*
D03*
X42433D02*
D03*
X65433D02*
D03*
X77866D02*
D03*
X100866D02*
D03*
X113299D02*
D03*
X136299D02*
D03*
X148732D02*
D03*
X171732D02*
D03*
X184165D02*
D03*
X207165D02*
D03*
X219598D02*
D03*
X242598D02*
D03*
X255031D02*
D03*
X278031D02*
D03*
X290465D02*
D03*
X313465D02*
D03*
X325898D02*
D03*
X348898D02*
D03*
X7000Y330500D02*
D03*
X30000D02*
D03*
X42433D02*
D03*
X65433D02*
D03*
X77866D02*
D03*
X100866D02*
D03*
X113299D02*
D03*
X136299D02*
D03*
X148732D02*
D03*
X171732D02*
D03*
X184165D02*
D03*
X207165D02*
D03*
X219598D02*
D03*
X242598D02*
D03*
X255031D02*
D03*
X278031D02*
D03*
X290465D02*
D03*
X313465D02*
D03*
X325898D02*
D03*
X348898D02*
D03*
M02*
