%FSLAX25Y25*%
%MOIN*%
G70*
G01*
G75*
G04 Layer_Physical_Order=2*
G04 Layer_Color=16711680*
%ADD10R,0.05118X0.12992*%
%ADD11R,0.01969X0.12992*%
%ADD12C,0.02000*%
%ADD13R,0.05000X0.15000*%
%ADD14O,0.03937X0.05906*%
G36*
X32500Y16550D02*
X32052Y16329D01*
X31497Y16754D01*
X30775Y17053D01*
X30000Y17155D01*
X29225Y17053D01*
X28503Y16754D01*
X27883Y16279D01*
X27407Y15658D01*
X27108Y14936D01*
X27006Y14161D01*
Y12193D01*
X27108Y11418D01*
X27407Y10696D01*
X27883Y10076D01*
X28503Y9600D01*
X29225Y9301D01*
X30000Y9199D01*
X30775Y9301D01*
X31497Y9600D01*
X32052Y10025D01*
X32500Y9804D01*
Y4677D01*
X4500D01*
Y9804D01*
X4948Y10025D01*
X5503Y9600D01*
X6225Y9301D01*
X7000Y9199D01*
X7775Y9301D01*
X8497Y9600D01*
X9117Y10076D01*
X9593Y10696D01*
X9892Y11418D01*
X9994Y12193D01*
Y14161D01*
X9892Y14936D01*
X9593Y15658D01*
X9117Y16279D01*
X8497Y16754D01*
X7775Y17053D01*
X7000Y17155D01*
X6225Y17053D01*
X5503Y16754D01*
X4948Y16329D01*
X4500Y16550D01*
Y22177D01*
X32500D01*
Y16550D01*
D02*
G37*
G36*
X67933D02*
X67485Y16329D01*
X66930Y16754D01*
X66208Y17053D01*
X65433Y17155D01*
X64658Y17053D01*
X63936Y16754D01*
X63316Y16279D01*
X62840Y15658D01*
X62541Y14936D01*
X62439Y14161D01*
Y12193D01*
X62541Y11418D01*
X62840Y10696D01*
X63316Y10076D01*
X63936Y9600D01*
X64658Y9301D01*
X65433Y9199D01*
X66208Y9301D01*
X66930Y9600D01*
X67485Y10025D01*
X67933Y9804D01*
Y4677D01*
X39933D01*
Y9804D01*
X40382Y10025D01*
X40936Y9600D01*
X41658Y9301D01*
X42433Y9199D01*
X43208Y9301D01*
X43930Y9600D01*
X44550Y10076D01*
X45026Y10696D01*
X45325Y11418D01*
X45427Y12193D01*
Y14161D01*
X45325Y14936D01*
X45026Y15658D01*
X44550Y16279D01*
X43930Y16754D01*
X43208Y17053D01*
X42433Y17155D01*
X41658Y17053D01*
X40936Y16754D01*
X40382Y16329D01*
X39933Y16550D01*
Y22177D01*
X67933D01*
Y16550D01*
D02*
G37*
G36*
X103366D02*
X102918Y16329D01*
X102363Y16754D01*
X101641Y17053D01*
X100866Y17155D01*
X100091Y17053D01*
X99369Y16754D01*
X98749Y16279D01*
X98273Y15658D01*
X97974Y14936D01*
X97872Y14161D01*
Y12193D01*
X97974Y11418D01*
X98273Y10696D01*
X98749Y10076D01*
X99369Y9600D01*
X100091Y9301D01*
X100866Y9199D01*
X101641Y9301D01*
X102363Y9600D01*
X102918Y10025D01*
X103366Y9804D01*
Y4677D01*
X75366D01*
Y9804D01*
X75815Y10025D01*
X76369Y9600D01*
X77091Y9301D01*
X77866Y9199D01*
X78641Y9301D01*
X79363Y9600D01*
X79983Y10076D01*
X80459Y10696D01*
X80758Y11418D01*
X80860Y12193D01*
Y14161D01*
X80758Y14936D01*
X80459Y15658D01*
X79983Y16279D01*
X79363Y16754D01*
X78641Y17053D01*
X77866Y17155D01*
X77091Y17053D01*
X76369Y16754D01*
X75815Y16329D01*
X75366Y16550D01*
Y22177D01*
X103366D01*
Y16550D01*
D02*
G37*
G36*
X138799D02*
X138351Y16329D01*
X137796Y16754D01*
X137074Y17053D01*
X136299Y17155D01*
X135524Y17053D01*
X134802Y16754D01*
X134182Y16279D01*
X133706Y15658D01*
X133407Y14936D01*
X133305Y14161D01*
Y12193D01*
X133407Y11418D01*
X133706Y10696D01*
X134182Y10076D01*
X134802Y9600D01*
X135524Y9301D01*
X136299Y9199D01*
X137074Y9301D01*
X137796Y9600D01*
X138351Y10025D01*
X138799Y9804D01*
Y4677D01*
X110799D01*
Y9804D01*
X111248Y10025D01*
X111802Y9600D01*
X112524Y9301D01*
X113299Y9199D01*
X114074Y9301D01*
X114796Y9600D01*
X115416Y10076D01*
X115892Y10696D01*
X116191Y11418D01*
X116293Y12193D01*
Y14161D01*
X116191Y14936D01*
X115892Y15658D01*
X115416Y16279D01*
X114796Y16754D01*
X114074Y17053D01*
X113299Y17155D01*
X112524Y17053D01*
X111802Y16754D01*
X111248Y16329D01*
X110799Y16550D01*
Y22177D01*
X138799D01*
Y16550D01*
D02*
G37*
G36*
X174232D02*
X173784Y16329D01*
X173229Y16754D01*
X172507Y17053D01*
X171732Y17155D01*
X170957Y17053D01*
X170235Y16754D01*
X169615Y16279D01*
X169139Y15658D01*
X168840Y14936D01*
X168738Y14161D01*
Y12193D01*
X168840Y11418D01*
X169139Y10696D01*
X169615Y10076D01*
X170235Y9600D01*
X170957Y9301D01*
X171732Y9199D01*
X172507Y9301D01*
X173229Y9600D01*
X173784Y10025D01*
X174232Y9804D01*
Y4677D01*
X146232D01*
Y9804D01*
X146681Y10025D01*
X147235Y9600D01*
X147957Y9301D01*
X148732Y9199D01*
X149507Y9301D01*
X150229Y9600D01*
X150849Y10076D01*
X151325Y10696D01*
X151624Y11418D01*
X151726Y12193D01*
Y14161D01*
X151624Y14936D01*
X151325Y15658D01*
X150849Y16279D01*
X150229Y16754D01*
X149507Y17053D01*
X148732Y17155D01*
X147957Y17053D01*
X147235Y16754D01*
X146681Y16329D01*
X146232Y16550D01*
Y22177D01*
X174232D01*
Y16550D01*
D02*
G37*
G36*
X209665D02*
X209217Y16329D01*
X208662Y16754D01*
X207940Y17053D01*
X207165Y17155D01*
X206390Y17053D01*
X205668Y16754D01*
X205048Y16279D01*
X204572Y15658D01*
X204273Y14936D01*
X204171Y14161D01*
Y12193D01*
X204273Y11418D01*
X204572Y10696D01*
X205048Y10076D01*
X205668Y9600D01*
X206390Y9301D01*
X207165Y9199D01*
X207940Y9301D01*
X208662Y9600D01*
X209217Y10025D01*
X209665Y9804D01*
Y4677D01*
X181665D01*
Y9804D01*
X182114Y10025D01*
X182668Y9600D01*
X183390Y9301D01*
X184165Y9199D01*
X184940Y9301D01*
X185662Y9600D01*
X186283Y10076D01*
X186758Y10696D01*
X187057Y11418D01*
X187160Y12193D01*
Y14161D01*
X187057Y14936D01*
X186758Y15658D01*
X186283Y16279D01*
X185662Y16754D01*
X184940Y17053D01*
X184165Y17155D01*
X183390Y17053D01*
X182668Y16754D01*
X182114Y16329D01*
X181665Y16550D01*
Y22177D01*
X209665D01*
Y16550D01*
D02*
G37*
G36*
X245098D02*
X244650Y16329D01*
X244095Y16754D01*
X243373Y17053D01*
X242598Y17155D01*
X241824Y17053D01*
X241101Y16754D01*
X240481Y16279D01*
X240005Y15658D01*
X239706Y14936D01*
X239604Y14161D01*
Y12193D01*
X239706Y11418D01*
X240005Y10696D01*
X240481Y10076D01*
X241101Y9600D01*
X241824Y9301D01*
X242598Y9199D01*
X243373Y9301D01*
X244095Y9600D01*
X244650Y10025D01*
X245098Y9804D01*
Y4677D01*
X217098D01*
Y9804D01*
X217547Y10025D01*
X218101Y9600D01*
X218824Y9301D01*
X219598Y9199D01*
X220373Y9301D01*
X221095Y9600D01*
X221716Y10076D01*
X222191Y10696D01*
X222491Y11418D01*
X222592Y12193D01*
Y14161D01*
X222491Y14936D01*
X222191Y15658D01*
X221716Y16279D01*
X221095Y16754D01*
X220373Y17053D01*
X219598Y17155D01*
X218824Y17053D01*
X218101Y16754D01*
X217547Y16329D01*
X217098Y16550D01*
Y22177D01*
X245098D01*
Y16550D01*
D02*
G37*
G36*
X280532D02*
X280083Y16329D01*
X279528Y16754D01*
X278806Y17053D01*
X278031Y17155D01*
X277257Y17053D01*
X276534Y16754D01*
X275914Y16279D01*
X275438Y15658D01*
X275139Y14936D01*
X275037Y14161D01*
Y12193D01*
X275139Y11418D01*
X275438Y10696D01*
X275914Y10076D01*
X276534Y9600D01*
X277257Y9301D01*
X278031Y9199D01*
X278806Y9301D01*
X279528Y9600D01*
X280083Y10025D01*
X280532Y9804D01*
Y4677D01*
X252532D01*
Y9804D01*
X252980Y10025D01*
X253534Y9600D01*
X254257Y9301D01*
X255031Y9199D01*
X255806Y9301D01*
X256528Y9600D01*
X257149Y10076D01*
X257625Y10696D01*
X257924Y11418D01*
X258026Y12193D01*
Y14161D01*
X257924Y14936D01*
X257625Y15658D01*
X257149Y16279D01*
X256528Y16754D01*
X255806Y17053D01*
X255031Y17155D01*
X254257Y17053D01*
X253534Y16754D01*
X252980Y16329D01*
X252532Y16550D01*
Y22177D01*
X280532D01*
Y16550D01*
D02*
G37*
G36*
X315965D02*
X315516Y16329D01*
X314962Y16754D01*
X314240Y17053D01*
X313465Y17155D01*
X312690Y17053D01*
X311967Y16754D01*
X311347Y16279D01*
X310872Y15658D01*
X310573Y14936D01*
X310470Y14161D01*
Y12193D01*
X310573Y11418D01*
X310872Y10696D01*
X311347Y10076D01*
X311967Y9600D01*
X312690Y9301D01*
X313465Y9199D01*
X314240Y9301D01*
X314962Y9600D01*
X315516Y10025D01*
X315965Y9804D01*
Y4677D01*
X287965D01*
Y9804D01*
X288413Y10025D01*
X288967Y9600D01*
X289690Y9301D01*
X290465Y9199D01*
X291240Y9301D01*
X291962Y9600D01*
X292582Y10076D01*
X293057Y10696D01*
X293357Y11418D01*
X293459Y12193D01*
Y14161D01*
X293357Y14936D01*
X293057Y15658D01*
X292582Y16279D01*
X291962Y16754D01*
X291240Y17053D01*
X290465Y17155D01*
X289690Y17053D01*
X288967Y16754D01*
X288413Y16329D01*
X287965Y16550D01*
Y22177D01*
X315965D01*
Y16550D01*
D02*
G37*
G36*
X351398D02*
X350949Y16329D01*
X350395Y16754D01*
X349673Y17053D01*
X348898Y17155D01*
X348123Y17053D01*
X347401Y16754D01*
X346780Y16279D01*
X346305Y15658D01*
X346006Y14936D01*
X345903Y14161D01*
Y12193D01*
X346006Y11418D01*
X346305Y10696D01*
X346780Y10076D01*
X347401Y9600D01*
X348123Y9301D01*
X348898Y9199D01*
X349673Y9301D01*
X350395Y9600D01*
X350949Y10025D01*
X351398Y9804D01*
Y4677D01*
X323398D01*
Y9804D01*
X323846Y10025D01*
X324401Y9600D01*
X325123Y9301D01*
X325898Y9199D01*
X326673Y9301D01*
X327395Y9600D01*
X328015Y10076D01*
X328491Y10696D01*
X328790Y11418D01*
X328892Y12193D01*
Y14161D01*
X328790Y14936D01*
X328491Y15658D01*
X328015Y16279D01*
X327395Y16754D01*
X326673Y17053D01*
X325898Y17155D01*
X325123Y17053D01*
X324401Y16754D01*
X323846Y16329D01*
X323398Y16550D01*
Y22177D01*
X351398D01*
Y16550D01*
D02*
G37*
G36*
X32500Y40960D02*
X32052Y40738D01*
X31497Y41164D01*
X30775Y41463D01*
X30000Y41565D01*
X29225Y41463D01*
X28503Y41164D01*
X27883Y40688D01*
X27407Y40068D01*
X27108Y39346D01*
X27006Y38571D01*
Y36602D01*
X27108Y35827D01*
X27407Y35105D01*
X27883Y34485D01*
X28503Y34009D01*
X29225Y33710D01*
X30000Y33608D01*
X30775Y33710D01*
X31497Y34009D01*
X32052Y34435D01*
X32500Y34214D01*
Y29087D01*
X4500D01*
Y34214D01*
X4948Y34435D01*
X5503Y34009D01*
X6225Y33710D01*
X7000Y33608D01*
X7775Y33710D01*
X8497Y34009D01*
X9117Y34485D01*
X9593Y35105D01*
X9892Y35827D01*
X9994Y36602D01*
Y38571D01*
X9892Y39346D01*
X9593Y40068D01*
X9117Y40688D01*
X8497Y41164D01*
X7775Y41463D01*
X7000Y41565D01*
X6225Y41463D01*
X5503Y41164D01*
X4948Y40738D01*
X4500Y40960D01*
Y46587D01*
X32500D01*
Y40960D01*
D02*
G37*
G36*
X67933D02*
X67485Y40738D01*
X66930Y41164D01*
X66208Y41463D01*
X65433Y41565D01*
X64658Y41463D01*
X63936Y41164D01*
X63316Y40688D01*
X62840Y40068D01*
X62541Y39346D01*
X62439Y38571D01*
Y36602D01*
X62541Y35827D01*
X62840Y35105D01*
X63316Y34485D01*
X63936Y34009D01*
X64658Y33710D01*
X65433Y33608D01*
X66208Y33710D01*
X66930Y34009D01*
X67485Y34435D01*
X67933Y34214D01*
Y29087D01*
X39933D01*
Y34214D01*
X40382Y34435D01*
X40936Y34009D01*
X41658Y33710D01*
X42433Y33608D01*
X43208Y33710D01*
X43930Y34009D01*
X44550Y34485D01*
X45026Y35105D01*
X45325Y35827D01*
X45427Y36602D01*
Y38571D01*
X45325Y39346D01*
X45026Y40068D01*
X44550Y40688D01*
X43930Y41164D01*
X43208Y41463D01*
X42433Y41565D01*
X41658Y41463D01*
X40936Y41164D01*
X40382Y40738D01*
X39933Y40960D01*
Y46587D01*
X67933D01*
Y40960D01*
D02*
G37*
G36*
X103366D02*
X102918Y40738D01*
X102363Y41164D01*
X101641Y41463D01*
X100866Y41565D01*
X100091Y41463D01*
X99369Y41164D01*
X98749Y40688D01*
X98273Y40068D01*
X97974Y39346D01*
X97872Y38571D01*
Y36602D01*
X97974Y35827D01*
X98273Y35105D01*
X98749Y34485D01*
X99369Y34009D01*
X100091Y33710D01*
X100866Y33608D01*
X101641Y33710D01*
X102363Y34009D01*
X102918Y34435D01*
X103366Y34214D01*
Y29087D01*
X75366D01*
Y34214D01*
X75815Y34435D01*
X76369Y34009D01*
X77091Y33710D01*
X77866Y33608D01*
X78641Y33710D01*
X79363Y34009D01*
X79983Y34485D01*
X80459Y35105D01*
X80758Y35827D01*
X80860Y36602D01*
Y38571D01*
X80758Y39346D01*
X80459Y40068D01*
X79983Y40688D01*
X79363Y41164D01*
X78641Y41463D01*
X77866Y41565D01*
X77091Y41463D01*
X76369Y41164D01*
X75815Y40738D01*
X75366Y40960D01*
Y46587D01*
X103366D01*
Y40960D01*
D02*
G37*
G36*
X138799D02*
X138351Y40738D01*
X137796Y41164D01*
X137074Y41463D01*
X136299Y41565D01*
X135524Y41463D01*
X134802Y41164D01*
X134182Y40688D01*
X133706Y40068D01*
X133407Y39346D01*
X133305Y38571D01*
Y36602D01*
X133407Y35827D01*
X133706Y35105D01*
X134182Y34485D01*
X134802Y34009D01*
X135524Y33710D01*
X136299Y33608D01*
X137074Y33710D01*
X137796Y34009D01*
X138351Y34435D01*
X138799Y34214D01*
Y29087D01*
X110799D01*
Y34214D01*
X111248Y34435D01*
X111802Y34009D01*
X112524Y33710D01*
X113299Y33608D01*
X114074Y33710D01*
X114796Y34009D01*
X115416Y34485D01*
X115892Y35105D01*
X116191Y35827D01*
X116293Y36602D01*
Y38571D01*
X116191Y39346D01*
X115892Y40068D01*
X115416Y40688D01*
X114796Y41164D01*
X114074Y41463D01*
X113299Y41565D01*
X112524Y41463D01*
X111802Y41164D01*
X111248Y40738D01*
X110799Y40960D01*
Y46587D01*
X138799D01*
Y40960D01*
D02*
G37*
G36*
X174232D02*
X173784Y40738D01*
X173229Y41164D01*
X172507Y41463D01*
X171732Y41565D01*
X170957Y41463D01*
X170235Y41164D01*
X169615Y40688D01*
X169139Y40068D01*
X168840Y39346D01*
X168738Y38571D01*
Y36602D01*
X168840Y35827D01*
X169139Y35105D01*
X169615Y34485D01*
X170235Y34009D01*
X170957Y33710D01*
X171732Y33608D01*
X172507Y33710D01*
X173229Y34009D01*
X173784Y34435D01*
X174232Y34214D01*
Y29087D01*
X146232D01*
Y34214D01*
X146681Y34435D01*
X147235Y34009D01*
X147957Y33710D01*
X148732Y33608D01*
X149507Y33710D01*
X150229Y34009D01*
X150849Y34485D01*
X151325Y35105D01*
X151624Y35827D01*
X151726Y36602D01*
Y38571D01*
X151624Y39346D01*
X151325Y40068D01*
X150849Y40688D01*
X150229Y41164D01*
X149507Y41463D01*
X148732Y41565D01*
X147957Y41463D01*
X147235Y41164D01*
X146681Y40738D01*
X146232Y40960D01*
Y46587D01*
X174232D01*
Y40960D01*
D02*
G37*
G36*
X209665D02*
X209217Y40738D01*
X208662Y41164D01*
X207940Y41463D01*
X207165Y41565D01*
X206390Y41463D01*
X205668Y41164D01*
X205048Y40688D01*
X204572Y40068D01*
X204273Y39346D01*
X204171Y38571D01*
Y36602D01*
X204273Y35827D01*
X204572Y35105D01*
X205048Y34485D01*
X205668Y34009D01*
X206390Y33710D01*
X207165Y33608D01*
X207940Y33710D01*
X208662Y34009D01*
X209217Y34435D01*
X209665Y34214D01*
Y29087D01*
X181665D01*
Y34214D01*
X182114Y34435D01*
X182668Y34009D01*
X183390Y33710D01*
X184165Y33608D01*
X184940Y33710D01*
X185662Y34009D01*
X186283Y34485D01*
X186758Y35105D01*
X187057Y35827D01*
X187160Y36602D01*
Y38571D01*
X187057Y39346D01*
X186758Y40068D01*
X186283Y40688D01*
X185662Y41164D01*
X184940Y41463D01*
X184165Y41565D01*
X183390Y41463D01*
X182668Y41164D01*
X182114Y40738D01*
X181665Y40960D01*
Y46587D01*
X209665D01*
Y40960D01*
D02*
G37*
G36*
X245098D02*
X244650Y40738D01*
X244095Y41164D01*
X243373Y41463D01*
X242598Y41565D01*
X241824Y41463D01*
X241101Y41164D01*
X240481Y40688D01*
X240005Y40068D01*
X239706Y39346D01*
X239604Y38571D01*
Y36602D01*
X239706Y35827D01*
X240005Y35105D01*
X240481Y34485D01*
X241101Y34009D01*
X241824Y33710D01*
X242598Y33608D01*
X243373Y33710D01*
X244095Y34009D01*
X244650Y34435D01*
X245098Y34214D01*
Y29087D01*
X217098D01*
Y34214D01*
X217547Y34435D01*
X218101Y34009D01*
X218824Y33710D01*
X219598Y33608D01*
X220373Y33710D01*
X221095Y34009D01*
X221716Y34485D01*
X222191Y35105D01*
X222491Y35827D01*
X222592Y36602D01*
Y38571D01*
X222491Y39346D01*
X222191Y40068D01*
X221716Y40688D01*
X221095Y41164D01*
X220373Y41463D01*
X219598Y41565D01*
X218824Y41463D01*
X218101Y41164D01*
X217547Y40738D01*
X217098Y40960D01*
Y46587D01*
X245098D01*
Y40960D01*
D02*
G37*
G36*
X280532D02*
X280083Y40738D01*
X279528Y41164D01*
X278806Y41463D01*
X278031Y41565D01*
X277257Y41463D01*
X276534Y41164D01*
X275914Y40688D01*
X275438Y40068D01*
X275139Y39346D01*
X275037Y38571D01*
Y36602D01*
X275139Y35827D01*
X275438Y35105D01*
X275914Y34485D01*
X276534Y34009D01*
X277257Y33710D01*
X278031Y33608D01*
X278806Y33710D01*
X279528Y34009D01*
X280083Y34435D01*
X280532Y34214D01*
Y29087D01*
X252532D01*
Y34214D01*
X252980Y34435D01*
X253534Y34009D01*
X254257Y33710D01*
X255031Y33608D01*
X255806Y33710D01*
X256528Y34009D01*
X257149Y34485D01*
X257625Y35105D01*
X257924Y35827D01*
X258026Y36602D01*
Y38571D01*
X257924Y39346D01*
X257625Y40068D01*
X257149Y40688D01*
X256528Y41164D01*
X255806Y41463D01*
X255031Y41565D01*
X254257Y41463D01*
X253534Y41164D01*
X252980Y40738D01*
X252532Y40960D01*
Y46587D01*
X280532D01*
Y40960D01*
D02*
G37*
G36*
X315965D02*
X315516Y40738D01*
X314962Y41164D01*
X314240Y41463D01*
X313465Y41565D01*
X312690Y41463D01*
X311967Y41164D01*
X311347Y40688D01*
X310872Y40068D01*
X310573Y39346D01*
X310470Y38571D01*
Y36602D01*
X310573Y35827D01*
X310872Y35105D01*
X311347Y34485D01*
X311967Y34009D01*
X312690Y33710D01*
X313465Y33608D01*
X314240Y33710D01*
X314962Y34009D01*
X315516Y34435D01*
X315965Y34214D01*
Y29087D01*
X287965D01*
Y34214D01*
X288413Y34435D01*
X288967Y34009D01*
X289690Y33710D01*
X290465Y33608D01*
X291240Y33710D01*
X291962Y34009D01*
X292582Y34485D01*
X293057Y35105D01*
X293357Y35827D01*
X293459Y36602D01*
Y38571D01*
X293357Y39346D01*
X293057Y40068D01*
X292582Y40688D01*
X291962Y41164D01*
X291240Y41463D01*
X290465Y41565D01*
X289690Y41463D01*
X288967Y41164D01*
X288413Y40738D01*
X287965Y40960D01*
Y46587D01*
X315965D01*
Y40960D01*
D02*
G37*
G36*
X351398D02*
X350949Y40738D01*
X350395Y41164D01*
X349673Y41463D01*
X348898Y41565D01*
X348123Y41463D01*
X347401Y41164D01*
X346780Y40688D01*
X346305Y40068D01*
X346006Y39346D01*
X345903Y38571D01*
Y36602D01*
X346006Y35827D01*
X346305Y35105D01*
X346780Y34485D01*
X347401Y34009D01*
X348123Y33710D01*
X348898Y33608D01*
X349673Y33710D01*
X350395Y34009D01*
X350949Y34435D01*
X351398Y34214D01*
Y29087D01*
X323398D01*
Y34214D01*
X323846Y34435D01*
X324401Y34009D01*
X325123Y33710D01*
X325898Y33608D01*
X326673Y33710D01*
X327395Y34009D01*
X328015Y34485D01*
X328491Y35105D01*
X328790Y35827D01*
X328892Y36602D01*
Y38571D01*
X328790Y39346D01*
X328491Y40068D01*
X328015Y40688D01*
X327395Y41164D01*
X326673Y41463D01*
X325898Y41565D01*
X325123Y41463D01*
X324401Y41164D01*
X323846Y40738D01*
X323398Y40960D01*
Y46587D01*
X351398D01*
Y40960D01*
D02*
G37*
G36*
X32500Y65369D02*
X32052Y65148D01*
X31497Y65573D01*
X30775Y65872D01*
X30000Y65974D01*
X29225Y65872D01*
X28503Y65573D01*
X27883Y65097D01*
X27407Y64477D01*
X27108Y63755D01*
X27006Y62980D01*
Y61012D01*
X27108Y60237D01*
X27407Y59515D01*
X27883Y58895D01*
X28503Y58419D01*
X29225Y58120D01*
X30000Y58018D01*
X30775Y58120D01*
X31497Y58419D01*
X32052Y58844D01*
X32500Y58623D01*
Y53496D01*
X4500D01*
Y58623D01*
X4948Y58844D01*
X5503Y58419D01*
X6225Y58120D01*
X7000Y58018D01*
X7775Y58120D01*
X8497Y58419D01*
X9117Y58895D01*
X9593Y59515D01*
X9892Y60237D01*
X9994Y61012D01*
Y62980D01*
X9892Y63755D01*
X9593Y64477D01*
X9117Y65097D01*
X8497Y65573D01*
X7775Y65872D01*
X7000Y65974D01*
X6225Y65872D01*
X5503Y65573D01*
X4948Y65148D01*
X4500Y65369D01*
Y70996D01*
X32500D01*
Y65369D01*
D02*
G37*
G36*
X67933D02*
X67485Y65148D01*
X66930Y65573D01*
X66208Y65872D01*
X65433Y65974D01*
X64658Y65872D01*
X63936Y65573D01*
X63316Y65097D01*
X62840Y64477D01*
X62541Y63755D01*
X62439Y62980D01*
Y61012D01*
X62541Y60237D01*
X62840Y59515D01*
X63316Y58895D01*
X63936Y58419D01*
X64658Y58120D01*
X65433Y58018D01*
X66208Y58120D01*
X66930Y58419D01*
X67485Y58844D01*
X67933Y58623D01*
Y53496D01*
X39933D01*
Y58623D01*
X40382Y58844D01*
X40936Y58419D01*
X41658Y58120D01*
X42433Y58018D01*
X43208Y58120D01*
X43930Y58419D01*
X44550Y58895D01*
X45026Y59515D01*
X45325Y60237D01*
X45427Y61012D01*
Y62980D01*
X45325Y63755D01*
X45026Y64477D01*
X44550Y65097D01*
X43930Y65573D01*
X43208Y65872D01*
X42433Y65974D01*
X41658Y65872D01*
X40936Y65573D01*
X40382Y65148D01*
X39933Y65369D01*
Y70996D01*
X67933D01*
Y65369D01*
D02*
G37*
G36*
X103366D02*
X102918Y65148D01*
X102363Y65573D01*
X101641Y65872D01*
X100866Y65974D01*
X100091Y65872D01*
X99369Y65573D01*
X98749Y65097D01*
X98273Y64477D01*
X97974Y63755D01*
X97872Y62980D01*
Y61012D01*
X97974Y60237D01*
X98273Y59515D01*
X98749Y58895D01*
X99369Y58419D01*
X100091Y58120D01*
X100866Y58018D01*
X101641Y58120D01*
X102363Y58419D01*
X102918Y58844D01*
X103366Y58623D01*
Y53496D01*
X75366D01*
Y58623D01*
X75815Y58844D01*
X76369Y58419D01*
X77091Y58120D01*
X77866Y58018D01*
X78641Y58120D01*
X79363Y58419D01*
X79983Y58895D01*
X80459Y59515D01*
X80758Y60237D01*
X80860Y61012D01*
Y62980D01*
X80758Y63755D01*
X80459Y64477D01*
X79983Y65097D01*
X79363Y65573D01*
X78641Y65872D01*
X77866Y65974D01*
X77091Y65872D01*
X76369Y65573D01*
X75815Y65148D01*
X75366Y65369D01*
Y70996D01*
X103366D01*
Y65369D01*
D02*
G37*
G36*
X138799D02*
X138351Y65148D01*
X137796Y65573D01*
X137074Y65872D01*
X136299Y65974D01*
X135524Y65872D01*
X134802Y65573D01*
X134182Y65097D01*
X133706Y64477D01*
X133407Y63755D01*
X133305Y62980D01*
Y61012D01*
X133407Y60237D01*
X133706Y59515D01*
X134182Y58895D01*
X134802Y58419D01*
X135524Y58120D01*
X136299Y58018D01*
X137074Y58120D01*
X137796Y58419D01*
X138351Y58844D01*
X138799Y58623D01*
Y53496D01*
X110799D01*
Y58623D01*
X111248Y58844D01*
X111802Y58419D01*
X112524Y58120D01*
X113299Y58018D01*
X114074Y58120D01*
X114796Y58419D01*
X115416Y58895D01*
X115892Y59515D01*
X116191Y60237D01*
X116293Y61012D01*
Y62980D01*
X116191Y63755D01*
X115892Y64477D01*
X115416Y65097D01*
X114796Y65573D01*
X114074Y65872D01*
X113299Y65974D01*
X112524Y65872D01*
X111802Y65573D01*
X111248Y65148D01*
X110799Y65369D01*
Y70996D01*
X138799D01*
Y65369D01*
D02*
G37*
G36*
X174232D02*
X173784Y65148D01*
X173229Y65573D01*
X172507Y65872D01*
X171732Y65974D01*
X170957Y65872D01*
X170235Y65573D01*
X169615Y65097D01*
X169139Y64477D01*
X168840Y63755D01*
X168738Y62980D01*
Y61012D01*
X168840Y60237D01*
X169139Y59515D01*
X169615Y58895D01*
X170235Y58419D01*
X170957Y58120D01*
X171732Y58018D01*
X172507Y58120D01*
X173229Y58419D01*
X173784Y58844D01*
X174232Y58623D01*
Y53496D01*
X146232D01*
Y58623D01*
X146681Y58844D01*
X147235Y58419D01*
X147957Y58120D01*
X148732Y58018D01*
X149507Y58120D01*
X150229Y58419D01*
X150849Y58895D01*
X151325Y59515D01*
X151624Y60237D01*
X151726Y61012D01*
Y62980D01*
X151624Y63755D01*
X151325Y64477D01*
X150849Y65097D01*
X150229Y65573D01*
X149507Y65872D01*
X148732Y65974D01*
X147957Y65872D01*
X147235Y65573D01*
X146681Y65148D01*
X146232Y65369D01*
Y70996D01*
X174232D01*
Y65369D01*
D02*
G37*
G36*
X209665D02*
X209217Y65148D01*
X208662Y65573D01*
X207940Y65872D01*
X207165Y65974D01*
X206390Y65872D01*
X205668Y65573D01*
X205048Y65097D01*
X204572Y64477D01*
X204273Y63755D01*
X204171Y62980D01*
Y61012D01*
X204273Y60237D01*
X204572Y59515D01*
X205048Y58895D01*
X205668Y58419D01*
X206390Y58120D01*
X207165Y58018D01*
X207940Y58120D01*
X208662Y58419D01*
X209217Y58844D01*
X209665Y58623D01*
Y53496D01*
X181665D01*
Y58623D01*
X182114Y58844D01*
X182668Y58419D01*
X183390Y58120D01*
X184165Y58018D01*
X184940Y58120D01*
X185662Y58419D01*
X186283Y58895D01*
X186758Y59515D01*
X187057Y60237D01*
X187160Y61012D01*
Y62980D01*
X187057Y63755D01*
X186758Y64477D01*
X186283Y65097D01*
X185662Y65573D01*
X184940Y65872D01*
X184165Y65974D01*
X183390Y65872D01*
X182668Y65573D01*
X182114Y65148D01*
X181665Y65369D01*
Y70996D01*
X209665D01*
Y65369D01*
D02*
G37*
G36*
X245098D02*
X244650Y65148D01*
X244095Y65573D01*
X243373Y65872D01*
X242598Y65974D01*
X241824Y65872D01*
X241101Y65573D01*
X240481Y65097D01*
X240005Y64477D01*
X239706Y63755D01*
X239604Y62980D01*
Y61012D01*
X239706Y60237D01*
X240005Y59515D01*
X240481Y58895D01*
X241101Y58419D01*
X241824Y58120D01*
X242598Y58018D01*
X243373Y58120D01*
X244095Y58419D01*
X244650Y58844D01*
X245098Y58623D01*
Y53496D01*
X217098D01*
Y58623D01*
X217547Y58844D01*
X218101Y58419D01*
X218824Y58120D01*
X219598Y58018D01*
X220373Y58120D01*
X221095Y58419D01*
X221716Y58895D01*
X222191Y59515D01*
X222491Y60237D01*
X222592Y61012D01*
Y62980D01*
X222491Y63755D01*
X222191Y64477D01*
X221716Y65097D01*
X221095Y65573D01*
X220373Y65872D01*
X219598Y65974D01*
X218824Y65872D01*
X218101Y65573D01*
X217547Y65148D01*
X217098Y65369D01*
Y70996D01*
X245098D01*
Y65369D01*
D02*
G37*
G36*
X280532D02*
X280083Y65148D01*
X279528Y65573D01*
X278806Y65872D01*
X278031Y65974D01*
X277257Y65872D01*
X276534Y65573D01*
X275914Y65097D01*
X275438Y64477D01*
X275139Y63755D01*
X275037Y62980D01*
Y61012D01*
X275139Y60237D01*
X275438Y59515D01*
X275914Y58895D01*
X276534Y58419D01*
X277257Y58120D01*
X278031Y58018D01*
X278806Y58120D01*
X279528Y58419D01*
X280083Y58844D01*
X280532Y58623D01*
Y53496D01*
X252532D01*
Y58623D01*
X252980Y58844D01*
X253534Y58419D01*
X254257Y58120D01*
X255031Y58018D01*
X255806Y58120D01*
X256528Y58419D01*
X257149Y58895D01*
X257625Y59515D01*
X257924Y60237D01*
X258026Y61012D01*
Y62980D01*
X257924Y63755D01*
X257625Y64477D01*
X257149Y65097D01*
X256528Y65573D01*
X255806Y65872D01*
X255031Y65974D01*
X254257Y65872D01*
X253534Y65573D01*
X252980Y65148D01*
X252532Y65369D01*
Y70996D01*
X280532D01*
Y65369D01*
D02*
G37*
G36*
X315965D02*
X315516Y65148D01*
X314962Y65573D01*
X314240Y65872D01*
X313465Y65974D01*
X312690Y65872D01*
X311967Y65573D01*
X311347Y65097D01*
X310872Y64477D01*
X310573Y63755D01*
X310470Y62980D01*
Y61012D01*
X310573Y60237D01*
X310872Y59515D01*
X311347Y58895D01*
X311967Y58419D01*
X312690Y58120D01*
X313465Y58018D01*
X314240Y58120D01*
X314962Y58419D01*
X315516Y58844D01*
X315965Y58623D01*
Y53496D01*
X287965D01*
Y58623D01*
X288413Y58844D01*
X288967Y58419D01*
X289690Y58120D01*
X290465Y58018D01*
X291240Y58120D01*
X291962Y58419D01*
X292582Y58895D01*
X293057Y59515D01*
X293357Y60237D01*
X293459Y61012D01*
Y62980D01*
X293357Y63755D01*
X293057Y64477D01*
X292582Y65097D01*
X291962Y65573D01*
X291240Y65872D01*
X290465Y65974D01*
X289690Y65872D01*
X288967Y65573D01*
X288413Y65148D01*
X287965Y65369D01*
Y70996D01*
X315965D01*
Y65369D01*
D02*
G37*
G36*
X351398D02*
X350949Y65148D01*
X350395Y65573D01*
X349673Y65872D01*
X348898Y65974D01*
X348123Y65872D01*
X347401Y65573D01*
X346780Y65097D01*
X346305Y64477D01*
X346006Y63755D01*
X345903Y62980D01*
Y61012D01*
X346006Y60237D01*
X346305Y59515D01*
X346780Y58895D01*
X347401Y58419D01*
X348123Y58120D01*
X348898Y58018D01*
X349673Y58120D01*
X350395Y58419D01*
X350949Y58844D01*
X351398Y58623D01*
Y53496D01*
X323398D01*
Y58623D01*
X323846Y58844D01*
X324401Y58419D01*
X325123Y58120D01*
X325898Y58018D01*
X326673Y58120D01*
X327395Y58419D01*
X328015Y58895D01*
X328491Y59515D01*
X328790Y60237D01*
X328892Y61012D01*
Y62980D01*
X328790Y63755D01*
X328491Y64477D01*
X328015Y65097D01*
X327395Y65573D01*
X326673Y65872D01*
X325898Y65974D01*
X325123Y65872D01*
X324401Y65573D01*
X323846Y65148D01*
X323398Y65369D01*
Y70996D01*
X351398D01*
Y65369D01*
D02*
G37*
G36*
X32500Y89778D02*
X32052Y89557D01*
X31497Y89983D01*
X30775Y90282D01*
X30000Y90384D01*
X29225Y90282D01*
X28503Y89983D01*
X27883Y89507D01*
X27407Y88887D01*
X27108Y88165D01*
X27006Y87390D01*
Y85421D01*
X27108Y84646D01*
X27407Y83924D01*
X27883Y83304D01*
X28503Y82828D01*
X29225Y82529D01*
X30000Y82427D01*
X30775Y82529D01*
X31497Y82828D01*
X32052Y83254D01*
X32500Y83033D01*
Y77905D01*
X4500D01*
Y83033D01*
X4948Y83254D01*
X5503Y82828D01*
X6225Y82529D01*
X7000Y82427D01*
X7775Y82529D01*
X8497Y82828D01*
X9117Y83304D01*
X9593Y83924D01*
X9892Y84646D01*
X9994Y85421D01*
Y87390D01*
X9892Y88165D01*
X9593Y88887D01*
X9117Y89507D01*
X8497Y89983D01*
X7775Y90282D01*
X7000Y90384D01*
X6225Y90282D01*
X5503Y89983D01*
X4948Y89557D01*
X4500Y89778D01*
Y95406D01*
X32500D01*
Y89778D01*
D02*
G37*
G36*
X67933D02*
X67485Y89557D01*
X66930Y89983D01*
X66208Y90282D01*
X65433Y90384D01*
X64658Y90282D01*
X63936Y89983D01*
X63316Y89507D01*
X62840Y88887D01*
X62541Y88165D01*
X62439Y87390D01*
Y85421D01*
X62541Y84646D01*
X62840Y83924D01*
X63316Y83304D01*
X63936Y82828D01*
X64658Y82529D01*
X65433Y82427D01*
X66208Y82529D01*
X66930Y82828D01*
X67485Y83254D01*
X67933Y83033D01*
Y77905D01*
X39933D01*
Y83033D01*
X40382Y83254D01*
X40936Y82828D01*
X41658Y82529D01*
X42433Y82427D01*
X43208Y82529D01*
X43930Y82828D01*
X44550Y83304D01*
X45026Y83924D01*
X45325Y84646D01*
X45427Y85421D01*
Y87390D01*
X45325Y88165D01*
X45026Y88887D01*
X44550Y89507D01*
X43930Y89983D01*
X43208Y90282D01*
X42433Y90384D01*
X41658Y90282D01*
X40936Y89983D01*
X40382Y89557D01*
X39933Y89778D01*
Y95406D01*
X67933D01*
Y89778D01*
D02*
G37*
G36*
X103366D02*
X102918Y89557D01*
X102363Y89983D01*
X101641Y90282D01*
X100866Y90384D01*
X100091Y90282D01*
X99369Y89983D01*
X98749Y89507D01*
X98273Y88887D01*
X97974Y88165D01*
X97872Y87390D01*
Y85421D01*
X97974Y84646D01*
X98273Y83924D01*
X98749Y83304D01*
X99369Y82828D01*
X100091Y82529D01*
X100866Y82427D01*
X101641Y82529D01*
X102363Y82828D01*
X102918Y83254D01*
X103366Y83033D01*
Y77905D01*
X75366D01*
Y83033D01*
X75815Y83254D01*
X76369Y82828D01*
X77091Y82529D01*
X77866Y82427D01*
X78641Y82529D01*
X79363Y82828D01*
X79983Y83304D01*
X80459Y83924D01*
X80758Y84646D01*
X80860Y85421D01*
Y87390D01*
X80758Y88165D01*
X80459Y88887D01*
X79983Y89507D01*
X79363Y89983D01*
X78641Y90282D01*
X77866Y90384D01*
X77091Y90282D01*
X76369Y89983D01*
X75815Y89557D01*
X75366Y89778D01*
Y95406D01*
X103366D01*
Y89778D01*
D02*
G37*
G36*
X138799D02*
X138351Y89557D01*
X137796Y89983D01*
X137074Y90282D01*
X136299Y90384D01*
X135524Y90282D01*
X134802Y89983D01*
X134182Y89507D01*
X133706Y88887D01*
X133407Y88165D01*
X133305Y87390D01*
Y85421D01*
X133407Y84646D01*
X133706Y83924D01*
X134182Y83304D01*
X134802Y82828D01*
X135524Y82529D01*
X136299Y82427D01*
X137074Y82529D01*
X137796Y82828D01*
X138351Y83254D01*
X138799Y83033D01*
Y77905D01*
X110799D01*
Y83033D01*
X111248Y83254D01*
X111802Y82828D01*
X112524Y82529D01*
X113299Y82427D01*
X114074Y82529D01*
X114796Y82828D01*
X115416Y83304D01*
X115892Y83924D01*
X116191Y84646D01*
X116293Y85421D01*
Y87390D01*
X116191Y88165D01*
X115892Y88887D01*
X115416Y89507D01*
X114796Y89983D01*
X114074Y90282D01*
X113299Y90384D01*
X112524Y90282D01*
X111802Y89983D01*
X111248Y89557D01*
X110799Y89778D01*
Y95406D01*
X138799D01*
Y89778D01*
D02*
G37*
G36*
X174232D02*
X173784Y89557D01*
X173229Y89983D01*
X172507Y90282D01*
X171732Y90384D01*
X170957Y90282D01*
X170235Y89983D01*
X169615Y89507D01*
X169139Y88887D01*
X168840Y88165D01*
X168738Y87390D01*
Y85421D01*
X168840Y84646D01*
X169139Y83924D01*
X169615Y83304D01*
X170235Y82828D01*
X170957Y82529D01*
X171732Y82427D01*
X172507Y82529D01*
X173229Y82828D01*
X173784Y83254D01*
X174232Y83033D01*
Y77905D01*
X146232D01*
Y83033D01*
X146681Y83254D01*
X147235Y82828D01*
X147957Y82529D01*
X148732Y82427D01*
X149507Y82529D01*
X150229Y82828D01*
X150849Y83304D01*
X151325Y83924D01*
X151624Y84646D01*
X151726Y85421D01*
Y87390D01*
X151624Y88165D01*
X151325Y88887D01*
X150849Y89507D01*
X150229Y89983D01*
X149507Y90282D01*
X148732Y90384D01*
X147957Y90282D01*
X147235Y89983D01*
X146681Y89557D01*
X146232Y89778D01*
Y95406D01*
X174232D01*
Y89778D01*
D02*
G37*
G36*
X209665D02*
X209217Y89557D01*
X208662Y89983D01*
X207940Y90282D01*
X207165Y90384D01*
X206390Y90282D01*
X205668Y89983D01*
X205048Y89507D01*
X204572Y88887D01*
X204273Y88165D01*
X204171Y87390D01*
Y85421D01*
X204273Y84646D01*
X204572Y83924D01*
X205048Y83304D01*
X205668Y82828D01*
X206390Y82529D01*
X207165Y82427D01*
X207940Y82529D01*
X208662Y82828D01*
X209217Y83254D01*
X209665Y83033D01*
Y77905D01*
X181665D01*
Y83033D01*
X182114Y83254D01*
X182668Y82828D01*
X183390Y82529D01*
X184165Y82427D01*
X184940Y82529D01*
X185662Y82828D01*
X186283Y83304D01*
X186758Y83924D01*
X187057Y84646D01*
X187160Y85421D01*
Y87390D01*
X187057Y88165D01*
X186758Y88887D01*
X186283Y89507D01*
X185662Y89983D01*
X184940Y90282D01*
X184165Y90384D01*
X183390Y90282D01*
X182668Y89983D01*
X182114Y89557D01*
X181665Y89778D01*
Y95406D01*
X209665D01*
Y89778D01*
D02*
G37*
G36*
X245098D02*
X244650Y89557D01*
X244095Y89983D01*
X243373Y90282D01*
X242598Y90384D01*
X241824Y90282D01*
X241101Y89983D01*
X240481Y89507D01*
X240005Y88887D01*
X239706Y88165D01*
X239604Y87390D01*
Y85421D01*
X239706Y84646D01*
X240005Y83924D01*
X240481Y83304D01*
X241101Y82828D01*
X241824Y82529D01*
X242598Y82427D01*
X243373Y82529D01*
X244095Y82828D01*
X244650Y83254D01*
X245098Y83033D01*
Y77905D01*
X217098D01*
Y83033D01*
X217547Y83254D01*
X218101Y82828D01*
X218824Y82529D01*
X219598Y82427D01*
X220373Y82529D01*
X221095Y82828D01*
X221716Y83304D01*
X222191Y83924D01*
X222491Y84646D01*
X222592Y85421D01*
Y87390D01*
X222491Y88165D01*
X222191Y88887D01*
X221716Y89507D01*
X221095Y89983D01*
X220373Y90282D01*
X219598Y90384D01*
X218824Y90282D01*
X218101Y89983D01*
X217547Y89557D01*
X217098Y89778D01*
Y95406D01*
X245098D01*
Y89778D01*
D02*
G37*
G36*
X280532D02*
X280083Y89557D01*
X279528Y89983D01*
X278806Y90282D01*
X278031Y90384D01*
X277257Y90282D01*
X276534Y89983D01*
X275914Y89507D01*
X275438Y88887D01*
X275139Y88165D01*
X275037Y87390D01*
Y85421D01*
X275139Y84646D01*
X275438Y83924D01*
X275914Y83304D01*
X276534Y82828D01*
X277257Y82529D01*
X278031Y82427D01*
X278806Y82529D01*
X279528Y82828D01*
X280083Y83254D01*
X280532Y83033D01*
Y77905D01*
X252532D01*
Y83033D01*
X252980Y83254D01*
X253534Y82828D01*
X254257Y82529D01*
X255031Y82427D01*
X255806Y82529D01*
X256528Y82828D01*
X257149Y83304D01*
X257625Y83924D01*
X257924Y84646D01*
X258026Y85421D01*
Y87390D01*
X257924Y88165D01*
X257625Y88887D01*
X257149Y89507D01*
X256528Y89983D01*
X255806Y90282D01*
X255031Y90384D01*
X254257Y90282D01*
X253534Y89983D01*
X252980Y89557D01*
X252532Y89778D01*
Y95406D01*
X280532D01*
Y89778D01*
D02*
G37*
G36*
X315965D02*
X315516Y89557D01*
X314962Y89983D01*
X314240Y90282D01*
X313465Y90384D01*
X312690Y90282D01*
X311967Y89983D01*
X311347Y89507D01*
X310872Y88887D01*
X310573Y88165D01*
X310470Y87390D01*
Y85421D01*
X310573Y84646D01*
X310872Y83924D01*
X311347Y83304D01*
X311967Y82828D01*
X312690Y82529D01*
X313465Y82427D01*
X314240Y82529D01*
X314962Y82828D01*
X315516Y83254D01*
X315965Y83033D01*
Y77905D01*
X287965D01*
Y83033D01*
X288413Y83254D01*
X288967Y82828D01*
X289690Y82529D01*
X290465Y82427D01*
X291240Y82529D01*
X291962Y82828D01*
X292582Y83304D01*
X293057Y83924D01*
X293357Y84646D01*
X293459Y85421D01*
Y87390D01*
X293357Y88165D01*
X293057Y88887D01*
X292582Y89507D01*
X291962Y89983D01*
X291240Y90282D01*
X290465Y90384D01*
X289690Y90282D01*
X288967Y89983D01*
X288413Y89557D01*
X287965Y89778D01*
Y95406D01*
X315965D01*
Y89778D01*
D02*
G37*
G36*
X351398D02*
X350949Y89557D01*
X350395Y89983D01*
X349673Y90282D01*
X348898Y90384D01*
X348123Y90282D01*
X347401Y89983D01*
X346780Y89507D01*
X346305Y88887D01*
X346006Y88165D01*
X345903Y87390D01*
Y85421D01*
X346006Y84646D01*
X346305Y83924D01*
X346780Y83304D01*
X347401Y82828D01*
X348123Y82529D01*
X348898Y82427D01*
X349673Y82529D01*
X350395Y82828D01*
X350949Y83254D01*
X351398Y83033D01*
Y77905D01*
X323398D01*
Y83033D01*
X323846Y83254D01*
X324401Y82828D01*
X325123Y82529D01*
X325898Y82427D01*
X326673Y82529D01*
X327395Y82828D01*
X328015Y83304D01*
X328491Y83924D01*
X328790Y84646D01*
X328892Y85421D01*
Y87390D01*
X328790Y88165D01*
X328491Y88887D01*
X328015Y89507D01*
X327395Y89983D01*
X326673Y90282D01*
X325898Y90384D01*
X325123Y90282D01*
X324401Y89983D01*
X323846Y89557D01*
X323398Y89778D01*
Y95406D01*
X351398D01*
Y89778D01*
D02*
G37*
G36*
X32500Y114188D02*
X32052Y113967D01*
X31497Y114392D01*
X30775Y114691D01*
X30000Y114793D01*
X29225Y114691D01*
X28503Y114392D01*
X27883Y113916D01*
X27407Y113296D01*
X27108Y112574D01*
X27006Y111799D01*
Y109831D01*
X27108Y109056D01*
X27407Y108334D01*
X27883Y107713D01*
X28503Y107238D01*
X29225Y106939D01*
X30000Y106837D01*
X30775Y106939D01*
X31497Y107238D01*
X32052Y107663D01*
X32500Y107442D01*
Y102315D01*
X4500D01*
Y107442D01*
X4948Y107663D01*
X5503Y107238D01*
X6225Y106939D01*
X7000Y106837D01*
X7775Y106939D01*
X8497Y107238D01*
X9117Y107713D01*
X9593Y108334D01*
X9892Y109056D01*
X9994Y109831D01*
Y111799D01*
X9892Y112574D01*
X9593Y113296D01*
X9117Y113916D01*
X8497Y114392D01*
X7775Y114691D01*
X7000Y114793D01*
X6225Y114691D01*
X5503Y114392D01*
X4948Y113967D01*
X4500Y114188D01*
Y119815D01*
X32500D01*
Y114188D01*
D02*
G37*
G36*
X67933D02*
X67485Y113967D01*
X66930Y114392D01*
X66208Y114691D01*
X65433Y114793D01*
X64658Y114691D01*
X63936Y114392D01*
X63316Y113916D01*
X62840Y113296D01*
X62541Y112574D01*
X62439Y111799D01*
Y109831D01*
X62541Y109056D01*
X62840Y108334D01*
X63316Y107713D01*
X63936Y107238D01*
X64658Y106939D01*
X65433Y106837D01*
X66208Y106939D01*
X66930Y107238D01*
X67485Y107663D01*
X67933Y107442D01*
Y102315D01*
X39933D01*
Y107442D01*
X40382Y107663D01*
X40936Y107238D01*
X41658Y106939D01*
X42433Y106837D01*
X43208Y106939D01*
X43930Y107238D01*
X44550Y107713D01*
X45026Y108334D01*
X45325Y109056D01*
X45427Y109831D01*
Y111799D01*
X45325Y112574D01*
X45026Y113296D01*
X44550Y113916D01*
X43930Y114392D01*
X43208Y114691D01*
X42433Y114793D01*
X41658Y114691D01*
X40936Y114392D01*
X40382Y113967D01*
X39933Y114188D01*
Y119815D01*
X67933D01*
Y114188D01*
D02*
G37*
G36*
X103366D02*
X102918Y113967D01*
X102363Y114392D01*
X101641Y114691D01*
X100866Y114793D01*
X100091Y114691D01*
X99369Y114392D01*
X98749Y113916D01*
X98273Y113296D01*
X97974Y112574D01*
X97872Y111799D01*
Y109831D01*
X97974Y109056D01*
X98273Y108334D01*
X98749Y107713D01*
X99369Y107238D01*
X100091Y106939D01*
X100866Y106837D01*
X101641Y106939D01*
X102363Y107238D01*
X102918Y107663D01*
X103366Y107442D01*
Y102315D01*
X75366D01*
Y107442D01*
X75815Y107663D01*
X76369Y107238D01*
X77091Y106939D01*
X77866Y106837D01*
X78641Y106939D01*
X79363Y107238D01*
X79983Y107713D01*
X80459Y108334D01*
X80758Y109056D01*
X80860Y109831D01*
Y111799D01*
X80758Y112574D01*
X80459Y113296D01*
X79983Y113916D01*
X79363Y114392D01*
X78641Y114691D01*
X77866Y114793D01*
X77091Y114691D01*
X76369Y114392D01*
X75815Y113967D01*
X75366Y114188D01*
Y119815D01*
X103366D01*
Y114188D01*
D02*
G37*
G36*
X138799D02*
X138351Y113967D01*
X137796Y114392D01*
X137074Y114691D01*
X136299Y114793D01*
X135524Y114691D01*
X134802Y114392D01*
X134182Y113916D01*
X133706Y113296D01*
X133407Y112574D01*
X133305Y111799D01*
Y109831D01*
X133407Y109056D01*
X133706Y108334D01*
X134182Y107713D01*
X134802Y107238D01*
X135524Y106939D01*
X136299Y106837D01*
X137074Y106939D01*
X137796Y107238D01*
X138351Y107663D01*
X138799Y107442D01*
Y102315D01*
X110799D01*
Y107442D01*
X111248Y107663D01*
X111802Y107238D01*
X112524Y106939D01*
X113299Y106837D01*
X114074Y106939D01*
X114796Y107238D01*
X115416Y107713D01*
X115892Y108334D01*
X116191Y109056D01*
X116293Y109831D01*
Y111799D01*
X116191Y112574D01*
X115892Y113296D01*
X115416Y113916D01*
X114796Y114392D01*
X114074Y114691D01*
X113299Y114793D01*
X112524Y114691D01*
X111802Y114392D01*
X111248Y113967D01*
X110799Y114188D01*
Y119815D01*
X138799D01*
Y114188D01*
D02*
G37*
G36*
X174232D02*
X173784Y113967D01*
X173229Y114392D01*
X172507Y114691D01*
X171732Y114793D01*
X170957Y114691D01*
X170235Y114392D01*
X169615Y113916D01*
X169139Y113296D01*
X168840Y112574D01*
X168738Y111799D01*
Y109831D01*
X168840Y109056D01*
X169139Y108334D01*
X169615Y107713D01*
X170235Y107238D01*
X170957Y106939D01*
X171732Y106837D01*
X172507Y106939D01*
X173229Y107238D01*
X173784Y107663D01*
X174232Y107442D01*
Y102315D01*
X146232D01*
Y107442D01*
X146681Y107663D01*
X147235Y107238D01*
X147957Y106939D01*
X148732Y106837D01*
X149507Y106939D01*
X150229Y107238D01*
X150849Y107713D01*
X151325Y108334D01*
X151624Y109056D01*
X151726Y109831D01*
Y111799D01*
X151624Y112574D01*
X151325Y113296D01*
X150849Y113916D01*
X150229Y114392D01*
X149507Y114691D01*
X148732Y114793D01*
X147957Y114691D01*
X147235Y114392D01*
X146681Y113967D01*
X146232Y114188D01*
Y119815D01*
X174232D01*
Y114188D01*
D02*
G37*
G36*
X209665D02*
X209217Y113967D01*
X208662Y114392D01*
X207940Y114691D01*
X207165Y114793D01*
X206390Y114691D01*
X205668Y114392D01*
X205048Y113916D01*
X204572Y113296D01*
X204273Y112574D01*
X204171Y111799D01*
Y109831D01*
X204273Y109056D01*
X204572Y108334D01*
X205048Y107713D01*
X205668Y107238D01*
X206390Y106939D01*
X207165Y106837D01*
X207940Y106939D01*
X208662Y107238D01*
X209217Y107663D01*
X209665Y107442D01*
Y102315D01*
X181665D01*
Y107442D01*
X182114Y107663D01*
X182668Y107238D01*
X183390Y106939D01*
X184165Y106837D01*
X184940Y106939D01*
X185662Y107238D01*
X186283Y107713D01*
X186758Y108334D01*
X187057Y109056D01*
X187160Y109831D01*
Y111799D01*
X187057Y112574D01*
X186758Y113296D01*
X186283Y113916D01*
X185662Y114392D01*
X184940Y114691D01*
X184165Y114793D01*
X183390Y114691D01*
X182668Y114392D01*
X182114Y113967D01*
X181665Y114188D01*
Y119815D01*
X209665D01*
Y114188D01*
D02*
G37*
G36*
X245098D02*
X244650Y113967D01*
X244095Y114392D01*
X243373Y114691D01*
X242598Y114793D01*
X241824Y114691D01*
X241101Y114392D01*
X240481Y113916D01*
X240005Y113296D01*
X239706Y112574D01*
X239604Y111799D01*
Y109831D01*
X239706Y109056D01*
X240005Y108334D01*
X240481Y107713D01*
X241101Y107238D01*
X241824Y106939D01*
X242598Y106837D01*
X243373Y106939D01*
X244095Y107238D01*
X244650Y107663D01*
X245098Y107442D01*
Y102315D01*
X217098D01*
Y107442D01*
X217547Y107663D01*
X218101Y107238D01*
X218824Y106939D01*
X219598Y106837D01*
X220373Y106939D01*
X221095Y107238D01*
X221716Y107713D01*
X222191Y108334D01*
X222491Y109056D01*
X222592Y109831D01*
Y111799D01*
X222491Y112574D01*
X222191Y113296D01*
X221716Y113916D01*
X221095Y114392D01*
X220373Y114691D01*
X219598Y114793D01*
X218824Y114691D01*
X218101Y114392D01*
X217547Y113967D01*
X217098Y114188D01*
Y119815D01*
X245098D01*
Y114188D01*
D02*
G37*
G36*
X280532D02*
X280083Y113967D01*
X279528Y114392D01*
X278806Y114691D01*
X278031Y114793D01*
X277257Y114691D01*
X276534Y114392D01*
X275914Y113916D01*
X275438Y113296D01*
X275139Y112574D01*
X275037Y111799D01*
Y109831D01*
X275139Y109056D01*
X275438Y108334D01*
X275914Y107713D01*
X276534Y107238D01*
X277257Y106939D01*
X278031Y106837D01*
X278806Y106939D01*
X279528Y107238D01*
X280083Y107663D01*
X280532Y107442D01*
Y102315D01*
X252532D01*
Y107442D01*
X252980Y107663D01*
X253534Y107238D01*
X254257Y106939D01*
X255031Y106837D01*
X255806Y106939D01*
X256528Y107238D01*
X257149Y107713D01*
X257625Y108334D01*
X257924Y109056D01*
X258026Y109831D01*
Y111799D01*
X257924Y112574D01*
X257625Y113296D01*
X257149Y113916D01*
X256528Y114392D01*
X255806Y114691D01*
X255031Y114793D01*
X254257Y114691D01*
X253534Y114392D01*
X252980Y113967D01*
X252532Y114188D01*
Y119815D01*
X280532D01*
Y114188D01*
D02*
G37*
G36*
X315965D02*
X315516Y113967D01*
X314962Y114392D01*
X314240Y114691D01*
X313465Y114793D01*
X312690Y114691D01*
X311967Y114392D01*
X311347Y113916D01*
X310872Y113296D01*
X310573Y112574D01*
X310470Y111799D01*
Y109831D01*
X310573Y109056D01*
X310872Y108334D01*
X311347Y107713D01*
X311967Y107238D01*
X312690Y106939D01*
X313465Y106837D01*
X314240Y106939D01*
X314962Y107238D01*
X315516Y107663D01*
X315965Y107442D01*
Y102315D01*
X287965D01*
Y107442D01*
X288413Y107663D01*
X288967Y107238D01*
X289690Y106939D01*
X290465Y106837D01*
X291240Y106939D01*
X291962Y107238D01*
X292582Y107713D01*
X293057Y108334D01*
X293357Y109056D01*
X293459Y109831D01*
Y111799D01*
X293357Y112574D01*
X293057Y113296D01*
X292582Y113916D01*
X291962Y114392D01*
X291240Y114691D01*
X290465Y114793D01*
X289690Y114691D01*
X288967Y114392D01*
X288413Y113967D01*
X287965Y114188D01*
Y119815D01*
X315965D01*
Y114188D01*
D02*
G37*
G36*
X351398D02*
X350949Y113967D01*
X350395Y114392D01*
X349673Y114691D01*
X348898Y114793D01*
X348123Y114691D01*
X347401Y114392D01*
X346780Y113916D01*
X346305Y113296D01*
X346006Y112574D01*
X345903Y111799D01*
Y109831D01*
X346006Y109056D01*
X346305Y108334D01*
X346780Y107713D01*
X347401Y107238D01*
X348123Y106939D01*
X348898Y106837D01*
X349673Y106939D01*
X350395Y107238D01*
X350949Y107663D01*
X351398Y107442D01*
Y102315D01*
X323398D01*
Y107442D01*
X323846Y107663D01*
X324401Y107238D01*
X325123Y106939D01*
X325898Y106837D01*
X326673Y106939D01*
X327395Y107238D01*
X328015Y107713D01*
X328491Y108334D01*
X328790Y109056D01*
X328892Y109831D01*
Y111799D01*
X328790Y112574D01*
X328491Y113296D01*
X328015Y113916D01*
X327395Y114392D01*
X326673Y114691D01*
X325898Y114793D01*
X325123Y114691D01*
X324401Y114392D01*
X323846Y113967D01*
X323398Y114188D01*
Y119815D01*
X351398D01*
Y114188D01*
D02*
G37*
G36*
X32500Y138597D02*
X32052Y138376D01*
X31497Y138802D01*
X30775Y139101D01*
X30000Y139203D01*
X29225Y139101D01*
X28503Y138802D01*
X27883Y138326D01*
X27407Y137706D01*
X27108Y136984D01*
X27006Y136209D01*
Y134240D01*
X27108Y133465D01*
X27407Y132743D01*
X27883Y132123D01*
X28503Y131647D01*
X29225Y131348D01*
X30000Y131246D01*
X30775Y131348D01*
X31497Y131647D01*
X32052Y132073D01*
X32500Y131851D01*
Y126724D01*
X4500D01*
Y131851D01*
X4948Y132073D01*
X5503Y131647D01*
X6225Y131348D01*
X7000Y131246D01*
X7775Y131348D01*
X8497Y131647D01*
X9117Y132123D01*
X9593Y132743D01*
X9892Y133465D01*
X9994Y134240D01*
Y136209D01*
X9892Y136984D01*
X9593Y137706D01*
X9117Y138326D01*
X8497Y138802D01*
X7775Y139101D01*
X7000Y139203D01*
X6225Y139101D01*
X5503Y138802D01*
X4948Y138376D01*
X4500Y138597D01*
Y144224D01*
X32500D01*
Y138597D01*
D02*
G37*
G36*
X67933D02*
X67485Y138376D01*
X66930Y138802D01*
X66208Y139101D01*
X65433Y139203D01*
X64658Y139101D01*
X63936Y138802D01*
X63316Y138326D01*
X62840Y137706D01*
X62541Y136984D01*
X62439Y136209D01*
Y134240D01*
X62541Y133465D01*
X62840Y132743D01*
X63316Y132123D01*
X63936Y131647D01*
X64658Y131348D01*
X65433Y131246D01*
X66208Y131348D01*
X66930Y131647D01*
X67485Y132073D01*
X67933Y131851D01*
Y126724D01*
X39933D01*
Y131851D01*
X40382Y132073D01*
X40936Y131647D01*
X41658Y131348D01*
X42433Y131246D01*
X43208Y131348D01*
X43930Y131647D01*
X44550Y132123D01*
X45026Y132743D01*
X45325Y133465D01*
X45427Y134240D01*
Y136209D01*
X45325Y136984D01*
X45026Y137706D01*
X44550Y138326D01*
X43930Y138802D01*
X43208Y139101D01*
X42433Y139203D01*
X41658Y139101D01*
X40936Y138802D01*
X40382Y138376D01*
X39933Y138597D01*
Y144224D01*
X67933D01*
Y138597D01*
D02*
G37*
G36*
X103366D02*
X102918Y138376D01*
X102363Y138802D01*
X101641Y139101D01*
X100866Y139203D01*
X100091Y139101D01*
X99369Y138802D01*
X98749Y138326D01*
X98273Y137706D01*
X97974Y136984D01*
X97872Y136209D01*
Y134240D01*
X97974Y133465D01*
X98273Y132743D01*
X98749Y132123D01*
X99369Y131647D01*
X100091Y131348D01*
X100866Y131246D01*
X101641Y131348D01*
X102363Y131647D01*
X102918Y132073D01*
X103366Y131851D01*
Y126724D01*
X75366D01*
Y131851D01*
X75815Y132073D01*
X76369Y131647D01*
X77091Y131348D01*
X77866Y131246D01*
X78641Y131348D01*
X79363Y131647D01*
X79983Y132123D01*
X80459Y132743D01*
X80758Y133465D01*
X80860Y134240D01*
Y136209D01*
X80758Y136984D01*
X80459Y137706D01*
X79983Y138326D01*
X79363Y138802D01*
X78641Y139101D01*
X77866Y139203D01*
X77091Y139101D01*
X76369Y138802D01*
X75815Y138376D01*
X75366Y138597D01*
Y144224D01*
X103366D01*
Y138597D01*
D02*
G37*
G36*
X138799D02*
X138351Y138376D01*
X137796Y138802D01*
X137074Y139101D01*
X136299Y139203D01*
X135524Y139101D01*
X134802Y138802D01*
X134182Y138326D01*
X133706Y137706D01*
X133407Y136984D01*
X133305Y136209D01*
Y134240D01*
X133407Y133465D01*
X133706Y132743D01*
X134182Y132123D01*
X134802Y131647D01*
X135524Y131348D01*
X136299Y131246D01*
X137074Y131348D01*
X137796Y131647D01*
X138351Y132073D01*
X138799Y131851D01*
Y126724D01*
X110799D01*
Y131851D01*
X111248Y132073D01*
X111802Y131647D01*
X112524Y131348D01*
X113299Y131246D01*
X114074Y131348D01*
X114796Y131647D01*
X115416Y132123D01*
X115892Y132743D01*
X116191Y133465D01*
X116293Y134240D01*
Y136209D01*
X116191Y136984D01*
X115892Y137706D01*
X115416Y138326D01*
X114796Y138802D01*
X114074Y139101D01*
X113299Y139203D01*
X112524Y139101D01*
X111802Y138802D01*
X111248Y138376D01*
X110799Y138597D01*
Y144224D01*
X138799D01*
Y138597D01*
D02*
G37*
G36*
X174232D02*
X173784Y138376D01*
X173229Y138802D01*
X172507Y139101D01*
X171732Y139203D01*
X170957Y139101D01*
X170235Y138802D01*
X169615Y138326D01*
X169139Y137706D01*
X168840Y136984D01*
X168738Y136209D01*
Y134240D01*
X168840Y133465D01*
X169139Y132743D01*
X169615Y132123D01*
X170235Y131647D01*
X170957Y131348D01*
X171732Y131246D01*
X172507Y131348D01*
X173229Y131647D01*
X173784Y132073D01*
X174232Y131851D01*
Y126724D01*
X146232D01*
Y131851D01*
X146681Y132073D01*
X147235Y131647D01*
X147957Y131348D01*
X148732Y131246D01*
X149507Y131348D01*
X150229Y131647D01*
X150849Y132123D01*
X151325Y132743D01*
X151624Y133465D01*
X151726Y134240D01*
Y136209D01*
X151624Y136984D01*
X151325Y137706D01*
X150849Y138326D01*
X150229Y138802D01*
X149507Y139101D01*
X148732Y139203D01*
X147957Y139101D01*
X147235Y138802D01*
X146681Y138376D01*
X146232Y138597D01*
Y144224D01*
X174232D01*
Y138597D01*
D02*
G37*
G36*
X209665D02*
X209217Y138376D01*
X208662Y138802D01*
X207940Y139101D01*
X207165Y139203D01*
X206390Y139101D01*
X205668Y138802D01*
X205048Y138326D01*
X204572Y137706D01*
X204273Y136984D01*
X204171Y136209D01*
Y134240D01*
X204273Y133465D01*
X204572Y132743D01*
X205048Y132123D01*
X205668Y131647D01*
X206390Y131348D01*
X207165Y131246D01*
X207940Y131348D01*
X208662Y131647D01*
X209217Y132073D01*
X209665Y131851D01*
Y126724D01*
X181665D01*
Y131851D01*
X182114Y132073D01*
X182668Y131647D01*
X183390Y131348D01*
X184165Y131246D01*
X184940Y131348D01*
X185662Y131647D01*
X186283Y132123D01*
X186758Y132743D01*
X187057Y133465D01*
X187160Y134240D01*
Y136209D01*
X187057Y136984D01*
X186758Y137706D01*
X186283Y138326D01*
X185662Y138802D01*
X184940Y139101D01*
X184165Y139203D01*
X183390Y139101D01*
X182668Y138802D01*
X182114Y138376D01*
X181665Y138597D01*
Y144224D01*
X209665D01*
Y138597D01*
D02*
G37*
G36*
X245098D02*
X244650Y138376D01*
X244095Y138802D01*
X243373Y139101D01*
X242598Y139203D01*
X241824Y139101D01*
X241101Y138802D01*
X240481Y138326D01*
X240005Y137706D01*
X239706Y136984D01*
X239604Y136209D01*
Y134240D01*
X239706Y133465D01*
X240005Y132743D01*
X240481Y132123D01*
X241101Y131647D01*
X241824Y131348D01*
X242598Y131246D01*
X243373Y131348D01*
X244095Y131647D01*
X244650Y132073D01*
X245098Y131851D01*
Y126724D01*
X217098D01*
Y131851D01*
X217547Y132073D01*
X218101Y131647D01*
X218824Y131348D01*
X219598Y131246D01*
X220373Y131348D01*
X221095Y131647D01*
X221716Y132123D01*
X222191Y132743D01*
X222491Y133465D01*
X222592Y134240D01*
Y136209D01*
X222491Y136984D01*
X222191Y137706D01*
X221716Y138326D01*
X221095Y138802D01*
X220373Y139101D01*
X219598Y139203D01*
X218824Y139101D01*
X218101Y138802D01*
X217547Y138376D01*
X217098Y138597D01*
Y144224D01*
X245098D01*
Y138597D01*
D02*
G37*
G36*
X280532D02*
X280083Y138376D01*
X279528Y138802D01*
X278806Y139101D01*
X278031Y139203D01*
X277257Y139101D01*
X276534Y138802D01*
X275914Y138326D01*
X275438Y137706D01*
X275139Y136984D01*
X275037Y136209D01*
Y134240D01*
X275139Y133465D01*
X275438Y132743D01*
X275914Y132123D01*
X276534Y131647D01*
X277257Y131348D01*
X278031Y131246D01*
X278806Y131348D01*
X279528Y131647D01*
X280083Y132073D01*
X280532Y131851D01*
Y126724D01*
X252532D01*
Y131851D01*
X252980Y132073D01*
X253534Y131647D01*
X254257Y131348D01*
X255031Y131246D01*
X255806Y131348D01*
X256528Y131647D01*
X257149Y132123D01*
X257625Y132743D01*
X257924Y133465D01*
X258026Y134240D01*
Y136209D01*
X257924Y136984D01*
X257625Y137706D01*
X257149Y138326D01*
X256528Y138802D01*
X255806Y139101D01*
X255031Y139203D01*
X254257Y139101D01*
X253534Y138802D01*
X252980Y138376D01*
X252532Y138597D01*
Y144224D01*
X280532D01*
Y138597D01*
D02*
G37*
G36*
X315965D02*
X315516Y138376D01*
X314962Y138802D01*
X314240Y139101D01*
X313465Y139203D01*
X312690Y139101D01*
X311967Y138802D01*
X311347Y138326D01*
X310872Y137706D01*
X310573Y136984D01*
X310470Y136209D01*
Y134240D01*
X310573Y133465D01*
X310872Y132743D01*
X311347Y132123D01*
X311967Y131647D01*
X312690Y131348D01*
X313465Y131246D01*
X314240Y131348D01*
X314962Y131647D01*
X315516Y132073D01*
X315965Y131851D01*
Y126724D01*
X287965D01*
Y131851D01*
X288413Y132073D01*
X288967Y131647D01*
X289690Y131348D01*
X290465Y131246D01*
X291240Y131348D01*
X291962Y131647D01*
X292582Y132123D01*
X293057Y132743D01*
X293357Y133465D01*
X293459Y134240D01*
Y136209D01*
X293357Y136984D01*
X293057Y137706D01*
X292582Y138326D01*
X291962Y138802D01*
X291240Y139101D01*
X290465Y139203D01*
X289690Y139101D01*
X288967Y138802D01*
X288413Y138376D01*
X287965Y138597D01*
Y144224D01*
X315965D01*
Y138597D01*
D02*
G37*
G36*
X351398D02*
X350949Y138376D01*
X350395Y138802D01*
X349673Y139101D01*
X348898Y139203D01*
X348123Y139101D01*
X347401Y138802D01*
X346780Y138326D01*
X346305Y137706D01*
X346006Y136984D01*
X345903Y136209D01*
Y134240D01*
X346006Y133465D01*
X346305Y132743D01*
X346780Y132123D01*
X347401Y131647D01*
X348123Y131348D01*
X348898Y131246D01*
X349673Y131348D01*
X350395Y131647D01*
X350949Y132073D01*
X351398Y131851D01*
Y126724D01*
X323398D01*
Y131851D01*
X323846Y132073D01*
X324401Y131647D01*
X325123Y131348D01*
X325898Y131246D01*
X326673Y131348D01*
X327395Y131647D01*
X328015Y132123D01*
X328491Y132743D01*
X328790Y133465D01*
X328892Y134240D01*
Y136209D01*
X328790Y136984D01*
X328491Y137706D01*
X328015Y138326D01*
X327395Y138802D01*
X326673Y139101D01*
X325898Y139203D01*
X325123Y139101D01*
X324401Y138802D01*
X323846Y138376D01*
X323398Y138597D01*
Y144224D01*
X351398D01*
Y138597D01*
D02*
G37*
G36*
X32500Y163007D02*
X32052Y162786D01*
X31497Y163211D01*
X30775Y163510D01*
X30000Y163612D01*
X29225Y163510D01*
X28503Y163211D01*
X27883Y162735D01*
X27407Y162115D01*
X27108Y161393D01*
X27006Y160618D01*
Y158650D01*
X27108Y157875D01*
X27407Y157152D01*
X27883Y156532D01*
X28503Y156057D01*
X29225Y155757D01*
X30000Y155656D01*
X30775Y155757D01*
X31497Y156057D01*
X32052Y156482D01*
X32500Y156261D01*
Y151134D01*
X4500D01*
Y156261D01*
X4948Y156482D01*
X5503Y156057D01*
X6225Y155757D01*
X7000Y155656D01*
X7775Y155757D01*
X8497Y156057D01*
X9117Y156532D01*
X9593Y157152D01*
X9892Y157875D01*
X9994Y158650D01*
Y160618D01*
X9892Y161393D01*
X9593Y162115D01*
X9117Y162735D01*
X8497Y163211D01*
X7775Y163510D01*
X7000Y163612D01*
X6225Y163510D01*
X5503Y163211D01*
X4948Y162786D01*
X4500Y163007D01*
Y168634D01*
X32500D01*
Y163007D01*
D02*
G37*
G36*
X67933D02*
X67485Y162786D01*
X66930Y163211D01*
X66208Y163510D01*
X65433Y163612D01*
X64658Y163510D01*
X63936Y163211D01*
X63316Y162735D01*
X62840Y162115D01*
X62541Y161393D01*
X62439Y160618D01*
Y158650D01*
X62541Y157875D01*
X62840Y157152D01*
X63316Y156532D01*
X63936Y156057D01*
X64658Y155757D01*
X65433Y155656D01*
X66208Y155757D01*
X66930Y156057D01*
X67485Y156482D01*
X67933Y156261D01*
Y151134D01*
X39933D01*
Y156261D01*
X40382Y156482D01*
X40936Y156057D01*
X41658Y155757D01*
X42433Y155656D01*
X43208Y155757D01*
X43930Y156057D01*
X44550Y156532D01*
X45026Y157152D01*
X45325Y157875D01*
X45427Y158650D01*
Y160618D01*
X45325Y161393D01*
X45026Y162115D01*
X44550Y162735D01*
X43930Y163211D01*
X43208Y163510D01*
X42433Y163612D01*
X41658Y163510D01*
X40936Y163211D01*
X40382Y162786D01*
X39933Y163007D01*
Y168634D01*
X67933D01*
Y163007D01*
D02*
G37*
G36*
X103366D02*
X102918Y162786D01*
X102363Y163211D01*
X101641Y163510D01*
X100866Y163612D01*
X100091Y163510D01*
X99369Y163211D01*
X98749Y162735D01*
X98273Y162115D01*
X97974Y161393D01*
X97872Y160618D01*
Y158650D01*
X97974Y157875D01*
X98273Y157152D01*
X98749Y156532D01*
X99369Y156057D01*
X100091Y155757D01*
X100866Y155656D01*
X101641Y155757D01*
X102363Y156057D01*
X102918Y156482D01*
X103366Y156261D01*
Y151134D01*
X75366D01*
Y156261D01*
X75815Y156482D01*
X76369Y156057D01*
X77091Y155757D01*
X77866Y155656D01*
X78641Y155757D01*
X79363Y156057D01*
X79983Y156532D01*
X80459Y157152D01*
X80758Y157875D01*
X80860Y158650D01*
Y160618D01*
X80758Y161393D01*
X80459Y162115D01*
X79983Y162735D01*
X79363Y163211D01*
X78641Y163510D01*
X77866Y163612D01*
X77091Y163510D01*
X76369Y163211D01*
X75815Y162786D01*
X75366Y163007D01*
Y168634D01*
X103366D01*
Y163007D01*
D02*
G37*
G36*
X138799D02*
X138351Y162786D01*
X137796Y163211D01*
X137074Y163510D01*
X136299Y163612D01*
X135524Y163510D01*
X134802Y163211D01*
X134182Y162735D01*
X133706Y162115D01*
X133407Y161393D01*
X133305Y160618D01*
Y158650D01*
X133407Y157875D01*
X133706Y157152D01*
X134182Y156532D01*
X134802Y156057D01*
X135524Y155757D01*
X136299Y155656D01*
X137074Y155757D01*
X137796Y156057D01*
X138351Y156482D01*
X138799Y156261D01*
Y151134D01*
X110799D01*
Y156261D01*
X111248Y156482D01*
X111802Y156057D01*
X112524Y155757D01*
X113299Y155656D01*
X114074Y155757D01*
X114796Y156057D01*
X115416Y156532D01*
X115892Y157152D01*
X116191Y157875D01*
X116293Y158650D01*
Y160618D01*
X116191Y161393D01*
X115892Y162115D01*
X115416Y162735D01*
X114796Y163211D01*
X114074Y163510D01*
X113299Y163612D01*
X112524Y163510D01*
X111802Y163211D01*
X111248Y162786D01*
X110799Y163007D01*
Y168634D01*
X138799D01*
Y163007D01*
D02*
G37*
G36*
X174232D02*
X173784Y162786D01*
X173229Y163211D01*
X172507Y163510D01*
X171732Y163612D01*
X170957Y163510D01*
X170235Y163211D01*
X169615Y162735D01*
X169139Y162115D01*
X168840Y161393D01*
X168738Y160618D01*
Y158650D01*
X168840Y157875D01*
X169139Y157152D01*
X169615Y156532D01*
X170235Y156057D01*
X170957Y155757D01*
X171732Y155656D01*
X172507Y155757D01*
X173229Y156057D01*
X173784Y156482D01*
X174232Y156261D01*
Y151134D01*
X146232D01*
Y156261D01*
X146681Y156482D01*
X147235Y156057D01*
X147957Y155757D01*
X148732Y155656D01*
X149507Y155757D01*
X150229Y156057D01*
X150849Y156532D01*
X151325Y157152D01*
X151624Y157875D01*
X151726Y158650D01*
Y160618D01*
X151624Y161393D01*
X151325Y162115D01*
X150849Y162735D01*
X150229Y163211D01*
X149507Y163510D01*
X148732Y163612D01*
X147957Y163510D01*
X147235Y163211D01*
X146681Y162786D01*
X146232Y163007D01*
Y168634D01*
X174232D01*
Y163007D01*
D02*
G37*
G36*
X209665D02*
X209217Y162786D01*
X208662Y163211D01*
X207940Y163510D01*
X207165Y163612D01*
X206390Y163510D01*
X205668Y163211D01*
X205048Y162735D01*
X204572Y162115D01*
X204273Y161393D01*
X204171Y160618D01*
Y158650D01*
X204273Y157875D01*
X204572Y157152D01*
X205048Y156532D01*
X205668Y156057D01*
X206390Y155757D01*
X207165Y155656D01*
X207940Y155757D01*
X208662Y156057D01*
X209217Y156482D01*
X209665Y156261D01*
Y151134D01*
X181665D01*
Y156261D01*
X182114Y156482D01*
X182668Y156057D01*
X183390Y155757D01*
X184165Y155656D01*
X184940Y155757D01*
X185662Y156057D01*
X186283Y156532D01*
X186758Y157152D01*
X187057Y157875D01*
X187160Y158650D01*
Y160618D01*
X187057Y161393D01*
X186758Y162115D01*
X186283Y162735D01*
X185662Y163211D01*
X184940Y163510D01*
X184165Y163612D01*
X183390Y163510D01*
X182668Y163211D01*
X182114Y162786D01*
X181665Y163007D01*
Y168634D01*
X209665D01*
Y163007D01*
D02*
G37*
G36*
X245098D02*
X244650Y162786D01*
X244095Y163211D01*
X243373Y163510D01*
X242598Y163612D01*
X241824Y163510D01*
X241101Y163211D01*
X240481Y162735D01*
X240005Y162115D01*
X239706Y161393D01*
X239604Y160618D01*
Y158650D01*
X239706Y157875D01*
X240005Y157152D01*
X240481Y156532D01*
X241101Y156057D01*
X241824Y155757D01*
X242598Y155656D01*
X243373Y155757D01*
X244095Y156057D01*
X244650Y156482D01*
X245098Y156261D01*
Y151134D01*
X217098D01*
Y156261D01*
X217547Y156482D01*
X218101Y156057D01*
X218824Y155757D01*
X219598Y155656D01*
X220373Y155757D01*
X221095Y156057D01*
X221716Y156532D01*
X222191Y157152D01*
X222491Y157875D01*
X222592Y158650D01*
Y160618D01*
X222491Y161393D01*
X222191Y162115D01*
X221716Y162735D01*
X221095Y163211D01*
X220373Y163510D01*
X219598Y163612D01*
X218824Y163510D01*
X218101Y163211D01*
X217547Y162786D01*
X217098Y163007D01*
Y168634D01*
X245098D01*
Y163007D01*
D02*
G37*
G36*
X280532D02*
X280083Y162786D01*
X279528Y163211D01*
X278806Y163510D01*
X278031Y163612D01*
X277257Y163510D01*
X276534Y163211D01*
X275914Y162735D01*
X275438Y162115D01*
X275139Y161393D01*
X275037Y160618D01*
Y158650D01*
X275139Y157875D01*
X275438Y157152D01*
X275914Y156532D01*
X276534Y156057D01*
X277257Y155757D01*
X278031Y155656D01*
X278806Y155757D01*
X279528Y156057D01*
X280083Y156482D01*
X280532Y156261D01*
Y151134D01*
X252532D01*
Y156261D01*
X252980Y156482D01*
X253534Y156057D01*
X254257Y155757D01*
X255031Y155656D01*
X255806Y155757D01*
X256528Y156057D01*
X257149Y156532D01*
X257625Y157152D01*
X257924Y157875D01*
X258026Y158650D01*
Y160618D01*
X257924Y161393D01*
X257625Y162115D01*
X257149Y162735D01*
X256528Y163211D01*
X255806Y163510D01*
X255031Y163612D01*
X254257Y163510D01*
X253534Y163211D01*
X252980Y162786D01*
X252532Y163007D01*
Y168634D01*
X280532D01*
Y163007D01*
D02*
G37*
G36*
X315965D02*
X315516Y162786D01*
X314962Y163211D01*
X314240Y163510D01*
X313465Y163612D01*
X312690Y163510D01*
X311967Y163211D01*
X311347Y162735D01*
X310872Y162115D01*
X310573Y161393D01*
X310470Y160618D01*
Y158650D01*
X310573Y157875D01*
X310872Y157152D01*
X311347Y156532D01*
X311967Y156057D01*
X312690Y155757D01*
X313465Y155656D01*
X314240Y155757D01*
X314962Y156057D01*
X315516Y156482D01*
X315965Y156261D01*
Y151134D01*
X287965D01*
Y156261D01*
X288413Y156482D01*
X288967Y156057D01*
X289690Y155757D01*
X290465Y155656D01*
X291240Y155757D01*
X291962Y156057D01*
X292582Y156532D01*
X293057Y157152D01*
X293357Y157875D01*
X293459Y158650D01*
Y160618D01*
X293357Y161393D01*
X293057Y162115D01*
X292582Y162735D01*
X291962Y163211D01*
X291240Y163510D01*
X290465Y163612D01*
X289690Y163510D01*
X288967Y163211D01*
X288413Y162786D01*
X287965Y163007D01*
Y168634D01*
X315965D01*
Y163007D01*
D02*
G37*
G36*
X351398D02*
X350949Y162786D01*
X350395Y163211D01*
X349673Y163510D01*
X348898Y163612D01*
X348123Y163510D01*
X347401Y163211D01*
X346780Y162735D01*
X346305Y162115D01*
X346006Y161393D01*
X345903Y160618D01*
Y158650D01*
X346006Y157875D01*
X346305Y157152D01*
X346780Y156532D01*
X347401Y156057D01*
X348123Y155757D01*
X348898Y155656D01*
X349673Y155757D01*
X350395Y156057D01*
X350949Y156482D01*
X351398Y156261D01*
Y151134D01*
X323398D01*
Y156261D01*
X323846Y156482D01*
X324401Y156057D01*
X325123Y155757D01*
X325898Y155656D01*
X326673Y155757D01*
X327395Y156057D01*
X328015Y156532D01*
X328491Y157152D01*
X328790Y157875D01*
X328892Y158650D01*
Y160618D01*
X328790Y161393D01*
X328491Y162115D01*
X328015Y162735D01*
X327395Y163211D01*
X326673Y163510D01*
X325898Y163612D01*
X325123Y163510D01*
X324401Y163211D01*
X323846Y162786D01*
X323398Y163007D01*
Y168634D01*
X351398D01*
Y163007D01*
D02*
G37*
G36*
X32500Y187416D02*
X32052Y187195D01*
X31497Y187620D01*
X30775Y187920D01*
X30000Y188022D01*
X29225Y187920D01*
X28503Y187620D01*
X27883Y187145D01*
X27407Y186525D01*
X27108Y185802D01*
X27006Y185028D01*
Y183059D01*
X27108Y182284D01*
X27407Y181562D01*
X27883Y180942D01*
X28503Y180466D01*
X29225Y180167D01*
X30000Y180065D01*
X30775Y180167D01*
X31497Y180466D01*
X32052Y180892D01*
X32500Y180670D01*
Y175543D01*
X4500D01*
Y180670D01*
X4948Y180892D01*
X5503Y180466D01*
X6225Y180167D01*
X7000Y180065D01*
X7775Y180167D01*
X8497Y180466D01*
X9117Y180942D01*
X9593Y181562D01*
X9892Y182284D01*
X9994Y183059D01*
Y185028D01*
X9892Y185802D01*
X9593Y186525D01*
X9117Y187145D01*
X8497Y187620D01*
X7775Y187920D01*
X7000Y188022D01*
X6225Y187920D01*
X5503Y187620D01*
X4948Y187195D01*
X4500Y187416D01*
Y193043D01*
X32500D01*
Y187416D01*
D02*
G37*
G36*
X67933D02*
X67485Y187195D01*
X66930Y187620D01*
X66208Y187920D01*
X65433Y188022D01*
X64658Y187920D01*
X63936Y187620D01*
X63316Y187145D01*
X62840Y186525D01*
X62541Y185802D01*
X62439Y185028D01*
Y183059D01*
X62541Y182284D01*
X62840Y181562D01*
X63316Y180942D01*
X63936Y180466D01*
X64658Y180167D01*
X65433Y180065D01*
X66208Y180167D01*
X66930Y180466D01*
X67485Y180892D01*
X67933Y180670D01*
Y175543D01*
X39933D01*
Y180670D01*
X40382Y180892D01*
X40936Y180466D01*
X41658Y180167D01*
X42433Y180065D01*
X43208Y180167D01*
X43930Y180466D01*
X44550Y180942D01*
X45026Y181562D01*
X45325Y182284D01*
X45427Y183059D01*
Y185028D01*
X45325Y185802D01*
X45026Y186525D01*
X44550Y187145D01*
X43930Y187620D01*
X43208Y187920D01*
X42433Y188022D01*
X41658Y187920D01*
X40936Y187620D01*
X40382Y187195D01*
X39933Y187416D01*
Y193043D01*
X67933D01*
Y187416D01*
D02*
G37*
G36*
X103366D02*
X102918Y187195D01*
X102363Y187620D01*
X101641Y187920D01*
X100866Y188022D01*
X100091Y187920D01*
X99369Y187620D01*
X98749Y187145D01*
X98273Y186525D01*
X97974Y185802D01*
X97872Y185028D01*
Y183059D01*
X97974Y182284D01*
X98273Y181562D01*
X98749Y180942D01*
X99369Y180466D01*
X100091Y180167D01*
X100866Y180065D01*
X101641Y180167D01*
X102363Y180466D01*
X102918Y180892D01*
X103366Y180670D01*
Y175543D01*
X75366D01*
Y180670D01*
X75815Y180892D01*
X76369Y180466D01*
X77091Y180167D01*
X77866Y180065D01*
X78641Y180167D01*
X79363Y180466D01*
X79983Y180942D01*
X80459Y181562D01*
X80758Y182284D01*
X80860Y183059D01*
Y185028D01*
X80758Y185802D01*
X80459Y186525D01*
X79983Y187145D01*
X79363Y187620D01*
X78641Y187920D01*
X77866Y188022D01*
X77091Y187920D01*
X76369Y187620D01*
X75815Y187195D01*
X75366Y187416D01*
Y193043D01*
X103366D01*
Y187416D01*
D02*
G37*
G36*
X138799D02*
X138351Y187195D01*
X137796Y187620D01*
X137074Y187920D01*
X136299Y188022D01*
X135524Y187920D01*
X134802Y187620D01*
X134182Y187145D01*
X133706Y186525D01*
X133407Y185802D01*
X133305Y185028D01*
Y183059D01*
X133407Y182284D01*
X133706Y181562D01*
X134182Y180942D01*
X134802Y180466D01*
X135524Y180167D01*
X136299Y180065D01*
X137074Y180167D01*
X137796Y180466D01*
X138351Y180892D01*
X138799Y180670D01*
Y175543D01*
X110799D01*
Y180670D01*
X111248Y180892D01*
X111802Y180466D01*
X112524Y180167D01*
X113299Y180065D01*
X114074Y180167D01*
X114796Y180466D01*
X115416Y180942D01*
X115892Y181562D01*
X116191Y182284D01*
X116293Y183059D01*
Y185028D01*
X116191Y185802D01*
X115892Y186525D01*
X115416Y187145D01*
X114796Y187620D01*
X114074Y187920D01*
X113299Y188022D01*
X112524Y187920D01*
X111802Y187620D01*
X111248Y187195D01*
X110799Y187416D01*
Y193043D01*
X138799D01*
Y187416D01*
D02*
G37*
G36*
X174232D02*
X173784Y187195D01*
X173229Y187620D01*
X172507Y187920D01*
X171732Y188022D01*
X170957Y187920D01*
X170235Y187620D01*
X169615Y187145D01*
X169139Y186525D01*
X168840Y185802D01*
X168738Y185028D01*
Y183059D01*
X168840Y182284D01*
X169139Y181562D01*
X169615Y180942D01*
X170235Y180466D01*
X170957Y180167D01*
X171732Y180065D01*
X172507Y180167D01*
X173229Y180466D01*
X173784Y180892D01*
X174232Y180670D01*
Y175543D01*
X146232D01*
Y180670D01*
X146681Y180892D01*
X147235Y180466D01*
X147957Y180167D01*
X148732Y180065D01*
X149507Y180167D01*
X150229Y180466D01*
X150849Y180942D01*
X151325Y181562D01*
X151624Y182284D01*
X151726Y183059D01*
Y185028D01*
X151624Y185802D01*
X151325Y186525D01*
X150849Y187145D01*
X150229Y187620D01*
X149507Y187920D01*
X148732Y188022D01*
X147957Y187920D01*
X147235Y187620D01*
X146681Y187195D01*
X146232Y187416D01*
Y193043D01*
X174232D01*
Y187416D01*
D02*
G37*
G36*
X209665D02*
X209217Y187195D01*
X208662Y187620D01*
X207940Y187920D01*
X207165Y188022D01*
X206390Y187920D01*
X205668Y187620D01*
X205048Y187145D01*
X204572Y186525D01*
X204273Y185802D01*
X204171Y185028D01*
Y183059D01*
X204273Y182284D01*
X204572Y181562D01*
X205048Y180942D01*
X205668Y180466D01*
X206390Y180167D01*
X207165Y180065D01*
X207940Y180167D01*
X208662Y180466D01*
X209217Y180892D01*
X209665Y180670D01*
Y175543D01*
X181665D01*
Y180670D01*
X182114Y180892D01*
X182668Y180466D01*
X183390Y180167D01*
X184165Y180065D01*
X184940Y180167D01*
X185662Y180466D01*
X186283Y180942D01*
X186758Y181562D01*
X187057Y182284D01*
X187160Y183059D01*
Y185028D01*
X187057Y185802D01*
X186758Y186525D01*
X186283Y187145D01*
X185662Y187620D01*
X184940Y187920D01*
X184165Y188022D01*
X183390Y187920D01*
X182668Y187620D01*
X182114Y187195D01*
X181665Y187416D01*
Y193043D01*
X209665D01*
Y187416D01*
D02*
G37*
G36*
X245098D02*
X244650Y187195D01*
X244095Y187620D01*
X243373Y187920D01*
X242598Y188022D01*
X241824Y187920D01*
X241101Y187620D01*
X240481Y187145D01*
X240005Y186525D01*
X239706Y185802D01*
X239604Y185028D01*
Y183059D01*
X239706Y182284D01*
X240005Y181562D01*
X240481Y180942D01*
X241101Y180466D01*
X241824Y180167D01*
X242598Y180065D01*
X243373Y180167D01*
X244095Y180466D01*
X244650Y180892D01*
X245098Y180670D01*
Y175543D01*
X217098D01*
Y180670D01*
X217547Y180892D01*
X218101Y180466D01*
X218824Y180167D01*
X219598Y180065D01*
X220373Y180167D01*
X221095Y180466D01*
X221716Y180942D01*
X222191Y181562D01*
X222491Y182284D01*
X222592Y183059D01*
Y185028D01*
X222491Y185802D01*
X222191Y186525D01*
X221716Y187145D01*
X221095Y187620D01*
X220373Y187920D01*
X219598Y188022D01*
X218824Y187920D01*
X218101Y187620D01*
X217547Y187195D01*
X217098Y187416D01*
Y193043D01*
X245098D01*
Y187416D01*
D02*
G37*
G36*
X280532D02*
X280083Y187195D01*
X279528Y187620D01*
X278806Y187920D01*
X278031Y188022D01*
X277257Y187920D01*
X276534Y187620D01*
X275914Y187145D01*
X275438Y186525D01*
X275139Y185802D01*
X275037Y185028D01*
Y183059D01*
X275139Y182284D01*
X275438Y181562D01*
X275914Y180942D01*
X276534Y180466D01*
X277257Y180167D01*
X278031Y180065D01*
X278806Y180167D01*
X279528Y180466D01*
X280083Y180892D01*
X280532Y180670D01*
Y175543D01*
X252532D01*
Y180670D01*
X252980Y180892D01*
X253534Y180466D01*
X254257Y180167D01*
X255031Y180065D01*
X255806Y180167D01*
X256528Y180466D01*
X257149Y180942D01*
X257625Y181562D01*
X257924Y182284D01*
X258026Y183059D01*
Y185028D01*
X257924Y185802D01*
X257625Y186525D01*
X257149Y187145D01*
X256528Y187620D01*
X255806Y187920D01*
X255031Y188022D01*
X254257Y187920D01*
X253534Y187620D01*
X252980Y187195D01*
X252532Y187416D01*
Y193043D01*
X280532D01*
Y187416D01*
D02*
G37*
G36*
X315965D02*
X315516Y187195D01*
X314962Y187620D01*
X314240Y187920D01*
X313465Y188022D01*
X312690Y187920D01*
X311967Y187620D01*
X311347Y187145D01*
X310872Y186525D01*
X310573Y185802D01*
X310470Y185028D01*
Y183059D01*
X310573Y182284D01*
X310872Y181562D01*
X311347Y180942D01*
X311967Y180466D01*
X312690Y180167D01*
X313465Y180065D01*
X314240Y180167D01*
X314962Y180466D01*
X315516Y180892D01*
X315965Y180670D01*
Y175543D01*
X287965D01*
Y180670D01*
X288413Y180892D01*
X288967Y180466D01*
X289690Y180167D01*
X290465Y180065D01*
X291240Y180167D01*
X291962Y180466D01*
X292582Y180942D01*
X293057Y181562D01*
X293357Y182284D01*
X293459Y183059D01*
Y185028D01*
X293357Y185802D01*
X293057Y186525D01*
X292582Y187145D01*
X291962Y187620D01*
X291240Y187920D01*
X290465Y188022D01*
X289690Y187920D01*
X288967Y187620D01*
X288413Y187195D01*
X287965Y187416D01*
Y193043D01*
X315965D01*
Y187416D01*
D02*
G37*
G36*
X351398D02*
X350949Y187195D01*
X350395Y187620D01*
X349673Y187920D01*
X348898Y188022D01*
X348123Y187920D01*
X347401Y187620D01*
X346780Y187145D01*
X346305Y186525D01*
X346006Y185802D01*
X345903Y185028D01*
Y183059D01*
X346006Y182284D01*
X346305Y181562D01*
X346780Y180942D01*
X347401Y180466D01*
X348123Y180167D01*
X348898Y180065D01*
X349673Y180167D01*
X350395Y180466D01*
X350949Y180892D01*
X351398Y180670D01*
Y175543D01*
X323398D01*
Y180670D01*
X323846Y180892D01*
X324401Y180466D01*
X325123Y180167D01*
X325898Y180065D01*
X326673Y180167D01*
X327395Y180466D01*
X328015Y180942D01*
X328491Y181562D01*
X328790Y182284D01*
X328892Y183059D01*
Y185028D01*
X328790Y185802D01*
X328491Y186525D01*
X328015Y187145D01*
X327395Y187620D01*
X326673Y187920D01*
X325898Y188022D01*
X325123Y187920D01*
X324401Y187620D01*
X323846Y187195D01*
X323398Y187416D01*
Y193043D01*
X351398D01*
Y187416D01*
D02*
G37*
G36*
X32500Y211826D02*
X32052Y211604D01*
X31497Y212030D01*
X30775Y212329D01*
X30000Y212431D01*
X29225Y212329D01*
X28503Y212030D01*
X27883Y211554D01*
X27407Y210934D01*
X27108Y210212D01*
X27006Y209437D01*
Y207469D01*
X27108Y206694D01*
X27407Y205971D01*
X27883Y205351D01*
X28503Y204875D01*
X29225Y204576D01*
X30000Y204474D01*
X30775Y204576D01*
X31497Y204875D01*
X32052Y205301D01*
X32500Y205080D01*
Y199953D01*
X4500D01*
Y205080D01*
X4948Y205301D01*
X5503Y204875D01*
X6225Y204576D01*
X7000Y204474D01*
X7775Y204576D01*
X8497Y204875D01*
X9117Y205351D01*
X9593Y205971D01*
X9892Y206694D01*
X9994Y207469D01*
Y209437D01*
X9892Y210212D01*
X9593Y210934D01*
X9117Y211554D01*
X8497Y212030D01*
X7775Y212329D01*
X7000Y212431D01*
X6225Y212329D01*
X5503Y212030D01*
X4948Y211604D01*
X4500Y211826D01*
Y217453D01*
X32500D01*
Y211826D01*
D02*
G37*
G36*
X67933D02*
X67485Y211604D01*
X66930Y212030D01*
X66208Y212329D01*
X65433Y212431D01*
X64658Y212329D01*
X63936Y212030D01*
X63316Y211554D01*
X62840Y210934D01*
X62541Y210212D01*
X62439Y209437D01*
Y207469D01*
X62541Y206694D01*
X62840Y205971D01*
X63316Y205351D01*
X63936Y204875D01*
X64658Y204576D01*
X65433Y204474D01*
X66208Y204576D01*
X66930Y204875D01*
X67485Y205301D01*
X67933Y205080D01*
Y199953D01*
X39933D01*
Y205080D01*
X40382Y205301D01*
X40936Y204875D01*
X41658Y204576D01*
X42433Y204474D01*
X43208Y204576D01*
X43930Y204875D01*
X44550Y205351D01*
X45026Y205971D01*
X45325Y206694D01*
X45427Y207469D01*
Y209437D01*
X45325Y210212D01*
X45026Y210934D01*
X44550Y211554D01*
X43930Y212030D01*
X43208Y212329D01*
X42433Y212431D01*
X41658Y212329D01*
X40936Y212030D01*
X40382Y211604D01*
X39933Y211826D01*
Y217453D01*
X67933D01*
Y211826D01*
D02*
G37*
G36*
X103366D02*
X102918Y211604D01*
X102363Y212030D01*
X101641Y212329D01*
X100866Y212431D01*
X100091Y212329D01*
X99369Y212030D01*
X98749Y211554D01*
X98273Y210934D01*
X97974Y210212D01*
X97872Y209437D01*
Y207469D01*
X97974Y206694D01*
X98273Y205971D01*
X98749Y205351D01*
X99369Y204875D01*
X100091Y204576D01*
X100866Y204474D01*
X101641Y204576D01*
X102363Y204875D01*
X102918Y205301D01*
X103366Y205080D01*
Y199953D01*
X75366D01*
Y205080D01*
X75815Y205301D01*
X76369Y204875D01*
X77091Y204576D01*
X77866Y204474D01*
X78641Y204576D01*
X79363Y204875D01*
X79983Y205351D01*
X80459Y205971D01*
X80758Y206694D01*
X80860Y207469D01*
Y209437D01*
X80758Y210212D01*
X80459Y210934D01*
X79983Y211554D01*
X79363Y212030D01*
X78641Y212329D01*
X77866Y212431D01*
X77091Y212329D01*
X76369Y212030D01*
X75815Y211604D01*
X75366Y211826D01*
Y217453D01*
X103366D01*
Y211826D01*
D02*
G37*
G36*
X138799D02*
X138351Y211604D01*
X137796Y212030D01*
X137074Y212329D01*
X136299Y212431D01*
X135524Y212329D01*
X134802Y212030D01*
X134182Y211554D01*
X133706Y210934D01*
X133407Y210212D01*
X133305Y209437D01*
Y207469D01*
X133407Y206694D01*
X133706Y205971D01*
X134182Y205351D01*
X134802Y204875D01*
X135524Y204576D01*
X136299Y204474D01*
X137074Y204576D01*
X137796Y204875D01*
X138351Y205301D01*
X138799Y205080D01*
Y199953D01*
X110799D01*
Y205080D01*
X111248Y205301D01*
X111802Y204875D01*
X112524Y204576D01*
X113299Y204474D01*
X114074Y204576D01*
X114796Y204875D01*
X115416Y205351D01*
X115892Y205971D01*
X116191Y206694D01*
X116293Y207469D01*
Y209437D01*
X116191Y210212D01*
X115892Y210934D01*
X115416Y211554D01*
X114796Y212030D01*
X114074Y212329D01*
X113299Y212431D01*
X112524Y212329D01*
X111802Y212030D01*
X111248Y211604D01*
X110799Y211826D01*
Y217453D01*
X138799D01*
Y211826D01*
D02*
G37*
G36*
X174232D02*
X173784Y211604D01*
X173229Y212030D01*
X172507Y212329D01*
X171732Y212431D01*
X170957Y212329D01*
X170235Y212030D01*
X169615Y211554D01*
X169139Y210934D01*
X168840Y210212D01*
X168738Y209437D01*
Y207469D01*
X168840Y206694D01*
X169139Y205971D01*
X169615Y205351D01*
X170235Y204875D01*
X170957Y204576D01*
X171732Y204474D01*
X172507Y204576D01*
X173229Y204875D01*
X173784Y205301D01*
X174232Y205080D01*
Y199953D01*
X146232D01*
Y205080D01*
X146681Y205301D01*
X147235Y204875D01*
X147957Y204576D01*
X148732Y204474D01*
X149507Y204576D01*
X150229Y204875D01*
X150849Y205351D01*
X151325Y205971D01*
X151624Y206694D01*
X151726Y207469D01*
Y209437D01*
X151624Y210212D01*
X151325Y210934D01*
X150849Y211554D01*
X150229Y212030D01*
X149507Y212329D01*
X148732Y212431D01*
X147957Y212329D01*
X147235Y212030D01*
X146681Y211604D01*
X146232Y211826D01*
Y217453D01*
X174232D01*
Y211826D01*
D02*
G37*
G36*
X209665D02*
X209217Y211604D01*
X208662Y212030D01*
X207940Y212329D01*
X207165Y212431D01*
X206390Y212329D01*
X205668Y212030D01*
X205048Y211554D01*
X204572Y210934D01*
X204273Y210212D01*
X204171Y209437D01*
Y207469D01*
X204273Y206694D01*
X204572Y205971D01*
X205048Y205351D01*
X205668Y204875D01*
X206390Y204576D01*
X207165Y204474D01*
X207940Y204576D01*
X208662Y204875D01*
X209217Y205301D01*
X209665Y205080D01*
Y199953D01*
X181665D01*
Y205080D01*
X182114Y205301D01*
X182668Y204875D01*
X183390Y204576D01*
X184165Y204474D01*
X184940Y204576D01*
X185662Y204875D01*
X186283Y205351D01*
X186758Y205971D01*
X187057Y206694D01*
X187160Y207469D01*
Y209437D01*
X187057Y210212D01*
X186758Y210934D01*
X186283Y211554D01*
X185662Y212030D01*
X184940Y212329D01*
X184165Y212431D01*
X183390Y212329D01*
X182668Y212030D01*
X182114Y211604D01*
X181665Y211826D01*
Y217453D01*
X209665D01*
Y211826D01*
D02*
G37*
G36*
X245098D02*
X244650Y211604D01*
X244095Y212030D01*
X243373Y212329D01*
X242598Y212431D01*
X241824Y212329D01*
X241101Y212030D01*
X240481Y211554D01*
X240005Y210934D01*
X239706Y210212D01*
X239604Y209437D01*
Y207469D01*
X239706Y206694D01*
X240005Y205971D01*
X240481Y205351D01*
X241101Y204875D01*
X241824Y204576D01*
X242598Y204474D01*
X243373Y204576D01*
X244095Y204875D01*
X244650Y205301D01*
X245098Y205080D01*
Y199953D01*
X217098D01*
Y205080D01*
X217547Y205301D01*
X218101Y204875D01*
X218824Y204576D01*
X219598Y204474D01*
X220373Y204576D01*
X221095Y204875D01*
X221716Y205351D01*
X222191Y205971D01*
X222491Y206694D01*
X222592Y207469D01*
Y209437D01*
X222491Y210212D01*
X222191Y210934D01*
X221716Y211554D01*
X221095Y212030D01*
X220373Y212329D01*
X219598Y212431D01*
X218824Y212329D01*
X218101Y212030D01*
X217547Y211604D01*
X217098Y211826D01*
Y217453D01*
X245098D01*
Y211826D01*
D02*
G37*
G36*
X280532D02*
X280083Y211604D01*
X279528Y212030D01*
X278806Y212329D01*
X278031Y212431D01*
X277257Y212329D01*
X276534Y212030D01*
X275914Y211554D01*
X275438Y210934D01*
X275139Y210212D01*
X275037Y209437D01*
Y207469D01*
X275139Y206694D01*
X275438Y205971D01*
X275914Y205351D01*
X276534Y204875D01*
X277257Y204576D01*
X278031Y204474D01*
X278806Y204576D01*
X279528Y204875D01*
X280083Y205301D01*
X280532Y205080D01*
Y199953D01*
X252532D01*
Y205080D01*
X252980Y205301D01*
X253534Y204875D01*
X254257Y204576D01*
X255031Y204474D01*
X255806Y204576D01*
X256528Y204875D01*
X257149Y205351D01*
X257625Y205971D01*
X257924Y206694D01*
X258026Y207469D01*
Y209437D01*
X257924Y210212D01*
X257625Y210934D01*
X257149Y211554D01*
X256528Y212030D01*
X255806Y212329D01*
X255031Y212431D01*
X254257Y212329D01*
X253534Y212030D01*
X252980Y211604D01*
X252532Y211826D01*
Y217453D01*
X280532D01*
Y211826D01*
D02*
G37*
G36*
X315965D02*
X315516Y211604D01*
X314962Y212030D01*
X314240Y212329D01*
X313465Y212431D01*
X312690Y212329D01*
X311967Y212030D01*
X311347Y211554D01*
X310872Y210934D01*
X310573Y210212D01*
X310470Y209437D01*
Y207469D01*
X310573Y206694D01*
X310872Y205971D01*
X311347Y205351D01*
X311967Y204875D01*
X312690Y204576D01*
X313465Y204474D01*
X314240Y204576D01*
X314962Y204875D01*
X315516Y205301D01*
X315965Y205080D01*
Y199953D01*
X287965D01*
Y205080D01*
X288413Y205301D01*
X288967Y204875D01*
X289690Y204576D01*
X290465Y204474D01*
X291240Y204576D01*
X291962Y204875D01*
X292582Y205351D01*
X293057Y205971D01*
X293357Y206694D01*
X293459Y207469D01*
Y209437D01*
X293357Y210212D01*
X293057Y210934D01*
X292582Y211554D01*
X291962Y212030D01*
X291240Y212329D01*
X290465Y212431D01*
X289690Y212329D01*
X288967Y212030D01*
X288413Y211604D01*
X287965Y211826D01*
Y217453D01*
X315965D01*
Y211826D01*
D02*
G37*
G36*
X351398D02*
X350949Y211604D01*
X350395Y212030D01*
X349673Y212329D01*
X348898Y212431D01*
X348123Y212329D01*
X347401Y212030D01*
X346780Y211554D01*
X346305Y210934D01*
X346006Y210212D01*
X345903Y209437D01*
Y207469D01*
X346006Y206694D01*
X346305Y205971D01*
X346780Y205351D01*
X347401Y204875D01*
X348123Y204576D01*
X348898Y204474D01*
X349673Y204576D01*
X350395Y204875D01*
X350949Y205301D01*
X351398Y205080D01*
Y199953D01*
X323398D01*
Y205080D01*
X323846Y205301D01*
X324401Y204875D01*
X325123Y204576D01*
X325898Y204474D01*
X326673Y204576D01*
X327395Y204875D01*
X328015Y205351D01*
X328491Y205971D01*
X328790Y206694D01*
X328892Y207469D01*
Y209437D01*
X328790Y210212D01*
X328491Y210934D01*
X328015Y211554D01*
X327395Y212030D01*
X326673Y212329D01*
X325898Y212431D01*
X325123Y212329D01*
X324401Y212030D01*
X323846Y211604D01*
X323398Y211826D01*
Y217453D01*
X351398D01*
Y211826D01*
D02*
G37*
G36*
X32500Y236235D02*
X32052Y236014D01*
X31497Y236439D01*
X30775Y236738D01*
X30000Y236841D01*
X29225Y236738D01*
X28503Y236439D01*
X27883Y235964D01*
X27407Y235344D01*
X27108Y234621D01*
X27006Y233846D01*
Y231878D01*
X27108Y231103D01*
X27407Y230381D01*
X27883Y229761D01*
X28503Y229285D01*
X29225Y228986D01*
X30000Y228884D01*
X30775Y228986D01*
X31497Y229285D01*
X32052Y229710D01*
X32500Y229489D01*
Y224362D01*
X4500D01*
Y229489D01*
X4948Y229710D01*
X5503Y229285D01*
X6225Y228986D01*
X7000Y228884D01*
X7775Y228986D01*
X8497Y229285D01*
X9117Y229761D01*
X9593Y230381D01*
X9892Y231103D01*
X9994Y231878D01*
Y233846D01*
X9892Y234621D01*
X9593Y235344D01*
X9117Y235964D01*
X8497Y236439D01*
X7775Y236738D01*
X7000Y236841D01*
X6225Y236738D01*
X5503Y236439D01*
X4948Y236014D01*
X4500Y236235D01*
Y241862D01*
X32500D01*
Y236235D01*
D02*
G37*
G36*
X67933D02*
X67485Y236014D01*
X66930Y236439D01*
X66208Y236738D01*
X65433Y236841D01*
X64658Y236738D01*
X63936Y236439D01*
X63316Y235964D01*
X62840Y235344D01*
X62541Y234621D01*
X62439Y233846D01*
Y231878D01*
X62541Y231103D01*
X62840Y230381D01*
X63316Y229761D01*
X63936Y229285D01*
X64658Y228986D01*
X65433Y228884D01*
X66208Y228986D01*
X66930Y229285D01*
X67485Y229710D01*
X67933Y229489D01*
Y224362D01*
X39933D01*
Y229489D01*
X40382Y229710D01*
X40936Y229285D01*
X41658Y228986D01*
X42433Y228884D01*
X43208Y228986D01*
X43930Y229285D01*
X44550Y229761D01*
X45026Y230381D01*
X45325Y231103D01*
X45427Y231878D01*
Y233846D01*
X45325Y234621D01*
X45026Y235344D01*
X44550Y235964D01*
X43930Y236439D01*
X43208Y236738D01*
X42433Y236841D01*
X41658Y236738D01*
X40936Y236439D01*
X40382Y236014D01*
X39933Y236235D01*
Y241862D01*
X67933D01*
Y236235D01*
D02*
G37*
G36*
X103366D02*
X102918Y236014D01*
X102363Y236439D01*
X101641Y236738D01*
X100866Y236841D01*
X100091Y236738D01*
X99369Y236439D01*
X98749Y235964D01*
X98273Y235344D01*
X97974Y234621D01*
X97872Y233846D01*
Y231878D01*
X97974Y231103D01*
X98273Y230381D01*
X98749Y229761D01*
X99369Y229285D01*
X100091Y228986D01*
X100866Y228884D01*
X101641Y228986D01*
X102363Y229285D01*
X102918Y229710D01*
X103366Y229489D01*
Y224362D01*
X75366D01*
Y229489D01*
X75815Y229710D01*
X76369Y229285D01*
X77091Y228986D01*
X77866Y228884D01*
X78641Y228986D01*
X79363Y229285D01*
X79983Y229761D01*
X80459Y230381D01*
X80758Y231103D01*
X80860Y231878D01*
Y233846D01*
X80758Y234621D01*
X80459Y235344D01*
X79983Y235964D01*
X79363Y236439D01*
X78641Y236738D01*
X77866Y236841D01*
X77091Y236738D01*
X76369Y236439D01*
X75815Y236014D01*
X75366Y236235D01*
Y241862D01*
X103366D01*
Y236235D01*
D02*
G37*
G36*
X138799D02*
X138351Y236014D01*
X137796Y236439D01*
X137074Y236738D01*
X136299Y236841D01*
X135524Y236738D01*
X134802Y236439D01*
X134182Y235964D01*
X133706Y235344D01*
X133407Y234621D01*
X133305Y233846D01*
Y231878D01*
X133407Y231103D01*
X133706Y230381D01*
X134182Y229761D01*
X134802Y229285D01*
X135524Y228986D01*
X136299Y228884D01*
X137074Y228986D01*
X137796Y229285D01*
X138351Y229710D01*
X138799Y229489D01*
Y224362D01*
X110799D01*
Y229489D01*
X111248Y229710D01*
X111802Y229285D01*
X112524Y228986D01*
X113299Y228884D01*
X114074Y228986D01*
X114796Y229285D01*
X115416Y229761D01*
X115892Y230381D01*
X116191Y231103D01*
X116293Y231878D01*
Y233846D01*
X116191Y234621D01*
X115892Y235344D01*
X115416Y235964D01*
X114796Y236439D01*
X114074Y236738D01*
X113299Y236841D01*
X112524Y236738D01*
X111802Y236439D01*
X111248Y236014D01*
X110799Y236235D01*
Y241862D01*
X138799D01*
Y236235D01*
D02*
G37*
G36*
X174232D02*
X173784Y236014D01*
X173229Y236439D01*
X172507Y236738D01*
X171732Y236841D01*
X170957Y236738D01*
X170235Y236439D01*
X169615Y235964D01*
X169139Y235344D01*
X168840Y234621D01*
X168738Y233846D01*
Y231878D01*
X168840Y231103D01*
X169139Y230381D01*
X169615Y229761D01*
X170235Y229285D01*
X170957Y228986D01*
X171732Y228884D01*
X172507Y228986D01*
X173229Y229285D01*
X173784Y229710D01*
X174232Y229489D01*
Y224362D01*
X146232D01*
Y229489D01*
X146681Y229710D01*
X147235Y229285D01*
X147957Y228986D01*
X148732Y228884D01*
X149507Y228986D01*
X150229Y229285D01*
X150849Y229761D01*
X151325Y230381D01*
X151624Y231103D01*
X151726Y231878D01*
Y233846D01*
X151624Y234621D01*
X151325Y235344D01*
X150849Y235964D01*
X150229Y236439D01*
X149507Y236738D01*
X148732Y236841D01*
X147957Y236738D01*
X147235Y236439D01*
X146681Y236014D01*
X146232Y236235D01*
Y241862D01*
X174232D01*
Y236235D01*
D02*
G37*
G36*
X209665D02*
X209217Y236014D01*
X208662Y236439D01*
X207940Y236738D01*
X207165Y236841D01*
X206390Y236738D01*
X205668Y236439D01*
X205048Y235964D01*
X204572Y235344D01*
X204273Y234621D01*
X204171Y233846D01*
Y231878D01*
X204273Y231103D01*
X204572Y230381D01*
X205048Y229761D01*
X205668Y229285D01*
X206390Y228986D01*
X207165Y228884D01*
X207940Y228986D01*
X208662Y229285D01*
X209217Y229710D01*
X209665Y229489D01*
Y224362D01*
X181665D01*
Y229489D01*
X182114Y229710D01*
X182668Y229285D01*
X183390Y228986D01*
X184165Y228884D01*
X184940Y228986D01*
X185662Y229285D01*
X186283Y229761D01*
X186758Y230381D01*
X187057Y231103D01*
X187160Y231878D01*
Y233846D01*
X187057Y234621D01*
X186758Y235344D01*
X186283Y235964D01*
X185662Y236439D01*
X184940Y236738D01*
X184165Y236841D01*
X183390Y236738D01*
X182668Y236439D01*
X182114Y236014D01*
X181665Y236235D01*
Y241862D01*
X209665D01*
Y236235D01*
D02*
G37*
G36*
X245098D02*
X244650Y236014D01*
X244095Y236439D01*
X243373Y236738D01*
X242598Y236841D01*
X241824Y236738D01*
X241101Y236439D01*
X240481Y235964D01*
X240005Y235344D01*
X239706Y234621D01*
X239604Y233846D01*
Y231878D01*
X239706Y231103D01*
X240005Y230381D01*
X240481Y229761D01*
X241101Y229285D01*
X241824Y228986D01*
X242598Y228884D01*
X243373Y228986D01*
X244095Y229285D01*
X244650Y229710D01*
X245098Y229489D01*
Y224362D01*
X217098D01*
Y229489D01*
X217547Y229710D01*
X218101Y229285D01*
X218824Y228986D01*
X219598Y228884D01*
X220373Y228986D01*
X221095Y229285D01*
X221716Y229761D01*
X222191Y230381D01*
X222491Y231103D01*
X222592Y231878D01*
Y233846D01*
X222491Y234621D01*
X222191Y235344D01*
X221716Y235964D01*
X221095Y236439D01*
X220373Y236738D01*
X219598Y236841D01*
X218824Y236738D01*
X218101Y236439D01*
X217547Y236014D01*
X217098Y236235D01*
Y241862D01*
X245098D01*
Y236235D01*
D02*
G37*
G36*
X280532D02*
X280083Y236014D01*
X279528Y236439D01*
X278806Y236738D01*
X278031Y236841D01*
X277257Y236738D01*
X276534Y236439D01*
X275914Y235964D01*
X275438Y235344D01*
X275139Y234621D01*
X275037Y233846D01*
Y231878D01*
X275139Y231103D01*
X275438Y230381D01*
X275914Y229761D01*
X276534Y229285D01*
X277257Y228986D01*
X278031Y228884D01*
X278806Y228986D01*
X279528Y229285D01*
X280083Y229710D01*
X280532Y229489D01*
Y224362D01*
X252532D01*
Y229489D01*
X252980Y229710D01*
X253534Y229285D01*
X254257Y228986D01*
X255031Y228884D01*
X255806Y228986D01*
X256528Y229285D01*
X257149Y229761D01*
X257625Y230381D01*
X257924Y231103D01*
X258026Y231878D01*
Y233846D01*
X257924Y234621D01*
X257625Y235344D01*
X257149Y235964D01*
X256528Y236439D01*
X255806Y236738D01*
X255031Y236841D01*
X254257Y236738D01*
X253534Y236439D01*
X252980Y236014D01*
X252532Y236235D01*
Y241862D01*
X280532D01*
Y236235D01*
D02*
G37*
G36*
X315965D02*
X315516Y236014D01*
X314962Y236439D01*
X314240Y236738D01*
X313465Y236841D01*
X312690Y236738D01*
X311967Y236439D01*
X311347Y235964D01*
X310872Y235344D01*
X310573Y234621D01*
X310470Y233846D01*
Y231878D01*
X310573Y231103D01*
X310872Y230381D01*
X311347Y229761D01*
X311967Y229285D01*
X312690Y228986D01*
X313465Y228884D01*
X314240Y228986D01*
X314962Y229285D01*
X315516Y229710D01*
X315965Y229489D01*
Y224362D01*
X287965D01*
Y229489D01*
X288413Y229710D01*
X288967Y229285D01*
X289690Y228986D01*
X290465Y228884D01*
X291240Y228986D01*
X291962Y229285D01*
X292582Y229761D01*
X293057Y230381D01*
X293357Y231103D01*
X293459Y231878D01*
Y233846D01*
X293357Y234621D01*
X293057Y235344D01*
X292582Y235964D01*
X291962Y236439D01*
X291240Y236738D01*
X290465Y236841D01*
X289690Y236738D01*
X288967Y236439D01*
X288413Y236014D01*
X287965Y236235D01*
Y241862D01*
X315965D01*
Y236235D01*
D02*
G37*
G36*
X351398D02*
X350949Y236014D01*
X350395Y236439D01*
X349673Y236738D01*
X348898Y236841D01*
X348123Y236738D01*
X347401Y236439D01*
X346780Y235964D01*
X346305Y235344D01*
X346006Y234621D01*
X345903Y233846D01*
Y231878D01*
X346006Y231103D01*
X346305Y230381D01*
X346780Y229761D01*
X347401Y229285D01*
X348123Y228986D01*
X348898Y228884D01*
X349673Y228986D01*
X350395Y229285D01*
X350949Y229710D01*
X351398Y229489D01*
Y224362D01*
X323398D01*
Y229489D01*
X323846Y229710D01*
X324401Y229285D01*
X325123Y228986D01*
X325898Y228884D01*
X326673Y228986D01*
X327395Y229285D01*
X328015Y229761D01*
X328491Y230381D01*
X328790Y231103D01*
X328892Y231878D01*
Y233846D01*
X328790Y234621D01*
X328491Y235344D01*
X328015Y235964D01*
X327395Y236439D01*
X326673Y236738D01*
X325898Y236841D01*
X325123Y236738D01*
X324401Y236439D01*
X323846Y236014D01*
X323398Y236235D01*
Y241862D01*
X351398D01*
Y236235D01*
D02*
G37*
G36*
X32500Y260645D02*
X32052Y260423D01*
X31497Y260849D01*
X30775Y261148D01*
X30000Y261250D01*
X29225Y261148D01*
X28503Y260849D01*
X27883Y260373D01*
X27407Y259753D01*
X27108Y259031D01*
X27006Y258256D01*
Y256287D01*
X27108Y255512D01*
X27407Y254790D01*
X27883Y254170D01*
X28503Y253694D01*
X29225Y253395D01*
X30000Y253293D01*
X30775Y253395D01*
X31497Y253694D01*
X32052Y254120D01*
X32500Y253899D01*
Y248772D01*
X4500D01*
Y253899D01*
X4948Y254120D01*
X5503Y253694D01*
X6225Y253395D01*
X7000Y253293D01*
X7775Y253395D01*
X8497Y253694D01*
X9117Y254170D01*
X9593Y254790D01*
X9892Y255512D01*
X9994Y256287D01*
Y258256D01*
X9892Y259031D01*
X9593Y259753D01*
X9117Y260373D01*
X8497Y260849D01*
X7775Y261148D01*
X7000Y261250D01*
X6225Y261148D01*
X5503Y260849D01*
X4948Y260423D01*
X4500Y260645D01*
Y266272D01*
X32500D01*
Y260645D01*
D02*
G37*
G36*
X67933D02*
X67485Y260423D01*
X66930Y260849D01*
X66208Y261148D01*
X65433Y261250D01*
X64658Y261148D01*
X63936Y260849D01*
X63316Y260373D01*
X62840Y259753D01*
X62541Y259031D01*
X62439Y258256D01*
Y256287D01*
X62541Y255512D01*
X62840Y254790D01*
X63316Y254170D01*
X63936Y253694D01*
X64658Y253395D01*
X65433Y253293D01*
X66208Y253395D01*
X66930Y253694D01*
X67485Y254120D01*
X67933Y253899D01*
Y248772D01*
X39933D01*
Y253899D01*
X40382Y254120D01*
X40936Y253694D01*
X41658Y253395D01*
X42433Y253293D01*
X43208Y253395D01*
X43930Y253694D01*
X44550Y254170D01*
X45026Y254790D01*
X45325Y255512D01*
X45427Y256287D01*
Y258256D01*
X45325Y259031D01*
X45026Y259753D01*
X44550Y260373D01*
X43930Y260849D01*
X43208Y261148D01*
X42433Y261250D01*
X41658Y261148D01*
X40936Y260849D01*
X40382Y260423D01*
X39933Y260645D01*
Y266272D01*
X67933D01*
Y260645D01*
D02*
G37*
G36*
X103366D02*
X102918Y260423D01*
X102363Y260849D01*
X101641Y261148D01*
X100866Y261250D01*
X100091Y261148D01*
X99369Y260849D01*
X98749Y260373D01*
X98273Y259753D01*
X97974Y259031D01*
X97872Y258256D01*
Y256287D01*
X97974Y255512D01*
X98273Y254790D01*
X98749Y254170D01*
X99369Y253694D01*
X100091Y253395D01*
X100866Y253293D01*
X101641Y253395D01*
X102363Y253694D01*
X102918Y254120D01*
X103366Y253899D01*
Y248772D01*
X75366D01*
Y253899D01*
X75815Y254120D01*
X76369Y253694D01*
X77091Y253395D01*
X77866Y253293D01*
X78641Y253395D01*
X79363Y253694D01*
X79983Y254170D01*
X80459Y254790D01*
X80758Y255512D01*
X80860Y256287D01*
Y258256D01*
X80758Y259031D01*
X80459Y259753D01*
X79983Y260373D01*
X79363Y260849D01*
X78641Y261148D01*
X77866Y261250D01*
X77091Y261148D01*
X76369Y260849D01*
X75815Y260423D01*
X75366Y260645D01*
Y266272D01*
X103366D01*
Y260645D01*
D02*
G37*
G36*
X138799D02*
X138351Y260423D01*
X137796Y260849D01*
X137074Y261148D01*
X136299Y261250D01*
X135524Y261148D01*
X134802Y260849D01*
X134182Y260373D01*
X133706Y259753D01*
X133407Y259031D01*
X133305Y258256D01*
Y256287D01*
X133407Y255512D01*
X133706Y254790D01*
X134182Y254170D01*
X134802Y253694D01*
X135524Y253395D01*
X136299Y253293D01*
X137074Y253395D01*
X137796Y253694D01*
X138351Y254120D01*
X138799Y253899D01*
Y248772D01*
X110799D01*
Y253899D01*
X111248Y254120D01*
X111802Y253694D01*
X112524Y253395D01*
X113299Y253293D01*
X114074Y253395D01*
X114796Y253694D01*
X115416Y254170D01*
X115892Y254790D01*
X116191Y255512D01*
X116293Y256287D01*
Y258256D01*
X116191Y259031D01*
X115892Y259753D01*
X115416Y260373D01*
X114796Y260849D01*
X114074Y261148D01*
X113299Y261250D01*
X112524Y261148D01*
X111802Y260849D01*
X111248Y260423D01*
X110799Y260645D01*
Y266272D01*
X138799D01*
Y260645D01*
D02*
G37*
G36*
X174232D02*
X173784Y260423D01*
X173229Y260849D01*
X172507Y261148D01*
X171732Y261250D01*
X170957Y261148D01*
X170235Y260849D01*
X169615Y260373D01*
X169139Y259753D01*
X168840Y259031D01*
X168738Y258256D01*
Y256287D01*
X168840Y255512D01*
X169139Y254790D01*
X169615Y254170D01*
X170235Y253694D01*
X170957Y253395D01*
X171732Y253293D01*
X172507Y253395D01*
X173229Y253694D01*
X173784Y254120D01*
X174232Y253899D01*
Y248772D01*
X146232D01*
Y253899D01*
X146681Y254120D01*
X147235Y253694D01*
X147957Y253395D01*
X148732Y253293D01*
X149507Y253395D01*
X150229Y253694D01*
X150849Y254170D01*
X151325Y254790D01*
X151624Y255512D01*
X151726Y256287D01*
Y258256D01*
X151624Y259031D01*
X151325Y259753D01*
X150849Y260373D01*
X150229Y260849D01*
X149507Y261148D01*
X148732Y261250D01*
X147957Y261148D01*
X147235Y260849D01*
X146681Y260423D01*
X146232Y260645D01*
Y266272D01*
X174232D01*
Y260645D01*
D02*
G37*
G36*
X209665D02*
X209217Y260423D01*
X208662Y260849D01*
X207940Y261148D01*
X207165Y261250D01*
X206390Y261148D01*
X205668Y260849D01*
X205048Y260373D01*
X204572Y259753D01*
X204273Y259031D01*
X204171Y258256D01*
Y256287D01*
X204273Y255512D01*
X204572Y254790D01*
X205048Y254170D01*
X205668Y253694D01*
X206390Y253395D01*
X207165Y253293D01*
X207940Y253395D01*
X208662Y253694D01*
X209217Y254120D01*
X209665Y253899D01*
Y248772D01*
X181665D01*
Y253899D01*
X182114Y254120D01*
X182668Y253694D01*
X183390Y253395D01*
X184165Y253293D01*
X184940Y253395D01*
X185662Y253694D01*
X186283Y254170D01*
X186758Y254790D01*
X187057Y255512D01*
X187160Y256287D01*
Y258256D01*
X187057Y259031D01*
X186758Y259753D01*
X186283Y260373D01*
X185662Y260849D01*
X184940Y261148D01*
X184165Y261250D01*
X183390Y261148D01*
X182668Y260849D01*
X182114Y260423D01*
X181665Y260645D01*
Y266272D01*
X209665D01*
Y260645D01*
D02*
G37*
G36*
X245098D02*
X244650Y260423D01*
X244095Y260849D01*
X243373Y261148D01*
X242598Y261250D01*
X241824Y261148D01*
X241101Y260849D01*
X240481Y260373D01*
X240005Y259753D01*
X239706Y259031D01*
X239604Y258256D01*
Y256287D01*
X239706Y255512D01*
X240005Y254790D01*
X240481Y254170D01*
X241101Y253694D01*
X241824Y253395D01*
X242598Y253293D01*
X243373Y253395D01*
X244095Y253694D01*
X244650Y254120D01*
X245098Y253899D01*
Y248772D01*
X217098D01*
Y253899D01*
X217547Y254120D01*
X218101Y253694D01*
X218824Y253395D01*
X219598Y253293D01*
X220373Y253395D01*
X221095Y253694D01*
X221716Y254170D01*
X222191Y254790D01*
X222491Y255512D01*
X222592Y256287D01*
Y258256D01*
X222491Y259031D01*
X222191Y259753D01*
X221716Y260373D01*
X221095Y260849D01*
X220373Y261148D01*
X219598Y261250D01*
X218824Y261148D01*
X218101Y260849D01*
X217547Y260423D01*
X217098Y260645D01*
Y266272D01*
X245098D01*
Y260645D01*
D02*
G37*
G36*
X280532D02*
X280083Y260423D01*
X279528Y260849D01*
X278806Y261148D01*
X278031Y261250D01*
X277257Y261148D01*
X276534Y260849D01*
X275914Y260373D01*
X275438Y259753D01*
X275139Y259031D01*
X275037Y258256D01*
Y256287D01*
X275139Y255512D01*
X275438Y254790D01*
X275914Y254170D01*
X276534Y253694D01*
X277257Y253395D01*
X278031Y253293D01*
X278806Y253395D01*
X279528Y253694D01*
X280083Y254120D01*
X280532Y253899D01*
Y248772D01*
X252532D01*
Y253899D01*
X252980Y254120D01*
X253534Y253694D01*
X254257Y253395D01*
X255031Y253293D01*
X255806Y253395D01*
X256528Y253694D01*
X257149Y254170D01*
X257625Y254790D01*
X257924Y255512D01*
X258026Y256287D01*
Y258256D01*
X257924Y259031D01*
X257625Y259753D01*
X257149Y260373D01*
X256528Y260849D01*
X255806Y261148D01*
X255031Y261250D01*
X254257Y261148D01*
X253534Y260849D01*
X252980Y260423D01*
X252532Y260645D01*
Y266272D01*
X280532D01*
Y260645D01*
D02*
G37*
G36*
X315965D02*
X315516Y260423D01*
X314962Y260849D01*
X314240Y261148D01*
X313465Y261250D01*
X312690Y261148D01*
X311967Y260849D01*
X311347Y260373D01*
X310872Y259753D01*
X310573Y259031D01*
X310470Y258256D01*
Y256287D01*
X310573Y255512D01*
X310872Y254790D01*
X311347Y254170D01*
X311967Y253694D01*
X312690Y253395D01*
X313465Y253293D01*
X314240Y253395D01*
X314962Y253694D01*
X315516Y254120D01*
X315965Y253899D01*
Y248772D01*
X287965D01*
Y253899D01*
X288413Y254120D01*
X288967Y253694D01*
X289690Y253395D01*
X290465Y253293D01*
X291240Y253395D01*
X291962Y253694D01*
X292582Y254170D01*
X293057Y254790D01*
X293357Y255512D01*
X293459Y256287D01*
Y258256D01*
X293357Y259031D01*
X293057Y259753D01*
X292582Y260373D01*
X291962Y260849D01*
X291240Y261148D01*
X290465Y261250D01*
X289690Y261148D01*
X288967Y260849D01*
X288413Y260423D01*
X287965Y260645D01*
Y266272D01*
X315965D01*
Y260645D01*
D02*
G37*
G36*
X351398D02*
X350949Y260423D01*
X350395Y260849D01*
X349673Y261148D01*
X348898Y261250D01*
X348123Y261148D01*
X347401Y260849D01*
X346780Y260373D01*
X346305Y259753D01*
X346006Y259031D01*
X345903Y258256D01*
Y256287D01*
X346006Y255512D01*
X346305Y254790D01*
X346780Y254170D01*
X347401Y253694D01*
X348123Y253395D01*
X348898Y253293D01*
X349673Y253395D01*
X350395Y253694D01*
X350949Y254120D01*
X351398Y253899D01*
Y248772D01*
X323398D01*
Y253899D01*
X323846Y254120D01*
X324401Y253694D01*
X325123Y253395D01*
X325898Y253293D01*
X326673Y253395D01*
X327395Y253694D01*
X328015Y254170D01*
X328491Y254790D01*
X328790Y255512D01*
X328892Y256287D01*
Y258256D01*
X328790Y259031D01*
X328491Y259753D01*
X328015Y260373D01*
X327395Y260849D01*
X326673Y261148D01*
X325898Y261250D01*
X325123Y261148D01*
X324401Y260849D01*
X323846Y260423D01*
X323398Y260645D01*
Y266272D01*
X351398D01*
Y260645D01*
D02*
G37*
G36*
X32500Y285054D02*
X32052Y284833D01*
X31497Y285258D01*
X30775Y285558D01*
X30000Y285660D01*
X29225Y285558D01*
X28503Y285258D01*
X27883Y284783D01*
X27407Y284162D01*
X27108Y283440D01*
X27006Y282665D01*
Y280697D01*
X27108Y279922D01*
X27407Y279200D01*
X27883Y278580D01*
X28503Y278104D01*
X29225Y277805D01*
X30000Y277703D01*
X30775Y277805D01*
X31497Y278104D01*
X32052Y278529D01*
X32500Y278308D01*
Y273181D01*
X4500D01*
Y278308D01*
X4948Y278529D01*
X5503Y278104D01*
X6225Y277805D01*
X7000Y277703D01*
X7775Y277805D01*
X8497Y278104D01*
X9117Y278580D01*
X9593Y279200D01*
X9892Y279922D01*
X9994Y280697D01*
Y282665D01*
X9892Y283440D01*
X9593Y284162D01*
X9117Y284783D01*
X8497Y285258D01*
X7775Y285558D01*
X7000Y285660D01*
X6225Y285558D01*
X5503Y285258D01*
X4948Y284833D01*
X4500Y285054D01*
Y290681D01*
X32500D01*
Y285054D01*
D02*
G37*
G36*
X67933D02*
X67485Y284833D01*
X66930Y285258D01*
X66208Y285558D01*
X65433Y285660D01*
X64658Y285558D01*
X63936Y285258D01*
X63316Y284783D01*
X62840Y284162D01*
X62541Y283440D01*
X62439Y282665D01*
Y280697D01*
X62541Y279922D01*
X62840Y279200D01*
X63316Y278580D01*
X63936Y278104D01*
X64658Y277805D01*
X65433Y277703D01*
X66208Y277805D01*
X66930Y278104D01*
X67485Y278529D01*
X67933Y278308D01*
Y273181D01*
X39933D01*
Y278308D01*
X40382Y278529D01*
X40936Y278104D01*
X41658Y277805D01*
X42433Y277703D01*
X43208Y277805D01*
X43930Y278104D01*
X44550Y278580D01*
X45026Y279200D01*
X45325Y279922D01*
X45427Y280697D01*
Y282665D01*
X45325Y283440D01*
X45026Y284162D01*
X44550Y284783D01*
X43930Y285258D01*
X43208Y285558D01*
X42433Y285660D01*
X41658Y285558D01*
X40936Y285258D01*
X40382Y284833D01*
X39933Y285054D01*
Y290681D01*
X67933D01*
Y285054D01*
D02*
G37*
G36*
X103366D02*
X102918Y284833D01*
X102363Y285258D01*
X101641Y285558D01*
X100866Y285660D01*
X100091Y285558D01*
X99369Y285258D01*
X98749Y284783D01*
X98273Y284162D01*
X97974Y283440D01*
X97872Y282665D01*
Y280697D01*
X97974Y279922D01*
X98273Y279200D01*
X98749Y278580D01*
X99369Y278104D01*
X100091Y277805D01*
X100866Y277703D01*
X101641Y277805D01*
X102363Y278104D01*
X102918Y278529D01*
X103366Y278308D01*
Y273181D01*
X75366D01*
Y278308D01*
X75815Y278529D01*
X76369Y278104D01*
X77091Y277805D01*
X77866Y277703D01*
X78641Y277805D01*
X79363Y278104D01*
X79983Y278580D01*
X80459Y279200D01*
X80758Y279922D01*
X80860Y280697D01*
Y282665D01*
X80758Y283440D01*
X80459Y284162D01*
X79983Y284783D01*
X79363Y285258D01*
X78641Y285558D01*
X77866Y285660D01*
X77091Y285558D01*
X76369Y285258D01*
X75815Y284833D01*
X75366Y285054D01*
Y290681D01*
X103366D01*
Y285054D01*
D02*
G37*
G36*
X138799D02*
X138351Y284833D01*
X137796Y285258D01*
X137074Y285558D01*
X136299Y285660D01*
X135524Y285558D01*
X134802Y285258D01*
X134182Y284783D01*
X133706Y284162D01*
X133407Y283440D01*
X133305Y282665D01*
Y280697D01*
X133407Y279922D01*
X133706Y279200D01*
X134182Y278580D01*
X134802Y278104D01*
X135524Y277805D01*
X136299Y277703D01*
X137074Y277805D01*
X137796Y278104D01*
X138351Y278529D01*
X138799Y278308D01*
Y273181D01*
X110799D01*
Y278308D01*
X111248Y278529D01*
X111802Y278104D01*
X112524Y277805D01*
X113299Y277703D01*
X114074Y277805D01*
X114796Y278104D01*
X115416Y278580D01*
X115892Y279200D01*
X116191Y279922D01*
X116293Y280697D01*
Y282665D01*
X116191Y283440D01*
X115892Y284162D01*
X115416Y284783D01*
X114796Y285258D01*
X114074Y285558D01*
X113299Y285660D01*
X112524Y285558D01*
X111802Y285258D01*
X111248Y284833D01*
X110799Y285054D01*
Y290681D01*
X138799D01*
Y285054D01*
D02*
G37*
G36*
X174232D02*
X173784Y284833D01*
X173229Y285258D01*
X172507Y285558D01*
X171732Y285660D01*
X170957Y285558D01*
X170235Y285258D01*
X169615Y284783D01*
X169139Y284162D01*
X168840Y283440D01*
X168738Y282665D01*
Y280697D01*
X168840Y279922D01*
X169139Y279200D01*
X169615Y278580D01*
X170235Y278104D01*
X170957Y277805D01*
X171732Y277703D01*
X172507Y277805D01*
X173229Y278104D01*
X173784Y278529D01*
X174232Y278308D01*
Y273181D01*
X146232D01*
Y278308D01*
X146681Y278529D01*
X147235Y278104D01*
X147957Y277805D01*
X148732Y277703D01*
X149507Y277805D01*
X150229Y278104D01*
X150849Y278580D01*
X151325Y279200D01*
X151624Y279922D01*
X151726Y280697D01*
Y282665D01*
X151624Y283440D01*
X151325Y284162D01*
X150849Y284783D01*
X150229Y285258D01*
X149507Y285558D01*
X148732Y285660D01*
X147957Y285558D01*
X147235Y285258D01*
X146681Y284833D01*
X146232Y285054D01*
Y290681D01*
X174232D01*
Y285054D01*
D02*
G37*
G36*
X209665D02*
X209217Y284833D01*
X208662Y285258D01*
X207940Y285558D01*
X207165Y285660D01*
X206390Y285558D01*
X205668Y285258D01*
X205048Y284783D01*
X204572Y284162D01*
X204273Y283440D01*
X204171Y282665D01*
Y280697D01*
X204273Y279922D01*
X204572Y279200D01*
X205048Y278580D01*
X205668Y278104D01*
X206390Y277805D01*
X207165Y277703D01*
X207940Y277805D01*
X208662Y278104D01*
X209217Y278529D01*
X209665Y278308D01*
Y273181D01*
X181665D01*
Y278308D01*
X182114Y278529D01*
X182668Y278104D01*
X183390Y277805D01*
X184165Y277703D01*
X184940Y277805D01*
X185662Y278104D01*
X186283Y278580D01*
X186758Y279200D01*
X187057Y279922D01*
X187160Y280697D01*
Y282665D01*
X187057Y283440D01*
X186758Y284162D01*
X186283Y284783D01*
X185662Y285258D01*
X184940Y285558D01*
X184165Y285660D01*
X183390Y285558D01*
X182668Y285258D01*
X182114Y284833D01*
X181665Y285054D01*
Y290681D01*
X209665D01*
Y285054D01*
D02*
G37*
G36*
X245098D02*
X244650Y284833D01*
X244095Y285258D01*
X243373Y285558D01*
X242598Y285660D01*
X241824Y285558D01*
X241101Y285258D01*
X240481Y284783D01*
X240005Y284162D01*
X239706Y283440D01*
X239604Y282665D01*
Y280697D01*
X239706Y279922D01*
X240005Y279200D01*
X240481Y278580D01*
X241101Y278104D01*
X241824Y277805D01*
X242598Y277703D01*
X243373Y277805D01*
X244095Y278104D01*
X244650Y278529D01*
X245098Y278308D01*
Y273181D01*
X217098D01*
Y278308D01*
X217547Y278529D01*
X218101Y278104D01*
X218824Y277805D01*
X219598Y277703D01*
X220373Y277805D01*
X221095Y278104D01*
X221716Y278580D01*
X222191Y279200D01*
X222491Y279922D01*
X222592Y280697D01*
Y282665D01*
X222491Y283440D01*
X222191Y284162D01*
X221716Y284783D01*
X221095Y285258D01*
X220373Y285558D01*
X219598Y285660D01*
X218824Y285558D01*
X218101Y285258D01*
X217547Y284833D01*
X217098Y285054D01*
Y290681D01*
X245098D01*
Y285054D01*
D02*
G37*
G36*
X280532D02*
X280083Y284833D01*
X279528Y285258D01*
X278806Y285558D01*
X278031Y285660D01*
X277257Y285558D01*
X276534Y285258D01*
X275914Y284783D01*
X275438Y284162D01*
X275139Y283440D01*
X275037Y282665D01*
Y280697D01*
X275139Y279922D01*
X275438Y279200D01*
X275914Y278580D01*
X276534Y278104D01*
X277257Y277805D01*
X278031Y277703D01*
X278806Y277805D01*
X279528Y278104D01*
X280083Y278529D01*
X280532Y278308D01*
Y273181D01*
X252532D01*
Y278308D01*
X252980Y278529D01*
X253534Y278104D01*
X254257Y277805D01*
X255031Y277703D01*
X255806Y277805D01*
X256528Y278104D01*
X257149Y278580D01*
X257625Y279200D01*
X257924Y279922D01*
X258026Y280697D01*
Y282665D01*
X257924Y283440D01*
X257625Y284162D01*
X257149Y284783D01*
X256528Y285258D01*
X255806Y285558D01*
X255031Y285660D01*
X254257Y285558D01*
X253534Y285258D01*
X252980Y284833D01*
X252532Y285054D01*
Y290681D01*
X280532D01*
Y285054D01*
D02*
G37*
G36*
X315965D02*
X315516Y284833D01*
X314962Y285258D01*
X314240Y285558D01*
X313465Y285660D01*
X312690Y285558D01*
X311967Y285258D01*
X311347Y284783D01*
X310872Y284162D01*
X310573Y283440D01*
X310470Y282665D01*
Y280697D01*
X310573Y279922D01*
X310872Y279200D01*
X311347Y278580D01*
X311967Y278104D01*
X312690Y277805D01*
X313465Y277703D01*
X314240Y277805D01*
X314962Y278104D01*
X315516Y278529D01*
X315965Y278308D01*
Y273181D01*
X287965D01*
Y278308D01*
X288413Y278529D01*
X288967Y278104D01*
X289690Y277805D01*
X290465Y277703D01*
X291240Y277805D01*
X291962Y278104D01*
X292582Y278580D01*
X293057Y279200D01*
X293357Y279922D01*
X293459Y280697D01*
Y282665D01*
X293357Y283440D01*
X293057Y284162D01*
X292582Y284783D01*
X291962Y285258D01*
X291240Y285558D01*
X290465Y285660D01*
X289690Y285558D01*
X288967Y285258D01*
X288413Y284833D01*
X287965Y285054D01*
Y290681D01*
X315965D01*
Y285054D01*
D02*
G37*
G36*
X351398D02*
X350949Y284833D01*
X350395Y285258D01*
X349673Y285558D01*
X348898Y285660D01*
X348123Y285558D01*
X347401Y285258D01*
X346780Y284783D01*
X346305Y284162D01*
X346006Y283440D01*
X345903Y282665D01*
Y280697D01*
X346006Y279922D01*
X346305Y279200D01*
X346780Y278580D01*
X347401Y278104D01*
X348123Y277805D01*
X348898Y277703D01*
X349673Y277805D01*
X350395Y278104D01*
X350949Y278529D01*
X351398Y278308D01*
Y273181D01*
X323398D01*
Y278308D01*
X323846Y278529D01*
X324401Y278104D01*
X325123Y277805D01*
X325898Y277703D01*
X326673Y277805D01*
X327395Y278104D01*
X328015Y278580D01*
X328491Y279200D01*
X328790Y279922D01*
X328892Y280697D01*
Y282665D01*
X328790Y283440D01*
X328491Y284162D01*
X328015Y284783D01*
X327395Y285258D01*
X326673Y285558D01*
X325898Y285660D01*
X325123Y285558D01*
X324401Y285258D01*
X323846Y284833D01*
X323398Y285054D01*
Y290681D01*
X351398D01*
Y285054D01*
D02*
G37*
G36*
X32500Y309463D02*
X32052Y309242D01*
X31497Y309668D01*
X30775Y309967D01*
X30000Y310069D01*
X29225Y309967D01*
X28503Y309668D01*
X27883Y309192D01*
X27407Y308572D01*
X27108Y307850D01*
X27006Y307075D01*
Y305106D01*
X27108Y304331D01*
X27407Y303609D01*
X27883Y302989D01*
X28503Y302513D01*
X29225Y302214D01*
X30000Y302112D01*
X30775Y302214D01*
X31497Y302513D01*
X32052Y302939D01*
X32500Y302718D01*
Y297590D01*
X4500D01*
Y302718D01*
X4948Y302939D01*
X5503Y302513D01*
X6225Y302214D01*
X7000Y302112D01*
X7775Y302214D01*
X8497Y302513D01*
X9117Y302989D01*
X9593Y303609D01*
X9892Y304331D01*
X9994Y305106D01*
Y307075D01*
X9892Y307850D01*
X9593Y308572D01*
X9117Y309192D01*
X8497Y309668D01*
X7775Y309967D01*
X7000Y310069D01*
X6225Y309967D01*
X5503Y309668D01*
X4948Y309242D01*
X4500Y309463D01*
Y315090D01*
X32500D01*
Y309463D01*
D02*
G37*
G36*
X67933D02*
X67485Y309242D01*
X66930Y309668D01*
X66208Y309967D01*
X65433Y310069D01*
X64658Y309967D01*
X63936Y309668D01*
X63316Y309192D01*
X62840Y308572D01*
X62541Y307850D01*
X62439Y307075D01*
Y305106D01*
X62541Y304331D01*
X62840Y303609D01*
X63316Y302989D01*
X63936Y302513D01*
X64658Y302214D01*
X65433Y302112D01*
X66208Y302214D01*
X66930Y302513D01*
X67485Y302939D01*
X67933Y302718D01*
Y297590D01*
X39933D01*
Y302718D01*
X40382Y302939D01*
X40936Y302513D01*
X41658Y302214D01*
X42433Y302112D01*
X43208Y302214D01*
X43930Y302513D01*
X44550Y302989D01*
X45026Y303609D01*
X45325Y304331D01*
X45427Y305106D01*
Y307075D01*
X45325Y307850D01*
X45026Y308572D01*
X44550Y309192D01*
X43930Y309668D01*
X43208Y309967D01*
X42433Y310069D01*
X41658Y309967D01*
X40936Y309668D01*
X40382Y309242D01*
X39933Y309463D01*
Y315090D01*
X67933D01*
Y309463D01*
D02*
G37*
G36*
X103366D02*
X102918Y309242D01*
X102363Y309668D01*
X101641Y309967D01*
X100866Y310069D01*
X100091Y309967D01*
X99369Y309668D01*
X98749Y309192D01*
X98273Y308572D01*
X97974Y307850D01*
X97872Y307075D01*
Y305106D01*
X97974Y304331D01*
X98273Y303609D01*
X98749Y302989D01*
X99369Y302513D01*
X100091Y302214D01*
X100866Y302112D01*
X101641Y302214D01*
X102363Y302513D01*
X102918Y302939D01*
X103366Y302718D01*
Y297590D01*
X75366D01*
Y302718D01*
X75815Y302939D01*
X76369Y302513D01*
X77091Y302214D01*
X77866Y302112D01*
X78641Y302214D01*
X79363Y302513D01*
X79983Y302989D01*
X80459Y303609D01*
X80758Y304331D01*
X80860Y305106D01*
Y307075D01*
X80758Y307850D01*
X80459Y308572D01*
X79983Y309192D01*
X79363Y309668D01*
X78641Y309967D01*
X77866Y310069D01*
X77091Y309967D01*
X76369Y309668D01*
X75815Y309242D01*
X75366Y309463D01*
Y315090D01*
X103366D01*
Y309463D01*
D02*
G37*
G36*
X138799D02*
X138351Y309242D01*
X137796Y309668D01*
X137074Y309967D01*
X136299Y310069D01*
X135524Y309967D01*
X134802Y309668D01*
X134182Y309192D01*
X133706Y308572D01*
X133407Y307850D01*
X133305Y307075D01*
Y305106D01*
X133407Y304331D01*
X133706Y303609D01*
X134182Y302989D01*
X134802Y302513D01*
X135524Y302214D01*
X136299Y302112D01*
X137074Y302214D01*
X137796Y302513D01*
X138351Y302939D01*
X138799Y302718D01*
Y297590D01*
X110799D01*
Y302718D01*
X111248Y302939D01*
X111802Y302513D01*
X112524Y302214D01*
X113299Y302112D01*
X114074Y302214D01*
X114796Y302513D01*
X115416Y302989D01*
X115892Y303609D01*
X116191Y304331D01*
X116293Y305106D01*
Y307075D01*
X116191Y307850D01*
X115892Y308572D01*
X115416Y309192D01*
X114796Y309668D01*
X114074Y309967D01*
X113299Y310069D01*
X112524Y309967D01*
X111802Y309668D01*
X111248Y309242D01*
X110799Y309463D01*
Y315090D01*
X138799D01*
Y309463D01*
D02*
G37*
G36*
X174232D02*
X173784Y309242D01*
X173229Y309668D01*
X172507Y309967D01*
X171732Y310069D01*
X170957Y309967D01*
X170235Y309668D01*
X169615Y309192D01*
X169139Y308572D01*
X168840Y307850D01*
X168738Y307075D01*
Y305106D01*
X168840Y304331D01*
X169139Y303609D01*
X169615Y302989D01*
X170235Y302513D01*
X170957Y302214D01*
X171732Y302112D01*
X172507Y302214D01*
X173229Y302513D01*
X173784Y302939D01*
X174232Y302718D01*
Y297590D01*
X146232D01*
Y302718D01*
X146681Y302939D01*
X147235Y302513D01*
X147957Y302214D01*
X148732Y302112D01*
X149507Y302214D01*
X150229Y302513D01*
X150849Y302989D01*
X151325Y303609D01*
X151624Y304331D01*
X151726Y305106D01*
Y307075D01*
X151624Y307850D01*
X151325Y308572D01*
X150849Y309192D01*
X150229Y309668D01*
X149507Y309967D01*
X148732Y310069D01*
X147957Y309967D01*
X147235Y309668D01*
X146681Y309242D01*
X146232Y309463D01*
Y315090D01*
X174232D01*
Y309463D01*
D02*
G37*
G36*
X209665D02*
X209217Y309242D01*
X208662Y309668D01*
X207940Y309967D01*
X207165Y310069D01*
X206390Y309967D01*
X205668Y309668D01*
X205048Y309192D01*
X204572Y308572D01*
X204273Y307850D01*
X204171Y307075D01*
Y305106D01*
X204273Y304331D01*
X204572Y303609D01*
X205048Y302989D01*
X205668Y302513D01*
X206390Y302214D01*
X207165Y302112D01*
X207940Y302214D01*
X208662Y302513D01*
X209217Y302939D01*
X209665Y302718D01*
Y297590D01*
X181665D01*
Y302718D01*
X182114Y302939D01*
X182668Y302513D01*
X183390Y302214D01*
X184165Y302112D01*
X184940Y302214D01*
X185662Y302513D01*
X186283Y302989D01*
X186758Y303609D01*
X187057Y304331D01*
X187160Y305106D01*
Y307075D01*
X187057Y307850D01*
X186758Y308572D01*
X186283Y309192D01*
X185662Y309668D01*
X184940Y309967D01*
X184165Y310069D01*
X183390Y309967D01*
X182668Y309668D01*
X182114Y309242D01*
X181665Y309463D01*
Y315090D01*
X209665D01*
Y309463D01*
D02*
G37*
G36*
X245098D02*
X244650Y309242D01*
X244095Y309668D01*
X243373Y309967D01*
X242598Y310069D01*
X241824Y309967D01*
X241101Y309668D01*
X240481Y309192D01*
X240005Y308572D01*
X239706Y307850D01*
X239604Y307075D01*
Y305106D01*
X239706Y304331D01*
X240005Y303609D01*
X240481Y302989D01*
X241101Y302513D01*
X241824Y302214D01*
X242598Y302112D01*
X243373Y302214D01*
X244095Y302513D01*
X244650Y302939D01*
X245098Y302718D01*
Y297590D01*
X217098D01*
Y302718D01*
X217547Y302939D01*
X218101Y302513D01*
X218824Y302214D01*
X219598Y302112D01*
X220373Y302214D01*
X221095Y302513D01*
X221716Y302989D01*
X222191Y303609D01*
X222491Y304331D01*
X222592Y305106D01*
Y307075D01*
X222491Y307850D01*
X222191Y308572D01*
X221716Y309192D01*
X221095Y309668D01*
X220373Y309967D01*
X219598Y310069D01*
X218824Y309967D01*
X218101Y309668D01*
X217547Y309242D01*
X217098Y309463D01*
Y315090D01*
X245098D01*
Y309463D01*
D02*
G37*
G36*
X280532D02*
X280083Y309242D01*
X279528Y309668D01*
X278806Y309967D01*
X278031Y310069D01*
X277257Y309967D01*
X276534Y309668D01*
X275914Y309192D01*
X275438Y308572D01*
X275139Y307850D01*
X275037Y307075D01*
Y305106D01*
X275139Y304331D01*
X275438Y303609D01*
X275914Y302989D01*
X276534Y302513D01*
X277257Y302214D01*
X278031Y302112D01*
X278806Y302214D01*
X279528Y302513D01*
X280083Y302939D01*
X280532Y302718D01*
Y297590D01*
X252532D01*
Y302718D01*
X252980Y302939D01*
X253534Y302513D01*
X254257Y302214D01*
X255031Y302112D01*
X255806Y302214D01*
X256528Y302513D01*
X257149Y302989D01*
X257625Y303609D01*
X257924Y304331D01*
X258026Y305106D01*
Y307075D01*
X257924Y307850D01*
X257625Y308572D01*
X257149Y309192D01*
X256528Y309668D01*
X255806Y309967D01*
X255031Y310069D01*
X254257Y309967D01*
X253534Y309668D01*
X252980Y309242D01*
X252532Y309463D01*
Y315090D01*
X280532D01*
Y309463D01*
D02*
G37*
G36*
X315965D02*
X315516Y309242D01*
X314962Y309668D01*
X314240Y309967D01*
X313465Y310069D01*
X312690Y309967D01*
X311967Y309668D01*
X311347Y309192D01*
X310872Y308572D01*
X310573Y307850D01*
X310470Y307075D01*
Y305106D01*
X310573Y304331D01*
X310872Y303609D01*
X311347Y302989D01*
X311967Y302513D01*
X312690Y302214D01*
X313465Y302112D01*
X314240Y302214D01*
X314962Y302513D01*
X315516Y302939D01*
X315965Y302718D01*
Y297590D01*
X287965D01*
Y302718D01*
X288413Y302939D01*
X288967Y302513D01*
X289690Y302214D01*
X290465Y302112D01*
X291240Y302214D01*
X291962Y302513D01*
X292582Y302989D01*
X293057Y303609D01*
X293357Y304331D01*
X293459Y305106D01*
Y307075D01*
X293357Y307850D01*
X293057Y308572D01*
X292582Y309192D01*
X291962Y309668D01*
X291240Y309967D01*
X290465Y310069D01*
X289690Y309967D01*
X288967Y309668D01*
X288413Y309242D01*
X287965Y309463D01*
Y315090D01*
X315965D01*
Y309463D01*
D02*
G37*
G36*
X351398D02*
X350949Y309242D01*
X350395Y309668D01*
X349673Y309967D01*
X348898Y310069D01*
X348123Y309967D01*
X347401Y309668D01*
X346780Y309192D01*
X346305Y308572D01*
X346006Y307850D01*
X345903Y307075D01*
Y305106D01*
X346006Y304331D01*
X346305Y303609D01*
X346780Y302989D01*
X347401Y302513D01*
X348123Y302214D01*
X348898Y302112D01*
X349673Y302214D01*
X350395Y302513D01*
X350949Y302939D01*
X351398Y302718D01*
Y297590D01*
X323398D01*
Y302718D01*
X323846Y302939D01*
X324401Y302513D01*
X325123Y302214D01*
X325898Y302112D01*
X326673Y302214D01*
X327395Y302513D01*
X328015Y302989D01*
X328491Y303609D01*
X328790Y304331D01*
X328892Y305106D01*
Y307075D01*
X328790Y307850D01*
X328491Y308572D01*
X328015Y309192D01*
X327395Y309668D01*
X326673Y309967D01*
X325898Y310069D01*
X325123Y309967D01*
X324401Y309668D01*
X323846Y309242D01*
X323398Y309463D01*
Y315090D01*
X351398D01*
Y309463D01*
D02*
G37*
G36*
X32500Y333873D02*
X32052Y333652D01*
X31497Y334077D01*
X30775Y334376D01*
X30000Y334478D01*
X29225Y334376D01*
X28503Y334077D01*
X27883Y333601D01*
X27407Y332981D01*
X27108Y332259D01*
X27006Y331484D01*
Y329516D01*
X27108Y328741D01*
X27407Y328019D01*
X27883Y327399D01*
X28503Y326923D01*
X29225Y326624D01*
X30000Y326522D01*
X30775Y326624D01*
X31497Y326923D01*
X32052Y327348D01*
X32500Y327127D01*
Y322000D01*
X4500D01*
Y327127D01*
X4948Y327348D01*
X5503Y326923D01*
X6225Y326624D01*
X7000Y326522D01*
X7775Y326624D01*
X8497Y326923D01*
X9117Y327399D01*
X9593Y328019D01*
X9892Y328741D01*
X9994Y329516D01*
Y331484D01*
X9892Y332259D01*
X9593Y332981D01*
X9117Y333601D01*
X8497Y334077D01*
X7775Y334376D01*
X7000Y334478D01*
X6225Y334376D01*
X5503Y334077D01*
X4948Y333652D01*
X4500Y333873D01*
Y339500D01*
X32500D01*
Y333873D01*
D02*
G37*
G36*
X67933D02*
X67485Y333652D01*
X66930Y334077D01*
X66208Y334376D01*
X65433Y334478D01*
X64658Y334376D01*
X63936Y334077D01*
X63316Y333601D01*
X62840Y332981D01*
X62541Y332259D01*
X62439Y331484D01*
Y329516D01*
X62541Y328741D01*
X62840Y328019D01*
X63316Y327399D01*
X63936Y326923D01*
X64658Y326624D01*
X65433Y326522D01*
X66208Y326624D01*
X66930Y326923D01*
X67485Y327348D01*
X67933Y327127D01*
Y322000D01*
X39933D01*
Y327127D01*
X40382Y327348D01*
X40936Y326923D01*
X41658Y326624D01*
X42433Y326522D01*
X43208Y326624D01*
X43930Y326923D01*
X44550Y327399D01*
X45026Y328019D01*
X45325Y328741D01*
X45427Y329516D01*
Y331484D01*
X45325Y332259D01*
X45026Y332981D01*
X44550Y333601D01*
X43930Y334077D01*
X43208Y334376D01*
X42433Y334478D01*
X41658Y334376D01*
X40936Y334077D01*
X40382Y333652D01*
X39933Y333873D01*
Y339500D01*
X67933D01*
Y333873D01*
D02*
G37*
G36*
X103366D02*
X102918Y333652D01*
X102363Y334077D01*
X101641Y334376D01*
X100866Y334478D01*
X100091Y334376D01*
X99369Y334077D01*
X98749Y333601D01*
X98273Y332981D01*
X97974Y332259D01*
X97872Y331484D01*
Y329516D01*
X97974Y328741D01*
X98273Y328019D01*
X98749Y327399D01*
X99369Y326923D01*
X100091Y326624D01*
X100866Y326522D01*
X101641Y326624D01*
X102363Y326923D01*
X102918Y327348D01*
X103366Y327127D01*
Y322000D01*
X75366D01*
Y327127D01*
X75815Y327348D01*
X76369Y326923D01*
X77091Y326624D01*
X77866Y326522D01*
X78641Y326624D01*
X79363Y326923D01*
X79983Y327399D01*
X80459Y328019D01*
X80758Y328741D01*
X80860Y329516D01*
Y331484D01*
X80758Y332259D01*
X80459Y332981D01*
X79983Y333601D01*
X79363Y334077D01*
X78641Y334376D01*
X77866Y334478D01*
X77091Y334376D01*
X76369Y334077D01*
X75815Y333652D01*
X75366Y333873D01*
Y339500D01*
X103366D01*
Y333873D01*
D02*
G37*
G36*
X138799D02*
X138351Y333652D01*
X137796Y334077D01*
X137074Y334376D01*
X136299Y334478D01*
X135524Y334376D01*
X134802Y334077D01*
X134182Y333601D01*
X133706Y332981D01*
X133407Y332259D01*
X133305Y331484D01*
Y329516D01*
X133407Y328741D01*
X133706Y328019D01*
X134182Y327399D01*
X134802Y326923D01*
X135524Y326624D01*
X136299Y326522D01*
X137074Y326624D01*
X137796Y326923D01*
X138351Y327348D01*
X138799Y327127D01*
Y322000D01*
X110799D01*
Y327127D01*
X111248Y327348D01*
X111802Y326923D01*
X112524Y326624D01*
X113299Y326522D01*
X114074Y326624D01*
X114796Y326923D01*
X115416Y327399D01*
X115892Y328019D01*
X116191Y328741D01*
X116293Y329516D01*
Y331484D01*
X116191Y332259D01*
X115892Y332981D01*
X115416Y333601D01*
X114796Y334077D01*
X114074Y334376D01*
X113299Y334478D01*
X112524Y334376D01*
X111802Y334077D01*
X111248Y333652D01*
X110799Y333873D01*
Y339500D01*
X138799D01*
Y333873D01*
D02*
G37*
G36*
X174232D02*
X173784Y333652D01*
X173229Y334077D01*
X172507Y334376D01*
X171732Y334478D01*
X170957Y334376D01*
X170235Y334077D01*
X169615Y333601D01*
X169139Y332981D01*
X168840Y332259D01*
X168738Y331484D01*
Y329516D01*
X168840Y328741D01*
X169139Y328019D01*
X169615Y327399D01*
X170235Y326923D01*
X170957Y326624D01*
X171732Y326522D01*
X172507Y326624D01*
X173229Y326923D01*
X173784Y327348D01*
X174232Y327127D01*
Y322000D01*
X146232D01*
Y327127D01*
X146681Y327348D01*
X147235Y326923D01*
X147957Y326624D01*
X148732Y326522D01*
X149507Y326624D01*
X150229Y326923D01*
X150849Y327399D01*
X151325Y328019D01*
X151624Y328741D01*
X151726Y329516D01*
Y331484D01*
X151624Y332259D01*
X151325Y332981D01*
X150849Y333601D01*
X150229Y334077D01*
X149507Y334376D01*
X148732Y334478D01*
X147957Y334376D01*
X147235Y334077D01*
X146681Y333652D01*
X146232Y333873D01*
Y339500D01*
X174232D01*
Y333873D01*
D02*
G37*
G36*
X209665D02*
X209217Y333652D01*
X208662Y334077D01*
X207940Y334376D01*
X207165Y334478D01*
X206390Y334376D01*
X205668Y334077D01*
X205048Y333601D01*
X204572Y332981D01*
X204273Y332259D01*
X204171Y331484D01*
Y329516D01*
X204273Y328741D01*
X204572Y328019D01*
X205048Y327399D01*
X205668Y326923D01*
X206390Y326624D01*
X207165Y326522D01*
X207940Y326624D01*
X208662Y326923D01*
X209217Y327348D01*
X209665Y327127D01*
Y322000D01*
X181665D01*
Y327127D01*
X182114Y327348D01*
X182668Y326923D01*
X183390Y326624D01*
X184165Y326522D01*
X184940Y326624D01*
X185662Y326923D01*
X186283Y327399D01*
X186758Y328019D01*
X187057Y328741D01*
X187160Y329516D01*
Y331484D01*
X187057Y332259D01*
X186758Y332981D01*
X186283Y333601D01*
X185662Y334077D01*
X184940Y334376D01*
X184165Y334478D01*
X183390Y334376D01*
X182668Y334077D01*
X182114Y333652D01*
X181665Y333873D01*
Y339500D01*
X209665D01*
Y333873D01*
D02*
G37*
G36*
X245098D02*
X244650Y333652D01*
X244095Y334077D01*
X243373Y334376D01*
X242598Y334478D01*
X241824Y334376D01*
X241101Y334077D01*
X240481Y333601D01*
X240005Y332981D01*
X239706Y332259D01*
X239604Y331484D01*
Y329516D01*
X239706Y328741D01*
X240005Y328019D01*
X240481Y327399D01*
X241101Y326923D01*
X241824Y326624D01*
X242598Y326522D01*
X243373Y326624D01*
X244095Y326923D01*
X244650Y327348D01*
X245098Y327127D01*
Y322000D01*
X217098D01*
Y327127D01*
X217547Y327348D01*
X218101Y326923D01*
X218824Y326624D01*
X219598Y326522D01*
X220373Y326624D01*
X221095Y326923D01*
X221716Y327399D01*
X222191Y328019D01*
X222491Y328741D01*
X222592Y329516D01*
Y331484D01*
X222491Y332259D01*
X222191Y332981D01*
X221716Y333601D01*
X221095Y334077D01*
X220373Y334376D01*
X219598Y334478D01*
X218824Y334376D01*
X218101Y334077D01*
X217547Y333652D01*
X217098Y333873D01*
Y339500D01*
X245098D01*
Y333873D01*
D02*
G37*
G36*
X280532D02*
X280083Y333652D01*
X279528Y334077D01*
X278806Y334376D01*
X278031Y334478D01*
X277257Y334376D01*
X276534Y334077D01*
X275914Y333601D01*
X275438Y332981D01*
X275139Y332259D01*
X275037Y331484D01*
Y329516D01*
X275139Y328741D01*
X275438Y328019D01*
X275914Y327399D01*
X276534Y326923D01*
X277257Y326624D01*
X278031Y326522D01*
X278806Y326624D01*
X279528Y326923D01*
X280083Y327348D01*
X280532Y327127D01*
Y322000D01*
X252532D01*
Y327127D01*
X252980Y327348D01*
X253534Y326923D01*
X254257Y326624D01*
X255031Y326522D01*
X255806Y326624D01*
X256528Y326923D01*
X257149Y327399D01*
X257625Y328019D01*
X257924Y328741D01*
X258026Y329516D01*
Y331484D01*
X257924Y332259D01*
X257625Y332981D01*
X257149Y333601D01*
X256528Y334077D01*
X255806Y334376D01*
X255031Y334478D01*
X254257Y334376D01*
X253534Y334077D01*
X252980Y333652D01*
X252532Y333873D01*
Y339500D01*
X280532D01*
Y333873D01*
D02*
G37*
G36*
X315965D02*
X315516Y333652D01*
X314962Y334077D01*
X314240Y334376D01*
X313465Y334478D01*
X312690Y334376D01*
X311967Y334077D01*
X311347Y333601D01*
X310872Y332981D01*
X310573Y332259D01*
X310470Y331484D01*
Y329516D01*
X310573Y328741D01*
X310872Y328019D01*
X311347Y327399D01*
X311967Y326923D01*
X312690Y326624D01*
X313465Y326522D01*
X314240Y326624D01*
X314962Y326923D01*
X315516Y327348D01*
X315965Y327127D01*
Y322000D01*
X287965D01*
Y327127D01*
X288413Y327348D01*
X288967Y326923D01*
X289690Y326624D01*
X290465Y326522D01*
X291240Y326624D01*
X291962Y326923D01*
X292582Y327399D01*
X293057Y328019D01*
X293357Y328741D01*
X293459Y329516D01*
Y331484D01*
X293357Y332259D01*
X293057Y332981D01*
X292582Y333601D01*
X291962Y334077D01*
X291240Y334376D01*
X290465Y334478D01*
X289690Y334376D01*
X288967Y334077D01*
X288413Y333652D01*
X287965Y333873D01*
Y339500D01*
X315965D01*
Y333873D01*
D02*
G37*
G36*
X351398D02*
X350949Y333652D01*
X350395Y334077D01*
X349673Y334376D01*
X348898Y334478D01*
X348123Y334376D01*
X347401Y334077D01*
X346780Y333601D01*
X346305Y332981D01*
X346006Y332259D01*
X345903Y331484D01*
Y329516D01*
X346006Y328741D01*
X346305Y328019D01*
X346780Y327399D01*
X347401Y326923D01*
X348123Y326624D01*
X348898Y326522D01*
X349673Y326624D01*
X350395Y326923D01*
X350949Y327348D01*
X351398Y327127D01*
Y322000D01*
X323398D01*
Y327127D01*
X323846Y327348D01*
X324401Y326923D01*
X325123Y326624D01*
X325898Y326522D01*
X326673Y326624D01*
X327395Y326923D01*
X328015Y327399D01*
X328491Y328019D01*
X328790Y328741D01*
X328892Y329516D01*
Y331484D01*
X328790Y332259D01*
X328491Y332981D01*
X328015Y333601D01*
X327395Y334077D01*
X326673Y334376D01*
X325898Y334478D01*
X325123Y334376D01*
X324401Y334077D01*
X323846Y333652D01*
X323398Y333873D01*
Y339500D01*
X351398D01*
Y333873D01*
D02*
G37*
D14*
X7000Y13177D02*
D03*
X30000D02*
D03*
X42433D02*
D03*
X65433D02*
D03*
X77866D02*
D03*
X100866D02*
D03*
X113299D02*
D03*
X136299D02*
D03*
X148732D02*
D03*
X171732D02*
D03*
X184165D02*
D03*
X207165D02*
D03*
X219598D02*
D03*
X242598D02*
D03*
X255031D02*
D03*
X278031D02*
D03*
X290465D02*
D03*
X313465D02*
D03*
X325898D02*
D03*
X348898D02*
D03*
X7000Y37587D02*
D03*
X30000D02*
D03*
X42433D02*
D03*
X65433D02*
D03*
X77866D02*
D03*
X100866D02*
D03*
X113299D02*
D03*
X136299D02*
D03*
X148732D02*
D03*
X171732D02*
D03*
X184165D02*
D03*
X207165D02*
D03*
X219598D02*
D03*
X242598D02*
D03*
X255031D02*
D03*
X278031D02*
D03*
X290465D02*
D03*
X313465D02*
D03*
X325898D02*
D03*
X348898D02*
D03*
X7000Y61996D02*
D03*
X30000D02*
D03*
X42433D02*
D03*
X65433D02*
D03*
X77866D02*
D03*
X100866D02*
D03*
X113299D02*
D03*
X136299D02*
D03*
X148732D02*
D03*
X171732D02*
D03*
X184165D02*
D03*
X207165D02*
D03*
X219598D02*
D03*
X242598D02*
D03*
X255031D02*
D03*
X278031D02*
D03*
X290465D02*
D03*
X313465D02*
D03*
X325898D02*
D03*
X348898D02*
D03*
X7000Y86405D02*
D03*
X30000D02*
D03*
X42433D02*
D03*
X65433D02*
D03*
X77866D02*
D03*
X100866D02*
D03*
X113299D02*
D03*
X136299D02*
D03*
X148732D02*
D03*
X171732D02*
D03*
X184165D02*
D03*
X207165D02*
D03*
X219598D02*
D03*
X242598D02*
D03*
X255031D02*
D03*
X278031D02*
D03*
X290465D02*
D03*
X313465D02*
D03*
X325898D02*
D03*
X348898D02*
D03*
X7000Y110815D02*
D03*
X30000D02*
D03*
X42433D02*
D03*
X65433D02*
D03*
X77866D02*
D03*
X100866D02*
D03*
X113299D02*
D03*
X136299D02*
D03*
X148732D02*
D03*
X171732D02*
D03*
X184165D02*
D03*
X207165D02*
D03*
X219598D02*
D03*
X242598D02*
D03*
X255031D02*
D03*
X278031D02*
D03*
X290465D02*
D03*
X313465D02*
D03*
X325898D02*
D03*
X348898D02*
D03*
X7000Y135224D02*
D03*
X30000D02*
D03*
X42433D02*
D03*
X65433D02*
D03*
X77866D02*
D03*
X100866D02*
D03*
X113299D02*
D03*
X136299D02*
D03*
X148732D02*
D03*
X171732D02*
D03*
X184165D02*
D03*
X207165D02*
D03*
X219598D02*
D03*
X242598D02*
D03*
X255031D02*
D03*
X278031D02*
D03*
X290465D02*
D03*
X313465D02*
D03*
X325898D02*
D03*
X348898D02*
D03*
X7000Y159634D02*
D03*
X30000D02*
D03*
X42433D02*
D03*
X65433D02*
D03*
X77866D02*
D03*
X100866D02*
D03*
X113299D02*
D03*
X136299D02*
D03*
X148732D02*
D03*
X171732D02*
D03*
X184165D02*
D03*
X207165D02*
D03*
X219598D02*
D03*
X242598D02*
D03*
X255031D02*
D03*
X278031D02*
D03*
X290465D02*
D03*
X313465D02*
D03*
X325898D02*
D03*
X348898D02*
D03*
X7000Y184043D02*
D03*
X30000D02*
D03*
X42433D02*
D03*
X65433D02*
D03*
X77866D02*
D03*
X100866D02*
D03*
X113299D02*
D03*
X136299D02*
D03*
X148732D02*
D03*
X171732D02*
D03*
X184165D02*
D03*
X207165D02*
D03*
X219598D02*
D03*
X242598D02*
D03*
X255031D02*
D03*
X278031D02*
D03*
X290465D02*
D03*
X313465D02*
D03*
X325898D02*
D03*
X348898D02*
D03*
X7000Y208453D02*
D03*
X30000D02*
D03*
X42433D02*
D03*
X65433D02*
D03*
X77866D02*
D03*
X100866D02*
D03*
X113299D02*
D03*
X136299D02*
D03*
X148732D02*
D03*
X171732D02*
D03*
X184165D02*
D03*
X207165D02*
D03*
X219598D02*
D03*
X242598D02*
D03*
X255031D02*
D03*
X278031D02*
D03*
X290465D02*
D03*
X313465D02*
D03*
X325898D02*
D03*
X348898D02*
D03*
X7000Y232862D02*
D03*
X30000D02*
D03*
X42433D02*
D03*
X65433D02*
D03*
X77866D02*
D03*
X100866D02*
D03*
X113299D02*
D03*
X136299D02*
D03*
X148732D02*
D03*
X171732D02*
D03*
X184165D02*
D03*
X207165D02*
D03*
X219598D02*
D03*
X242598D02*
D03*
X255031D02*
D03*
X278031D02*
D03*
X290465D02*
D03*
X313465D02*
D03*
X325898D02*
D03*
X348898D02*
D03*
X7000Y257272D02*
D03*
X30000D02*
D03*
X42433D02*
D03*
X65433D02*
D03*
X77866D02*
D03*
X100866D02*
D03*
X113299D02*
D03*
X136299D02*
D03*
X148732D02*
D03*
X171732D02*
D03*
X184165D02*
D03*
X207165D02*
D03*
X219598D02*
D03*
X242598D02*
D03*
X255031D02*
D03*
X278031D02*
D03*
X290465D02*
D03*
X313465D02*
D03*
X325898D02*
D03*
X348898D02*
D03*
X7000Y281681D02*
D03*
X30000D02*
D03*
X42433D02*
D03*
X65433D02*
D03*
X77866D02*
D03*
X100866D02*
D03*
X113299D02*
D03*
X136299D02*
D03*
X148732D02*
D03*
X171732D02*
D03*
X184165D02*
D03*
X207165D02*
D03*
X219598D02*
D03*
X242598D02*
D03*
X255031D02*
D03*
X278031D02*
D03*
X290465D02*
D03*
X313465D02*
D03*
X325898D02*
D03*
X348898D02*
D03*
X7000Y306090D02*
D03*
X30000D02*
D03*
X42433D02*
D03*
X65433D02*
D03*
X77866D02*
D03*
X100866D02*
D03*
X113299D02*
D03*
X136299D02*
D03*
X148732D02*
D03*
X171732D02*
D03*
X184165D02*
D03*
X207165D02*
D03*
X219598D02*
D03*
X242598D02*
D03*
X255031D02*
D03*
X278031D02*
D03*
X290465D02*
D03*
X313465D02*
D03*
X325898D02*
D03*
X348898D02*
D03*
X7000Y330500D02*
D03*
X30000D02*
D03*
X42433D02*
D03*
X65433D02*
D03*
X77866D02*
D03*
X100866D02*
D03*
X113299D02*
D03*
X136299D02*
D03*
X148732D02*
D03*
X171732D02*
D03*
X184165D02*
D03*
X207165D02*
D03*
X219598D02*
D03*
X242598D02*
D03*
X255031D02*
D03*
X278031D02*
D03*
X290465D02*
D03*
X313465D02*
D03*
X325898D02*
D03*
X348898D02*
D03*
M02*
