%FSLAX25Y25*%
%MOIN*%
G70*
G01*
G75*
%ADD10R,0.04528X0.02362*%
%ADD11R,0.02953X0.06693*%
%ADD12O,0.01772X0.06299*%
%ADD13R,0.03543X0.02756*%
%ADD14R,0.06693X0.02953*%
%ADD15C,0.01400*%
%ADD16C,0.01000*%
%ADD17C,0.07874*%
%ADD18C,0.00984*%
%ADD19C,0.01575*%
%ADD20C,0.00787*%
%ADD21C,0.00600*%
D18*
X39563Y41087D02*
G03*
X39563Y41087I-492J0D01*
G01*
X21102Y19134D02*
G03*
X21102Y19134I-492J0D01*
G01*
X39563Y26087D02*
G03*
X39563Y26087I-492J0D01*
G01*
D19*
X25335Y27008D02*
G03*
X25335Y27008I-787J0D01*
G01*
D20*
X42713Y39906D02*
X46256D01*
Y36756D02*
Y39906D01*
X42713Y28095D02*
X46256D01*
Y31244D01*
X17260Y42547D02*
X24740D01*
X17260Y48453D02*
X24740D01*
X21398Y23858D02*
X33602D01*
X21398Y31142D02*
X33602D01*
X21398Y23858D02*
Y31142D01*
X33602Y23858D02*
Y31142D01*
X15122Y32213D02*
Y33787D01*
X17878Y32213D02*
Y33787D01*
X17878Y20213D02*
Y21787D01*
X15122Y20213D02*
Y21787D01*
X42713Y24905D02*
X46256D01*
Y21756D02*
Y24905D01*
X42713Y13094D02*
X46256D01*
Y16244D01*
X4047Y28260D02*
Y35740D01*
X9953Y28260D02*
Y35740D01*
D21*
X27500Y29199D02*
Y26533D01*
X28033Y26000D01*
X29100D01*
X29633Y26533D01*
Y29199D01*
X30699Y26000D02*
X31765D01*
X31232D01*
Y29199D01*
X30699Y28666D01*
M02*
