%FSLAX25Y25*%
%MOIN*%
G70*
G01*
G75*
G04 Layer_Color=32768*
%ADD10R,0.04528X0.02362*%
%ADD11R,0.02953X0.06693*%
%ADD12O,0.01772X0.06299*%
%ADD13R,0.03543X0.02756*%
%ADD14R,0.06693X0.02953*%
%ADD15C,0.01400*%
%ADD16C,0.01000*%
%ADD17C,0.07874*%
%ADD18C,0.00984*%
%ADD19C,0.01575*%
%ADD20C,0.00787*%
%ADD21C,0.00600*%
%ADD22R,0.05328X0.03162*%
%ADD23R,0.03753X0.07493*%
%ADD24O,0.02008X0.06535*%
%ADD25R,0.04343X0.03556*%
%ADD26R,0.07493X0.03753*%
%ADD27C,0.08674*%
%ADD28C,0.04724*%
%ADD29C,0.00394*%
%ADD30C,0.00197*%
D29*
X35823Y27110D02*
Y40890D01*
X51177Y27110D02*
Y40890D01*
X35823D02*
X51177D01*
X35823Y27110D02*
X51177D01*
X41532Y34000D02*
X45469D01*
X43500Y32032D02*
Y35969D01*
X19031Y45500D02*
X22968D01*
X21000Y43532D02*
Y47469D01*
X27500Y25532D02*
Y29469D01*
X25532Y27500D02*
X29469D01*
X14630Y33000D02*
X18370D01*
X16500Y31130D02*
Y34870D01*
X14335Y28276D02*
Y37724D01*
X18665Y28276D02*
Y37724D01*
X14335Y28276D02*
X18665D01*
X14335Y37724D02*
X18665D01*
X14630Y21000D02*
X18370D01*
X16500Y19130D02*
Y22870D01*
X18665Y16276D02*
Y25724D01*
X14335Y16276D02*
Y25724D01*
X18665D01*
X14335Y16276D02*
X18665D01*
X35823Y12110D02*
Y25890D01*
X51177Y12110D02*
Y25890D01*
X35823D02*
X51177D01*
X35823Y12110D02*
X51177D01*
X41532Y19000D02*
X45469D01*
X43500Y17031D02*
Y20968D01*
X7000Y30031D02*
Y33968D01*
X5032Y32000D02*
X8969D01*
D30*
X30252Y41169D02*
Y49831D01*
X11748Y41169D02*
Y49831D01*
Y41169D02*
X30252D01*
X11748Y49831D02*
X30252D01*
X20413Y15000D02*
X34587D01*
X20413Y40000D02*
X34587D01*
X20413Y15000D02*
Y40000D01*
X34587Y15000D02*
Y40000D01*
X2669Y22748D02*
X11331D01*
X2669Y41252D02*
X11331D01*
X2669Y22748D02*
Y41252D01*
X11331Y22748D02*
Y41252D01*
M02*
