%FSLAX25Y25*%
%MOIN*%
G70*
G01*
G75*
G04 Layer_Physical_Order=1*
G04 Layer_Color=255*
%ADD10R,0.04528X0.02362*%
%ADD11R,0.02953X0.06693*%
%ADD12O,0.01772X0.06299*%
%ADD13R,0.03543X0.02756*%
%ADD14R,0.06693X0.02953*%
%ADD15C,0.01400*%
%ADD16C,0.01000*%
%ADD17C,0.07874*%
G36*
X2479Y42979D02*
X3510Y42188D01*
X4547Y41758D01*
X4449Y41268D01*
X2654D01*
Y36315D01*
X11347D01*
Y41153D01*
X11732D01*
Y41154D01*
X15923D01*
X18284Y38793D01*
X18092Y38331D01*
X13728D01*
Y34709D01*
X12147Y33128D01*
X11815Y32632D01*
X11699Y32046D01*
Y27685D01*
X11346D01*
Y27685D01*
X2654D01*
Y23256D01*
X2238Y22978D01*
X2000Y23076D01*
Y42825D01*
X2473Y42986D01*
X2479Y42979D01*
D02*
G37*
G36*
X21673Y16922D02*
X22124Y16470D01*
X22168Y16251D01*
X22518Y15727D01*
X23043Y15376D01*
X23661Y15253D01*
X24280Y15376D01*
X24805Y15727D01*
X25077D01*
X25602Y15376D01*
X26221Y15253D01*
X26839Y15376D01*
X27267Y15148D01*
Y12126D01*
X26510Y11812D01*
X25479Y11021D01*
X24688Y9990D01*
X24190Y8789D01*
X24020Y7500D01*
X24190Y6211D01*
X24688Y5010D01*
X25185Y4362D01*
X24419Y3596D01*
X21293D01*
X21072Y4045D01*
X21813Y5010D01*
X22310Y6211D01*
X22480Y7500D01*
X22310Y8789D01*
X21813Y9990D01*
X21021Y11021D01*
X19990Y11812D01*
X18789Y12310D01*
X18029Y12410D01*
Y15669D01*
X19272D01*
Y16518D01*
X20547D01*
X21133Y16634D01*
X21605Y16950D01*
X21673Y16922D01*
D02*
G37*
G36*
X50500Y36181D02*
X48429D01*
Y34000D01*
Y31819D01*
X50500D01*
Y21181D01*
X48429D01*
Y19000D01*
Y16819D01*
X50500D01*
Y11603D01*
X50052Y11381D01*
X49490Y11812D01*
X48289Y12310D01*
X47500Y12414D01*
Y7500D01*
X47000D01*
Y7000D01*
X42086D01*
X42190Y6211D01*
X42687Y5010D01*
X43479Y3979D01*
X44510Y3187D01*
X44986Y2990D01*
X44889Y2500D01*
X31111D01*
X31014Y2990D01*
X31490Y3187D01*
X32521Y3979D01*
X33312Y5010D01*
X33810Y6211D01*
X33980Y7500D01*
X33810Y8789D01*
X33312Y9990D01*
X32521Y11021D01*
X31490Y11812D01*
X30733Y12126D01*
Y14674D01*
X30839Y14760D01*
Y19134D01*
X31339D01*
Y19634D01*
X33261D01*
Y21398D01*
X33228Y21564D01*
X33546Y21950D01*
X35807D01*
Y20559D01*
X42335D01*
Y24921D01*
X39335D01*
X38791Y25285D01*
X38128Y25417D01*
X30392D01*
X30392Y25417D01*
X29728Y25285D01*
X29166Y24909D01*
X27827Y23570D01*
X27451Y23008D01*
X27447Y22985D01*
X26985Y22794D01*
X26839Y22892D01*
X26221Y23015D01*
X25602Y22892D01*
X25077Y22541D01*
X24805D01*
X24280Y22892D01*
X23661Y23015D01*
X23043Y22892D01*
X22518Y22541D01*
X22168Y22016D01*
X22045Y21398D01*
Y20663D01*
X21634D01*
X21049Y20547D01*
X20552Y20215D01*
X19914Y19577D01*
X19272D01*
Y20425D01*
X16423D01*
X16232Y20887D01*
X16919Y21575D01*
X19272D01*
Y26331D01*
X18029D01*
Y27669D01*
X19272D01*
Y30365D01*
X19734Y30556D01*
X21871Y28419D01*
X21871D01*
X21871Y28418D01*
X21871Y28418D01*
Y28418D01*
X22367Y28087D01*
X22953Y27971D01*
X26000D01*
X26585Y28087D01*
X27081Y28419D01*
X27413Y28915D01*
X27529Y29500D01*
Y32000D01*
X27970Y32236D01*
X28161Y32109D01*
X28780Y31986D01*
X29398Y32109D01*
X29923Y32459D01*
X30195D01*
X30720Y32109D01*
X31339Y31986D01*
X31957Y32109D01*
X32482Y32459D01*
X32832Y32984D01*
X32956Y33602D01*
Y33767D01*
X33500D01*
X34163Y33899D01*
X34726Y34274D01*
X36010Y35559D01*
X42335D01*
Y39921D01*
X35807D01*
Y39474D01*
X35740D01*
X35077Y39342D01*
X34514Y38966D01*
X34514Y38966D01*
X33417Y37869D01*
X32956Y38060D01*
Y38130D01*
X32832Y38749D01*
X32482Y39273D01*
X31957Y39624D01*
X31339Y39747D01*
X30720Y39624D01*
X30574Y39526D01*
X30112Y39718D01*
X30108Y39740D01*
X29732Y40302D01*
X29525Y40510D01*
Y41154D01*
X30268D01*
Y44267D01*
X30874D01*
X31187Y43510D01*
X31979Y42479D01*
X33010Y41688D01*
X34211Y41190D01*
X35500Y41020D01*
X36789Y41190D01*
X37990Y41688D01*
X39021Y42479D01*
X39812Y43510D01*
X40310Y44711D01*
X40480Y46000D01*
X40310Y47289D01*
X39812Y48490D01*
X39021Y49521D01*
X38363Y50027D01*
X38523Y50500D01*
X50500D01*
Y36181D01*
D02*
G37*
G36*
X32638Y50027D02*
X31979Y49521D01*
X31187Y48490D01*
X30874Y47733D01*
X30268D01*
Y49846D01*
X25315D01*
Y41154D01*
X26058D01*
Y39792D01*
X26073Y39717D01*
X25602Y39624D01*
X25077Y39273D01*
X24805D01*
X24280Y39624D01*
X23661Y39747D01*
X23043Y39624D01*
X22630Y39348D01*
X16685Y45294D01*
Y49846D01*
X11732D01*
Y47233D01*
X10883D01*
X10810Y47789D01*
X10312Y48990D01*
X9521Y50021D01*
X9514Y50027D01*
X9675Y50500D01*
X32477D01*
X32638Y50027D01*
D02*
G37*
%LPC*%
G36*
X33261Y18634D02*
X31839D01*
Y15047D01*
X32074Y15094D01*
X32698Y15510D01*
X33115Y16134D01*
X33261Y16870D01*
Y18634D01*
D02*
G37*
G36*
X46500Y12414D02*
X45711Y12310D01*
X44510Y11812D01*
X43479Y11021D01*
X42687Y9990D01*
X42190Y8789D01*
X42086Y8000D01*
X46500D01*
Y12414D01*
D02*
G37*
G36*
X42335Y17441D02*
X35807D01*
Y13079D01*
X42335D01*
Y17441D01*
D02*
G37*
G36*
X47429Y18500D02*
X44665D01*
Y16819D01*
X47429D01*
Y18500D01*
D02*
G37*
G36*
Y33500D02*
X44665D01*
Y31819D01*
X47429D01*
Y33500D01*
D02*
G37*
G36*
Y36181D02*
X44665D01*
Y34500D01*
X47429D01*
Y36181D01*
D02*
G37*
G36*
Y21181D02*
X44665D01*
Y19500D01*
X47429D01*
Y21181D01*
D02*
G37*
G36*
X42335Y32441D02*
X35807D01*
Y28079D01*
X42335D01*
Y32441D01*
D02*
G37*
%LPD*%
D10*
X39071Y37740D02*
D03*
Y30260D02*
D03*
X47929Y34000D02*
D03*
X39071Y22740D02*
D03*
Y15260D02*
D03*
X47929Y19000D02*
D03*
D11*
X27791Y45500D02*
D03*
X14209D02*
D03*
D12*
X23661Y19134D02*
D03*
X26221D02*
D03*
X28780D02*
D03*
X31339D02*
D03*
X23661Y35866D02*
D03*
X26221D02*
D03*
X28780D02*
D03*
X31339D02*
D03*
D13*
X16500Y30047D02*
D03*
Y35953D02*
D03*
X16500Y23953D02*
D03*
Y18047D02*
D03*
D14*
X7000Y25209D02*
D03*
Y38791D02*
D03*
D15*
X7237Y25209D02*
X7500D01*
X1863Y19835D02*
X7237Y25209D01*
X1863Y5165D02*
Y19835D01*
Y5165D02*
X5165Y1863D01*
X25137D01*
X29000Y5726D01*
Y7500D01*
X28780Y19134D02*
X29000Y18913D01*
Y7500D02*
Y18913D01*
X38128Y23684D02*
X39071Y22740D01*
X30392Y23684D02*
X38128D01*
X29053Y22344D02*
X30392Y23684D01*
X29053Y19407D02*
Y22344D01*
X28780Y19134D02*
X29053Y19407D01*
X31472Y19000D02*
X47929D01*
Y8429D02*
Y19000D01*
Y34000D01*
X27791Y46000D02*
X35500D01*
X27791Y39792D02*
Y45500D01*
Y39792D02*
X28506Y39077D01*
Y36139D02*
Y39077D01*
Y36139D02*
X28780Y35866D01*
X31339D01*
X35740Y37740D02*
X39071D01*
X33500Y35500D02*
X35740Y37740D01*
X31705Y35500D02*
X33500D01*
X31339Y35866D02*
X31705Y35500D01*
X14209Y45319D02*
X23661Y35866D01*
X14209Y45319D02*
Y45500D01*
X7000Y39291D02*
Y45500D01*
X26221Y19134D02*
X28780D01*
X7000Y45500D02*
X14209D01*
D16*
X31339Y19134D02*
X31472Y19000D01*
X47000Y7500D02*
X47929Y8429D01*
X16500Y23953D02*
Y30047D01*
X16500Y23953D02*
X16500Y23953D01*
X16500Y23318D02*
Y23953D01*
X13228Y20046D02*
X16500Y23318D01*
X13228Y13228D02*
Y20046D01*
X7500Y7500D02*
X13228Y13228D01*
X16500Y8500D02*
Y18047D01*
Y8500D02*
X17500Y7500D01*
X21634Y19134D02*
X23661D01*
X20547Y18047D02*
X21634Y19134D01*
X16500Y18047D02*
X20547D01*
X16500Y35953D02*
X22953Y29500D01*
X26000D01*
Y35646D01*
X26221Y35866D01*
X16500Y35318D02*
Y35953D01*
X13228Y32046D02*
X16500Y35318D01*
X13228Y23228D02*
Y32046D01*
X7500Y17500D02*
X13228Y23228D01*
D17*
X17500Y7500D02*
D03*
X29000D02*
D03*
X6000Y46500D02*
D03*
X47000Y7500D02*
D03*
X35500Y46000D02*
D03*
X7500Y17500D02*
D03*
Y7500D02*
D03*
M02*
