%FSLAX25Y25*%
%MOIN*%
G70*
G01*
G75*
G04 Layer_Color=8388736*
%ADD10R,0.04528X0.02362*%
%ADD11R,0.02953X0.06693*%
%ADD12O,0.01772X0.06299*%
%ADD13R,0.03543X0.02756*%
%ADD14R,0.06693X0.02953*%
%ADD15C,0.01400*%
%ADD16C,0.01000*%
%ADD17C,0.07874*%
%ADD18C,0.00984*%
%ADD19C,0.01575*%
%ADD20C,0.00787*%
%ADD21C,0.00600*%
%ADD22R,0.05328X0.03162*%
%ADD23R,0.03753X0.07493*%
%ADD24O,0.02008X0.06535*%
%ADD25R,0.04343X0.03556*%
%ADD26R,0.07493X0.03753*%
%ADD27C,0.08674*%
D22*
X39071Y37740D02*
D03*
Y30260D02*
D03*
X47929Y34000D02*
D03*
X39071Y22740D02*
D03*
Y15260D02*
D03*
X47929Y19000D02*
D03*
D23*
X27791Y45500D02*
D03*
X14209D02*
D03*
D24*
X23661Y19134D02*
D03*
X26221D02*
D03*
X28780D02*
D03*
X31339D02*
D03*
X23661Y35866D02*
D03*
X26221D02*
D03*
X28780D02*
D03*
X31339D02*
D03*
D25*
X16500Y30047D02*
D03*
Y35953D02*
D03*
X16500Y23953D02*
D03*
Y18047D02*
D03*
D26*
X7000Y25209D02*
D03*
Y38791D02*
D03*
D27*
X17500Y7500D02*
D03*
X29000D02*
D03*
X6000Y46500D02*
D03*
X47000Y7500D02*
D03*
X35500Y46000D02*
D03*
X7500Y17500D02*
D03*
Y7500D02*
D03*
M02*
