M48
;Layer_Color=9474304
;FILE_FORMAT=4:4
METRIC,LZ
;TYPE=PLATED
T1F00S00C0.7112
T2F00S00C0.9000
%
T01
X00306324Y00030226
X00374904Y00028194
X0042037Y0007112
X0043053Y0011049
X0042037Y0030112
X0043053Y0034049
X00374904Y00258194
X00306324Y00260226
X0022098Y0033287
X0020828Y00374526
X00201422Y00401958
X0016891Y0038875
X0016747Y0034413
X0012012Y0034684
X0012065Y0037732
X0008255Y004332
Y002032
X0012065Y0014732
X0012012Y0011684
X0016747Y0011413
X0016891Y0015875
X00201422Y00171958
X0020828Y00144526
X0022098Y0010287
X0019304Y000762
Y003062
T02
X0001905Y0004826
X0005334
X0009271Y000508
X0011811
X0014351
X0016891
X0016764Y0001778
X0014224
X0011684
X0009144
X0047752Y0004445
Y0006985
Y0027445
Y0029985
X0016891Y002808
X0014351
X0011811
X0009271
X0009144Y0024778
X0011684
X0014224
X0016764
X0005334Y0027826
Y0030366
Y0032906
Y0035446
Y0037986
Y0040526
Y0017526
Y0014986
Y0012446
Y0009906
Y0007366
X0001905
Y0009906
Y0012446
Y0014986
Y0017526
Y0027826
Y0030366
Y0032906
Y0035446
Y0037986
Y0040526
M30
