G04 Layer_Color=8388736*
%FSLAX44Y44*%
%MOMM*%
G71*
G01*
G75*
%ADD40R,4.3532X1.2032*%
%ADD41R,8.4032X10.9532*%
%ADD42R,1.9032X0.9532*%
%ADD43O,2.3032X0.9032*%
%ADD44R,0.9032X1.1032*%
%ADD45R,1.1032X0.9032*%
%ADD46R,2.7532X2.7532*%
%ADD47R,1.7532X2.6532*%
%ADD48R,3.3032X4.1032*%
%ADD49C,1.7032*%
%ADD50R,1.7032X1.7032*%
%ADD51R,1.7032X1.7032*%
%ADD52C,1.4732*%
D40*
X376190Y128560D02*
D03*
Y145560D02*
D03*
Y162560D02*
D03*
Y179560D02*
D03*
Y196560D02*
D03*
Y358560D02*
D03*
Y375560D02*
D03*
Y392560D02*
D03*
Y409560D02*
D03*
Y426560D02*
D03*
D41*
X271690Y162560D02*
D03*
Y392560D02*
D03*
D42*
X179070Y189970D02*
D03*
Y155470D02*
D03*
X203200D02*
D03*
Y189970D02*
D03*
X198120Y127740D02*
D03*
Y93240D02*
D03*
X179070Y419970D02*
D03*
Y385470D02*
D03*
X203200D02*
D03*
Y419970D02*
D03*
X198120Y357740D02*
D03*
Y323240D02*
D03*
D43*
X143340Y149860D02*
D03*
Y162560D02*
D03*
Y175260D02*
D03*
Y187960D02*
D03*
X90340Y149860D02*
D03*
Y162560D02*
D03*
Y175260D02*
D03*
Y187960D02*
D03*
X145880Y83820D02*
D03*
Y96520D02*
D03*
Y109220D02*
D03*
Y121920D02*
D03*
X92880Y83820D02*
D03*
Y96520D02*
D03*
Y109220D02*
D03*
Y121920D02*
D03*
X143340Y379860D02*
D03*
Y392560D02*
D03*
Y405260D02*
D03*
Y417960D02*
D03*
X90340Y379860D02*
D03*
Y392560D02*
D03*
Y405260D02*
D03*
Y417960D02*
D03*
X145880Y313820D02*
D03*
Y326520D02*
D03*
Y339220D02*
D03*
Y351920D02*
D03*
X92880Y313820D02*
D03*
Y326520D02*
D03*
Y339220D02*
D03*
Y351920D02*
D03*
D44*
X17900Y209550D02*
D03*
X32900D02*
D03*
X17900Y439550D02*
D03*
X32900D02*
D03*
D45*
X173990Y86240D02*
D03*
Y71240D02*
D03*
X179070Y114180D02*
D03*
Y99180D02*
D03*
X175260Y128390D02*
D03*
Y143390D02*
D03*
X173990Y316240D02*
D03*
Y301240D02*
D03*
X179070Y344180D02*
D03*
Y329180D02*
D03*
X175260Y358390D02*
D03*
Y373390D02*
D03*
D46*
X230100Y68580D02*
D03*
X290600D02*
D03*
X341860Y71120D02*
D03*
X402360D02*
D03*
X230100Y298580D02*
D03*
X290600D02*
D03*
X341860Y301120D02*
D03*
X402360D02*
D03*
D47*
X440690Y40440D02*
D03*
Y78940D02*
D03*
Y270440D02*
D03*
Y308940D02*
D03*
D48*
X445770Y190370D02*
D03*
Y142370D02*
D03*
Y420370D02*
D03*
Y372370D02*
D03*
D49*
X477520Y69850D02*
D03*
X19050Y48260D02*
D03*
Y73660D02*
D03*
Y99060D02*
D03*
Y124460D02*
D03*
Y149860D02*
D03*
X53340Y48260D02*
D03*
Y73660D02*
D03*
Y99060D02*
D03*
Y124460D02*
D03*
Y149860D02*
D03*
X142240Y17780D02*
D03*
X116840D02*
D03*
X91440D02*
D03*
X143510Y50800D02*
D03*
X118110D02*
D03*
X92710D02*
D03*
X477520Y299850D02*
D03*
X19050Y278260D02*
D03*
Y303660D02*
D03*
Y329060D02*
D03*
Y354460D02*
D03*
Y379860D02*
D03*
X53340Y278260D02*
D03*
Y303660D02*
D03*
Y329060D02*
D03*
Y354460D02*
D03*
Y379860D02*
D03*
X142240Y247780D02*
D03*
X116840D02*
D03*
X91440D02*
D03*
X143510Y280800D02*
D03*
X118110D02*
D03*
X92710D02*
D03*
D50*
X477520Y44450D02*
D03*
X19050Y175260D02*
D03*
X53340D02*
D03*
X477520Y274450D02*
D03*
X19050Y405260D02*
D03*
X53340D02*
D03*
D51*
X167640Y17780D02*
D03*
X168910Y50800D02*
D03*
X167640Y247780D02*
D03*
X168910Y280800D02*
D03*
D52*
X306324Y30226D02*
D03*
X374904Y28194D02*
D03*
X201422Y171958D02*
D03*
X120120Y116840D02*
D03*
X208280Y144526D02*
D03*
X220980Y102870D02*
D03*
X430530Y110490D02*
D03*
X420370Y71120D02*
D03*
X193040Y76200D02*
D03*
X120650Y147320D02*
D03*
X167470Y114130D02*
D03*
X82550Y203200D02*
D03*
X168910Y158750D02*
D03*
X306324Y260226D02*
D03*
X374904Y258194D02*
D03*
X201422Y401958D02*
D03*
X120120Y346840D02*
D03*
X208280Y374526D02*
D03*
X220980Y332870D02*
D03*
X430530Y340490D02*
D03*
X420370Y301120D02*
D03*
X193040Y306200D02*
D03*
X120650Y377320D02*
D03*
X167470Y344130D02*
D03*
X82550Y433200D02*
D03*
X168910Y388750D02*
D03*
M02*
