G04 Layer_Color=16711935*
%FSLAX44Y44*%
%MOMM*%
G71*
G01*
G75*
%ADD23C,1.2000*%
D23*
X-6000Y0D02*
G03*
X0Y-6000I6000J0D01*
G01*
X-6000Y230000D02*
G03*
X-4581Y226125I6000J0D01*
G01*
D02*
G03*
X-6000Y222250I4581J-3875D01*
G01*
Y0D02*
G03*
X0Y-6000I6000J0D01*
G01*
X-4581Y226125D02*
G03*
X-6000Y222250I4581J-3875D01*
G01*
Y230000D02*
G03*
X-4581Y226125I6000J0D01*
G01*
X0Y458250D02*
G03*
X-6000Y452250I0J-6000D01*
G01*
X0Y458250D02*
G03*
X-6000Y452250I0J-6000D01*
G01*
X494030Y-6000D02*
G03*
X500030Y0I0J6000D01*
G01*
X494030Y-6000D02*
G03*
X500030Y0I0J6000D01*
G01*
Y222250D02*
G03*
X498611Y226125I-6000J0D01*
G01*
X500030Y222250D02*
G03*
X498611Y226125I-6000J0D01*
G01*
D02*
G03*
X500030Y230000I-4581J3875D01*
G01*
X498611Y226125D02*
G03*
X500030Y230000I-4581J3875D01*
G01*
Y452250D02*
G03*
X494030Y458250I-6000J0D01*
G01*
X500030Y452250D02*
G03*
X494030Y458250I-6000J0D01*
G01*
X-6000Y0D02*
Y222250D01*
X0Y-6000D02*
X494030D01*
X-6000Y230000D02*
Y452250D01*
X0Y458250D02*
X494030D01*
X500030Y0D02*
Y222250D01*
Y230000D02*
Y452250D01*
X-6000Y0D02*
G03*
X0Y-6000I6000J0D01*
G01*
X-6000Y0D02*
G03*
X0Y-6000I6000J0D01*
G01*
Y228250D02*
G03*
X-6000Y222250I0J-6000D01*
G01*
X0Y228250D02*
G03*
X-6000Y222250I0J-6000D01*
G01*
X494030Y-6000D02*
G03*
X500030Y0I0J6000D01*
G01*
X494030Y-6000D02*
G03*
X500030Y0I0J6000D01*
G01*
Y222250D02*
G03*
X494030Y228250I-6000J0D01*
G01*
X500030Y222250D02*
G03*
X494030Y228250I-6000J0D01*
G01*
X-6000Y0D02*
Y222250D01*
X0Y-6000D02*
X494030D01*
X0Y228251D02*
X494030D01*
X500031Y0D02*
Y222250D01*
X-6000Y230000D02*
G03*
X0Y224000I6000J0D01*
G01*
X-6000Y230000D02*
G03*
X0Y224000I6000J0D01*
G01*
Y458250D02*
G03*
X-6000Y452250I0J-6000D01*
G01*
X0Y458250D02*
G03*
X-6000Y452250I0J-6000D01*
G01*
X494030Y224000D02*
G03*
X500030Y230000I0J6000D01*
G01*
X494030Y224000D02*
G03*
X500030Y230000I0J6000D01*
G01*
Y452250D02*
G03*
X494030Y458250I-6000J0D01*
G01*
X500030Y452250D02*
G03*
X494030Y458250I-6000J0D01*
G01*
X-6000Y230000D02*
Y452250D01*
X0Y224000D02*
X494030D01*
X0Y458251D02*
X494030D01*
X500031Y230000D02*
Y452250D01*
M02*
