G04 Layer_Physical_Order=1*
G04 Layer_Color=255*
%FSLAX44Y44*%
%MOMM*%
G71*
G01*
G75*
%ADD10R,4.1500X1.0000*%
%ADD11R,8.2000X10.7500*%
%ADD12R,1.7000X0.7500*%
%ADD13O,2.1000X0.7000*%
%ADD14R,0.7000X0.9000*%
%ADD15R,0.9000X0.7000*%
%ADD16R,2.5500X2.5500*%
%ADD17R,1.5500X2.4500*%
%ADD18R,3.1000X3.9000*%
%ADD19C,0.7620*%
%ADD20C,0.3750*%
%ADD21C,0.3500*%
%ADD22C,0.5000*%
%ADD23C,1.0160*%
%ADD24C,0.7750*%
%ADD25C,0.2540*%
%ADD26C,1.5000*%
%ADD27R,1.5000X1.5000*%
%ADD28R,1.5000X1.5000*%
%ADD29C,1.2700*%
D10*
X376190Y128560D02*
D03*
Y145560D02*
D03*
Y162560D02*
D03*
Y179560D02*
D03*
Y196560D02*
D03*
Y358560D02*
D03*
Y375560D02*
D03*
Y392560D02*
D03*
Y409560D02*
D03*
Y426560D02*
D03*
D11*
X271690Y162560D02*
D03*
Y392560D02*
D03*
D12*
X179070Y189970D02*
D03*
Y155470D02*
D03*
X203200D02*
D03*
Y189970D02*
D03*
X198120Y127740D02*
D03*
Y93240D02*
D03*
X179070Y419970D02*
D03*
Y385470D02*
D03*
X203200D02*
D03*
Y419970D02*
D03*
X198120Y357740D02*
D03*
Y323240D02*
D03*
D13*
X143340Y149860D02*
D03*
Y162560D02*
D03*
Y175260D02*
D03*
Y187960D02*
D03*
X90340Y149860D02*
D03*
Y162560D02*
D03*
Y175260D02*
D03*
Y187960D02*
D03*
X145880Y83820D02*
D03*
Y96520D02*
D03*
Y109220D02*
D03*
Y121920D02*
D03*
X92880Y83820D02*
D03*
Y96520D02*
D03*
Y109220D02*
D03*
Y121920D02*
D03*
X143340Y379860D02*
D03*
Y392560D02*
D03*
Y405260D02*
D03*
Y417960D02*
D03*
X90340Y379860D02*
D03*
Y392560D02*
D03*
Y405260D02*
D03*
Y417960D02*
D03*
X145880Y313820D02*
D03*
Y326520D02*
D03*
Y339220D02*
D03*
Y351920D02*
D03*
X92880Y313820D02*
D03*
Y326520D02*
D03*
Y339220D02*
D03*
Y351920D02*
D03*
D14*
X17900Y209550D02*
D03*
X32900D02*
D03*
X17900Y439550D02*
D03*
X32900D02*
D03*
D15*
X173990Y86240D02*
D03*
Y71240D02*
D03*
X179070Y114180D02*
D03*
Y99180D02*
D03*
X175260Y128390D02*
D03*
Y143390D02*
D03*
X173990Y316240D02*
D03*
Y301240D02*
D03*
X179070Y344180D02*
D03*
Y329180D02*
D03*
X175260Y358390D02*
D03*
Y373390D02*
D03*
D16*
X230100Y68580D02*
D03*
X290600D02*
D03*
X341860Y71120D02*
D03*
X402360D02*
D03*
X230100Y298580D02*
D03*
X290600D02*
D03*
X341860Y301120D02*
D03*
X402360D02*
D03*
D17*
X440690Y40440D02*
D03*
Y78940D02*
D03*
Y270440D02*
D03*
Y308940D02*
D03*
D18*
X445770Y190370D02*
D03*
Y142370D02*
D03*
Y420370D02*
D03*
Y372370D02*
D03*
D19*
Y186436D02*
Y190370D01*
Y186436D02*
X467868Y164338D01*
X416194Y190370D02*
X445770D01*
X405384Y179560D02*
X416194Y190370D01*
X454914Y91440D02*
X467868Y104394D01*
Y164338D01*
X376190Y179560D02*
X405384D01*
X402360Y71120D02*
X403122Y70358D01*
X220980Y131907D02*
Y194056D01*
X213106Y201930D02*
X220980Y194056D01*
X216813Y127740D02*
X220980Y131907D01*
X219710Y97282D02*
Y123422D01*
X215392Y127740D02*
X219710Y123422D01*
X454914Y62992D02*
Y91440D01*
X452120Y60198D02*
X454914Y62992D01*
X403122Y70358D02*
X413282Y60198D01*
X452120D01*
X91440Y46870D02*
X92710D01*
Y50800D01*
X91440Y17780D02*
Y46870D01*
X358394Y51816D02*
X361188Y54610D01*
X290600Y68580D02*
X307364Y51816D01*
X358394D01*
X349504Y30226D02*
X361188Y41910D01*
X306324Y30226D02*
X349504D01*
X219710Y97282D02*
X220980Y98552D01*
Y102870D01*
X403122Y70358D02*
X403884Y71120D01*
X420370D01*
X145880Y109220D02*
X148730Y112070D01*
X167300Y114130D02*
X167470D01*
X148730Y112070D02*
X163960D01*
X166370Y119500D02*
X175260Y128390D01*
X167520Y114180D02*
X179070D01*
X166580Y114850D02*
X167250Y114180D01*
X167300Y114130D01*
X166200Y114470D02*
X166370Y114640D01*
X166580Y114850D01*
X166370Y114180D02*
Y114640D01*
Y119500D01*
X445770Y416436D02*
Y420370D01*
Y416436D02*
X467868Y394338D01*
X416194Y420370D02*
X445770D01*
X405384Y409560D02*
X416194Y420370D01*
X454914Y321440D02*
X467868Y334394D01*
Y394338D01*
X376190Y409560D02*
X405384D01*
X402360Y301120D02*
X403122Y300358D01*
X220980Y361907D02*
Y424056D01*
X213106Y431930D02*
X220980Y424056D01*
X216813Y357740D02*
X220980Y361907D01*
X219710Y327282D02*
Y353422D01*
X215392Y357740D02*
X219710Y353422D01*
X454914Y292992D02*
Y321440D01*
X452120Y290198D02*
X454914Y292992D01*
X403122Y300358D02*
X413282Y290198D01*
X452120D01*
X91440Y276870D02*
X92710D01*
Y280800D01*
X91440Y247780D02*
Y276870D01*
X358394Y281816D02*
X361188Y284610D01*
X290600Y298580D02*
X307364Y281816D01*
X358394D01*
X349504Y260226D02*
X361188Y271910D01*
X306324Y260226D02*
X349504D01*
X219710Y327282D02*
X220980Y328552D01*
Y332870D01*
X403122Y300358D02*
X403884Y301120D01*
X420370D01*
X145880Y339220D02*
X148730Y342070D01*
X167300Y344130D02*
X167470D01*
X148730Y342070D02*
X163960D01*
X166370Y349500D02*
X175260Y358390D01*
X167520Y344180D02*
X179070D01*
X166580Y344850D02*
X167250Y344180D01*
X167300Y344130D01*
X166200Y344470D02*
X166370Y344640D01*
X166580Y344850D01*
X166370Y344180D02*
Y344640D01*
Y349500D01*
D20*
X190754Y201930D02*
X213106D01*
X185674Y196850D02*
X190754Y201930D01*
X215392Y127740D02*
X216813D01*
X198120D02*
X215392D01*
X179070Y189970D02*
X185674D01*
X178816D02*
X179070D01*
X185674D02*
Y196850D01*
X168634Y200152D02*
X178816Y189970D01*
X132080Y200152D02*
X168634D01*
X184658Y127740D02*
X198120D01*
X190754Y431930D02*
X213106D01*
X185674Y426850D02*
X190754Y431930D01*
X215392Y357740D02*
X216813D01*
X198120D02*
X215392D01*
X179070Y419970D02*
X185674D01*
X178816D02*
X179070D01*
X185674D02*
Y426850D01*
X168634Y430152D02*
X178816Y419970D01*
X132080Y430152D02*
X168634D01*
X184658Y357740D02*
X198120D01*
D21*
X184008Y128390D02*
X184658Y127740D01*
X175260Y128390D02*
X184008D01*
X126238Y194310D02*
X132080Y200152D01*
X126238Y181102D02*
Y194310D01*
Y181102D02*
X132080Y175260D01*
X143340D01*
X165862Y171958D02*
X201422D01*
X152818Y162560D02*
X165862Y171958D01*
X143340Y162560D02*
X152818D01*
X17900Y200152D02*
Y209550D01*
X145880Y96520D02*
X156989D01*
X167269Y86240D01*
X133604Y96520D02*
X145880D01*
X127254Y90170D02*
X133604Y96520D01*
X167269Y86240D02*
X173990D01*
X127254Y80010D02*
Y90170D01*
Y80010D02*
X134620Y72644D01*
X120650Y163830D02*
X132080Y175260D01*
X120650Y147320D02*
Y163830D01*
X166370Y114180D02*
X167250D01*
X167520D01*
X184008Y358390D02*
X184658Y357740D01*
X175260Y358390D02*
X184008D01*
X126238Y424310D02*
X132080Y430152D01*
X126238Y411102D02*
Y424310D01*
Y411102D02*
X132080Y405260D01*
X143340D01*
X165862Y401958D02*
X201422D01*
X152818Y392560D02*
X165862Y401958D01*
X143340Y392560D02*
X152818D01*
X17900Y430152D02*
Y439550D01*
X145880Y326520D02*
X156989D01*
X167269Y316240D01*
X133604Y326520D02*
X145880D01*
X127254Y320170D02*
X133604Y326520D01*
X167269Y316240D02*
X173990D01*
X127254Y310010D02*
Y320170D01*
Y310010D02*
X134620Y302644D01*
X120650Y393830D02*
X132080Y405260D01*
X120650Y377320D02*
Y393830D01*
X166370Y344180D02*
X167250D01*
X167520D01*
D22*
X361188Y128560D02*
X376190D01*
X400050D01*
X361188Y54610D02*
Y128560D01*
Y41910D02*
Y54610D01*
X345440Y196560D02*
X376190D01*
X351536Y162560D02*
X376190D01*
X337566Y188686D02*
X345440Y196560D01*
X337566Y176530D02*
Y188686D01*
X341860Y156210D02*
X351536Y162560D01*
X337566Y176530D02*
X351536Y162560D01*
X341860Y71120D02*
Y156210D01*
X418120Y110490D02*
X430530D01*
X400050Y128560D02*
X418120Y110490D01*
X361188Y358560D02*
X376190D01*
X400050D01*
X361188Y284610D02*
Y358560D01*
Y271910D02*
Y284610D01*
X345440Y426560D02*
X376190D01*
X351536Y392560D02*
X376190D01*
X337566Y418686D02*
X345440Y426560D01*
X337566Y406530D02*
Y418686D01*
X341860Y386210D02*
X351536Y392560D01*
X337566Y406530D02*
X351536Y392560D01*
X341860Y301120D02*
Y386210D01*
X418120Y340490D02*
X430530D01*
X400050Y358560D02*
X418120Y340490D01*
D23*
X271690Y162560D02*
X351536D01*
X460956Y44450D02*
X477520D01*
X269470Y107950D02*
X271690Y162560D01*
X230100Y68580D02*
X269470Y107950D01*
X456946Y40440D02*
X460956Y44450D01*
X440690Y40440D02*
X456946D01*
X230100Y68580D02*
X282932Y15748D01*
X433324D01*
X19050Y175260D02*
Y199002D01*
X17900Y200152D02*
X19050Y199002D01*
X134620Y72644D02*
X147066D01*
X168910Y50800D01*
X271690Y392560D02*
X351536D01*
X460956Y274450D02*
X477520D01*
X269470Y337950D02*
X271690Y392560D01*
X230100Y298580D02*
X269470Y337950D01*
X456946Y270440D02*
X460956Y274450D01*
X440690Y270440D02*
X456946D01*
X230100Y298580D02*
X282932Y245748D01*
X433324D01*
X19050Y405260D02*
Y429002D01*
X17900Y430152D02*
X19050Y429002D01*
X134620Y302644D02*
X147066D01*
X168910Y280800D01*
D24*
X440690Y28194D02*
Y40440D01*
Y23114D02*
Y28194D01*
X374904D02*
X440690D01*
X433324Y15748D02*
X440690Y23114D01*
Y258194D02*
Y270440D01*
Y253114D02*
Y258194D01*
X374904D02*
X440690D01*
X433324Y245748D02*
X440690Y253114D01*
D25*
X412384Y142370D02*
X445770D01*
X376190Y145560D02*
X409194D01*
X412384Y142370D01*
X78740Y175260D02*
X90340D01*
X53340Y149860D02*
X78740Y175260D01*
Y162560D02*
X90340D01*
X75946Y159766D02*
X78740Y162560D01*
X75946Y147066D02*
Y159766D01*
X42030Y186570D02*
X66428D01*
X53340Y124460D02*
X75946Y147066D01*
X42030Y135770D02*
Y186570D01*
Y135770D02*
X53340Y124460D01*
X63500Y109220D02*
X92880D01*
X53340Y99060D02*
X63500Y109220D01*
X76200Y96520D02*
X92880D01*
X53340Y73660D02*
X76200Y96520D01*
X193294Y93240D02*
X198120D01*
X193294Y89154D02*
Y93240D01*
X182880Y78740D02*
X193294Y89154D01*
X145880Y83820D02*
X160528D01*
X165608Y78740D02*
X182880D01*
X160528Y83820D02*
X165608Y78740D01*
X125200Y121920D02*
X145880D01*
X120120Y116840D02*
X125200Y121920D01*
X180340Y39370D02*
Y71240D01*
X173990D02*
X180340D01*
X137160Y39370D02*
X180340D01*
X132080Y44450D02*
X137160Y39370D01*
X104648Y80257D02*
Y83820D01*
X92880D02*
X104648D01*
X132080Y44450D02*
Y52825D01*
X104648Y80257D02*
X132080Y52825D01*
X143340Y149860D02*
X158242D01*
X191516Y189970D02*
X203200D01*
X167894Y182372D02*
X191516D01*
Y189970D01*
X143340Y187960D02*
X162306D01*
X167894Y182372D01*
X104902Y153162D02*
Y207010D01*
X101600Y149860D02*
X104902Y153162D01*
X90340Y149860D02*
X101600D01*
X32900Y209550D02*
X69088D01*
X208026Y144780D02*
Y155470D01*
Y144780D02*
X208280Y144526D01*
X203200Y155470D02*
X208026D01*
X80010Y134112D02*
X121920D01*
X109728Y84582D02*
X143510Y50800D01*
X109728Y121920D02*
X121920Y134112D01*
X109728Y84582D02*
Y121920D01*
X58420Y112522D02*
X80010Y134112D01*
X43942Y112522D02*
X58420D01*
X36830Y105410D02*
X43942Y112522D01*
X127508Y32512D02*
X142240Y17780D01*
X111252Y32512D02*
X127508D01*
X102870Y12700D02*
Y24130D01*
X111252Y32512D01*
X36830Y20320D02*
X50800Y6350D01*
X36830Y20320D02*
Y105410D01*
X96520Y6350D02*
X102870Y12700D01*
X50800Y6350D02*
X96520D01*
X183642Y99180D02*
X187960Y103498D01*
X175260Y99180D02*
X183642D01*
X178562Y6350D02*
X212090Y39878D01*
X147320Y32512D02*
X153670Y26162D01*
X147320Y6350D02*
X178562D01*
X153670Y12700D02*
Y26162D01*
X136398Y32512D02*
X147320D01*
Y6350D02*
X153670Y12700D01*
X118110Y50800D02*
X136398Y32512D01*
X128270Y6350D02*
X147320D01*
X116840Y17780D02*
X128270Y6350D01*
X187960Y103498D02*
X208280D01*
X210820Y98662D02*
X212090Y97392D01*
X210820Y98662D02*
Y100958D01*
X208280Y103498D02*
X210820Y100958D01*
X212090Y39878D02*
Y97392D01*
X445770Y108900D02*
Y142370D01*
X440690Y78940D02*
Y103820D01*
X445770Y108900D01*
X193040Y76200D02*
X193294Y76454D01*
Y89154D01*
X66428Y186570D02*
X82550Y202692D01*
Y203200D01*
X72898Y213360D02*
X98552D01*
X69088Y209550D02*
X72898Y213360D01*
X98552D02*
X104902Y207010D01*
X163852Y155470D02*
X179070D01*
X158242Y149860D02*
X163852Y155470D01*
X121920Y134112D02*
X162814D01*
X171450Y142748D01*
X172092Y143390D01*
X175260D01*
X163852Y155470D02*
X164548Y154773D01*
X168525Y158750D01*
X168910D01*
X412384Y372370D02*
X445770D01*
X376190Y375560D02*
X409194D01*
X412384Y372370D01*
X78740Y405260D02*
X90340D01*
X53340Y379860D02*
X78740Y405260D01*
Y392560D02*
X90340D01*
X75946Y389766D02*
X78740Y392560D01*
X75946Y377066D02*
Y389766D01*
X42030Y416570D02*
X66428D01*
X53340Y354460D02*
X75946Y377066D01*
X42030Y365770D02*
Y416570D01*
Y365770D02*
X53340Y354460D01*
X63500Y339220D02*
X92880D01*
X53340Y329060D02*
X63500Y339220D01*
X76200Y326520D02*
X92880D01*
X53340Y303660D02*
X76200Y326520D01*
X193294Y323240D02*
X198120D01*
X193294Y319154D02*
Y323240D01*
X182880Y308740D02*
X193294Y319154D01*
X145880Y313820D02*
X160528D01*
X165608Y308740D02*
X182880D01*
X160528Y313820D02*
X165608Y308740D01*
X125200Y351920D02*
X145880D01*
X120120Y346840D02*
X125200Y351920D01*
X180340Y269370D02*
Y301240D01*
X173990D02*
X180340D01*
X137160Y269370D02*
X180340D01*
X132080Y274450D02*
X137160Y269370D01*
X104648Y310257D02*
Y313820D01*
X92880D02*
X104648D01*
X132080Y274450D02*
Y282825D01*
X104648Y310257D02*
X132080Y282825D01*
X143340Y379860D02*
X158242D01*
X191516Y419970D02*
X203200D01*
X167894Y412372D02*
X191516D01*
Y419970D01*
X143340Y417960D02*
X162306D01*
X167894Y412372D01*
X104902Y383162D02*
Y437010D01*
X101600Y379860D02*
X104902Y383162D01*
X90340Y379860D02*
X101600D01*
X32900Y439550D02*
X69088D01*
X208026Y374780D02*
Y385470D01*
Y374780D02*
X208280Y374526D01*
X203200Y385470D02*
X208026D01*
X80010Y364112D02*
X121920D01*
X109728Y314582D02*
X143510Y280800D01*
X109728Y351920D02*
X121920Y364112D01*
X109728Y314582D02*
Y351920D01*
X58420Y342522D02*
X80010Y364112D01*
X43942Y342522D02*
X58420D01*
X36830Y335410D02*
X43942Y342522D01*
X127508Y262512D02*
X142240Y247780D01*
X111252Y262512D02*
X127508D01*
X102870Y242700D02*
Y254130D01*
X111252Y262512D01*
X36830Y250320D02*
X50800Y236350D01*
X36830Y250320D02*
Y335410D01*
X96520Y236350D02*
X102870Y242700D01*
X50800Y236350D02*
X96520D01*
X183642Y329180D02*
X187960Y333498D01*
X175260Y329180D02*
X183642D01*
X178562Y236350D02*
X212090Y269878D01*
X147320Y262512D02*
X153670Y256162D01*
X147320Y236350D02*
X178562D01*
X153670Y242700D02*
Y256162D01*
X136398Y262512D02*
X147320D01*
Y236350D02*
X153670Y242700D01*
X118110Y280800D02*
X136398Y262512D01*
X128270Y236350D02*
X147320D01*
X116840Y247780D02*
X128270Y236350D01*
X187960Y333498D02*
X208280D01*
X210820Y328662D02*
X212090Y327392D01*
X210820Y328662D02*
Y330958D01*
X208280Y333498D02*
X210820Y330958D01*
X212090Y269878D02*
Y327392D01*
X445770Y338900D02*
Y372370D01*
X440690Y308940D02*
Y333820D01*
X445770Y338900D01*
X193040Y306200D02*
X193294Y306454D01*
Y319154D01*
X66428Y416570D02*
X82550Y432692D01*
Y433200D01*
X72898Y443360D02*
X98552D01*
X69088Y439550D02*
X72898Y443360D01*
X98552D02*
X104902Y437010D01*
X163852Y385470D02*
X179070D01*
X158242Y379860D02*
X163852Y385470D01*
X121920Y364112D02*
X162814D01*
X171450Y372748D01*
X172092Y373390D01*
X175260D01*
X163852Y385470D02*
X164548Y384773D01*
X168525Y388750D01*
X168910D01*
D26*
X477520Y69850D02*
D03*
X19050Y48260D02*
D03*
Y73660D02*
D03*
Y99060D02*
D03*
Y124460D02*
D03*
Y149860D02*
D03*
X53340Y48260D02*
D03*
Y73660D02*
D03*
Y99060D02*
D03*
Y124460D02*
D03*
Y149860D02*
D03*
X142240Y17780D02*
D03*
X116840D02*
D03*
X91440D02*
D03*
X143510Y50800D02*
D03*
X118110D02*
D03*
X92710D02*
D03*
X477520Y299850D02*
D03*
X19050Y278260D02*
D03*
Y303660D02*
D03*
Y329060D02*
D03*
Y354460D02*
D03*
Y379860D02*
D03*
X53340Y278260D02*
D03*
Y303660D02*
D03*
Y329060D02*
D03*
Y354460D02*
D03*
Y379860D02*
D03*
X142240Y247780D02*
D03*
X116840D02*
D03*
X91440D02*
D03*
X143510Y280800D02*
D03*
X118110D02*
D03*
X92710D02*
D03*
D27*
X477520Y44450D02*
D03*
X19050Y175260D02*
D03*
X53340D02*
D03*
X477520Y274450D02*
D03*
X19050Y405260D02*
D03*
X53340D02*
D03*
D28*
X167640Y17780D02*
D03*
X168910Y50800D02*
D03*
X167640Y247780D02*
D03*
X168910Y280800D02*
D03*
D29*
X306324Y30226D02*
D03*
X374904Y28194D02*
D03*
X201422Y171958D02*
D03*
X120120Y116840D02*
D03*
X208280Y144526D02*
D03*
X220980Y102870D02*
D03*
X430530Y110490D02*
D03*
X420370Y71120D02*
D03*
X193040Y76200D02*
D03*
X120650Y147320D02*
D03*
X167470Y114130D02*
D03*
X82550Y203200D02*
D03*
X168910Y158750D02*
D03*
X306324Y260226D02*
D03*
X374904Y258194D02*
D03*
X201422Y401958D02*
D03*
X120120Y346840D02*
D03*
X208280Y374526D02*
D03*
X220980Y332870D02*
D03*
X430530Y340490D02*
D03*
X420370Y301120D02*
D03*
X193040Y306200D02*
D03*
X120650Y377320D02*
D03*
X167470Y344130D02*
D03*
X82550Y433200D02*
D03*
X168910Y388750D02*
D03*
M02*
