G04 Layer_Color=16711935*
%FSLAX25Y25*%
%MOIN*%
G70*
G01*
G75*
%ADD30C,0.06706*%
%ADD31R,0.06706X0.06706*%
%ADD32C,0.06800*%
%ADD33R,0.04599X0.04147*%
%ADD34R,0.05288X0.05524*%
%ADD35R,0.06312X0.13792*%
%ADD36R,0.05524X0.05288*%
%ADD37O,0.06509X0.03162*%
D30*
X78000Y29500D02*
D03*
Y49000D02*
D03*
X43500Y6500D02*
D03*
X53500D02*
D03*
X63500D02*
D03*
X16000Y31500D02*
D03*
Y19500D02*
D03*
X58500Y96500D02*
D03*
X48500D02*
D03*
X38500D02*
D03*
X28500D02*
D03*
X77500Y84500D02*
D03*
D31*
X88000Y29500D02*
D03*
Y49000D02*
D03*
X33500Y6500D02*
D03*
X6000Y31500D02*
D03*
Y19500D02*
D03*
X68500Y96500D02*
D03*
X87500Y84500D02*
D03*
D32*
X11811Y90551D02*
D03*
X82677Y11811D02*
D03*
D33*
X83496Y76000D02*
D03*
X77000D02*
D03*
X81000Y40000D02*
D03*
X74504D02*
D03*
X45504Y79000D02*
D03*
X52000D02*
D03*
D34*
X20000Y49000D02*
D03*
X27520D02*
D03*
X61000Y56000D02*
D03*
X68520D02*
D03*
D35*
X48039Y19000D02*
D03*
X63000D02*
D03*
D36*
X61000Y62480D02*
D03*
Y70000D02*
D03*
X68000Y62480D02*
D03*
Y70000D02*
D03*
X47500Y37240D02*
D03*
Y44760D02*
D03*
X55000Y37240D02*
D03*
Y44760D02*
D03*
X64500Y36740D02*
D03*
Y44260D02*
D03*
X75000Y62480D02*
D03*
Y70000D02*
D03*
D37*
X32043Y56500D02*
D03*
Y61500D02*
D03*
Y66500D02*
D03*
Y71500D02*
D03*
X53500Y56500D02*
D03*
Y61500D02*
D03*
Y66500D02*
D03*
Y71500D02*
D03*
M02*
