G04 Layer_Color=255*
%FSLAX25Y25*%
%MOIN*%
G70*
G01*
G75*
%ADD14C,0.05905*%
%ADD15R,0.05905X0.05905*%
%ADD16C,0.06000*%
%ADD18R,0.03799X0.03347*%
%ADD19R,0.04488X0.04724*%
%ADD20R,0.05512X0.12992*%
%ADD21R,0.04724X0.04488*%
%ADD22O,0.05709X0.02362*%
D14*
X78000Y29500D02*
D03*
Y49000D02*
D03*
X43500Y6500D02*
D03*
X53500D02*
D03*
X63500D02*
D03*
X16000Y31500D02*
D03*
Y19500D02*
D03*
X58500Y96500D02*
D03*
X48500D02*
D03*
X38500D02*
D03*
X28500D02*
D03*
X77500Y84500D02*
D03*
D15*
X88000Y29500D02*
D03*
Y49000D02*
D03*
X33500Y6500D02*
D03*
X6000Y31500D02*
D03*
Y19500D02*
D03*
X68500Y96500D02*
D03*
X87500Y84500D02*
D03*
D16*
X11811Y90551D02*
D03*
X82677Y11811D02*
D03*
D18*
X83496Y76000D02*
D03*
X77000D02*
D03*
X81000Y40000D02*
D03*
X74504D02*
D03*
X45504Y79000D02*
D03*
X52000D02*
D03*
D19*
X20000Y49000D02*
D03*
X27520D02*
D03*
X61000Y56000D02*
D03*
X68520D02*
D03*
D20*
X48039Y19000D02*
D03*
X63000D02*
D03*
D21*
X61000Y62480D02*
D03*
Y70000D02*
D03*
X68000Y62480D02*
D03*
Y70000D02*
D03*
X47500Y37240D02*
D03*
Y44760D02*
D03*
X55000Y37240D02*
D03*
Y44760D02*
D03*
X64500Y36740D02*
D03*
Y44260D02*
D03*
X75000Y62480D02*
D03*
Y70000D02*
D03*
D22*
X32043Y56500D02*
D03*
Y61500D02*
D03*
Y66500D02*
D03*
Y71500D02*
D03*
X53500Y56500D02*
D03*
Y61500D02*
D03*
Y66500D02*
D03*
Y71500D02*
D03*
M02*
