M48
;Layer_Color=9474304
;FILE_FORMAT=2:5
INCH,LZ
;TYPE=PLATED
T1F00S00C0.01181
T2F00S00C0.03543
T3F00S00C0.11811
%
T01
X0003Y0007
X0009
X0015
X0021
X0027
X003Y0013
X0024
X0018
X0012
X0006
Y0025
X0012
X0018
Y0037
X0012
X0006
X0009Y0043
X0015
X0021
X0012Y0049
X0006
X0009Y0055
X0003
X0006Y0061
X0009Y0067
X0003
X0006Y0073
X0012
X0042
Y0061
X0045Y0055
X0039
X0045Y0031
X0039Y0019
X0042Y0013
X0003Y0043
X0045Y0091
X0051
X0057
X0054Y0085
X0048
X00455Y00645
X0048Y0061
X006Y004452
X0057Y0031
X0051
X0054Y0025
X0057Y0019
X0054Y0013
X0072Y0025
X009Y0037
X0087Y0043
Y0091
X0081
X0075
X0078Y0097
X0084
X009
T02
X0006Y00195
X0016
Y00315
X0006
X00335Y00065
X00435
X00385Y00965
X00285
X00485
X00585
X00685
X00775Y00845
X00875
X0088Y0049
X0078
Y00295
X0088
X00635Y00065
X00535
T03
X0011811Y0090551
X0082677Y0011811
M30
