G04 Layer_Physical_Order=1*
G04 Layer_Color=255*
%FSLAX25Y25*%
%MOIN*%
G70*
G01*
G75*
%ADD10R,0.03347X0.03799*%
%ADD11O,0.09055X0.02362*%
%ADD12C,0.01000*%
%ADD13C,0.04724*%
%ADD14C,0.05905*%
%ADD15R,0.05905X0.05905*%
%ADD16C,0.06000*%
%ADD17C,0.02362*%
G36*
X94488Y23622D02*
X71004D01*
X70569Y23999D01*
X70668Y24500D01*
X70485Y25422D01*
X69963Y26203D01*
X69182Y26725D01*
X69081Y26745D01*
Y27255D01*
X69182Y27275D01*
X69946Y27786D01*
X74235D01*
X74389Y27415D01*
X75052Y26552D01*
X75915Y25889D01*
X76921Y25473D01*
X78000Y25330D01*
X79079Y25473D01*
X80085Y25889D01*
X80948Y26552D01*
X81611Y27415D01*
X82027Y28421D01*
X82170Y29500D01*
X82027Y30579D01*
X81611Y31585D01*
X80948Y32448D01*
X80085Y33111D01*
X79079Y33527D01*
X78000Y33669D01*
X76921Y33527D01*
X75915Y33111D01*
X75052Y32448D01*
X74389Y31585D01*
X74235Y31214D01*
X69946D01*
X69182Y31725D01*
X69081Y31745D01*
Y32255D01*
X69182Y32275D01*
X69963Y32797D01*
X70485Y33578D01*
X70668Y34500D01*
X70485Y35422D01*
X69963Y36203D01*
X69182Y36725D01*
X68617Y36837D01*
Y37347D01*
X69111Y37445D01*
X69832Y37927D01*
X70314Y38649D01*
X70384Y39000D01*
X64913D01*
X59443D01*
X59512Y38649D01*
X59994Y37927D01*
X60716Y37445D01*
X61210Y37347D01*
Y36837D01*
X60645Y36725D01*
X59864Y36203D01*
X59342Y35422D01*
X59158Y34500D01*
X59342Y33578D01*
X59864Y32797D01*
X60645Y32275D01*
X60746Y32255D01*
Y31745D01*
X60645Y31725D01*
X59864Y31203D01*
X59342Y30422D01*
X59158Y29500D01*
X59342Y28578D01*
X59864Y27797D01*
X60645Y27275D01*
X60746Y27255D01*
Y26745D01*
X60645Y26725D01*
X59864Y26203D01*
X59342Y25422D01*
X59158Y24500D01*
X59342Y23578D01*
X59864Y22797D01*
X60645Y22275D01*
X60746Y22255D01*
Y21745D01*
X60645Y21725D01*
X59864Y21203D01*
X59342Y20422D01*
X59158Y19500D01*
X59342Y18578D01*
X59864Y17797D01*
X60645Y17275D01*
X61061Y17192D01*
X61226Y16650D01*
X54950Y10374D01*
X54579Y10527D01*
X53500Y10669D01*
X52421Y10527D01*
X51415Y10111D01*
X50552Y9448D01*
X49889Y8585D01*
X49473Y7579D01*
X49330Y6500D01*
X49473Y5421D01*
X49889Y4415D01*
X50552Y3552D01*
X51415Y2889D01*
X52421Y2473D01*
X53500Y2331D01*
X54579Y2473D01*
X55585Y2889D01*
X56448Y3552D01*
X57111Y4415D01*
X57527Y5421D01*
X57670Y6500D01*
X57527Y7579D01*
X57374Y7950D01*
X59116Y9692D01*
X59493Y9362D01*
X59201Y8982D01*
X58705Y7785D01*
X58536Y6500D01*
X58705Y5215D01*
X59201Y4018D01*
X59990Y2990D01*
X61018Y2201D01*
X62215Y1705D01*
X63500Y1536D01*
X64785Y1705D01*
X65982Y2201D01*
X67010Y2990D01*
X67799Y4018D01*
X68295Y5215D01*
X68464Y6500D01*
X68295Y7785D01*
X67799Y8982D01*
X67010Y10010D01*
X65982Y10799D01*
X64785Y11295D01*
X63500Y11464D01*
X62215Y11295D01*
X61018Y10799D01*
X60638Y10507D01*
X60308Y10884D01*
X66125Y16701D01*
X66386Y17091D01*
X68260D01*
X69182Y17275D01*
X69963Y17797D01*
X70366Y18400D01*
X70866Y18249D01*
Y0D01*
X0D01*
Y78740D01*
X13327D01*
Y76500D01*
X18673D01*
Y78740D01*
X23483D01*
X23515Y78578D01*
X24037Y77797D01*
X24818Y77275D01*
X24919Y77255D01*
Y76745D01*
X24818Y76725D01*
X24037Y76203D01*
X23515Y75422D01*
X23332Y74500D01*
X23515Y73578D01*
X24037Y72797D01*
X24818Y72275D01*
X24919Y72255D01*
Y71745D01*
X24818Y71725D01*
X24059Y71218D01*
X18854D01*
Y72585D01*
X13146D01*
Y66423D01*
Y60667D01*
X13146Y60667D01*
Y60333D01*
X13146D01*
X13146Y60167D01*
Y54171D01*
X18854D01*
Y58182D01*
X23458Y62786D01*
X24054D01*
X24818Y62275D01*
X24919Y62255D01*
Y61745D01*
X24818Y61725D01*
X24037Y61203D01*
X23515Y60422D01*
X23332Y59500D01*
X23515Y58578D01*
X24037Y57797D01*
X24818Y57275D01*
X24919Y57255D01*
Y56745D01*
X24818Y56725D01*
X24037Y56203D01*
X23515Y55422D01*
X23332Y54500D01*
X23515Y53578D01*
X24037Y52797D01*
X24818Y52275D01*
X25383Y52163D01*
Y51653D01*
X24889Y51555D01*
X24168Y51073D01*
X23686Y50351D01*
X23616Y50000D01*
X29087D01*
X34558D01*
X34488Y50351D01*
X34006Y51073D01*
X33284Y51555D01*
X32790Y51653D01*
Y52163D01*
X33355Y52275D01*
X34136Y52797D01*
X34658Y53578D01*
X34842Y54500D01*
X34658Y55422D01*
X34136Y56203D01*
X33355Y56725D01*
X33255Y56745D01*
Y57255D01*
X33355Y57275D01*
X34136Y57797D01*
X34658Y58578D01*
X34842Y59500D01*
X34658Y60422D01*
X34136Y61203D01*
X33355Y61725D01*
X33255Y61745D01*
Y62255D01*
X33355Y62275D01*
X34120Y62786D01*
X43813D01*
X44578Y62275D01*
X45500Y62091D01*
X46422Y62275D01*
X47203Y62797D01*
X47725Y63578D01*
X47908Y64500D01*
X47725Y65422D01*
X47203Y66203D01*
X46422Y66725D01*
X45500Y66909D01*
X44578Y66725D01*
X43813Y66214D01*
X34120D01*
X33355Y66725D01*
X33255Y66745D01*
Y67255D01*
X33355Y67275D01*
X34136Y67797D01*
X34658Y68578D01*
X34842Y69500D01*
X34658Y70422D01*
X34136Y71203D01*
X33355Y71725D01*
X33255Y71745D01*
Y72255D01*
X33355Y72275D01*
X34136Y72797D01*
X34658Y73578D01*
X34842Y74500D01*
X34658Y75422D01*
X34136Y76203D01*
X33355Y76725D01*
X33255Y76745D01*
Y77255D01*
X33355Y77275D01*
X34136Y77797D01*
X34658Y78578D01*
X34842Y79500D01*
X34658Y80422D01*
X34136Y81203D01*
X33355Y81725D01*
X33255Y81745D01*
Y82255D01*
X33355Y82275D01*
X34136Y82797D01*
X34658Y83578D01*
X34842Y84500D01*
X34658Y85422D01*
X34136Y86203D01*
X33355Y86725D01*
X32433Y86909D01*
X30801D01*
Y93055D01*
X31448Y93552D01*
X32111Y94415D01*
X32527Y95421D01*
X32669Y96500D01*
X32527Y97579D01*
X32111Y98585D01*
X31448Y99448D01*
X30585Y100111D01*
X29579Y100527D01*
X28500Y100670D01*
X27421Y100527D01*
X26415Y100111D01*
X25552Y99448D01*
X24889Y98585D01*
X24473Y97579D01*
X24330Y96500D01*
X24473Y95421D01*
X24889Y94415D01*
X25552Y93552D01*
X26415Y92889D01*
X27373Y92493D01*
Y86909D01*
X25740D01*
X24818Y86725D01*
X24122Y86260D01*
X23622Y86413D01*
Y102362D01*
X94488D01*
Y23622D01*
D02*
G37*
%LPC*%
G36*
X87500Y33453D02*
X84047D01*
Y30000D01*
X87500D01*
Y33453D01*
D02*
G37*
G36*
X5500Y31000D02*
X2047D01*
Y27547D01*
X5500D01*
Y31000D01*
D02*
G37*
G36*
X9953D02*
X6500D01*
Y27547D01*
X9953D01*
Y31000D01*
D02*
G37*
G36*
X5500Y35453D02*
X2047D01*
Y32000D01*
X5500D01*
Y35453D01*
D02*
G37*
G36*
X9953D02*
X6500D01*
Y32000D01*
X9953D01*
Y35453D01*
D02*
G37*
G36*
X91953Y33453D02*
X88500D01*
Y30000D01*
X91953D01*
Y33453D01*
D02*
G37*
G36*
X34558Y49000D02*
X29087D01*
X23616D01*
X23686Y48649D01*
X24168Y47927D01*
X24889Y47445D01*
X25383Y47347D01*
Y46837D01*
X24818Y46725D01*
X24037Y46203D01*
X23515Y45422D01*
X23332Y44500D01*
X23515Y43578D01*
X24037Y42797D01*
X24818Y42275D01*
X24919Y42255D01*
Y41745D01*
X24818Y41725D01*
X24037Y41203D01*
X23515Y40422D01*
X23332Y39500D01*
X23515Y38578D01*
X24037Y37797D01*
X24818Y37275D01*
X24919Y37255D01*
Y36745D01*
X24818Y36725D01*
X24037Y36203D01*
X23515Y35422D01*
X23332Y34500D01*
X23515Y33578D01*
X24037Y32797D01*
X24818Y32275D01*
X24919Y32255D01*
Y31745D01*
X24818Y31725D01*
X24054Y31214D01*
X23210D01*
X21712Y32712D01*
X21156Y33084D01*
X20500Y33214D01*
X19764D01*
X19611Y33585D01*
X18948Y34448D01*
X18085Y35111D01*
X17079Y35527D01*
X16000Y35669D01*
X14921Y35527D01*
X13915Y35111D01*
X13052Y34448D01*
X12389Y33585D01*
X11972Y32579D01*
X11830Y31500D01*
X11972Y30421D01*
X12389Y29415D01*
X13052Y28552D01*
X13915Y27889D01*
X14921Y27473D01*
X16000Y27330D01*
X17079Y27473D01*
X18085Y27889D01*
X18948Y28552D01*
X19543Y29326D01*
X19899Y29419D01*
X20155Y29421D01*
X21288Y28288D01*
X21844Y27916D01*
X22500Y27786D01*
X24054D01*
X24818Y27275D01*
X24919Y27255D01*
Y26745D01*
X24818Y26725D01*
X24054Y26214D01*
X23500D01*
X22844Y26084D01*
X22288Y25712D01*
X19020Y22444D01*
X18948Y22448D01*
X18085Y23111D01*
X17079Y23527D01*
X16000Y23670D01*
X14921Y23527D01*
X13915Y23111D01*
X13052Y22448D01*
X12389Y21585D01*
X11972Y20579D01*
X11830Y19500D01*
X11972Y18421D01*
X12389Y17415D01*
X13052Y16552D01*
X13915Y15889D01*
X14921Y15473D01*
X16000Y15330D01*
X17079Y15473D01*
X18085Y15889D01*
X18948Y16552D01*
X19611Y17415D01*
X20027Y18421D01*
X20055Y18631D01*
X24147Y22723D01*
X24818Y22275D01*
X24919Y22255D01*
Y21745D01*
X24818Y21725D01*
X24037Y21203D01*
X23515Y20422D01*
X23332Y19500D01*
X23515Y18578D01*
X24037Y17797D01*
X24818Y17275D01*
X25740Y17091D01*
X29071D01*
X35248Y10915D01*
X35057Y10453D01*
X34000D01*
Y7000D01*
X37453D01*
Y8057D01*
X37915Y8248D01*
X39369Y6793D01*
X39331Y6500D01*
X39473Y5421D01*
X39889Y4415D01*
X40552Y3552D01*
X41415Y2889D01*
X42421Y2473D01*
X43500Y2331D01*
X44579Y2473D01*
X45585Y2889D01*
X46448Y3552D01*
X47111Y4415D01*
X47527Y5421D01*
X47670Y6500D01*
X47527Y7579D01*
X47111Y8585D01*
X46448Y9448D01*
X45585Y10111D01*
X44579Y10527D01*
X43500Y10669D01*
X42421Y10527D01*
X41415Y10111D01*
X41124Y9887D01*
X33862Y17149D01*
X33911Y17646D01*
X34136Y17797D01*
X34658Y18578D01*
X34842Y19500D01*
X34658Y20422D01*
X34136Y21203D01*
X33355Y21725D01*
X33255Y21745D01*
Y22255D01*
X33355Y22275D01*
X34136Y22797D01*
X34658Y23578D01*
X34842Y24500D01*
X34658Y25422D01*
X34136Y26203D01*
X33355Y26725D01*
X33255Y26745D01*
Y27255D01*
X33355Y27275D01*
X34136Y27797D01*
X34658Y28578D01*
X34842Y29500D01*
X34658Y30422D01*
X34136Y31203D01*
X33355Y31725D01*
X33255Y31745D01*
Y32255D01*
X33355Y32275D01*
X34136Y32797D01*
X34658Y33578D01*
X34842Y34500D01*
X34658Y35422D01*
X34136Y36203D01*
X33355Y36725D01*
X33255Y36745D01*
Y37255D01*
X33355Y37275D01*
X34136Y37797D01*
X34658Y38578D01*
X34842Y39500D01*
X34658Y40422D01*
X34136Y41203D01*
X33355Y41725D01*
X33255Y41745D01*
Y42255D01*
X33355Y42275D01*
X34136Y42797D01*
X34658Y43578D01*
X34842Y44500D01*
X34658Y45422D01*
X34136Y46203D01*
X33355Y46725D01*
X32790Y46837D01*
Y47347D01*
X33284Y47445D01*
X34006Y47927D01*
X34488Y48649D01*
X34558Y49000D01*
D02*
G37*
G36*
X91953Y29000D02*
X88500D01*
Y25547D01*
X91953D01*
Y29000D01*
D02*
G37*
G36*
X33000Y10453D02*
X29547D01*
Y7000D01*
X33000D01*
Y10453D01*
D02*
G37*
G36*
X5500Y19000D02*
X2047D01*
Y15547D01*
X5500D01*
Y19000D01*
D02*
G37*
G36*
X33000Y6000D02*
X29547D01*
Y2547D01*
X33000D01*
Y6000D01*
D02*
G37*
G36*
X37453D02*
X34000D01*
Y2547D01*
X37453D01*
Y6000D01*
D02*
G37*
G36*
X9953Y23453D02*
X6500D01*
Y20000D01*
X9953D01*
Y23453D01*
D02*
G37*
G36*
X87500Y29000D02*
X84047D01*
Y25547D01*
X87500D01*
Y29000D01*
D02*
G37*
G36*
X9953Y19000D02*
X6500D01*
Y15547D01*
X9953D01*
Y19000D01*
D02*
G37*
G36*
X5500Y23453D02*
X2047D01*
Y20000D01*
X5500D01*
Y23453D01*
D02*
G37*
G36*
X91453Y88453D02*
X88000D01*
Y85000D01*
X91453D01*
Y88453D01*
D02*
G37*
G36*
X38500Y101464D02*
X37215Y101295D01*
X36018Y100799D01*
X34990Y100010D01*
X34201Y98982D01*
X33705Y97785D01*
X33536Y96500D01*
X33705Y95215D01*
X34201Y94018D01*
X34990Y92990D01*
X36018Y92201D01*
X37215Y91705D01*
X38500Y91536D01*
X39785Y91705D01*
X40982Y92201D01*
X42010Y92990D01*
X42799Y94018D01*
X43295Y95215D01*
X43464Y96500D01*
X43295Y97785D01*
X42799Y98982D01*
X42010Y100010D01*
X40982Y100799D01*
X39785Y101295D01*
X38500Y101464D01*
D02*
G37*
G36*
X91453Y84000D02*
X88000D01*
Y80547D01*
X91453D01*
Y84000D01*
D02*
G37*
G36*
X87000Y88453D02*
X83547D01*
Y85000D01*
X87000D01*
Y88453D01*
D02*
G37*
G36*
X48000Y100421D02*
X47468Y100351D01*
X46507Y99953D01*
X45681Y99319D01*
X45047Y98493D01*
X44649Y97532D01*
X44579Y97000D01*
X48000D01*
Y100421D01*
D02*
G37*
G36*
X49000D02*
Y97000D01*
X52421D01*
X52351Y97532D01*
X51953Y98493D01*
X51319Y99319D01*
X50493Y99953D01*
X49532Y100351D01*
X49000Y100421D01*
D02*
G37*
G36*
X48000Y96000D02*
X44579D01*
X44649Y95468D01*
X45047Y94507D01*
X45681Y93681D01*
X46507Y93047D01*
X47468Y92649D01*
X48000Y92579D01*
Y96000D01*
D02*
G37*
G36*
X52421D02*
X49000D01*
Y92579D01*
X49532Y92649D01*
X50493Y93047D01*
X51319Y93681D01*
X51953Y94507D01*
X52351Y95468D01*
X52421Y96000D01*
D02*
G37*
G36*
X91953Y48500D02*
X88500D01*
Y45047D01*
X91953D01*
Y48500D01*
D02*
G37*
G36*
X87500Y52953D02*
X84047D01*
Y49500D01*
X87500D01*
Y52953D01*
D02*
G37*
G36*
X58500Y100670D02*
X57421Y100527D01*
X56415Y100111D01*
X55552Y99448D01*
X54889Y98585D01*
X54473Y97579D01*
X54330Y96500D01*
X54473Y95421D01*
X54889Y94415D01*
X55552Y93552D01*
X56415Y92889D01*
X57421Y92473D01*
X58500Y92330D01*
X59579Y92473D01*
X59950Y92626D01*
X63199Y89377D01*
Y86909D01*
X61567D01*
X60645Y86725D01*
X59864Y86203D01*
X59342Y85422D01*
X59158Y84500D01*
X59342Y83578D01*
X59864Y82797D01*
X60645Y82275D01*
X60746Y82255D01*
Y81745D01*
X60645Y81725D01*
X59864Y81203D01*
X59342Y80422D01*
X59158Y79500D01*
X59342Y78578D01*
X59864Y77797D01*
X60645Y77275D01*
X60746Y77255D01*
Y76745D01*
X60645Y76725D01*
X59864Y76203D01*
X59342Y75422D01*
X59158Y74500D01*
X59342Y73578D01*
X59864Y72797D01*
X60645Y72275D01*
X60746Y72255D01*
Y71745D01*
X60645Y71725D01*
X59864Y71203D01*
X59342Y70422D01*
X59158Y69500D01*
X59342Y68578D01*
X59864Y67797D01*
X60645Y67275D01*
X60746Y67255D01*
Y66745D01*
X60645Y66725D01*
X59864Y66203D01*
X59342Y65422D01*
X59158Y64500D01*
X59342Y63578D01*
X59864Y62797D01*
X60645Y62275D01*
X60746Y62255D01*
Y61745D01*
X60645Y61725D01*
X59864Y61203D01*
X59342Y60422D01*
X59158Y59500D01*
X59342Y58578D01*
X59864Y57797D01*
X60645Y57275D01*
X60746Y57255D01*
Y56745D01*
X60645Y56725D01*
X59864Y56203D01*
X59342Y55422D01*
X59158Y54500D01*
X59342Y53578D01*
X59864Y52797D01*
X60645Y52275D01*
X60746Y52255D01*
Y51745D01*
X60645Y51725D01*
X59864Y51203D01*
X59342Y50422D01*
X59158Y49500D01*
X59227Y49154D01*
X58936Y48748D01*
X58869Y48739D01*
X57816Y48303D01*
X56911Y47608D01*
X56217Y46704D01*
X55781Y45650D01*
X55632Y44520D01*
X55781Y43389D01*
X56217Y42336D01*
X56911Y41431D01*
X57816Y40737D01*
X58869Y40301D01*
X59124Y40267D01*
X59315Y40000D01*
X64913D01*
X70384D01*
X70314Y40351D01*
X69832Y41072D01*
X69655Y41191D01*
X69704Y41689D01*
X69848Y41749D01*
X70506Y42254D01*
X71011Y42912D01*
X71328Y43678D01*
X71437Y44500D01*
X71328Y45322D01*
X71011Y46088D01*
X70506Y46746D01*
X70251Y46942D01*
X70185Y47593D01*
X70355Y47786D01*
X74028D01*
X74389Y46915D01*
X75052Y46052D01*
X75915Y45389D01*
X76921Y44973D01*
X78000Y44831D01*
X79079Y44973D01*
X80085Y45389D01*
X80948Y46052D01*
X81611Y46915D01*
X82027Y47921D01*
X82170Y49000D01*
X82027Y50079D01*
X81611Y51085D01*
X80948Y51948D01*
X80085Y52611D01*
X79079Y53027D01*
X78000Y53170D01*
X76921Y53027D01*
X75915Y52611D01*
X75052Y51948D01*
X74488Y51214D01*
X69946D01*
X69182Y51725D01*
X69081Y51745D01*
Y52255D01*
X69182Y52275D01*
X69963Y52797D01*
X70485Y53578D01*
X70668Y54500D01*
X70485Y55422D01*
X69963Y56203D01*
X69182Y56725D01*
X69081Y56745D01*
Y57255D01*
X69182Y57275D01*
X69946Y57786D01*
X72500D01*
X73156Y57916D01*
X73712Y58288D01*
X78712Y63288D01*
X79084Y63844D01*
X79214Y64500D01*
Y80735D01*
X79585Y80889D01*
X80448Y81552D01*
X81111Y82415D01*
X81527Y83421D01*
X81669Y84500D01*
X81527Y85579D01*
X81111Y86585D01*
X80448Y87448D01*
X79585Y88111D01*
X78579Y88527D01*
X77500Y88670D01*
X76421Y88527D01*
X75415Y88111D01*
X74552Y87448D01*
X74048Y86792D01*
X73988Y86774D01*
X73476Y86820D01*
X73473Y86822D01*
X73212Y87212D01*
X70214Y90210D01*
Y92366D01*
X72634D01*
Y100634D01*
X64366D01*
Y93711D01*
X63904Y93520D01*
X62374Y95050D01*
X62527Y95421D01*
X62669Y96500D01*
X62527Y97579D01*
X62111Y98585D01*
X61448Y99448D01*
X60585Y100111D01*
X59579Y100527D01*
X58500Y100670D01*
D02*
G37*
G36*
X87500Y48500D02*
X84047D01*
Y45047D01*
X87500D01*
Y48500D01*
D02*
G37*
G36*
X18673Y75500D02*
X16500D01*
Y73100D01*
X18673D01*
Y75500D01*
D02*
G37*
G36*
X87000Y84000D02*
X83547D01*
Y80547D01*
X87000D01*
Y84000D01*
D02*
G37*
G36*
X91953Y52953D02*
X88500D01*
Y49500D01*
X91953D01*
Y52953D01*
D02*
G37*
G36*
X15500Y75500D02*
X13327D01*
Y73100D01*
X15500D01*
Y75500D01*
D02*
G37*
%LPD*%
D10*
X16000Y63748D02*
D03*
Y57252D02*
D03*
Y76000D02*
D03*
Y69504D02*
D03*
D11*
X29087Y84500D02*
D03*
Y79500D02*
D03*
Y74500D02*
D03*
Y69500D02*
D03*
Y64500D02*
D03*
Y59500D02*
D03*
Y54500D02*
D03*
Y49500D02*
D03*
Y44500D02*
D03*
Y39500D02*
D03*
Y34500D02*
D03*
Y29500D02*
D03*
Y24500D02*
D03*
Y19500D02*
D03*
X64913Y84500D02*
D03*
Y79500D02*
D03*
Y74500D02*
D03*
Y69500D02*
D03*
Y64500D02*
D03*
Y59500D02*
D03*
Y54500D02*
D03*
Y49500D02*
D03*
Y44500D02*
D03*
Y39500D02*
D03*
Y34500D02*
D03*
Y29500D02*
D03*
Y24500D02*
D03*
Y19500D02*
D03*
D12*
Y59500D02*
X72500D01*
X22500Y29500D02*
X29087D01*
X23500Y24500D02*
X29087D01*
Y19500D02*
X42087Y6500D01*
X64913Y17913D02*
Y19500D01*
Y79500D02*
X70500D01*
X64913Y29500D02*
X78000D01*
X64913Y49500D02*
X77500D01*
X22748Y64500D02*
X29087D01*
X45500D01*
X28500Y96500D02*
X29087Y95913D01*
Y84500D02*
Y95913D01*
X77500Y64500D02*
Y84500D01*
X72500Y59500D02*
X77500Y64500D01*
X70500Y79500D02*
X72000Y81000D01*
Y86000D01*
X68500Y89500D02*
X72000Y86000D01*
X68500Y89500D02*
Y96500D01*
X58500D02*
X64913Y90087D01*
Y84500D02*
Y90087D01*
X53500Y6500D02*
X64913Y17913D01*
X42087Y6500D02*
X43500D01*
X18500Y19500D02*
X23500Y24500D01*
X16000Y19500D02*
X18500D01*
X20500Y31500D02*
X22500Y29500D01*
X16000Y31500D02*
X20500D01*
X29083Y69504D02*
X29087Y69500D01*
X16000Y69504D02*
X29083D01*
X16000Y64248D02*
Y69504D01*
Y57752D02*
X22748Y64500D01*
X77500Y49500D02*
X78000Y49000D01*
D13*
X60000Y44520D02*
X64894D01*
X64913Y44500D01*
D14*
X78000Y29500D02*
D03*
Y49000D02*
D03*
X43500Y6500D02*
D03*
X53500D02*
D03*
X63500D02*
D03*
X16000Y31500D02*
D03*
Y19500D02*
D03*
X58500Y96500D02*
D03*
X48500D02*
D03*
X38500D02*
D03*
X28500D02*
D03*
X77500Y84500D02*
D03*
D15*
X88000Y29500D02*
D03*
Y49000D02*
D03*
X33500Y6500D02*
D03*
X6000Y31500D02*
D03*
Y19500D02*
D03*
X68500Y96500D02*
D03*
X87500Y84500D02*
D03*
D16*
X11811Y90551D02*
D03*
X82677Y11811D02*
D03*
D17*
X90000Y97000D02*
D03*
X87000Y91000D02*
D03*
Y43000D02*
D03*
X90000Y37000D02*
D03*
X84000Y97000D02*
D03*
X81000Y91000D02*
D03*
X78000Y97000D02*
D03*
X75000Y91000D02*
D03*
X72000Y25000D02*
D03*
X57000Y91000D02*
D03*
Y31000D02*
D03*
Y19000D02*
D03*
X51000Y91000D02*
D03*
X54000Y85000D02*
D03*
X51000Y31000D02*
D03*
X54000Y25000D02*
D03*
Y13000D02*
D03*
X45000Y91000D02*
D03*
X48000Y85000D02*
D03*
Y61000D02*
D03*
X45000Y55000D02*
D03*
Y31000D02*
D03*
X42000Y73000D02*
D03*
Y61000D02*
D03*
X39000Y55000D02*
D03*
Y19000D02*
D03*
X42000Y13000D02*
D03*
X30000D02*
D03*
X27000Y7000D02*
D03*
X21000Y43000D02*
D03*
X24000Y13000D02*
D03*
X21000Y7000D02*
D03*
X15000Y43000D02*
D03*
X18000Y37000D02*
D03*
Y25000D02*
D03*
Y13000D02*
D03*
X15000Y7000D02*
D03*
X12000Y73000D02*
D03*
X9000Y67000D02*
D03*
Y55000D02*
D03*
X12000Y49000D02*
D03*
X9000Y43000D02*
D03*
X12000Y37000D02*
D03*
Y25000D02*
D03*
Y13000D02*
D03*
X9000Y7000D02*
D03*
X6000Y73000D02*
D03*
X3000Y67000D02*
D03*
X6000Y61000D02*
D03*
X3000Y55000D02*
D03*
X6000Y49000D02*
D03*
X3000Y43000D02*
D03*
X6000Y37000D02*
D03*
Y25000D02*
D03*
Y13000D02*
D03*
X3000Y7000D02*
D03*
X60000Y44520D02*
D03*
X45500Y64500D02*
D03*
M02*
