G04 Layer_Color=65535*
%FSLAX25Y25*%
%MOIN*%
G70*
G01*
G75*
%ADD23C,0.01181*%
%ADD24C,0.00984*%
%ADD25C,0.02362*%
%ADD26C,0.00787*%
%ADD27C,0.00591*%
D23*
X14819Y60500D02*
G03*
X14842Y60508I0J39D01*
G01*
X17181Y60461D02*
G03*
X17204Y60468I0J39D01*
G01*
X17181Y60461D02*
G03*
X17204Y60468I0J39D01*
G01*
X14819Y72752D02*
G03*
X14842Y72759I0J39D01*
G01*
X17181Y72713D02*
G03*
X17204Y72720I0J39D01*
G01*
X17181Y72713D02*
G03*
X17204Y72720I0J39D01*
G01*
D24*
X29579Y87846D02*
G03*
X29579Y87846I-492J0D01*
G01*
D25*
X40307Y83693D02*
G03*
X40307Y83693I-1181J0D01*
G01*
D26*
X73000Y24500D02*
X93000D01*
Y34500D01*
X73000D02*
X93000D01*
X73000Y24500D02*
Y34500D01*
Y44000D02*
X93000D01*
Y54000D01*
X73000D02*
X93000D01*
X73000Y44000D02*
Y54000D01*
X68500Y1500D02*
Y11500D01*
X28500Y1500D02*
X68500D01*
X28500Y11500D02*
X68500D01*
X28500Y1500D02*
Y11500D01*
X1000Y36500D02*
X21000D01*
X1000Y26500D02*
Y36500D01*
Y26500D02*
X21000D01*
Y36500D01*
X1000Y24500D02*
X21000D01*
X1000Y14500D02*
Y24500D01*
Y14500D02*
X21000D01*
Y24500D01*
X35189Y16370D02*
Y87630D01*
X58811Y16370D02*
Y87630D01*
X35189D02*
X58811D01*
X35189Y16370D02*
X58811D01*
X23500Y91500D02*
Y101500D01*
X73500D01*
X23500Y91500D02*
X73500D01*
Y101500D01*
X72500Y79500D02*
X92500D01*
Y89500D01*
X72500D02*
X92500D01*
X72500Y79500D02*
Y89500D01*
D27*
X72000Y19000D02*
Y22149D01*
X73574D01*
X74099Y21624D01*
Y20574D01*
X73574Y20050D01*
X72000D01*
X77248Y22149D02*
X76198Y21624D01*
X75149Y20574D01*
Y19525D01*
X75673Y19000D01*
X76723D01*
X77248Y19525D01*
Y20050D01*
X76723Y20574D01*
X75149D01*
X87000Y57500D02*
Y60649D01*
X88574D01*
X89099Y60124D01*
Y59074D01*
X88574Y58549D01*
X87000D01*
X90149Y60124D02*
X90673Y60649D01*
X91723D01*
X92248Y60124D01*
Y59599D01*
X91198Y58549D01*
Y58025D02*
Y57500D01*
X20000Y5000D02*
Y8149D01*
X21574D01*
X22099Y7624D01*
Y6574D01*
X21574Y6050D01*
X20000D01*
X25248Y8149D02*
X23149D01*
Y6574D01*
X24198Y7099D01*
X24723D01*
X25248Y6574D01*
Y5525D01*
X24723Y5000D01*
X23673D01*
X23149Y5525D01*
X2000Y39000D02*
Y42149D01*
X3574D01*
X4099Y41624D01*
Y40574D01*
X3574Y40049D01*
X2000D01*
X5149Y39000D02*
X6198D01*
X5673D01*
Y42149D01*
X5149Y41624D01*
X2000Y9000D02*
Y12149D01*
X3574D01*
X4099Y11624D01*
Y10574D01*
X3574Y10050D01*
X2000D01*
X7248Y9000D02*
X5149D01*
X7248Y11099D01*
Y11624D01*
X6723Y12149D01*
X5673D01*
X5149Y11624D01*
X18992Y53000D02*
Y49851D01*
X17418D01*
X16893Y50376D01*
Y51426D01*
X17418Y51951D01*
X18992D01*
X17943D02*
X16893Y53000D01*
X15844Y50376D02*
X15319Y49851D01*
X14269D01*
X13745Y50376D01*
Y50901D01*
X14269Y51426D01*
X14794D01*
X14269D01*
X13745Y51951D01*
Y52475D01*
X14269Y53000D01*
X15319D01*
X15844Y52475D01*
X15134Y80252D02*
Y83401D01*
X16708D01*
X17233Y82876D01*
Y81826D01*
X16708Y81301D01*
X15134D01*
X16183D02*
X17233Y80252D01*
X19857D02*
Y83401D01*
X18282Y81826D01*
X20381D01*
X47000Y85149D02*
Y82525D01*
X47525Y82000D01*
X48574D01*
X49099Y82525D01*
Y85149D01*
X50149Y82000D02*
X51198D01*
X50673D01*
Y85149D01*
X50149Y84624D01*
X16000Y98000D02*
Y101149D01*
X17574D01*
X18099Y100624D01*
Y99574D01*
X17574Y99050D01*
X16000D01*
X20723Y98000D02*
Y101149D01*
X19149Y99574D01*
X21248D01*
X78000Y95000D02*
Y98149D01*
X79574D01*
X80099Y97624D01*
Y96574D01*
X79574Y96049D01*
X78000D01*
X81149Y97624D02*
X81673Y98149D01*
X82723D01*
X83248Y97624D01*
Y97099D01*
X82723Y96574D01*
X82198D01*
X82723D01*
X83248Y96049D01*
Y95525D01*
X82723Y95000D01*
X81673D01*
X81149Y95525D01*
M02*
