G04 Layer_Color=8388736*
%FSLAX44Y44*%
%MOMM*%
G71*
G01*
G75*
%ADD35R,0.9032X1.1032*%
%ADD36O,2.3032X0.9032*%
%ADD37R,1.9032X0.9532*%
%ADD38R,1.1032X0.9032*%
%ADD39R,1.3032X1.9032*%
%ADD40R,1.3532X0.8032*%
%ADD41R,1.9032X1.3032*%
%ADD42R,0.9532X1.9032*%
%ADD43R,1.0032X1.1032*%
%ADD44O,1.8032X0.5032*%
%ADD45R,1.8032X0.5032*%
%ADD46R,1.7032X1.7032*%
%ADD47C,1.7032*%
%ADD48R,1.7032X1.7032*%
%ADD49C,1.4732*%
D35*
X186570Y228600D02*
D03*
X171570D02*
D03*
X321430Y101600D02*
D03*
X336430D02*
D03*
X84970Y402590D02*
D03*
X69970D02*
D03*
X217290Y71120D02*
D03*
X232290D02*
D03*
X311270Y203200D02*
D03*
X326270D02*
D03*
X168790Y368300D02*
D03*
X153790D02*
D03*
X263010Y300990D02*
D03*
X278010D02*
D03*
D36*
X335910Y354330D02*
D03*
Y367030D02*
D03*
Y379730D02*
D03*
Y392430D02*
D03*
X282910Y354330D02*
D03*
Y367030D02*
D03*
Y379730D02*
D03*
Y392430D02*
D03*
X271950Y179070D02*
D03*
Y166370D02*
D03*
Y153670D02*
D03*
Y140970D02*
D03*
X324950Y179070D02*
D03*
Y166370D02*
D03*
Y153670D02*
D03*
Y140970D02*
D03*
X277030Y63500D02*
D03*
Y50800D02*
D03*
Y38100D02*
D03*
Y25400D02*
D03*
X330030Y63500D02*
D03*
Y50800D02*
D03*
Y38100D02*
D03*
Y25400D02*
D03*
X182710Y104140D02*
D03*
Y116840D02*
D03*
Y129540D02*
D03*
Y142240D02*
D03*
X129710Y104140D02*
D03*
Y116840D02*
D03*
Y129540D02*
D03*
Y142240D02*
D03*
D37*
X230670Y349780D02*
D03*
Y384280D02*
D03*
X375920Y80750D02*
D03*
Y46250D02*
D03*
X374650Y173460D02*
D03*
Y138960D02*
D03*
X231140Y294110D02*
D03*
Y259610D02*
D03*
D38*
X138430Y276980D02*
D03*
Y291980D02*
D03*
X171450Y275470D02*
D03*
Y260470D02*
D03*
X264160Y264280D02*
D03*
Y279280D02*
D03*
X394970Y245230D02*
D03*
Y260230D02*
D03*
X377190Y245230D02*
D03*
Y260230D02*
D03*
X369570Y291980D02*
D03*
Y276980D02*
D03*
D39*
X181140Y176530D02*
D03*
X154140D02*
D03*
X334810Y416560D02*
D03*
X307810D02*
D03*
X314160Y299720D02*
D03*
X341160D02*
D03*
D40*
X320220Y459740D02*
D03*
X342720Y469240D02*
D03*
Y450240D02*
D03*
X284300Y459740D02*
D03*
X261800Y450240D02*
D03*
Y469240D02*
D03*
X191590Y411480D02*
D03*
X169090Y401980D02*
D03*
Y420980D02*
D03*
X134440Y412750D02*
D03*
X111940Y403250D02*
D03*
Y422250D02*
D03*
D41*
X231140Y50330D02*
D03*
Y23330D02*
D03*
Y178600D02*
D03*
Y151600D02*
D03*
X393700Y286220D02*
D03*
Y313220D02*
D03*
D42*
X140230Y53340D02*
D03*
X174730D02*
D03*
X244370Y107950D02*
D03*
X278870D02*
D03*
X339830Y228600D02*
D03*
X305330D02*
D03*
X263420Y325120D02*
D03*
X297920D02*
D03*
D43*
X230520Y90170D02*
D03*
X216520D02*
D03*
X117460Y368300D02*
D03*
X131460D02*
D03*
D44*
X342610Y257360D02*
D03*
Y263860D02*
D03*
Y270360D02*
D03*
Y276860D02*
D03*
X308610Y257360D02*
D03*
Y263860D02*
D03*
Y270360D02*
D03*
D45*
Y276860D02*
D03*
D46*
X474980Y309880D02*
D03*
X440690D02*
D03*
X474980Y455930D02*
D03*
X440690D02*
D03*
X473710Y24130D02*
D03*
X438150D02*
D03*
X16510Y95250D02*
D03*
Y193040D02*
D03*
X17780Y257810D02*
D03*
X58420Y313690D02*
D03*
X124460Y210820D02*
D03*
D47*
X474980Y284480D02*
D03*
Y259080D02*
D03*
Y233680D02*
D03*
X440690Y284480D02*
D03*
Y259080D02*
D03*
Y233680D02*
D03*
X474980Y430530D02*
D03*
Y405130D02*
D03*
Y379730D02*
D03*
X440690Y430530D02*
D03*
Y405130D02*
D03*
Y379730D02*
D03*
X473710Y151130D02*
D03*
Y125730D02*
D03*
Y100330D02*
D03*
Y74930D02*
D03*
Y49530D02*
D03*
X438150Y151130D02*
D03*
Y125730D02*
D03*
Y100330D02*
D03*
Y74930D02*
D03*
Y49530D02*
D03*
X16510Y69850D02*
D03*
Y44450D02*
D03*
Y19050D02*
D03*
Y218440D02*
D03*
X17780Y283210D02*
D03*
X83820Y34290D02*
D03*
X58420D02*
D03*
X83820Y59690D02*
D03*
X58420D02*
D03*
X83820Y85090D02*
D03*
X58420D02*
D03*
X83820Y110490D02*
D03*
X58420D02*
D03*
X83820Y135890D02*
D03*
X58420D02*
D03*
X83820Y161290D02*
D03*
X58420D02*
D03*
X83820Y186690D02*
D03*
X58420D02*
D03*
X83820Y212090D02*
D03*
X58420D02*
D03*
X83820Y237490D02*
D03*
X58420D02*
D03*
X83820Y262890D02*
D03*
X58420D02*
D03*
X83820Y288290D02*
D03*
X58420D02*
D03*
X83820Y313690D02*
D03*
X179070Y464820D02*
D03*
X153670D02*
D03*
X128270D02*
D03*
X124460Y185420D02*
D03*
D48*
X204470Y464820D02*
D03*
D49*
X264160Y345440D02*
D03*
X255270Y69850D02*
D03*
X171570Y198240D02*
D03*
X185674Y291980D02*
D03*
X157480Y67818D02*
D03*
X197612Y269240D02*
D03*
X241046Y400050D02*
D03*
X246634Y323342D02*
D03*
X110236Y307354D02*
D03*
X247396Y151130D02*
D03*
X307810Y379730D02*
D03*
X212344Y228600D02*
D03*
X241808Y248158D02*
D03*
M02*
