G04 Layer_Color=16711935*
%FSLAX44Y44*%
%MOMM*%
G71*
G01*
G75*
%ADD46R,1.7032X1.7032*%
%ADD47C,1.7032*%
%ADD48R,1.7032X1.7032*%
%ADD49C,1.4732*%
D46*
X474980Y309880D02*
D03*
X440690D02*
D03*
X474980Y455930D02*
D03*
X440690D02*
D03*
X473710Y24130D02*
D03*
X438150D02*
D03*
X16510Y95250D02*
D03*
Y193040D02*
D03*
X17780Y257810D02*
D03*
X58420Y313690D02*
D03*
X124460Y210820D02*
D03*
D47*
X474980Y284480D02*
D03*
Y259080D02*
D03*
Y233680D02*
D03*
X440690Y284480D02*
D03*
Y259080D02*
D03*
Y233680D02*
D03*
X474980Y430530D02*
D03*
Y405130D02*
D03*
Y379730D02*
D03*
X440690Y430530D02*
D03*
Y405130D02*
D03*
Y379730D02*
D03*
X473710Y151130D02*
D03*
Y125730D02*
D03*
Y100330D02*
D03*
Y74930D02*
D03*
Y49530D02*
D03*
X438150Y151130D02*
D03*
Y125730D02*
D03*
Y100330D02*
D03*
Y74930D02*
D03*
Y49530D02*
D03*
X16510Y69850D02*
D03*
Y44450D02*
D03*
Y19050D02*
D03*
Y218440D02*
D03*
X17780Y283210D02*
D03*
X83820Y34290D02*
D03*
X58420D02*
D03*
X83820Y59690D02*
D03*
X58420D02*
D03*
X83820Y85090D02*
D03*
X58420D02*
D03*
X83820Y110490D02*
D03*
X58420D02*
D03*
X83820Y135890D02*
D03*
X58420D02*
D03*
X83820Y161290D02*
D03*
X58420D02*
D03*
X83820Y186690D02*
D03*
X58420D02*
D03*
X83820Y212090D02*
D03*
X58420D02*
D03*
X83820Y237490D02*
D03*
X58420D02*
D03*
X83820Y262890D02*
D03*
X58420D02*
D03*
X83820Y288290D02*
D03*
X58420D02*
D03*
X83820Y313690D02*
D03*
X179070Y464820D02*
D03*
X153670D02*
D03*
X128270D02*
D03*
X124460Y185420D02*
D03*
D48*
X204470Y464820D02*
D03*
D49*
X264160Y345440D02*
D03*
X255270Y69850D02*
D03*
X171570Y198240D02*
D03*
X185674Y291980D02*
D03*
X157480Y67818D02*
D03*
X197612Y269240D02*
D03*
X241046Y400050D02*
D03*
X246634Y323342D02*
D03*
X110236Y307354D02*
D03*
X247396Y151130D02*
D03*
X307810Y379730D02*
D03*
X212344Y228600D02*
D03*
X241808Y248158D02*
D03*
M02*
