G04 Layer_Physical_Order=1*
G04 Layer_Color=255*
%FSLAX44Y44*%
%MOMM*%
G71*
G01*
G75*
%ADD10R,0.7000X0.9000*%
%ADD11O,2.1000X0.7000*%
%ADD12R,1.7000X0.7500*%
%ADD13R,0.9000X0.7000*%
%ADD14R,1.1000X1.7000*%
%ADD15R,1.1500X0.6000*%
%ADD16R,1.7000X1.1000*%
%ADD17R,0.7500X1.7000*%
%ADD18R,0.8000X0.9000*%
%ADD19O,1.6000X0.3000*%
%ADD20R,1.6000X0.3000*%
%ADD21C,0.2540*%
%ADD22C,0.5080*%
%ADD23C,0.7620*%
%ADD24C,0.7000*%
%ADD25C,0.6000*%
%ADD26C,0.3000*%
%ADD27R,1.5000X1.5000*%
%ADD28C,1.5000*%
%ADD29R,1.5000X1.5000*%
%ADD30C,1.2700*%
D10*
X186570Y228600D02*
D03*
X171570D02*
D03*
X321430Y101600D02*
D03*
X336430D02*
D03*
X84970Y402590D02*
D03*
X69970D02*
D03*
X217290Y71120D02*
D03*
X232290D02*
D03*
X311270Y203200D02*
D03*
X326270D02*
D03*
X168790Y368300D02*
D03*
X153790D02*
D03*
X263010Y300990D02*
D03*
X278010D02*
D03*
D11*
X335910Y354330D02*
D03*
Y367030D02*
D03*
Y379730D02*
D03*
Y392430D02*
D03*
X282910Y354330D02*
D03*
Y367030D02*
D03*
Y379730D02*
D03*
Y392430D02*
D03*
X271950Y179070D02*
D03*
Y166370D02*
D03*
Y153670D02*
D03*
Y140970D02*
D03*
X324950Y179070D02*
D03*
Y166370D02*
D03*
Y153670D02*
D03*
Y140970D02*
D03*
X277030Y63500D02*
D03*
Y50800D02*
D03*
Y38100D02*
D03*
Y25400D02*
D03*
X330030Y63500D02*
D03*
Y50800D02*
D03*
Y38100D02*
D03*
Y25400D02*
D03*
X182710Y104140D02*
D03*
Y116840D02*
D03*
Y129540D02*
D03*
Y142240D02*
D03*
X129710Y104140D02*
D03*
Y116840D02*
D03*
Y129540D02*
D03*
Y142240D02*
D03*
D12*
X230670Y349780D02*
D03*
Y384280D02*
D03*
X375920Y80750D02*
D03*
Y46250D02*
D03*
X374650Y173460D02*
D03*
Y138960D02*
D03*
X231140Y294110D02*
D03*
Y259610D02*
D03*
D13*
X138430Y276980D02*
D03*
Y291980D02*
D03*
X171450Y275470D02*
D03*
Y260470D02*
D03*
X264160Y264280D02*
D03*
Y279280D02*
D03*
X394970Y245230D02*
D03*
Y260230D02*
D03*
X377190Y245230D02*
D03*
Y260230D02*
D03*
X369570Y291980D02*
D03*
Y276980D02*
D03*
D14*
X181140Y176530D02*
D03*
X154140D02*
D03*
X334810Y416560D02*
D03*
X307810D02*
D03*
X314160Y299720D02*
D03*
X341160D02*
D03*
D15*
X320220Y459740D02*
D03*
X342720Y469240D02*
D03*
Y450240D02*
D03*
X284300Y459740D02*
D03*
X261800Y450240D02*
D03*
Y469240D02*
D03*
X191590Y411480D02*
D03*
X169090Y401980D02*
D03*
Y420980D02*
D03*
X134440Y412750D02*
D03*
X111940Y403250D02*
D03*
Y422250D02*
D03*
D16*
X231140Y50330D02*
D03*
Y23330D02*
D03*
Y178600D02*
D03*
Y151600D02*
D03*
X393700Y286220D02*
D03*
Y313220D02*
D03*
D17*
X140230Y53340D02*
D03*
X174730D02*
D03*
X244370Y107950D02*
D03*
X278870D02*
D03*
X339830Y228600D02*
D03*
X305330D02*
D03*
X263420Y325120D02*
D03*
X297920D02*
D03*
D18*
X230520Y90170D02*
D03*
X216520D02*
D03*
X117460Y368300D02*
D03*
X131460D02*
D03*
D19*
X342610Y257360D02*
D03*
Y263860D02*
D03*
Y270360D02*
D03*
Y276860D02*
D03*
X308610Y257360D02*
D03*
Y263860D02*
D03*
Y270360D02*
D03*
D20*
Y276860D02*
D03*
D21*
X341160Y290679D02*
Y299720D01*
X318736Y270360D02*
X341160Y290679D01*
X308610Y270360D02*
X318736D01*
X171570Y210686D02*
Y228600D01*
X167894Y106680D02*
Y207010D01*
X185674Y291980D02*
X188301D01*
X138430D02*
X185674D01*
X389636Y260230D02*
Y264160D01*
X328930Y325267D02*
Y354330D01*
X186570Y233172D02*
X249174D01*
X186570D02*
Y277368D01*
Y228600D02*
Y233172D01*
X263144Y264280D02*
Y269240D01*
X204336Y92964D02*
X216520Y80780D01*
X168220Y275470D02*
Y276980D01*
X167894Y207010D02*
X171570Y210686D01*
X167894Y106680D02*
X182710Y104140D01*
X171570Y198240D02*
Y210686D01*
X336430Y69900D02*
Y101600D01*
X330030Y63500D02*
X336430Y69900D01*
X273362Y257360D02*
X308610D01*
X249174Y233172D02*
X273362Y257360D01*
X328930Y354330D02*
X335910D01*
X315829Y312166D02*
X328930Y325267D01*
X293116Y312166D02*
X315829D01*
X290322Y314960D02*
X293116Y312166D01*
X290322Y314960D02*
Y343621D01*
X297221Y350520D01*
Y399501D01*
X282194Y414528D02*
X297221Y399501D01*
X239776Y414528D02*
X282194D01*
X130048Y304800D02*
X239776Y414528D01*
X130048Y284480D02*
Y304800D01*
Y284480D02*
X174244D01*
X175768Y282956D01*
X180982D01*
X186570Y277368D01*
X263144Y264280D02*
X264160D01*
X197612Y269240D02*
X263144D01*
X111940Y422250D02*
X135890D01*
X153670Y440030D01*
Y464820D01*
X179070Y430960D02*
Y464820D01*
X169090Y420980D02*
X179070Y430960D01*
X172466Y92964D02*
X204336D01*
X162814Y102616D02*
X172466Y92964D01*
X162814Y102616D02*
Y137160D01*
X159258Y140716D02*
X162814Y137160D01*
X154940Y140716D02*
X159258D01*
X146050Y149606D02*
X154940Y140716D01*
X115570Y149606D02*
X146050D01*
X89154Y123190D02*
X115570Y149606D01*
X71120Y123190D02*
X89154D01*
X58420Y135890D02*
X71120Y123190D01*
X263010Y300990D02*
Y306966D01*
X246634Y323342D02*
X263010Y306966D01*
X110236Y307354D02*
X153790Y350908D01*
Y368300D01*
X171450Y270510D02*
Y275470D01*
Y270510D02*
X173990Y267970D01*
X180340D01*
Y240284D02*
Y267970D01*
X179070Y239014D02*
X180340Y240284D01*
X179070Y219710D02*
Y239014D01*
Y219710D02*
X181610Y217170D01*
X245745D01*
X279645Y251070D01*
X317618D01*
X320548Y254000D01*
Y266700D01*
X316888Y270360D02*
X320548Y266700D01*
X116078Y116840D02*
X129710D01*
X97282Y98044D02*
X116078Y116840D01*
X70866Y98044D02*
X97282D01*
X58420Y110490D02*
X70866Y98044D01*
X186570Y228600D02*
X212344D01*
X37592Y80518D02*
X58420Y59690D01*
X37592Y80518D02*
Y81788D01*
X24130Y95250D02*
X37592Y81788D01*
X16510Y95250D02*
X24130D01*
X342610Y276860D02*
X343020D01*
X358140Y291980D01*
X369570D01*
X264160Y264280D02*
X296506D01*
X296926Y263860D01*
X308610D01*
X219710Y367030D02*
X282910D01*
X217170Y364490D02*
X219710Y367030D01*
X217170Y288036D02*
Y364490D01*
Y288036D02*
X219710Y285496D01*
X244094D01*
X246198Y287600D01*
X274502D01*
X277622Y284480D01*
Y277742D02*
Y284480D01*
X264160Y264280D02*
X277622Y277742D01*
X95130Y276980D02*
X138430D01*
X83820Y288290D02*
X95130Y276980D01*
X342610Y263860D02*
X353822D01*
X357678Y267716D01*
X386080D01*
X389636Y264160D01*
Y260230D02*
X394970D01*
X201001Y279280D02*
X264160D01*
X188301Y291980D02*
X201001Y279280D01*
X394970Y260230D02*
X416440D01*
X440690Y284480D01*
X377190Y260230D02*
X377430D01*
X384930Y252730D01*
X434340D01*
X440690Y259080D01*
X58420Y212090D02*
Y223520D01*
X55880Y226060D02*
X58420Y223520D01*
X49530Y226060D02*
X55880D01*
X17780Y257810D02*
X49530Y226060D01*
X83820Y161290D02*
X124460Y201930D01*
Y210820D01*
Y176530D02*
Y185420D01*
X83820Y135890D02*
X124460Y176530D01*
X168220Y275470D02*
X171450D01*
X138430Y276980D02*
X168220D01*
X69970Y147440D02*
Y402590D01*
X58420Y135890D02*
X69970Y147440D01*
X171450Y244468D02*
Y260470D01*
Y244468D02*
X171570Y244348D01*
Y228600D02*
Y244348D01*
X98704Y403250D02*
X111940D01*
X98044Y402590D02*
X98704Y403250D01*
X84970Y402590D02*
X98044D01*
X169090Y385110D02*
Y401980D01*
X168790Y384810D02*
X169090Y385110D01*
X168790Y368300D02*
Y384810D01*
X326270Y191566D02*
Y203200D01*
X324950Y190246D02*
X326270Y191566D01*
X324950Y179070D02*
Y190246D01*
X361264Y260230D02*
X377190D01*
X358394Y257360D02*
X361264Y260230D01*
X342610Y257360D02*
X358394D01*
X384474Y286220D02*
X393700D01*
X378714Y291980D02*
X384474Y286220D01*
X369570Y291980D02*
X378714D01*
X342610Y270360D02*
Y276860D01*
X216520Y80780D02*
Y90170D01*
Y80780D02*
X217290Y80010D01*
Y71120D02*
Y80010D01*
X131460Y368300D02*
X153790D01*
D22*
X264160Y325860D02*
Y345440D01*
Y344700D02*
Y345440D01*
X263420Y325120D02*
X264160Y325860D01*
X263420Y345440D02*
X264160Y344700D01*
X263420Y345440D02*
X272310Y354330D01*
X255270Y69850D02*
X255524D01*
X261874Y63500D01*
X138684Y126746D02*
Y129540D01*
X241808Y248158D02*
Y259610D01*
X280669Y179070D02*
Y226441D01*
X241046Y384280D02*
X254508D01*
X241046D02*
Y400050D01*
X349250Y367030D02*
X402590D01*
X453390Y299720D02*
Y367030D01*
Y246380D02*
Y299720D01*
X289055Y34036D02*
Y38100D01*
X6350Y270510D02*
X45720D01*
X246926Y151600D02*
X250444D01*
X135890Y23330D02*
X231140D01*
X120180D02*
X135890D01*
X122682Y36538D02*
Y104140D01*
X129710Y142240D02*
X137267D01*
X145141Y134366D01*
X155956D01*
X156464Y68834D01*
X157480Y67818D01*
X256794Y179070D02*
X271950D01*
X240284Y162560D02*
X256794Y179070D01*
X218440Y162560D02*
X240284D01*
X215900Y160020D02*
X218440Y162560D01*
X215900Y142240D02*
Y160020D01*
X203200Y129540D02*
X215900Y142240D01*
X182710Y129540D02*
X203200D01*
X399520Y138960D02*
X438150Y100330D01*
X374650Y138960D02*
X399520D01*
X375920Y80750D02*
X432330D01*
X438150Y74930D01*
X230670Y384280D02*
X241046D01*
X324281Y367030D02*
X335910D01*
X297920Y340669D02*
X324281Y367030D01*
X297920Y325120D02*
Y340669D01*
X450850Y297180D02*
X453390Y299720D01*
X427990Y297180D02*
X450850D01*
X406400Y275590D02*
X427990Y297180D01*
X377310Y275590D02*
X406400D01*
X369570Y276980D02*
X377310Y275590D01*
X440690Y233680D02*
X453390Y246380D01*
X440690Y379730D02*
X453390Y367030D01*
X394970Y245230D02*
X429140D01*
X440690Y233680D01*
X474980Y193802D02*
Y233680D01*
X473710Y192532D02*
X474980Y193802D01*
X473710Y151130D02*
Y192532D01*
X272310Y354330D02*
X282910D01*
X259058D02*
X272310D01*
X230670Y349780D02*
X259058Y354330D01*
X50800Y270510D02*
X58420Y262890D01*
X45720Y270510D02*
X50800D01*
X45720D02*
Y406400D01*
X104140Y464820D01*
X128270D01*
X277030Y38100D02*
X289055D01*
Y34036D02*
X292611Y30480D01*
Y20320D02*
Y30480D01*
X289055Y16764D02*
X292611Y20320D01*
X240754Y16764D02*
X289055D01*
X234188Y23330D02*
X240754Y16764D01*
X231140Y23330D02*
X234188D01*
X129710Y129540D02*
X138684D01*
Y126746D02*
X143764D01*
X148082Y122428D01*
Y76178D02*
Y122428D01*
X140230Y68326D02*
X148082Y76178D01*
X140230Y53340D02*
Y68326D01*
X324950Y153670D02*
X339112D01*
X353822Y138960D01*
X374650D01*
X96520Y46990D02*
X120180Y23330D01*
X47752Y46990D02*
X96520D01*
X37592Y57150D02*
X47752Y46990D01*
X8890Y57150D02*
X37592D01*
X3810Y62230D02*
X8890Y57150D01*
X3810Y62230D02*
Y267970D01*
X6350Y270510D01*
X231140Y151600D02*
X246926D01*
X247396Y151130D01*
X83820Y262890D02*
X95720D01*
X154140Y204470D01*
Y176530D02*
Y204470D01*
X307810Y379730D02*
Y416560D01*
X342720Y450240D02*
X353518D01*
X366878Y436880D01*
Y384658D02*
Y436880D01*
X349250Y367030D02*
X366878Y384658D01*
X335910Y367030D02*
X349250D01*
X402590D02*
X440690Y405130D01*
Y430530D02*
X453390Y443230D01*
Y476758D01*
X450088Y480060D02*
X453390Y476758D01*
X282092Y480060D02*
X450088D01*
X271272Y469240D02*
X282092Y480060D01*
X261800Y469240D02*
X271272D01*
X330030Y50800D02*
X342138D01*
X347218Y55880D01*
Y72368D01*
X355600Y80750D01*
X375920D01*
X282829Y228600D02*
X305330D01*
X280669Y226441D02*
X282829Y228600D01*
X271950Y179070D02*
X280669D01*
X231140Y259610D02*
X241808D01*
X261874Y63500D02*
X277030D01*
X122682Y36538D02*
X135890Y23330D01*
X122682Y104140D02*
X129710D01*
X390420Y173460D02*
X438150Y125730D01*
X374650Y173460D02*
X390420D01*
X339830Y228600D02*
X359544D01*
X376174Y245230D01*
X377190D01*
X253492Y25400D02*
X277030D01*
X241300Y37592D02*
X253492Y25400D01*
X181610Y37592D02*
X241300D01*
X174730Y44472D02*
X181610Y37592D01*
X174730Y44472D02*
Y53340D01*
X230670Y322034D02*
Y349780D01*
Y322034D02*
X231140Y321564D01*
Y294110D02*
Y321564D01*
X217932Y107950D02*
X244370D01*
X209042Y116840D02*
X217932Y107950D01*
X182710Y116840D02*
X209042D01*
X271950Y127824D02*
Y140970D01*
Y127824D02*
X278870Y120904D01*
Y107950D02*
Y120904D01*
X353292Y173460D02*
X374650D01*
X346202Y166370D02*
X353292Y173460D01*
X324950Y166370D02*
X346202D01*
X408664Y49530D02*
X438150D01*
X405384Y46250D02*
X408664Y49530D01*
X375920Y46250D02*
X405384D01*
X356892D02*
X375920D01*
X348742Y38100D02*
X356892Y46250D01*
X330030Y38100D02*
X348742D01*
X259058Y379730D02*
X282910D01*
X254508Y384280D02*
X259058Y379730D01*
X282910D02*
Y392430D01*
X335910Y367030D02*
Y379730D01*
X377190Y245230D02*
X394970D01*
X252514Y153670D02*
X271950D01*
X250444Y151600D02*
X252514Y153670D01*
D23*
X473710Y24130D02*
X484632D01*
X438150D02*
X473710D01*
X117460Y347330D02*
Y368300D01*
X83820Y313690D02*
X117460Y347330D01*
X204470Y424360D02*
Y464820D01*
X384302Y455930D02*
X440690D01*
X380492Y459740D02*
X384302Y455930D01*
X320220Y459740D02*
X380492D01*
X231140Y178600D02*
Y190500D01*
X284090Y243450D01*
X315468D01*
X474980Y455930D02*
X488950Y441960D01*
Y323850D02*
Y441960D01*
X474980Y309880D02*
X488950Y323850D01*
X308610Y24892D02*
Y30734D01*
Y24892D02*
X318770Y14732D01*
X428752D01*
X438150Y24130D01*
X334810Y416560D02*
Y430492D01*
X329438Y435864D02*
X334810Y430492D01*
X474980Y309880D02*
X488950Y295910D01*
Y28448D02*
Y295910D01*
X484632Y24130D02*
X488950Y28448D01*
X117460Y368300D02*
Y376032D01*
X128016Y386588D01*
X360096Y313220D02*
X393700D01*
X358356Y314960D02*
X360096Y313220D01*
X329400Y314960D02*
X358356D01*
X314160Y299720D02*
X329400Y314960D01*
X334810Y404960D02*
Y416560D01*
Y404960D02*
X335910Y403860D01*
Y392430D02*
Y403860D01*
X246888Y459740D02*
X284300D01*
X241808Y464820D02*
X246888Y459740D01*
X204470Y464820D02*
X241808D01*
X284300Y459740D02*
X320220D01*
X418630Y309880D02*
X440690D01*
X415290Y313220D02*
X418630Y309880D01*
X393700Y313220D02*
X415290D01*
X254216Y50800D02*
X277030D01*
X253746Y50330D02*
X254216Y50800D01*
X231140Y50330D02*
X253746D01*
X232290Y61094D02*
Y71120D01*
X231140Y59944D02*
X232290Y61094D01*
X231140Y50330D02*
Y59944D01*
X230520Y81526D02*
Y90170D01*
Y81526D02*
X232290Y79756D01*
Y71120D02*
Y79756D01*
X207048Y178600D02*
X231140D01*
X204978Y176530D02*
X207048Y178600D01*
X181140Y176530D02*
X204978D01*
X181140Y160066D02*
Y176530D01*
Y160066D02*
X182710Y158496D01*
Y142240D02*
Y158496D01*
X296672Y299720D02*
X314160D01*
X295402Y300990D02*
X296672Y299720D01*
X278010Y300990D02*
X295402D01*
D24*
X305054Y137280D02*
Y186570D01*
Y137160D02*
Y137280D01*
X288544Y50800D02*
X293624D01*
X271950Y166370D02*
X283210D01*
X305054Y137280D01*
Y137160D02*
X321430Y120784D01*
Y101600D02*
Y120784D01*
X305054Y186570D02*
X311270Y203200D01*
X315468Y208398D02*
Y243450D01*
X311270Y203200D02*
X315468Y208398D01*
X277030Y50800D02*
X288544D01*
X308610Y30734D01*
X321430Y78606D02*
Y101600D01*
X293624Y50800D02*
X321430Y78606D01*
D25*
X134874Y411480D02*
Y412750D01*
X128016Y386588D02*
Y412750D01*
X191590Y411480D02*
X204470Y424360D01*
X329438Y435864D02*
Y450522D01*
X320220Y459740D02*
X329438Y450522D01*
X128016Y412750D02*
X134440D01*
X134874D01*
Y411480D02*
X191590D01*
D26*
X308610Y276860D02*
Y281216D01*
X314160Y286766D01*
Y299720D01*
D27*
X474980Y309880D02*
D03*
X440690D02*
D03*
X474980Y455930D02*
D03*
X440690D02*
D03*
X473710Y24130D02*
D03*
X438150D02*
D03*
X16510Y95250D02*
D03*
Y193040D02*
D03*
X17780Y257810D02*
D03*
X58420Y313690D02*
D03*
X124460Y210820D02*
D03*
D28*
X474980Y284480D02*
D03*
Y259080D02*
D03*
Y233680D02*
D03*
X440690Y284480D02*
D03*
Y259080D02*
D03*
Y233680D02*
D03*
X474980Y430530D02*
D03*
Y405130D02*
D03*
Y379730D02*
D03*
X440690Y430530D02*
D03*
Y405130D02*
D03*
Y379730D02*
D03*
X473710Y151130D02*
D03*
Y125730D02*
D03*
Y100330D02*
D03*
Y74930D02*
D03*
Y49530D02*
D03*
X438150Y151130D02*
D03*
Y125730D02*
D03*
Y100330D02*
D03*
Y74930D02*
D03*
Y49530D02*
D03*
X16510Y69850D02*
D03*
Y44450D02*
D03*
Y19050D02*
D03*
Y218440D02*
D03*
X17780Y283210D02*
D03*
X83820Y34290D02*
D03*
X58420D02*
D03*
X83820Y59690D02*
D03*
X58420D02*
D03*
X83820Y85090D02*
D03*
X58420D02*
D03*
X83820Y110490D02*
D03*
X58420D02*
D03*
X83820Y135890D02*
D03*
X58420D02*
D03*
X83820Y161290D02*
D03*
X58420D02*
D03*
X83820Y186690D02*
D03*
X58420D02*
D03*
X83820Y212090D02*
D03*
X58420D02*
D03*
X83820Y237490D02*
D03*
X58420D02*
D03*
X83820Y262890D02*
D03*
X58420D02*
D03*
X83820Y288290D02*
D03*
X58420D02*
D03*
X83820Y313690D02*
D03*
X179070Y464820D02*
D03*
X153670D02*
D03*
X128270D02*
D03*
X124460Y185420D02*
D03*
D29*
X204470Y464820D02*
D03*
D30*
X264160Y345440D02*
D03*
X255270Y69850D02*
D03*
X171570Y198240D02*
D03*
X185674Y291980D02*
D03*
X157480Y67818D02*
D03*
X197612Y269240D02*
D03*
X241046Y400050D02*
D03*
X246634Y323342D02*
D03*
X110236Y307354D02*
D03*
X247396Y151130D02*
D03*
X307810Y379730D02*
D03*
X212344Y228600D02*
D03*
X241808Y248158D02*
D03*
M02*
