G04 Layer_Color=32896*
%FSLAX44Y44*%
%MOMM*%
G71*
G01*
G75*
%ADD21C,0.2540*%
D21*
X439420Y176530D02*
Y191765D01*
X431802D01*
X429263Y189226D01*
Y184147D01*
X431802Y181608D01*
X439420D01*
X424185Y176530D02*
X419107D01*
X421646D01*
Y191765D01*
X424185Y189226D01*
X105410Y467360D02*
Y482595D01*
X97793D01*
X95253Y480056D01*
Y474977D01*
X97793Y472438D01*
X105410D01*
X80018Y467360D02*
X90175D01*
X80018Y477517D01*
Y480056D01*
X82557Y482595D01*
X87636D01*
X90175Y480056D01*
X33020Y303530D02*
Y318765D01*
X25403D01*
X22863Y316226D01*
Y311147D01*
X25403Y308608D01*
X33020D01*
X17785Y316226D02*
X15246Y318765D01*
X10167D01*
X7628Y316226D01*
Y313687D01*
X10167Y311147D01*
X12707D01*
X10167D01*
X7628Y308608D01*
Y306069D01*
X10167Y303530D01*
X15246D01*
X17785Y306069D01*
X78740Y346710D02*
Y361945D01*
X71122D01*
X68583Y359406D01*
Y354328D01*
X71122Y351788D01*
X78740D01*
X55887Y346710D02*
Y361945D01*
X63505Y354328D01*
X53348D01*
X30480Y158750D02*
Y173985D01*
X22863D01*
X20323Y171446D01*
Y166367D01*
X22863Y163828D01*
X30480D01*
X5088Y173985D02*
X15245D01*
Y166367D01*
X10167Y168907D01*
X7627D01*
X5088Y166367D01*
Y161289D01*
X7627Y158750D01*
X12706D01*
X15245Y161289D01*
X137160Y237490D02*
Y252725D01*
X129543D01*
X127003Y250186D01*
Y245107D01*
X129543Y242568D01*
X137160D01*
X111768Y252725D02*
X116847Y250186D01*
X121925Y245107D01*
Y240029D01*
X119386Y237490D01*
X114307D01*
X111768Y240029D01*
Y242568D01*
X114307Y245107D01*
X121925D01*
X482600Y176530D02*
Y191765D01*
X474982D01*
X472443Y189226D01*
Y184147D01*
X474982Y181608D01*
X482600D01*
X467365Y191765D02*
X457208D01*
Y189226D01*
X467365Y179069D01*
Y176530D01*
X30480Y119380D02*
Y134615D01*
X22863D01*
X20323Y132076D01*
Y126997D01*
X22863Y124458D01*
X30480D01*
X15245Y132076D02*
X12706Y134615D01*
X7627D01*
X5088Y132076D01*
Y129537D01*
X7627Y126997D01*
X5088Y124458D01*
Y121919D01*
X7627Y119380D01*
X12706D01*
X15245Y121919D01*
Y124458D01*
X12706Y126997D01*
X15245Y129537D01*
Y132076D01*
X12706Y126997D02*
X7627D01*
X435610Y473710D02*
Y488945D01*
X427993D01*
X425453Y486406D01*
Y481328D01*
X427993Y478788D01*
X435610D01*
X420375Y476249D02*
X417836Y473710D01*
X412757D01*
X410218Y476249D01*
Y486406D01*
X412757Y488945D01*
X417836D01*
X420375Y486406D01*
Y483867D01*
X417836Y481328D01*
X410218D01*
X490220Y473710D02*
Y488945D01*
X482603D01*
X480063Y486406D01*
Y481328D01*
X482603Y478788D01*
X490220D01*
X474985Y473710D02*
X469907D01*
X472446D01*
Y488945D01*
X474985Y486406D01*
X462289D02*
X459750Y488945D01*
X454672D01*
X452132Y486406D01*
Y476249D01*
X454672Y473710D01*
X459750D01*
X462289Y476249D01*
Y486406D01*
X398780Y283210D02*
X414015D01*
Y290828D01*
X411476Y293367D01*
X406398D01*
X403858Y290828D01*
Y283210D01*
X398780Y298445D02*
Y303523D01*
Y300984D01*
X414015D01*
X411476Y298445D01*
X398780Y321298D02*
Y311141D01*
X408937Y321298D01*
X411476D01*
X414015Y318759D01*
Y313680D01*
X411476Y311141D01*
X444500Y350520D02*
Y335285D01*
X452118D01*
X454657Y337824D01*
Y342902D01*
X452118Y345442D01*
X444500D01*
X459735Y350520D02*
X464813D01*
X462274D01*
Y335285D01*
X459735Y337824D01*
X472431D02*
X474970Y335285D01*
X480048D01*
X482588Y337824D01*
Y340363D01*
X480048Y342902D01*
X477509D01*
X480048D01*
X482588Y345442D01*
Y347981D01*
X480048Y350520D01*
X474970D01*
X472431Y347981D01*
M02*
