M48
;Layer_Color=9474304
;FILE_FORMAT=4:4
METRIC,LZ
;TYPE=PLATED
T1F00S00C0.7112
T2F00S00C0.9000
%
T01
X0015748Y00067818
X0025527Y0006985
X00247396Y0015113
X00241808Y00248158
X00212344Y002286
X00197612Y0026924
X00185674Y0029198
X00246634Y00323342
X0026416Y0034544
X00241046Y0040005
X0030781Y0037973
X0017157Y0019824
X00110236Y00307354
T02
X0001651Y0001905
Y0004445
Y0006985
Y0009525
X0005842Y0008509
Y0005969
Y0003429
X0008382
Y0005969
Y0008509
Y0011049
X0005842
Y0013589
X0008382
X0043815Y0012573
Y0010033
Y0007493
Y0004953
Y0002413
X0047371
Y0004953
Y0007493
Y0010033
Y0012573
Y0015113
X0043815
X0044069Y0023368
Y0025908
Y0028448
Y0030988
X0047498
Y0028448
Y0025908
Y0023368
Y0037973
Y0040513
Y0043053
Y0045593
X0044069
Y0043053
Y0040513
Y0037973
X0020447Y0046482
X0017907
X0015367
X0012827
X0008382Y0031369
Y0028829
Y0026289
Y0023749
Y0021209
Y0018669
Y0016129
X0005842
Y0018669
Y0021209
Y0023749
Y0026289
Y0028829
Y0031369
X0001778Y0028321
Y0025781
X0001651Y0021844
Y0019304
X0012446Y0018542
Y0021082
M30
