G04 Layer_Physical_Order=1*
G04 Layer_Color=255*
%FSLAX25Y25*%
%MOIN*%
G70*
G01*
G75*
%ADD10R,0.01968X0.02362*%
%ADD11R,0.02165X0.02165*%
%ADD12R,0.17953X0.03937*%
%ADD13R,0.11811X0.03228*%
%ADD14R,0.04724X0.04488*%
%ADD15R,0.03347X0.03799*%
%ADD16R,0.10039X0.09646*%
%ADD17R,0.11024X0.11024*%
%ADD18R,0.04724X0.03937*%
%ADD19R,0.09449X0.14567*%
%ADD20R,0.02362X0.01968*%
%ADD21R,0.03799X0.03347*%
%ADD22R,0.04488X0.04724*%
G04:AMPARAMS|DCode=23|XSize=62.99mil|YSize=55.12mil|CornerRadius=0mil|HoleSize=0mil|Usage=FLASHONLY|Rotation=275.000|XOffset=0mil|YOffset=0mil|HoleType=Round|Shape=Rectangle|*
%AMROTATEDRECTD23*
4,1,4,-0.03020,0.02897,0.02471,0.03378,0.03020,-0.02897,-0.02471,-0.03378,-0.03020,0.02897,0.0*
%
%ADD23ROTATEDRECTD23*%

G04:AMPARAMS|DCode=24|XSize=90.55mil|YSize=51.18mil|CornerRadius=0mil|HoleSize=0mil|Usage=FLASHONLY|Rotation=275.000|XOffset=0mil|YOffset=0mil|HoleType=Round|Shape=Rectangle|*
%AMROTATEDRECTD24*
4,1,4,-0.02944,0.04287,0.02155,0.04733,0.02944,-0.04287,-0.02155,-0.04733,-0.02944,0.04287,0.0*
%
%ADD24ROTATEDRECTD24*%

G04:AMPARAMS|DCode=25|XSize=15.75mil|YSize=53.15mil|CornerRadius=0mil|HoleSize=0mil|Usage=FLASHONLY|Rotation=275.000|XOffset=0mil|YOffset=0mil|HoleType=Round|Shape=Rectangle|*
%AMROTATEDRECTD25*
4,1,4,-0.02716,0.00553,0.02579,0.01016,0.02716,-0.00553,-0.02579,-0.01016,-0.02716,0.00553,0.0*
%
%ADD25ROTATEDRECTD25*%

G04:AMPARAMS|DCode=26|XSize=70.87mil|YSize=74.8mil|CornerRadius=0mil|HoleSize=0mil|Usage=FLASHONLY|Rotation=275.000|XOffset=0mil|YOffset=0mil|HoleType=Round|Shape=Rectangle|*
%AMROTATEDRECTD26*
4,1,4,-0.04035,0.03204,0.03417,0.03856,0.04035,-0.03204,-0.03417,-0.03856,-0.04035,0.03204,0.0*
%
%ADD26ROTATEDRECTD26*%

%ADD27R,0.02165X0.02165*%
%ADD28R,0.01181X0.01968*%
%ADD29R,0.09449X0.06299*%
%ADD30R,0.01772X0.01181*%
%ADD31R,0.03740X0.12205*%
%ADD32R,0.13583X0.13583*%
%ADD33O,0.01181X0.03543*%
%ADD34O,0.03543X0.01181*%
%ADD35C,0.01181*%
%ADD36C,0.01000*%
%ADD37C,0.03150*%
%ADD38C,0.01181*%
%ADD39C,0.02362*%
%ADD40C,0.00591*%
%ADD41C,0.00630*%
%ADD42C,0.00787*%
%ADD43C,0.06000*%
%ADD44C,0.05905*%
%ADD45R,0.05905X0.05905*%
%ADD46R,0.05905X0.05905*%
%ADD47C,0.02362*%
%ADD48C,0.01968*%
G36*
X23884Y40678D02*
X23884Y40284D01*
X22131Y38316D01*
X17800D01*
Y42646D01*
X22131Y42646D01*
X23884Y40678D01*
D02*
G37*
G36*
X27600Y69700D02*
X28000Y69300D01*
Y61503D01*
X27886Y60930D01*
Y56036D01*
X27000Y55309D01*
X26078Y55125D01*
X25297Y54603D01*
X24775Y53822D01*
X24591Y52900D01*
X24775Y51978D01*
X25286Y51213D01*
Y47572D01*
X25416Y46916D01*
X25788Y46360D01*
X26991Y45157D01*
X26921Y44994D01*
X26107Y43920D01*
X25809Y43979D01*
X25188Y43856D01*
X24865Y43640D01*
X23479Y43782D01*
X23376Y43856D01*
X23324Y43804D01*
X17567D01*
X17339Y43759D01*
X16965Y43509D01*
X16661Y43713D01*
X16200Y43804D01*
X700D01*
Y69439D01*
X1100Y70800D01*
X1271Y70971D01*
X2034Y71200D01*
X27163D01*
X27600Y69700D01*
D02*
G37*
G36*
X16200Y38300D02*
X700D01*
Y42600D01*
X16200D01*
Y38300D01*
D02*
G37*
G36*
X155100Y11500D02*
X154700Y11100D01*
X137813D01*
X137358Y12600D01*
X137503Y12697D01*
X138025Y13478D01*
X138205Y14381D01*
X142612Y18788D01*
X142984Y19344D01*
X143114Y20000D01*
Y30228D01*
X144456Y30734D01*
X144614Y30755D01*
X145407Y30147D01*
X146368Y29749D01*
X146900Y29679D01*
Y33600D01*
Y37521D01*
X146368Y37451D01*
X145407Y37053D01*
X144581Y36419D01*
X144517Y36336D01*
X143880Y36344D01*
X142824Y36594D01*
X142612Y36912D01*
X138258Y41266D01*
X138879Y42766D01*
X139734D01*
Y51034D01*
X139734D01*
X139129Y52246D01*
Y57954D01*
X137534D01*
X137260Y58364D01*
X133212Y62412D01*
X132656Y62784D01*
X132000Y62914D01*
X104916D01*
X104752Y63309D01*
X104082Y64182D01*
X103209Y64852D01*
X102191Y65273D01*
X101338Y65386D01*
X97612Y69112D01*
X97056Y69484D01*
X96400Y69614D01*
X80800D01*
X80144Y69484D01*
X79588Y69112D01*
X75741Y65265D01*
X70603D01*
X69785Y66426D01*
Y69143D01*
X63509D01*
X62935Y69143D01*
X62935Y69143D01*
X62084Y68962D01*
Y68962D01*
X59340D01*
Y65600D01*
Y62238D01*
X60783D01*
X61178Y61753D01*
X61418Y61303D01*
X61553Y60426D01*
X61308Y59625D01*
X60749Y59255D01*
X60385Y59011D01*
X60027Y58772D01*
X59545Y58051D01*
X59376Y57200D01*
X58005Y56404D01*
X57620Y56379D01*
X56099Y57899D01*
X55543Y58271D01*
X54887Y58401D01*
X52269D01*
X51752Y58755D01*
X51622Y60507D01*
X52442Y61327D01*
X52814Y61883D01*
X52905Y62345D01*
X53107Y62709D01*
X54249Y63616D01*
X55428Y62852D01*
X55596Y62606D01*
Y62238D01*
X58340D01*
Y65600D01*
Y68962D01*
X55596D01*
Y68962D01*
X54400Y68263D01*
Y65900D01*
X53400D01*
Y68447D01*
X52814Y68826D01*
X52442Y69382D01*
X51966Y69700D01*
X51944Y69835D01*
X52606Y71200D01*
X155100D01*
Y11500D01*
D02*
G37*
G36*
X24518Y38232D02*
X25141Y37975D01*
X25809Y37887D01*
X26477Y37975D01*
X27099Y38232D01*
X27777Y38571D01*
X28455Y38232D01*
X28844Y38072D01*
X29155Y37838D01*
X29904Y36509D01*
X29908Y36479D01*
X29278Y35225D01*
X28497Y34703D01*
X27975Y33922D01*
X27792Y33000D01*
X27845Y32728D01*
X27828Y32642D01*
X27959Y31987D01*
X28330Y31431D01*
X28330Y31431D01*
X28988Y30773D01*
X29544Y30402D01*
X30200Y30271D01*
X30486Y30328D01*
X31614Y29697D01*
X31986Y29353D01*
Y18929D01*
X31797Y18803D01*
X31275Y18022D01*
X31091Y17100D01*
X31275Y16178D01*
X31797Y15397D01*
X32578Y14875D01*
X33500Y14692D01*
X33757Y14743D01*
X35094Y13872D01*
X35257Y13629D01*
Y11315D01*
X41979D01*
X42600Y11191D01*
X43522Y11375D01*
X44303Y11897D01*
X44825Y12678D01*
X45009Y13600D01*
X44971Y13790D01*
X45751Y13945D01*
X46472Y14427D01*
X46955Y15149D01*
X47024Y15500D01*
X44900D01*
Y16500D01*
X47157D01*
X47329Y16784D01*
X48394Y17835D01*
X49442Y17837D01*
X50771Y16702D01*
Y12100D01*
X56291D01*
Y17423D01*
X53404D01*
X52150Y18016D01*
Y19500D01*
X49968D01*
Y20500D01*
X52150D01*
Y21616D01*
Y23100D01*
X49968D01*
Y24100D01*
X52150D01*
Y24760D01*
X52803Y25197D01*
X53325Y25978D01*
X54177Y26318D01*
X56222D01*
X56878Y26448D01*
X57434Y26820D01*
X58767Y28152D01*
X58951Y28278D01*
X60502Y28561D01*
X60715Y28517D01*
X60778Y28475D01*
X61700Y28291D01*
X62454Y27672D01*
Y17423D01*
X57291D01*
Y11600D01*
Y5777D01*
X62454D01*
Y-5922D01*
X59590Y-8786D01*
X54500D01*
X53844Y-8916D01*
X53504Y-9144D01*
X52203Y-9897D01*
X51422Y-9375D01*
X50500Y-9191D01*
X49578Y-9375D01*
X48797Y-9897D01*
X48275Y-10678D01*
X48092Y-11600D01*
X48275Y-12522D01*
X48797Y-13303D01*
X48921Y-13386D01*
Y-21226D01*
X48392Y-21871D01*
X43974D01*
X43549Y-21565D01*
X43503Y-21497D01*
X42797Y-21025D01*
X42406Y-20398D01*
X42054Y-19754D01*
X42054Y-18667D01*
Y-13671D01*
X36346D01*
Y-13746D01*
X31457Y-13746D01*
X30427Y-13132D01*
X30254Y-12375D01*
Y-8033D01*
X30254Y-6867D01*
X31418Y-6054D01*
X35423D01*
X36333Y-6054D01*
Y-6054D01*
X36849Y-5873D01*
X36849Y-5873D01*
X39248D01*
Y-3200D01*
X39748D01*
Y-2700D01*
X42648D01*
Y-801D01*
X42813D01*
X43468Y-671D01*
X44025Y-299D01*
X45614Y1290D01*
X46009Y1127D01*
X47100Y983D01*
X48191Y1127D01*
X49209Y1548D01*
X50082Y2218D01*
X50752Y3091D01*
X51174Y4109D01*
X51317Y5200D01*
X51823Y5777D01*
X56291D01*
Y11100D01*
X50771D01*
Y9544D01*
X49271Y8804D01*
X49209Y8852D01*
X48191Y9273D01*
X47100Y9417D01*
X46009Y9273D01*
X44991Y8852D01*
X44118Y8182D01*
X43448Y7309D01*
X41852D01*
X41182Y8182D01*
X40309Y8852D01*
X39292Y9273D01*
X38200Y9417D01*
X37108Y9273D01*
X36091Y8852D01*
X35387Y8311D01*
X34762Y8486D01*
X33966Y9015D01*
X34017Y9400D01*
X33874Y10492D01*
X33452Y11509D01*
X32782Y12382D01*
X31909Y13052D01*
X30891Y13474D01*
X29800Y13617D01*
X28708Y13474D01*
X28590Y13424D01*
X27280Y14505D01*
X27308Y14648D01*
X27125Y15570D01*
X26603Y16351D01*
X25822Y16873D01*
X24900Y17056D01*
X23978Y16873D01*
X23197Y16351D01*
X22982Y16029D01*
X20346D01*
Y16029D01*
X19854D01*
Y16029D01*
X14146D01*
Y9867D01*
X14146D01*
Y9533D01*
X14146D01*
Y3371D01*
X18463D01*
X21649Y185D01*
X21699Y0D01*
X21558Y-1382D01*
X21426Y-1630D01*
X21249Y-1749D01*
X20727Y-2530D01*
X20543Y-3452D01*
X20727Y-4374D01*
X21249Y-5155D01*
X22030Y-5677D01*
X22952Y-5861D01*
X23046Y-5842D01*
X24181Y-6365D01*
X24409Y-6696D01*
X24546Y-6956D01*
X24546Y-8033D01*
Y-13029D01*
X24071Y-13746D01*
X24071D01*
Y-16522D01*
X22571Y-17115D01*
X21588Y-16326D01*
X21383Y-13982D01*
X17641Y-14309D01*
X13900Y-14637D01*
X14075Y-16639D01*
X12667Y-17471D01*
X12175Y-17277D01*
X11552Y-16803D01*
X11210Y-12896D01*
X7665Y-13206D01*
X4119Y-13516D01*
X4555Y-18494D01*
X3378Y-18596D01*
X3731Y-22624D01*
X8453Y-22211D01*
X13175Y-21798D01*
X13039Y-20251D01*
X14456Y-19234D01*
X14974Y-19462D01*
X15051Y-19705D01*
X15382Y-23490D01*
X15382D01*
X15708Y-27216D01*
X15732Y-27487D01*
X16051Y-31138D01*
X16231Y-31122D01*
X16239Y-31212D01*
X19883Y-30894D01*
X23526Y-30575D01*
X23518Y-30485D01*
X23699Y-30469D01*
X23476Y-27919D01*
X23259Y-25445D01*
X23133Y-23997D01*
X23004Y-22522D01*
X23652Y-21814D01*
X24308Y-21684D01*
X24864Y-21312D01*
X26722Y-19454D01*
X30233Y-19454D01*
X31733Y-19454D01*
X35141D01*
X36346Y-20167D01*
X36346Y-21333D01*
Y-25078D01*
X36219Y-25190D01*
X34846Y-25742D01*
X34551Y-25545D01*
X34200Y-25476D01*
Y-27600D01*
Y-29724D01*
X34551Y-29655D01*
X35027Y-29337D01*
X35946Y-29614D01*
X36527Y-29995D01*
X36527Y-32052D01*
X35083Y-32186D01*
X34887D01*
X34122Y-31675D01*
X33200Y-31492D01*
X32278Y-31675D01*
X31497Y-32197D01*
X30975Y-32978D01*
X30792Y-33900D01*
X30975Y-34822D01*
X31497Y-35603D01*
X32278Y-36125D01*
X33200Y-36309D01*
X34122Y-36125D01*
X34846Y-35641D01*
X36346Y-35925D01*
Y-38729D01*
X42054D01*
Y-33477D01*
X42054Y-32567D01*
X41873Y-31142D01*
Y-29652D01*
X39200D01*
Y-28652D01*
X41873D01*
Y-26851D01*
X42486Y-26363D01*
X42923Y-26466D01*
X43974Y-27443D01*
Y-28033D01*
X43974Y-29533D01*
Y-34529D01*
X44146D01*
Y-39167D01*
X44146Y-40333D01*
X44146Y-41833D01*
Y-46829D01*
X49854D01*
Y-45462D01*
X51352D01*
X52008Y-45332D01*
X52564Y-44960D01*
X54212Y-43312D01*
X54584Y-42756D01*
X54714Y-42100D01*
Y-40487D01*
X55225Y-39722D01*
X55409Y-38800D01*
X55225Y-37878D01*
X54703Y-37097D01*
X53922Y-36575D01*
X53000Y-36391D01*
X52078Y-36575D01*
X51354Y-37059D01*
X51016Y-36992D01*
X49854Y-36556D01*
Y-34171D01*
X49683D01*
Y-29463D01*
X50656Y-28759D01*
X51183Y-28566D01*
X51900Y-28708D01*
X52822Y-28525D01*
X53603Y-28003D01*
X54018Y-27383D01*
X54128Y-27457D01*
X55050Y-27640D01*
X55628Y-27788D01*
X55907Y-28009D01*
X55778Y-29609D01*
X55497Y-29797D01*
X54975Y-30578D01*
X54791Y-31500D01*
X54975Y-32422D01*
X55497Y-33203D01*
X56278Y-33725D01*
X57200Y-33909D01*
X58122Y-33725D01*
X58903Y-33203D01*
X59425Y-32422D01*
X59605Y-31519D01*
X59625Y-31499D01*
X59997Y-30942D01*
X60127Y-30287D01*
Y-28381D01*
X61457D01*
Y-21279D01*
X62457D01*
Y-28381D01*
X62646D01*
Y-28759D01*
X65332D01*
X65500Y-28781D01*
X65668Y-28759D01*
X65963D01*
X65975Y-28788D01*
X66480Y-29446D01*
X67138Y-29951D01*
X67904Y-30268D01*
X68726Y-30377D01*
X69548Y-30268D01*
X70314Y-29951D01*
X70972Y-29446D01*
X70988Y-29426D01*
X72819Y-29136D01*
X75420Y-31737D01*
Y-40180D01*
X88100D01*
Y-48700D01*
X11138D01*
X11072Y-47200D01*
X14188Y-46927D01*
X13749Y-41919D01*
X10204Y-42229D01*
X6658Y-42539D01*
X6927Y-45605D01*
X5480Y-46280D01*
X700Y-41500D01*
Y37096D01*
X9700D01*
X9700Y37100D01*
X16000D01*
Y37096D01*
X16200D01*
X16661Y37187D01*
X17012Y37422D01*
X17339Y37203D01*
X17800Y37111D01*
X22131D01*
X22165Y37118D01*
X22200Y37113D01*
X22395Y37164D01*
X22592Y37203D01*
X22621Y37223D01*
X22655Y37232D01*
X22815Y37353D01*
X22982Y37464D01*
X23002Y37494D01*
X23030Y37515D01*
X23984Y38586D01*
X24057D01*
X24518Y38232D01*
D02*
G37*
G36*
X46476Y47900D02*
X47167Y47763D01*
X47495Y47828D01*
X48008Y47494D01*
X48339Y47163D01*
X48583Y46788D01*
X48629Y46424D01*
X48609Y46321D01*
X48746Y45630D01*
X48942Y45337D01*
X48746Y45044D01*
X48609Y44353D01*
X48746Y43661D01*
X48942Y43369D01*
X48746Y43075D01*
X48609Y42384D01*
X48746Y41693D01*
X48942Y41400D01*
X48746Y41107D01*
X48609Y40416D01*
X48746Y39724D01*
X48942Y39432D01*
X48746Y39138D01*
X48609Y38447D01*
X48746Y37756D01*
X48942Y37463D01*
X48746Y37170D01*
X48609Y36479D01*
X48674Y36150D01*
X48339Y35637D01*
X48008Y35306D01*
X47495Y34972D01*
X47167Y35037D01*
X46476Y34900D01*
X46183Y34704D01*
X45890Y34900D01*
X45198Y35037D01*
X44507Y34900D01*
X44214Y34704D01*
X43921Y34900D01*
X43230Y35037D01*
X42539Y34900D01*
X42246Y34704D01*
X41953Y34900D01*
X41261Y35037D01*
X40570Y34900D01*
X40277Y34704D01*
X39984Y34900D01*
X39293Y35037D01*
X38602Y34900D01*
X38309Y34704D01*
X38016Y34900D01*
X37324Y35037D01*
X37222Y35017D01*
X36857Y35062D01*
X36483Y35306D01*
X36152Y35637D01*
X35908Y36011D01*
X35862Y36376D01*
X35883Y36479D01*
X35745Y37170D01*
X35550Y37463D01*
X35745Y37756D01*
X35883Y38447D01*
X35745Y39138D01*
X35550Y39432D01*
X35745Y39724D01*
X35883Y40416D01*
X35745Y41107D01*
X35550Y41400D01*
X35745Y41693D01*
X35883Y42384D01*
X35745Y43075D01*
X35550Y43369D01*
X35745Y43661D01*
X35883Y44353D01*
X35745Y45044D01*
X35550Y45337D01*
X35745Y45630D01*
X35883Y46321D01*
X35862Y46424D01*
X35908Y46788D01*
X36152Y47163D01*
X36483Y47494D01*
X36996Y47828D01*
X37324Y47763D01*
X38016Y47900D01*
X38309Y48096D01*
X38602Y47900D01*
X39293Y47763D01*
X39984Y47900D01*
X40277Y48096D01*
X40570Y47900D01*
X41261Y47763D01*
X41953Y47900D01*
X42246Y48096D01*
X42539Y47900D01*
X43230Y47763D01*
X43921Y47900D01*
X44214Y48096D01*
X44507Y47900D01*
X45198Y47763D01*
X45890Y47900D01*
X46183Y48096D01*
X46476Y47900D01*
D02*
G37*
G36*
X130109Y59273D02*
X129308Y57773D01*
X126652D01*
Y57754D01*
X121877D01*
X120967Y57754D01*
X119542Y57573D01*
X118052D01*
Y54900D01*
Y52227D01*
X119542D01*
X120967Y52046D01*
X122240Y52046D01*
X122334Y51952D01*
X122465Y51296D01*
X122836Y50740D01*
X122784Y49950D01*
X122652Y49848D01*
X121989Y48985D01*
X121573Y47979D01*
X121431Y46900D01*
X121573Y45821D01*
X121989Y44815D01*
X122652Y43952D01*
X123515Y43289D01*
X124521Y42873D01*
X125600Y42731D01*
X126679Y42873D01*
X127050Y43026D01*
X130388Y39688D01*
X130944Y39316D01*
X131600Y39186D01*
X132830D01*
X132973Y38921D01*
X133222Y37686D01*
X132652Y37248D01*
X131989Y36385D01*
X131573Y35379D01*
X131430Y34300D01*
X131573Y33221D01*
X131989Y32215D01*
X132652Y31352D01*
X133515Y30689D01*
X134521Y30273D01*
X135600Y30130D01*
X136679Y30273D01*
X137685Y30689D01*
X138186Y31074D01*
X139390Y30654D01*
X139686Y30408D01*
Y20710D01*
X135781Y16805D01*
X134878Y16625D01*
X134097Y16103D01*
X133575Y15322D01*
X133391Y14400D01*
X133575Y13478D01*
X134097Y12697D01*
X134242Y12600D01*
X133787Y11100D01*
X102342D01*
Y18720D01*
X101554D01*
Y22656D01*
X102716Y23092D01*
X103054Y23159D01*
X103778Y22675D01*
X104700Y22491D01*
X105622Y22675D01*
X106403Y23197D01*
X106787Y23771D01*
X110254D01*
Y26530D01*
X113890Y30166D01*
X119734D01*
Y38434D01*
X111466D01*
Y36506D01*
X110073Y36248D01*
Y36248D01*
X107900D01*
Y33348D01*
X107400D01*
Y32848D01*
X104727D01*
Y30448D01*
X104727Y30448D01*
X104546Y29933D01*
X104179Y29095D01*
X102954Y29793D01*
Y29933D01*
X102773Y31358D01*
Y32848D01*
X100100D01*
Y33848D01*
X102773D01*
Y36248D01*
X100831D01*
X100257Y37633D01*
X103146Y40522D01*
X103300Y40492D01*
X104222Y40675D01*
X105003Y41197D01*
X105525Y41978D01*
X105709Y42900D01*
X105525Y43822D01*
X105003Y44603D01*
X104222Y45125D01*
X103300Y45309D01*
X102378Y45125D01*
X101597Y44603D01*
X101075Y43822D01*
X100945Y43169D01*
X95781Y38005D01*
X94878Y37825D01*
X94387Y37497D01*
X93343Y37839D01*
X92887Y38162D01*
Y40938D01*
X92872D01*
Y44465D01*
X92500D01*
Y48335D01*
X95997D01*
Y50720D01*
X97403Y51056D01*
X97806Y50083D01*
X98447Y49247D01*
X99283Y48606D01*
X100256Y48203D01*
X100800Y48131D01*
Y52100D01*
X101300D01*
Y52600D01*
X105269D01*
X105197Y53144D01*
X104794Y54117D01*
X104153Y54953D01*
X103317Y55594D01*
X102864Y55782D01*
X102810Y57383D01*
X103209Y57548D01*
X104082Y58218D01*
X104752Y59091D01*
X104916Y59486D01*
X129967D01*
X130109Y59273D01*
D02*
G37*
%LPC*%
G36*
X147400Y47769D02*
X146321Y47627D01*
X145315Y47211D01*
X144452Y46548D01*
X143789Y45685D01*
X143373Y44679D01*
X143230Y43600D01*
X143373Y42521D01*
X143789Y41515D01*
X144452Y40652D01*
X145315Y39989D01*
X146321Y39573D01*
X147400Y39430D01*
X148479Y39573D01*
X149485Y39989D01*
X150348Y40652D01*
X151011Y41515D01*
X151427Y42521D01*
X151569Y43600D01*
X151427Y44679D01*
X151011Y45685D01*
X150348Y46548D01*
X149485Y47211D01*
X148479Y47627D01*
X147400Y47769D01*
D02*
G37*
G36*
X151534Y57734D02*
X143266D01*
Y49466D01*
X151534D01*
Y57734D01*
D02*
G37*
G36*
X151321Y33100D02*
X147900D01*
Y29679D01*
X148432Y29749D01*
X149393Y30147D01*
X150219Y30781D01*
X150853Y31607D01*
X151251Y32568D01*
X151321Y33100D01*
D02*
G37*
G36*
X147900Y37521D02*
Y34100D01*
X151321D01*
X151251Y34632D01*
X150853Y35593D01*
X150219Y36419D01*
X149393Y37053D01*
X148432Y37451D01*
X147900Y37521D01*
D02*
G37*
G36*
X10685Y-6891D02*
X7638Y-7158D01*
X8076Y-12167D01*
X11123Y-11900D01*
X10685Y-6891D01*
D02*
G37*
G36*
X6641Y-7245D02*
X3594Y-7512D01*
X4032Y-12520D01*
X7080Y-12254D01*
X6641Y-7245D01*
D02*
G37*
G36*
X20978Y-9350D02*
X17734Y-9634D01*
X18052Y-13270D01*
X21296Y-12986D01*
X20978Y-9350D01*
D02*
G37*
G36*
X56769Y-3900D02*
X53300D01*
Y-7369D01*
X53844Y-7297D01*
X54817Y-6894D01*
X55653Y-6253D01*
X56294Y-5417D01*
X56697Y-4444D01*
X56769Y-3900D01*
D02*
G37*
G36*
X52300D02*
X48831D01*
X48903Y-4444D01*
X49306Y-5417D01*
X49947Y-6253D01*
X50783Y-6894D01*
X51756Y-7297D01*
X52300Y-7369D01*
Y-3900D01*
D02*
G37*
G36*
X42648Y-3700D02*
X40248D01*
Y-5873D01*
X42648D01*
Y-3700D01*
D02*
G37*
G36*
X23614Y-31571D02*
X19970Y-31890D01*
X16326Y-32209D01*
X16439Y-33491D01*
X16439D01*
X16452Y-33533D01*
X16130Y-34359D01*
X15641Y-34842D01*
X15248Y-34999D01*
X14317Y-34854D01*
X14051Y-31815D01*
X9329Y-32228D01*
X4607Y-32641D01*
X4959Y-36669D01*
X6136Y-36566D01*
X6571Y-41543D01*
X10117Y-41233D01*
X13662Y-40923D01*
X13311Y-36906D01*
X14284Y-36238D01*
X15837Y-36774D01*
X15953Y-38100D01*
X18200D01*
Y-38550D01*
X19750Y-38414D01*
X23492Y-38087D01*
X23174Y-34451D01*
X23174D01*
X23139Y-34411D01*
X23726Y-32854D01*
X23726D01*
X23614Y-31571D01*
D02*
G37*
G36*
X23579Y-39083D02*
X20336Y-39367D01*
X20654Y-43003D01*
X23897Y-42719D01*
X23579Y-39083D01*
D02*
G37*
G36*
X19339Y-39454D02*
X16096Y-39738D01*
X16414Y-43373D01*
X19658Y-43090D01*
X19339Y-39454D01*
D02*
G37*
G36*
X13262Y-22794D02*
X8540Y-23207D01*
X3818Y-23620D01*
X4170Y-27648D01*
X4520Y-31645D01*
X9242Y-31232D01*
X13964Y-30819D01*
X13612Y-26791D01*
X13262Y-22794D01*
D02*
G37*
G36*
X16738Y-9721D02*
X13495Y-10005D01*
X13813Y-13641D01*
X17056Y-13357D01*
X16738Y-9721D01*
D02*
G37*
G36*
X33200Y-25476D02*
X32849Y-25545D01*
X32127Y-26028D01*
X31645Y-26749D01*
X31576Y-27100D01*
X33200D01*
Y-25476D01*
D02*
G37*
G36*
Y-28100D02*
X31576D01*
X31645Y-28451D01*
X32127Y-29173D01*
X32849Y-29655D01*
X33200Y-29724D01*
Y-28100D01*
D02*
G37*
G36*
X53300Y569D02*
Y-2900D01*
X56769D01*
X56697Y-2356D01*
X56294Y-1383D01*
X55653Y-547D01*
X54817Y94D01*
X53844Y497D01*
X53300Y569D01*
D02*
G37*
G36*
X52300D02*
X51756Y497D01*
X50783Y94D01*
X49947Y-547D01*
X49306Y-1383D01*
X48903Y-2356D01*
X48831Y-2900D01*
X52300D01*
Y569D01*
D02*
G37*
G36*
X117052Y54400D02*
X114652D01*
Y52275D01*
X114652Y52227D01*
X114588Y50754D01*
X114568Y50751D01*
X113607Y50353D01*
X112781Y49719D01*
X112147Y48893D01*
X111749Y47932D01*
X111679Y47400D01*
X115600D01*
X119521D01*
X119451Y47932D01*
X119053Y48893D01*
X118419Y49719D01*
X117593Y50353D01*
X116632Y50751D01*
X116847Y52227D01*
X117052D01*
Y54400D01*
D02*
G37*
G36*
X105269Y51600D02*
X101800D01*
Y48131D01*
X102344Y48203D01*
X103317Y48606D01*
X104153Y49247D01*
X104794Y50083D01*
X105197Y51056D01*
X105269Y51600D01*
D02*
G37*
G36*
X115100Y46400D02*
X111679D01*
X111749Y45868D01*
X112147Y44907D01*
X112781Y44081D01*
X113607Y43447D01*
X114568Y43049D01*
X115100Y42979D01*
Y46400D01*
D02*
G37*
G36*
X119521D02*
X116100D01*
Y42979D01*
X116632Y43049D01*
X117593Y43447D01*
X118419Y44081D01*
X119053Y44907D01*
X119451Y45868D01*
X119521Y46400D01*
D02*
G37*
G36*
X117052Y57573D02*
X114652D01*
Y55400D01*
X117052D01*
Y57573D01*
D02*
G37*
G36*
X106900Y36248D02*
X104727D01*
Y33848D01*
X106900D01*
Y36248D01*
D02*
G37*
G36*
X125600Y38469D02*
X124521Y38327D01*
X123515Y37911D01*
X122652Y37248D01*
X121989Y36385D01*
X121573Y35379D01*
X121431Y34300D01*
X121573Y33221D01*
X121989Y32215D01*
X122652Y31352D01*
X123515Y30689D01*
X124521Y30273D01*
X125600Y30130D01*
X126679Y30273D01*
X127685Y30689D01*
X128548Y31352D01*
X129211Y32215D01*
X129627Y33221D01*
X129770Y34300D01*
X129627Y35379D01*
X129211Y36385D01*
X128548Y37248D01*
X127685Y37911D01*
X126679Y38327D01*
X125600Y38469D01*
D02*
G37*
%LPD*%
D10*
X21200Y45368D02*
D03*
Y41431D02*
D03*
X12800Y35631D02*
D03*
Y39568D02*
D03*
D11*
X18870Y40300D02*
D03*
X15130D02*
D03*
D12*
X9843Y51400D02*
D03*
Y29550D02*
D03*
D13*
X6772Y40475D02*
D03*
D14*
X38800Y14740D02*
D03*
Y22260D02*
D03*
D15*
X107400Y26852D02*
D03*
Y33348D02*
D03*
X46828Y-24952D02*
D03*
Y-31448D02*
D03*
X91700Y14652D02*
D03*
Y21148D02*
D03*
X100100Y26852D02*
D03*
Y33348D02*
D03*
X98700Y14852D02*
D03*
Y21348D02*
D03*
X39200Y-35648D02*
D03*
Y-29152D02*
D03*
X47000Y-43748D02*
D03*
Y-37252D02*
D03*
X39200Y-23248D02*
D03*
Y-16752D02*
D03*
X27400Y-9948D02*
D03*
Y-3452D02*
D03*
X17000Y6452D02*
D03*
Y12948D02*
D03*
X23200Y6452D02*
D03*
Y12948D02*
D03*
X75900Y33252D02*
D03*
Y39748D02*
D03*
X67700Y53052D02*
D03*
Y59548D02*
D03*
D16*
X56791Y11600D02*
D03*
X80610D02*
D03*
D17*
X82300Y-5000D02*
D03*
X82900Y-32700D02*
D03*
D18*
X42387Y67218D02*
D03*
Y62100D02*
D03*
X35300Y67218D02*
D03*
Y62100D02*
D03*
D19*
X90091Y56800D02*
D03*
X76509D02*
D03*
D20*
X49968Y23600D02*
D03*
X46031D02*
D03*
X49968Y20000D02*
D03*
X46031D02*
D03*
D21*
X117552Y54900D02*
D03*
X124048D02*
D03*
X129552Y55100D02*
D03*
X136048D02*
D03*
X27152Y-16600D02*
D03*
X33648D02*
D03*
X72752Y24900D02*
D03*
X79248D02*
D03*
X33252Y-3200D02*
D03*
X39748D02*
D03*
D22*
X58840Y65600D02*
D03*
X66360D02*
D03*
D23*
X17598Y-13811D02*
D03*
X19794Y-38912D02*
D03*
D24*
X10160Y-41731D02*
D03*
X7621Y-12708D02*
D03*
D25*
X19034Y-21194D02*
D03*
X19257Y-23744D02*
D03*
X19480Y-26293D02*
D03*
X19703Y-28842D02*
D03*
X19926Y-31392D02*
D03*
D26*
X9285Y-31730D02*
D03*
X8496Y-22709D02*
D03*
D27*
X30400Y65470D02*
D03*
Y61730D02*
D03*
X47600Y64430D02*
D03*
Y68170D02*
D03*
D28*
X91100Y31276D02*
D03*
X89131D02*
D03*
X87163D02*
D03*
X85194D02*
D03*
X83226D02*
D03*
Y42300D02*
D03*
X85194D02*
D03*
X87163D02*
D03*
X89131D02*
D03*
X91100D02*
D03*
D29*
X87163Y36788D02*
D03*
D30*
X65500Y-26200D02*
D03*
Y-24231D02*
D03*
Y-22263D02*
D03*
Y-20294D02*
D03*
Y-18326D02*
D03*
Y-16357D02*
D03*
X58413D02*
D03*
Y-18326D02*
D03*
Y-20294D02*
D03*
Y-22263D02*
D03*
Y-24231D02*
D03*
Y-26200D02*
D03*
D31*
X61957Y-21279D02*
D03*
D32*
X42246Y41400D02*
D03*
D33*
X49135Y32050D02*
D03*
X47167D02*
D03*
X45198D02*
D03*
X43230D02*
D03*
X41261D02*
D03*
X39293D02*
D03*
X37324D02*
D03*
X35356D02*
D03*
Y50750D02*
D03*
X37324D02*
D03*
X39293D02*
D03*
X41261D02*
D03*
X43230D02*
D03*
X45198D02*
D03*
X47167D02*
D03*
X49135D02*
D03*
D34*
X32895Y34510D02*
D03*
Y36479D02*
D03*
Y38447D02*
D03*
Y40416D02*
D03*
Y42384D02*
D03*
Y44353D02*
D03*
Y46321D02*
D03*
Y48290D02*
D03*
X51596D02*
D03*
Y46321D02*
D03*
Y44353D02*
D03*
Y42384D02*
D03*
Y40416D02*
D03*
Y38447D02*
D03*
Y36479D02*
D03*
Y34510D02*
D03*
D35*
X25809Y42358D02*
D03*
Y40468D02*
D03*
X29746D02*
D03*
Y42358D02*
D03*
D36*
X53900Y62681D02*
Y65900D01*
X49063Y57844D02*
X53900Y62681D01*
X44100Y56100D02*
X44822Y56822D01*
X45950D01*
X46972Y57844D02*
X49063D01*
X45950Y56822D02*
X46972Y57844D01*
X44100Y56100D02*
X44900D01*
X51174Y54900D02*
X54146D01*
X50544Y54269D02*
X51174Y54900D01*
X49096Y54269D02*
X50544D01*
X47167Y52340D02*
X49096Y54269D01*
X48322Y59632D02*
X51230Y62539D01*
X46231Y59632D02*
X48322D01*
X45210Y58609D02*
X46231Y59632D01*
X35430Y58609D02*
X45210D01*
X32887Y56067D02*
X35430Y58609D01*
X40300Y53632D02*
X45922D01*
X47167Y50750D02*
Y52340D01*
X51230Y62539D02*
Y68170D01*
X58540Y60260D02*
Y65900D01*
Y60260D02*
X61600Y57200D01*
X35356Y50750D02*
Y55044D01*
X37824Y54022D02*
Y54324D01*
X37324Y53522D02*
X37824Y54022D01*
X37324Y50750D02*
Y53522D01*
X42387Y62100D02*
X47300D01*
X53900Y65900D02*
X58540D01*
X47600Y68170D02*
X51230D01*
X76509Y50209D02*
Y53591D01*
X75700Y43400D02*
X75900Y43200D01*
X73100Y46800D02*
X76509Y50209D01*
X72752Y46452D02*
X73100Y46800D01*
X57249Y54325D02*
X69531Y42044D01*
X56509Y52538D02*
X67743Y41303D01*
X56380Y52538D02*
X56509D01*
X55333Y53585D02*
X56380Y52538D01*
X55768Y50750D02*
X65956Y40563D01*
X49135Y50750D02*
X55768D01*
X57023Y46968D02*
X60969Y43023D01*
X54878Y46968D02*
X57023D01*
X55333Y53585D02*
Y53713D01*
X57121Y54325D02*
X57249D01*
X57121D02*
Y54453D01*
X54146Y54900D02*
X55333Y53713D01*
X54230Y46321D02*
X54878Y46968D01*
X51596Y46321D02*
X54230D01*
X69531Y-200D02*
Y42044D01*
X67743Y-11857D02*
Y41303D01*
X65956Y-7372D02*
Y40563D01*
X60969Y39950D02*
Y43023D01*
X33648Y-16600D02*
X33800Y-16752D01*
X39200D01*
X37452Y-33900D02*
X39200Y-35648D01*
X33200Y-33900D02*
X37452D01*
X37648Y-27600D02*
X39200Y-29152D01*
X33700Y-27600D02*
X37648D01*
X17000Y6452D02*
Y7259D01*
X23346Y913D01*
X20129Y-20100D02*
X23652D01*
X47000Y-43748D02*
X51352D01*
X53000Y-42100D01*
Y-38800D01*
X46828Y-31448D02*
X47000Y-31620D01*
Y-37252D02*
Y-31620D01*
X117552Y54900D02*
X122065Y59413D01*
X125239D01*
X129552Y55100D01*
X117552Y48852D02*
Y54900D01*
X115600Y46900D02*
X117552Y48852D01*
X23200Y12948D02*
X24900Y14648D01*
X46468Y29187D02*
X48704D01*
X36832Y24228D02*
X38800Y22260D01*
X36832Y24228D02*
Y28822D01*
X37324Y29315D01*
Y32050D01*
X39293Y27807D02*
Y32050D01*
Y27807D02*
X39300Y27800D01*
X41261Y29339D02*
Y32050D01*
X43230Y29898D02*
Y32050D01*
Y29898D02*
X46428Y26700D01*
X45198Y30457D02*
Y32050D01*
Y30457D02*
X46468Y29187D01*
X60969Y39950D02*
X64169Y36750D01*
X58859Y39531D02*
X61869Y36522D01*
X57377Y39531D02*
X58859D01*
X56840Y40069D02*
X57377Y39531D01*
X54777Y40069D02*
X56840D01*
X59031Y35131D02*
X59400Y35500D01*
X61700Y30700D02*
X61869Y30869D01*
X64169Y-6632D02*
Y36750D01*
X55134Y38266D02*
X55800Y37600D01*
X58016Y42384D02*
X58400Y42000D01*
X57669Y31368D02*
X58350Y32050D01*
X79248Y26448D02*
X80500Y27700D01*
X85194Y25106D02*
Y31276D01*
X87500Y27500D02*
X87700D01*
X72752Y24900D02*
Y46452D01*
X71400Y-8000D02*
Y-7900D01*
X73299Y-6001D01*
Y-477D01*
X72752Y70D02*
X73299Y-477D01*
X72752Y70D02*
Y24900D01*
X58413Y-12387D02*
X60300Y-10500D01*
X58413Y-16357D02*
Y-12387D01*
X62756Y-11856D02*
X63000Y-12100D01*
X57200Y-31500D02*
X58413Y-30287D01*
Y-26200D01*
X58323Y-24322D02*
X58413Y-24231D01*
X55959Y-24322D02*
X58323D01*
X55050Y-25232D02*
X55959Y-24322D01*
X60300Y-10500D02*
X64169Y-6632D01*
X54500Y-10500D02*
X60300D01*
X53104Y-11896D02*
X54500Y-10500D01*
X53104Y-13405D02*
Y-11896D01*
X52832Y-13678D02*
X53104Y-13405D01*
X52832Y-19931D02*
Y-13678D01*
Y-19931D02*
X53104Y-20204D01*
X54445Y-22354D02*
X58323D01*
X54126Y-22672D02*
X54445Y-22354D01*
X53981Y-22672D02*
X54126D01*
X53891Y-22763D02*
X53981Y-22672D01*
X52172Y-22763D02*
X53891D01*
X50635Y-21226D02*
Y-11600D01*
Y-21226D02*
X52172Y-22763D01*
X53104Y-20204D02*
X58323D01*
X58413Y-20294D01*
X55050Y-25250D02*
Y-25232D01*
X57382Y-24231D02*
X58413D01*
X50552Y-24952D02*
X51900Y-26300D01*
X56528Y-18326D02*
X58413D01*
X56028Y-17826D02*
X56528Y-18326D01*
X55326Y-17826D02*
X56028D01*
X55300Y-17800D02*
X55326Y-17826D01*
X46828Y-24952D02*
X50552D01*
X39200Y-23248D02*
X39248Y-23200D01*
X41800D01*
X16975Y-41731D02*
X19153Y-39553D01*
X19926Y-33274D02*
Y-31392D01*
X69531Y-200D02*
X70831Y-1500D01*
X51596Y34104D02*
X55200Y30500D01*
X51596Y34104D02*
Y34510D01*
X57669Y29478D02*
Y31368D01*
X56222Y28032D02*
X57669Y29478D01*
X54177Y28032D02*
X56222D01*
X52478Y29732D02*
X54177Y28032D01*
X51454Y29732D02*
X52478D01*
X49135Y32050D02*
X51454Y29732D01*
X87200Y27200D02*
Y31239D01*
X79248Y24900D02*
Y26448D01*
X55300Y-17800D02*
Y-14700D01*
X67700Y-11900D02*
X67743Y-11857D01*
X95800Y35600D02*
X103200Y43000D01*
X103300Y42900D01*
X61869Y30869D02*
Y36522D01*
X53548Y40053D02*
X54763D01*
X54777Y40069D01*
X57023Y42031D02*
X57375Y42384D01*
X54978Y42031D02*
X57023D01*
X54625Y42384D02*
X54978Y42031D01*
X55853Y44353D02*
X56000Y44500D01*
X57375Y42384D02*
X58016D01*
X51777Y38266D02*
X55134D01*
X51596Y42384D02*
X54625D01*
X54777Y35131D02*
X59031D01*
X53430Y36479D02*
X54777Y35131D01*
X51596Y36479D02*
X53430D01*
X62756Y-10572D02*
X65956Y-7372D01*
X53367Y40235D02*
X53548Y40053D01*
X51777Y40235D02*
X53367D01*
X51596Y38447D02*
X51777Y38266D01*
X66360Y65600D02*
X67700Y64260D01*
Y59548D02*
Y64260D01*
X67148Y60100D02*
X67700Y59548D01*
X64000Y60100D02*
X67148D01*
X76509Y53591D02*
Y56800D01*
X51596Y44353D02*
X55853D01*
X72761Y53052D02*
X76509Y56800D01*
X67700Y53052D02*
X72761D01*
X32887Y48298D02*
Y56067D01*
Y48298D02*
X32895Y48290D01*
X58323Y-22354D02*
X58413Y-22263D01*
X62756Y-11856D02*
Y-10572D01*
X75900Y39748D02*
Y43200D01*
X51596Y40416D02*
X51777Y40235D01*
X105448Y24900D02*
X107400Y26852D01*
X104700Y24900D02*
X105448D01*
X92137Y21585D02*
Y26637D01*
X91700Y21148D02*
X92137Y21585D01*
X96652Y26852D02*
X100100D01*
X95800Y26000D02*
X96652Y26852D01*
X87200Y27200D02*
X87500Y27500D01*
X87163Y31276D02*
X87200Y31239D01*
X98700Y25452D02*
X100100Y26852D01*
X98700Y21348D02*
Y25452D01*
X77752Y33252D02*
X81288Y36788D01*
X75900Y33252D02*
X77752D01*
X135800Y14400D02*
X141400Y20000D01*
Y35700D01*
X136200Y40900D02*
X141400Y35700D01*
X131600Y40900D02*
X136200D01*
X125600Y46900D02*
X131600Y40900D01*
X76509Y56800D02*
Y63609D01*
X80800Y67900D01*
X96400D01*
X101100Y63200D01*
Y61200D02*
Y63200D01*
X17000Y12948D02*
X23200D01*
X22952Y-3452D02*
X27400D01*
X27652Y-3200D01*
X33252D01*
X42813Y913D02*
X47100Y5200D01*
X23346Y913D02*
X42813D01*
X23200Y6452D02*
X25448D01*
X46031Y20200D02*
Y23600D01*
X49968Y20200D02*
Y23600D01*
X29600Y60930D02*
X30400Y61730D01*
X29600Y47500D02*
Y60930D01*
X34930Y61730D02*
X35300Y62100D01*
X30400Y61730D02*
X34930D01*
X34318Y68200D02*
X35300Y67218D01*
X30400Y68200D02*
X34318D01*
X30400Y65470D02*
Y68200D01*
X47600Y62400D02*
Y64430D01*
X47300Y62100D02*
X47600Y62400D01*
X42387Y67218D02*
X43339Y68170D01*
X47600D01*
X27000Y47572D02*
X30220Y44353D01*
X32895D01*
X27000Y47572D02*
Y52900D01*
X29600Y47500D02*
X30779Y46321D01*
X32895D01*
X85104Y42391D02*
X85194Y42300D01*
X85104Y42391D02*
Y43817D01*
X84209Y44713D02*
X85104Y43817D01*
X81913Y44713D02*
X84209D01*
X76948Y39748D02*
X81913Y44713D01*
X75900Y39748D02*
X76948D01*
X85364Y36788D02*
X87163D01*
X81288D02*
X85364D01*
X83226Y38926D02*
X85364Y36788D01*
X83226Y38926D02*
Y42300D01*
X87163D02*
Y45037D01*
X85700Y46500D02*
X87163Y45037D01*
X83600Y46500D02*
X85700D01*
X76509Y53591D02*
X83600Y46500D01*
X89131Y42300D02*
X91100D01*
X89131D02*
X90091Y43260D01*
X136048Y55100D02*
Y57152D01*
X132000Y61200D02*
X136048Y57152D01*
X101100Y61200D02*
X132000D01*
X100100Y33348D02*
X107400D01*
X108152Y26852D02*
X115600Y34300D01*
X107400Y26852D02*
X108152D01*
X135600Y46900D02*
X136048Y47348D01*
Y55100D01*
X125600Y46900D02*
Y50400D01*
X124048Y51952D02*
X125600Y50400D01*
X124048Y51952D02*
Y54900D01*
X29930Y42384D02*
X32895D01*
X29955Y40416D02*
X32895D01*
X25809Y42358D02*
Y44109D01*
X25900Y44200D01*
X62000Y-21500D02*
Y-21322D01*
X7621Y-21834D02*
X8496Y-22709D01*
X9285Y-23498D01*
Y-31730D02*
X10160Y-32605D01*
X16495Y-12708D02*
X17598Y-13811D01*
X23652Y-20100D02*
X27152Y-16600D01*
Y-10196D01*
X27400Y-9948D01*
X20560Y-19669D02*
Y-19240D01*
X20129Y-20100D02*
X20560Y-19669D01*
X18200Y-38600D02*
X19482D01*
X45922Y53632D02*
X48348Y56057D01*
X49803D01*
X50434Y56687D01*
X54887D01*
X57121Y54453D01*
X37824Y54324D02*
X39607D01*
X40300Y53632D01*
X65500Y-18326D02*
Y-16357D01*
X65857Y-16000D01*
X68400D01*
X33700Y30394D02*
X35356Y32050D01*
X33700Y17100D02*
Y30394D01*
X38800Y14740D02*
X42460D01*
X42700Y14500D01*
X33500Y17100D02*
X33700D01*
X87163Y36788D02*
X91121D01*
X94778Y33132D01*
X99884D01*
X100100Y33348D01*
X88252Y14652D02*
X91700D01*
X88100Y14500D02*
X88252Y14652D01*
X88100Y14300D02*
Y14500D01*
X41261Y29339D02*
X44831Y25769D01*
Y25677D02*
Y25769D01*
Y25677D02*
X46031Y24477D01*
Y23600D02*
Y24477D01*
X48704Y29187D02*
X50348Y27543D01*
Y26900D02*
Y27543D01*
Y26900D02*
X51100D01*
X46428Y26700D02*
X47700D01*
X47500Y12600D02*
Y13400D01*
X30200Y31985D02*
Y33000D01*
X29542Y32642D02*
X30200Y31985D01*
X29542Y32642D02*
X31410Y34510D01*
X32895D01*
X42600Y14400D02*
X42700Y14500D01*
X42600Y13600D02*
Y14400D01*
X25448Y6452D02*
X27600Y4300D01*
X37300D01*
X38200Y5200D01*
X25641Y40300D02*
X25754Y40413D01*
X18870Y40300D02*
X25641D01*
D37*
X70200Y-19300D02*
X71400D01*
X82300Y-8400D01*
Y-5000D01*
X69205Y-23247D02*
X71984D01*
X81437Y-32700D01*
X82900D01*
X81755Y13045D02*
X85800Y17090D01*
X7621Y-21834D02*
Y-12708D01*
X9285Y-31730D02*
Y-23498D01*
X10160Y-41731D02*
Y-32605D01*
Y-41731D02*
X16975D01*
X7621Y-12708D02*
X16495D01*
X85800Y17654D02*
Y20881D01*
D38*
X69205Y-20294D02*
X70200Y-19300D01*
X82635Y26166D02*
X83059Y26589D01*
X82635Y24046D02*
Y26166D01*
X90259Y25340D02*
Y31100D01*
X65500Y-22263D02*
X69205D01*
X65500Y-20294D02*
X69205D01*
X82635Y29184D02*
X83059Y28760D01*
Y26589D02*
Y28760D01*
X82635Y29184D02*
Y30686D01*
X89131Y31276D02*
X91100D01*
X85800Y20881D02*
X90259Y25340D01*
X82635Y24046D02*
X85800Y20881D01*
X82635Y30686D02*
X83226Y31276D01*
X65500Y-26200D02*
Y-24231D01*
X68726Y-27457D02*
Y-27200D01*
X65500Y-24231D02*
X68726Y-27457D01*
X95652Y17900D02*
X98700Y14852D01*
D39*
X90091Y43260D02*
Y56800D01*
X45600Y15300D02*
X47500Y13400D01*
X44900Y16000D02*
X45600Y15300D01*
D40*
X51596Y46321D02*
X51610Y46335D01*
X35300Y67218D02*
X36344D01*
X38826Y64736D01*
X38958Y64485D02*
X41342Y62100D01*
X42387D01*
X35300Y60787D02*
Y62100D01*
D41*
X85800Y17090D02*
Y17900D01*
D42*
X95652D01*
D43*
X101100Y61200D02*
D03*
X29800Y9400D02*
D03*
X47100Y5200D02*
D03*
X101300Y52100D02*
D03*
X38200Y5200D02*
D03*
X52800Y-3400D02*
D03*
D44*
X135600Y34300D02*
D03*
X125600D02*
D03*
X115600Y46900D02*
D03*
X125600D02*
D03*
X147400Y33600D02*
D03*
Y43600D02*
D03*
D45*
X115600Y34300D02*
D03*
X135600Y46900D02*
D03*
D46*
X147400Y53600D02*
D03*
D47*
X150894Y66205D02*
D03*
X152863Y62268D02*
D03*
Y54394D02*
D03*
Y46520D02*
D03*
Y38646D02*
D03*
Y30772D02*
D03*
X150894Y26835D02*
D03*
X152863Y22898D02*
D03*
X150894Y18961D02*
D03*
X152863Y15024D02*
D03*
X146957Y66205D02*
D03*
X148925Y62268D02*
D03*
X146957Y26835D02*
D03*
X148925Y22898D02*
D03*
X146957Y18961D02*
D03*
X148925Y15024D02*
D03*
X143020Y66205D02*
D03*
X144989Y62268D02*
D03*
Y22898D02*
D03*
Y15024D02*
D03*
X139083Y66205D02*
D03*
X141051Y62268D02*
D03*
Y54394D02*
D03*
Y15024D02*
D03*
X135146Y66205D02*
D03*
X137114Y62268D02*
D03*
X135146Y18961D02*
D03*
X131209Y66205D02*
D03*
Y18961D02*
D03*
X127272Y66205D02*
D03*
Y18961D02*
D03*
X123335Y66205D02*
D03*
Y18961D02*
D03*
X119398Y66205D02*
D03*
Y50457D02*
D03*
Y18961D02*
D03*
X115461Y66205D02*
D03*
Y18961D02*
D03*
X111524Y66205D02*
D03*
Y50457D02*
D03*
Y18961D02*
D03*
X107587Y66205D02*
D03*
X109555Y54394D02*
D03*
X107587Y50457D02*
D03*
X109555Y46520D02*
D03*
X107587Y18961D02*
D03*
X103650Y66205D02*
D03*
X105618Y46520D02*
D03*
X103650Y18961D02*
D03*
X101681Y46520D02*
D03*
X97744D02*
D03*
X95776Y42583D02*
D03*
X93807Y46520D02*
D03*
X74122Y-32220D02*
D03*
X72154Y-36157D02*
D03*
X74122Y-40094D02*
D03*
X70185Y-32220D02*
D03*
X68217Y-36157D02*
D03*
X70185Y-40094D02*
D03*
X66248Y-32220D02*
D03*
X64280Y-36157D02*
D03*
X66248Y-40094D02*
D03*
X60343Y-4661D02*
D03*
Y-36157D02*
D03*
X62311Y-40094D02*
D03*
X56406Y-36157D02*
D03*
X58374Y-40094D02*
D03*
X54437Y22898D02*
D03*
X44595Y-4661D02*
D03*
X24910Y66205D02*
D03*
Y58331D02*
D03*
X26878Y30772D02*
D03*
X24910Y26835D02*
D03*
Y-44031D02*
D03*
X20973Y66205D02*
D03*
X22941Y62268D02*
D03*
X20973Y58331D02*
D03*
X22941Y54394D02*
D03*
Y22898D02*
D03*
X20973Y18961D02*
D03*
X22941Y-8598D02*
D03*
X17036Y66205D02*
D03*
X19004Y62268D02*
D03*
X17036Y58331D02*
D03*
X19004Y22898D02*
D03*
X17036Y18961D02*
D03*
X19004Y-724D02*
D03*
X17036Y-4661D02*
D03*
X13099Y66205D02*
D03*
X15067Y62268D02*
D03*
X13099Y58331D02*
D03*
X15067Y22898D02*
D03*
X13099Y18961D02*
D03*
X15067Y-724D02*
D03*
X13099Y-4661D02*
D03*
X15067Y-8598D02*
D03*
X9162Y66205D02*
D03*
Y58331D02*
D03*
X11130Y22898D02*
D03*
X9162Y18961D02*
D03*
X11130Y15024D02*
D03*
X9162Y11087D02*
D03*
X11130Y7150D02*
D03*
X9162Y3213D02*
D03*
X11130Y-724D02*
D03*
X9162Y-4661D02*
D03*
X5225Y66205D02*
D03*
X7193Y62268D02*
D03*
X5225Y58331D02*
D03*
X7193Y22898D02*
D03*
X5225Y18961D02*
D03*
X7193Y15024D02*
D03*
X5225Y11087D02*
D03*
X7193Y7150D02*
D03*
X5225Y3213D02*
D03*
X7193Y-724D02*
D03*
X5225Y-4661D02*
D03*
Y-44031D02*
D03*
X44900Y56100D02*
D03*
X35356Y55044D02*
D03*
X47300Y62100D02*
D03*
X53900Y65900D02*
D03*
X61600Y54600D02*
D03*
X75700Y43400D02*
D03*
X73100Y46800D02*
D03*
X61600Y57200D02*
D03*
X33200Y-33900D02*
D03*
X33700Y-27600D02*
D03*
X53000Y-38800D02*
D03*
X39300Y27800D02*
D03*
X59400Y35500D02*
D03*
X61700Y30700D02*
D03*
X55800Y37600D02*
D03*
X58400Y42000D02*
D03*
X58350Y32050D02*
D03*
X80500Y27700D02*
D03*
X85194Y25106D02*
D03*
X87700Y27500D02*
D03*
X92900Y27600D02*
D03*
X71400Y-8000D02*
D03*
X63000Y-12100D02*
D03*
X57200Y-31500D02*
D03*
X50500Y-11600D02*
D03*
X53104Y-20204D02*
D03*
X55050Y-25232D02*
D03*
X51900Y-26300D02*
D03*
X41800Y-23200D02*
D03*
X19926Y-33274D02*
D03*
X70831Y-1500D02*
D03*
X55200Y30500D02*
D03*
X55300Y-14700D02*
D03*
X67700Y-11900D02*
D03*
X103300Y42900D02*
D03*
X95800Y35600D02*
D03*
X56000Y44500D02*
D03*
X64000Y60100D02*
D03*
X104700Y24900D02*
D03*
X95800Y26000D02*
D03*
X135800Y14400D02*
D03*
X24900Y14648D02*
D03*
X22952Y-3452D02*
D03*
X30400Y68200D02*
D03*
X27000Y52900D02*
D03*
X62000Y-21500D02*
D03*
Y-17800D02*
D03*
X61900Y-25052D02*
D03*
X80500Y11791D02*
D03*
Y9400D02*
D03*
X20560Y-19240D02*
D03*
X18200Y-38600D02*
D03*
X68400Y-16000D02*
D03*
X68726Y-27200D02*
D03*
X33500Y17100D02*
D03*
X88100Y14300D02*
D03*
X51100Y26900D02*
D03*
X47700Y26700D02*
D03*
X30200Y33000D02*
D03*
X44900Y16000D02*
D03*
X42600Y13600D02*
D03*
X11130Y62268D02*
D03*
X23100Y45600D02*
D03*
X9300Y45700D02*
D03*
X19400D02*
D03*
X16017Y35536D02*
D03*
X16200Y45700D02*
D03*
X12655Y35536D02*
D03*
X25700Y37200D02*
D03*
X5900Y45700D02*
D03*
X22800Y35600D02*
D03*
X19379Y35536D02*
D03*
X5930D02*
D03*
X12800Y45700D02*
D03*
X9293Y35536D02*
D03*
X25700Y45200D02*
D03*
X2600Y45800D02*
D03*
Y35500D02*
D03*
D48*
X37915Y45731D02*
D03*
X42246D02*
D03*
X46576D02*
D03*
X37915Y41400D02*
D03*
X42246D02*
D03*
X46576D02*
D03*
X37915Y37069D02*
D03*
X42246D02*
D03*
X46576D02*
D03*
M02*
