G04 Layer_Color=16711935*
%FSLAX25Y25*%
%MOIN*%
G70*
G01*
G75*
%ADD46C,0.01968*%
%ADD47P,0.02784X4X360.0*%
%ADD48P,0.02227X4X360.0*%
%ADD55R,0.05524X0.05288*%
%ADD56R,0.04147X0.04599*%
%ADD61R,0.03162X0.02768*%
%ADD62R,0.04599X0.04147*%
%ADD63R,0.05288X0.05524*%
%ADD72C,0.06800*%
%ADD73C,0.06706*%
%ADD74R,0.06706X0.06706*%
%ADD75R,0.06706X0.06706*%
%ADD76O,0.06509X0.03162*%
%ADD77R,0.18753X0.05918*%
%ADD78R,0.02768X0.03162*%
D46*
X37915Y45731D02*
D03*
X42246D02*
D03*
X46576D02*
D03*
X37915Y41400D02*
D03*
X42246D02*
D03*
X46576D02*
D03*
X37915Y37069D02*
D03*
X42246D02*
D03*
X46576D02*
D03*
D47*
X67300Y47400D02*
D03*
D48*
X65332Y49369D02*
D03*
Y45432D02*
D03*
X69269Y49369D02*
D03*
Y45432D02*
D03*
D55*
X18200Y-26760D02*
D03*
Y-19240D02*
D03*
D56*
X30800Y16852D02*
D03*
Y23348D02*
D03*
X62000Y-31648D02*
D03*
Y-25152D02*
D03*
X68000Y-24748D02*
D03*
Y-18252D02*
D03*
D61*
X42669Y21100D02*
D03*
X38732D02*
D03*
X42669Y24700D02*
D03*
X38732D02*
D03*
X48232Y52700D02*
D03*
X52169D02*
D03*
X38269Y52800D02*
D03*
X34332D02*
D03*
X38168Y49200D02*
D03*
X34231D02*
D03*
X37769Y33700D02*
D03*
X33832D02*
D03*
X35969Y29800D02*
D03*
X32032D02*
D03*
X48232Y48900D02*
D03*
X52169D02*
D03*
D62*
X38648Y-41500D02*
D03*
X32152D02*
D03*
D63*
X31140Y-10000D02*
D03*
X38660D02*
D03*
D72*
X101100Y61200D02*
D03*
X29800Y9400D02*
D03*
X47100Y5200D02*
D03*
X101300Y52100D02*
D03*
X38200Y5200D02*
D03*
X52800Y-3400D02*
D03*
D73*
X135600Y34300D02*
D03*
X125600D02*
D03*
X115600Y46900D02*
D03*
X125600D02*
D03*
X147400Y33600D02*
D03*
Y43600D02*
D03*
D74*
X115600Y34300D02*
D03*
X135600Y46900D02*
D03*
D75*
X147400Y53600D02*
D03*
D76*
X25372Y-33200D02*
D03*
Y-23200D02*
D03*
Y-28200D02*
D03*
Y-18200D02*
D03*
X46828Y-33200D02*
D03*
Y-28200D02*
D03*
Y-18200D02*
D03*
Y-23200D02*
D03*
D77*
X12300Y29550D02*
D03*
Y51400D02*
D03*
D78*
X35800Y11332D02*
D03*
Y15269D02*
D03*
M02*
