G04 Layer_Color=65535*
%FSLAX25Y25*%
%MOIN*%
G70*
G01*
G75*
%ADD36C,0.01000*%
%ADD38C,0.01181*%
%ADD40C,0.00591*%
%ADD41C,0.00630*%
%ADD42C,0.00787*%
%ADD53C,0.00984*%
%ADD54C,0.00394*%
D36*
X93502Y44269D02*
G03*
X93502Y44269I-39J0D01*
G01*
X67469Y-28129D02*
G03*
X67478Y-28130I0J-39D01*
G01*
D38*
X53739Y18194D02*
Y20655D01*
X83661Y18194D02*
Y20655D01*
X53739Y2545D02*
Y5006D01*
X83661Y2545D02*
Y5006D01*
X53739Y20655D02*
X83661D01*
X53739Y2545D02*
X83661D01*
X51498Y51833D02*
X52679D01*
Y50652D02*
Y51833D01*
X31813D02*
X32994D01*
X31813Y50652D02*
Y51833D01*
Y30967D02*
Y32148D01*
Y30967D02*
X32994D01*
X51498D02*
X52679D01*
Y32148D01*
D40*
X41202Y18500D02*
G03*
X41202Y18500I-39J0D01*
G01*
X36477D02*
G03*
X36477Y18500I-39J0D01*
G01*
X109014Y30100D02*
G03*
X109014Y30100I-39J0D01*
G01*
X48443Y-28200D02*
G03*
X48443Y-28200I-39J0D01*
G01*
X90165Y17900D02*
G03*
X90165Y17900I-39J0D01*
G01*
X101714Y30100D02*
G03*
X101714Y30100I-39J0D01*
G01*
X120839Y53325D02*
G03*
X120839Y53325I-39J0D01*
G01*
X132839Y56675D02*
G03*
X132839Y56675I-39J0D01*
G01*
X97165Y18100D02*
G03*
X97165Y18100I-39J0D01*
G01*
X37665Y-32400D02*
G03*
X37665Y-32400I-39J0D01*
G01*
X45465Y-40500D02*
G03*
X45465Y-40500I-39J0D01*
G01*
X30439Y-15025D02*
G03*
X30439Y-15025I-39J0D01*
G01*
X37665Y-20000D02*
G03*
X37665Y-20000I-39J0D01*
G01*
X25865Y-6700D02*
G03*
X25865Y-6700I-39J0D01*
G01*
X15465Y9700D02*
G03*
X15465Y9700I-39J0D01*
G01*
X21665D02*
G03*
X21665Y9700I-39J0D01*
G01*
X74365Y36500D02*
G03*
X74365Y36500I-39J0D01*
G01*
X76039Y26475D02*
G03*
X76039Y26475I-39J0D01*
G01*
X62639Y63238D02*
G03*
X62639Y63238I-39J0D01*
G01*
Y67962D02*
G03*
X62639Y67962I-39J0D01*
G01*
X69314Y56300D02*
G03*
X69314Y56300I-39J0D01*
G01*
X36539Y-1625D02*
G03*
X36539Y-1625I-39J0D01*
G01*
X80175Y30489D02*
Y37182D01*
Y36788D02*
Y43087D01*
X94151Y36788D02*
Y43087D01*
Y30489D02*
Y39150D01*
X57626Y-29153D02*
X62350D01*
X59988D02*
X66091D01*
X59988Y-13405D02*
X66091D01*
X57626D02*
X62350D01*
X27384Y38853D02*
X29746D01*
X23407Y38263D02*
X23447D01*
X27384Y43972D02*
X29746D01*
X24037Y39050D02*
Y39838D01*
Y42987D02*
Y43775D01*
X24234Y43972D02*
X25021D01*
X24234Y38853D02*
X25021D01*
X12000Y64049D02*
Y60900D01*
X14099D01*
X15149Y63524D02*
X15673Y64049D01*
X16723D01*
X17248Y63524D01*
Y62999D01*
X16723Y62474D01*
X16198D01*
X16723D01*
X17248Y61949D01*
Y61425D01*
X16723Y60900D01*
X15673D01*
X15149Y61425D01*
X18297Y60900D02*
X19347D01*
X18822D01*
Y64049D01*
X18297Y63524D01*
X5599Y58524D02*
X5074Y59049D01*
X4025D01*
X3500Y58524D01*
Y56425D01*
X4025Y55900D01*
X5074D01*
X5599Y56425D01*
X6649Y58524D02*
X7173Y59049D01*
X8223D01*
X8748Y58524D01*
Y57999D01*
X8223Y57474D01*
X7698D01*
X8223D01*
X8748Y56950D01*
Y56425D01*
X8223Y55900D01*
X7173D01*
X6649Y56425D01*
X11896Y55900D02*
X9797D01*
X11896Y57999D01*
Y58524D01*
X11372Y59049D01*
X10322D01*
X9797Y58524D01*
X22899Y52124D02*
X22374Y52649D01*
X21325D01*
X20800Y52124D01*
Y50025D01*
X21325Y49500D01*
X22374D01*
X22899Y50025D01*
X23949Y52124D02*
X24473Y52649D01*
X25523D01*
X26048Y52124D01*
Y51599D01*
X25523Y51074D01*
X24998D01*
X25523D01*
X26048Y50550D01*
Y50025D01*
X25523Y49500D01*
X24473D01*
X23949Y50025D01*
X27097Y49500D02*
X28147D01*
X27622D01*
Y52649D01*
X27097Y52124D01*
X60299Y-2076D02*
X59774Y-1551D01*
X58725D01*
X58200Y-2076D01*
Y-4175D01*
X58725Y-4700D01*
X59774D01*
X60299Y-4175D01*
Y-3126D01*
X59250D01*
X63448Y-4700D02*
X61349D01*
X63448Y-2601D01*
Y-2076D01*
X62923Y-1551D01*
X61873D01*
X61349Y-2076D01*
X29900Y17000D02*
X26751D01*
Y18574D01*
X27276Y19099D01*
X28326D01*
X28850Y18574D01*
Y17000D01*
Y18049D02*
X29900Y19099D01*
X27276Y22248D02*
X26751Y21723D01*
Y20673D01*
X27276Y20149D01*
X27801D01*
X28326Y20673D01*
Y21723D01*
X28850Y22248D01*
X29375D01*
X29900Y21723D01*
Y20673D01*
X29375Y20149D01*
X26751Y23297D02*
Y25396D01*
Y24347D01*
X29900D01*
X22300Y64149D02*
X24399Y61000D01*
Y64149D02*
X22300Y61000D01*
X25449D02*
X26498D01*
X25973D01*
Y64149D01*
X25449Y63624D01*
X22800Y58949D02*
Y56325D01*
X23325Y55800D01*
X24374D01*
X24899Y56325D01*
Y58949D01*
X25949Y55800D02*
X26998D01*
X26473D01*
Y58949D01*
X25949Y58424D01*
X111700Y23300D02*
Y26449D01*
X113274D01*
X113799Y25924D01*
Y24874D01*
X113274Y24350D01*
X111700D01*
X112750D02*
X113799Y23300D01*
X114849D02*
X115898D01*
X115373D01*
Y26449D01*
X114849Y25924D01*
X125800Y24500D02*
Y27649D01*
X127374D01*
X127899Y27124D01*
Y26074D01*
X127374Y25550D01*
X125800D01*
X128949Y24500D02*
X129998D01*
X129473D01*
Y27649D01*
X128949Y27124D01*
X81300Y-24500D02*
Y-21351D01*
X82349Y-22401D01*
X83399Y-21351D01*
Y-24500D01*
X86548D02*
X84449D01*
X86548Y-22401D01*
Y-21876D01*
X86023Y-21351D01*
X84973D01*
X84449Y-21876D01*
X81700Y-15800D02*
Y-12651D01*
X82749Y-13701D01*
X83799Y-12651D01*
Y-15800D01*
X84849D02*
X85898D01*
X85373D01*
Y-12651D01*
X84849Y-13176D01*
X88600Y69849D02*
Y66700D01*
X90699D01*
X91749D02*
X92798D01*
X92273D01*
Y69849D01*
X91749Y69324D01*
X94372Y66700D02*
X95422D01*
X94897D01*
Y69849D01*
X94372Y69324D01*
X106776Y66199D02*
X106251Y65674D01*
Y64625D01*
X106776Y64100D01*
X108875D01*
X109400Y64625D01*
Y65674D01*
X108875Y66199D01*
X107826D01*
Y65149D01*
X109400Y67249D02*
Y68298D01*
Y67773D01*
X106251D01*
X106776Y67249D01*
X45699Y349D02*
X43600D01*
Y-2800D01*
X45699D01*
X43600Y-1226D02*
X44649D01*
X46749Y-2800D02*
X47798D01*
X47273D01*
Y349D01*
X46749Y-176D01*
X20199Y68824D02*
X19674Y69349D01*
X18625D01*
X18100Y68824D01*
Y66725D01*
X18625Y66200D01*
X19674D01*
X20199Y66725D01*
X21249Y66200D02*
Y69349D01*
X22823D01*
X23348Y68824D01*
Y67774D01*
X22823Y67250D01*
X21249D01*
X26496Y66200D02*
X24397D01*
X26496Y68299D01*
Y68824D01*
X25971Y69349D01*
X24922D01*
X24397Y68824D01*
X11261Y68829D02*
X10736Y69353D01*
X9686D01*
X9162Y68829D01*
Y66730D01*
X9686Y66205D01*
X10736D01*
X11261Y66730D01*
X12310Y66205D02*
Y69353D01*
X13884D01*
X14409Y68829D01*
Y67779D01*
X13884Y67254D01*
X12310D01*
X15459Y66205D02*
X16508D01*
X15984D01*
Y69353D01*
X15459Y68829D01*
X67899Y12724D02*
X67374Y13249D01*
X66325D01*
X65800Y12724D01*
Y10625D01*
X66325Y10100D01*
X67374D01*
X67899Y10625D01*
X68949Y13249D02*
X71048D01*
Y12724D01*
X68949Y10625D01*
Y10100D01*
X46599Y16024D02*
X46074Y16549D01*
X45025D01*
X44500Y16024D01*
Y13925D01*
X45025Y13400D01*
X46074D01*
X46599Y13925D01*
X49748Y13400D02*
X47649D01*
X49748Y15499D01*
Y16024D01*
X49223Y16549D01*
X48173D01*
X47649Y16024D01*
X55199Y26624D02*
X54674Y27149D01*
X53625D01*
X53100Y26624D01*
Y24525D01*
X53625Y24000D01*
X54674D01*
X55199Y24525D01*
X56249Y24000D02*
X57298D01*
X56773D01*
Y27149D01*
X56249Y26624D01*
X24846Y37349D02*
Y34200D01*
X26420D01*
X26945Y34725D01*
Y35250D01*
X26420Y35774D01*
X24846D01*
X26420D01*
X26945Y36299D01*
Y36824D01*
X26420Y37349D01*
X24846D01*
X27994Y34200D02*
X29044D01*
X28519D01*
Y37349D01*
X27994Y36824D01*
X4100Y61000D02*
Y63099D01*
X5150Y64149D01*
X6199Y63099D01*
Y61000D01*
Y62574D01*
X4100D01*
X7249Y61000D02*
X8298D01*
X7773D01*
Y64149D01*
X7249Y63624D01*
X106576Y51800D02*
X106051Y52325D01*
Y53374D01*
X106576Y53899D01*
X107101D01*
X107626Y53374D01*
Y52850D01*
Y53374D01*
X108150Y53899D01*
X108675D01*
X109200Y53374D01*
Y52325D01*
X108675Y51800D01*
X106051Y54949D02*
X108150D01*
X109200Y55998D01*
X108150Y57048D01*
X106051D01*
X130799Y60924D02*
X130274Y61449D01*
X129225D01*
X128700Y60924D01*
Y58825D01*
X129225Y58300D01*
X130274D01*
X130799Y58825D01*
X131849Y58300D02*
X132898D01*
X132373D01*
Y61449D01*
X131849Y60924D01*
X134472D02*
X134997Y61449D01*
X136047D01*
X136572Y60924D01*
Y60399D01*
X136047Y59874D01*
X135522D01*
X136047D01*
X136572Y59350D01*
Y58825D01*
X136047Y58300D01*
X134997D01*
X134472Y58825D01*
X58599Y60824D02*
X58074Y61349D01*
X57025D01*
X56500Y60824D01*
Y58725D01*
X57025Y58200D01*
X58074D01*
X58599Y58725D01*
X59649Y58200D02*
X60698D01*
X60173D01*
Y61349D01*
X59649Y60824D01*
X63847Y58200D02*
Y61349D01*
X62272Y59774D01*
X64372D01*
X99276Y39199D02*
X98751Y38674D01*
Y37625D01*
X99276Y37100D01*
X101375D01*
X101900Y37625D01*
Y38674D01*
X101375Y39199D01*
X101900Y40249D02*
Y41298D01*
Y40773D01*
X98751D01*
X99276Y40249D01*
X98751Y44971D02*
Y42872D01*
X100326D01*
X99801Y43922D01*
Y44447D01*
X100326Y44971D01*
X101375D01*
X101900Y44447D01*
Y43397D01*
X101375Y42872D01*
X51551Y-44200D02*
X54700D01*
Y-42626D01*
X54175Y-42101D01*
X52076D01*
X51551Y-42626D01*
Y-44200D01*
X54700Y-41051D02*
Y-40002D01*
Y-40527D01*
X51551D01*
X52076Y-41051D01*
Y-38428D02*
X51551Y-37903D01*
Y-36853D01*
X52076Y-36329D01*
X54175D01*
X54700Y-36853D01*
Y-37903D01*
X54175Y-38428D01*
X52076D01*
X27700Y-20251D02*
Y-23400D01*
X29274D01*
X29799Y-22875D01*
Y-20776D01*
X29274Y-20251D01*
X27700D01*
X30849Y-23400D02*
X31898D01*
X31373D01*
Y-20251D01*
X30849Y-20776D01*
X33472Y-23400D02*
X34522D01*
X33997D01*
Y-20251D01*
X33472Y-20776D01*
X30199Y4249D02*
X28100D01*
Y1100D01*
X30199D01*
X28100Y2674D02*
X29149D01*
X33348Y1100D02*
X31249D01*
X33348Y3199D01*
Y3724D01*
X32823Y4249D01*
X31773D01*
X31249Y3724D01*
X31851Y16300D02*
X35000D01*
Y18399D01*
Y19449D02*
Y20498D01*
Y19973D01*
X31851D01*
X32376Y19449D01*
Y22072D02*
X31851Y22597D01*
Y23647D01*
X32376Y24171D01*
X34475D01*
X35000Y23647D01*
Y22597D01*
X34475Y22072D01*
X32376D01*
X143800Y61900D02*
Y65049D01*
X145374D01*
X145899Y64524D01*
Y63474D01*
X145374Y62950D01*
X143800D01*
X146949Y61900D02*
X147998D01*
X147473D01*
Y65049D01*
X146949Y64524D01*
X149572D02*
X150097Y65049D01*
X151147D01*
X151672Y64524D01*
Y62425D01*
X151147Y61900D01*
X150097D01*
X149572Y62425D01*
Y64524D01*
X4300Y-4200D02*
Y-1051D01*
X5874D01*
X6399Y-1576D01*
Y-2626D01*
X5874Y-3150D01*
X4300D01*
X7449Y-4200D02*
X8498D01*
X7973D01*
Y-1051D01*
X7449Y-1576D01*
X10072Y-4200D02*
X11122D01*
X10597D01*
Y-1051D01*
X10072Y-1576D01*
X117200Y65600D02*
Y68749D01*
X118774D01*
X119299Y68224D01*
Y67174D01*
X118774Y66650D01*
X117200D01*
X120349Y65600D02*
X121398D01*
X120873D01*
Y68749D01*
X120349Y68224D01*
X125072Y65600D02*
X122972D01*
X125072Y67699D01*
Y68224D01*
X124547Y68749D01*
X123497D01*
X122972Y68224D01*
X6300Y6000D02*
X3151D01*
Y7574D01*
X3676Y8099D01*
X4726D01*
X5251Y7574D01*
Y6000D01*
Y7050D02*
X6300Y8099D01*
Y9149D02*
Y10198D01*
Y9673D01*
X3151D01*
X3676Y9149D01*
X6300Y11772D02*
Y12822D01*
Y12297D01*
X3151D01*
X3676Y11772D01*
X12300Y5300D02*
X9151D01*
Y6874D01*
X9676Y7399D01*
X10726D01*
X11250Y6874D01*
Y5300D01*
Y6350D02*
X12300Y7399D01*
Y8449D02*
Y9498D01*
Y8973D01*
X9151D01*
X9676Y8449D01*
X12300Y13171D02*
Y11072D01*
X10201Y13171D01*
X9676D01*
X9151Y12647D01*
Y11597D01*
X9676Y11072D01*
X60600Y23900D02*
Y27049D01*
X62174D01*
X62699Y26524D01*
Y25474D01*
X62174Y24949D01*
X60600D01*
X61650D02*
X62699Y23900D01*
X63749D02*
X64798D01*
X64273D01*
Y27049D01*
X63749Y26524D01*
X66372D02*
X66897Y27049D01*
X67947D01*
X68471Y26524D01*
Y25999D01*
X67947Y25474D01*
X67422D01*
X67947D01*
X68471Y24949D01*
Y24425D01*
X67947Y23900D01*
X66897D01*
X66372Y24425D01*
X89446Y26300D02*
Y29449D01*
X91020D01*
X91545Y28924D01*
Y27874D01*
X91020Y27349D01*
X89446D01*
X90495D02*
X91545Y26300D01*
X92594D02*
X93644D01*
X93119D01*
Y29449D01*
X92594Y28924D01*
X96792Y26300D02*
Y29449D01*
X95218Y27874D01*
X97317D01*
X62900Y48000D02*
X59751D01*
Y49574D01*
X60276Y50099D01*
X61326D01*
X61851Y49574D01*
Y48000D01*
Y49049D02*
X62900Y50099D01*
Y51149D02*
Y52198D01*
Y51673D01*
X59751D01*
X60276Y51149D01*
X59751Y55871D02*
Y53772D01*
X61326D01*
X60801Y54822D01*
Y55347D01*
X61326Y55871D01*
X62375D01*
X62900Y55347D01*
Y54297D01*
X62375Y53772D01*
X105000Y13200D02*
X101851D01*
Y14774D01*
X102376Y15299D01*
X103426D01*
X103951Y14774D01*
Y13200D01*
Y14250D02*
X105000Y15299D01*
Y16349D02*
Y17398D01*
Y16873D01*
X101851D01*
X102376Y16349D01*
X101851Y21071D02*
X102376Y20022D01*
X103426Y18972D01*
X104475D01*
X105000Y19497D01*
Y20547D01*
X104475Y21071D01*
X103951D01*
X103426Y20547D01*
Y18972D01*
X72200Y35900D02*
X69051D01*
Y37474D01*
X69576Y37999D01*
X70626D01*
X71150Y37474D01*
Y35900D01*
Y36950D02*
X72200Y37999D01*
Y39049D02*
Y40098D01*
Y39573D01*
X69051D01*
X69576Y39049D01*
X69051Y41672D02*
Y43771D01*
X69576D01*
X71675Y41672D01*
X72200D01*
X44574Y-19800D02*
Y-16651D01*
X46148D01*
X46673Y-17176D01*
Y-18226D01*
X46148Y-18751D01*
X44574D01*
X45623D02*
X46673Y-19800D01*
X47723D02*
X48772D01*
X48247D01*
Y-16651D01*
X47723Y-17176D01*
X50346D02*
X50871Y-16651D01*
X51921D01*
X52446Y-17176D01*
Y-17701D01*
X51921Y-18226D01*
X52446Y-18751D01*
Y-19275D01*
X51921Y-19800D01*
X50871D01*
X50346Y-19275D01*
Y-18751D01*
X50871Y-18226D01*
X50346Y-17701D01*
Y-17176D01*
X50871Y-18226D02*
X51921D01*
X32300Y-12800D02*
Y-9651D01*
X33874D01*
X34399Y-10176D01*
Y-11226D01*
X33874Y-11750D01*
X32300D01*
X33349D02*
X34399Y-12800D01*
X35449D02*
X36498D01*
X35973D01*
Y-9651D01*
X35449Y-10176D01*
X38072Y-12275D02*
X38597Y-12800D01*
X39647D01*
X40172Y-12275D01*
Y-10176D01*
X39647Y-9651D01*
X38597D01*
X38072Y-10176D01*
Y-10701D01*
X38597Y-11226D01*
X40172D01*
X35200Y-36900D02*
X32051D01*
Y-35326D01*
X32576Y-34801D01*
X33626D01*
X34150Y-35326D01*
Y-36900D01*
Y-35851D02*
X35200Y-34801D01*
Y-31652D02*
Y-33751D01*
X33101Y-31652D01*
X32576D01*
X32051Y-32177D01*
Y-33227D01*
X32576Y-33751D01*
Y-30603D02*
X32051Y-30078D01*
Y-29028D01*
X32576Y-28504D01*
X34675D01*
X35200Y-29028D01*
Y-30078D01*
X34675Y-30603D01*
X32576D01*
X116600Y58400D02*
Y61549D01*
X118174D01*
X118699Y61024D01*
Y59974D01*
X118174Y59449D01*
X116600D01*
X117649D02*
X118699Y58400D01*
X121848D02*
X119749D01*
X121848Y60499D01*
Y61024D01*
X121323Y61549D01*
X120273D01*
X119749Y61024D01*
X124996Y58400D02*
X122897D01*
X124996Y60499D01*
Y61024D01*
X124471Y61549D01*
X123422D01*
X122897Y61024D01*
X14100Y-3200D02*
Y-51D01*
X15674D01*
X16199Y-576D01*
Y-1626D01*
X15674Y-2151D01*
X14100D01*
X15149D02*
X16199Y-3200D01*
X19348D02*
X17249D01*
X19348Y-1101D01*
Y-576D01*
X18823Y-51D01*
X17773D01*
X17249Y-576D01*
X20397D02*
X20922Y-51D01*
X21971D01*
X22496Y-576D01*
Y-1101D01*
X21971Y-1626D01*
X21447D01*
X21971D01*
X22496Y-2151D01*
Y-2675D01*
X21971Y-3200D01*
X20922D01*
X20397Y-2675D01*
X47300Y-12600D02*
X44151D01*
Y-11026D01*
X44676Y-10501D01*
X45726D01*
X46251Y-11026D01*
Y-12600D01*
Y-11551D02*
X47300Y-10501D01*
Y-7352D02*
Y-9451D01*
X45201Y-7352D01*
X44676D01*
X44151Y-7877D01*
Y-8927D01*
X44676Y-9451D01*
X47300Y-4729D02*
X44151D01*
X45726Y-6303D01*
Y-4204D01*
X83100Y47061D02*
Y45094D01*
X83494Y44700D01*
X84281D01*
X84674Y45094D01*
Y47061D01*
X85461Y44700D02*
X86249D01*
X85855D01*
Y47061D01*
X85461Y46668D01*
X87429D02*
X87823Y47061D01*
X88610D01*
X89004Y46668D01*
Y45094D01*
X88610Y44700D01*
X87823D01*
X87429Y45094D01*
Y46668D01*
X57746Y-7351D02*
Y-9975D01*
X58270Y-10500D01*
X59320D01*
X59845Y-9975D01*
Y-7351D01*
X60894Y-10500D02*
X61944D01*
X61419D01*
Y-7351D01*
X60894Y-7876D01*
X65617Y-10500D02*
X63518D01*
X65617Y-8401D01*
Y-7876D01*
X65092Y-7351D01*
X64043D01*
X63518Y-7876D01*
D41*
X105865Y30100D02*
G03*
X105865Y30100I-39J0D01*
G01*
X45293Y-28200D02*
G03*
X45293Y-28200I-39J0D01*
G01*
X93314Y17900D02*
G03*
X93314Y17900I-39J0D01*
G01*
X98565Y30100D02*
G03*
X98565Y30100I-39J0D01*
G01*
X120839Y56475D02*
G03*
X120839Y56475I-39J0D01*
G01*
X132839Y53525D02*
G03*
X132839Y53525I-39J0D01*
G01*
X100314Y18100D02*
G03*
X100314Y18100I-39J0D01*
G01*
X40814Y-32400D02*
G03*
X40814Y-32400I-39J0D01*
G01*
X48614Y-40500D02*
G03*
X48614Y-40500I-39J0D01*
G01*
X30439Y-18175D02*
G03*
X30439Y-18175I-39J0D01*
G01*
X40814Y-20000D02*
G03*
X40814Y-20000I-39J0D01*
G01*
X29014Y-6700D02*
G03*
X29014Y-6700I-39J0D01*
G01*
X18614Y9700D02*
G03*
X18614Y9700I-39J0D01*
G01*
X24814D02*
G03*
X24814Y9700I-39J0D01*
G01*
X77514Y36500D02*
G03*
X77514Y36500I-39J0D01*
G01*
X76039Y23325D02*
G03*
X76039Y23325I-39J0D01*
G01*
X66165Y56300D02*
G03*
X66165Y56300I-39J0D01*
G01*
X36539Y-4775D02*
G03*
X36539Y-4775I-39J0D01*
G01*
D42*
X82808Y64674D02*
X83792D01*
X82808Y48926D02*
X83792D01*
X110600Y29300D02*
Y39300D01*
X140600D01*
Y29300D02*
Y39300D01*
X110600Y29300D02*
X140600D01*
X110600Y41900D02*
X140600D01*
X110600D02*
Y51900D01*
X140600D01*
Y41900D02*
Y51900D01*
X142400Y28600D02*
Y58600D01*
X152400D01*
X142400Y28600D02*
X152400D01*
Y58600D01*
X23515Y-13689D02*
X23790Y-16826D01*
X25368Y-34868D02*
X25643Y-38005D01*
X-1130Y-7546D02*
X3969Y-7100D01*
X12990Y-6310D02*
X21618Y-5556D01*
X16558Y-47100D02*
X25187Y-46345D01*
X2439Y-48335D02*
X7537Y-47889D01*
X-1130Y-7546D02*
X2439Y-48335D01*
D53*
X86909Y4612D02*
G03*
X86909Y4612I-492J0D01*
G01*
X25017Y-20714D02*
G03*
X25017Y-20714I-492J0D01*
G01*
X55730Y31558D02*
G03*
X55730Y31558I-492J0D01*
G01*
D54*
X45339Y70958D02*
G03*
X45339Y70958I-197J0D01*
G01*
M02*
