G04 Layer_Color=32768*
%FSLAX25Y25*%
%MOIN*%
G70*
G01*
G75*
%ADD54C,0.00394*%
%ADD82C,0.00197*%
D54*
X20019Y43400D02*
X22381D01*
X21200Y42219D02*
Y44581D01*
X19822Y46943D02*
X22578D01*
X19822Y39857D02*
Y46943D01*
X22578Y39857D02*
Y46943D01*
X19822Y39857D02*
X22578D01*
X16016Y40300D02*
X17984D01*
X17000Y39316D02*
Y41284D01*
X11619Y37600D02*
X13981D01*
X12800Y36419D02*
Y38781D01*
X11422Y34057D02*
Y41143D01*
Y34057D02*
X14178D01*
X11422Y41143D02*
X14178D01*
Y34057D02*
Y41143D01*
X33825Y-41500D02*
X36975D01*
X35400Y-43075D02*
Y-39925D01*
X65332Y47400D02*
X69269D01*
X67300Y45432D02*
Y49369D01*
X36832Y18500D02*
X40769D01*
X38800Y16532D02*
Y20469D01*
X105825Y30100D02*
X108975D01*
X107400Y28525D02*
Y31675D01*
X68700Y9631D02*
Y13568D01*
X66732Y11600D02*
X70669D01*
X36875Y64659D02*
X40812D01*
X38843Y62691D02*
Y66628D01*
X46828Y-29775D02*
Y-26625D01*
X45254Y-28200D02*
X48403D01*
X91700Y16325D02*
Y19475D01*
X90125Y17900D02*
X93275D01*
X83300Y54831D02*
Y58768D01*
X81331Y56800D02*
X85268D01*
X51543Y22222D02*
Y24978D01*
X44457Y22222D02*
Y24978D01*
Y22222D02*
X51543D01*
X44457Y24978D02*
X51543D01*
X46819Y23600D02*
X49181D01*
X48000Y22419D02*
Y24781D01*
X51543Y18622D02*
Y21378D01*
X44457Y18622D02*
Y21378D01*
Y18622D02*
X51543D01*
X44457Y21378D02*
X51543D01*
X46819Y20000D02*
X49181D01*
X48000Y18819D02*
Y21181D01*
X44243Y19722D02*
Y22478D01*
X37157Y19722D02*
Y22478D01*
X44243D01*
X37157Y19722D02*
X44243D01*
X39519Y21100D02*
X41881D01*
X40700Y19919D02*
Y22281D01*
X44243Y23322D02*
Y26078D01*
X37157Y23322D02*
Y26078D01*
X44243D01*
X37157Y23322D02*
X44243D01*
X39519Y24700D02*
X41881D01*
X40700Y23519D02*
Y25881D01*
X46657Y51322D02*
Y54078D01*
X53743Y51322D02*
Y54078D01*
X46657Y51322D02*
X53743D01*
X46657Y54078D02*
X53743D01*
X49019Y52700D02*
X51381D01*
X50200Y51519D02*
Y53881D01*
X39843Y51422D02*
Y54178D01*
X32757Y51422D02*
Y54178D01*
X39843D01*
X32757Y51422D02*
X39843D01*
X35119Y52800D02*
X37481D01*
X36300Y51619D02*
Y53981D01*
X39743Y47822D02*
Y50578D01*
X32657Y47822D02*
Y50578D01*
X39743D01*
X32657Y47822D02*
X39743D01*
X35019Y49200D02*
X37381D01*
X36200Y48019D02*
Y50381D01*
X39343Y32322D02*
Y35078D01*
X32257Y32322D02*
Y35078D01*
X39343D01*
X32257Y32322D02*
X39343D01*
X34619Y33700D02*
X36981D01*
X35800Y32519D02*
Y34881D01*
X37543Y28422D02*
Y31178D01*
X30457Y28422D02*
Y31178D01*
X37543D01*
X30457Y28422D02*
X37543D01*
X32819Y29800D02*
X35181D01*
X34000Y28619D02*
Y30981D01*
X98525Y30100D02*
X101675D01*
X100100Y28525D02*
Y31675D01*
X120800Y53325D02*
Y56475D01*
X119225Y54900D02*
X122375D01*
X132800Y53525D02*
Y56675D01*
X131225Y55100D02*
X134375D01*
X97125Y18100D02*
X100275D01*
X98700Y16525D02*
Y19675D01*
X37625Y-32400D02*
X40775D01*
X39200Y-33975D02*
Y-30825D01*
X45425Y-40500D02*
X48575D01*
X47000Y-42075D02*
Y-38925D01*
X30400Y-18175D02*
Y-15025D01*
X28825Y-16600D02*
X31975D01*
X37625Y-20000D02*
X40775D01*
X39200Y-21575D02*
Y-18425D01*
X25825Y-6700D02*
X28975D01*
X27400Y-8275D02*
Y-5125D01*
X15425Y9700D02*
X18575D01*
X17000Y8125D02*
Y11275D01*
X21625Y9700D02*
X24775D01*
X23200Y8125D02*
Y11275D01*
X74325Y36500D02*
X77475D01*
X75900Y34925D02*
Y38075D01*
X76000Y23325D02*
Y26475D01*
X74425Y24900D02*
X77575D01*
X62600Y63631D02*
Y67568D01*
X60632Y65600D02*
X64569D01*
X66125Y56300D02*
X69275D01*
X67700Y54725D02*
Y57875D01*
X46657Y47522D02*
Y50278D01*
Y47522D02*
X53743D01*
X46657Y50278D02*
X53743D01*
Y47522D02*
Y50278D01*
X49019Y48900D02*
X51381D01*
X50200Y47719D02*
Y50081D01*
X29225Y20100D02*
X32375D01*
X30800Y18525D02*
Y21675D01*
X34900Y-11969D02*
Y-8032D01*
X32932Y-10000D02*
X36869D01*
X16231Y-23000D02*
X20168D01*
X18200Y-24969D02*
Y-21032D01*
X60425Y-28400D02*
X63575D01*
X62000Y-29975D02*
Y-26825D01*
X66425Y-21500D02*
X69575D01*
X68000Y-23075D02*
Y-19925D01*
X36100Y-27668D02*
Y-23731D01*
X34132Y-25700D02*
X38069D01*
X30400Y62616D02*
Y64584D01*
X29416Y63600D02*
X31384D01*
X47600Y65316D02*
Y67284D01*
X46616Y66300D02*
X48584D01*
X36500Y-4775D02*
Y-1625D01*
X34925Y-3200D02*
X38075D01*
X34422Y9757D02*
Y16843D01*
Y9757D02*
X37178D01*
X34619Y13300D02*
X36981D01*
X34422Y16843D02*
X37178D01*
Y9757D02*
Y16843D01*
X35800Y12119D02*
Y14481D01*
X42246Y39432D02*
Y43369D01*
X40277Y41400D02*
X44214D01*
D82*
X20543Y38528D02*
Y42072D01*
X13457D02*
X20543D01*
X13457Y38528D02*
X20543D01*
X13457D02*
Y42072D01*
X41109Y-44256D02*
Y-38744D01*
X29691D02*
X41109D01*
X29691Y-44256D02*
X41109D01*
X29691D02*
Y-38744D01*
X64347Y44447D02*
Y50353D01*
X70253Y44447D02*
Y50353D01*
X64347Y44447D02*
X70253D01*
X64347Y50353D02*
X70253D01*
X35454Y11807D02*
Y25193D01*
X42146Y11807D02*
Y25193D01*
X35454Y11807D02*
X42146D01*
X35454Y25193D02*
X42146D01*
X104644Y24391D02*
Y35809D01*
X110156Y24391D02*
Y35809D01*
X104644Y24391D02*
X110156D01*
X104644Y35809D02*
X110156D01*
X50787Y21639D02*
X86613D01*
X50787Y1561D02*
X86613D01*
X50787D02*
Y21639D01*
X86613Y1561D02*
Y21639D01*
X44946Y59541D02*
Y69777D01*
X32741Y59541D02*
Y69777D01*
Y59541D02*
X44946D01*
X32741Y69777D02*
X44946D01*
X44072Y-22491D02*
X49584D01*
X44072Y-33909D02*
X49584D01*
Y-22491D01*
X44072Y-33909D02*
Y-22491D01*
X88944Y12191D02*
X94456D01*
X88944Y23609D02*
X94456D01*
X88944Y12191D02*
Y23609D01*
X94456Y12191D02*
Y23609D01*
X70898Y65658D02*
X95702D01*
Y47942D02*
Y65658D01*
X70898Y47942D02*
Y65658D01*
Y47942D02*
X95702D01*
X97344Y24391D02*
Y35809D01*
Y24391D02*
X102856D01*
X97344Y35809D02*
X102856D01*
Y24391D02*
Y35809D01*
X115091Y52144D02*
Y57656D01*
Y52144D02*
X126509D01*
X115091Y57656D02*
X126509D01*
Y52144D02*
Y57656D01*
X127091Y52344D02*
Y57856D01*
Y52344D02*
X138509D01*
X127091Y57856D02*
X138509D01*
Y52344D02*
Y57856D01*
X95944Y12391D02*
Y23809D01*
Y12391D02*
X101456D01*
X95944Y23809D02*
X101456D01*
Y12391D02*
Y23809D01*
X36444Y-38109D02*
Y-26691D01*
Y-38109D02*
X41956D01*
X36444Y-26691D02*
X41956D01*
Y-38109D02*
Y-26691D01*
X44244Y-46209D02*
Y-34791D01*
Y-46209D02*
X49756D01*
X44244Y-34791D02*
X49756D01*
Y-46209D02*
Y-34791D01*
X24691Y-19356D02*
Y-13844D01*
Y-19356D02*
X36109D01*
X24691Y-13844D02*
X36109D01*
Y-19356D02*
Y-13844D01*
X36444Y-25709D02*
Y-14291D01*
Y-25709D02*
X41956D01*
X36444Y-14291D02*
X41956D01*
Y-25709D02*
Y-14291D01*
X24644Y-12409D02*
Y-991D01*
Y-12409D02*
X30156D01*
X24644Y-991D02*
X30156D01*
Y-12409D02*
Y-991D01*
X14244Y3991D02*
Y15409D01*
Y3991D02*
X19756D01*
X14244Y15409D02*
X19756D01*
Y3991D02*
Y15409D01*
X20444Y3991D02*
Y15409D01*
Y3991D02*
X25956D01*
X20444Y15409D02*
X25956D01*
Y3991D02*
Y15409D01*
X73144Y30791D02*
Y42209D01*
Y30791D02*
X78656D01*
X73144Y42209D02*
X78656D01*
Y30791D02*
Y42209D01*
X70291Y22144D02*
Y27656D01*
Y22144D02*
X81709D01*
X70291Y27656D02*
X81709D01*
Y22144D02*
Y27656D01*
X55907Y62253D02*
Y68946D01*
Y62253D02*
X69293D01*
X55907Y68946D02*
X69293D01*
Y62253D02*
Y68946D01*
X64944Y50591D02*
Y62009D01*
Y50591D02*
X70456D01*
X64944Y62009D02*
X70456D01*
Y50591D02*
Y62009D01*
X28044Y14391D02*
Y25809D01*
Y14391D02*
X33556D01*
X28044Y25809D02*
X33556D01*
Y14391D02*
Y25809D01*
X28207Y-13346D02*
Y-6654D01*
Y-13346D02*
X41593D01*
X28207Y-6654D02*
X41593D01*
Y-13346D02*
Y-6654D01*
X14853Y-29693D02*
Y-16307D01*
Y-29693D02*
X21546D01*
X14853Y-16307D02*
X21546D01*
Y-29693D02*
Y-16307D01*
X59244Y-34109D02*
Y-22691D01*
Y-34109D02*
X64756D01*
X59244Y-22691D02*
X64756D01*
Y-34109D02*
Y-22691D01*
X65244Y-27209D02*
Y-15791D01*
Y-27209D02*
X70756D01*
X65244Y-15791D02*
X70756D01*
Y-27209D02*
Y-15791D01*
X21533Y-36527D02*
Y-14873D01*
Y-36527D02*
X50667D01*
X21533Y-14873D02*
X50667D01*
Y-36527D02*
Y-14873D01*
X28628Y67143D02*
X32172D01*
X28628Y60057D02*
X32172D01*
Y67143D01*
X28628Y60057D02*
Y67143D01*
X45828Y62757D02*
X49372D01*
X45828Y69843D02*
X49372D01*
X45828Y62757D02*
Y69843D01*
X49372Y62757D02*
Y69843D01*
X30791Y-5956D02*
Y-444D01*
Y-5956D02*
X42209D01*
X30791Y-444D02*
X42209D01*
Y-5956D02*
Y-444D01*
X30139Y53506D02*
X54352D01*
X30139Y29294D02*
X54352D01*
X30139D02*
Y53506D01*
X54352Y29294D02*
Y53506D01*
M02*
