M48
;Layer_Color=9474304
;FILE_FORMAT=2:5
INCH,LZ
;TYPE=PLATED
T1F00S00C0.01181
T2F00S00C0.03543
%
T01
X01358Y00144
X0141051Y0015024
X0144989
X0148925
X0152863
X00881Y00143
X00805Y0011791
Y00094
X0070831Y-00015
X00714Y-0008
X00677Y-00119
X00684Y-0016
X0062Y-00178
Y-00215
X00619Y-0025052
X005505Y-0025232
X00519Y-00263
X0053104Y-0020204
X00553Y-00147
X00505Y-00116
X0044595Y-0004661
X0060343
X0063Y-00121
X0068726Y-00272
X0070185Y-003222
X0074122
X0072154Y-0036157
X0068217
X006428
X0060343
X0056406
X00572Y-00315
X0066248Y-003222
Y-0040094
X0070185
X0074122
X0062311
X0058374
X0053Y-00388
X00332Y-00339
X00337Y-00276
X00418Y-00232
X002056Y-001924
X0022941Y-0008598
X0022952Y-0003452
X0019004Y-0000724
X0015067
X001113
X0007193
X0005225Y0003213
X0009162
X001113Y000715
X0007193
X0005225Y0011087
X0009162
X001113Y0015024
X0007193
X00249Y0014648
X00426Y00136
X00449Y0016
X0017036Y-0004661
X0013099
X0009162
X0005225
X0015067Y-0008598
X0019926Y-0033274
X00182Y-00386
X002491Y-0044031
X0005225
Y0018961
X0009162
X0013099
X0017036
X0020973
X0022941Y0022898
X0019004
X0015067
X001113
X0007193
X000593Y0035536
X0009293
X0012655
X0016017
X0019379
X00228Y00356
X00257Y00372
X0026878Y0030772
X00302Y0033
X002491Y0026835
X00393Y00278
X00477Y00267
X00511Y00269
X0054437Y0022898
X00552Y00305
X005835Y003205
X00594Y00355
X00558Y00376
X00584Y0042
X0056Y00445
X0046576Y0045731
X0042246
X0037915
Y00414
Y0037069
X0042246
Y00414
X0046576
Y0037069
X00449Y00561
X00473Y00621
X00539Y00659
X0064Y00601
X00616Y00572
Y00546
X00731Y00468
X00757Y00434
X00805Y00277
X0085194Y0025106
X00877Y00275
X00929Y00276
X00958Y0026
Y00356
X0095776Y0042583
X0097744Y004652
X0101681
X01033Y00429
X0093807Y004652
X010365Y0066205
Y0018961
X00617Y00307
X00335Y00171
X00257Y00452
X00231Y00456
X00194Y00457
X00162
X00128
X00093
X00059
X00026Y00458
Y00355
X0005225Y0058331
X0009162
X0013099
X0017036
X0020973
X002491
X0022941Y0062268
X0019004
X0015067
X001113
X0007193
X0005225Y0066205
X0009162
X0013099
X0017036
X0020973
X002491
X00304Y00682
X0035356Y0055044
X0027Y00529
X0022941Y0054394
X0109555
X0107587Y0050457
X0111524
X0109555Y004652
X0105618
X0119398Y0050457
Y0066205
X0123335
X0127272
X0131209
X0135146
X0139083
X014302
X0146957
X0150894
X0152863Y0062268
X0148925
X0144989
X0141051
X0137114
X0141051Y0054394
X0152863
Y004652
Y0038646
Y0030772
X0150894Y0026835
X0146957
X0148925Y0022898
X0152863
X0150894Y0018961
X0146957
X0144989Y0022898
X0135146Y0018961
X0131209
X0127272
X0123335
X0119398
X0115461
X0111524
X0107587
X01047Y00249
X0107587Y0066205
X0111524
X0115461
T02
X00298Y00094
X00382Y00052
X00471
X00528Y-00034
X01013Y00521
X01011Y00612
X01156Y00469
X01256
X01356
Y00343
X01256
X01156
X01474Y00336
Y00436
Y00536
M30
