G04 Layer_Color=128*
%FSLAX25Y25*%
%MOIN*%
G70*
G01*
G75*
%ADD10R,0.04724X0.04488*%
%ADD11R,0.03347X0.03799*%
%ADD17R,0.02362X0.01968*%
%ADD18R,0.03799X0.03347*%
%ADD19R,0.04488X0.04724*%
%ADD47P,0.02784X4X360.0*%
%ADD48P,0.02227X4X360.0*%
%ADD49O,0.05709X0.02362*%
%ADD50R,0.17953X0.05118*%
%ADD51R,0.01968X0.02362*%
D10*
X18200Y-26760D02*
D03*
Y-19240D02*
D03*
D11*
X30800Y16852D02*
D03*
Y23348D02*
D03*
X62000Y-31648D02*
D03*
Y-25152D02*
D03*
X68000Y-24748D02*
D03*
Y-18252D02*
D03*
D17*
X42669Y21100D02*
D03*
X38732D02*
D03*
X42669Y24700D02*
D03*
X38732D02*
D03*
X48232Y52700D02*
D03*
X52169D02*
D03*
X38269Y52800D02*
D03*
X34332D02*
D03*
X38168Y49200D02*
D03*
X34231D02*
D03*
X37769Y33700D02*
D03*
X33832D02*
D03*
X35969Y29800D02*
D03*
X32032D02*
D03*
X48232Y48900D02*
D03*
X52169D02*
D03*
D18*
X38648Y-41500D02*
D03*
X32152D02*
D03*
D19*
X31140Y-10000D02*
D03*
X38660D02*
D03*
D47*
X67300Y47400D02*
D03*
D48*
X65332Y49369D02*
D03*
Y45432D02*
D03*
X69269Y49369D02*
D03*
Y45432D02*
D03*
D49*
X25372Y-33200D02*
D03*
Y-23200D02*
D03*
Y-28200D02*
D03*
Y-18200D02*
D03*
X46828Y-33200D02*
D03*
Y-28200D02*
D03*
Y-18200D02*
D03*
Y-23200D02*
D03*
D50*
X12300Y29550D02*
D03*
Y51400D02*
D03*
D51*
X35800Y11332D02*
D03*
Y15269D02*
D03*
M02*
