G04 Layer_Color=16711935*
%FSLAX25Y25*%
%MOIN*%
G70*
G01*
G75*
%ADD53C,0.00394*%
%ADD81R,0.04024X0.18110*%
D53*
X33738Y-31999D02*
G03*
X33738Y-31999I-1969J0D01*
G01*
X50513Y35101D02*
G03*
X50513Y35101I-1969J0D01*
G01*
X38550Y-43075D02*
Y-39925D01*
X32250D02*
X38550D01*
X32250Y-43075D02*
Y-39925D01*
Y-43075D02*
X38550D01*
X65332Y45432D02*
Y49369D01*
X69269Y45432D02*
Y49369D01*
X65332Y45432D02*
X69269D01*
X65332Y49369D02*
X69269D01*
X36438Y14563D02*
Y22437D01*
X41162Y14563D02*
Y22437D01*
X36438Y14563D02*
X41162D01*
X36438Y22437D02*
X41162D01*
X105825Y26950D02*
Y33250D01*
X108975Y26950D02*
Y33250D01*
X105825Y26950D02*
X108975D01*
X105825Y33250D02*
X108975D01*
X54139Y21355D02*
X84061D01*
X54139Y3245D02*
X84061D01*
X54139D02*
Y21355D01*
X84061Y3245D02*
Y21355D01*
X43961Y60525D02*
Y68793D01*
X33725Y60525D02*
Y68793D01*
Y60525D02*
X43961D01*
X33725Y68793D02*
X43961D01*
X45254Y-25050D02*
X48403D01*
X45254Y-31350D02*
X48403D01*
Y-25050D01*
X45254Y-31350D02*
Y-25050D01*
X90125Y14750D02*
X93275D01*
X90125Y21050D02*
X93275D01*
X90125Y14750D02*
Y21050D01*
X93275Y14750D02*
Y21050D01*
X92257Y48926D02*
Y64674D01*
X74343D02*
X92257D01*
X74343Y48926D02*
Y64674D01*
Y48926D02*
X92257D01*
X50165Y22419D02*
Y24781D01*
X45835Y22419D02*
Y24781D01*
Y22419D02*
X50165D01*
X45835Y24781D02*
X50165D01*
Y18819D02*
Y21181D01*
X45835Y18819D02*
Y21181D01*
Y18819D02*
X50165D01*
X45835Y21181D02*
X50165D01*
X42865Y19919D02*
Y22281D01*
X38535Y19919D02*
Y22281D01*
X42865D01*
X38535Y19919D02*
X42865D01*
Y23519D02*
Y25881D01*
X38535Y23519D02*
Y25881D01*
X42865D01*
X38535Y23519D02*
X42865D01*
X48035Y51519D02*
Y53881D01*
X52365Y51519D02*
Y53881D01*
X48035Y51519D02*
X52365D01*
X48035Y53881D02*
X52365D01*
X38465Y51619D02*
Y53981D01*
X34135Y51619D02*
Y53981D01*
X38465D01*
X34135Y51619D02*
X38465D01*
X38365Y48019D02*
Y50381D01*
X34035Y48019D02*
Y50381D01*
X38365D01*
X34035Y48019D02*
X38365D01*
X37965Y32519D02*
Y34881D01*
X33635Y32519D02*
Y34881D01*
X37965D01*
X33635Y32519D02*
X37965D01*
X36165Y28619D02*
Y30981D01*
X31835Y28619D02*
Y30981D01*
X36165D01*
X31835Y28619D02*
X36165D01*
X98525Y26950D02*
Y33250D01*
X101675Y26950D02*
Y33250D01*
X98525Y26950D02*
X101675D01*
X98525Y33250D02*
X101675D01*
X117650Y53325D02*
Y56475D01*
Y53325D02*
X123950D01*
X117650Y56475D02*
X123950D01*
Y53325D02*
Y56475D01*
X129650Y53525D02*
Y56675D01*
Y53525D02*
X135950D01*
X129650Y56675D02*
X135950D01*
Y53525D02*
Y56675D01*
X97125Y14950D02*
Y21250D01*
X100275Y14950D02*
Y21250D01*
X97125Y14950D02*
X100275D01*
X97125Y21250D02*
X100275D01*
X37625Y-35550D02*
Y-29250D01*
X40775Y-35550D02*
Y-29250D01*
X37625Y-35550D02*
X40775D01*
X37625Y-29250D02*
X40775D01*
X45425Y-43650D02*
Y-37350D01*
X48575Y-43650D02*
Y-37350D01*
X45425Y-43650D02*
X48575D01*
X45425Y-37350D02*
X48575D01*
X27250Y-18175D02*
Y-15025D01*
Y-18175D02*
X33550D01*
X27250Y-15025D02*
X33550D01*
Y-18175D02*
Y-15025D01*
X37625Y-23150D02*
Y-16850D01*
X40775Y-23150D02*
Y-16850D01*
X37625Y-23150D02*
X40775D01*
X37625Y-16850D02*
X40775D01*
X25825Y-9850D02*
Y-3550D01*
X28975Y-9850D02*
Y-3550D01*
X25825Y-9850D02*
X28975D01*
X25825Y-3550D02*
X28975D01*
X15425Y6550D02*
Y12850D01*
X18575Y6550D02*
Y12850D01*
X15425Y6550D02*
X18575D01*
X15425Y12850D02*
X18575D01*
X21625Y6550D02*
Y12850D01*
X24775Y6550D02*
Y12850D01*
X21625Y6550D02*
X24775D01*
X21625Y12850D02*
X24775D01*
X74325Y33350D02*
Y39650D01*
X77475Y33350D02*
Y39650D01*
X74325Y33350D02*
X77475D01*
X74325Y39650D02*
X77475D01*
X72850Y23325D02*
Y26475D01*
Y23325D02*
X79150D01*
X72850Y26475D02*
X79150D01*
Y23325D02*
Y26475D01*
X58663Y63238D02*
X66537D01*
X58663D02*
Y67962D01*
X66537D01*
Y63238D02*
Y67962D01*
X66125Y53150D02*
Y59450D01*
X69275Y53150D02*
Y59450D01*
X66125Y53150D02*
X69275D01*
X66125Y59450D02*
X69275D01*
X48035Y47719D02*
X52365D01*
X48035Y50081D02*
X52365D01*
X48035Y47719D02*
Y50081D01*
X52365Y47719D02*
Y50081D01*
X29225Y16950D02*
Y23250D01*
X32375Y16950D02*
Y23250D01*
X29225Y16950D02*
X32375D01*
X29225Y23250D02*
X32375D01*
X30963Y-12362D02*
Y-7638D01*
Y-12362D02*
X38837D01*
X30963Y-7638D02*
X38837D01*
Y-12362D02*
Y-7638D01*
X15838Y-26937D02*
X20562D01*
X15838D02*
Y-19063D01*
X20562Y-26937D02*
Y-19063D01*
X15838D02*
X20562D01*
X60425Y-31550D02*
Y-25250D01*
X63575Y-31550D02*
Y-25250D01*
X60425Y-31550D02*
X63575D01*
X60425Y-25250D02*
X63575D01*
X66425Y-24650D02*
Y-18350D01*
X69575Y-24650D02*
Y-18350D01*
X66425Y-24650D02*
X69575D01*
X66425Y-18350D02*
X69575D01*
X28226Y-35543D02*
Y-15857D01*
Y-35543D02*
X43974D01*
X28226Y-15857D02*
X43974D01*
Y-35543D02*
Y-15857D01*
X23187Y-21226D02*
X25297Y-45347D01*
X21900Y-6519D02*
X23187Y-21226D01*
X-1044Y-8526D02*
X21900Y-6519D01*
X-1044Y-8526D02*
X2353Y-47354D01*
X25297Y-45347D01*
X29416Y65569D02*
X31384D01*
X29416Y61632D02*
X31384D01*
Y65569D01*
X29416Y61632D02*
Y65569D01*
X46616Y64332D02*
X48584D01*
X46616Y68269D02*
X48584D01*
X46616Y64332D02*
Y68269D01*
X48584Y64332D02*
Y68269D01*
X33350Y-4775D02*
Y-1625D01*
Y-4775D02*
X39650D01*
X33350Y-1625D02*
X39650D01*
Y-4775D02*
Y-1625D01*
X34619Y11135D02*
Y15465D01*
Y11135D02*
X36981D01*
X34619Y15465D02*
X36981D01*
Y11135D02*
Y15465D01*
X32403Y51243D02*
X52088D01*
X32403Y31558D02*
X52088D01*
X32403D02*
Y51243D01*
X52088Y31558D02*
Y51243D01*
D81*
X82048Y12300D02*
D03*
M02*
