G04 Layer_Color=32896*
%FSLAX25Y25*%
%MOIN*%
G70*
G01*
G75*
%ADD36C,0.01181*%
%ADD37C,0.02362*%
%ADD38C,0.00591*%
%ADD39C,0.00630*%
%ADD40C,0.00787*%
%ADD52C,0.00984*%
D36*
X29801Y-15857D02*
X42399D01*
X29801Y-35543D02*
X42399D01*
X29801D02*
Y-15857D01*
X42399Y-35543D02*
Y-15857D01*
D37*
X35116Y-31409D02*
G03*
X35116Y-31409I-1181J0D01*
G01*
D38*
X35439Y-39925D02*
G03*
X35439Y-39925I-39J0D01*
G01*
X32414Y20100D02*
G03*
X32414Y20100I-39J0D01*
G01*
X34939Y-12362D02*
G03*
X34939Y-12362I-39J0D01*
G01*
Y-7638D02*
G03*
X34939Y-7638I-39J0D01*
G01*
X15877Y-23000D02*
G03*
X15877Y-23000I-39J0D01*
G01*
X20602D02*
G03*
X20602Y-23000I-39J0D01*
G01*
X63614Y-28400D02*
G03*
X63614Y-28400I-39J0D01*
G01*
X66465Y-21500D02*
G03*
X66465Y-21500I-39J0D01*
G01*
X66513Y50943D02*
X68087D01*
X66513Y43857D02*
X68087D01*
X70843Y46613D02*
Y48187D01*
X63757Y46613D02*
Y48187D01*
X51401Y45224D02*
X51926Y45749D01*
X52975D01*
X53500Y45224D01*
Y43125D01*
X52975Y42600D01*
X51926D01*
X51401Y43125D01*
X50351Y45749D02*
Y42600D01*
X48777D01*
X48252Y43125D01*
Y43650D01*
X48777Y44174D01*
X50351D01*
X48777D01*
X48252Y44699D01*
Y45224D01*
X48777Y45749D01*
X50351D01*
X47203Y42600D02*
X46153D01*
X46678D01*
Y45749D01*
X47203Y45224D01*
X49401Y22324D02*
X49926Y22849D01*
X50975D01*
X51500Y22324D01*
Y20225D01*
X50975Y19700D01*
X49926D01*
X49401Y20225D01*
X46777Y19700D02*
Y22849D01*
X48351Y21274D01*
X46252D01*
X25276Y34601D02*
X24751Y35126D01*
Y36175D01*
X25276Y36700D01*
X27375D01*
X27900Y36175D01*
Y35126D01*
X27375Y34601D01*
X24751Y33551D02*
X27900D01*
Y31977D01*
X27375Y31452D01*
X26851D01*
X26326Y31977D01*
Y33551D01*
Y31977D01*
X25801Y31452D01*
X25276D01*
X24751Y31977D01*
Y33551D01*
Y28304D02*
X25276Y29353D01*
X26326Y30403D01*
X27375D01*
X27900Y29878D01*
Y28828D01*
X27375Y28304D01*
X26851D01*
X26326Y28828D01*
Y30403D01*
X38001Y39224D02*
X38526Y39749D01*
X39575D01*
X40100Y39224D01*
Y37125D01*
X39575Y36600D01*
X38526D01*
X38001Y37125D01*
X36951Y39749D02*
Y36600D01*
X35377D01*
X34852Y37125D01*
Y37650D01*
X35377Y38174D01*
X36951D01*
X35377D01*
X34852Y38699D01*
Y39224D01*
X35377Y39749D01*
X36951D01*
X31704D02*
X33803D01*
Y38174D01*
X32753Y38699D01*
X32228D01*
X31704Y38174D01*
Y37125D01*
X32228Y36600D01*
X33278D01*
X33803Y37125D01*
X52501Y58324D02*
X53026Y58849D01*
X54075D01*
X54600Y58324D01*
Y56225D01*
X54075Y55700D01*
X53026D01*
X52501Y56225D01*
X51451Y58849D02*
Y55700D01*
X49877D01*
X49352Y56225D01*
Y56749D01*
X49877Y57274D01*
X51451D01*
X49877D01*
X49352Y57799D01*
Y58324D01*
X49877Y58849D01*
X51451D01*
X46204Y55700D02*
X48303D01*
X46204Y57799D01*
Y58324D01*
X46729Y58849D01*
X47778D01*
X48303Y58324D01*
X44601Y31024D02*
X45126Y31549D01*
X46175D01*
X46700Y31024D01*
Y28925D01*
X46175Y28400D01*
X45126D01*
X44601Y28925D01*
X41452Y31549D02*
X43551D01*
Y29974D01*
X42502Y30499D01*
X41977D01*
X41452Y29974D01*
Y28925D01*
X41977Y28400D01*
X43027D01*
X43551Y28925D01*
X38160Y57873D02*
X38685Y58398D01*
X39735D01*
X40260Y57873D01*
Y55774D01*
X39735Y55249D01*
X38685D01*
X38160Y55774D01*
X37111Y58398D02*
Y55249D01*
X35537D01*
X35012Y55774D01*
Y56299D01*
X35537Y56823D01*
X37111D01*
X35537D01*
X35012Y57348D01*
Y57873D01*
X35537Y58398D01*
X37111D01*
X33962Y57873D02*
X33438Y58398D01*
X32388D01*
X31863Y57873D01*
Y57348D01*
X32388Y56823D01*
X32913D01*
X32388D01*
X31863Y56299D01*
Y55774D01*
X32388Y55249D01*
X33438D01*
X33962Y55774D01*
X38501Y46024D02*
X39026Y46549D01*
X40075D01*
X40600Y46024D01*
Y43925D01*
X40075Y43400D01*
X39026D01*
X38501Y43925D01*
X37451Y46549D02*
Y43400D01*
X35877D01*
X35352Y43925D01*
Y44449D01*
X35877Y44974D01*
X37451D01*
X35877D01*
X35352Y45499D01*
Y46024D01*
X35877Y46549D01*
X37451D01*
X32728Y43400D02*
Y46549D01*
X34303Y44974D01*
X32204D01*
X39776Y15201D02*
X39251Y15726D01*
Y16775D01*
X39776Y17300D01*
X41875D01*
X42400Y16775D01*
Y15726D01*
X41875Y15201D01*
X42400Y14151D02*
Y13102D01*
Y13627D01*
X39251D01*
X39776Y14151D01*
Y11528D02*
X39251Y11003D01*
Y9953D01*
X39776Y9428D01*
X41875D01*
X42400Y9953D01*
Y11003D01*
X41875Y11528D01*
X39776D01*
X75224Y-24601D02*
X75749Y-25126D01*
Y-26175D01*
X75224Y-26700D01*
X73125D01*
X72600Y-26175D01*
Y-25126D01*
X73125Y-24601D01*
X75749Y-23551D02*
X72600D01*
Y-21977D01*
X73125Y-21452D01*
X73650D01*
X74174Y-21977D01*
Y-23551D01*
Y-21977D01*
X74699Y-21452D01*
X75224D01*
X75749Y-21977D01*
Y-23551D01*
X72600Y-20403D02*
Y-19353D01*
Y-19878D01*
X75749D01*
X75224Y-20403D01*
X72600Y-15680D02*
Y-17779D01*
X74699Y-15680D01*
X75224D01*
X75749Y-16205D01*
Y-17254D01*
X75224Y-17779D01*
X68724Y-40701D02*
X69249Y-41226D01*
Y-42275D01*
X68724Y-42800D01*
X66625D01*
X66100Y-42275D01*
Y-41226D01*
X66625Y-40701D01*
X69249Y-39651D02*
X66100D01*
Y-38077D01*
X66625Y-37552D01*
X67150D01*
X67674Y-38077D01*
Y-39651D01*
Y-38077D01*
X68199Y-37552D01*
X68724D01*
X69249Y-38077D01*
Y-39651D01*
X66100Y-36503D02*
Y-35453D01*
Y-35978D01*
X69249D01*
X68724Y-36503D01*
Y-33879D02*
X69249Y-33354D01*
Y-32305D01*
X68724Y-31780D01*
X68199D01*
X67674Y-32305D01*
Y-32829D01*
Y-32305D01*
X67150Y-31780D01*
X66625D01*
X66100Y-32305D01*
Y-33354D01*
X66625Y-33879D01*
X12624Y-27001D02*
X13149Y-27526D01*
Y-28575D01*
X12624Y-29100D01*
X10525D01*
X10000Y-28575D01*
Y-27526D01*
X10525Y-27001D01*
X13149Y-25951D02*
X10000D01*
Y-24377D01*
X10525Y-23852D01*
X11050D01*
X11574Y-24377D01*
Y-25951D01*
Y-24377D01*
X12099Y-23852D01*
X12624D01*
X13149Y-24377D01*
Y-25951D01*
X10000Y-22803D02*
Y-21753D01*
Y-22278D01*
X13149D01*
X12624Y-22803D01*
X10000Y-18605D02*
X13149D01*
X11574Y-20179D01*
Y-18080D01*
X37301Y-2376D02*
X37826Y-1851D01*
X38875D01*
X39400Y-2376D01*
Y-4475D01*
X38875Y-5000D01*
X37826D01*
X37301Y-4475D01*
X36251Y-1851D02*
Y-5000D01*
X34677D01*
X34152Y-4475D01*
Y-3951D01*
X34677Y-3426D01*
X36251D01*
X34677D01*
X34152Y-2901D01*
Y-2376D01*
X34677Y-1851D01*
X36251D01*
X33103Y-5000D02*
X32053D01*
X32578D01*
Y-1851D01*
X33103Y-2376D01*
X28380Y-1851D02*
X30479D01*
Y-3426D01*
X29430Y-2901D01*
X28905D01*
X28380Y-3426D01*
Y-4475D01*
X28905Y-5000D01*
X29954D01*
X30479Y-4475D01*
X27100Y24900D02*
X23951D01*
Y23326D01*
X24476Y22801D01*
X25526D01*
X26050Y23326D01*
Y24900D01*
Y23851D02*
X27100Y22801D01*
Y21751D02*
Y20702D01*
Y21227D01*
X23951D01*
X24476Y21751D01*
Y19128D02*
X23951Y18603D01*
Y17553D01*
X24476Y17029D01*
X26575D01*
X27100Y17553D01*
Y18603D01*
X26575Y19128D01*
X24476D01*
X39100Y-47900D02*
Y-44751D01*
X37526D01*
X37001Y-45276D01*
Y-46326D01*
X37526Y-46850D01*
X39100D01*
X38050D02*
X37001Y-47900D01*
X33852D02*
X35951D01*
X33852Y-45801D01*
Y-45276D01*
X34377Y-44751D01*
X35427D01*
X35951Y-45276D01*
X32803Y-47900D02*
X31753D01*
X32278D01*
Y-44751D01*
X32803Y-45276D01*
X74800Y56749D02*
Y54125D01*
X74275Y53600D01*
X73226D01*
X72701Y54125D01*
Y56749D01*
X71651Y53600D02*
X70602D01*
X71127D01*
Y56749D01*
X71651Y56224D01*
X69028Y53600D02*
X67978D01*
X68503D01*
Y56749D01*
X69028Y56224D01*
X36051Y-18500D02*
X38675D01*
X39200Y-19025D01*
Y-20074D01*
X38675Y-20599D01*
X36051D01*
X39200Y-21649D02*
Y-22698D01*
Y-22173D01*
X36051D01*
X36576Y-21649D01*
Y-24272D02*
X36051Y-24797D01*
Y-25847D01*
X36576Y-26371D01*
X37101D01*
X37626Y-25847D01*
Y-25322D01*
Y-25847D01*
X38151Y-26371D01*
X38675D01*
X39200Y-25847D01*
Y-24797D01*
X38675Y-24272D01*
D39*
X35439Y-43075D02*
G03*
X35439Y-43075I-39J0D01*
G01*
X29265Y20100D02*
G03*
X29265Y20100I-39J0D01*
G01*
X60465Y-28400D02*
G03*
X60465Y-28400I-39J0D01*
G01*
X69614Y-21500D02*
G03*
X69614Y-21500I-39J0D01*
G01*
D40*
X62772Y45235D02*
G03*
X62772Y45235I-197J0D01*
G01*
D52*
X25864Y-36546D02*
G03*
X25864Y-36546I-492J0D01*
G01*
M02*
