G04 Layer_Color=8388736*
%FSLAX25Y25*%
%MOIN*%
G70*
G01*
G75*
G04:AMPARAMS|DCode=22|XSize=15.75mil|YSize=53.15mil|CornerRadius=0mil|HoleSize=0mil|Usage=FLASHONLY|Rotation=275.000|XOffset=0mil|YOffset=0mil|HoleType=Round|Shape=Rectangle|*
%AMROTATEDRECTD22*
4,1,4,-0.02716,0.00553,0.02579,0.01016,0.02716,-0.00553,-0.02579,-0.01016,-0.02716,0.00553,0.0*
%
%ADD22ROTATEDRECTD22*%

%ADD24R,0.02165X0.02165*%
%ADD25R,0.01181X0.01968*%
%ADD26R,0.09449X0.06299*%
%ADD27R,0.01772X0.01181*%
%ADD28R,0.03740X0.12205*%
%ADD46C,0.01968*%
%ADD54C,0.01654*%
%ADD55R,0.05524X0.05288*%
%ADD56R,0.04147X0.04599*%
%ADD57R,0.10839X0.10446*%
%ADD58R,0.11824X0.11824*%
%ADD59R,0.05354X0.04567*%
%ADD60R,0.10249X0.15367*%
%ADD61R,0.03162X0.02768*%
%ADD62R,0.04599X0.04147*%
%ADD63R,0.05288X0.05524*%
G04:AMPARAMS|DCode=64|XSize=70.99mil|YSize=63.12mil|CornerRadius=0mil|HoleSize=0mil|Usage=FLASHONLY|Rotation=275.000|XOffset=0mil|YOffset=0mil|HoleType=Round|Shape=Rectangle|*
%AMROTATEDRECTD64*
4,1,4,-0.03453,0.03261,0.02834,0.03811,0.03453,-0.03261,-0.02834,-0.03811,-0.03453,0.03261,0.0*
%
%ADD64ROTATEDRECTD64*%

G04:AMPARAMS|DCode=65|XSize=98.55mil|YSize=59.18mil|CornerRadius=0mil|HoleSize=0mil|Usage=FLASHONLY|Rotation=275.000|XOffset=0mil|YOffset=0mil|HoleType=Round|Shape=Rectangle|*
%AMROTATEDRECTD65*
4,1,4,-0.03377,0.04651,0.02518,0.05167,0.03377,-0.04651,-0.02518,-0.05167,-0.03377,0.04651,0.0*
%
%ADD65ROTATEDRECTD65*%

G04:AMPARAMS|DCode=66|XSize=78.87mil|YSize=82.8mil|CornerRadius=0mil|HoleSize=0mil|Usage=FLASHONLY|Rotation=275.000|XOffset=0mil|YOffset=0mil|HoleType=Round|Shape=Rectangle|*
%AMROTATEDRECTD66*
4,1,4,-0.04468,0.03567,0.03781,0.04289,0.04468,-0.03567,-0.03781,-0.04289,-0.04468,0.03567,0.0*
%
%ADD66ROTATEDRECTD66*%

%ADD67R,0.18753X0.04737*%
%ADD68R,0.18753X0.04028*%
%ADD69R,0.14383X0.14383*%
%ADD70O,0.01981X0.04343*%
%ADD71O,0.04343X0.01981*%
%ADD72C,0.06800*%
%ADD73C,0.06706*%
%ADD74R,0.06706X0.06706*%
%ADD75R,0.06706X0.06706*%
D22*
X19034Y-21194D02*
D03*
X19257Y-23744D02*
D03*
X19480Y-26293D02*
D03*
X19703Y-28842D02*
D03*
X19926Y-31392D02*
D03*
D24*
X30400Y65470D02*
D03*
Y61730D02*
D03*
X47600Y64430D02*
D03*
Y68170D02*
D03*
D25*
X91100Y31276D02*
D03*
X89131D02*
D03*
X87163D02*
D03*
X85194D02*
D03*
X83226D02*
D03*
Y42300D02*
D03*
X85194D02*
D03*
X87163D02*
D03*
X89131D02*
D03*
X91100D02*
D03*
D26*
X87163Y36788D02*
D03*
D27*
X65500Y-26200D02*
D03*
Y-24231D02*
D03*
Y-22263D02*
D03*
Y-20294D02*
D03*
Y-18326D02*
D03*
Y-16357D02*
D03*
X58413D02*
D03*
Y-18326D02*
D03*
Y-20294D02*
D03*
Y-22263D02*
D03*
Y-24231D02*
D03*
Y-26200D02*
D03*
D28*
X61957Y-21279D02*
D03*
D46*
X37915Y45731D02*
D03*
X42246D02*
D03*
X46576D02*
D03*
X37915Y41400D02*
D03*
X42246D02*
D03*
X46576D02*
D03*
X37915Y37069D02*
D03*
X42246D02*
D03*
X46576D02*
D03*
D54*
X25809Y42200D02*
D03*
Y40625D02*
D03*
X29746D02*
D03*
Y42200D02*
D03*
D55*
X38800Y14740D02*
D03*
Y22260D02*
D03*
D56*
X107400Y26852D02*
D03*
Y33348D02*
D03*
X46828Y-24952D02*
D03*
Y-31448D02*
D03*
X91700Y14652D02*
D03*
Y21148D02*
D03*
X100100Y26852D02*
D03*
Y33348D02*
D03*
X98700Y14852D02*
D03*
Y21348D02*
D03*
X39200Y-35648D02*
D03*
Y-29152D02*
D03*
X47000Y-43748D02*
D03*
Y-37252D02*
D03*
X39200Y-23248D02*
D03*
Y-16752D02*
D03*
X27400Y-9948D02*
D03*
Y-3452D02*
D03*
X17000Y6452D02*
D03*
Y12948D02*
D03*
X23200Y6452D02*
D03*
Y12948D02*
D03*
X75900Y33252D02*
D03*
Y39748D02*
D03*
X67700Y53052D02*
D03*
Y59548D02*
D03*
D57*
X57191Y12300D02*
D03*
X81010D02*
D03*
D58*
X82300Y-5000D02*
D03*
X82900Y-32700D02*
D03*
D59*
X42387Y67218D02*
D03*
Y62100D02*
D03*
X35300Y67218D02*
D03*
Y62100D02*
D03*
D60*
X90091Y56800D02*
D03*
X76509D02*
D03*
D61*
X49968Y23600D02*
D03*
X46031D02*
D03*
X49968Y20000D02*
D03*
X46031D02*
D03*
D62*
X117552Y54900D02*
D03*
X124048D02*
D03*
X129552Y55100D02*
D03*
X136048D02*
D03*
X27152Y-16600D02*
D03*
X33648D02*
D03*
X72752Y24900D02*
D03*
X79248D02*
D03*
X33252Y-3200D02*
D03*
X39748D02*
D03*
D63*
X58840Y65600D02*
D03*
X66360D02*
D03*
D64*
X17598Y-13811D02*
D03*
X19794Y-38912D02*
D03*
D65*
X10160Y-41731D02*
D03*
X7621Y-12708D02*
D03*
D66*
X9285Y-31730D02*
D03*
X8496Y-22709D02*
D03*
D67*
X12300Y29550D02*
D03*
Y51400D02*
D03*
D68*
Y40475D02*
D03*
D69*
X42246Y41400D02*
D03*
D70*
X49135Y32050D02*
D03*
X47167D02*
D03*
X45198D02*
D03*
X43230D02*
D03*
X41261D02*
D03*
X39293D02*
D03*
X37324D02*
D03*
X35356D02*
D03*
Y50750D02*
D03*
X37324D02*
D03*
X39293D02*
D03*
X41261D02*
D03*
X43230D02*
D03*
X45198D02*
D03*
X47167D02*
D03*
X49135D02*
D03*
D71*
X32895Y34510D02*
D03*
Y36479D02*
D03*
Y38447D02*
D03*
Y40416D02*
D03*
Y42384D02*
D03*
Y44353D02*
D03*
Y46321D02*
D03*
Y48290D02*
D03*
X51596D02*
D03*
Y46321D02*
D03*
Y44353D02*
D03*
Y42384D02*
D03*
Y40416D02*
D03*
Y38447D02*
D03*
Y36479D02*
D03*
Y34510D02*
D03*
D72*
X101100Y61200D02*
D03*
X29800Y9400D02*
D03*
X47100Y5200D02*
D03*
X101300Y52100D02*
D03*
X38200Y5200D02*
D03*
X52800Y-3400D02*
D03*
D73*
X135600Y34300D02*
D03*
X125600D02*
D03*
X115600Y46900D02*
D03*
X125600D02*
D03*
X147400Y33600D02*
D03*
Y43600D02*
D03*
D74*
X115600Y34300D02*
D03*
X135600Y46900D02*
D03*
D75*
X147400Y53600D02*
D03*
M02*
