G04 Layer_Color=8421504*
%FSLAX44Y44*%
%MOMM*%
G71*
G01*
G75*
%ADD10R,4.1500X1.0000*%
%ADD11R,8.2000X10.7500*%
%ADD12R,1.7000X0.7500*%
%ADD13O,2.1000X0.7000*%
%ADD14R,0.7000X0.9000*%
%ADD15R,0.9000X0.7000*%
%ADD16R,2.5500X2.5500*%
%ADD17R,1.5500X2.4500*%
%ADD18R,3.1000X3.9000*%
D10*
X376190Y128560D02*
D03*
Y145560D02*
D03*
Y162560D02*
D03*
Y179560D02*
D03*
Y196560D02*
D03*
Y358560D02*
D03*
Y375560D02*
D03*
Y392560D02*
D03*
Y409560D02*
D03*
Y426560D02*
D03*
D11*
X271690Y162560D02*
D03*
Y392560D02*
D03*
D12*
X179070Y189970D02*
D03*
Y155470D02*
D03*
X203200D02*
D03*
Y189970D02*
D03*
X198120Y127740D02*
D03*
Y93240D02*
D03*
X179070Y419970D02*
D03*
Y385470D02*
D03*
X203200D02*
D03*
Y419970D02*
D03*
X198120Y357740D02*
D03*
Y323240D02*
D03*
D13*
X143340Y149860D02*
D03*
Y162560D02*
D03*
Y175260D02*
D03*
Y187960D02*
D03*
X90340Y149860D02*
D03*
Y162560D02*
D03*
Y175260D02*
D03*
Y187960D02*
D03*
X145880Y83820D02*
D03*
Y96520D02*
D03*
Y109220D02*
D03*
Y121920D02*
D03*
X92880Y83820D02*
D03*
Y96520D02*
D03*
Y109220D02*
D03*
Y121920D02*
D03*
X143340Y379860D02*
D03*
Y392560D02*
D03*
Y405260D02*
D03*
Y417960D02*
D03*
X90340Y379860D02*
D03*
Y392560D02*
D03*
Y405260D02*
D03*
Y417960D02*
D03*
X145880Y313820D02*
D03*
Y326520D02*
D03*
Y339220D02*
D03*
Y351920D02*
D03*
X92880Y313820D02*
D03*
Y326520D02*
D03*
Y339220D02*
D03*
Y351920D02*
D03*
D14*
X17900Y209550D02*
D03*
X32900D02*
D03*
X17900Y439550D02*
D03*
X32900D02*
D03*
D15*
X173990Y86240D02*
D03*
Y71240D02*
D03*
X179070Y114180D02*
D03*
Y99180D02*
D03*
X175260Y128390D02*
D03*
Y143390D02*
D03*
X173990Y316240D02*
D03*
Y301240D02*
D03*
X179070Y344180D02*
D03*
Y329180D02*
D03*
X175260Y358390D02*
D03*
Y373390D02*
D03*
D16*
X230100Y68580D02*
D03*
X290600D02*
D03*
X341860Y71120D02*
D03*
X402360D02*
D03*
X230100Y298580D02*
D03*
X290600D02*
D03*
X341860Y301120D02*
D03*
X402360D02*
D03*
D17*
X440690Y40440D02*
D03*
Y78940D02*
D03*
Y270440D02*
D03*
Y308940D02*
D03*
D18*
X445770Y190370D02*
D03*
Y142370D02*
D03*
Y420370D02*
D03*
Y372370D02*
D03*
M02*
