M48
;Layer_Color=9474304
;FILE_FORMAT=2:5
INCH,LZ
;TYPE=PLATED
T1F00S00C0.02800
T2F00S00C0.03543
T3F00S00C0.09843
%
T01
X0114Y00405
X0103Y0032
X00585Y00315
X0047Y003
X00585Y0052
X0061Y00655
X00765Y00665
Y00865
X0058Y00825
X0056Y00915
X0051Y0109
X0046Y01165
X00375Y01175
X0056Y0127
X0071Y01265
X00805Y0127
X0079Y01205
Y0114
X0073679Y0110179
X00885Y0111
X0096Y01105
X0105Y01155
X00865Y0121
X0091Y0126
X0101Y0176
X0033Y0163
X003Y01445
X00265Y009
X0022Y00805
X00255Y0201
X01005Y01925
T02
X00225Y0013
X0034Y0005
X00445
X00545
X00645
X00745
X00845
X00945
X0106Y0023
X0107Y00455
X01055Y00605
X00655Y00585
X00645Y0046
X0067Y00335
X00645Y00225
X00145Y003
X0011Y0042
Y00525
Y00635
Y00735
X0021Y0068
Y00575
Y00475
X00215Y01025
X001Y011
Y012
Y013
Y014
Y015
Y016
Y01705
X00215Y0176
Y01645
X0021Y0154
Y0144
X00215Y0126
X001Y0093
X0105Y0103
X01055Y0132
Y0142
Y0152
Y0164
Y01845
X0104Y0208
X00645Y02105
X0064Y0197
X00645Y0183
X001Y01805
Y01905
Y02005
X00245Y0211
T03
X001Y00105
Y0214
M30
