%FSLAX25Y25*%
%MOIN*%
G70*
G01*
G75*
G04 Layer_Color=2752767*
%ADD10R,0.03543X0.02756*%
%ADD11R,0.22835X0.25197*%
%ADD12R,0.03150X0.08661*%
%ADD13R,0.02362X0.04528*%
%ADD14R,0.02756X0.03543*%
%ADD15O,0.02362X0.09055*%
%ADD16C,0.07000*%
%ADD17C,0.01000*%
%ADD18C,0.06400*%
%ADD19C,0.06500*%
%ADD20R,0.60500X0.07500*%
%ADD21R,0.08000X0.18500*%
%ADD22C,0.07874*%
%ADD23C,0.04500*%
%ADD24R,0.03740X0.03543*%
%ADD25R,0.03543X0.03740*%
%ADD26C,0.01969*%
%ADD27R,0.09000X0.09500*%
%ADD28C,0.00984*%
%ADD29C,0.02362*%
%ADD30C,0.00787*%
%ADD31C,0.00500*%
%ADD32C,0.00600*%
%ADD33R,0.04343X0.03556*%
%ADD34R,0.23635X0.25997*%
%ADD35R,0.03386X0.08898*%
%ADD36R,0.03162X0.05328*%
%ADD37R,0.03556X0.04343*%
%ADD38O,0.03162X0.09855*%
%ADD39C,0.00800*%
%ADD40C,0.08674*%
%ADD41C,0.05300*%
%ADD42R,0.04540X0.04343*%
%ADD43R,0.04343X0.04540*%
%ADD44C,0.04724*%
%ADD45C,0.00394*%
%ADD46C,0.00667*%
D31*
X8000Y212000D02*
Y216000D01*
X12000D01*
Y212000D01*
X8000D01*
Y8500D02*
Y12500D01*
X12000D01*
Y8500D01*
X8000D01*
X79000Y118500D02*
X77000Y122500D01*
X81000D01*
X79000Y118500D01*
X46000Y114500D02*
X44000Y118500D01*
X48000D01*
X46000Y114500D01*
X96000Y108500D02*
X94000Y112500D01*
X98000D01*
X96000Y108500D01*
X88500Y109000D02*
X86500Y113000D01*
X90500D01*
X88500Y109000D01*
X58000Y80500D02*
X56000Y84500D01*
X60000D01*
X58000Y80500D01*
X47000Y28000D02*
X45000Y32000D01*
X49000D01*
X47000Y28000D01*
X103000Y30000D02*
X101000Y34000D01*
X105000D01*
X103000Y30000D01*
X76500Y84500D02*
X74500Y88500D01*
X78500D01*
X76500Y84500D01*
X58500Y29500D02*
X56500Y33500D01*
X60500D01*
X58500Y29500D01*
X101000Y174000D02*
X99000Y178000D01*
X103000D01*
X101000Y174000D01*
X25500Y199000D02*
X23500Y203000D01*
X27500D01*
X25500Y199000D01*
X33000Y161000D02*
X31000Y165000D01*
X35000D01*
X33000Y161000D01*
X76500Y64500D02*
X74500Y68500D01*
X78500D01*
X76500Y64500D01*
X58500Y50000D02*
X56500Y54000D01*
X60500D01*
X58500Y50000D01*
X30000Y142500D02*
X28000Y146500D01*
X32000D01*
X30000Y142500D01*
X91000Y124000D02*
X89000Y128000D01*
X93000D01*
X91000Y124000D01*
X80500Y125000D02*
X78500Y129000D01*
X82500D01*
X80500Y125000D01*
X71000Y124500D02*
X69000Y128500D01*
X73000D01*
X71000Y124500D01*
X51000Y107000D02*
X49000Y111000D01*
X53000D01*
X51000Y107000D01*
X22000Y78500D02*
X20000Y82500D01*
X24000D01*
X22000Y78500D01*
X26500Y88000D02*
X24500Y92000D01*
X28500D01*
X26500Y88000D01*
X56000Y125000D02*
X54000Y129000D01*
X58000D01*
X56000Y125000D01*
Y89500D02*
X54000Y93500D01*
X58000D01*
X56000Y89500D01*
X37500Y115500D02*
X35500Y119500D01*
X39500D01*
X37500Y115500D01*
X105000Y113500D02*
X103000Y117500D01*
X107000D01*
X105000Y113500D01*
X61000Y63500D02*
X59000Y67500D01*
X63000D01*
X61000Y63500D01*
X114000Y38500D02*
X112000Y42500D01*
X116000D01*
X114000Y38500D01*
X100500Y190500D02*
X98500Y194500D01*
X102500D01*
X100500Y190500D01*
X86500Y119000D02*
X84500Y123000D01*
X88500D01*
X86500Y119000D01*
X73679Y108179D02*
X71679Y112179D01*
X75679D01*
X73679Y108179D01*
X79000Y112000D02*
X77000Y116000D01*
X81000D01*
X79000Y112000D01*
D46*
X106000Y208000D02*
G03*
X106000Y208000I-2000J0D01*
G01*
X107500Y184500D02*
G03*
X107500Y184500I-2000J0D01*
G01*
X109000Y45500D02*
G03*
X109000Y45500I-2000J0D01*
G01*
X107500Y164000D02*
G03*
X107500Y164000I-2000J0D01*
G01*
Y152000D02*
G03*
X107500Y152000I-2000J0D01*
G01*
Y142000D02*
G03*
X107500Y142000I-2000J0D01*
G01*
X107000Y103000D02*
G03*
X107000Y103000I-2000J0D01*
G01*
X107500Y132000D02*
G03*
X107500Y132000I-2000J0D01*
G01*
X66500Y22500D02*
G03*
X66500Y22500I-2000J0D01*
G01*
X69000Y33500D02*
G03*
X69000Y33500I-2000J0D01*
G01*
X66500Y46000D02*
G03*
X66500Y46000I-2000J0D01*
G01*
X67500Y58500D02*
G03*
X67500Y58500I-2000J0D01*
G01*
X107500Y60500D02*
G03*
X107500Y60500I-2000J0D01*
G01*
X108000Y23000D02*
G03*
X108000Y23000I-2000J0D01*
G01*
X96500Y5000D02*
G03*
X96500Y5000I-2000J0D01*
G01*
X86500D02*
G03*
X86500Y5000I-2000J0D01*
G01*
X76500D02*
G03*
X76500Y5000I-2000J0D01*
G01*
X66500D02*
G03*
X66500Y5000I-2000J0D01*
G01*
X56500D02*
G03*
X56500Y5000I-2000J0D01*
G01*
X46500D02*
G03*
X46500Y5000I-2000J0D01*
G01*
X36000D02*
G03*
X36000Y5000I-2000J0D01*
G01*
X13000Y52500D02*
G03*
X13000Y52500I-2000J0D01*
G01*
Y42000D02*
G03*
X13000Y42000I-2000J0D01*
G01*
X24500Y13000D02*
G03*
X24500Y13000I-2000J0D01*
G01*
X23000Y47500D02*
G03*
X23000Y47500I-2000J0D01*
G01*
Y57500D02*
G03*
X23000Y57500I-2000J0D01*
G01*
Y68000D02*
G03*
X23000Y68000I-2000J0D01*
G01*
X13000Y63500D02*
G03*
X13000Y63500I-2000J0D01*
G01*
Y73500D02*
G03*
X13000Y73500I-2000J0D01*
G01*
X23000Y144000D02*
G03*
X23000Y144000I-2000J0D01*
G01*
Y154000D02*
G03*
X23000Y154000I-2000J0D01*
G01*
X12000Y93000D02*
G03*
X12000Y93000I-2000J0D01*
G01*
X23500Y102500D02*
G03*
X23500Y102500I-2000J0D01*
G01*
X12000Y110000D02*
G03*
X12000Y110000I-2000J0D01*
G01*
Y120000D02*
G03*
X12000Y120000I-2000J0D01*
G01*
Y130000D02*
G03*
X12000Y130000I-2000J0D01*
G01*
Y140000D02*
G03*
X12000Y140000I-2000J0D01*
G01*
Y150000D02*
G03*
X12000Y150000I-2000J0D01*
G01*
X66500Y183000D02*
G03*
X66500Y183000I-2000J0D01*
G01*
X66000Y197000D02*
G03*
X66000Y197000I-2000J0D01*
G01*
X66500Y210500D02*
G03*
X66500Y210500I-2000J0D01*
G01*
X23500Y164500D02*
G03*
X23500Y164500I-2000J0D01*
G01*
X12000Y160000D02*
G03*
X12000Y160000I-2000J0D01*
G01*
Y180500D02*
G03*
X12000Y180500I-2000J0D01*
G01*
Y170500D02*
G03*
X12000Y170500I-2000J0D01*
G01*
X23500Y176000D02*
G03*
X23500Y176000I-2000J0D01*
G01*
X12000Y190500D02*
G03*
X12000Y190500I-2000J0D01*
G01*
X16500Y30000D02*
G03*
X16500Y30000I-2000J0D01*
G01*
X12000Y200500D02*
G03*
X12000Y200500I-2000J0D01*
G01*
X26500Y211000D02*
G03*
X26500Y211000I-2000J0D01*
G01*
X23500Y126000D02*
G03*
X23500Y126000I-2000J0D01*
G01*
M02*
