%FSLAX25Y25*%
%MOIN*%
G70*
G01*
G75*
G04 Layer_Color=32768*
%ADD10R,0.03543X0.02756*%
%ADD11R,0.02362X0.04528*%
%ADD12O,0.02362X0.09055*%
%ADD13R,0.02756X0.03543*%
%ADD14R,0.03150X0.08661*%
%ADD15R,0.22835X0.25197*%
%ADD16C,0.01000*%
%ADD17C,0.07000*%
%ADD18C,0.06500*%
%ADD19C,0.06400*%
%ADD20R,0.08000X0.18500*%
%ADD21R,0.60500X0.07500*%
%ADD22C,0.07874*%
%ADD23C,0.04500*%
%ADD24R,0.03740X0.03543*%
%ADD25R,0.03543X0.03740*%
%ADD26R,0.19000X0.17500*%
%ADD27R,0.09000X0.09500*%
%ADD28C,0.00984*%
%ADD29C,0.02362*%
%ADD30C,0.00787*%
%ADD31C,0.00500*%
%ADD32C,0.00600*%
%ADD33R,0.04343X0.03556*%
%ADD34R,0.03162X0.05328*%
%ADD35O,0.03162X0.09855*%
%ADD36R,0.03556X0.04343*%
%ADD37R,0.03386X0.08898*%
%ADD38R,0.23635X0.25997*%
%ADD39C,0.08674*%
%ADD40C,0.00800*%
%ADD41C,0.05300*%
%ADD42R,0.04540X0.04343*%
%ADD43R,0.04343X0.04540*%
%ADD44C,0.04724*%
%ADD45C,0.00394*%
D45*
X47130Y93500D02*
X50870D01*
X49000Y91630D02*
Y95370D01*
X51165Y88776D02*
Y98224D01*
X46835Y88776D02*
Y98224D01*
Y88776D02*
X51165D01*
X46835Y98224D02*
X51165D01*
X57630Y151500D02*
X61370D01*
X59500Y149630D02*
Y153370D01*
X61665Y146776D02*
Y156224D01*
X57335Y146776D02*
Y156224D01*
X61665D01*
X57335Y146776D02*
X61665D01*
X83031Y76000D02*
X86968D01*
X85000Y74032D02*
Y77969D01*
X78110Y68323D02*
Y83677D01*
X91890Y68323D02*
Y83677D01*
X78110Y68323D02*
X91890D01*
X78110Y83677D02*
X91890D01*
X20130Y192000D02*
X23870D01*
X22000Y190130D02*
Y193870D01*
X24165Y187276D02*
Y196724D01*
X19835Y187276D02*
Y196724D01*
X24165D01*
X19835Y187276D02*
X24165D01*
X26886Y94575D02*
X100114D01*
X26886Y141425D02*
X100114D01*
X26886Y94575D02*
Y141425D01*
X100114Y94575D02*
Y141425D01*
X63500Y116032D02*
Y119968D01*
X61532Y118000D02*
X65469D01*
X46500Y156130D02*
Y159870D01*
X44630Y158000D02*
X48370D01*
X41776Y155835D02*
X51224D01*
X41776Y160165D02*
X51224D01*
X41776Y155835D02*
Y160165D01*
X51224Y155835D02*
Y160165D01*
X27630Y106000D02*
X31370D01*
X29500Y104130D02*
Y107870D01*
X27335Y101276D02*
Y110724D01*
X31665Y101276D02*
Y110724D01*
X27335D02*
X31665D01*
X27335Y101276D02*
X31665D01*
X23000Y20630D02*
Y24370D01*
X21130Y22500D02*
X24870D01*
X18276Y20335D02*
X27724D01*
X18276Y24665D02*
X27724D01*
Y20335D02*
Y24665D01*
X18276Y20335D02*
Y24665D01*
X95130Y69500D02*
X98870D01*
X97000Y67630D02*
Y71370D01*
X99165Y64776D02*
Y74224D01*
X94835Y64776D02*
Y74224D01*
X99165D01*
X94835Y64776D02*
X99165D01*
X39000Y68630D02*
Y72370D01*
X37130Y70500D02*
X40870D01*
X34276Y72665D02*
X43724D01*
X34276Y68335D02*
X43724D01*
X34276D02*
Y72665D01*
X43724Y68335D02*
Y72665D01*
X50000Y68630D02*
Y72370D01*
X48130Y70500D02*
X51870D01*
X45276Y72665D02*
X54724D01*
X45276Y68335D02*
X54724D01*
X45276D02*
Y72665D01*
X54724Y68335D02*
Y72665D01*
X65031Y76000D02*
X68968D01*
X67000Y74032D02*
Y77969D01*
X60110Y68323D02*
Y83677D01*
X73890Y68323D02*
Y83677D01*
X60110Y68323D02*
X73890D01*
X60110Y83677D02*
X73890D01*
X68000Y88130D02*
Y91870D01*
X66130Y90000D02*
X69870D01*
X63276Y92165D02*
X72724D01*
X63276Y87835D02*
X72724D01*
X63276D02*
Y92165D01*
X72724Y87835D02*
Y92165D01*
X83500Y86630D02*
Y90370D01*
X81630Y88500D02*
X85370D01*
X78776Y90665D02*
X88224D01*
X78776Y86335D02*
X88224D01*
X78776D02*
Y90665D01*
X88224Y86335D02*
Y90665D01*
X44130Y85000D02*
X47870D01*
X46000Y83130D02*
Y86870D01*
X48165Y80276D02*
Y89724D01*
X43835Y80276D02*
Y89724D01*
X48165D01*
X43835Y80276D02*
X48165D01*
X34130Y85000D02*
X37870D01*
X36000Y83130D02*
Y86870D01*
X38165Y80276D02*
Y89724D01*
X33835Y80276D02*
Y89724D01*
X38165D01*
X33835Y80276D02*
X38165D01*
X51630Y151500D02*
X55370D01*
X53500Y149630D02*
Y153370D01*
X51335Y146776D02*
Y156224D01*
X55665Y146776D02*
Y156224D01*
X51335Y146776D02*
X55665D01*
X51335Y156224D02*
X55665D01*
X45130Y151500D02*
X48870D01*
X47000Y149630D02*
Y153370D01*
X44835Y146776D02*
Y156224D01*
X49165Y146776D02*
Y156224D01*
X44835Y146776D02*
X49165D01*
X44835Y156224D02*
X49165D01*
X38630Y151500D02*
X42370D01*
X40500Y149630D02*
Y153370D01*
X38335Y146776D02*
Y156224D01*
X42665Y146776D02*
Y156224D01*
X38335Y146776D02*
X42665D01*
X38335Y156224D02*
X42665D01*
X57000Y160630D02*
Y164370D01*
X55130Y162500D02*
X58870D01*
X52276Y160335D02*
X61724D01*
X52276Y164665D02*
X61724D01*
Y160335D02*
Y164665D01*
X52276Y160335D02*
Y164665D01*
X44500Y160630D02*
Y164370D01*
X42630Y162500D02*
X46370D01*
X39776Y160335D02*
X49224D01*
X39776Y164665D02*
X49224D01*
Y160335D02*
Y164665D01*
X39776Y160335D02*
Y164665D01*
X68532Y157500D02*
X72469D01*
X70500Y155532D02*
Y159468D01*
X77390Y149823D02*
Y165177D01*
X63610Y149823D02*
Y165177D01*
X77390D01*
X63610Y149823D02*
X77390D01*
X72500Y144130D02*
Y147870D01*
X70630Y146000D02*
X74370D01*
X67776Y143835D02*
X77224D01*
X67776Y148165D02*
X77224D01*
Y143835D02*
Y148165D01*
X67776Y143835D02*
Y148165D01*
X84531Y157500D02*
X88468D01*
X86500Y155532D02*
Y159468D01*
X93390Y149823D02*
Y165177D01*
X79610Y149823D02*
Y165177D01*
X93390D01*
X79610Y149823D02*
X93390D01*
X80532Y170500D02*
X84469D01*
X82500Y168532D02*
Y172468D01*
X75610Y162823D02*
Y178177D01*
X89390Y162823D02*
Y178177D01*
X75610D02*
X89390D01*
X75610Y162823D02*
X89390D01*
X63532Y170500D02*
X67469D01*
X65500Y168532D02*
Y172468D01*
X58610Y162823D02*
Y178177D01*
X72390Y162823D02*
Y178177D01*
X58610D02*
X72390D01*
X58610Y162823D02*
X72390D01*
X44532Y170500D02*
X48469D01*
X46500Y168532D02*
Y172468D01*
X39610Y162823D02*
Y178177D01*
X53390Y162823D02*
Y178177D01*
X39610D02*
X53390D01*
X39610Y162823D02*
X53390D01*
X41630Y146500D02*
X45370D01*
X43500Y144630D02*
Y148370D01*
X41335Y141776D02*
Y151224D01*
X45665Y141776D02*
Y151224D01*
X41335D02*
X45665D01*
X41335Y141776D02*
X45665D01*
X37500Y131630D02*
Y135370D01*
X35630Y133500D02*
X39370D01*
X32776Y135665D02*
X42224D01*
X32776Y131335D02*
X42224D01*
Y135665D01*
X32776Y131335D02*
Y135665D01*
X37500Y124130D02*
Y127870D01*
X35630Y126000D02*
X39370D01*
X32776Y128165D02*
X42224D01*
X32776Y123835D02*
X42224D01*
Y128165D01*
X32776Y123835D02*
Y128165D01*
X40500Y107130D02*
Y110870D01*
X38630Y109000D02*
X42370D01*
X35776Y111165D02*
X45224D01*
X35776Y106835D02*
X45224D01*
Y111165D01*
X35776Y106835D02*
Y111165D01*
X65531Y115500D02*
X69468D01*
X67500Y113531D02*
Y117469D01*
X74390Y107823D02*
Y123177D01*
X60610Y107823D02*
Y123177D01*
Y107823D02*
X74390D01*
X60610Y123177D02*
X74390D01*
X65500Y156130D02*
Y159870D01*
X63630Y158000D02*
X67370D01*
X60776Y155835D02*
X70224D01*
X60776Y160165D02*
X70224D01*
X60776Y155835D02*
Y160165D01*
X70224Y155835D02*
Y160165D01*
X82000Y156130D02*
Y159870D01*
X80130Y158000D02*
X83870D01*
X77276Y155835D02*
X86724D01*
X77276Y160165D02*
X86724D01*
X77276Y155835D02*
Y160165D01*
X86724Y155835D02*
Y160165D01*
X48630Y146500D02*
X52370D01*
X50500Y144630D02*
Y148370D01*
X52665Y141776D02*
Y151224D01*
X48335Y141776D02*
Y151224D01*
Y141776D02*
X52665D01*
X48335Y151224D02*
X52665D01*
X34630Y146500D02*
X38370D01*
X36500Y144630D02*
Y148370D01*
X38665Y141776D02*
Y151224D01*
X34335Y141776D02*
Y151224D01*
Y141776D02*
X38665D01*
X34335Y151224D02*
X38665D01*
X34500Y79130D02*
Y82870D01*
X32630Y81000D02*
X36370D01*
X29776Y78835D02*
X39224D01*
X29776Y83165D02*
X39224D01*
X29776Y78835D02*
Y83165D01*
X39224Y78835D02*
Y83165D01*
X35531Y95000D02*
X39469D01*
X37500Y93032D02*
Y96969D01*
X30610Y87323D02*
Y102677D01*
X44390Y87323D02*
Y102677D01*
X30610D02*
X44390D01*
X30610Y87323D02*
X44390D01*
X49047Y78630D02*
Y82370D01*
X47177Y80500D02*
X50917D01*
X44323Y78335D02*
X53772D01*
X44323Y82665D02*
X53772D01*
X44323Y78335D02*
Y82665D01*
X53772Y78335D02*
Y82665D01*
X32531Y66500D02*
X36468D01*
X34500Y64531D02*
Y68468D01*
X27610Y58823D02*
Y74177D01*
X41390Y58823D02*
Y74177D01*
X27610D02*
X41390D01*
X27610Y58823D02*
X41390D01*
X49031Y66500D02*
X52969D01*
X51000Y64531D02*
Y68468D01*
X44110Y58823D02*
Y74177D01*
X57890Y58823D02*
Y74177D01*
X44110D02*
X57890D01*
X44110Y58823D02*
X57890D01*
X65031Y77000D02*
X68968D01*
X67000Y75032D02*
Y78969D01*
X60110Y69323D02*
Y84677D01*
X73890Y69323D02*
Y84677D01*
X60110D02*
X73890D01*
X60110Y69323D02*
X73890D01*
X86032Y76500D02*
X89969D01*
X88000Y74532D02*
Y78469D01*
X81110Y68823D02*
Y84177D01*
X94890Y68823D02*
Y84177D01*
X81110D02*
X94890D01*
X81110Y68823D02*
X94890D01*
X68000Y90130D02*
Y93870D01*
X66130Y92000D02*
X69870D01*
X63276Y89835D02*
X72724D01*
X63276Y94165D02*
X72724D01*
X63276Y89835D02*
Y94165D01*
X72724Y89835D02*
Y94165D01*
X84000Y90130D02*
Y93870D01*
X82130Y92000D02*
X85870D01*
X79276Y89835D02*
X88724D01*
X79276Y94165D02*
X88724D01*
X79276Y89835D02*
Y94165D01*
X88724Y89835D02*
Y94165D01*
X101000Y90130D02*
Y93870D01*
X99130Y92000D02*
X102870D01*
X96276Y94165D02*
X105724D01*
X96276Y89835D02*
X105724D01*
Y94165D01*
X96276Y89835D02*
Y94165D01*
X102032Y78500D02*
X105968D01*
X104000Y76531D02*
Y80468D01*
X110890Y70823D02*
Y86177D01*
X97110Y70823D02*
Y86177D01*
Y70823D02*
X110890D01*
X97110Y86177D02*
X110890D01*
X104835Y192276D02*
Y201724D01*
Y192276D02*
X109165D01*
X105130Y197000D02*
X108870D01*
X104835Y201724D02*
X109165D01*
Y192276D02*
Y201724D01*
X107000Y195130D02*
Y198870D01*
M02*
