%FSLAX25Y25*%
%MOIN*%
G70*
G01*
G75*
G04 Layer_Color=16711935*
%ADD10R,0.03543X0.02756*%
%ADD11R,0.02362X0.04528*%
%ADD12O,0.02362X0.09055*%
%ADD13R,0.02756X0.03543*%
%ADD14R,0.03150X0.08661*%
%ADD15R,0.22835X0.25197*%
%ADD16C,0.01000*%
%ADD17C,0.07000*%
%ADD18C,0.06500*%
%ADD19C,0.06400*%
%ADD20R,0.08000X0.18500*%
%ADD21R,0.60500X0.07500*%
%ADD22C,0.07874*%
%ADD23C,0.04500*%
%ADD24R,0.03740X0.03543*%
%ADD25R,0.03543X0.03740*%
%ADD26R,0.19000X0.17500*%
%ADD27R,0.09000X0.09500*%
%ADD28C,0.00984*%
%ADD29C,0.02362*%
%ADD30C,0.00787*%
%ADD31C,0.00500*%
%ADD32C,0.00600*%
%ADD33R,0.04343X0.03556*%
%ADD34R,0.03162X0.05328*%
%ADD35O,0.03162X0.09855*%
%ADD36R,0.03556X0.04343*%
%ADD37R,0.03386X0.08898*%
%ADD38R,0.23635X0.25997*%
%ADD39C,0.08674*%
%ADD40C,0.00800*%
%ADD41C,0.05300*%
%ADD42R,0.04540X0.04343*%
%ADD43R,0.04343X0.04540*%
D33*
X49000Y90547D02*
D03*
Y96453D02*
D03*
X29500Y108953D02*
D03*
Y103047D02*
D03*
X43500Y149453D02*
D03*
Y143547D02*
D03*
X50500Y143547D02*
D03*
Y149453D02*
D03*
X36500Y143547D02*
D03*
Y149453D02*
D03*
D34*
X82500Y174929D02*
D03*
X78760Y166071D02*
D03*
X86240D02*
D03*
X65500Y174929D02*
D03*
X61760Y166071D02*
D03*
X69240D02*
D03*
X46500Y174929D02*
D03*
X42760Y166071D02*
D03*
X50240D02*
D03*
X67500Y111071D02*
D03*
X71240Y119929D02*
D03*
X63760D02*
D03*
X37500Y99429D02*
D03*
X33760Y90571D02*
D03*
X41240D02*
D03*
X34500Y70929D02*
D03*
X30760Y62071D02*
D03*
X38240D02*
D03*
X51000Y70929D02*
D03*
X47260Y62071D02*
D03*
X54740D02*
D03*
X67000Y81429D02*
D03*
X63260Y72571D02*
D03*
X70740D02*
D03*
X88000Y80929D02*
D03*
X84260Y72071D02*
D03*
X91740D02*
D03*
X104000Y74071D02*
D03*
X107740Y82929D02*
D03*
X100260D02*
D03*
D36*
X43547Y158000D02*
D03*
X49453D02*
D03*
X40453Y133500D02*
D03*
X34547D02*
D03*
X40453Y126000D02*
D03*
X34547D02*
D03*
X43453Y109000D02*
D03*
X37547D02*
D03*
X62547Y158000D02*
D03*
X68453D02*
D03*
X79047D02*
D03*
X84953D02*
D03*
X31547Y81000D02*
D03*
X37453D02*
D03*
X46095Y80500D02*
D03*
X52000D02*
D03*
X65047Y92000D02*
D03*
X70953D02*
D03*
X81047D02*
D03*
X86953D02*
D03*
X103953Y92000D02*
D03*
X98047D02*
D03*
D39*
X21500Y126000D02*
D03*
X24500Y211000D02*
D03*
X10000Y200500D02*
D03*
X14500Y30000D02*
D03*
X10000Y190500D02*
D03*
X21500Y176000D02*
D03*
X10000Y170500D02*
D03*
Y180500D02*
D03*
Y160000D02*
D03*
X21500Y164500D02*
D03*
X64500Y210500D02*
D03*
X64000Y197000D02*
D03*
X64500Y183000D02*
D03*
X10000Y150000D02*
D03*
Y140000D02*
D03*
Y130000D02*
D03*
Y120000D02*
D03*
Y110000D02*
D03*
X21500Y102500D02*
D03*
X10000Y93000D02*
D03*
X21000Y154000D02*
D03*
Y144000D02*
D03*
X11000Y73500D02*
D03*
Y63500D02*
D03*
X21000Y68000D02*
D03*
Y57500D02*
D03*
Y47500D02*
D03*
X22500Y13000D02*
D03*
X11000Y42000D02*
D03*
Y52500D02*
D03*
X34000Y5000D02*
D03*
X44500D02*
D03*
X54500D02*
D03*
X64500D02*
D03*
X74500D02*
D03*
X84500D02*
D03*
X94500D02*
D03*
X106000Y23000D02*
D03*
X105500Y60500D02*
D03*
X65500Y58500D02*
D03*
X64500Y46000D02*
D03*
X67000Y33500D02*
D03*
X64500Y22500D02*
D03*
X105500Y132000D02*
D03*
X105000Y103000D02*
D03*
X105500Y142000D02*
D03*
Y152000D02*
D03*
Y164000D02*
D03*
X107000Y45500D02*
D03*
X105500Y184500D02*
D03*
X104000Y208000D02*
D03*
D40*
X10000Y10500D02*
D03*
Y214000D02*
D03*
D41*
X79000Y114000D02*
D03*
X73679Y110179D02*
D03*
X86500Y121000D02*
D03*
X100500Y192500D02*
D03*
X114000Y40500D02*
D03*
X61000Y65500D02*
D03*
X105000Y115500D02*
D03*
X37500Y117500D02*
D03*
X56000Y91500D02*
D03*
Y127000D02*
D03*
X26500Y90000D02*
D03*
X22000Y80500D02*
D03*
X51000Y109000D02*
D03*
X71000Y126500D02*
D03*
X80500Y127000D02*
D03*
X91000Y126000D02*
D03*
X30000Y144500D02*
D03*
X58500Y52000D02*
D03*
X76500Y66500D02*
D03*
X33000Y163000D02*
D03*
X25500Y201000D02*
D03*
X101000Y176000D02*
D03*
X58500Y31500D02*
D03*
X76500Y86500D02*
D03*
X103000Y32000D02*
D03*
X47000Y30000D02*
D03*
X58000Y82500D02*
D03*
X88500Y111000D02*
D03*
X96000Y110500D02*
D03*
X46000Y116500D02*
D03*
X79000Y120500D02*
D03*
D42*
X91500Y198000D02*
D03*
Y210402D02*
D03*
X48000Y198000D02*
D03*
Y210402D02*
D03*
X94500Y62500D02*
D03*
Y50098D02*
D03*
X86000Y35000D02*
D03*
Y22598D02*
D03*
X76000Y35000D02*
D03*
Y22598D02*
D03*
X35500Y43500D02*
D03*
Y31098D02*
D03*
X81000Y198000D02*
D03*
Y210402D02*
D03*
D43*
X57000Y38500D02*
D03*
X44598D02*
D03*
M02*
