%FSLAX25Y25*%
%MOIN*%
G70*
G01*
G75*
G04 Layer_Physical_Order=2*
G04 Layer_Color=16711680*
%ADD10R,0.03543X0.02756*%
%ADD11R,0.22835X0.25197*%
%ADD12R,0.03150X0.08661*%
%ADD13R,0.02362X0.04528*%
%ADD14R,0.02756X0.03543*%
%ADD15O,0.02362X0.09055*%
%ADD16C,0.07000*%
%ADD17C,0.01000*%
%ADD18C,0.06400*%
%ADD19C,0.06500*%
%ADD20R,0.60500X0.07500*%
%ADD21R,0.08000X0.18500*%
%ADD22C,0.07874*%
%ADD23C,0.04500*%
%ADD24R,0.03740X0.03543*%
%ADD25R,0.03543X0.03740*%
%ADD26C,0.01969*%
%ADD27R,0.09000X0.09500*%
G36*
X77355Y110892D02*
X77471Y110614D01*
Y110000D01*
X77471Y110000D01*
X77471D01*
X77587Y109415D01*
X77919Y108919D01*
X85423Y101414D01*
Y94772D01*
X84575D01*
Y89228D01*
X85423D01*
Y87547D01*
X85423Y87547D01*
X85423D01*
X85540Y86962D01*
X85871Y86466D01*
X87682Y84655D01*
X87491Y84193D01*
X85819D01*
Y78188D01*
X85341Y77869D01*
X78909Y84301D01*
X79339Y84861D01*
X79666Y85652D01*
X79712Y86000D01*
X73288D01*
X73334Y85652D01*
X73661Y84861D01*
X74182Y84182D01*
X74861Y83661D01*
X75479Y83405D01*
X82731Y76154D01*
Y75335D01*
X82079D01*
Y72571D01*
X84260D01*
Y71571D01*
X82079D01*
Y71502D01*
X81617Y71311D01*
X81346Y71581D01*
X80850Y71913D01*
X80265Y72029D01*
X74843D01*
X74355Y71932D01*
X74258Y71913D01*
X73762Y71581D01*
X73383Y71203D01*
X72921Y71394D01*
Y75835D01*
X72482D01*
Y89228D01*
X73331D01*
Y94772D01*
X72482D01*
Y106162D01*
X73274Y106954D01*
X73679Y106901D01*
X74527Y107013D01*
X75318Y107340D01*
X75997Y107861D01*
X76518Y108540D01*
X76845Y109330D01*
X76957Y110179D01*
X76853Y110969D01*
X77038Y111075D01*
X77355Y110892D01*
D02*
G37*
G36*
X26728Y100940D02*
Y100669D01*
X31353D01*
X31545Y100207D01*
X25419Y94081D01*
X25087Y93585D01*
X24971Y93000D01*
Y92884D01*
X24861Y92839D01*
X24182Y92318D01*
X23661Y91639D01*
X23334Y90848D01*
X23288Y90500D01*
X26500D01*
Y89500D01*
X23288D01*
X23334Y89152D01*
X23661Y88361D01*
X24182Y87682D01*
X24861Y87161D01*
X25652Y86834D01*
X26130Y86771D01*
X26244Y86436D01*
X25953Y86029D01*
X20977D01*
X17592Y89414D01*
Y98710D01*
X18041Y98931D01*
X19010Y98188D01*
X20211Y97690D01*
X21500Y97520D01*
X22789Y97690D01*
X23990Y98188D01*
X25021Y98979D01*
X25813Y100010D01*
X26238Y101037D01*
X26728Y100940D01*
D02*
G37*
G36*
X38000Y96165D02*
X39681D01*
D01*
X39681D01*
X39711Y96136D01*
Y93835D01*
X39059D01*
Y90002D01*
X38597Y89811D01*
X36755Y91652D01*
X36259Y91984D01*
X36178Y92000D01*
X35941Y92047D01*
Y93835D01*
X31579D01*
Y91585D01*
X30203Y90209D01*
X29729Y90370D01*
X29666Y90848D01*
X29339Y91639D01*
X28818Y92318D01*
X28645Y92450D01*
X28612Y92949D01*
X33563Y97900D01*
X35319D01*
Y96165D01*
X37000D01*
Y99429D01*
X38000D01*
Y96165D01*
D02*
G37*
G36*
X67879Y127458D02*
X67834Y127348D01*
X67722Y126500D01*
X67834Y125652D01*
X68161Y124861D01*
X68682Y124182D01*
X69354Y123666D01*
X69313Y123546D01*
X69167Y123193D01*
X69059D01*
Y116665D01*
X73421D01*
Y118471D01*
X76461D01*
X76682Y118182D01*
X77361Y117661D01*
X77750Y117500D01*
Y117000D01*
X77361Y116839D01*
X76682Y116318D01*
X76161Y115639D01*
X75834Y114848D01*
X75722Y114000D01*
X75826Y113210D01*
X75446Y112991D01*
X75385Y112966D01*
X75318Y113018D01*
X74527Y113345D01*
X73679Y113457D01*
X72830Y113345D01*
X72040Y113018D01*
X71361Y112497D01*
X70840Y111818D01*
X70513Y111027D01*
X70401Y110179D01*
X70513Y109330D01*
X70750Y108756D01*
X70143Y108149D01*
X69681Y108340D01*
Y114335D01*
X65319D01*
Y112529D01*
X60633D01*
X55581Y117581D01*
X55085Y117913D01*
X54500Y118029D01*
X48884D01*
X48839Y118139D01*
X48318Y118818D01*
X47639Y119339D01*
X46848Y119666D01*
X46000Y119778D01*
X45152Y119666D01*
X44361Y119339D01*
X43682Y118818D01*
X43161Y118139D01*
X42834Y117348D01*
X42722Y116500D01*
X42834Y115652D01*
X43161Y114861D01*
X43682Y114182D01*
X44361Y113661D01*
X45152Y113334D01*
X46000Y113222D01*
X46848Y113334D01*
X47639Y113661D01*
X48318Y114182D01*
X48839Y114861D01*
X48884Y114971D01*
X53866D01*
X58919Y109919D01*
X59415Y109587D01*
X59512Y109568D01*
X60000Y109471D01*
X65319D01*
Y107807D01*
X68902D01*
X69540Y107381D01*
X69423Y106796D01*
Y94772D01*
X68575D01*
Y89228D01*
X69423D01*
Y84693D01*
X69181D01*
Y84693D01*
X68053D01*
X66826Y84937D01*
X66549Y85352D01*
X66577Y85494D01*
Y89228D01*
X67425D01*
Y91500D01*
X62669D01*
Y89332D01*
X61116Y87779D01*
X56461D01*
X56428Y88278D01*
X56848Y88334D01*
X57639Y88661D01*
X58318Y89182D01*
X58839Y89861D01*
X59166Y90652D01*
X59278Y91500D01*
X59166Y92348D01*
X58839Y93139D01*
X58318Y93818D01*
X57639Y94339D01*
X56848Y94666D01*
X56000Y94778D01*
X55152Y94666D01*
X54361Y94339D01*
X53682Y93818D01*
X53161Y93139D01*
X52834Y92348D01*
X52722Y91500D01*
X52834Y90652D01*
X52879Y90542D01*
X52234Y89897D01*
X51772Y90088D01*
Y92925D01*
X46228D01*
Y91220D01*
X43883Y88875D01*
X43421Y89066D01*
Y93835D01*
X42770D01*
Y102260D01*
X42672Y102748D01*
X42653Y102845D01*
X42322Y103341D01*
X39781Y105881D01*
X39925Y106228D01*
X39925D01*
X39925Y106228D01*
Y111772D01*
X35169D01*
Y110482D01*
X33298D01*
X33107Y110944D01*
X36542Y114379D01*
X36652Y114334D01*
X37500Y114222D01*
X38348Y114334D01*
X39139Y114661D01*
X39818Y115182D01*
X40339Y115861D01*
X40666Y116652D01*
X40778Y117500D01*
X40666Y118348D01*
X40339Y119139D01*
X39818Y119818D01*
X39139Y120339D01*
X38348Y120666D01*
X37500Y120778D01*
X36652Y120666D01*
X36492Y120600D01*
X36077Y120878D01*
Y123228D01*
X36925D01*
Y127515D01*
X37387Y127707D01*
X38075Y127019D01*
Y123228D01*
X42831D01*
Y128772D01*
X40648D01*
X39153Y130266D01*
X39344Y130728D01*
X42109D01*
X51919Y120919D01*
X51919D01*
X51919Y120919D01*
X51919Y120919D01*
Y120919D01*
X52415Y120587D01*
X53000Y120471D01*
X61055D01*
X61579Y119947D01*
Y116665D01*
X65941D01*
Y123193D01*
X62604D01*
X62393Y123334D01*
X62274Y123413D01*
X61689Y123529D01*
X57395D01*
X57298Y124020D01*
X57639Y124161D01*
X58318Y124682D01*
X58839Y125361D01*
X59166Y126152D01*
X59278Y127000D01*
X59166Y127848D01*
X58839Y128639D01*
X58318Y129318D01*
X57639Y129839D01*
X57529Y129884D01*
Y137154D01*
X57991Y137346D01*
X67879Y127458D01*
D02*
G37*
G36*
X73725Y164989D02*
D01*
X73725D01*
Y164989D01*
D01*
X73725D01*
Y164989D01*
X73725D01*
X73725Y164989D01*
Y164989D01*
X73725Y164989D01*
Y164989D01*
X74221Y164658D01*
X74806Y164541D01*
X76579D01*
Y162807D01*
X77231D01*
Y160772D01*
X76669D01*
Y158500D01*
X81425D01*
Y160772D01*
X80289D01*
Y162807D01*
X80941D01*
Y164595D01*
X81259Y164658D01*
X81755Y164989D01*
X83597Y166831D01*
X84059Y166640D01*
Y162807D01*
X84711D01*
Y160772D01*
X82575D01*
Y155228D01*
X83423D01*
Y149547D01*
X83423Y149547D01*
X83423D01*
X83540Y148962D01*
X83871Y148466D01*
X89471Y142867D01*
Y128884D01*
X89361Y128839D01*
X88682Y128318D01*
X88503Y128084D01*
X88029Y128245D01*
Y139953D01*
X87913Y140538D01*
X87581Y141034D01*
X70831Y157785D01*
Y160772D01*
X70770D01*
Y162807D01*
X71421D01*
Y166640D01*
X71883Y166831D01*
X73725Y164989D01*
D02*
G37*
G36*
X101204Y154511D02*
X101188Y154490D01*
X100690Y153289D01*
X100586Y152500D01*
X105500D01*
Y151500D01*
X100586D01*
X100690Y150711D01*
X101188Y149510D01*
X101979Y148479D01*
X103010Y147687D01*
X104067Y147250D01*
Y146750D01*
X103010Y146312D01*
X101979Y145521D01*
X101188Y144490D01*
X100690Y143289D01*
X100520Y142000D01*
X100690Y140711D01*
X101188Y139510D01*
X101979Y138479D01*
X103010Y137688D01*
X104067Y137250D01*
Y136750D01*
X103010Y136312D01*
X101979Y135521D01*
X101188Y134490D01*
X100690Y133289D01*
X100520Y132000D01*
X100690Y130711D01*
X101188Y129510D01*
X101691Y128854D01*
X94919Y122081D01*
X94587Y121585D01*
X94471Y121000D01*
Y113384D01*
X94361Y113339D01*
X93682Y112818D01*
X93161Y112139D01*
X92834Y111348D01*
X92722Y110500D01*
X92834Y109652D01*
X93161Y108861D01*
X93682Y108182D01*
X94361Y107661D01*
X94908Y107435D01*
X94919Y107419D01*
X95415Y107087D01*
X96000Y106971D01*
X96585Y107087D01*
X97081Y107419D01*
X97092Y107435D01*
X97639Y107661D01*
X98318Y108182D01*
X98839Y108861D01*
X99166Y109652D01*
X99278Y110500D01*
X99166Y111348D01*
X98839Y112139D01*
X98318Y112818D01*
X97639Y113339D01*
X97529Y113384D01*
Y120367D01*
X104337Y127174D01*
X105500Y127020D01*
X106789Y127190D01*
X107990Y127688D01*
X108959Y128431D01*
X109408Y128210D01*
Y127727D01*
X99919Y118238D01*
X99587Y117742D01*
X99471Y117157D01*
Y113843D01*
X99471Y113843D01*
X99471D01*
X99587Y113258D01*
X99919Y112762D01*
X102262Y110419D01*
X102758Y110087D01*
X102855Y110068D01*
X103343Y109971D01*
X103556D01*
X105083Y108443D01*
X104923Y107969D01*
X103711Y107810D01*
X102510Y107313D01*
X101479Y106521D01*
X100688Y105490D01*
X100190Y104289D01*
X100020Y103000D01*
X100190Y101711D01*
X100688Y100510D01*
X101479Y99479D01*
X102510Y98687D01*
X102587Y98656D01*
X102684Y98165D01*
X100039Y95520D01*
X99742Y95643D01*
X99577Y95753D01*
Y99453D01*
X99460Y100038D01*
X99129Y100534D01*
X90889Y108774D01*
X91339Y109361D01*
X91666Y110152D01*
X91778Y111000D01*
X91666Y111848D01*
X91339Y112639D01*
X90818Y113318D01*
X90139Y113839D01*
X89348Y114166D01*
X88500Y114278D01*
X87652Y114166D01*
X86861Y113839D01*
X86182Y113318D01*
X85661Y112639D01*
X85334Y111848D01*
X85222Y111000D01*
X85334Y110152D01*
X85661Y109361D01*
X86182Y108682D01*
X86861Y108161D01*
X87408Y107935D01*
X87419Y107919D01*
X96518Y98819D01*
Y94772D01*
X95669D01*
Y89228D01*
X96471D01*
Y88500D01*
X96471Y88500D01*
X96471D01*
X96587Y87915D01*
X96919Y87419D01*
X98098Y86239D01*
X98079Y86193D01*
X98079D01*
X98079Y86193D01*
Y79665D01*
X102441D01*
D01*
X102441D01*
X102471Y79636D01*
Y77335D01*
X101819D01*
Y71982D01*
X95109Y65272D01*
X91630D01*
Y60758D01*
X83405D01*
X79323Y64840D01*
X79339Y64861D01*
X79666Y65652D01*
X79778Y66500D01*
X79666Y67348D01*
X79339Y68139D01*
X79045Y68522D01*
X79197Y68830D01*
X79690Y68912D01*
X81376Y67226D01*
X81376Y67226D01*
X81376D01*
X81376Y67226D01*
X81376D01*
X81376Y67226D01*
Y67226D01*
Y67226D01*
D01*
D01*
X81376D01*
Y67226D01*
X81872Y66894D01*
X82457Y66778D01*
X86062D01*
X86647Y66894D01*
X87144Y67226D01*
X89081Y69163D01*
X89559Y68844D01*
Y68807D01*
X93921D01*
Y75335D01*
X93270D01*
Y82760D01*
X93153Y83345D01*
X92822Y83841D01*
X88482Y88181D01*
Y89228D01*
X89331D01*
Y94772D01*
X88482D01*
Y102047D01*
X88366Y102632D01*
X88034Y103129D01*
X80529Y110634D01*
Y111116D01*
X80639Y111161D01*
X81318Y111682D01*
X81839Y112361D01*
X82166Y113152D01*
X82278Y114000D01*
X82166Y114848D01*
X81839Y115639D01*
X81318Y116318D01*
X80639Y116839D01*
X80250Y117000D01*
Y117500D01*
X80639Y117661D01*
X81318Y118182D01*
X81839Y118861D01*
X82166Y119652D01*
X82278Y120500D01*
X82166Y121348D01*
X81839Y122139D01*
X81318Y122818D01*
X80711Y123284D01*
X80840Y123767D01*
X81348Y123834D01*
X82139Y124161D01*
X82818Y124682D01*
X83339Y125361D01*
X83666Y126152D01*
X83778Y127000D01*
X83666Y127848D01*
X83339Y128639D01*
X82818Y129318D01*
X82529Y129539D01*
Y140000D01*
X82413Y140585D01*
X82081Y141081D01*
X69081Y154081D01*
X68585Y154413D01*
X68000Y154529D01*
X61748D01*
X61471Y154945D01*
X61588Y155228D01*
X62047D01*
Y157500D01*
X60169D01*
Y156647D01*
X59707Y156456D01*
X57081Y159081D01*
X56585Y159413D01*
X56000Y159529D01*
X51831D01*
Y160772D01*
X51770D01*
Y162807D01*
X52421D01*
Y166640D01*
X52883Y166831D01*
X54725Y164989D01*
Y164989D01*
D01*
Y164989D01*
D01*
X54725D01*
Y164989D01*
D01*
D01*
X54725D01*
X54725Y164989D01*
Y164989D01*
X54725Y164989D01*
Y164989D01*
X55221Y164658D01*
X55806Y164541D01*
X59579D01*
Y162807D01*
X60230D01*
Y160772D01*
X60169D01*
Y158500D01*
X64925D01*
Y160772D01*
X63289D01*
Y162807D01*
X63941D01*
Y164595D01*
X64259Y164658D01*
X64755Y164989D01*
X66597Y166831D01*
X67059Y166640D01*
Y162807D01*
X67711D01*
Y160772D01*
X66075D01*
Y155228D01*
X69061D01*
X84971Y139319D01*
Y123884D01*
X84861Y123839D01*
X84182Y123318D01*
X83661Y122639D01*
X83334Y121848D01*
X83222Y121000D01*
X83334Y120152D01*
X83661Y119361D01*
X84182Y118682D01*
X84861Y118161D01*
X85652Y117834D01*
X86500Y117722D01*
X87348Y117834D01*
X88139Y118161D01*
X88818Y118682D01*
X89339Y119361D01*
X89666Y120152D01*
X89778Y121000D01*
X89666Y121848D01*
X89339Y122639D01*
X89329Y122652D01*
X89634Y123048D01*
X90152Y122834D01*
X91000Y122722D01*
X91848Y122834D01*
X92639Y123161D01*
X93318Y123682D01*
X93839Y124361D01*
X94166Y125152D01*
X94278Y126000D01*
X94166Y126848D01*
X93839Y127639D01*
X93318Y128318D01*
X92639Y128839D01*
X92529Y128884D01*
Y143500D01*
X92413Y144085D01*
X92081Y144581D01*
X86482Y150181D01*
Y155228D01*
X87331D01*
Y158220D01*
X87653Y158702D01*
X87770Y159287D01*
Y162807D01*
X88421D01*
Y166640D01*
X88883Y166831D01*
X101204Y154511D01*
D02*
G37*
G36*
X59919Y151919D02*
X59919D01*
X59919Y151919D01*
X59919Y151918D01*
Y151919D01*
X60415Y151587D01*
X61000Y151471D01*
X67366D01*
X79471Y139366D01*
Y130091D01*
X78861Y129839D01*
X78182Y129318D01*
X77661Y128639D01*
X77334Y127848D01*
X77222Y127000D01*
X77334Y126152D01*
X77661Y125361D01*
X78182Y124682D01*
X78789Y124216D01*
X78660Y123733D01*
X78152Y123666D01*
X77361Y123339D01*
X76682Y122818D01*
X76161Y122139D01*
X75909Y121529D01*
X73421D01*
Y123193D01*
X72769D01*
Y123761D01*
X73318Y124182D01*
X73839Y124861D01*
X74166Y125652D01*
X74278Y126500D01*
X74166Y127348D01*
X73839Y128139D01*
X73318Y128818D01*
X72639Y129339D01*
X71848Y129666D01*
X71000Y129778D01*
X70152Y129666D01*
X70042Y129621D01*
X55301Y144362D01*
Y145546D01*
X55185Y146132D01*
X54853Y146628D01*
X53974Y147507D01*
X53478Y147838D01*
X53272Y147879D01*
Y148953D01*
X50500D01*
Y149453D01*
X50000D01*
Y152116D01*
X47534Y154581D01*
X47282Y154750D01*
X47427Y155228D01*
X51831D01*
Y156471D01*
X55366D01*
X59919Y151919D01*
D02*
G37*
G36*
X61471Y81105D02*
Y75835D01*
X61079D01*
Y73071D01*
X63260D01*
Y72071D01*
X61079D01*
Y69307D01*
X61111D01*
X61287Y68839D01*
X61189Y68753D01*
X61000Y68778D01*
X60152Y68666D01*
X59361Y68339D01*
X58682Y67818D01*
X58161Y67139D01*
X57834Y66348D01*
X57788Y66000D01*
X61000D01*
Y65500D01*
X61500D01*
Y62119D01*
X61517Y62116D01*
X61692Y61647D01*
X61187Y60990D01*
X60690Y59789D01*
X60520Y58500D01*
X60605Y57855D01*
X60240Y57513D01*
X60157Y57529D01*
X55878D01*
X55063Y58345D01*
X55254Y58807D01*
X56921D01*
Y65335D01*
X56482D01*
Y78819D01*
X57042Y79379D01*
X57152Y79334D01*
X58000Y79222D01*
X58848Y79334D01*
X59639Y79661D01*
X60318Y80182D01*
X60839Y80861D01*
X60980Y81202D01*
X61471Y81105D01*
D02*
G37*
G36*
X43716Y83272D02*
X43716Y83272D01*
X43716Y83272D01*
Y81000D01*
X46095D01*
Y80000D01*
X43716D01*
Y77728D01*
X45731D01*
Y65335D01*
X45079D01*
Y62571D01*
X47260D01*
Y62071D01*
X47760D01*
Y58807D01*
X49441D01*
Y58844D01*
X49919Y59163D01*
X54163Y54919D01*
X54163D01*
X54163Y54919D01*
X54163D01*
X54163Y54918D01*
Y54919D01*
X54163Y54918D01*
Y54919D01*
X54660Y54587D01*
X55245Y54471D01*
X55734D01*
X55955Y54022D01*
X55661Y53639D01*
X55334Y52848D01*
X55280Y52443D01*
X48919Y46081D01*
X48587Y45585D01*
X48471Y45000D01*
Y33359D01*
X48055Y33081D01*
X47848Y33166D01*
X47000Y33278D01*
X46152Y33166D01*
X45361Y32839D01*
X44682Y32318D01*
X44503Y32084D01*
X44029Y32245D01*
Y35630D01*
X47370D01*
Y41370D01*
X41827D01*
Y37891D01*
X41419Y37483D01*
X41087Y36987D01*
X40971Y36402D01*
Y28444D01*
X40509Y28253D01*
X38370Y30391D01*
Y33870D01*
X32630D01*
Y28520D01*
X28739D01*
X28593Y28539D01*
X24880D01*
X20209Y33209D01*
X19917Y33434D01*
X20077Y33908D01*
X28937D01*
X29522Y34024D01*
X30018Y34356D01*
X35581Y39919D01*
X35913Y40415D01*
X35975Y40728D01*
X38370D01*
Y46272D01*
X36029D01*
Y58807D01*
X36059D01*
Y58807D01*
X40421D01*
Y65335D01*
X39770D01*
Y75260D01*
X39653Y75845D01*
X39322Y76341D01*
X38982Y76681D01*
Y78228D01*
X39831D01*
Y81215D01*
X41893Y83278D01*
X43716D01*
Y83272D01*
D02*
G37*
G36*
X118000Y2000D02*
X102000D01*
Y7000D01*
X95500Y13000D01*
X102000Y10500D01*
X118000Y22500D01*
Y2000D01*
D02*
G37*
G36*
X36500Y24500D02*
X52000D01*
X60500Y16500D01*
Y10000D01*
X33000D01*
X21500Y21500D01*
X24500Y25000D01*
X27000Y27500D01*
X33500D01*
X36500Y24500D01*
D02*
G37*
G36*
X25000Y70000D02*
Y46500D01*
X21000D01*
X13000Y39000D01*
X7000Y42500D01*
X7500Y75000D01*
X13000Y76000D01*
X16000Y79000D01*
X25000Y70000D01*
D02*
G37*
G36*
X22500Y77288D02*
X22848Y77334D01*
X23639Y77661D01*
X24318Y78182D01*
X24839Y78861D01*
X25091Y79471D01*
X29169D01*
Y78228D01*
X30018D01*
Y65335D01*
X28579D01*
Y62571D01*
X30760D01*
Y62071D01*
X31260D01*
Y58807D01*
X32941D01*
D01*
X32941D01*
X32971Y58777D01*
Y46272D01*
X32630D01*
Y41293D01*
X28304Y36966D01*
X13030D01*
X12933Y37457D01*
X13490Y37688D01*
X14521Y38479D01*
X15313Y39510D01*
X15489Y39935D01*
X16428Y40816D01*
X16581Y40919D01*
X17245Y41582D01*
X18820Y43059D01*
X19711Y42690D01*
X21000Y42520D01*
X22289Y42690D01*
X23490Y43187D01*
X24521Y43979D01*
X25313Y45010D01*
X25596Y45696D01*
X25721Y45779D01*
X25942Y46110D01*
X26020Y46500D01*
Y70000D01*
X25942Y70390D01*
X25721Y70721D01*
X18302Y78140D01*
Y78640D01*
X18656Y78993D01*
X19147Y78896D01*
X19161Y78861D01*
X19682Y78182D01*
X20361Y77661D01*
X21152Y77334D01*
X21500Y77288D01*
Y80500D01*
X22500D01*
Y77288D01*
D02*
G37*
G36*
X38356Y85726D02*
Y85726D01*
D01*
Y85726D01*
D01*
X38356D01*
Y85726D01*
D01*
D01*
X38356D01*
X38356Y85726D01*
Y85726D01*
X38356Y85726D01*
Y85726D01*
X38853Y85394D01*
X39026Y85360D01*
X39171Y84881D01*
X38061Y83772D01*
X35075D01*
Y78228D01*
X35923D01*
Y76047D01*
X36040Y75462D01*
X36371Y74966D01*
X36682Y74655D01*
X36491Y74193D01*
X33077D01*
Y78228D01*
X33925D01*
Y80500D01*
X31547D01*
Y81000D01*
X31047D01*
Y83772D01*
X29169D01*
Y82529D01*
X26989D01*
X26940Y83027D01*
X27242Y83087D01*
X27738Y83419D01*
X31627Y87307D01*
X35941D01*
Y87488D01*
X36403Y87679D01*
X38356Y85726D01*
D02*
G37*
G36*
X112471Y105646D02*
Y45593D01*
X111972Y45560D01*
X111810Y46789D01*
X111312Y47990D01*
X110521Y49021D01*
X109490Y49812D01*
X108289Y50310D01*
X107000Y50480D01*
X105711Y50310D01*
X104510Y49812D01*
X103479Y49021D01*
X103029Y49174D01*
Y53500D01*
X102913Y54085D01*
X102581Y54581D01*
X102085Y54913D01*
X101667Y54996D01*
X97242Y59420D01*
X97370Y59728D01*
X97370D01*
X97370Y59728D01*
Y63207D01*
X104970Y70807D01*
X106181D01*
D01*
X106181D01*
X106211Y70777D01*
Y65765D01*
X106000Y65580D01*
Y61000D01*
X110414D01*
X110310Y61789D01*
X109812Y62990D01*
X109269Y63697D01*
Y79665D01*
X109921D01*
Y82429D01*
X107740D01*
Y83429D01*
X109921D01*
Y86193D01*
X109029D01*
Y90500D01*
Y94240D01*
X111519Y96729D01*
X111850Y97226D01*
X111966Y97811D01*
Y105252D01*
X111857Y105804D01*
X112042Y105903D01*
X112471Y105646D01*
D02*
G37*
G36*
X32419Y203919D02*
X32419D01*
X32419Y203919D01*
X32419Y203919D01*
Y203919D01*
X32915Y203587D01*
X33500Y203471D01*
X40559D01*
X45130Y198899D01*
Y197150D01*
X45087Y197085D01*
X44971Y196500D01*
Y178193D01*
X44319D01*
Y171665D01*
X47616D01*
X47762Y171187D01*
X47356Y170916D01*
X45403Y168963D01*
X44941Y169154D01*
Y169335D01*
X43260D01*
Y166071D01*
X42260D01*
Y169335D01*
X40579D01*
Y167085D01*
X36703Y163209D01*
X36229Y163370D01*
X36166Y163848D01*
X35839Y164639D01*
X35318Y165318D01*
X34639Y165839D01*
X33848Y166166D01*
X33000Y166278D01*
X32152Y166166D01*
X32042Y166121D01*
X29529Y168633D01*
Y198500D01*
X29432Y198988D01*
X29413Y199085D01*
X29081Y199581D01*
X28621Y200042D01*
X28666Y200152D01*
X28778Y201000D01*
X28666Y201848D01*
X28339Y202639D01*
X27818Y203318D01*
X27139Y203839D01*
X26348Y204166D01*
X25500Y204278D01*
X24652Y204166D01*
X23861Y203839D01*
X23424Y203504D01*
X22976Y203725D01*
Y203995D01*
X22821Y205170D01*
X22480Y205993D01*
X22834Y206346D01*
X23211Y206190D01*
X24500Y206020D01*
X25789Y206190D01*
X26990Y206687D01*
X28021Y207479D01*
X28154Y207652D01*
X28653Y207684D01*
X32419Y203919D01*
D02*
G37*
G36*
X6479Y204021D02*
X5688Y202990D01*
X5190Y201789D01*
X5086Y201000D01*
X13500D01*
Y191000D01*
X14914D01*
X14810Y191789D01*
X14520Y192490D01*
Y195061D01*
X14993Y195222D01*
X15228Y194916D01*
X16961Y193183D01*
Y177943D01*
X16690Y177289D01*
X16520Y176000D01*
X16690Y174711D01*
X17188Y173510D01*
X17979Y172479D01*
X19010Y171687D01*
X20211Y171190D01*
X21500Y171020D01*
X22789Y171190D01*
X23990Y171687D01*
X25021Y172479D01*
X25813Y173510D01*
X25980Y173915D01*
X26471Y173818D01*
Y168000D01*
X26587Y167415D01*
X26919Y166919D01*
X29879Y163958D01*
X29834Y163848D01*
X29771Y163370D01*
X29297Y163209D01*
X26925Y165581D01*
X26428Y165913D01*
X26243Y165950D01*
X25813Y166990D01*
X25021Y168021D01*
X23990Y168813D01*
X22789Y169310D01*
X22000Y169414D01*
Y164500D01*
Y159586D01*
X22789Y159690D01*
X23990Y160187D01*
X25021Y160979D01*
X25737Y161912D01*
X26236Y161944D01*
X30262Y157919D01*
X30758Y157587D01*
X30855Y157568D01*
X31343Y157471D01*
X34657D01*
X35242Y157587D01*
X35738Y157919D01*
X40627Y162807D01*
X41230D01*
Y160772D01*
X41169D01*
Y158500D01*
X43547D01*
Y157500D01*
X41169D01*
Y155228D01*
X41971D01*
Y153500D01*
X42087Y152915D01*
X42419Y152419D01*
X42582Y152309D01*
X42437Y151831D01*
X40728D01*
Y150982D01*
X39272D01*
Y151831D01*
X36285D01*
X33034Y155081D01*
X32538Y155413D01*
X31953Y155529D01*
X25710D01*
X25313Y156490D01*
X24521Y157521D01*
X23490Y158312D01*
X22289Y158810D01*
X21000Y158980D01*
X20772Y158949D01*
X20672Y159193D01*
X20978Y159589D01*
X21000Y159586D01*
Y161000D01*
X15000Y156500D01*
X9500D01*
X6500Y159500D01*
X5086D01*
X5190Y158711D01*
X5688Y157510D01*
X6479Y156479D01*
X7510Y155687D01*
X8567Y155250D01*
Y154750D01*
X7510Y154313D01*
X6479Y153521D01*
X5688Y152490D01*
X5190Y151289D01*
X5020Y150000D01*
X5190Y148711D01*
X5688Y147510D01*
X6479Y146479D01*
X7510Y145687D01*
X8567Y145250D01*
Y144750D01*
X7510Y144313D01*
X6479Y143521D01*
X5688Y142490D01*
X5190Y141289D01*
X5020Y140000D01*
X5190Y138711D01*
X5688Y137510D01*
X6479Y136479D01*
X7510Y135687D01*
X8567Y135250D01*
Y134750D01*
X7510Y134312D01*
X6479Y133521D01*
X5688Y132490D01*
X5190Y131289D01*
X5020Y130000D01*
X5190Y128711D01*
X5688Y127510D01*
X6479Y126479D01*
X7510Y125688D01*
X8567Y125250D01*
Y124750D01*
X7510Y124312D01*
X6479Y123521D01*
X5688Y122490D01*
X5190Y121289D01*
X5020Y120000D01*
X5190Y118711D01*
X5688Y117510D01*
X6479Y116479D01*
X7510Y115688D01*
X8567Y115250D01*
Y114750D01*
X7510Y114313D01*
X6479Y113521D01*
X5688Y112490D01*
X5190Y111289D01*
X5020Y110000D01*
X5190Y108711D01*
X5688Y107510D01*
X6479Y106479D01*
X7510Y105687D01*
X8711Y105190D01*
X10000Y105020D01*
X11289Y105190D01*
X12490Y105687D01*
X13521Y106479D01*
X14312Y107510D01*
X14810Y108711D01*
X14980Y110000D01*
X14810Y111289D01*
X14312Y112490D01*
X13521Y113521D01*
X13512Y113660D01*
X16519Y116666D01*
X16850Y117163D01*
X16966Y117748D01*
Y123021D01*
X17440Y123181D01*
X17979Y122479D01*
X19010Y121687D01*
X20211Y121190D01*
X21500Y121020D01*
X22789Y121190D01*
X23990Y121687D01*
X25021Y122479D01*
X25813Y123510D01*
X26310Y124711D01*
X26480Y126000D01*
X26310Y127289D01*
X25813Y128490D01*
X25021Y129521D01*
X23990Y130313D01*
X22789Y130810D01*
X21577Y130969D01*
X21417Y131443D01*
X31081Y141108D01*
X31379Y141554D01*
X31639Y141661D01*
X32318Y142182D01*
X32839Y142861D01*
X33166Y143652D01*
X33229Y144130D01*
X33230Y144131D01*
X33728Y144098D01*
Y141169D01*
X35896D01*
Y136272D01*
X32169D01*
Y130728D01*
X33018D01*
Y128772D01*
X32169D01*
Y123228D01*
X33018D01*
Y120838D01*
X32419Y120238D01*
X32087Y119742D01*
X31971Y119157D01*
Y116962D01*
X31038Y116029D01*
X25811D01*
X25226Y115913D01*
X24730Y115581D01*
X14981Y105833D01*
X14650Y105337D01*
X14534Y104752D01*
Y95979D01*
X14060Y95819D01*
X13521Y96521D01*
X12490Y97312D01*
X11289Y97810D01*
X10000Y97980D01*
X8711Y97810D01*
X7510Y97312D01*
X6479Y96521D01*
X5688Y95490D01*
X5190Y94289D01*
X5020Y93000D01*
X5190Y91711D01*
X5688Y90510D01*
X6479Y89479D01*
X7510Y88687D01*
X8711Y88190D01*
X10000Y88020D01*
X11289Y88190D01*
X12490Y88687D01*
X13521Y89479D01*
X14060Y90181D01*
X14534Y90021D01*
Y88780D01*
X14650Y88195D01*
X14981Y87699D01*
X18180Y84500D01*
X16919Y83238D01*
X16587Y82742D01*
X16471Y82157D01*
Y81134D01*
X13249Y77912D01*
X12289Y78310D01*
X11000Y78480D01*
X9711Y78310D01*
X8510Y77812D01*
X7479Y77021D01*
X6688Y75990D01*
X6190Y74789D01*
X6020Y73500D01*
X6190Y72211D01*
X6429Y71636D01*
X6328Y65123D01*
X6190Y64789D01*
X6020Y63500D01*
X6190Y62211D01*
X6280Y61994D01*
X6149Y53478D01*
X6020Y52500D01*
X6122Y51726D01*
X5980Y42516D01*
X6005Y42379D01*
X6014Y42241D01*
X6041Y42185D01*
X6043Y42173D01*
X6020Y42000D01*
X6190Y40711D01*
X6688Y39510D01*
X7479Y38479D01*
X8510Y37688D01*
X9711Y37190D01*
X11000Y37020D01*
X11051Y37027D01*
X11227Y36559D01*
X11167Y36518D01*
X7982Y33334D01*
X7650Y32837D01*
X7534Y32252D01*
Y25437D01*
X7534Y25437D01*
X7534D01*
X7650Y24852D01*
X7982Y24356D01*
X17795Y14542D01*
X17690Y14289D01*
X17520Y13000D01*
X17690Y11711D01*
X18188Y10510D01*
X18979Y9479D01*
X20010Y8687D01*
X21211Y8190D01*
X22500Y8020D01*
X23789Y8190D01*
X24990Y8687D01*
X26021Y9479D01*
X26812Y10510D01*
X27310Y11711D01*
X27480Y13000D01*
X27418Y13471D01*
X27866Y13692D01*
X31712Y9846D01*
X31615Y9356D01*
X31510Y9313D01*
X30479Y8521D01*
X29688Y7490D01*
X29190Y6289D01*
X29020Y5000D01*
X29190Y3711D01*
X29688Y2510D01*
X30479Y1479D01*
X31137Y974D01*
X30977Y500D01*
X2000D01*
X0Y2487D01*
X458Y204446D01*
X500Y204480D01*
X6323D01*
X6479Y204021D01*
D02*
G37*
G36*
X118000Y180500D02*
X105500D01*
X118000Y193000D01*
Y180500D01*
D02*
G37*
G36*
X21882Y222943D02*
X22207Y222726D01*
X22423Y222402D01*
X22499Y222020D01*
X22491Y215512D01*
X22010Y215313D01*
X20979Y214521D01*
X20188Y213490D01*
X19690Y212289D01*
X19520Y211000D01*
X19690Y209711D01*
X20188Y208510D01*
X20979Y207479D01*
X21532Y207054D01*
X21759Y206714D01*
X21538Y206383D01*
X21462Y206000D01*
X500D01*
Y223000D01*
X21500D01*
Y223000D01*
X21519Y223015D01*
X21882Y222943D01*
D02*
G37*
G36*
X61505Y214425D02*
X60979Y214021D01*
X60188Y212990D01*
X59690Y211789D01*
X59531Y210577D01*
X59057Y210417D01*
X57991Y211483D01*
X57495Y211814D01*
X56909Y211931D01*
X50870D01*
Y213173D01*
X45130D01*
Y207630D01*
X50870D01*
Y208872D01*
X56276D01*
X61167Y203981D01*
X61663Y203650D01*
X62248Y203534D01*
X66752D01*
X67337Y203650D01*
X67834Y203981D01*
X67834Y203981D01*
X67834Y203981D01*
X71018Y207167D01*
X71135Y207340D01*
X71201Y207440D01*
X72633Y208872D01*
X78130D01*
Y207630D01*
X83870D01*
Y208872D01*
X88630D01*
Y207630D01*
X94370D01*
Y208872D01*
X98212D01*
X98739Y208977D01*
X99104Y208635D01*
X99020Y208000D01*
X99190Y206711D01*
X99687Y205510D01*
X100479Y204479D01*
X100500Y204163D01*
X95867Y199529D01*
X94370D01*
Y200772D01*
X88630D01*
Y195228D01*
X89971D01*
Y185634D01*
X82530Y178193D01*
X80319D01*
Y171665D01*
X83616D01*
X83762Y171187D01*
X83356Y170916D01*
X81403Y168963D01*
X80941Y169154D01*
Y169335D01*
X79260D01*
Y166071D01*
X78260D01*
Y169335D01*
X76579D01*
Y167600D01*
X75440D01*
X72124Y170916D01*
X71628Y171248D01*
X71043Y171364D01*
X67681D01*
Y171665D01*
X67681D01*
Y178193D01*
X67029D01*
Y178718D01*
X68021Y179479D01*
X68813Y180510D01*
X69310Y181711D01*
X69480Y183000D01*
X69326Y184163D01*
X80391Y195228D01*
X83870D01*
Y200772D01*
X78130D01*
Y197293D01*
X67646Y186809D01*
X66990Y187312D01*
X65789Y187810D01*
X64500Y187980D01*
X63211Y187810D01*
X62010Y187312D01*
X60979Y186521D01*
X60188Y185490D01*
X59690Y184289D01*
X59520Y183000D01*
X59690Y181711D01*
X60188Y180510D01*
X60979Y179479D01*
X62010Y178688D01*
X63211Y178190D01*
X63319Y178176D01*
Y171665D01*
X66616D01*
X66762Y171187D01*
X66356Y170916D01*
X64403Y168963D01*
X63941Y169154D01*
Y169335D01*
X62260D01*
Y166071D01*
X61260D01*
Y169335D01*
X59579D01*
Y167600D01*
X56440D01*
X53124Y170916D01*
X52628Y171248D01*
X52043Y171364D01*
X48681D01*
Y171665D01*
X48681D01*
Y178193D01*
X48029D01*
Y195228D01*
X50870D01*
Y200772D01*
X47583D01*
X42274Y206081D01*
X41778Y206413D01*
X41192Y206529D01*
X34133D01*
X29452Y211211D01*
X29310Y212289D01*
X28813Y213490D01*
X28076Y214450D01*
X28297Y214898D01*
X61344D01*
X61505Y214425D01*
D02*
G37*
%LPC*%
G36*
X64000Y201980D02*
X62711Y201810D01*
X61510Y201312D01*
X60479Y200521D01*
X59688Y199490D01*
X59190Y198289D01*
X59020Y197000D01*
X59190Y195711D01*
X59688Y194510D01*
X60479Y193479D01*
X61510Y192687D01*
X62711Y192190D01*
X64000Y192020D01*
X65289Y192190D01*
X66490Y192687D01*
X67521Y193479D01*
X68313Y194510D01*
X68810Y195711D01*
X68980Y197000D01*
X68810Y198289D01*
X68313Y199490D01*
X67521Y200521D01*
X66490Y201312D01*
X65289Y201810D01*
X64000Y201980D01*
D02*
G37*
G36*
X6500Y190000D02*
X5086D01*
X5190Y189211D01*
X5480Y188510D01*
Y182490D01*
X5190Y181789D01*
X5086Y181000D01*
X6500D01*
Y190000D01*
D02*
G37*
G36*
X105000Y65414D02*
X104211Y65310D01*
X103010Y64812D01*
X101979Y64021D01*
X101188Y62990D01*
X100690Y61789D01*
X100586Y61000D01*
X105000D01*
Y65414D01*
D02*
G37*
G36*
X14914Y190000D02*
X13500D01*
Y181000D01*
X14914D01*
X14810Y181789D01*
X14520Y182490D01*
Y188510D01*
X14810Y189211D01*
X14914Y190000D01*
D02*
G37*
G36*
X6500Y200000D02*
X5086D01*
X5190Y199211D01*
X5480Y198510D01*
Y192490D01*
X5190Y191789D01*
X5086Y191000D01*
X6500D01*
Y200000D01*
D02*
G37*
G36*
X60500Y65000D02*
X57788D01*
X57834Y64652D01*
X58161Y63861D01*
X58682Y63182D01*
X59361Y62661D01*
X60152Y62334D01*
X60500Y62288D01*
Y65000D01*
D02*
G37*
G36*
X105000Y60000D02*
X100586D01*
X100690Y59211D01*
X101188Y58010D01*
X101979Y56979D01*
X103010Y56187D01*
X104211Y55690D01*
X105000Y55586D01*
Y60000D01*
D02*
G37*
G36*
X10000Y219950D02*
X8839Y219836D01*
X7723Y219497D01*
X6694Y218947D01*
X5793Y218207D01*
X5053Y217306D01*
X4503Y216277D01*
X4164Y215161D01*
X4050Y214000D01*
X4164Y212839D01*
X4503Y211723D01*
X5053Y210694D01*
X5793Y209793D01*
X6694Y209053D01*
X7723Y208503D01*
X8839Y208164D01*
X10000Y208050D01*
X11161Y208164D01*
X12277Y208503D01*
X13306Y209053D01*
X14207Y209793D01*
X14947Y210694D01*
X15497Y211723D01*
X15836Y212839D01*
X15950Y214000D01*
X15836Y215161D01*
X15497Y216277D01*
X14947Y217306D01*
X14207Y218207D01*
X13306Y218947D01*
X12277Y219497D01*
X11161Y219836D01*
X10000Y219950D01*
D02*
G37*
G36*
Y16450D02*
X8839Y16336D01*
X7723Y15997D01*
X6694Y15447D01*
X5793Y14707D01*
X5053Y13806D01*
X4503Y12777D01*
X4164Y11661D01*
X4050Y10500D01*
X4164Y9339D01*
X4503Y8223D01*
X5053Y7194D01*
X5793Y6293D01*
X6694Y5553D01*
X7723Y5003D01*
X8839Y4664D01*
X10000Y4550D01*
X11161Y4664D01*
X12277Y5003D01*
X13306Y5553D01*
X14207Y6293D01*
X14947Y7194D01*
X15497Y8223D01*
X15836Y9339D01*
X15950Y10500D01*
X15836Y11661D01*
X15497Y12777D01*
X14947Y13806D01*
X14207Y14707D01*
X13306Y15447D01*
X12277Y15997D01*
X11161Y16336D01*
X10000Y16450D01*
D02*
G37*
G36*
X46760Y61571D02*
X45079D01*
Y58807D01*
X46760D01*
Y61571D01*
D02*
G37*
G36*
X30260D02*
X28579D01*
Y58807D01*
X30260D01*
Y61571D01*
D02*
G37*
G36*
X110414Y60000D02*
X106000D01*
Y55586D01*
X106789Y55690D01*
X107990Y56187D01*
X109021Y56979D01*
X109812Y58010D01*
X110310Y59211D01*
X110414Y60000D01*
D02*
G37*
G36*
X6500Y170000D02*
X5086D01*
X5190Y169211D01*
X5480Y168510D01*
Y161990D01*
X5190Y161289D01*
X5086Y160500D01*
X6500D01*
Y170000D01*
D02*
G37*
G36*
X51000Y112278D02*
X50152Y112166D01*
X49361Y111839D01*
X48682Y111318D01*
X48161Y110639D01*
X48116Y110529D01*
X45831D01*
Y111772D01*
X41075D01*
Y106228D01*
X45831D01*
Y107471D01*
X48116D01*
X48161Y107361D01*
X48682Y106682D01*
X49361Y106161D01*
X49471Y106116D01*
Y99086D01*
X49215Y98831D01*
X46228D01*
Y94075D01*
X51772D01*
Y97062D01*
X52081Y97371D01*
X52413Y97868D01*
X52529Y98453D01*
Y106116D01*
X52639Y106161D01*
X53318Y106682D01*
X53839Y107361D01*
X54166Y108152D01*
X54278Y109000D01*
X54166Y109848D01*
X53839Y110639D01*
X53318Y111318D01*
X52639Y111839D01*
X51848Y112166D01*
X51000Y112278D01*
D02*
G37*
G36*
X14914Y180000D02*
X13500D01*
Y172000D01*
X17500Y168000D01*
X21000D01*
Y169414D01*
X20211Y169310D01*
X19510Y169020D01*
X17922D01*
X14567Y172375D01*
X14520Y172490D01*
Y178510D01*
X14810Y179211D01*
X14914Y180000D01*
D02*
G37*
G36*
X81425Y157500D02*
X79547D01*
Y155228D01*
X81425D01*
Y157500D01*
D02*
G37*
G36*
X64925D02*
X63047D01*
Y155228D01*
X64925D01*
Y157500D01*
D02*
G37*
G36*
X53272Y151831D02*
X51000D01*
Y149953D01*
X53272D01*
Y151831D01*
D02*
G37*
G36*
X78547Y157500D02*
X76669D01*
Y155228D01*
X78547D01*
Y157500D01*
D02*
G37*
G36*
X6500Y180000D02*
X5086D01*
X5190Y179211D01*
X5480Y178510D01*
Y172490D01*
X5190Y171789D01*
X5086Y171000D01*
X6500D01*
Y180000D01*
D02*
G37*
G36*
X83425Y91500D02*
X78669D01*
Y90832D01*
X77458Y89621D01*
X77348Y89666D01*
X77000Y89712D01*
Y87000D01*
X79712D01*
X79666Y87348D01*
X79621Y87458D01*
X81391Y89228D01*
X83425D01*
Y91500D01*
D02*
G37*
G36*
X76000Y89712D02*
X75652Y89666D01*
X74861Y89339D01*
X74182Y88818D01*
X73661Y88139D01*
X73334Y87348D01*
X73288Y87000D01*
X76000D01*
Y89712D01*
D02*
G37*
G36*
X33925Y83772D02*
X32047D01*
Y81500D01*
X33925D01*
Y83772D01*
D02*
G37*
G36*
X64547Y94772D02*
X62669D01*
Y92500D01*
X64547D01*
Y94772D01*
D02*
G37*
G36*
X83425D02*
X81547D01*
Y92500D01*
X83425D01*
Y94772D01*
D02*
G37*
G36*
X80547D02*
X78669D01*
Y92500D01*
X80547D01*
Y94772D01*
D02*
G37*
G36*
X67425D02*
X65547D01*
Y92500D01*
X67425D01*
Y94772D01*
D02*
G37*
%LPD*%
D10*
X36500Y149453D02*
D03*
Y143547D02*
D03*
X50500Y149453D02*
D03*
Y143547D02*
D03*
X43500Y143547D02*
D03*
Y149453D02*
D03*
X29500Y103047D02*
D03*
Y108953D02*
D03*
X49000Y96453D02*
D03*
Y90547D02*
D03*
D13*
X100260Y82929D02*
D03*
X107740D02*
D03*
X104000Y74071D02*
D03*
X91740Y72071D02*
D03*
X84260D02*
D03*
X88000Y80929D02*
D03*
X70740Y72571D02*
D03*
X63260D02*
D03*
X67000Y81429D02*
D03*
X54740Y62071D02*
D03*
X47260D02*
D03*
X51000Y70929D02*
D03*
X38240Y62071D02*
D03*
X30760D02*
D03*
X34500Y70929D02*
D03*
X41240Y90571D02*
D03*
X33760D02*
D03*
X37500Y99429D02*
D03*
X63760Y119929D02*
D03*
X71240D02*
D03*
X67500Y111071D02*
D03*
X50240Y166071D02*
D03*
X42760D02*
D03*
X46500Y174929D02*
D03*
X69240Y166071D02*
D03*
X61760D02*
D03*
X65500Y174929D02*
D03*
X86240Y166071D02*
D03*
X78760D02*
D03*
X82500Y174929D02*
D03*
D14*
X98047Y92000D02*
D03*
X103953D02*
D03*
X86953Y92000D02*
D03*
X81047D02*
D03*
X70953D02*
D03*
X65047D02*
D03*
X52000Y80500D02*
D03*
X46095D02*
D03*
X37453Y81000D02*
D03*
X31547D02*
D03*
X84953Y158000D02*
D03*
X79047D02*
D03*
X68453D02*
D03*
X62547D02*
D03*
X37547Y109000D02*
D03*
X43453D02*
D03*
X34547Y126000D02*
D03*
X40453D02*
D03*
X34547Y133500D02*
D03*
X40453D02*
D03*
X49453Y158000D02*
D03*
X43547D02*
D03*
D16*
X21005Y219437D02*
X107634D01*
X16063Y206369D02*
X18437Y203995D01*
Y198126D02*
Y203995D01*
Y198126D02*
X21500Y195063D01*
Y176000D02*
Y195063D01*
X106750Y38204D02*
Y44250D01*
Y38204D02*
X111204Y33750D01*
X113687D01*
X114437Y33000D01*
Y19505D02*
Y33000D01*
X14500Y30000D02*
X17000D01*
X23000Y24000D01*
X28593D01*
X39156Y13437D01*
X107495D01*
X107932Y13000D01*
X114437Y19505D01*
X105500Y184500D02*
X114500Y193500D01*
Y212571D01*
X107634Y219437D02*
X114500Y212571D01*
D17*
X40598Y26000D02*
X44029D01*
X62248Y205063D02*
X66752D01*
X56909Y210402D02*
X62248Y205063D01*
X48000Y210402D02*
X56909D01*
X28000Y168000D02*
Y198500D01*
X9063Y25437D02*
X21500Y13000D01*
X46000Y116500D02*
X54500D01*
X60000Y111000D01*
X88500Y109000D02*
Y111000D01*
Y109000D02*
X98047Y99453D01*
X79000Y110000D02*
Y114000D01*
Y110000D02*
X86953Y102047D01*
X53905Y80500D02*
X54953Y79453D01*
X52000Y80500D02*
X53905D01*
X52169Y87669D02*
X56000Y91500D01*
X47669Y87669D02*
X52169D01*
X65047Y85494D02*
Y89547D01*
X46095Y80500D02*
X46729D01*
X50001Y83772D01*
X53968D01*
X56447Y86250D01*
X61750D01*
X65047Y89547D01*
Y92000D01*
X54953Y79453D02*
X57476Y81976D01*
X54953Y62283D02*
Y79453D01*
X44807Y84807D02*
X47669Y87669D01*
X49000Y90500D02*
Y90547D01*
X47672Y90500D02*
X49000D01*
X43979Y86807D02*
X47672Y90500D01*
X39438Y86807D02*
X43979D01*
X41260Y84807D02*
X44807D01*
X46095Y80500D02*
X47260Y79335D01*
Y62071D02*
Y79335D01*
X63000Y72571D02*
Y83447D01*
X65047Y85494D01*
X25500Y201000D02*
X28000Y198500D01*
X101500Y33500D02*
X103000Y32000D01*
X101500Y33500D02*
Y53500D01*
X42500Y36402D02*
X44598Y38500D01*
X42500Y27529D02*
Y36402D01*
Y27529D02*
X44029Y26000D01*
X91740Y72071D02*
Y82760D01*
X86953Y87547D02*
X91740Y82760D01*
X86953Y87547D02*
Y92000D01*
X84000Y35000D02*
X89770Y40770D01*
X90935D01*
X97870Y47706D01*
Y52491D01*
X96991Y53370D02*
X97870Y52491D01*
X83973Y53370D02*
X96991D01*
X101000Y53500D02*
X101500D01*
X9063Y25437D02*
Y32252D01*
X61000Y65500D02*
X63095Y67594D01*
Y71406D01*
X98000Y91953D02*
X98047Y92000D01*
X98000Y88500D02*
Y91953D01*
Y88500D02*
X100260Y86240D01*
Y82929D02*
Y86240D01*
X101075Y89607D02*
Y94393D01*
Y89607D02*
X104000Y86682D01*
Y74071D02*
Y86682D01*
X94500Y62500D02*
X104500Y72500D01*
X103953Y92000D02*
X105453Y90500D01*
X107500D01*
X71035Y28063D02*
X76500Y22598D01*
X64748Y28063D02*
X71035D01*
X61811Y31000D02*
X64748Y28063D01*
X54657Y31000D02*
X61811D01*
X49657Y26000D02*
X54657Y31000D01*
X100063Y182248D02*
X101000Y181311D01*
Y176000D02*
Y181311D01*
X102295Y26205D02*
X105500Y23000D01*
X87343Y26205D02*
X102295D01*
X100063Y161748D02*
Y170995D01*
X95000Y176058D02*
X100063Y170995D01*
X28000Y168000D02*
X33000Y163000D01*
X105000Y98318D02*
Y103000D01*
X101075Y94393D02*
X105000Y98318D01*
X57000Y52000D02*
X58500D01*
X36500Y143547D02*
Y143657D01*
X31657Y148500D02*
X36500Y143657D01*
X25500Y148500D02*
X31657D01*
X21000Y144000D02*
X25500Y148500D01*
X81000Y210402D02*
X91500D01*
X72000D02*
X81000D01*
X91500Y185000D02*
Y198000D01*
X82500Y176000D02*
X91500Y185000D01*
X82500Y174929D02*
Y176000D01*
X66000Y183000D02*
X81000Y198000D01*
X64500Y183000D02*
X66000D01*
X48000Y198000D02*
Y198192D01*
X41192Y205000D02*
X48000Y198192D01*
X33500Y205000D02*
X41192D01*
X27500Y211000D02*
X33500Y205000D01*
X46500Y174929D02*
Y196500D01*
X48000Y198000D01*
X65500Y174929D02*
Y182000D01*
X64500Y183000D02*
X65500Y182000D01*
X86240Y159287D02*
Y166071D01*
X84953Y158000D02*
X86240Y159287D01*
X84953Y149547D02*
Y158000D01*
Y149547D02*
X91000Y143500D01*
Y126000D02*
Y143500D01*
X78760Y158287D02*
Y166071D01*
Y158287D02*
X79047Y158000D01*
X78760Y166071D02*
X80674D01*
X84438Y169835D01*
X88043D01*
X105500Y152377D01*
Y152000D02*
Y152377D01*
X69240Y158787D02*
Y166071D01*
X68453Y158000D02*
X69240Y158787D01*
X68453Y158000D02*
X86500Y139953D01*
X74806Y166071D02*
X78760D01*
X71043Y169835D02*
X74806Y166071D01*
X67438Y169835D02*
X71043D01*
X63674Y166071D02*
X67438Y169835D01*
X61760Y166071D02*
X63674D01*
X61760Y158787D02*
Y166071D01*
Y158787D02*
X62547Y158000D01*
X50240Y158787D02*
Y166071D01*
X49453Y158000D02*
X50240Y158787D01*
X49453Y158000D02*
X56000D01*
X61000Y153000D01*
X68000D01*
X81000Y140000D01*
Y126500D02*
Y140000D01*
X55806Y166071D02*
X61760D01*
X52043Y169835D02*
X55806Y166071D01*
X48438Y169835D02*
X52043D01*
X44674Y166071D02*
X48438Y169835D01*
X42760Y166071D02*
X44674D01*
X42760Y158787D02*
Y166071D01*
Y158787D02*
X43547Y158000D01*
X41728Y166071D02*
X42760D01*
X34657Y159000D02*
X41728Y166071D01*
X31343Y159000D02*
X34657D01*
X25843Y164500D02*
X31343Y159000D01*
X21500Y164500D02*
X25843D01*
X14500D02*
X21500D01*
X10000Y160000D02*
X14500Y164500D01*
X10000Y160000D02*
Y170500D01*
Y180500D01*
Y198000D01*
Y150000D02*
X17000D01*
X21000Y154000D01*
X31953D01*
X36500Y149453D01*
X43500D01*
X43500Y149453D01*
X71240Y119929D02*
Y126260D01*
X71000Y126500D02*
X71240Y126260D01*
X60000Y111000D02*
X67429D01*
X67500Y111071D01*
X43453Y109000D02*
X51000D01*
X43453Y109000D02*
X43453Y109000D01*
X51000Y109000D02*
X51000Y109000D01*
X29500Y108953D02*
X37500D01*
X41240Y90571D02*
Y102260D01*
X37500Y106000D02*
X41240Y102260D01*
X37500Y106000D02*
Y106500D01*
X37500Y106500D01*
Y108953D01*
X22500Y81000D02*
X31547D01*
X22000Y80500D02*
X22500Y81000D01*
X26500Y90000D02*
Y93000D01*
X32929Y99429D01*
X37500D01*
X32728Y90571D02*
X33760D01*
X18000Y80500D02*
Y82157D01*
X11000Y73500D02*
X18000Y80500D01*
X11000Y63500D02*
Y73500D01*
Y63500D02*
X16500D01*
X21000Y68000D01*
X11000Y52500D02*
Y63500D01*
Y42000D02*
X15500D01*
X21000Y47500D01*
Y57500D01*
Y68000D01*
X84500Y5000D02*
X94500D01*
X74500D02*
X84500D01*
X64500D02*
X74500D01*
X54500D02*
X64500D01*
X44500D02*
X54500D01*
X34000D02*
X44500D01*
X74500D02*
X75000Y5500D01*
X64500Y45000D02*
Y46000D01*
X58000Y38500D02*
X64500Y45000D01*
Y57500D02*
X75000Y47000D01*
Y36500D02*
Y47000D01*
X84000Y29548D02*
X87343Y26205D01*
X84000Y29548D02*
Y35000D01*
X36500Y143547D02*
X37425Y142622D01*
X40453Y126000D02*
Y126804D01*
X34547Y126000D02*
Y133500D01*
X43500Y136547D02*
Y143547D01*
X40453Y133500D02*
X43500Y136547D01*
X40453Y133500D02*
X41500D01*
X50500Y143547D02*
X56000Y138047D01*
Y127000D02*
Y138047D01*
X41500Y133500D02*
X53000Y122000D01*
X37378Y129878D02*
X40453Y126804D01*
X37378Y129878D02*
X37425Y129925D01*
Y142622D01*
X37453Y81000D02*
X41260Y84807D01*
X49000Y96453D02*
X51000Y98453D01*
Y109000D01*
X53000Y122000D02*
X61689D01*
X63760Y119929D01*
X31831Y111831D02*
X37500Y117500D01*
X27107Y111831D02*
X31831D01*
X26228Y110952D02*
X27107Y111831D01*
X26228Y106954D02*
Y110952D01*
Y106954D02*
X29500Y103682D01*
Y103047D02*
Y103682D01*
X103248Y158563D02*
X106626D01*
X100063Y161748D02*
X103248Y158563D01*
X71311Y120000D02*
X80500D01*
X71240Y119929D02*
X71311Y120000D01*
X98047Y92000D02*
Y99453D01*
X104740Y60760D02*
X105000Y60500D01*
X86953Y92000D02*
Y102047D01*
X67000Y61000D02*
Y81429D01*
X64500Y57500D02*
X68000Y61000D01*
X70953Y73358D02*
Y92000D01*
X37453Y62858D02*
X38240Y62071D01*
X54740D02*
X54953Y62283D01*
X51000Y60245D02*
Y70929D01*
Y60245D02*
X55245Y56000D01*
X60157D01*
X62500Y53657D01*
Y48000D02*
Y53657D01*
Y48000D02*
X64500Y46000D01*
X82673Y38272D02*
X94500Y50098D01*
X81509Y38272D02*
X82673D01*
X80630Y37393D02*
X81509Y38272D01*
X80630Y26719D02*
Y37393D01*
Y26719D02*
X84000Y23349D01*
Y22598D02*
Y23349D01*
X76500Y22598D02*
X84000D01*
X31547Y62858D02*
Y81000D01*
X30760Y62071D02*
X31547Y62858D01*
X37453Y76047D02*
Y81000D01*
Y76047D02*
X38240Y75260D01*
Y62071D02*
Y75260D01*
X81047Y91047D02*
Y92000D01*
X76500Y86500D02*
X81047Y91047D01*
X96000Y108500D02*
Y121000D01*
X105500Y130500D01*
Y133500D01*
X106626Y158563D02*
X113453Y151736D01*
X101000Y113843D02*
Y117157D01*
Y113843D02*
X103343Y111500D01*
X104189D01*
X110437Y105252D01*
Y97811D02*
Y105252D01*
X107500Y94874D02*
X110437Y97811D01*
X107500Y82217D02*
Y90500D01*
Y94874D01*
X107740Y60760D02*
Y82929D01*
X105500Y152000D02*
X110937Y146563D01*
Y127094D02*
Y146563D01*
X101000Y117157D02*
X110937Y127094D01*
X105000Y115500D02*
X113406Y123906D01*
Y151689D01*
X46453Y153500D02*
X50500Y149453D01*
X43500Y153500D02*
X46453D01*
X43500D02*
Y157953D01*
X43547Y158000D01*
X76500Y84547D02*
Y86500D01*
Y84547D02*
X84260Y76787D01*
Y72071D02*
Y76787D01*
X76500Y65500D02*
Y66500D01*
X95272Y59228D02*
X101000Y53500D01*
X76500Y65500D02*
X82772Y59228D01*
X95272D01*
X88000Y70245D02*
Y80929D01*
X86062Y68307D02*
X88000Y70245D01*
X82457Y68307D02*
X86062D01*
X80265Y70500D02*
X82457Y68307D01*
X74843Y70500D02*
X80265D01*
X72500Y68157D02*
X74843Y70500D01*
X72500Y64843D02*
Y68157D01*
Y64843D02*
X83973Y53370D01*
X114000Y42000D02*
Y106500D01*
X105000Y115500D02*
X114000Y106500D01*
X24500Y211000D02*
X27500D01*
X66752Y205063D02*
X69937Y208248D01*
Y208339D01*
X72000Y210402D01*
X98212D02*
X101248Y213437D01*
X91500Y210402D02*
X98212D01*
X101248Y213437D02*
X106563D01*
X109500Y210500D01*
Y205811D02*
Y210500D01*
X102414Y201086D02*
X104775D01*
X109500Y205811D01*
X91500Y198000D02*
X96500D01*
X104500Y206000D01*
X95000Y176058D02*
Y193672D01*
X102414Y201086D01*
X100063Y182248D02*
Y192500D01*
X36500Y143547D02*
X38229D01*
X41107Y146425D01*
X53772Y143728D02*
Y145546D01*
X41107Y146425D02*
X52893D01*
X53772Y145546D01*
Y143728D02*
X71000Y126500D01*
X86500Y121000D02*
Y139953D01*
X30000Y142189D02*
Y145500D01*
X15063Y127252D02*
X30000Y142189D01*
X15063Y127252D02*
X15437Y126878D01*
Y117748D02*
Y126878D01*
X10000Y112311D02*
X15437Y117748D01*
X10000Y110000D02*
Y112311D01*
X18000Y82157D02*
X20343Y84500D01*
X26657D01*
X33760Y90571D02*
X35674D01*
X39438Y86807D01*
X49000Y90547D02*
X49000Y90547D01*
X26657Y84500D02*
X32728Y90571D01*
X34547Y120204D02*
Y126000D01*
X33500Y119157D02*
X34547Y120204D01*
X33500Y116328D02*
Y119157D01*
X16063Y88780D02*
Y104752D01*
Y88780D02*
X20343Y84500D01*
X16063Y104752D02*
X25811Y114500D01*
X31672D01*
X33500Y116328D01*
X70953Y92000D02*
Y106796D01*
X74336Y110179D01*
X50000Y45000D02*
X57000Y52000D01*
X9063Y32252D02*
X12248Y35437D01*
X35500Y31098D02*
X40598Y26000D01*
X44029D02*
X49657D01*
X50000Y32000D02*
Y45000D01*
X48000Y30000D02*
X50000Y32000D01*
X57000Y38500D02*
X58000D01*
X34500Y41000D02*
Y70929D01*
X28937Y35437D02*
X34500Y41000D01*
X12248Y35437D02*
X28937D01*
D20*
X64250Y4750D02*
D03*
D22*
X104000Y208000D02*
D03*
X105500Y184500D02*
D03*
X107000Y45500D02*
D03*
X105500Y164000D02*
D03*
Y152000D02*
D03*
Y142000D02*
D03*
X105000Y103000D02*
D03*
X105500Y132000D02*
D03*
X64500Y22500D02*
D03*
X67000Y33500D02*
D03*
X64500Y46000D02*
D03*
X65500Y58500D02*
D03*
X105500Y60500D02*
D03*
X106000Y23000D02*
D03*
X94500Y5000D02*
D03*
X84500D02*
D03*
X74500D02*
D03*
X64500D02*
D03*
X54500D02*
D03*
X44500D02*
D03*
X34000D02*
D03*
X11000Y52500D02*
D03*
Y42000D02*
D03*
X22500Y13000D02*
D03*
X21000Y47500D02*
D03*
Y57500D02*
D03*
Y68000D02*
D03*
X11000Y63500D02*
D03*
Y73500D02*
D03*
X21000Y144000D02*
D03*
Y154000D02*
D03*
X10000Y93000D02*
D03*
X21500Y102500D02*
D03*
X10000Y110000D02*
D03*
Y120000D02*
D03*
Y130000D02*
D03*
Y140000D02*
D03*
Y150000D02*
D03*
X64500Y183000D02*
D03*
X64000Y197000D02*
D03*
X64500Y210500D02*
D03*
X21500Y164500D02*
D03*
X10000Y160000D02*
D03*
Y180500D02*
D03*
Y170500D02*
D03*
X21500Y176000D02*
D03*
X10000Y190500D02*
D03*
X14500Y30000D02*
D03*
X10000Y200500D02*
D03*
X24500Y211000D02*
D03*
X21500Y126000D02*
D03*
D23*
X79000Y120500D02*
D03*
X46000Y116500D02*
D03*
X96000Y110500D02*
D03*
X88500Y111000D02*
D03*
X58000Y82500D02*
D03*
X47000Y30000D02*
D03*
X103000Y32000D02*
D03*
X76500Y86500D02*
D03*
X58500Y31500D02*
D03*
X101000Y176000D02*
D03*
X25500Y201000D02*
D03*
X33000Y163000D02*
D03*
X76500Y66500D02*
D03*
X58500Y52000D02*
D03*
X30000Y144500D02*
D03*
X91000Y126000D02*
D03*
X80500Y127000D02*
D03*
X71000Y126500D02*
D03*
X51000Y109000D02*
D03*
X22000Y80500D02*
D03*
X26500Y90000D02*
D03*
X56000Y127000D02*
D03*
Y91500D02*
D03*
X37500Y117500D02*
D03*
X105000Y115500D02*
D03*
X61000Y65500D02*
D03*
X114000Y40500D02*
D03*
X100500Y192500D02*
D03*
X86500Y121000D02*
D03*
X73679Y110179D02*
D03*
X79000Y114000D02*
D03*
D24*
X81000Y210402D02*
D03*
Y198000D02*
D03*
X35500Y31098D02*
D03*
Y43500D02*
D03*
X76000Y22598D02*
D03*
Y35000D02*
D03*
X86000Y22598D02*
D03*
Y35000D02*
D03*
X94500Y50098D02*
D03*
Y62500D02*
D03*
X48000Y210402D02*
D03*
Y198000D02*
D03*
X91500Y210402D02*
D03*
Y198000D02*
D03*
D25*
X44598Y38500D02*
D03*
X57000D02*
D03*
D26*
X18000Y211500D02*
Y216432D01*
X16063Y209563D02*
X18000Y211500D01*
X16063Y206369D02*
Y209563D01*
X18000Y216432D02*
X21005Y219437D01*
D27*
X113500Y218250D02*
D03*
M02*
