%FSLAX25Y25*%
%MOIN*%
G70*
G01*
G75*
G04 Layer_Color=16776960*
%ADD10R,0.02756X0.03543*%
%ADD11R,0.03543X0.02756*%
%ADD12O,0.02362X0.09055*%
%ADD13R,0.22835X0.25197*%
%ADD14R,0.03150X0.08661*%
%ADD15R,0.02362X0.04528*%
%ADD16C,0.01000*%
%ADD17C,0.07000*%
%ADD18C,0.06400*%
%ADD19C,0.06500*%
%ADD20R,0.60500X0.07500*%
%ADD21R,0.08000X0.18500*%
%ADD22C,0.07874*%
%ADD23C,0.04500*%
%ADD24R,0.03740X0.03543*%
%ADD25R,0.03543X0.03740*%
%ADD26C,0.01969*%
%ADD27R,0.09000X0.09500*%
%ADD28C,0.02362*%
%ADD29C,0.00984*%
%ADD30C,0.00600*%
%ADD31C,0.00787*%
%ADD32C,0.00500*%
%ADD33R,0.03556X0.04343*%
%ADD34R,0.04343X0.03556*%
%ADD35O,0.03162X0.09855*%
%ADD36R,0.23635X0.25997*%
%ADD37R,0.03386X0.08898*%
%ADD38R,0.03162X0.05328*%
%ADD39C,0.08674*%
%ADD40C,0.00800*%
%ADD41C,0.05300*%
%ADD42R,0.04540X0.04343*%
%ADD43R,0.04343X0.04540*%
D16*
X88000Y194500D02*
X95000D01*
X88000D02*
Y214000D01*
X95000D01*
Y194500D02*
Y214000D01*
X77500Y194500D02*
X84500D01*
X77500D02*
Y214000D01*
X84500D01*
Y194500D02*
Y214000D01*
X44500Y194500D02*
X51500D01*
X44500D02*
Y214000D01*
X51500D01*
Y194500D02*
Y214000D01*
X91000Y66000D02*
X98000D01*
Y46500D02*
Y66000D01*
X91000Y46500D02*
X98000D01*
X91000D02*
Y66000D01*
X82500Y38500D02*
X89500D01*
Y19000D02*
Y38500D01*
X82500Y19000D02*
X89500D01*
X82500D02*
Y38500D01*
X72500D02*
X79500D01*
Y19000D02*
Y38500D01*
X72500Y19000D02*
X79500D01*
X72500D02*
Y38500D01*
X60500Y35000D02*
Y42000D01*
X41000Y35000D02*
X60500D01*
X41000D02*
Y42000D01*
X60500D01*
X32000Y47000D02*
X39000D01*
Y27500D02*
Y47000D01*
X32000Y27500D02*
X39000D01*
X32000D02*
Y47000D01*
D29*
X90079Y166071D02*
G03*
X90079Y166071I-492J0D01*
G01*
X73079D02*
G03*
X73079Y166071I-492J0D01*
G01*
X54079D02*
G03*
X54079Y166071I-492J0D01*
G01*
X97405Y82929D02*
G03*
X97405Y82929I-492J0D01*
G01*
X95579Y72071D02*
G03*
X95579Y72071I-492J0D01*
G01*
X74579Y72571D02*
G03*
X74579Y72571I-492J0D01*
G01*
X58579Y62071D02*
G03*
X58579Y62071I-492J0D01*
G01*
X42079D02*
G03*
X42079Y62071I-492J0D01*
G01*
X60905Y119929D02*
G03*
X60905Y119929I-492J0D01*
G01*
X45079Y90571D02*
G03*
X45079Y90571I-492J0D01*
G01*
D30*
X81500Y96500D02*
X82000Y96000D01*
X81500Y96500D02*
Y98000D01*
X74500Y92500D02*
X76000D01*
Y93500D01*
X67500Y51500D02*
X69500Y53500D01*
X73000D01*
X68000Y39500D02*
X69400Y40900D01*
X55000Y88500D02*
Y91699D01*
X53400D01*
X52867Y91166D01*
Y90100D01*
X53400Y89566D01*
X55000D01*
X53934D02*
X52867Y88500D01*
X51801D02*
X50735D01*
X51268D01*
Y91699D01*
X51801Y91166D01*
X49135D02*
X48602Y91699D01*
X47536D01*
X47003Y91166D01*
Y90633D01*
X47536Y90100D01*
X47003Y89566D01*
Y89033D01*
X47536Y88500D01*
X48602D01*
X49135Y89033D01*
Y89566D01*
X48602Y90100D01*
X49135Y90633D01*
Y91166D01*
X48602Y90100D02*
X47536D01*
X70000Y103000D02*
Y106199D01*
X68401D01*
X67867Y105666D01*
Y104599D01*
X68401Y104066D01*
X70000D01*
X68934D02*
X67867Y103000D01*
X66801D02*
X65735D01*
X66268D01*
Y106199D01*
X66801Y105666D01*
X64135D02*
X63602Y106199D01*
X62536D01*
X62003Y105666D01*
Y105133D01*
X62536Y104599D01*
X62003Y104066D01*
Y103533D01*
X62536Y103000D01*
X63602D01*
X64135Y103533D01*
Y104066D01*
X63602Y104599D01*
X64135Y105133D01*
Y105666D01*
X63602Y104599D02*
X62536D01*
X94000Y109500D02*
X90801D01*
Y107901D01*
X91334Y107367D01*
X92400D01*
X92934Y107901D01*
Y109500D01*
Y108434D02*
X94000Y107367D01*
Y106301D02*
Y105235D01*
Y105768D01*
X90801D01*
X91334Y106301D01*
Y103635D02*
X90801Y103102D01*
Y102036D01*
X91334Y101503D01*
X91867D01*
X92400Y102036D01*
X92934Y101503D01*
X93467D01*
X94000Y102036D01*
Y103102D01*
X93467Y103635D01*
X92934D01*
X92400Y103102D01*
X91867Y103635D01*
X91334D01*
X92400Y103102D02*
Y102036D01*
X88500Y117000D02*
X85301D01*
Y115401D01*
X85834Y114867D01*
X86901D01*
X87434Y115401D01*
Y117000D01*
Y115934D02*
X88500Y114867D01*
Y113801D02*
Y112735D01*
Y113268D01*
X85301D01*
X85834Y113801D01*
Y111135D02*
X85301Y110602D01*
Y109536D01*
X85834Y109003D01*
X86367D01*
X86901Y109536D01*
X87434Y109003D01*
X87967D01*
X88500Y109536D01*
Y110602D01*
X87967Y111135D01*
X87434D01*
X86901Y110602D01*
X86367Y111135D01*
X85834D01*
X86901Y110602D02*
Y109536D01*
X81000Y149500D02*
X77801D01*
Y147900D01*
X78334Y147367D01*
X79400D01*
X79934Y147900D01*
Y149500D01*
Y148434D02*
X81000Y147367D01*
Y146301D02*
Y145235D01*
Y145768D01*
X77801D01*
X78334Y146301D01*
Y143635D02*
X77801Y143102D01*
Y142036D01*
X78334Y141503D01*
X78867D01*
X79400Y142036D01*
X79934Y141503D01*
X80467D01*
X81000Y142036D01*
Y143102D01*
X80467Y143635D01*
X79934D01*
X79400Y143102D01*
X78867Y143635D01*
X78334D01*
X79400Y143102D02*
Y142036D01*
X87500Y150000D02*
X84301D01*
Y148400D01*
X84834Y147867D01*
X85900D01*
X86434Y148400D01*
Y150000D01*
Y148934D02*
X87500Y147867D01*
Y146801D02*
Y145735D01*
Y146268D01*
X84301D01*
X84834Y146801D01*
Y144135D02*
X84301Y143602D01*
Y142536D01*
X84834Y142003D01*
X85367D01*
X85900Y142536D01*
X86434Y142003D01*
X86967D01*
X87500Y142536D01*
Y143602D01*
X86967Y144135D01*
X86434D01*
X85900Y143602D01*
X85367Y144135D01*
X84834D01*
X85900Y143602D02*
Y142536D01*
X92500Y155500D02*
X89301D01*
Y153901D01*
X89834Y153367D01*
X90900D01*
X91434Y153901D01*
Y155500D01*
Y154434D02*
X92500Y153367D01*
Y152301D02*
Y151235D01*
Y151768D01*
X89301D01*
X89834Y152301D01*
Y149635D02*
X89301Y149102D01*
Y148036D01*
X89834Y147503D01*
X90367D01*
X90900Y148036D01*
X91434Y147503D01*
X91967D01*
X92500Y148036D01*
Y149102D01*
X91967Y149635D01*
X91434D01*
X90900Y149102D01*
X90367Y149635D01*
X89834D01*
X90900Y149102D02*
Y148036D01*
X40500Y58199D02*
Y56066D01*
X39434Y55000D01*
X38367Y56066D01*
Y58199D01*
X37301Y55000D02*
Y58199D01*
X35702D01*
X35168Y57666D01*
Y56599D01*
X35702Y56066D01*
X37301D01*
X36235D02*
X35168Y55000D01*
X31969Y58199D02*
X34102D01*
Y55000D01*
X31969D01*
X34102Y56599D02*
X33036D01*
X28770Y58199D02*
X30903D01*
Y56599D01*
X29837D01*
X30903D01*
Y55000D01*
X27704D02*
X26638D01*
X27171D01*
Y58199D01*
X27704Y57666D01*
X27500Y6699D02*
Y4566D01*
X26434Y3500D01*
X25367Y4566D01*
Y6699D01*
X24301D02*
Y3500D01*
X22702D01*
X22168Y4033D01*
Y6166D01*
X22702Y6699D01*
X24301D01*
X21102D02*
Y3500D01*
X19503D01*
X18969Y4033D01*
Y6166D01*
X19503Y6699D01*
X21102D01*
X17903Y6166D02*
X17370Y6699D01*
X16304D01*
X15770Y6166D01*
Y5633D01*
X16304Y5099D01*
X15770Y4566D01*
Y4033D01*
X16304Y3500D01*
X17370D01*
X17903Y4033D01*
Y4566D01*
X17370Y5099D01*
X17903Y5633D01*
Y6166D01*
X17370Y5099D02*
X16304D01*
X62000Y13699D02*
Y11566D01*
X60934Y10500D01*
X59867Y11566D01*
Y13699D01*
X58801D02*
Y10500D01*
X57201D01*
X56668Y11033D01*
Y13166D01*
X57201Y13699D01*
X58801D01*
X55602D02*
Y10500D01*
X54003D01*
X53469Y11033D01*
Y13166D01*
X54003Y13699D01*
X55602D01*
X52403D02*
X50270D01*
Y13166D01*
X52403Y11033D01*
Y10500D01*
X58699Y15500D02*
X56566D01*
X55500Y16566D01*
X56566Y17633D01*
X58699D01*
Y18699D02*
X55500D01*
Y20298D01*
X56033Y20832D01*
X58166D01*
X58699Y20298D01*
Y18699D01*
Y21898D02*
X55500D01*
Y23497D01*
X56033Y24031D01*
X58166D01*
X58699Y23497D01*
Y21898D01*
Y27230D02*
X58166Y26163D01*
X57099Y25097D01*
X56033D01*
X55500Y25630D01*
Y26696D01*
X56033Y27230D01*
X56566D01*
X57099Y26696D01*
Y25097D01*
X37000Y140199D02*
Y138066D01*
X35934Y137000D01*
X34867Y138066D01*
Y140199D01*
X33801D02*
Y137000D01*
X32201D01*
X31668Y137533D01*
Y139666D01*
X32201Y140199D01*
X33801D01*
X30602D02*
Y137000D01*
X29003D01*
X28469Y137533D01*
Y139666D01*
X29003Y140199D01*
X30602D01*
X25270D02*
X27403D01*
Y138600D01*
X26337Y139133D01*
X25804D01*
X25270Y138600D01*
Y137533D01*
X25804Y137000D01*
X26870D01*
X27403Y137533D01*
X81500Y13699D02*
Y11566D01*
X80434Y10500D01*
X79367Y11566D01*
Y13699D01*
X78301D02*
Y10500D01*
X76701D01*
X76168Y11033D01*
Y13166D01*
X76701Y13699D01*
X78301D01*
X75102D02*
Y10500D01*
X73503D01*
X72969Y11033D01*
Y13166D01*
X73503Y13699D01*
X75102D01*
X70304Y10500D02*
Y13699D01*
X71903Y12100D01*
X69770D01*
X95000Y15199D02*
Y13066D01*
X93934Y12000D01*
X92867Y13066D01*
Y15199D01*
X91801D02*
Y12000D01*
X90201D01*
X89668Y12533D01*
Y14666D01*
X90201Y15199D01*
X91801D01*
X88602D02*
Y12000D01*
X87003D01*
X86469Y12533D01*
Y14666D01*
X87003Y15199D01*
X88602D01*
X85403Y14666D02*
X84870Y15199D01*
X83804D01*
X83271Y14666D01*
Y14133D01*
X83804Y13600D01*
X84337D01*
X83804D01*
X83271Y13066D01*
Y12533D01*
X83804Y12000D01*
X84870D01*
X85403Y12533D01*
X48500Y13699D02*
Y11566D01*
X47434Y10500D01*
X46367Y11566D01*
Y13699D01*
X45301D02*
Y10500D01*
X43701D01*
X43168Y11033D01*
Y13166D01*
X43701Y13699D01*
X45301D01*
X42102D02*
Y10500D01*
X40503D01*
X39969Y11033D01*
Y13166D01*
X40503Y13699D01*
X42102D01*
X36770Y10500D02*
X38903D01*
X36770Y12633D01*
Y13166D01*
X37304Y13699D01*
X38370D01*
X38903Y13166D01*
X110500Y6699D02*
Y4566D01*
X109434Y3500D01*
X108367Y4566D01*
Y6699D01*
X107301D02*
Y3500D01*
X105701D01*
X105168Y4033D01*
Y6166D01*
X105701Y6699D01*
X107301D01*
X104102D02*
Y3500D01*
X102503D01*
X101969Y4033D01*
Y6166D01*
X102503Y6699D01*
X104102D01*
X100903Y3500D02*
X99837D01*
X100370D01*
Y6699D01*
X100903Y6166D01*
X73199Y42000D02*
X71066D01*
X70000Y43066D01*
X71066Y44133D01*
X73199D01*
X71600Y45199D02*
Y47332D01*
X72666Y48398D02*
X73199Y48931D01*
Y49997D01*
X72666Y50531D01*
X72133D01*
X71600Y49997D01*
Y49464D01*
Y49997D01*
X71066Y50531D01*
X70533D01*
X70000Y49997D01*
Y48931D01*
X70533Y48398D01*
X110801Y168000D02*
X112934D01*
X114000Y166934D01*
X112934Y165867D01*
X110801D01*
X112400Y164801D02*
Y162668D01*
X111334Y163735D02*
X113467D01*
X114000Y160003D02*
X110801D01*
X112400Y161602D01*
Y159469D01*
X35500Y176699D02*
Y174566D01*
X34434Y173500D01*
X33367Y174566D01*
Y176699D01*
X32301Y175100D02*
X30168D01*
X31235Y176166D02*
Y174033D01*
X29102Y176166D02*
X28569Y176699D01*
X27503D01*
X26969Y176166D01*
Y175633D01*
X27503Y175100D01*
X28036D01*
X27503D01*
X26969Y174566D01*
Y174033D01*
X27503Y173500D01*
X28569D01*
X29102Y174033D01*
X111301Y189000D02*
X113434D01*
X114500Y187934D01*
X113434Y186867D01*
X111301D01*
X112900Y185801D02*
Y183668D01*
X111834Y184735D02*
X113967D01*
X114500Y180469D02*
Y182602D01*
X112367Y180469D01*
X111834D01*
X111301Y181003D01*
Y182069D01*
X111834Y182602D01*
X101500Y44199D02*
Y42066D01*
X100434Y41000D01*
X99367Y42066D01*
Y44199D01*
X98301Y42599D02*
X96168D01*
X97235Y43666D02*
Y41533D01*
X95102Y41000D02*
X94036D01*
X94569D01*
Y44199D01*
X95102Y43666D01*
X29166Y46133D02*
X29699Y45599D01*
Y44533D01*
X29166Y44000D01*
X28633D01*
X28100Y44533D01*
Y45599D01*
X27566Y46133D01*
X27033D01*
X26500Y45599D01*
Y44533D01*
X27033Y44000D01*
X26500Y47199D02*
X29699D01*
Y48798D01*
X29166Y49332D01*
X28100D01*
X27566Y48798D01*
Y47199D01*
X26500Y52531D02*
Y50398D01*
X28633Y52531D01*
X29166D01*
X29699Y51997D01*
Y50931D01*
X29166Y50398D01*
X111334Y144867D02*
X110801Y145401D01*
Y146467D01*
X111334Y147000D01*
X111867D01*
X112400Y146467D01*
Y145401D01*
X112934Y144867D01*
X113467D01*
X114000Y145401D01*
Y146467D01*
X113467Y147000D01*
X110801Y143801D02*
X114000D01*
Y142201D01*
X113467Y141668D01*
X111334D01*
X110801Y142201D01*
Y143801D01*
X114000Y140602D02*
X111867D01*
X110801Y139536D01*
X111867Y138469D01*
X114000D01*
X112400D01*
Y140602D01*
X114000Y137403D02*
Y136337D01*
Y136870D01*
X110801D01*
X111334Y137403D01*
X111834Y131367D02*
X111301Y131901D01*
Y132967D01*
X111834Y133500D01*
X112367D01*
X112900Y132967D01*
Y131901D01*
X113434Y131367D01*
X113967D01*
X114500Y131901D01*
Y132967D01*
X113967Y133500D01*
X111834Y128168D02*
X111301Y128701D01*
Y129768D01*
X111834Y130301D01*
X113967D01*
X114500Y129768D01*
Y128701D01*
X113967Y128168D01*
X111301Y127102D02*
X114500D01*
Y124969D01*
Y123903D02*
Y122837D01*
Y123370D01*
X111301D01*
X111834Y123903D01*
X96000Y157500D02*
Y160699D01*
X94401D01*
X93867Y160166D01*
Y159099D01*
X94401Y158566D01*
X96000D01*
X94934D02*
X93867Y157500D01*
X92801D02*
X91735D01*
X92268D01*
Y160699D01*
X92801Y160166D01*
X88536Y157500D02*
Y160699D01*
X90135Y159099D01*
X88003D01*
X69000Y151500D02*
Y154699D01*
X67400D01*
X66867Y154166D01*
Y153100D01*
X67400Y152566D01*
X69000D01*
X67934D02*
X66867Y151500D01*
X65801D02*
X64735D01*
X65268D01*
Y154699D01*
X65801Y154166D01*
X61536Y151500D02*
Y154699D01*
X63135Y153100D01*
X61003D01*
X40500Y156000D02*
Y159199D01*
X38901D01*
X38367Y158666D01*
Y157599D01*
X38901Y157066D01*
X40500D01*
X39434D02*
X38367Y156000D01*
X37301D02*
X36235D01*
X36768D01*
Y159199D01*
X37301Y158666D01*
X33036Y156000D02*
Y159199D01*
X34635Y157599D01*
X32503D01*
X115500Y90500D02*
Y93699D01*
X113900D01*
X113367Y93166D01*
Y92099D01*
X113900Y91566D01*
X115500D01*
X114434D02*
X113367Y90500D01*
X112301D02*
X111235D01*
X111768D01*
Y93699D01*
X112301Y93166D01*
X108036Y90500D02*
Y93699D01*
X109635Y92099D01*
X107503D01*
X83000Y107500D02*
X79801D01*
Y105901D01*
X80334Y105367D01*
X81401D01*
X81934Y105901D01*
Y107500D01*
Y106434D02*
X83000Y105367D01*
Y104301D02*
Y103235D01*
Y103768D01*
X79801D01*
X80334Y104301D01*
X83000Y100036D02*
X79801D01*
X81401Y101635D01*
Y99503D01*
X77500Y103500D02*
X74301D01*
Y101900D01*
X74834Y101367D01*
X75901D01*
X76434Y101900D01*
Y103500D01*
Y102434D02*
X77500Y101367D01*
Y100301D02*
Y99235D01*
Y99768D01*
X74301D01*
X74834Y100301D01*
X77500Y96036D02*
X74301D01*
X75901Y97635D01*
Y95503D01*
X58000Y80500D02*
X54801D01*
Y78900D01*
X55334Y78367D01*
X56401D01*
X56934Y78900D01*
Y80500D01*
Y79434D02*
X58000Y78367D01*
Y77301D02*
Y76235D01*
Y76768D01*
X54801D01*
X55334Y77301D01*
X58000Y73036D02*
X54801D01*
X56401Y74635D01*
Y72503D01*
X31500Y74500D02*
Y77699D01*
X29901D01*
X29367Y77166D01*
Y76099D01*
X29901Y75566D01*
X31500D01*
X30434D02*
X29367Y74500D01*
X28301D02*
X27235D01*
X27768D01*
Y77699D01*
X28301Y77166D01*
X24036Y74500D02*
Y77699D01*
X25635Y76099D01*
X23503D01*
X57000Y150500D02*
X53801D01*
Y148900D01*
X54334Y148367D01*
X55401D01*
X55934Y148900D01*
Y150500D01*
Y149434D02*
X57000Y148367D01*
Y147301D02*
Y146235D01*
Y146768D01*
X53801D01*
X54334Y147301D01*
X57000Y142503D02*
Y144635D01*
X54867Y142503D01*
X54334D01*
X53801Y143036D01*
Y144102D01*
X54334Y144635D01*
X28000Y112000D02*
X31199D01*
Y113600D01*
X30666Y114133D01*
X29599D01*
X29066Y113600D01*
Y112000D01*
Y113066D02*
X28000Y114133D01*
X30666Y115199D02*
X31199Y115732D01*
Y116798D01*
X30666Y117332D01*
X30133D01*
X29599Y116798D01*
X29066Y117332D01*
X28533D01*
X28000Y116798D01*
Y115732D01*
X28533Y115199D01*
X29066D01*
X29599Y115732D01*
X30133Y115199D01*
X30666D01*
X29599Y115732D02*
Y116798D01*
X43000Y112500D02*
Y115699D01*
X41401D01*
X40867Y115166D01*
Y114100D01*
X41401Y113566D01*
X43000D01*
X41934D02*
X40867Y112500D01*
X39801Y115699D02*
X37668D01*
Y115166D01*
X39801Y113033D01*
Y112500D01*
X50500Y96000D02*
X53699D01*
Y97600D01*
X53166Y98133D01*
X52100D01*
X51566Y97600D01*
Y96000D01*
Y97066D02*
X50500Y98133D01*
X53699Y101332D02*
X53166Y100265D01*
X52100Y99199D01*
X51033D01*
X50500Y99732D01*
Y100798D01*
X51033Y101332D01*
X51566D01*
X52100Y100798D01*
Y99199D01*
X31500Y124500D02*
Y127699D01*
X29901D01*
X29367Y127166D01*
Y126100D01*
X29901Y125566D01*
X31500D01*
X30434D02*
X29367Y124500D01*
X26168Y127699D02*
X28301D01*
Y126100D01*
X27235Y126633D01*
X26702D01*
X26168Y126100D01*
Y125033D01*
X26702Y124500D01*
X27768D01*
X28301Y125033D01*
X31500Y132000D02*
Y135199D01*
X29901D01*
X29367Y134666D01*
Y133599D01*
X29901Y133066D01*
X31500D01*
X30434D02*
X29367Y132000D01*
X26702D02*
Y135199D01*
X28301Y133599D01*
X26168D01*
X45500Y140500D02*
X42301D01*
Y138900D01*
X42834Y138367D01*
X43900D01*
X44434Y138900D01*
Y140500D01*
Y139434D02*
X45500Y138367D01*
X42834Y137301D02*
X42301Y136768D01*
Y135702D01*
X42834Y135168D01*
X43367D01*
X43900Y135702D01*
Y136235D01*
Y135702D01*
X44434Y135168D01*
X44967D01*
X45500Y135702D01*
Y136768D01*
X44967Y137301D01*
X32500Y150500D02*
X29301D01*
Y148900D01*
X29834Y148367D01*
X30900D01*
X31434Y148900D01*
Y150500D01*
Y149434D02*
X32500Y148367D01*
Y145168D02*
Y147301D01*
X30367Y145168D01*
X29834D01*
X29301Y145702D01*
Y146768D01*
X29834Y147301D01*
X76867Y176033D02*
Y178166D01*
X77400Y178699D01*
X78467D01*
X79000Y178166D01*
Y176033D01*
X78467Y175500D01*
X77400D01*
X77934Y176566D02*
X76867Y175500D01*
X77400D02*
X76867Y176033D01*
X73668Y175500D02*
X75801D01*
X73668Y177633D01*
Y178166D01*
X74202Y178699D01*
X75268D01*
X75801Y178166D01*
X60367Y175533D02*
Y177666D01*
X60900Y178199D01*
X61967D01*
X62500Y177666D01*
Y175533D01*
X61967Y175000D01*
X60900D01*
X61434Y176066D02*
X60367Y175000D01*
X60900D02*
X60367Y175533D01*
X57168Y175000D02*
X59301D01*
X57168Y177133D01*
Y177666D01*
X57701Y178199D01*
X58768D01*
X59301Y177666D01*
X41367Y175533D02*
Y177666D01*
X41901Y178199D01*
X42967D01*
X43500Y177666D01*
Y175533D01*
X42967Y175000D01*
X41901D01*
X42434Y176066D02*
X41367Y175000D01*
X41901D02*
X41367Y175533D01*
X38168Y175000D02*
X40301D01*
X38168Y177133D01*
Y177666D01*
X38702Y178199D01*
X39768D01*
X40301Y177666D01*
X109867Y71033D02*
Y73166D01*
X110400Y73699D01*
X111467D01*
X112000Y73166D01*
Y71033D01*
X111467Y70500D01*
X110400D01*
X110934Y71566D02*
X109867Y70500D01*
X110400D02*
X109867Y71033D01*
X106668Y70500D02*
X108801D01*
X106668Y72633D01*
Y73166D01*
X107202Y73699D01*
X108268D01*
X108801Y73166D01*
X82867Y81533D02*
Y83666D01*
X83400Y84199D01*
X84467D01*
X85000Y83666D01*
Y81533D01*
X84467Y81000D01*
X83400D01*
X83934Y82066D02*
X82867Y81000D01*
X83400D02*
X82867Y81533D01*
X79668Y81000D02*
X81801D01*
X79668Y83133D01*
Y83666D01*
X80202Y84199D01*
X81268D01*
X81801Y83666D01*
X72867Y82033D02*
Y84166D01*
X73400Y84699D01*
X74467D01*
X75000Y84166D01*
Y82033D01*
X74467Y81500D01*
X73400D01*
X73934Y82566D02*
X72867Y81500D01*
X73400D02*
X72867Y82033D01*
X69668Y81500D02*
X71801D01*
X69668Y83633D01*
Y84166D01*
X70201Y84699D01*
X71268D01*
X71801Y84166D01*
X49367Y54533D02*
Y56666D01*
X49900Y57199D01*
X50967D01*
X51500Y56666D01*
Y54533D01*
X50967Y54000D01*
X49900D01*
X50434Y55066D02*
X49367Y54000D01*
X49900D02*
X49367Y54533D01*
X46168Y54000D02*
X48301D01*
X46168Y56133D01*
Y56666D01*
X46701Y57199D01*
X47768D01*
X48301Y56666D01*
X40867Y71533D02*
Y73666D01*
X41401Y74199D01*
X42467D01*
X43000Y73666D01*
Y71533D01*
X42467Y71000D01*
X41401D01*
X41934Y72066D02*
X40867Y71000D01*
X41401D02*
X40867Y71533D01*
X37668Y71000D02*
X39801D01*
X37668Y73133D01*
Y73666D01*
X38201Y74199D01*
X39268D01*
X39801Y73666D01*
X57367Y114533D02*
Y116666D01*
X57901Y117199D01*
X58967D01*
X59500Y116666D01*
Y114533D01*
X58967Y114000D01*
X57901D01*
X58434Y115066D02*
X57367Y114000D01*
X57901D02*
X57367Y114533D01*
X56301Y114000D02*
X55235D01*
X55768D01*
Y117199D01*
X56301Y116666D01*
X35500Y217000D02*
Y220199D01*
X34434Y219133D01*
X33367Y220199D01*
Y217000D01*
X32301D02*
Y220199D01*
X30702D01*
X30168Y219666D01*
Y218600D01*
X30702Y218066D01*
X32301D01*
X31235D02*
X30168Y217000D01*
X26969D02*
X29102D01*
X26969Y219133D01*
Y219666D01*
X27503Y220199D01*
X28569D01*
X29102Y219666D01*
X75500Y47500D02*
X78699D01*
X77633Y48566D01*
X78699Y49633D01*
X75500D01*
Y50699D02*
X78699D01*
Y52298D01*
X78166Y52832D01*
X77100D01*
X76566Y52298D01*
Y50699D01*
Y51765D02*
X75500Y52832D01*
Y53898D02*
Y54964D01*
Y54431D01*
X78699D01*
X78166Y53898D01*
X112500Y19500D02*
X115699D01*
X114633Y20566D01*
X115699Y21633D01*
X112500D01*
X115699Y22699D02*
X112500D01*
Y24298D01*
X113033Y24832D01*
X113566D01*
X114100Y24298D01*
Y22699D01*
Y24298D01*
X114633Y24832D01*
X115166D01*
X115699Y24298D01*
Y22699D01*
X112500Y25898D02*
Y26964D01*
Y26431D01*
X115699D01*
X115166Y25898D01*
X26500Y153000D02*
X29699D01*
X28633Y154066D01*
X29699Y155133D01*
X26500D01*
X28100Y156199D02*
Y158332D01*
X29166Y157265D02*
X27033D01*
X26500Y161531D02*
Y159398D01*
X28633Y161531D01*
X29166D01*
X29699Y160997D01*
Y159931D01*
X29166Y159398D01*
X111334Y153367D02*
X110801Y153901D01*
Y154967D01*
X111334Y155500D01*
X113467D01*
X114000Y154967D01*
Y153901D01*
X113467Y153367D01*
X112400D01*
Y154434D01*
X111334Y152301D02*
X110801Y151768D01*
Y150701D01*
X111334Y150168D01*
X111867D01*
X112400Y150701D01*
X112934Y150168D01*
X113467D01*
X114000Y150701D01*
Y151768D01*
X113467Y152301D01*
X112934D01*
X112400Y151768D01*
X111867Y152301D01*
X111334D01*
X112400Y151768D02*
Y150701D01*
X30867Y166666D02*
X31400Y167199D01*
X32467D01*
X33000Y166666D01*
Y164533D01*
X32467Y164000D01*
X31400D01*
X30867Y164533D01*
Y165600D01*
X31934D01*
X27668Y164000D02*
X29801D01*
X27668Y166133D01*
Y166666D01*
X28201Y167199D01*
X29268D01*
X29801Y166666D01*
X97301Y203000D02*
X100500D01*
Y201400D01*
X99967Y200867D01*
X97834D01*
X97301Y201400D01*
Y203000D01*
X100500Y197668D02*
Y199801D01*
X98367Y197668D01*
X97834D01*
X97301Y198202D01*
Y199268D01*
X97834Y199801D01*
X90000Y190500D02*
X92133D01*
X93199Y191566D01*
X92133Y192633D01*
X90000D01*
X91600D01*
Y190500D01*
X72301Y208500D02*
X75500D01*
Y206901D01*
X74967Y206367D01*
X72834D01*
X72301Y206901D01*
Y208500D01*
X75500Y203168D02*
Y205301D01*
X73367Y203168D01*
X72834D01*
X72301Y203701D01*
Y204768D01*
X72834Y205301D01*
X79500Y190500D02*
X81633D01*
X82699Y191566D01*
X81633Y192633D01*
X79500D01*
X81099D01*
Y190500D01*
X38801Y211500D02*
X42000D01*
Y209900D01*
X41467Y209367D01*
X39334D01*
X38801Y209900D01*
Y211500D01*
X42000Y206168D02*
Y208301D01*
X39867Y206168D01*
X39334D01*
X38801Y206701D01*
Y207768D01*
X39334Y208301D01*
X46500Y190500D02*
X48633D01*
X49699Y191566D01*
X48633Y192633D01*
X46500D01*
X48099D01*
Y190500D01*
X85801Y49500D02*
X89000D01*
Y47901D01*
X88467Y47367D01*
X86334D01*
X85801Y47901D01*
Y49500D01*
X89000Y44168D02*
Y46301D01*
X86867Y44168D01*
X86334D01*
X85801Y44701D01*
Y45768D01*
X86334Y46301D01*
X100000Y70000D02*
X97867D01*
X96801Y68934D01*
X97867Y67867D01*
X100000D01*
X98400D01*
Y70000D01*
X91801Y25500D02*
X95000D01*
Y23900D01*
X94467Y23367D01*
X92334D01*
X91801Y23900D01*
Y25500D01*
X95000Y20168D02*
Y22301D01*
X92867Y20168D01*
X92334D01*
X91801Y20702D01*
Y21768D01*
X92334Y22301D01*
X89500Y42500D02*
X87367D01*
X86301Y41434D01*
X87367Y40367D01*
X89500D01*
X87901D01*
Y42500D01*
X80801Y50000D02*
X84000D01*
Y48401D01*
X83467Y47867D01*
X81334D01*
X80801Y48401D01*
Y50000D01*
X84000Y44668D02*
Y46801D01*
X81867Y44668D01*
X81334D01*
X80801Y45202D01*
Y46268D01*
X81334Y46801D01*
X80000Y42500D02*
X77867D01*
X76801Y41434D01*
X77867Y40367D01*
X80000D01*
X78400D01*
Y42500D01*
X49500Y47199D02*
Y44000D01*
X47901D01*
X47367Y44533D01*
Y46666D01*
X47901Y47199D01*
X49500D01*
X44168Y44000D02*
X46301D01*
X44168Y46133D01*
Y46666D01*
X44701Y47199D01*
X45768D01*
X46301Y46666D01*
X58500Y44000D02*
Y46133D01*
X57434Y47199D01*
X56367Y46133D01*
Y44000D01*
Y45599D01*
X58500D01*
X26801Y39500D02*
X30000D01*
Y37901D01*
X29467Y37367D01*
X27334D01*
X26801Y37901D01*
Y39500D01*
X30000Y34168D02*
Y36301D01*
X27867Y34168D01*
X27334D01*
X26801Y34701D01*
Y35768D01*
X27334Y36301D01*
X37000Y51000D02*
X34867D01*
X33801Y49934D01*
X34867Y48867D01*
X37000D01*
X35401D01*
Y51000D01*
X29500Y97199D02*
Y94000D01*
X27900D01*
X27367Y94533D01*
Y96666D01*
X27900Y97199D01*
X29500D01*
X26301Y94000D02*
X25235D01*
X25768D01*
Y97199D01*
X26301Y96666D01*
D31*
X48713Y86378D02*
X50287D01*
X48713Y83622D02*
X50287D01*
X67213Y97622D02*
X68787D01*
X67213Y100378D02*
X68787D01*
X91122Y94213D02*
Y95787D01*
X93878Y94213D02*
Y95787D01*
X85575Y101260D02*
Y102835D01*
X88331Y101260D02*
Y102835D01*
X81378Y134213D02*
Y135787D01*
X78622Y134213D02*
Y135787D01*
X87378Y134213D02*
Y135787D01*
X84622Y134213D02*
Y135787D01*
X92878Y140213D02*
Y141787D01*
X90122Y140213D02*
Y141787D01*
X81213Y159378D02*
X82787D01*
X81213Y156622D02*
X82787D01*
X64713Y159378D02*
X66287D01*
X64713Y156622D02*
X66287D01*
X45713Y159378D02*
X47287D01*
X45713Y156622D02*
X47287D01*
X100213Y90622D02*
X101787D01*
X100213Y93378D02*
X101787D01*
X83213Y93378D02*
X84787D01*
X83213Y90622D02*
X84787D01*
X67213Y93378D02*
X68787D01*
X67213Y90622D02*
X68787D01*
X47713Y79378D02*
X49287D01*
X47713Y76622D02*
X49287D01*
X33713Y82378D02*
X35287D01*
X33713Y79622D02*
X35287D01*
X49122Y145713D02*
Y147287D01*
X51878Y145713D02*
Y147287D01*
X30878Y105213D02*
Y106787D01*
X28122Y105213D02*
Y106787D01*
X39713Y107622D02*
X41287D01*
X39713Y110378D02*
X41287D01*
X45122Y96713D02*
Y98287D01*
X47878Y96713D02*
Y98287D01*
X36713Y124622D02*
X38287D01*
X36713Y127378D02*
X38287D01*
X36713Y132122D02*
X38287D01*
X36713Y134878D02*
X38287D01*
X44878Y145713D02*
Y147287D01*
X42122Y145713D02*
Y147287D01*
X35122Y145713D02*
Y147287D01*
X37878Y145713D02*
Y147287D01*
X88406Y169713D02*
Y173256D01*
X85256D02*
X88406D01*
X76595Y169713D02*
Y173256D01*
X79744D01*
X71406Y169713D02*
Y173256D01*
X68256D02*
X71406D01*
X59595Y169713D02*
Y173256D01*
X62744D01*
X52406Y169713D02*
Y173256D01*
X49256D02*
X52406D01*
X40595Y169713D02*
Y173256D01*
X43744D01*
X98094Y75744D02*
Y79287D01*
Y75744D02*
X101244D01*
X109906D02*
Y79287D01*
X106756Y75744D02*
X109906D01*
X93906Y75713D02*
Y79256D01*
X90756D02*
X93906D01*
X82095Y75713D02*
Y79256D01*
X85244D01*
X72905Y76213D02*
Y79756D01*
X69756D02*
X72905D01*
X61094Y76213D02*
Y79756D01*
X64244D01*
X56906Y65713D02*
Y69256D01*
X53756D02*
X56906D01*
X45094Y65713D02*
Y69256D01*
X48244D01*
X40405Y65713D02*
Y69256D01*
X37256D02*
X40405D01*
X28594Y65713D02*
Y69256D01*
X31744D01*
X61594Y112744D02*
Y116287D01*
Y112744D02*
X64744D01*
X73405D02*
Y116287D01*
X70256Y112744D02*
X73405D01*
X43406Y94213D02*
Y97756D01*
X40256D02*
X43406D01*
X31594Y94213D02*
Y97756D01*
X34744D01*
D32*
X62000Y17000D02*
X63000D01*
X64500Y14500D02*
Y15500D01*
X63000Y17000D02*
X64500Y15500D01*
M02*
