%FSLAX25Y25*%
%MOIN*%
G70*
G01*
G75*
G04 Layer_Color=128*
%ADD10R,0.02756X0.03543*%
%ADD11R,0.03543X0.02756*%
%ADD12O,0.02362X0.09055*%
%ADD13R,0.22835X0.25197*%
%ADD14R,0.03150X0.08661*%
%ADD15R,0.02362X0.04528*%
%ADD16C,0.01000*%
%ADD17C,0.07000*%
%ADD18C,0.06400*%
%ADD19C,0.06500*%
%ADD20R,0.60500X0.07500*%
%ADD21R,0.08000X0.18500*%
%ADD22C,0.07874*%
%ADD23C,0.04500*%
%ADD24R,0.03740X0.03543*%
%ADD25R,0.03543X0.03740*%
%ADD26C,0.01969*%
%ADD27R,0.09000X0.09500*%
%ADD28C,0.02362*%
%ADD29C,0.00984*%
%ADD30C,0.00600*%
%ADD31C,0.00787*%
%ADD32C,0.00500*%
%ADD33R,0.03556X0.04343*%
%ADD34R,0.04343X0.03556*%
%ADD35O,0.03162X0.09855*%
%ADD36R,0.23635X0.25997*%
%ADD37R,0.03386X0.08898*%
%ADD38R,0.03162X0.05328*%
%ADD39C,0.08674*%
%ADD40C,0.00800*%
%ADD41C,0.05300*%
%ADD42R,0.04540X0.04343*%
%ADD43R,0.04343X0.04540*%
D10*
X52453Y85000D02*
D03*
X46547D02*
D03*
X65047Y99000D02*
D03*
X70953D02*
D03*
X84953Y158000D02*
D03*
X79047D02*
D03*
X68453D02*
D03*
X62547D02*
D03*
X49453D02*
D03*
X43547D02*
D03*
X98047Y92000D02*
D03*
X103953D02*
D03*
X86953Y92000D02*
D03*
X81047D02*
D03*
X70953D02*
D03*
X65047D02*
D03*
X51453Y78000D02*
D03*
X45547D02*
D03*
X37453Y81000D02*
D03*
X31547D02*
D03*
X37547Y109000D02*
D03*
X43453D02*
D03*
X34547Y126000D02*
D03*
X40453D02*
D03*
X34547Y133500D02*
D03*
X40453D02*
D03*
D11*
X92500Y97953D02*
D03*
Y92047D02*
D03*
X86953Y105000D02*
D03*
Y99094D02*
D03*
X80000Y132047D02*
D03*
Y137953D02*
D03*
X86000Y132047D02*
D03*
Y137953D02*
D03*
X91500Y138047D02*
D03*
Y143953D02*
D03*
X50500Y149453D02*
D03*
Y143547D02*
D03*
X29500Y103047D02*
D03*
Y108953D02*
D03*
X46500Y100453D02*
D03*
Y94547D02*
D03*
X43500Y143547D02*
D03*
Y149453D02*
D03*
X36500Y149453D02*
D03*
Y143547D02*
D03*
D15*
X86240Y166071D02*
D03*
X78760D02*
D03*
X82500Y174929D02*
D03*
X69240Y166071D02*
D03*
X61760D02*
D03*
X65500Y174929D02*
D03*
X50240Y166071D02*
D03*
X42760D02*
D03*
X46500Y174929D02*
D03*
X100260Y82929D02*
D03*
X107740D02*
D03*
X104000Y74071D02*
D03*
X91740Y72071D02*
D03*
X84260D02*
D03*
X88000Y80929D02*
D03*
X70740Y72571D02*
D03*
X63260D02*
D03*
X67000Y81429D02*
D03*
X54740Y62071D02*
D03*
X47260D02*
D03*
X51000Y70929D02*
D03*
X38240Y62071D02*
D03*
X30760D02*
D03*
X34500Y70929D02*
D03*
X63760Y119929D02*
D03*
X71240D02*
D03*
X67500Y111071D02*
D03*
X41240Y90571D02*
D03*
X33760D02*
D03*
X37500Y99429D02*
D03*
D24*
X91500Y210402D02*
D03*
Y198000D02*
D03*
X81000Y210402D02*
D03*
Y198000D02*
D03*
X48000Y210402D02*
D03*
Y198000D02*
D03*
X94500Y50098D02*
D03*
Y62500D02*
D03*
X86000Y22598D02*
D03*
Y35000D02*
D03*
X76000Y22598D02*
D03*
Y35000D02*
D03*
X35500Y31098D02*
D03*
Y43500D02*
D03*
D25*
X44598Y38500D02*
D03*
X57000D02*
D03*
M02*
