%FSLAX25Y25*%
%MOIN*%
G70*
G01*
G75*
G04 Layer_Color=16776960*
%ADD10R,0.03543X0.02756*%
%ADD11R,0.22835X0.25197*%
%ADD12R,0.03150X0.08661*%
%ADD13R,0.02362X0.04528*%
%ADD14R,0.02756X0.03543*%
%ADD15O,0.02362X0.09055*%
%ADD16C,0.07000*%
%ADD17C,0.01000*%
%ADD18C,0.06400*%
%ADD19C,0.06500*%
%ADD20R,0.60500X0.07500*%
%ADD21R,0.08000X0.18500*%
%ADD22C,0.07874*%
%ADD23C,0.04500*%
%ADD24R,0.03740X0.03543*%
%ADD25R,0.03543X0.03740*%
%ADD26C,0.01969*%
%ADD27R,0.09000X0.09500*%
%ADD28C,0.00984*%
%ADD29C,0.02362*%
%ADD30C,0.00787*%
%ADD31C,0.00500*%
%ADD32C,0.00600*%
%ADD33R,0.04343X0.03556*%
%ADD34R,0.23635X0.25997*%
%ADD35R,0.03386X0.08898*%
%ADD36R,0.03162X0.05328*%
%ADD37R,0.03556X0.04343*%
%ADD38O,0.03162X0.09855*%
%ADD39C,0.00800*%
%ADD40C,0.08674*%
%ADD41C,0.05300*%
%ADD42R,0.04540X0.04343*%
%ADD43R,0.04343X0.04540*%
D17*
X77500Y194500D02*
X84500D01*
X77500D02*
Y214000D01*
X84500D01*
Y194500D02*
Y214000D01*
X32000Y47000D02*
X39000D01*
Y27500D02*
Y47000D01*
X32000Y27500D02*
X39000D01*
X32000D02*
Y47000D01*
X60500Y35000D02*
Y42000D01*
X41000Y35000D02*
X60500D01*
X41000D02*
Y42000D01*
X60500D01*
X72500Y38500D02*
X79500D01*
Y19000D02*
Y38500D01*
X72500Y19000D02*
X79500D01*
X72500D02*
Y38500D01*
X82500D02*
X89500D01*
Y19000D02*
Y38500D01*
X82500Y19000D02*
X89500D01*
X82500D02*
Y38500D01*
X91000Y66000D02*
X98000D01*
Y46500D02*
Y66000D01*
X91000Y46500D02*
X98000D01*
X91000D02*
Y66000D01*
X44500Y194500D02*
X51500D01*
X44500D02*
Y214000D01*
X51500D01*
Y194500D02*
Y214000D01*
X88000Y194500D02*
X95000D01*
X88000D02*
Y214000D01*
X95000D01*
Y194500D02*
Y214000D01*
D28*
X97405Y82929D02*
G03*
X97405Y82929I-492J0D01*
G01*
X95579Y72071D02*
G03*
X95579Y72071I-492J0D01*
G01*
X74579Y72571D02*
G03*
X74579Y72571I-492J0D01*
G01*
X58579Y62071D02*
G03*
X58579Y62071I-492J0D01*
G01*
X42079D02*
G03*
X42079Y62071I-492J0D01*
G01*
X45079Y90571D02*
G03*
X45079Y90571I-492J0D01*
G01*
X60905Y119929D02*
G03*
X60905Y119929I-492J0D01*
G01*
X54079Y166071D02*
G03*
X54079Y166071I-492J0D01*
G01*
X73079D02*
G03*
X73079Y166071I-492J0D01*
G01*
X90079D02*
G03*
X90079Y166071I-492J0D01*
G01*
D30*
X98094Y75744D02*
Y79287D01*
Y75744D02*
X101244D01*
X109906D02*
Y79287D01*
X106756Y75744D02*
X109906D01*
X100213Y90622D02*
X101787D01*
X100213Y93378D02*
X101787D01*
X83213Y93378D02*
X84787D01*
X83213Y90622D02*
X84787D01*
X67213Y93378D02*
X68787D01*
X67213Y90622D02*
X68787D01*
X93906Y75713D02*
Y79256D01*
X90756D02*
X93906D01*
X82095Y75713D02*
Y79256D01*
X85244D01*
X72905Y76213D02*
Y79756D01*
X69756D02*
X72905D01*
X61094Y76213D02*
Y79756D01*
X64244D01*
X56906Y65713D02*
Y69256D01*
X53756D02*
X56906D01*
X45094Y65713D02*
Y69256D01*
X48244D01*
X40405Y65713D02*
Y69256D01*
X37256D02*
X40405D01*
X28594Y65713D02*
Y69256D01*
X31744D01*
X48260Y81878D02*
X49835D01*
X48260Y79122D02*
X49835D01*
X43406Y94213D02*
Y97756D01*
X40256D02*
X43406D01*
X31594Y94213D02*
Y97756D01*
X34744D01*
X33713Y82378D02*
X35287D01*
X33713Y79622D02*
X35287D01*
X35122Y145713D02*
Y147287D01*
X37878Y145713D02*
Y147287D01*
X49122Y145713D02*
Y147287D01*
X51878Y145713D02*
Y147287D01*
X81213Y159378D02*
X82787D01*
X81213Y156622D02*
X82787D01*
X64713Y159378D02*
X66287D01*
X64713Y156622D02*
X66287D01*
X61594Y112744D02*
Y116287D01*
Y112744D02*
X64744D01*
X73405D02*
Y116287D01*
X70256Y112744D02*
X73405D01*
X39713Y107622D02*
X41287D01*
X39713Y110378D02*
X41287D01*
X36713Y124622D02*
X38287D01*
X36713Y127378D02*
X38287D01*
X36713Y132122D02*
X38287D01*
X36713Y134878D02*
X38287D01*
X44878Y145713D02*
Y147287D01*
X42122Y145713D02*
Y147287D01*
X52406Y169713D02*
Y173256D01*
X49256D02*
X52406D01*
X40595Y169713D02*
Y173256D01*
X43744D01*
X71406Y169713D02*
Y173256D01*
X68256D02*
X71406D01*
X59595Y169713D02*
Y173256D01*
X62744D01*
X88406Y169713D02*
Y173256D01*
X85256D02*
X88406D01*
X76595Y169713D02*
Y173256D01*
X79744D01*
X30878Y105213D02*
Y106787D01*
X28122Y105213D02*
Y106787D01*
X45713Y159378D02*
X47287D01*
X45713Y156622D02*
X47287D01*
X47622Y92713D02*
Y94287D01*
X50378Y92713D02*
Y94287D01*
D31*
X62000Y17000D02*
X63000D01*
X65500Y15000D02*
Y16000D01*
X63000Y17000D02*
X64500Y15500D01*
D32*
X67500Y51500D02*
X69500Y53500D01*
X73000D01*
X68000Y39500D02*
X69400Y40900D01*
X40500Y58199D02*
Y56066D01*
X39434Y55000D01*
X38367Y56066D01*
Y58199D01*
X37301Y55000D02*
Y58199D01*
X35702D01*
X35168Y57666D01*
Y56599D01*
X35702Y56066D01*
X37301D01*
X36235D02*
X35168Y55000D01*
X31969Y58199D02*
X34102D01*
Y55000D01*
X31969D01*
X34102Y56599D02*
X33036D01*
X28770Y58199D02*
X30903D01*
Y56599D01*
X29837D01*
X30903D01*
Y55000D01*
X27704D02*
X26638D01*
X27171D01*
Y58199D01*
X27704Y57666D01*
X27500Y6699D02*
Y4566D01*
X26434Y3500D01*
X25367Y4566D01*
Y6699D01*
X24301D02*
Y3500D01*
X22702D01*
X22168Y4033D01*
Y6166D01*
X22702Y6699D01*
X24301D01*
X21102D02*
Y3500D01*
X19503D01*
X18969Y4033D01*
Y6166D01*
X19503Y6699D01*
X21102D01*
X17903Y6166D02*
X17370Y6699D01*
X16304D01*
X15770Y6166D01*
Y5633D01*
X16304Y5099D01*
X15770Y4566D01*
Y4033D01*
X16304Y3500D01*
X17370D01*
X17903Y4033D01*
Y4566D01*
X17370Y5099D01*
X17903Y5633D01*
Y6166D01*
X17370Y5099D02*
X16304D01*
X62000Y13699D02*
Y11566D01*
X60934Y10500D01*
X59867Y11566D01*
Y13699D01*
X58801D02*
Y10500D01*
X57201D01*
X56668Y11033D01*
Y13166D01*
X57201Y13699D01*
X58801D01*
X55602D02*
Y10500D01*
X54003D01*
X53469Y11033D01*
Y13166D01*
X54003Y13699D01*
X55602D01*
X52403D02*
X50270D01*
Y13166D01*
X52403Y11033D01*
Y10500D01*
X58699Y15500D02*
X56566D01*
X55500Y16566D01*
X56566Y17633D01*
X58699D01*
Y18699D02*
X55500D01*
Y20298D01*
X56033Y20832D01*
X58166D01*
X58699Y20298D01*
Y18699D01*
Y21898D02*
X55500D01*
Y23497D01*
X56033Y24031D01*
X58166D01*
X58699Y23497D01*
Y21898D01*
Y27230D02*
X58166Y26163D01*
X57099Y25097D01*
X56033D01*
X55500Y25630D01*
Y26696D01*
X56033Y27230D01*
X56566D01*
X57099Y26696D01*
Y25097D01*
X37000Y140199D02*
Y138066D01*
X35934Y137000D01*
X34867Y138066D01*
Y140199D01*
X33801D02*
Y137000D01*
X32201D01*
X31668Y137533D01*
Y139666D01*
X32201Y140199D01*
X33801D01*
X30602D02*
Y137000D01*
X29003D01*
X28469Y137533D01*
Y139666D01*
X29003Y140199D01*
X30602D01*
X25270D02*
X27403D01*
Y138600D01*
X26337Y139133D01*
X25804D01*
X25270Y138600D01*
Y137533D01*
X25804Y137000D01*
X26870D01*
X27403Y137533D01*
X81500Y13699D02*
Y11566D01*
X80434Y10500D01*
X79367Y11566D01*
Y13699D01*
X78301D02*
Y10500D01*
X76701D01*
X76168Y11033D01*
Y13166D01*
X76701Y13699D01*
X78301D01*
X75102D02*
Y10500D01*
X73503D01*
X72969Y11033D01*
Y13166D01*
X73503Y13699D01*
X75102D01*
X70304Y10500D02*
Y13699D01*
X71903Y12100D01*
X69770D01*
X95000Y15199D02*
Y13066D01*
X93934Y12000D01*
X92867Y13066D01*
Y15199D01*
X91801D02*
Y12000D01*
X90201D01*
X89668Y12533D01*
Y14666D01*
X90201Y15199D01*
X91801D01*
X88602D02*
Y12000D01*
X87003D01*
X86469Y12533D01*
Y14666D01*
X87003Y15199D01*
X88602D01*
X85403Y14666D02*
X84870Y15199D01*
X83804D01*
X83271Y14666D01*
Y14133D01*
X83804Y13600D01*
X84337D01*
X83804D01*
X83271Y13066D01*
Y12533D01*
X83804Y12000D01*
X84870D01*
X85403Y12533D01*
X48500Y13699D02*
Y11566D01*
X47434Y10500D01*
X46367Y11566D01*
Y13699D01*
X45301D02*
Y10500D01*
X43701D01*
X43168Y11033D01*
Y13166D01*
X43701Y13699D01*
X45301D01*
X42102D02*
Y10500D01*
X40503D01*
X39969Y11033D01*
Y13166D01*
X40503Y13699D01*
X42102D01*
X36770Y10500D02*
X38903D01*
X36770Y12633D01*
Y13166D01*
X37304Y13699D01*
X38370D01*
X38903Y13166D01*
X111000Y11199D02*
Y9066D01*
X109934Y8000D01*
X108867Y9066D01*
Y11199D01*
X107801D02*
Y8000D01*
X106202D01*
X105668Y8533D01*
Y10666D01*
X106202Y11199D01*
X107801D01*
X104602D02*
Y8000D01*
X103003D01*
X102469Y8533D01*
Y10666D01*
X103003Y11199D01*
X104602D01*
X101403Y8000D02*
X100337D01*
X100870D01*
Y11199D01*
X101403Y10666D01*
X73199Y42000D02*
X71066D01*
X70000Y43066D01*
X71066Y44133D01*
X73199D01*
X71600Y45199D02*
Y47332D01*
X72666Y48398D02*
X73199Y48931D01*
Y49997D01*
X72666Y50531D01*
X72133D01*
X71600Y49997D01*
Y49464D01*
Y49997D01*
X71066Y50531D01*
X70533D01*
X70000Y49997D01*
Y48931D01*
X70533Y48398D01*
X99500Y164199D02*
Y162066D01*
X98434Y161000D01*
X97367Y162066D01*
Y164199D01*
X96301Y162600D02*
X94168D01*
X95235Y163666D02*
Y161533D01*
X91503Y161000D02*
Y164199D01*
X93102Y162600D01*
X90969D01*
X35500Y176699D02*
Y174566D01*
X34434Y173500D01*
X33367Y174566D01*
Y176699D01*
X32301Y175100D02*
X30168D01*
X31235Y176166D02*
Y174033D01*
X29102Y176166D02*
X28569Y176699D01*
X27503D01*
X26969Y176166D01*
Y175633D01*
X27503Y175100D01*
X28036D01*
X27503D01*
X26969Y174566D01*
Y174033D01*
X27503Y173500D01*
X28569D01*
X29102Y174033D01*
X100000Y186199D02*
Y184066D01*
X98934Y183000D01*
X97867Y184066D01*
Y186199D01*
X96801Y184599D02*
X94668D01*
X95735Y185666D02*
Y183533D01*
X91469Y183000D02*
X93602D01*
X91469Y185133D01*
Y185666D01*
X92003Y186199D01*
X93069D01*
X93602Y185666D01*
X101500Y44199D02*
Y42066D01*
X100434Y41000D01*
X99367Y42066D01*
Y44199D01*
X98301Y42599D02*
X96168D01*
X97235Y43666D02*
Y41533D01*
X95102Y41000D02*
X94036D01*
X94569D01*
Y44199D01*
X95102Y43666D01*
X29166Y46133D02*
X29699Y45599D01*
Y44533D01*
X29166Y44000D01*
X28633D01*
X28100Y44533D01*
Y45599D01*
X27566Y46133D01*
X27033D01*
X26500Y45599D01*
Y44533D01*
X27033Y44000D01*
X26500Y47199D02*
X29699D01*
Y48798D01*
X29166Y49332D01*
X28100D01*
X27566Y48798D01*
Y47199D01*
X26500Y52531D02*
Y50398D01*
X28633Y52531D01*
X29166D01*
X29699Y51997D01*
Y50931D01*
X29166Y50398D01*
X97367Y144166D02*
X97900Y144699D01*
X98967D01*
X99500Y144166D01*
Y143633D01*
X98967Y143099D01*
X97900D01*
X97367Y142566D01*
Y142033D01*
X97900Y141500D01*
X98967D01*
X99500Y142033D01*
X96301Y144699D02*
Y141500D01*
X94701D01*
X94168Y142033D01*
Y144166D01*
X94701Y144699D01*
X96301D01*
X93102Y141500D02*
Y143633D01*
X92036Y144699D01*
X90969Y143633D01*
Y141500D01*
Y143099D01*
X93102D01*
X89903Y141500D02*
X88837D01*
X89370D01*
Y144699D01*
X89903Y144166D01*
X97867Y133166D02*
X98400Y133699D01*
X99467D01*
X100000Y133166D01*
Y132633D01*
X99467Y132099D01*
X98400D01*
X97867Y131566D01*
Y131033D01*
X98400Y130500D01*
X99467D01*
X100000Y131033D01*
X94668Y133166D02*
X95201Y133699D01*
X96268D01*
X96801Y133166D01*
Y131033D01*
X96268Y130500D01*
X95201D01*
X94668Y131033D01*
X93602Y133699D02*
Y130500D01*
X91469D01*
X90403D02*
X89337D01*
X89870D01*
Y133699D01*
X90403Y133166D01*
X86000Y151000D02*
Y154199D01*
X84400D01*
X83867Y153666D01*
Y152600D01*
X84400Y152066D01*
X86000D01*
X84934D02*
X83867Y151000D01*
X82801D02*
X81735D01*
X82268D01*
Y154199D01*
X82801Y153666D01*
X78536Y151000D02*
Y154199D01*
X80135Y152600D01*
X78003D01*
X69000Y151500D02*
Y154699D01*
X67400D01*
X66867Y154166D01*
Y153100D01*
X67400Y152566D01*
X69000D01*
X67934D02*
X66867Y151500D01*
X65801D02*
X64735D01*
X65268D01*
Y154699D01*
X65801Y154166D01*
X61536Y151500D02*
Y154699D01*
X63135Y153100D01*
X61003D01*
X40500Y156000D02*
Y159199D01*
X38901D01*
X38367Y158666D01*
Y157599D01*
X38901Y157066D01*
X40500D01*
X39434D02*
X38367Y156000D01*
X37301D02*
X36235D01*
X36768D01*
Y159199D01*
X37301Y158666D01*
X33036Y156000D02*
Y159199D01*
X34635Y157599D01*
X32503D01*
X103000Y95500D02*
Y98699D01*
X101400D01*
X100867Y98166D01*
Y97100D01*
X101400Y96566D01*
X103000D01*
X101934D02*
X100867Y95500D01*
X99801D02*
X98735D01*
X99268D01*
Y98699D01*
X99801Y98166D01*
X95536Y95500D02*
Y98699D01*
X97135Y97100D01*
X95003D01*
X87000Y96000D02*
Y99199D01*
X85400D01*
X84867Y98666D01*
Y97600D01*
X85400Y97066D01*
X87000D01*
X85934D02*
X84867Y96000D01*
X83801D02*
X82735D01*
X83268D01*
Y99199D01*
X83801Y98666D01*
X79536Y96000D02*
Y99199D01*
X81135Y97600D01*
X79003D01*
X71500Y96000D02*
Y99199D01*
X69901D01*
X69367Y98666D01*
Y97600D01*
X69901Y97066D01*
X71500D01*
X70434D02*
X69367Y96000D01*
X68301D02*
X67235D01*
X67768D01*
Y99199D01*
X68301Y98666D01*
X64036Y96000D02*
Y99199D01*
X65635Y97600D01*
X63503D01*
X52547Y84000D02*
Y87199D01*
X50948D01*
X50415Y86666D01*
Y85599D01*
X50948Y85066D01*
X52547D01*
X51481D02*
X50415Y84000D01*
X49348D02*
X48282D01*
X48815D01*
Y87199D01*
X49348Y86666D01*
X45083Y84000D02*
Y87199D01*
X46683Y85599D01*
X44550D01*
X28000Y79500D02*
Y82699D01*
X26401D01*
X25867Y82166D01*
Y81099D01*
X26401Y80566D01*
X28000D01*
X26934D02*
X25867Y79500D01*
X24801D02*
X23735D01*
X24268D01*
Y82699D01*
X24801Y82166D01*
X20536Y79500D02*
Y82699D01*
X22135Y81099D01*
X20003D01*
X57000Y150500D02*
X53801D01*
Y148900D01*
X54334Y148367D01*
X55401D01*
X55934Y148900D01*
Y150500D01*
Y149434D02*
X57000Y148367D01*
Y147301D02*
Y146235D01*
Y146768D01*
X53801D01*
X54334Y147301D01*
X57000Y142503D02*
Y144635D01*
X54867Y142503D01*
X54334D01*
X53801Y143036D01*
Y144102D01*
X54334Y144635D01*
X28000Y112000D02*
X31199D01*
Y113600D01*
X30666Y114133D01*
X29599D01*
X29066Y113600D01*
Y112000D01*
Y113066D02*
X28000Y114133D01*
X30666Y115199D02*
X31199Y115732D01*
Y116798D01*
X30666Y117332D01*
X30133D01*
X29599Y116798D01*
X29066Y117332D01*
X28533D01*
X28000Y116798D01*
Y115732D01*
X28533Y115199D01*
X29066D01*
X29599Y115732D01*
X30133Y115199D01*
X30666D01*
X29599Y115732D02*
Y116798D01*
X43000Y112500D02*
Y115699D01*
X41401D01*
X40867Y115166D01*
Y114100D01*
X41401Y113566D01*
X43000D01*
X41934D02*
X40867Y112500D01*
X39801Y115699D02*
X37668D01*
Y115166D01*
X39801Y113033D01*
Y112500D01*
X47500Y99500D02*
X50699D01*
Y101100D01*
X50166Y101633D01*
X49099D01*
X48566Y101100D01*
Y99500D01*
Y100566D02*
X47500Y101633D01*
X50699Y104832D02*
X50166Y103765D01*
X49099Y102699D01*
X48033D01*
X47500Y103232D01*
Y104298D01*
X48033Y104832D01*
X48566D01*
X49099Y104298D01*
Y102699D01*
X31500Y124500D02*
Y127699D01*
X29901D01*
X29367Y127166D01*
Y126100D01*
X29901Y125566D01*
X31500D01*
X30434D02*
X29367Y124500D01*
X26168Y127699D02*
X28301D01*
Y126100D01*
X27235Y126633D01*
X26702D01*
X26168Y126100D01*
Y125033D01*
X26702Y124500D01*
X27768D01*
X28301Y125033D01*
X31500Y132000D02*
Y135199D01*
X29901D01*
X29367Y134666D01*
Y133599D01*
X29901Y133066D01*
X31500D01*
X30434D02*
X29367Y132000D01*
X26702D02*
Y135199D01*
X28301Y133599D01*
X26168D01*
X45500Y140500D02*
X42301D01*
Y138900D01*
X42834Y138367D01*
X43900D01*
X44434Y138900D01*
Y140500D01*
Y139434D02*
X45500Y138367D01*
X42834Y137301D02*
X42301Y136768D01*
Y135702D01*
X42834Y135168D01*
X43367D01*
X43900Y135702D01*
Y136235D01*
Y135702D01*
X44434Y135168D01*
X44967D01*
X45500Y135702D01*
Y136768D01*
X44967Y137301D01*
X32500Y150500D02*
X29301D01*
Y148900D01*
X29834Y148367D01*
X30900D01*
X31434Y148900D01*
Y150500D01*
Y149434D02*
X32500Y148367D01*
Y145168D02*
Y147301D01*
X30367Y145168D01*
X29834D01*
X29301Y145702D01*
Y146768D01*
X29834Y147301D01*
X76867Y176033D02*
Y178166D01*
X77400Y178699D01*
X78467D01*
X79000Y178166D01*
Y176033D01*
X78467Y175500D01*
X77400D01*
X77934Y176566D02*
X76867Y175500D01*
X77400D02*
X76867Y176033D01*
X73668Y175500D02*
X75801D01*
X73668Y177633D01*
Y178166D01*
X74202Y178699D01*
X75268D01*
X75801Y178166D01*
X60367Y175533D02*
Y177666D01*
X60900Y178199D01*
X61967D01*
X62500Y177666D01*
Y175533D01*
X61967Y175000D01*
X60900D01*
X61434Y176066D02*
X60367Y175000D01*
X60900D02*
X60367Y175533D01*
X57168Y175000D02*
X59301D01*
X57168Y177133D01*
Y177666D01*
X57701Y178199D01*
X58768D01*
X59301Y177666D01*
X41367Y175533D02*
Y177666D01*
X41901Y178199D01*
X42967D01*
X43500Y177666D01*
Y175533D01*
X42967Y175000D01*
X41901D01*
X42434Y176066D02*
X41367Y175000D01*
X41901D02*
X41367Y175533D01*
X38168Y175000D02*
X40301D01*
X38168Y177133D01*
Y177666D01*
X38702Y178199D01*
X39768D01*
X40301Y177666D01*
X109867Y71033D02*
Y73166D01*
X110400Y73699D01*
X111467D01*
X112000Y73166D01*
Y71033D01*
X111467Y70500D01*
X110400D01*
X110934Y71566D02*
X109867Y70500D01*
X110400D02*
X109867Y71033D01*
X106668Y70500D02*
X108801D01*
X106668Y72633D01*
Y73166D01*
X107202Y73699D01*
X108268D01*
X108801Y73166D01*
X82867Y81533D02*
Y83666D01*
X83400Y84199D01*
X84467D01*
X85000Y83666D01*
Y81533D01*
X84467Y81000D01*
X83400D01*
X83934Y82066D02*
X82867Y81000D01*
X83400D02*
X82867Y81533D01*
X79668Y81000D02*
X81801D01*
X79668Y83133D01*
Y83666D01*
X80202Y84199D01*
X81268D01*
X81801Y83666D01*
X72867Y82033D02*
Y84166D01*
X73400Y84699D01*
X74467D01*
X75000Y84166D01*
Y82033D01*
X74467Y81500D01*
X73400D01*
X73934Y82566D02*
X72867Y81500D01*
X73400D02*
X72867Y82033D01*
X69668Y81500D02*
X71801D01*
X69668Y83633D01*
Y84166D01*
X70201Y84699D01*
X71268D01*
X71801Y84166D01*
X56867Y71533D02*
Y73666D01*
X57401Y74199D01*
X58467D01*
X59000Y73666D01*
Y71533D01*
X58467Y71000D01*
X57401D01*
X57934Y72066D02*
X56867Y71000D01*
X57401D02*
X56867Y71533D01*
X53668Y71000D02*
X55801D01*
X53668Y73133D01*
Y73666D01*
X54202Y74199D01*
X55268D01*
X55801Y73666D01*
X40867Y71533D02*
Y73666D01*
X41401Y74199D01*
X42467D01*
X43000Y73666D01*
Y71533D01*
X42467Y71000D01*
X41401D01*
X41934Y72066D02*
X40867Y71000D01*
X41401D02*
X40867Y71533D01*
X37668Y71000D02*
X39801D01*
X37668Y73133D01*
Y73666D01*
X38201Y74199D01*
X39268D01*
X39801Y73666D01*
X73367Y107033D02*
Y109166D01*
X73901Y109699D01*
X74967D01*
X75500Y109166D01*
Y107033D01*
X74967Y106500D01*
X73901D01*
X74434Y107566D02*
X73367Y106500D01*
X73901D02*
X73367Y107033D01*
X72301Y106500D02*
X71235D01*
X71768D01*
Y109699D01*
X72301Y109166D01*
X35500Y217000D02*
Y220199D01*
X34434Y219133D01*
X33367Y220199D01*
Y217000D01*
X32301D02*
Y220199D01*
X30702D01*
X30168Y219666D01*
Y218600D01*
X30702Y218066D01*
X32301D01*
X31235D02*
X30168Y217000D01*
X26969D02*
X29102D01*
X26969Y219133D01*
Y219666D01*
X27503Y220199D01*
X28569D01*
X29102Y219666D01*
X75500Y47500D02*
X78699D01*
X77633Y48566D01*
X78699Y49633D01*
X75500D01*
Y50699D02*
X78699D01*
Y52298D01*
X78166Y52832D01*
X77100D01*
X76566Y52298D01*
Y50699D01*
Y51765D02*
X75500Y52832D01*
Y53898D02*
Y54964D01*
Y54431D01*
X78699D01*
X78166Y53898D01*
X97500Y19000D02*
X100699D01*
X99633Y20066D01*
X100699Y21133D01*
X97500D01*
X100699Y22199D02*
X97500D01*
Y23798D01*
X98033Y24332D01*
X98566D01*
X99099Y23798D01*
Y22199D01*
Y23798D01*
X99633Y24332D01*
X100166D01*
X100699Y23798D01*
Y22199D01*
X97500Y25398D02*
Y26464D01*
Y25931D01*
X100699D01*
X100166Y25398D01*
X26500Y153000D02*
X29699D01*
X28633Y154066D01*
X29699Y155133D01*
X26500D01*
X28100Y156199D02*
Y158332D01*
X29166Y157265D02*
X27033D01*
X26500Y161531D02*
Y159398D01*
X28633Y161531D01*
X29166D01*
X29699Y160997D01*
Y159931D01*
X29166Y159398D01*
X97867Y155166D02*
X98400Y155699D01*
X99467D01*
X100000Y155166D01*
Y153033D01*
X99467Y152500D01*
X98400D01*
X97867Y153033D01*
Y154100D01*
X98934D01*
X96801Y155166D02*
X96268Y155699D01*
X95201D01*
X94668Y155166D01*
Y154633D01*
X95201Y154100D01*
X94668Y153566D01*
Y153033D01*
X95201Y152500D01*
X96268D01*
X96801Y153033D01*
Y153566D01*
X96268Y154100D01*
X96801Y154633D01*
Y155166D01*
X96268Y154100D02*
X95201D01*
X30867Y166666D02*
X31400Y167199D01*
X32467D01*
X33000Y166666D01*
Y164533D01*
X32467Y164000D01*
X31400D01*
X30867Y164533D01*
Y165600D01*
X31934D01*
X27668Y164000D02*
X29801D01*
X27668Y166133D01*
Y166666D01*
X28201Y167199D01*
X29268D01*
X29801Y166666D01*
X97301Y203000D02*
X100500D01*
Y201400D01*
X99967Y200867D01*
X97834D01*
X97301Y201400D01*
Y203000D01*
X100500Y197668D02*
Y199801D01*
X98367Y197668D01*
X97834D01*
X97301Y198202D01*
Y199268D01*
X97834Y199801D01*
X72301Y208500D02*
X75500D01*
Y206901D01*
X74967Y206367D01*
X72834D01*
X72301Y206901D01*
Y208500D01*
X75500Y203168D02*
Y205301D01*
X73367Y203168D01*
X72834D01*
X72301Y203701D01*
Y204768D01*
X72834Y205301D01*
X38801Y211500D02*
X42000D01*
Y209900D01*
X41467Y209367D01*
X39334D01*
X38801Y209900D01*
Y211500D01*
X42000Y206168D02*
Y208301D01*
X39867Y206168D01*
X39334D01*
X38801Y206701D01*
Y207768D01*
X39334Y208301D01*
X85801Y49500D02*
X89000D01*
Y47901D01*
X88467Y47367D01*
X86334D01*
X85801Y47901D01*
Y49500D01*
X89000Y44168D02*
Y46301D01*
X86867Y44168D01*
X86334D01*
X85801Y44701D01*
Y45768D01*
X86334Y46301D01*
X91801Y25500D02*
X95000D01*
Y23900D01*
X94467Y23367D01*
X92334D01*
X91801Y23900D01*
Y25500D01*
X95000Y20168D02*
Y22301D01*
X92867Y20168D01*
X92334D01*
X91801Y20702D01*
Y21768D01*
X92334Y22301D01*
X80801Y50000D02*
X84000D01*
Y48401D01*
X83467Y47867D01*
X81334D01*
X80801Y48401D01*
Y50000D01*
X84000Y44668D02*
Y46801D01*
X81867Y44668D01*
X81334D01*
X80801Y45202D01*
Y46268D01*
X81334Y46801D01*
X49500Y47199D02*
Y44000D01*
X47901D01*
X47367Y44533D01*
Y46666D01*
X47901Y47199D01*
X49500D01*
X44168Y44000D02*
X46301D01*
X44168Y46133D01*
Y46666D01*
X44701Y47199D01*
X45768D01*
X46301Y46666D01*
X26801Y39500D02*
X30000D01*
Y37901D01*
X29467Y37367D01*
X27334D01*
X26801Y37901D01*
Y39500D01*
X30000Y34168D02*
Y36301D01*
X27867Y34168D01*
X27334D01*
X26801Y34701D01*
Y35768D01*
X27334Y36301D01*
X29500Y97199D02*
Y94000D01*
X27900D01*
X27367Y94533D01*
Y96666D01*
X27900Y97199D01*
X29500D01*
X26301Y94000D02*
X25235D01*
X25768D01*
Y97199D01*
X26301Y96666D01*
X79500Y190500D02*
X81633D01*
X82699Y191566D01*
X81633Y192633D01*
X79500D01*
X81099D01*
Y190500D01*
X37000Y51000D02*
X34867D01*
X33801Y49934D01*
X34867Y48867D01*
X37000D01*
X35401D01*
Y51000D01*
X58500Y44000D02*
Y46133D01*
X57434Y47199D01*
X56367Y46133D01*
Y44000D01*
Y45599D01*
X58500D01*
X80000Y42500D02*
X77867D01*
X76801Y41434D01*
X77867Y40367D01*
X80000D01*
X78400D01*
Y42500D01*
X89500D02*
X87367D01*
X86301Y41434D01*
X87367Y40367D01*
X89500D01*
X87901D01*
Y42500D01*
X100000Y70000D02*
X97867D01*
X96801Y68934D01*
X97867Y67867D01*
X100000D01*
X98400D01*
Y70000D01*
X46500Y190500D02*
X48633D01*
X49699Y191566D01*
X48633Y192633D01*
X46500D01*
X48099D01*
Y190500D01*
X90000D02*
X92133D01*
X93199Y191566D01*
X92133Y192633D01*
X90000D01*
X91600D01*
Y190500D01*
M02*
