%FSLAX25Y25*%
%MOIN*%
G70*
G01*
G75*
G04 Layer_Color=16711935*
%ADD10R,0.03543X0.02756*%
%ADD11R,0.22835X0.25197*%
%ADD12R,0.03150X0.08661*%
%ADD13R,0.02362X0.04528*%
%ADD14R,0.02756X0.03543*%
%ADD15O,0.02362X0.09055*%
%ADD16C,0.07000*%
%ADD17C,0.01000*%
%ADD18C,0.06400*%
%ADD19C,0.06500*%
%ADD20R,0.60500X0.07500*%
%ADD21R,0.08000X0.18500*%
%ADD22C,0.07874*%
%ADD23C,0.04500*%
%ADD24R,0.03740X0.03543*%
%ADD25R,0.03543X0.03740*%
%ADD26C,0.01969*%
%ADD27R,0.09000X0.09500*%
%ADD28C,0.00984*%
%ADD29C,0.02362*%
%ADD30C,0.00787*%
%ADD31C,0.00500*%
%ADD32C,0.00600*%
%ADD33R,0.04343X0.03556*%
%ADD34R,0.23635X0.25997*%
%ADD35R,0.03386X0.08898*%
%ADD36R,0.03162X0.05328*%
%ADD37R,0.03556X0.04343*%
%ADD38O,0.03162X0.09855*%
%ADD39C,0.00800*%
%ADD40C,0.08674*%
%ADD41C,0.05300*%
%ADD42R,0.04540X0.04343*%
%ADD43R,0.04343X0.04540*%
%ADD44C,0.04724*%
%ADD45C,0.00394*%
D45*
X33362Y106583D02*
G03*
X33362Y106583I-1969J0D01*
G01*
X105130Y200346D02*
X108870D01*
X105130Y193654D02*
X108870D01*
Y200346D01*
X105130Y193654D02*
Y200346D01*
X98094Y81256D02*
X109906D01*
X98094Y75744D02*
X109906D01*
X98094D02*
Y81256D01*
X109906Y75744D02*
Y81256D01*
X97654Y90130D02*
Y93870D01*
X104347Y90130D02*
Y93870D01*
X97654Y90130D02*
X104347D01*
X97654Y93870D02*
X104347D01*
X87347Y90130D02*
Y93870D01*
X80654Y90130D02*
Y93870D01*
X87347D01*
X80654Y90130D02*
X87347D01*
X71346D02*
Y93870D01*
X64653Y90130D02*
Y93870D01*
X71346D01*
X64653Y90130D02*
X71346D01*
X82095Y73744D02*
X93906D01*
X82095Y79256D02*
X93906D01*
Y73744D02*
Y79256D01*
X82095Y73744D02*
Y79256D01*
X61094Y74244D02*
X72905D01*
X61094Y79756D02*
X72905D01*
Y74244D02*
Y79756D01*
X61094Y74244D02*
Y79756D01*
X45094Y63744D02*
X56906D01*
X45094Y69256D02*
X56906D01*
Y63744D02*
Y69256D01*
X45094Y63744D02*
Y69256D01*
X28594Y63744D02*
X40405D01*
X28594Y69256D02*
X40405D01*
Y63744D02*
Y69256D01*
X28594Y63744D02*
Y69256D01*
X52394Y78630D02*
Y82370D01*
X45701Y78630D02*
Y82370D01*
X52394D01*
X45701Y78630D02*
X52394D01*
X31594Y92244D02*
X43406D01*
X31594Y97756D02*
X43406D01*
Y92244D02*
Y97756D01*
X31594Y92244D02*
Y97756D01*
X37846Y79130D02*
Y82870D01*
X31154Y79130D02*
Y82870D01*
X37846D01*
X31154Y79130D02*
X37846D01*
X34630Y149846D02*
X38370D01*
X34630Y143154D02*
X38370D01*
X34630D02*
Y149846D01*
X38370Y143154D02*
Y149846D01*
X48630D02*
X52370D01*
X48630Y143154D02*
X52370D01*
X48630D02*
Y149846D01*
X52370Y143154D02*
Y149846D01*
X85347Y156130D02*
Y159870D01*
X78654Y156130D02*
Y159870D01*
X85347D01*
X78654Y156130D02*
X85347D01*
X68846D02*
Y159870D01*
X62154Y156130D02*
Y159870D01*
X68846D01*
X62154Y156130D02*
X68846D01*
X61594Y118256D02*
X73405D01*
X61594Y112744D02*
X73405D01*
X61594D02*
Y118256D01*
X73405Y112744D02*
Y118256D01*
X37154Y107130D02*
Y110870D01*
X43846Y107130D02*
Y110870D01*
X37154Y107130D02*
X43846D01*
X37154Y110870D02*
X43846D01*
X34154Y124130D02*
Y127870D01*
X40846Y124130D02*
Y127870D01*
X34154Y124130D02*
X40846D01*
X34154Y127870D02*
X40846D01*
X34154Y131630D02*
Y135370D01*
X40846Y131630D02*
Y135370D01*
X34154Y131630D02*
X40846D01*
X34154Y135370D02*
X40846D01*
X41630Y143154D02*
X45370D01*
X41630Y149846D02*
X45370D01*
Y143154D02*
Y149846D01*
X41630Y143154D02*
Y149846D01*
X40595Y167744D02*
X52406D01*
X40595Y173256D02*
X52406D01*
Y167744D02*
Y173256D01*
X40595Y167744D02*
Y173256D01*
X59595Y167744D02*
X71406D01*
X59595Y173256D02*
X71406D01*
Y167744D02*
Y173256D01*
X59595Y167744D02*
Y173256D01*
X76595Y167744D02*
X88406D01*
X76595Y173256D02*
X88406D01*
Y167744D02*
Y173256D01*
X76595Y167744D02*
Y173256D01*
X80594Y154744D02*
X92405D01*
X80594Y160256D02*
X92405D01*
X80594Y154744D02*
Y160256D01*
X92405Y154744D02*
Y160256D01*
X69153Y144130D02*
Y147870D01*
X75846Y144130D02*
Y147870D01*
X69153D02*
X75846D01*
X69153Y144130D02*
X75846D01*
X64595Y154744D02*
X76406D01*
X64595Y160256D02*
X76406D01*
X64595Y154744D02*
Y160256D01*
X76406Y154744D02*
Y160256D01*
X41154Y160630D02*
Y164370D01*
X47846Y160630D02*
Y164370D01*
X41154D02*
X47846D01*
X41154Y160630D02*
X47846D01*
X53654D02*
Y164370D01*
X60347Y160630D02*
Y164370D01*
X53654D02*
X60347D01*
X53654Y160630D02*
X60347D01*
X38630Y154847D02*
X42370D01*
X38630Y148153D02*
X42370D01*
Y154847D01*
X38630Y148153D02*
Y154847D01*
X45130D02*
X48870D01*
X45130Y148153D02*
X48870D01*
Y154847D01*
X45130Y148153D02*
Y154847D01*
X51630D02*
X55370D01*
X51630Y148153D02*
X55370D01*
Y154847D01*
X51630Y148153D02*
Y154847D01*
X34130Y81653D02*
X37870D01*
X34130Y88346D02*
X37870D01*
X34130Y81653D02*
Y88346D01*
X37870Y81653D02*
Y88346D01*
X44130Y81653D02*
X47870D01*
X44130Y88346D02*
X47870D01*
X44130Y81653D02*
Y88346D01*
X47870Y81653D02*
Y88346D01*
X86847Y86630D02*
Y90370D01*
X80154Y86630D02*
Y90370D01*
Y86630D02*
X86847D01*
X80154Y90370D02*
X86847D01*
X71346Y88130D02*
Y91870D01*
X64653Y88130D02*
Y91870D01*
Y88130D02*
X71346D01*
X64653Y91870D02*
X71346D01*
X61094Y78756D02*
X72905D01*
X61094Y73244D02*
X72905D01*
Y78756D01*
X61094Y73244D02*
Y78756D01*
X53347Y68630D02*
Y72370D01*
X46654Y68630D02*
Y72370D01*
Y68630D02*
X53347D01*
X46654Y72370D02*
X53347D01*
X42346Y68630D02*
Y72370D01*
X35653Y68630D02*
Y72370D01*
Y68630D02*
X42346D01*
X35653Y72370D02*
X42346D01*
X95130Y66154D02*
X98870D01*
X95130Y72847D02*
X98870D01*
X95130Y66154D02*
Y72847D01*
X98870Y66154D02*
Y72847D01*
X19654Y20630D02*
Y24370D01*
X26346Y20630D02*
Y24370D01*
X19654D02*
X26346D01*
X19654Y20630D02*
X26346D01*
X27630Y102654D02*
X31370D01*
X27630Y109346D02*
X31370D01*
Y102654D02*
Y109346D01*
X27630Y102654D02*
Y109346D01*
X49846Y156130D02*
Y159870D01*
X43154Y156130D02*
Y159870D01*
X49846D01*
X43154Y156130D02*
X49846D01*
X99150Y103039D02*
Y132961D01*
X27850Y103039D02*
Y132961D01*
X99150D01*
X27850Y103039D02*
X99150D01*
X20130Y188654D02*
X23870D01*
X20130Y195346D02*
X23870D01*
X20130Y188654D02*
Y195346D01*
X23870Y188654D02*
Y195346D01*
X79094Y78756D02*
X90905D01*
X79094Y73244D02*
X90905D01*
Y78756D01*
X79094Y73244D02*
Y78756D01*
X57630Y148153D02*
X61370D01*
X57630Y154847D02*
X61370D01*
X57630Y148153D02*
Y154847D01*
X61370Y148153D02*
Y154847D01*
X47130Y96846D02*
X50870D01*
X47130Y90153D02*
X50870D01*
X47130D02*
Y96846D01*
X50870Y90153D02*
Y96846D01*
M02*
