%FSLAX25Y25*%
%MOIN*%
G70*
G01*
G75*
%ADD10R,0.02756X0.03543*%
%ADD11R,0.03543X0.02756*%
%ADD12O,0.02362X0.09055*%
%ADD13R,0.22835X0.25197*%
%ADD14R,0.03150X0.08661*%
%ADD15R,0.02362X0.04528*%
%ADD16C,0.01000*%
%ADD17C,0.07000*%
%ADD18C,0.06400*%
%ADD19C,0.06500*%
%ADD20R,0.60500X0.07500*%
%ADD21R,0.08000X0.18500*%
%ADD22C,0.07874*%
%ADD23C,0.04500*%
%ADD24R,0.03740X0.03543*%
%ADD25R,0.03543X0.03740*%
%ADD26C,0.01969*%
%ADD27R,0.09000X0.09500*%
%ADD28C,0.02362*%
%ADD29C,0.00984*%
%ADD30C,0.00600*%
%ADD31C,0.00787*%
%ADD32C,0.00500*%
%ADD33R,0.03556X0.04343*%
%ADD34R,0.04343X0.03556*%
%ADD35O,0.03162X0.09855*%
%ADD36R,0.23635X0.25997*%
%ADD37R,0.03386X0.08898*%
%ADD38R,0.03162X0.05328*%
%ADD39C,0.08674*%
%ADD40C,0.00800*%
%ADD41C,0.05300*%
%ADD42R,0.04540X0.04343*%
%ADD43R,0.04343X0.04540*%
%ADD44C,0.04724*%
%ADD45C,0.00394*%
%ADD46C,0.00667*%
D32*
X9228Y73500D02*
X12772D01*
X11000Y71728D02*
Y75272D01*
X9228Y63500D02*
X12772D01*
X11000Y61728D02*
Y65272D01*
X12728Y30000D02*
X16272D01*
X14500Y28228D02*
Y31772D01*
X62728Y22500D02*
X66272D01*
X64500Y20728D02*
Y24272D01*
X62228Y197000D02*
X65772D01*
X64000Y195228D02*
Y198772D01*
X62728Y210500D02*
X66272D01*
X64500Y208728D02*
Y212272D01*
X9228Y42000D02*
X12772D01*
X11000Y40228D02*
Y43772D01*
X19228Y68000D02*
X22772D01*
X21000Y66228D02*
Y69772D01*
X9228Y52500D02*
X12772D01*
X11000Y50728D02*
Y54272D01*
X8228Y93000D02*
X11772D01*
X10000Y91228D02*
Y94772D01*
X8228Y110000D02*
X11772D01*
X10000Y108228D02*
Y111772D01*
X8228Y120000D02*
X11772D01*
X10000Y118228D02*
Y121772D01*
X103228Y103000D02*
X106772D01*
X105000Y101228D02*
Y104772D01*
X20728Y13000D02*
X24272D01*
X22500Y11228D02*
Y14772D01*
X62728Y183000D02*
X66272D01*
X64500Y181228D02*
Y184772D01*
X63728Y58500D02*
X67272D01*
X65500Y56728D02*
Y60272D01*
X102228Y208000D02*
X105772D01*
X104000Y206228D02*
Y209772D01*
X8228Y150000D02*
X11772D01*
X10000Y148228D02*
Y151772D01*
X8228Y200500D02*
X11772D01*
X10000Y198728D02*
Y202272D01*
X103728Y60500D02*
X107272D01*
X105500Y58728D02*
Y62272D01*
X8228Y180500D02*
X11772D01*
X10000Y178728D02*
Y182272D01*
X8228Y190500D02*
X11772D01*
X10000Y188728D02*
Y192272D01*
X8228Y160000D02*
X11772D01*
X10000Y158228D02*
Y161772D01*
X8228Y170500D02*
X11772D01*
X10000Y168728D02*
Y172272D01*
X8228Y140000D02*
X11772D01*
X10000Y138228D02*
Y141772D01*
X8228Y130000D02*
X11772D01*
X10000Y128228D02*
Y131772D01*
X19728Y102500D02*
X23272D01*
X21500Y100728D02*
Y104272D01*
X19728Y126000D02*
X23272D01*
X21500Y124228D02*
Y127772D01*
X19228Y57500D02*
X22772D01*
X21000Y55728D02*
Y59272D01*
X32228Y5000D02*
X35772D01*
X34000Y3228D02*
Y6772D01*
X52728Y5000D02*
X56272D01*
X54500Y3228D02*
Y6772D01*
X62728Y5000D02*
X66272D01*
X64500Y3228D02*
Y6772D01*
X19228Y144000D02*
X22772D01*
X21000Y142228D02*
Y145772D01*
X72728Y5000D02*
X76272D01*
X74500Y3228D02*
Y6772D01*
X82728Y5000D02*
X86272D01*
X84500Y3228D02*
Y6772D01*
X42728Y5000D02*
X46272D01*
X44500Y3228D02*
Y6772D01*
X92728Y5000D02*
X96272D01*
X94500Y3228D02*
Y6772D01*
X65228Y33500D02*
X68772D01*
X67000Y31728D02*
Y35272D01*
X103728Y164000D02*
X107272D01*
X105500Y162228D02*
Y165772D01*
X19728Y176000D02*
X23272D01*
X21500Y174228D02*
Y177772D01*
X103728Y184500D02*
X107272D01*
X105500Y182728D02*
Y186272D01*
X105228Y45500D02*
X108772D01*
X107000Y43728D02*
Y47272D01*
X19228Y47500D02*
X22772D01*
X21000Y45728D02*
Y49272D01*
X103728Y142000D02*
X107272D01*
X105500Y140228D02*
Y143772D01*
X103728Y132000D02*
X107272D01*
X105500Y130228D02*
Y133772D01*
X22728Y211000D02*
X26272D01*
X24500Y209228D02*
Y212772D01*
X62728Y46000D02*
X66272D01*
X64500Y44228D02*
Y47772D01*
X104228Y23000D02*
X107772D01*
X106000Y21228D02*
Y24772D01*
X19228Y154000D02*
X22772D01*
X21000Y152228D02*
Y155772D01*
X103728Y152000D02*
X107272D01*
X105500Y150228D02*
Y153772D01*
X19728Y164500D02*
X23272D01*
X21500Y162728D02*
Y166272D01*
X5079Y214000D02*
X14921D01*
X10000Y209079D02*
Y218921D01*
X5079Y10500D02*
X14921D01*
X10000Y5579D02*
Y15421D01*
X75250Y86500D02*
X77750D01*
X76500Y85250D02*
Y87750D01*
X90250Y126000D02*
X92750D01*
X91500Y124750D02*
Y127250D01*
X51750Y91000D02*
X54250D01*
X53000Y89750D02*
Y92250D01*
X72250Y111000D02*
X74750D01*
X73500Y109750D02*
Y112250D01*
X77750Y114000D02*
X80250D01*
X79000Y112750D02*
Y115250D01*
X87250Y110500D02*
X89750D01*
X88500Y109250D02*
Y111750D01*
X84750Y121500D02*
X87250D01*
X86000Y120250D02*
Y122750D01*
X80250Y126500D02*
X82750D01*
X81500Y125250D02*
Y127750D01*
X77750Y120500D02*
X80250D01*
X79000Y119250D02*
Y121750D01*
X44750Y116500D02*
X47250D01*
X46000Y115250D02*
Y117750D01*
X94750Y110500D02*
X97250D01*
X96000Y109250D02*
Y111750D01*
X56250Y78500D02*
X58750D01*
X57500Y77250D02*
Y79750D01*
X45750Y30000D02*
X48250D01*
X47000Y28750D02*
Y31250D01*
X101750Y32000D02*
X104250D01*
X103000Y30750D02*
Y33250D01*
X57250Y31500D02*
X59750D01*
X58500Y30250D02*
Y32750D01*
X99750Y176000D02*
X102250D01*
X101000Y174750D02*
Y177250D01*
X24250Y201000D02*
X26750D01*
X25500Y199750D02*
Y202250D01*
X31750Y163000D02*
X34250D01*
X33000Y161750D02*
Y164250D01*
X75250Y66500D02*
X77750D01*
X76500Y65250D02*
Y67750D01*
X57250Y52000D02*
X59750D01*
X58500Y50750D02*
Y53250D01*
X28750Y144500D02*
X31250D01*
X30000Y143250D02*
Y145750D01*
X69750Y126500D02*
X72250D01*
X71000Y125250D02*
Y127750D01*
X49750Y109000D02*
X52250D01*
X51000Y107750D02*
Y110250D01*
X20750Y80500D02*
X23250D01*
X22000Y79250D02*
Y81750D01*
X25250Y90000D02*
X27750D01*
X26500Y88750D02*
Y91250D01*
X54750Y127000D02*
X57250D01*
X56000Y125750D02*
Y128250D01*
X36250Y117500D02*
X38750D01*
X37500Y116250D02*
Y118750D01*
X103750Y115500D02*
X106250D01*
X105000Y114250D02*
Y116750D01*
X59750Y65500D02*
X62250D01*
X61000Y64250D02*
Y66750D01*
X112750Y40500D02*
X115250D01*
X114000Y39250D02*
Y41750D01*
X99250Y192500D02*
X101750D01*
X100500Y191250D02*
Y193750D01*
M02*
