%FSLAX25Y25*%
%MOIN*%
G70*
G01*
G75*
G04 Layer_Color=2752767*
%ADD10R,0.02756X0.03543*%
%ADD11R,0.03543X0.02756*%
%ADD12O,0.02362X0.09055*%
%ADD13R,0.22835X0.25197*%
%ADD14R,0.03150X0.08661*%
%ADD15R,0.02362X0.04528*%
%ADD16C,0.01000*%
%ADD17C,0.07000*%
%ADD18C,0.06400*%
%ADD19C,0.06500*%
%ADD20R,0.60500X0.07500*%
%ADD21R,0.08000X0.18500*%
%ADD22C,0.07874*%
%ADD23C,0.04500*%
%ADD24R,0.03740X0.03543*%
%ADD25R,0.03543X0.03740*%
%ADD26C,0.01969*%
%ADD27R,0.09000X0.09500*%
%ADD28C,0.02362*%
%ADD29C,0.00984*%
%ADD30C,0.00600*%
%ADD31C,0.00787*%
%ADD32C,0.00500*%
%ADD33R,0.03556X0.04343*%
%ADD34R,0.04343X0.03556*%
%ADD35O,0.03162X0.09855*%
%ADD36R,0.23635X0.25997*%
%ADD37R,0.03386X0.08898*%
%ADD38R,0.03162X0.05328*%
%ADD39C,0.08674*%
%ADD40C,0.00800*%
%ADD41C,0.05300*%
%ADD42R,0.04540X0.04343*%
%ADD43R,0.04343X0.04540*%
%ADD44C,0.04724*%
%ADD45C,0.00394*%
%ADD46C,0.00667*%
D32*
X9000Y71500D02*
Y75500D01*
X13000D01*
Y71500D01*
X9000D01*
Y61500D02*
Y65500D01*
X13000D01*
Y61500D01*
X9000D01*
X12500Y28000D02*
Y32000D01*
X16500D01*
Y28000D01*
X12500D01*
X62500Y20500D02*
Y24500D01*
X66500D01*
Y20500D01*
X62500D01*
X62000Y195000D02*
Y199000D01*
X66000D01*
Y195000D01*
X62000D01*
X62500Y208500D02*
Y212500D01*
X66500D01*
Y208500D01*
X62500D01*
X9000Y40000D02*
Y44000D01*
X13000D01*
Y40000D01*
X9000D01*
X19000Y66000D02*
Y70000D01*
X23000D01*
Y66000D01*
X19000D01*
X9000Y50500D02*
Y54500D01*
X13000D01*
Y50500D01*
X9000D01*
X8000Y91000D02*
Y95000D01*
X12000D01*
Y91000D01*
X8000D01*
Y108000D02*
Y112000D01*
X12000D01*
Y108000D01*
X8000D01*
Y118000D02*
Y122000D01*
X12000D01*
Y118000D01*
X8000D01*
X103000Y101000D02*
Y105000D01*
X107000D01*
Y101000D01*
X103000D01*
X20500Y11000D02*
Y15000D01*
X24500D01*
Y11000D01*
X20500D01*
X62500Y181000D02*
Y185000D01*
X66500D01*
Y181000D01*
X62500D01*
X63500Y56500D02*
Y60500D01*
X67500D01*
Y56500D01*
X63500D01*
X102000Y206000D02*
Y210000D01*
X106000D01*
Y206000D01*
X102000D01*
X8000Y148000D02*
Y152000D01*
X12000D01*
Y148000D01*
X8000D01*
Y198500D02*
Y202500D01*
X12000D01*
Y198500D01*
X8000D01*
X103500Y58500D02*
Y62500D01*
X107500D01*
Y58500D01*
X103500D01*
X8000Y178500D02*
Y182500D01*
X12000D01*
Y178500D01*
X8000D01*
Y188500D02*
Y192500D01*
X12000D01*
Y188500D01*
X8000D01*
Y158000D02*
Y162000D01*
X12000D01*
Y158000D01*
X8000D01*
Y168500D02*
Y172500D01*
X12000D01*
Y168500D01*
X8000D01*
Y138000D02*
Y142000D01*
X12000D01*
Y138000D01*
X8000D01*
Y128000D02*
Y132000D01*
X12000D01*
Y128000D01*
X8000D01*
X19500Y100500D02*
Y104500D01*
X23500D01*
Y100500D01*
X19500D01*
Y124000D02*
Y128000D01*
X23500D01*
Y124000D01*
X19500D01*
X19000Y55500D02*
Y59500D01*
X23000D01*
Y55500D01*
X19000D01*
X32000Y3000D02*
Y7000D01*
X36000D01*
Y3000D01*
X32000D01*
X52500D02*
Y7000D01*
X56500D01*
Y3000D01*
X52500D01*
X62500D02*
Y7000D01*
X66500D01*
Y3000D01*
X62500D01*
X19000Y142000D02*
Y146000D01*
X23000D01*
Y142000D01*
X19000D01*
X72500Y3000D02*
Y7000D01*
X76500D01*
Y3000D01*
X72500D01*
X82500D02*
Y7000D01*
X86500D01*
Y3000D01*
X82500D01*
X42500D02*
Y7000D01*
X46500D01*
Y3000D01*
X42500D01*
X92500D02*
Y7000D01*
X96500D01*
Y3000D01*
X92500D01*
X65000Y31500D02*
Y35500D01*
X69000D01*
Y31500D01*
X65000D01*
X103500Y162000D02*
Y166000D01*
X107500D01*
Y162000D01*
X103500D01*
X19500Y174000D02*
Y178000D01*
X23500D01*
Y174000D01*
X19500D01*
X103500Y182500D02*
Y186500D01*
X107500D01*
Y182500D01*
X103500D01*
X105000Y43500D02*
Y47500D01*
X109000D01*
Y43500D01*
X105000D01*
X19000Y45500D02*
Y49500D01*
X23000D01*
Y45500D01*
X19000D01*
X103500Y140000D02*
Y144000D01*
X107500D01*
Y140000D01*
X103500D01*
Y130000D02*
Y134000D01*
X107500D01*
Y130000D01*
X103500D01*
X22500Y209000D02*
Y213000D01*
X26500D01*
Y209000D01*
X22500D01*
X62500Y44000D02*
Y48000D01*
X66500D01*
Y44000D01*
X62500D01*
X104000Y21000D02*
Y25000D01*
X108000D01*
Y21000D01*
X104000D01*
X19000Y152000D02*
Y156000D01*
X23000D01*
Y152000D01*
X19000D01*
X103500Y150000D02*
Y154000D01*
X107500D01*
Y150000D01*
X103500D01*
X19500Y162500D02*
Y166500D01*
X23500D01*
Y162500D01*
X19500D01*
X76500Y84500D02*
X74500Y88500D01*
X78500D01*
X76500Y84500D01*
X91500Y124000D02*
X89500Y128000D01*
X93500D01*
X91500Y124000D01*
X53000Y89000D02*
X51000Y93000D01*
X55000D01*
X53000Y89000D01*
X73500Y109000D02*
X71500Y113000D01*
X75500D01*
X73500Y109000D01*
X79000Y112000D02*
X77000Y116000D01*
X81000D01*
X79000Y112000D01*
X88500Y108500D02*
X86500Y112500D01*
X90500D01*
X88500Y108500D01*
X86000Y119500D02*
X84000Y123500D01*
X88000D01*
X86000Y119500D01*
X81500Y124500D02*
X79500Y128500D01*
X83500D01*
X81500Y124500D01*
X79000Y118500D02*
X77000Y122500D01*
X81000D01*
X79000Y118500D01*
X46000Y114500D02*
X44000Y118500D01*
X48000D01*
X46000Y114500D01*
X96000Y108500D02*
X94000Y112500D01*
X98000D01*
X96000Y108500D01*
X57500Y76500D02*
X55500Y80500D01*
X59500D01*
X57500Y76500D01*
X47000Y28000D02*
X45000Y32000D01*
X49000D01*
X47000Y28000D01*
X103000Y30000D02*
X101000Y34000D01*
X105000D01*
X103000Y30000D01*
X58500Y29500D02*
X56500Y33500D01*
X60500D01*
X58500Y29500D01*
X101000Y174000D02*
X99000Y178000D01*
X103000D01*
X101000Y174000D01*
X25500Y199000D02*
X23500Y203000D01*
X27500D01*
X25500Y199000D01*
X33000Y161000D02*
X31000Y165000D01*
X35000D01*
X33000Y161000D01*
X76500Y64500D02*
X74500Y68500D01*
X78500D01*
X76500Y64500D01*
X58500Y50000D02*
X56500Y54000D01*
X60500D01*
X58500Y50000D01*
X30000Y142500D02*
X28000Y146500D01*
X32000D01*
X30000Y142500D01*
X71000Y124500D02*
X69000Y128500D01*
X73000D01*
X71000Y124500D01*
X51000Y107000D02*
X49000Y111000D01*
X53000D01*
X51000Y107000D01*
X22000Y78500D02*
X20000Y82500D01*
X24000D01*
X22000Y78500D01*
X26500Y88000D02*
X24500Y92000D01*
X28500D01*
X26500Y88000D01*
X56000Y125000D02*
X54000Y129000D01*
X58000D01*
X56000Y125000D01*
X37500Y115500D02*
X35500Y119500D01*
X39500D01*
X37500Y115500D01*
X105000Y113500D02*
X103000Y117500D01*
X107000D01*
X105000Y113500D01*
X61000Y63500D02*
X59000Y67500D01*
X63000D01*
X61000Y63500D01*
X114000Y38500D02*
X112000Y42500D01*
X116000D01*
X114000Y38500D01*
X100500Y190500D02*
X98500Y194500D01*
X102500D01*
X100500Y190500D01*
D46*
X12000Y214000D02*
G03*
X12000Y214000I-2000J0D01*
G01*
Y10500D02*
G03*
X12000Y10500I-2000J0D01*
G01*
M02*
