%FSLAX25Y25*%
%MOIN*%
G70*
G01*
G75*
G04 Layer_Physical_Order=1*
G04 Layer_Color=255*
%ADD10R,0.03543X0.02756*%
%ADD11R,0.02362X0.04528*%
%ADD12O,0.02362X0.09055*%
%ADD13R,0.02756X0.03543*%
%ADD14R,0.03150X0.08661*%
%ADD15R,0.22835X0.25197*%
%ADD16C,0.01000*%
%ADD17C,0.07000*%
%ADD18C,0.06500*%
%ADD19C,0.06400*%
%ADD20R,0.08000X0.18500*%
%ADD21R,0.60500X0.07500*%
%ADD22C,0.07874*%
%ADD23C,0.04500*%
G36*
X47327Y165734D02*
X47136Y165272D01*
X45075D01*
Y163000D01*
X47453D01*
Y162000D01*
X45075D01*
Y159728D01*
X45471D01*
Y156831D01*
X44228D01*
Y155982D01*
X43272D01*
Y156831D01*
X41000D01*
Y154453D01*
X40500D01*
Y153953D01*
X37728D01*
Y152955D01*
X35925D01*
X35340Y152838D01*
X34844Y152507D01*
X30102Y147765D01*
X30000Y147778D01*
X29152Y147666D01*
X28361Y147339D01*
X27682Y146818D01*
X27161Y146139D01*
X26834Y145348D01*
X26722Y144500D01*
X26834Y143652D01*
X27161Y142861D01*
X27682Y142182D01*
X28361Y141661D01*
X29152Y141334D01*
X29313Y141312D01*
X29427Y140832D01*
X29427Y140832D01*
X29427D01*
D01*
D01*
D01*
X28945Y140111D01*
X28776Y139260D01*
Y137443D01*
X16720D01*
X14885Y139278D01*
X14980Y140000D01*
X14810Y141289D01*
X14312Y142490D01*
X13521Y143521D01*
X12490Y144313D01*
X11434Y144750D01*
Y145250D01*
X12490Y145687D01*
X13521Y146479D01*
X14312Y147510D01*
X14710Y148471D01*
X17000D01*
X17585Y148587D01*
X18081Y148919D01*
X18751Y149588D01*
X19567Y149250D01*
Y148750D01*
X18510Y148312D01*
X17479Y147521D01*
X16688Y146490D01*
X16190Y145289D01*
X16020Y144000D01*
X16190Y142711D01*
X16688Y141510D01*
X17479Y140479D01*
X18510Y139688D01*
X19711Y139190D01*
X21000Y139020D01*
X22289Y139190D01*
X23490Y139688D01*
X24521Y140479D01*
X25313Y141510D01*
X25810Y142711D01*
X25980Y144000D01*
X25810Y145289D01*
X25313Y146490D01*
X24521Y147521D01*
X23490Y148312D01*
X22433Y148750D01*
Y149250D01*
X23490Y149688D01*
X24521Y150479D01*
X25313Y151510D01*
X25810Y152711D01*
X25980Y154000D01*
X25810Y155289D01*
X25313Y156490D01*
X24521Y157521D01*
X23490Y158312D01*
X22289Y158810D01*
X21000Y158980D01*
X19711Y158810D01*
X18510Y158312D01*
X17479Y157521D01*
X16688Y156490D01*
X16190Y155289D01*
X16020Y154000D01*
X16190Y152711D01*
X16507Y151945D01*
X16230Y151529D01*
X14710D01*
X14312Y152490D01*
X13521Y153521D01*
X12490Y154313D01*
X11434Y154750D01*
Y155250D01*
X12150Y155547D01*
X12675Y155616D01*
X13316Y155881D01*
X13769Y156069D01*
X14709Y156791D01*
X17380Y159461D01*
X19068D01*
X20243Y159616D01*
X20371Y159669D01*
X21000Y159586D01*
Y164500D01*
X22000D01*
Y159586D01*
X22789Y159690D01*
X23990Y160187D01*
X25021Y160979D01*
X25737Y161912D01*
X26236Y161944D01*
X30262Y157919D01*
X30758Y157587D01*
X30855Y157568D01*
X31343Y157471D01*
X35319D01*
X37728Y155061D01*
Y154953D01*
X40000D01*
Y157116D01*
X37034Y160081D01*
X36538Y160413D01*
X36236Y160473D01*
X36285Y160971D01*
X39169D01*
Y159728D01*
X43925D01*
Y165272D01*
X39169D01*
Y164029D01*
X36091D01*
X35839Y164639D01*
X35318Y165318D01*
X34639Y165839D01*
X34298Y165980D01*
X34395Y166471D01*
X46590D01*
X47327Y165734D01*
D02*
G37*
G36*
X104480Y174628D02*
Y169399D01*
X103665Y168584D01*
X103010Y168313D01*
X101979Y167521D01*
X101188Y166490D01*
X100690Y165289D01*
X100520Y164000D01*
X100690Y162711D01*
X101188Y161510D01*
X101979Y160479D01*
X103010Y159687D01*
X103548Y159465D01*
X105571Y157441D01*
X105411Y156968D01*
X104211Y156810D01*
X103010Y156313D01*
X101979Y155521D01*
X101272Y154600D01*
X92421D01*
Y156335D01*
X90740D01*
Y153071D01*
X89740D01*
Y156335D01*
X88059D01*
Y156154D01*
X87597Y155963D01*
X85644Y157916D01*
X85238Y158187D01*
X85384Y158665D01*
X88681D01*
Y160400D01*
X97000D01*
X97585Y160516D01*
X98081Y160848D01*
X98413Y161344D01*
X98529Y161929D01*
X98529Y161929D01*
X98529Y161929D01*
Y161929D01*
Y165366D01*
X102081Y168919D01*
X102413Y169415D01*
X102432Y169512D01*
X102529Y170000D01*
Y173116D01*
X102639Y173161D01*
X103318Y173682D01*
X103839Y174361D01*
X103990Y174726D01*
X104480Y174628D01*
D02*
G37*
G36*
X34000Y178000D02*
X22000D01*
Y186000D01*
X22500Y186500D01*
X25000D01*
Y191500D01*
X28500Y195000D01*
X34000D01*
Y178000D01*
D02*
G37*
G36*
X113500Y182000D02*
Y171500D01*
X108000D01*
X105500Y169000D01*
Y179000D01*
X102500Y182000D01*
X114500Y183000D01*
X113500Y182000D01*
D02*
G37*
G36*
X60000Y152075D02*
X62272D01*
Y152923D01*
X62576D01*
X63161Y153040D01*
X63657Y153371D01*
X64117Y153831D01*
X64579Y153640D01*
Y153053D01*
X62399Y150873D01*
X62272Y150925D01*
Y150925D01*
X62272Y150925D01*
X56728D01*
D01*
D01*
X56728Y150925D01*
X56272Y150925D01*
Y150925D01*
X50728D01*
Y146169D01*
X51353D01*
X51544Y145707D01*
X49919Y144081D01*
X49587Y143585D01*
X49471Y143000D01*
Y140861D01*
X49428Y140832D01*
X48945Y140111D01*
X48776Y139260D01*
Y132567D01*
X48945Y131716D01*
X49389Y131052D01*
X44866Y126529D01*
X40346D01*
X40154Y126991D01*
X42081Y128919D01*
X42413Y129415D01*
X42529Y130000D01*
Y130966D01*
X42573Y130994D01*
X43055Y131716D01*
X43224Y132567D01*
Y139260D01*
X43055Y140111D01*
X42573Y140832D01*
X42529Y140861D01*
Y146169D01*
X43272D01*
Y148230D01*
X43734Y148422D01*
X44228Y147927D01*
Y146169D01*
X45471D01*
Y145133D01*
X44919Y144581D01*
X44587Y144085D01*
X44471Y143500D01*
Y140861D01*
X44427Y140832D01*
X43945Y140111D01*
X43776Y139260D01*
Y132567D01*
X43945Y131716D01*
X44427Y130994D01*
X45149Y130512D01*
X46000Y130343D01*
X46851Y130512D01*
X47572Y130994D01*
X48055Y131716D01*
X48224Y132567D01*
Y139260D01*
X48055Y140111D01*
X47572Y140832D01*
X47529Y140861D01*
Y142867D01*
X48081Y143419D01*
X48413Y143915D01*
X48529Y144500D01*
Y146169D01*
X49772D01*
Y150925D01*
X45556D01*
X44868Y151613D01*
X45060Y152075D01*
X46500D01*
Y154453D01*
X47500D01*
Y152075D01*
X49772D01*
Y152923D01*
X50728D01*
Y152075D01*
X53000D01*
Y154453D01*
X54000D01*
Y152075D01*
X56272D01*
Y152075D01*
X56272D01*
X56272Y152075D01*
X56728Y152075D01*
Y152075D01*
X59000D01*
Y154453D01*
X60000D01*
Y152075D01*
D02*
G37*
G36*
X113000Y55000D02*
X113500D01*
X113000Y54500D01*
Y54000D01*
X112546Y54045D01*
X105000Y46500D01*
X109500D01*
X111000Y45000D01*
X102000Y36000D01*
X95000D01*
Y46500D01*
X95947D01*
X95500Y55000D01*
X108500D01*
X111500Y58000D01*
X113000D01*
Y55000D01*
D02*
G37*
G36*
X64819Y68307D02*
X65509D01*
X65587Y67915D01*
X65919Y67419D01*
X69460Y63877D01*
Y62250D01*
X69011Y62029D01*
X67990Y62813D01*
X66789Y63310D01*
X65500Y63480D01*
X64211Y63310D01*
X63938Y63197D01*
X63634Y63593D01*
X63839Y63861D01*
X64166Y64652D01*
X64212Y65000D01*
X61500D01*
Y62288D01*
X61613Y62303D01*
X61863Y61870D01*
X61187Y60990D01*
X60690Y59789D01*
X60520Y58500D01*
X60690Y57211D01*
X61187Y56010D01*
X61979Y54979D01*
X63010Y54188D01*
X64211Y53690D01*
X65500Y53520D01*
X66789Y53690D01*
X67990Y54188D01*
X69011Y54971D01*
X69460Y54750D01*
Y48208D01*
X68970Y48111D01*
X68813Y48490D01*
X68021Y49521D01*
X66990Y50313D01*
X65789Y50810D01*
X64500Y50980D01*
X63211Y50810D01*
X62010Y50313D01*
X61763Y50123D01*
X61366Y50427D01*
X61666Y51152D01*
X61778Y52000D01*
X61666Y52848D01*
X61339Y53639D01*
X60818Y54318D01*
X60139Y54839D01*
X59348Y55166D01*
X58500Y55278D01*
X58299Y55252D01*
X57923Y55581D01*
Y61523D01*
X57807Y62108D01*
X57475Y62604D01*
X56596Y63483D01*
X56100Y63815D01*
X55515Y63931D01*
X45732D01*
X43529Y66133D01*
Y67728D01*
X44331D01*
Y67728D01*
X44331D01*
X44331Y67728D01*
X44669D01*
Y67728D01*
X46547D01*
Y70500D01*
X47547D01*
Y67728D01*
X48291D01*
X49872Y66147D01*
X49872D01*
X49872Y66147D01*
X49872D01*
X49872Y66147D01*
Y66147D01*
X49872Y66147D01*
Y66147D01*
X50368Y65815D01*
X50954Y65699D01*
X57547D01*
X57722Y65500D01*
X57834Y64652D01*
X58161Y63861D01*
X58682Y63182D01*
X59361Y62661D01*
X60152Y62334D01*
X60500Y62288D01*
Y65500D01*
Y68712D01*
X60152Y68666D01*
X59947Y68581D01*
X59857Y68641D01*
X59272Y68758D01*
X59272Y69319D01*
X59420Y69419D01*
X63807Y73805D01*
X64819D01*
Y68307D01*
D02*
G37*
G36*
X109961Y100795D02*
Y63574D01*
X109488Y63413D01*
X109021Y64021D01*
X107990Y64812D01*
X106789Y65310D01*
X106000Y65414D01*
Y60500D01*
X105500D01*
Y60000D01*
X100586D01*
X100690Y59211D01*
X101188Y58010D01*
X101979Y56979D01*
X102612Y56493D01*
X102451Y56020D01*
X98894D01*
Y61902D01*
X98529D01*
Y64169D01*
X99772D01*
Y68925D01*
X94228D01*
Y64169D01*
X95471D01*
Y61902D01*
X80375D01*
X80183Y62363D01*
X81581Y63762D01*
X81913Y64258D01*
X82029Y64843D01*
X82029Y64843D01*
X82029Y64843D01*
Y64843D01*
Y70042D01*
X82819D01*
Y68307D01*
X87181D01*
Y69971D01*
X91000D01*
X91585Y70087D01*
X92081Y70419D01*
X92586Y70923D01*
X94228D01*
Y70075D01*
X99772D01*
Y74831D01*
X94228D01*
Y73982D01*
X91953D01*
X91368Y73866D01*
X90871Y73534D01*
X90367Y73029D01*
X87181D01*
Y74835D01*
X83884D01*
X83738Y75313D01*
X84144Y75584D01*
X84144Y75584D01*
X84144Y75584D01*
X85022Y76463D01*
X85354Y76959D01*
X85470Y77544D01*
X85470Y77544D01*
X85470Y77544D01*
Y77544D01*
Y85728D01*
X87062D01*
X87211Y85579D01*
Y83693D01*
X86559D01*
Y77165D01*
X90921D01*
Y83693D01*
X90270D01*
Y86213D01*
X90153Y86798D01*
X89822Y87294D01*
X88831Y88285D01*
Y88715D01*
X92645Y92530D01*
X97110D01*
X97696Y92646D01*
X98192Y92978D01*
X98192Y92978D01*
X98192Y92978D01*
X99762Y94548D01*
X100094Y95044D01*
X100210Y95630D01*
X100210Y95630D01*
X100210Y95630D01*
Y95630D01*
Y100415D01*
X100688Y100510D01*
X101479Y99479D01*
X102510Y98687D01*
X103711Y98190D01*
X105000Y98020D01*
X106289Y98190D01*
X107490Y98687D01*
X108521Y99479D01*
X109312Y100510D01*
X109471Y100892D01*
X109961Y100795D01*
D02*
G37*
G36*
X62500Y19500D02*
X63500D01*
X54000Y11500D01*
X55000Y20000D01*
X58500Y23500D01*
X62500Y19500D01*
D02*
G37*
G36*
X77000Y203000D02*
X74500Y200500D01*
X69500D01*
X61500Y208500D01*
Y212500D01*
X61000Y213000D01*
X65500Y217500D01*
X70000D01*
X77000Y203000D01*
D02*
G37*
G36*
X1000Y222500D02*
X32680D01*
X32713Y222001D01*
X31825Y221884D01*
X30731Y221431D01*
X29791Y220709D01*
X29069Y219769D01*
X28616Y218675D01*
X28461Y217500D01*
Y214749D01*
X28013Y214528D01*
X26990Y215313D01*
X25789Y215810D01*
X24500Y215980D01*
X23211Y215810D01*
X22010Y215313D01*
X20979Y214521D01*
X20188Y213490D01*
X19690Y212289D01*
X19520Y211000D01*
X19690Y209711D01*
X20188Y208510D01*
X20979Y207479D01*
X22010Y206687D01*
X23211Y206190D01*
X24500Y206020D01*
X25789Y206190D01*
X26990Y206687D01*
X28013Y207472D01*
X28461Y207251D01*
Y204000D01*
X28577Y203122D01*
X28115Y202931D01*
X27818Y203318D01*
X27139Y203839D01*
X26348Y204166D01*
X25500Y204278D01*
X24652Y204166D01*
X23861Y203839D01*
X23182Y203318D01*
X22661Y202639D01*
X22334Y201848D01*
X22222Y201000D01*
X22334Y200152D01*
X22661Y199361D01*
X23182Y198682D01*
X23861Y198161D01*
X24652Y197834D01*
X24682Y197830D01*
X24649Y197331D01*
X19228D01*
Y196529D01*
X19000D01*
X18415Y196413D01*
X17919Y196081D01*
X15001Y193164D01*
X14539Y193355D01*
Y198557D01*
X14810Y199211D01*
X14914Y200000D01*
X5086D01*
X5190Y199211D01*
X5461Y198557D01*
Y192443D01*
X5190Y191789D01*
X5086Y191000D01*
X10000D01*
Y190000D01*
X5086D01*
X5190Y189211D01*
X5461Y188557D01*
Y182443D01*
X5190Y181789D01*
X5086Y181000D01*
X10000D01*
Y180000D01*
X5086D01*
X5190Y179211D01*
X5461Y178557D01*
Y172443D01*
X5190Y171789D01*
X5086Y171000D01*
X8500D01*
Y173000D01*
X11500D01*
X12250Y173750D01*
X12500Y174500D01*
X20500Y167000D01*
X19000D01*
X10000Y163500D01*
X8500Y165000D01*
Y170000D01*
X5086D01*
X5190Y169211D01*
X5461Y168557D01*
Y161943D01*
X5190Y161289D01*
X5086Y160500D01*
X10000D01*
Y159500D01*
X5086D01*
X5190Y158711D01*
X5688Y157510D01*
X6479Y156479D01*
X7510Y155687D01*
X8567Y155250D01*
Y154750D01*
X7510Y154313D01*
X6479Y153521D01*
X5688Y152490D01*
X5190Y151289D01*
X5020Y150000D01*
X5190Y148711D01*
X5688Y147510D01*
X6479Y146479D01*
X7510Y145687D01*
X8567Y145250D01*
Y144750D01*
X7510Y144313D01*
X6479Y143521D01*
X5688Y142490D01*
X5190Y141289D01*
X5020Y140000D01*
X5190Y138711D01*
X5688Y137510D01*
X6479Y136479D01*
X7510Y135687D01*
X8567Y135250D01*
Y134750D01*
X7510Y134312D01*
X6479Y133521D01*
X5688Y132490D01*
X5190Y131289D01*
X5020Y130000D01*
X5190Y128711D01*
X5688Y127510D01*
X6479Y126479D01*
X7510Y125688D01*
X8567Y125250D01*
Y124750D01*
X7510Y124312D01*
X6479Y123521D01*
X5688Y122490D01*
X5190Y121289D01*
X5020Y120000D01*
X5190Y118711D01*
X5688Y117510D01*
X6479Y116479D01*
X7510Y115688D01*
X8567Y115250D01*
Y114750D01*
X7510Y114313D01*
X6479Y113521D01*
X5688Y112490D01*
X5190Y111289D01*
X5020Y110000D01*
X5190Y108711D01*
X5688Y107510D01*
X6479Y106479D01*
X7510Y105687D01*
X8711Y105190D01*
X10000Y105020D01*
X10216Y105049D01*
X10438Y104600D01*
X8919Y103081D01*
X8587Y102585D01*
X8471Y102000D01*
Y97710D01*
X7510Y97312D01*
X6479Y96521D01*
X5688Y95490D01*
X5190Y94289D01*
X5020Y93000D01*
X5190Y91711D01*
X5688Y90510D01*
X6479Y89479D01*
X7510Y88687D01*
X8711Y88190D01*
X10000Y88020D01*
X11289Y88190D01*
X12490Y88687D01*
X13521Y89479D01*
X14312Y90510D01*
X14810Y91711D01*
X14980Y93000D01*
X14810Y94289D01*
X14312Y95490D01*
X13521Y96521D01*
X12490Y97312D01*
X11529Y97710D01*
Y101366D01*
X14072Y103909D01*
X14534Y103717D01*
Y100248D01*
X14534Y100248D01*
X14534D01*
X14650Y99663D01*
X14981Y99167D01*
X21170Y92978D01*
X21667Y92646D01*
X22252Y92530D01*
X23779D01*
X24001Y92081D01*
X23661Y91639D01*
X23334Y90848D01*
X23280Y90443D01*
X20919Y88081D01*
X20587Y87585D01*
X20471Y87000D01*
Y83384D01*
X20361Y83339D01*
X19682Y82818D01*
X19161Y82139D01*
X18834Y81348D01*
X18788Y81000D01*
X22000D01*
Y80500D01*
X22500D01*
Y77288D01*
X22848Y77334D01*
X23639Y77661D01*
X24318Y78182D01*
X24839Y78861D01*
X24884Y78971D01*
X28500D01*
X29085Y79087D01*
X29581Y79419D01*
X29581Y79419D01*
X29581Y79419D01*
X30634Y80471D01*
X33228D01*
Y79669D01*
X34518D01*
Y73272D01*
X33669D01*
Y71000D01*
X36047D01*
Y70500D01*
X36547D01*
Y67728D01*
X38425D01*
Y70081D01*
X39113Y70768D01*
X39575Y70577D01*
Y67728D01*
X40471D01*
Y65500D01*
X40471Y65500D01*
X40471D01*
X40587Y64915D01*
X40919Y64419D01*
X42974Y62363D01*
X42782Y61902D01*
X30559D01*
Y47417D01*
X30296Y47215D01*
X17620Y34539D01*
X16443D01*
X15789Y34810D01*
X14500Y34980D01*
X13211Y34810D01*
X12010Y34312D01*
X10979Y33521D01*
X10187Y32490D01*
X9690Y31289D01*
X9520Y30000D01*
X9690Y28711D01*
X10187Y27510D01*
X10979Y26479D01*
X12010Y25688D01*
X13211Y25190D01*
X14500Y25020D01*
X15789Y25190D01*
X16443Y25461D01*
X17669D01*
Y25272D01*
X17669D01*
Y19728D01*
X22425D01*
Y25272D01*
X22077D01*
Y26305D01*
X22709Y26791D01*
X30624Y34705D01*
X39389D01*
X39580Y34243D01*
X38366Y33029D01*
X30429D01*
X29844Y32913D01*
X29348Y32581D01*
X25419Y28653D01*
X25087Y28156D01*
X24971Y27571D01*
Y25272D01*
X23575D01*
Y19728D01*
X28264D01*
Y16032D01*
X28116Y15675D01*
X27961Y14500D01*
X28116Y13325D01*
X28569Y12231D01*
X29291Y11291D01*
X30231Y10569D01*
X31325Y10116D01*
X31980Y10030D01*
X32045Y9534D01*
X31510Y9313D01*
X30479Y8521D01*
X29688Y7490D01*
X29190Y6289D01*
X29020Y5000D01*
X29190Y3711D01*
X29688Y2510D01*
X30479Y1479D01*
X30486Y1474D01*
X30325Y1000D01*
X500D01*
Y222347D01*
X962Y222538D01*
X1000Y222500D01*
D02*
G37*
G36*
X118000Y2000D02*
X116000Y1000D01*
X94500D01*
X97000Y7500D01*
X107063Y17563D01*
X108252D01*
X111437Y20748D01*
X111000Y38000D01*
Y41500D01*
X118000Y48000D01*
Y2000D01*
D02*
G37*
G36*
X63000Y200500D02*
Y200000D01*
X60000Y196500D01*
X51500D01*
Y204000D01*
X55500D01*
X57500Y206000D01*
X63000Y200500D01*
D02*
G37*
G36*
X98000Y187500D02*
X94000Y187000D01*
X95000Y188000D01*
Y190500D01*
X98000Y187500D01*
D02*
G37*
G36*
X97500Y181000D02*
X98000D01*
X95000Y178000D01*
Y183500D01*
X97500Y181000D01*
D02*
G37*
G36*
X72106Y194290D02*
Y169098D01*
X96941D01*
Y178499D01*
X98202Y179760D01*
X100544Y179721D01*
X100573Y179222D01*
X100152Y179166D01*
X99361Y178839D01*
X98682Y178318D01*
X98161Y177639D01*
X97834Y176848D01*
X97722Y176000D01*
X97834Y175152D01*
X98161Y174361D01*
X98682Y173682D01*
X99361Y173161D01*
X99471Y173116D01*
Y170633D01*
X95919Y167081D01*
X95587Y166585D01*
X95471Y166000D01*
Y163459D01*
X88681D01*
Y165193D01*
X84319D01*
Y158665D01*
D01*
Y158665D01*
X84018Y158364D01*
X77165D01*
X76580Y158248D01*
X76084Y157916D01*
X74740Y156572D01*
Y153071D01*
X74240D01*
Y152571D01*
X72059D01*
Y150580D01*
X71773Y150389D01*
X70156Y148772D01*
X67169D01*
Y145785D01*
X64919Y143534D01*
X64587Y143038D01*
X64471Y142453D01*
Y140861D01*
X64428Y140832D01*
X63946Y140111D01*
X63776Y139260D01*
Y132567D01*
X63946Y131716D01*
X64428Y130994D01*
X65149Y130512D01*
X66000Y130343D01*
X66851Y130512D01*
X67572Y130994D01*
X68054Y131716D01*
X68224Y132567D01*
Y139260D01*
X68054Y140111D01*
X67572Y140832D01*
X67529Y140861D01*
Y141819D01*
X68938Y143228D01*
X71925D01*
Y146215D01*
X72613Y146903D01*
X73075Y146711D01*
Y146500D01*
X75453D01*
Y145500D01*
X73075D01*
Y143228D01*
X73923D01*
Y140000D01*
X73776Y139260D01*
Y136413D01*
X78224D01*
Y139260D01*
X78054Y140111D01*
X77573Y140832D01*
X76982Y141227D01*
Y143228D01*
X77831D01*
Y144471D01*
X87500D01*
X88085Y144587D01*
X88581Y144919D01*
X88582Y144919D01*
X88581Y144919D01*
X91322Y147659D01*
X91653Y148155D01*
X91653Y148155D01*
X91653Y148155D01*
X91769Y148740D01*
Y149807D01*
X92421D01*
Y151541D01*
X100581D01*
X100690Y150711D01*
X101188Y149510D01*
X101979Y148479D01*
X103010Y147687D01*
X104067Y147250D01*
Y146750D01*
X103010Y146312D01*
X101979Y145521D01*
X101188Y144490D01*
X100690Y143289D01*
X100520Y142000D01*
X100674Y140837D01*
X98686Y138849D01*
X98224Y139040D01*
Y139260D01*
X98054Y140111D01*
X97572Y140832D01*
X96851Y141314D01*
X96000Y141484D01*
X95149Y141314D01*
X94428Y140832D01*
X93945Y140111D01*
X93776Y139260D01*
Y132567D01*
X93945Y131716D01*
X94428Y130994D01*
X95149Y130512D01*
X96000Y130343D01*
X96851Y130512D01*
X97572Y130994D01*
X98054Y131716D01*
X98224Y132567D01*
Y134446D01*
X98499Y134500D01*
X98995Y134832D01*
X102354Y138191D01*
X103010Y137688D01*
X104067Y137250D01*
Y136750D01*
X103010Y136312D01*
X101979Y135521D01*
X101188Y134490D01*
X100690Y133289D01*
X100520Y132000D01*
X100690Y130711D01*
X101188Y129510D01*
X101979Y128479D01*
X103010Y127688D01*
X104211Y127190D01*
X105500Y127020D01*
X106789Y127190D01*
X107990Y127688D01*
X109021Y128479D01*
X109488Y129087D01*
X109961Y128926D01*
Y105205D01*
X109471Y105108D01*
X109312Y105490D01*
X108521Y106521D01*
X107490Y107313D01*
X106289Y107810D01*
X105000Y107980D01*
X103711Y107810D01*
X102510Y107313D01*
X101978Y106904D01*
X101529Y107125D01*
Y111803D01*
X101413Y112389D01*
X101081Y112885D01*
X100458Y113509D01*
X100649Y113971D01*
X102116D01*
X102161Y113861D01*
X102682Y113182D01*
X103361Y112661D01*
X104152Y112334D01*
X105000Y112222D01*
X105848Y112334D01*
X106639Y112661D01*
X107318Y113182D01*
X107839Y113861D01*
X108166Y114652D01*
X108278Y115500D01*
X108166Y116348D01*
X107839Y117139D01*
X107318Y117818D01*
X106639Y118339D01*
X105848Y118666D01*
X105000Y118778D01*
X104152Y118666D01*
X103361Y118339D01*
X102682Y117818D01*
X102161Y117139D01*
X102116Y117029D01*
X99765D01*
X98963Y117831D01*
X98467Y118163D01*
X97882Y118279D01*
X89074D01*
X88853Y118728D01*
X89339Y119361D01*
X89666Y120152D01*
X89778Y121000D01*
X89666Y121848D01*
X89339Y122639D01*
X89329Y122652D01*
X89634Y123048D01*
X90152Y122834D01*
X91000Y122722D01*
X91848Y122834D01*
X92639Y123161D01*
X93318Y123682D01*
X93839Y124361D01*
X94166Y125152D01*
X94278Y126000D01*
X94166Y126848D01*
X93839Y127639D01*
X93318Y128318D01*
X92639Y128839D01*
X92529Y128884D01*
Y130966D01*
X92572Y130994D01*
X93054Y131716D01*
X93224Y132567D01*
Y139260D01*
X93054Y140111D01*
X92572Y140832D01*
X91851Y141314D01*
X91000Y141484D01*
X90149Y141314D01*
X89428Y140832D01*
X88946Y140111D01*
X88776Y139260D01*
Y132567D01*
X88946Y131716D01*
X89428Y130994D01*
X89471Y130966D01*
Y128884D01*
X89361Y128839D01*
X88682Y128318D01*
X88503Y128084D01*
X88029Y128245D01*
Y131678D01*
X88055Y131716D01*
X88224Y132567D01*
Y139260D01*
X88055Y140111D01*
X87572Y140832D01*
X86851Y141314D01*
X86000Y141484D01*
X85149Y141314D01*
X84427Y140832D01*
X83946Y140111D01*
X83776Y139260D01*
Y132567D01*
X83946Y131716D01*
X84427Y130994D01*
X84971Y130632D01*
Y123884D01*
X84861Y123839D01*
X84182Y123318D01*
X83661Y122639D01*
X83334Y121848D01*
X83222Y121000D01*
X83334Y120152D01*
X83425Y119932D01*
X83009Y119654D01*
X82265Y120398D01*
X82278Y120500D01*
X82166Y121348D01*
X81839Y122139D01*
X81318Y122818D01*
X80711Y123284D01*
X80840Y123767D01*
X81348Y123834D01*
X82139Y124161D01*
X82818Y124682D01*
X83339Y125361D01*
X83666Y126152D01*
X83778Y127000D01*
X83666Y127848D01*
X83339Y128639D01*
X82818Y129318D01*
X82529Y129539D01*
Y130966D01*
X82573Y130994D01*
X83055Y131716D01*
X83224Y132567D01*
Y139260D01*
X83055Y140111D01*
X82573Y140832D01*
X81851Y141314D01*
X81000Y141484D01*
X80149Y141314D01*
X79427Y140832D01*
X78945Y140111D01*
X78776Y139260D01*
Y132567D01*
X78945Y131716D01*
X79427Y130994D01*
X79471Y130966D01*
Y130091D01*
X78861Y129839D01*
X78182Y129318D01*
X78003Y129084D01*
X77529Y129245D01*
Y130966D01*
X77573Y130994D01*
X78054Y131716D01*
X78224Y132567D01*
Y135413D01*
X73776D01*
Y132567D01*
X73945Y131716D01*
X74427Y130994D01*
X74471Y130966D01*
Y127895D01*
X73980Y127798D01*
X73839Y128139D01*
X73318Y128818D01*
X72639Y129339D01*
X72529Y129384D01*
Y130966D01*
X72572Y130994D01*
X73054Y131716D01*
X73224Y132567D01*
Y139260D01*
X73054Y140111D01*
X72572Y140832D01*
X71851Y141314D01*
X71000Y141484D01*
X70149Y141314D01*
X69428Y140832D01*
X68945Y140111D01*
X68776Y139260D01*
Y132567D01*
X68945Y131716D01*
X69428Y130994D01*
X69471Y130966D01*
Y129384D01*
X69361Y129339D01*
X68682Y128818D01*
X68161Y128139D01*
X67834Y127348D01*
X67722Y126500D01*
X67834Y125652D01*
X68161Y124861D01*
X68682Y124182D01*
X69361Y123661D01*
X70152Y123334D01*
X71000Y123222D01*
X71848Y123334D01*
X72073Y123427D01*
X72080Y123420D01*
X72391Y123041D01*
X72087Y122585D01*
X71971Y122000D01*
Y119133D01*
X64919Y112081D01*
X64587Y111585D01*
X64471Y111000D01*
Y105034D01*
X64428Y105006D01*
X63946Y104284D01*
X63776Y103433D01*
Y100587D01*
X68224D01*
Y103433D01*
X68054Y104284D01*
X67572Y105006D01*
X67529Y105034D01*
Y110366D01*
X74581Y117419D01*
X74913Y117915D01*
X75029Y118500D01*
X75029Y118500D01*
X75029Y118500D01*
Y118500D01*
Y121367D01*
X75509Y121846D01*
X75925Y121568D01*
X75834Y121348D01*
X75722Y120500D01*
X75834Y119652D01*
X76161Y118861D01*
X76682Y118182D01*
X77361Y117661D01*
X77750Y117500D01*
Y117000D01*
X77361Y116839D01*
X76682Y116318D01*
X76161Y115639D01*
X75834Y114848D01*
X75722Y114000D01*
X75826Y113210D01*
X75446Y112991D01*
X75385Y112966D01*
X75318Y113018D01*
X74527Y113345D01*
X73679Y113457D01*
X72830Y113345D01*
X72040Y113018D01*
X71361Y112497D01*
X70840Y111818D01*
X70513Y111027D01*
X70401Y110179D01*
X70513Y109330D01*
X70558Y109221D01*
X69919Y108581D01*
X69587Y108085D01*
X69471Y107500D01*
Y105034D01*
X69428Y105006D01*
X68945Y104284D01*
X68776Y103433D01*
Y96740D01*
X68945Y95889D01*
X69428Y95168D01*
X70149Y94686D01*
X71000Y94516D01*
X71851Y94686D01*
X72572Y95168D01*
X73054Y95889D01*
X73224Y96740D01*
Y103433D01*
X73054Y104284D01*
X72572Y105006D01*
X72529Y105034D01*
Y106286D01*
X72781Y106894D01*
X72905Y107003D01*
X73679Y106901D01*
X74527Y107013D01*
X75318Y107340D01*
X75997Y107861D01*
X76518Y108540D01*
X76845Y109330D01*
X76957Y110179D01*
X76853Y110969D01*
X77038Y111075D01*
X77355Y110892D01*
X77471Y110614D01*
Y106633D01*
X76412Y105575D01*
X76000Y105657D01*
X75149Y105488D01*
X74427Y105006D01*
X73945Y104284D01*
X73776Y103433D01*
Y96740D01*
X73945Y95889D01*
X74427Y95168D01*
X75045Y94755D01*
X75094Y94257D01*
X73527Y92690D01*
X73331Y92772D01*
Y92772D01*
X73331Y92772D01*
X68575D01*
Y87228D01*
X72939D01*
X73139Y87000D01*
X76500D01*
Y86000D01*
X73288D01*
X73289Y85988D01*
X72924Y85646D01*
X72543Y85722D01*
X68938D01*
X68353Y85606D01*
X67856Y85274D01*
X65903Y83321D01*
X65441Y83512D01*
Y83693D01*
X64789D01*
Y87228D01*
X67425D01*
Y89500D01*
X65047D01*
Y90500D01*
X67425D01*
Y92772D01*
X66577D01*
Y93914D01*
X67081Y94419D01*
X67413Y94915D01*
X67447Y95083D01*
X67572Y95168D01*
X68054Y95889D01*
X68224Y96740D01*
Y99587D01*
X63776D01*
Y96740D01*
X63946Y95889D01*
X64058Y95721D01*
X63966Y95629D01*
X63634Y95132D01*
X63518Y94547D01*
Y92772D01*
X62669D01*
D01*
X62669D01*
X62529Y92912D01*
Y95139D01*
X62572Y95168D01*
X63055Y95889D01*
X63224Y96740D01*
Y103433D01*
X63055Y104284D01*
X62572Y105006D01*
X61851Y105488D01*
X61000Y105657D01*
X60149Y105488D01*
X59427Y105006D01*
X58946Y104284D01*
X58776Y103433D01*
Y96740D01*
X58946Y95889D01*
X59427Y95168D01*
X59471Y95139D01*
Y92895D01*
X58980Y92798D01*
X58839Y93139D01*
X58318Y93818D01*
X57639Y94339D01*
X57529Y94384D01*
Y95139D01*
X57573Y95168D01*
X58055Y95889D01*
X58224Y96740D01*
Y103433D01*
X58055Y104284D01*
X57573Y105006D01*
X56851Y105488D01*
X56000Y105657D01*
X55149Y105488D01*
X54427Y105006D01*
X53945Y104284D01*
X53776Y103433D01*
Y96740D01*
X53945Y95889D01*
X54427Y95168D01*
X54471Y95139D01*
Y94384D01*
X54361Y94339D01*
X53682Y93818D01*
X53161Y93139D01*
X52834Y92348D01*
X52722Y91500D01*
X52834Y90652D01*
X53161Y89861D01*
X53682Y89182D01*
X54361Y88661D01*
X55152Y88334D01*
X56000Y88222D01*
X56848Y88334D01*
X57639Y88661D01*
X58318Y89182D01*
X58839Y89861D01*
X58980Y90202D01*
X59471Y90105D01*
Y86116D01*
X59419Y86081D01*
X58958Y85621D01*
X58848Y85666D01*
X58000Y85778D01*
X57152Y85666D01*
X56361Y85339D01*
X55682Y84818D01*
X55161Y84139D01*
X54834Y83348D01*
X54722Y82500D01*
X54834Y81652D01*
X55161Y80861D01*
X54673Y80487D01*
X54458Y80529D01*
X52634D01*
X50034Y83129D01*
X49538Y83460D01*
X48953Y83577D01*
X48772D01*
Y84425D01*
X46500D01*
Y82047D01*
X45500D01*
Y84425D01*
X43228D01*
Y83577D01*
X38772D01*
Y84425D01*
X36500D01*
Y82047D01*
X35500D01*
Y84425D01*
X33228D01*
Y83529D01*
X30000D01*
X29415Y83413D01*
X28919Y83081D01*
X27867Y82029D01*
X24884D01*
X24839Y82139D01*
X24318Y82818D01*
X23639Y83339D01*
X23529Y83384D01*
Y86366D01*
X24557Y87394D01*
X24861Y87161D01*
X25652Y86834D01*
X26000Y86788D01*
Y90000D01*
X26500D01*
Y90500D01*
X29712D01*
X29666Y90848D01*
X29339Y91639D01*
X29000Y92081D01*
X29221Y92530D01*
X32111D01*
X32696Y92646D01*
X33192Y92978D01*
X33192Y92978D01*
X33192Y92978D01*
X34009Y93794D01*
X34471Y93603D01*
Y90331D01*
X33228D01*
Y85575D01*
X38772D01*
Y90331D01*
X37529D01*
Y95139D01*
X37573Y95168D01*
X38055Y95889D01*
X38224Y96740D01*
Y103433D01*
X38072Y104198D01*
X38194Y104348D01*
X38693Y104372D01*
X38918Y104147D01*
X38776Y103433D01*
Y96740D01*
X38945Y95889D01*
X39428Y95168D01*
X40149Y94686D01*
X41000Y94516D01*
X41851Y94686D01*
X42573Y95168D01*
X43055Y95889D01*
X43224Y96740D01*
Y103433D01*
X43055Y104284D01*
X42573Y105006D01*
X42009Y105382D01*
X40196Y107196D01*
X39722Y107512D01*
X39673Y108010D01*
X45042Y113379D01*
X45152Y113334D01*
X46000Y113222D01*
X46844Y113333D01*
X46875Y113270D01*
X47043Y112863D01*
X44946Y110766D01*
X44615Y110270D01*
X44498Y109684D01*
Y105053D01*
X44427Y105006D01*
X43945Y104284D01*
X43776Y103433D01*
Y96740D01*
X43945Y95889D01*
X44427Y95168D01*
X44471Y95139D01*
Y90331D01*
X43228D01*
Y85575D01*
X48772D01*
Y90331D01*
X47529D01*
Y95139D01*
X47572Y95168D01*
X48055Y95889D01*
X48224Y96740D01*
Y103433D01*
X48055Y104284D01*
X47572Y105006D01*
X47557Y105016D01*
Y107538D01*
X48047Y107636D01*
X48161Y107361D01*
X48682Y106682D01*
X49361Y106161D01*
X49471Y106116D01*
Y105034D01*
X49428Y105006D01*
X48945Y104284D01*
X48776Y103433D01*
Y96740D01*
X48945Y95889D01*
X49428Y95168D01*
X50149Y94686D01*
X51000Y94516D01*
X51851Y94686D01*
X52573Y95168D01*
X53054Y95889D01*
X53224Y96740D01*
Y103433D01*
X53054Y104284D01*
X52573Y105006D01*
X52529Y105034D01*
Y106116D01*
X52639Y106161D01*
X53318Y106682D01*
X53839Y107361D01*
X54166Y108152D01*
X54278Y109000D01*
X54166Y109848D01*
X53839Y110639D01*
X53318Y111318D01*
X52639Y111839D01*
X51848Y112166D01*
X51285Y112241D01*
X51079Y112696D01*
X51163Y112822D01*
X51279Y113407D01*
X51279Y113407D01*
X51279Y113407D01*
Y113407D01*
Y118053D01*
X51163Y118639D01*
X50831Y119135D01*
X50454Y119512D01*
X50599Y119990D01*
X51085Y120087D01*
X51581Y120419D01*
X55042Y123879D01*
X55152Y123834D01*
X56000Y123722D01*
X56848Y123834D01*
X57639Y124161D01*
X58318Y124682D01*
X58839Y125361D01*
X59166Y126152D01*
X59278Y127000D01*
X59166Y127848D01*
X58839Y128639D01*
X58318Y129318D01*
X57639Y129839D01*
X57529Y129884D01*
Y130966D01*
X57573Y130994D01*
X58055Y131716D01*
X58224Y132567D01*
Y139260D01*
X58055Y140111D01*
X57573Y140832D01*
X56851Y141314D01*
X56000Y141484D01*
X55149Y141314D01*
X54427Y140832D01*
X53945Y140111D01*
X53776Y139260D01*
Y132567D01*
X53945Y131716D01*
X54427Y130994D01*
X54471Y130966D01*
Y129884D01*
X54361Y129839D01*
X53682Y129318D01*
X53161Y128639D01*
X52834Y127848D01*
X52722Y127000D01*
X52834Y126152D01*
X52879Y126042D01*
X49867Y123029D01*
X49765D01*
X49463Y123331D01*
X48967Y123663D01*
X48382Y123779D01*
X47096D01*
X46904Y124241D01*
X52081Y129419D01*
X52413Y129915D01*
X52432Y130012D01*
X52529Y130500D01*
Y130966D01*
X52573Y130994D01*
X53054Y131716D01*
X53224Y132567D01*
Y139260D01*
X53054Y140111D01*
X52573Y140832D01*
X52529Y140861D01*
Y142367D01*
X54581Y144419D01*
X54913Y144915D01*
X55029Y145500D01*
Y146169D01*
X56272D01*
Y146169D01*
X56272D01*
X56272Y146169D01*
X56728Y146169D01*
Y146169D01*
X59471D01*
Y140861D01*
X59427Y140832D01*
X58946Y140111D01*
X58776Y139260D01*
Y132567D01*
X58946Y131716D01*
X59427Y130994D01*
X60149Y130512D01*
X61000Y130343D01*
X61851Y130512D01*
X62572Y130994D01*
X63055Y131716D01*
X63224Y132567D01*
Y139260D01*
X63055Y140111D01*
X62572Y140832D01*
X62529Y140861D01*
Y147047D01*
X62552Y147081D01*
X62822Y147134D01*
X63318Y147466D01*
X65659Y149807D01*
X68941D01*
Y155305D01*
X69843D01*
X71577Y153571D01*
X73740D01*
Y156335D01*
X73139D01*
X71558Y157916D01*
X71153Y158187D01*
X71298Y158665D01*
X72681D01*
Y165193D01*
X68319D01*
Y163459D01*
X66428D01*
X63033Y166853D01*
X62537Y167185D01*
X61952Y167301D01*
X59117D01*
X58926Y167763D01*
X59581Y168419D01*
X59913Y168915D01*
X60029Y169500D01*
X60029Y169500D01*
X60029Y169500D01*
Y169500D01*
Y179938D01*
X60503Y180099D01*
X60979Y179479D01*
X62010Y178688D01*
X63211Y178190D01*
X64500Y178020D01*
X65789Y178190D01*
X66990Y178688D01*
X68021Y179479D01*
X68813Y180510D01*
X69310Y181711D01*
X69480Y183000D01*
X69310Y184289D01*
X68813Y185490D01*
X68021Y186521D01*
X66990Y187312D01*
X65789Y187810D01*
X64500Y187980D01*
X63211Y187810D01*
X62010Y187312D01*
X60979Y186521D01*
X60503Y185901D01*
X60029Y186062D01*
Y188866D01*
X60133Y188971D01*
X65500D01*
X66085Y189087D01*
X66581Y189419D01*
X66581Y189419D01*
X66581Y189419D01*
X71644Y194482D01*
X72106Y194290D01*
D02*
G37*
%LPC*%
G36*
X11000Y57480D02*
X9711Y57310D01*
X8510Y56813D01*
X7479Y56021D01*
X6688Y54990D01*
X6190Y53789D01*
X6020Y52500D01*
X6190Y51211D01*
X6688Y50010D01*
X7479Y48979D01*
X8510Y48188D01*
X9711Y47690D01*
X11000Y47520D01*
X12289Y47690D01*
X13490Y48188D01*
X14521Y48979D01*
X15313Y50010D01*
X15810Y51211D01*
X15980Y52500D01*
X15810Y53789D01*
X15313Y54990D01*
X14521Y56021D01*
X13490Y56813D01*
X12289Y57310D01*
X11000Y57480D01*
D02*
G37*
G36*
Y78480D02*
X9711Y78310D01*
X8510Y77812D01*
X7479Y77021D01*
X6688Y75990D01*
X6190Y74789D01*
X6020Y73500D01*
X6190Y72211D01*
X6688Y71010D01*
X7479Y69979D01*
X8510Y69187D01*
X9567Y68750D01*
Y68250D01*
X8510Y67813D01*
X7479Y67021D01*
X6688Y65990D01*
X6190Y64789D01*
X6020Y63500D01*
X6190Y62211D01*
X6688Y61010D01*
X7479Y59979D01*
X8510Y59188D01*
X9711Y58690D01*
X11000Y58520D01*
X12289Y58690D01*
X13490Y59188D01*
X14521Y59979D01*
X15313Y61010D01*
X15810Y62211D01*
X15980Y63500D01*
X15810Y64789D01*
X15313Y65990D01*
X14521Y67021D01*
X13490Y67813D01*
X12433Y68250D01*
Y68750D01*
X13490Y69187D01*
X14521Y69979D01*
X15313Y71010D01*
X15810Y72211D01*
X15980Y73500D01*
X15810Y74789D01*
X15313Y75990D01*
X14521Y77021D01*
X13490Y77812D01*
X12289Y78310D01*
X11000Y78480D01*
D02*
G37*
G36*
X10000Y16450D02*
X8839Y16336D01*
X7723Y15997D01*
X6694Y15447D01*
X5793Y14707D01*
X5053Y13806D01*
X4503Y12777D01*
X4164Y11661D01*
X4050Y10500D01*
X4164Y9339D01*
X4503Y8223D01*
X5053Y7194D01*
X5793Y6293D01*
X6694Y5553D01*
X7723Y5003D01*
X8839Y4664D01*
X10000Y4550D01*
X11161Y4664D01*
X12277Y5003D01*
X13306Y5553D01*
X14207Y6293D01*
X14947Y7194D01*
X15497Y8223D01*
X15836Y9339D01*
X15950Y10500D01*
X15836Y11661D01*
X15497Y12777D01*
X14947Y13806D01*
X14207Y14707D01*
X13306Y15447D01*
X12277Y15997D01*
X11161Y16336D01*
X10000Y16450D01*
D02*
G37*
G36*
X22500Y17980D02*
X21211Y17810D01*
X20010Y17312D01*
X18979Y16521D01*
X18188Y15490D01*
X17690Y14289D01*
X17520Y13000D01*
X17690Y11711D01*
X18188Y10510D01*
X18979Y9479D01*
X20010Y8687D01*
X21211Y8190D01*
X22500Y8020D01*
X23789Y8190D01*
X24990Y8687D01*
X26021Y9479D01*
X26812Y10510D01*
X27310Y11711D01*
X27480Y13000D01*
X27310Y14289D01*
X26812Y15490D01*
X26021Y16521D01*
X24990Y17312D01*
X23789Y17810D01*
X22500Y17980D01*
D02*
G37*
G36*
X21000Y62480D02*
X19711Y62310D01*
X18510Y61813D01*
X17479Y61021D01*
X16688Y59990D01*
X16190Y58789D01*
X16020Y57500D01*
X16190Y56211D01*
X16688Y55010D01*
X17479Y53979D01*
X18510Y53188D01*
X19567Y52750D01*
Y52250D01*
X18510Y51812D01*
X17479Y51021D01*
X16688Y49990D01*
X16190Y48789D01*
X16020Y47500D01*
X16190Y46211D01*
X16688Y45010D01*
X17479Y43979D01*
X18510Y43187D01*
X19711Y42690D01*
X21000Y42520D01*
X22289Y42690D01*
X23490Y43187D01*
X24521Y43979D01*
X25313Y45010D01*
X25810Y46211D01*
X25980Y47500D01*
X25810Y48789D01*
X25313Y49990D01*
X24521Y51021D01*
X23490Y51812D01*
X22433Y52250D01*
Y52750D01*
X23490Y53188D01*
X24521Y53979D01*
X25313Y55010D01*
X25810Y56211D01*
X25980Y57500D01*
X25810Y58789D01*
X25313Y59990D01*
X24521Y61021D01*
X23490Y61813D01*
X22289Y62310D01*
X21000Y62480D01*
D02*
G37*
G36*
X11000Y46980D02*
X9711Y46810D01*
X8510Y46312D01*
X7479Y45521D01*
X6688Y44490D01*
X6190Y43289D01*
X6020Y42000D01*
X6190Y40711D01*
X6688Y39510D01*
X7479Y38479D01*
X8510Y37688D01*
X9711Y37190D01*
X11000Y37020D01*
X12289Y37190D01*
X13490Y37688D01*
X14521Y38479D01*
X15313Y39510D01*
X15810Y40711D01*
X15980Y42000D01*
X15810Y43289D01*
X15313Y44490D01*
X14521Y45521D01*
X13490Y46312D01*
X12289Y46810D01*
X11000Y46980D01*
D02*
G37*
G36*
X9500Y205414D02*
X8711Y205310D01*
X7510Y204813D01*
X6479Y204021D01*
X5688Y202990D01*
X5190Y201789D01*
X5086Y201000D01*
X9500D01*
Y205414D01*
D02*
G37*
G36*
X29712Y89500D02*
X27000D01*
Y86788D01*
X27348Y86834D01*
X28139Y87161D01*
X28818Y87682D01*
X29339Y88361D01*
X29666Y89152D01*
X29712Y89500D01*
D02*
G37*
G36*
X10000Y219950D02*
X8839Y219836D01*
X7723Y219497D01*
X6694Y218947D01*
X5793Y218207D01*
X5053Y217306D01*
X4503Y216277D01*
X4164Y215161D01*
X4050Y214000D01*
X4164Y212839D01*
X4503Y211723D01*
X5053Y210694D01*
X5793Y209793D01*
X6694Y209053D01*
X7723Y208503D01*
X8839Y208164D01*
X10000Y208050D01*
X11161Y208164D01*
X12277Y208503D01*
X13306Y209053D01*
X14207Y209793D01*
X14947Y210694D01*
X15497Y211723D01*
X15836Y212839D01*
X15950Y214000D01*
X15836Y215161D01*
X15497Y216277D01*
X14947Y217306D01*
X14207Y218207D01*
X13306Y218947D01*
X12277Y219497D01*
X11161Y219836D01*
X10000Y219950D01*
D02*
G37*
G36*
X10500Y205414D02*
Y201000D01*
X14914D01*
X14810Y201789D01*
X14312Y202990D01*
X13521Y204021D01*
X12490Y204813D01*
X11289Y205310D01*
X10500Y205414D01*
D02*
G37*
G36*
X21500Y80000D02*
X18788D01*
X18834Y79652D01*
X19161Y78861D01*
X19682Y78182D01*
X20361Y77661D01*
X21152Y77334D01*
X21500Y77288D01*
Y80000D01*
D02*
G37*
G36*
X21000Y72980D02*
X19711Y72810D01*
X18510Y72312D01*
X17479Y71521D01*
X16688Y70490D01*
X16190Y69289D01*
X16020Y68000D01*
X16190Y66711D01*
X16688Y65510D01*
X17479Y64479D01*
X18510Y63687D01*
X19711Y63190D01*
X21000Y63020D01*
X22289Y63190D01*
X23490Y63687D01*
X24521Y64479D01*
X25313Y65510D01*
X25810Y66711D01*
X25980Y68000D01*
X25810Y69289D01*
X25313Y70490D01*
X24521Y71521D01*
X23490Y72312D01*
X22289Y72810D01*
X21000Y72980D01*
D02*
G37*
G36*
X105000Y65414D02*
X104211Y65310D01*
X103010Y64812D01*
X101979Y64021D01*
X101188Y62990D01*
X100690Y61789D01*
X100586Y61000D01*
X105000D01*
Y65414D01*
D02*
G37*
G36*
X35547Y70000D02*
X33669D01*
Y67728D01*
X35547D01*
Y70000D01*
D02*
G37*
G36*
X61500Y68712D02*
Y66000D01*
X64212D01*
X64166Y66348D01*
X63839Y67139D01*
X63318Y67818D01*
X62639Y68339D01*
X61848Y68666D01*
X61500Y68712D01*
D02*
G37*
%LPD*%
D10*
X59500Y154453D02*
D03*
Y148547D02*
D03*
X22000Y194953D02*
D03*
Y189047D02*
D03*
X97000Y72453D02*
D03*
Y66547D02*
D03*
X46000Y87953D02*
D03*
Y82047D02*
D03*
X36000Y87953D02*
D03*
Y82047D02*
D03*
X53500Y148547D02*
D03*
Y154453D02*
D03*
X47000Y148547D02*
D03*
Y154453D02*
D03*
X40500Y148547D02*
D03*
Y154453D02*
D03*
X107000Y194047D02*
D03*
Y199953D02*
D03*
D11*
X85000Y71571D02*
D03*
X81260Y80429D02*
D03*
X88740D02*
D03*
X67000Y71571D02*
D03*
X63260Y80429D02*
D03*
X70740D02*
D03*
X70500Y161929D02*
D03*
X74240Y153071D02*
D03*
X66760D02*
D03*
X86500Y161929D02*
D03*
X90240Y153071D02*
D03*
X82760D02*
D03*
D12*
X31000Y100087D02*
D03*
X36000D02*
D03*
X41000D02*
D03*
X46000D02*
D03*
X51000D02*
D03*
X56000D02*
D03*
X61000D02*
D03*
X66000D02*
D03*
X71000D02*
D03*
X76000D02*
D03*
X81000D02*
D03*
X86000D02*
D03*
X91000D02*
D03*
X96000D02*
D03*
X31000Y135913D02*
D03*
X36000D02*
D03*
X41000D02*
D03*
X46000D02*
D03*
X51000D02*
D03*
X56000D02*
D03*
X61000D02*
D03*
X66000D02*
D03*
X71000D02*
D03*
X76000D02*
D03*
X81000D02*
D03*
X86000D02*
D03*
X91000D02*
D03*
X96000D02*
D03*
D13*
X25953Y22500D02*
D03*
X20047D02*
D03*
X36047Y70500D02*
D03*
X41953D02*
D03*
X47047D02*
D03*
X52953D02*
D03*
X65047Y90000D02*
D03*
X70953D02*
D03*
X80547Y88500D02*
D03*
X86453D02*
D03*
X59953Y162500D02*
D03*
X54047D02*
D03*
X47453D02*
D03*
X41547D02*
D03*
X75453Y146000D02*
D03*
X69547D02*
D03*
D14*
X34000Y23500D02*
D03*
X38488D02*
D03*
X47465D02*
D03*
X51953D02*
D03*
X77500D02*
D03*
X81988D02*
D03*
X90965D02*
D03*
X95453D02*
D03*
X53000Y207500D02*
D03*
X48512D02*
D03*
X39535D02*
D03*
X35047D02*
D03*
X93500D02*
D03*
X89012D02*
D03*
X80035D02*
D03*
X75547D02*
D03*
D15*
X42976Y48303D02*
D03*
X86476D02*
D03*
X44024Y182697D02*
D03*
X84524D02*
D03*
D16*
X47965Y23500D02*
X48000Y23535D01*
Y30000D01*
X77335Y76665D02*
X83062D01*
X77000Y77000D02*
X77335Y76665D01*
X76907Y77000D02*
X77000D01*
X73478Y80429D02*
X76907Y77000D01*
X37500Y117500D02*
X39500D01*
X41000Y119000D01*
X81000Y100087D02*
Y109500D01*
X114000Y39000D02*
Y40500D01*
X21500Y113500D02*
X27843D01*
X10000Y93000D02*
Y102000D01*
X21500Y113500D01*
X27303Y127886D02*
X38886D01*
X23752Y131437D02*
X27303Y127886D01*
X19248Y131437D02*
X23752D01*
X16063Y128252D02*
X19248Y131437D01*
X16063Y124563D02*
Y128252D01*
X10000Y118500D02*
X16063Y124563D01*
X100500Y195658D02*
X102705D01*
X107000Y199953D01*
X100500Y192500D02*
Y195658D01*
X97158Y199000D02*
X100500Y195658D01*
X105500Y192047D02*
X106453Y193000D01*
X105500Y184500D02*
Y192047D01*
X22000Y176000D02*
Y187500D01*
X21000Y188500D02*
X22000Y187500D01*
X25453Y194953D02*
X27500Y197000D01*
X22000Y194953D02*
X25453D01*
X21953Y195000D02*
X22000Y194953D01*
X19000Y195000D02*
X21953D01*
X16000Y192000D02*
X19000Y195000D01*
X111437Y36437D02*
X114000Y39000D01*
X111437Y20748D02*
Y36437D01*
X108252Y17563D02*
X111437Y20748D01*
X107063Y17563D02*
X108252D01*
X94500Y5000D02*
X107063Y17563D01*
X50500Y121500D02*
X56000Y127000D01*
X27843Y113500D02*
X35843Y121500D01*
X30000Y82000D02*
X36047D01*
X36000Y82047D02*
X46000D01*
X22000Y80500D02*
X28500D01*
X30000Y82000D01*
X48953Y82047D02*
X52000Y79000D01*
X46000Y82047D02*
X48953D01*
X60331Y77500D02*
X63260Y80429D01*
X47047Y70500D02*
X47682D01*
X50954Y67228D01*
X59272D01*
X61000Y65500D01*
X73679Y110179D02*
X74336D01*
X71000Y107500D02*
X73679Y110179D01*
X71000Y100087D02*
Y107500D01*
X79000Y106000D02*
Y114000D01*
X76000Y103000D02*
X79000Y106000D01*
X76000Y100087D02*
Y103000D01*
Y100087D02*
X77000Y101087D01*
X91000Y100087D02*
Y106500D01*
X46028Y100114D02*
Y109684D01*
X46000Y100087D02*
X46028Y100114D01*
X56000Y92000D02*
Y100087D01*
Y127000D02*
Y135913D01*
X26500Y90000D02*
Y91000D01*
X25000Y90000D02*
X26500D01*
X22000Y87000D02*
X25000Y90000D01*
X22000Y80500D02*
Y87000D01*
X51000Y100087D02*
Y109000D01*
X36000Y87953D02*
Y97948D01*
X36000Y97948D01*
X32111Y94059D02*
X36000Y97948D01*
X16063Y100248D02*
X22252Y94059D01*
X32111D01*
X16063Y104752D02*
X19425Y108114D01*
X16063Y100248D02*
Y104752D01*
X36000Y97948D02*
Y100087D01*
X71000Y126500D02*
Y135913D01*
X81000Y126500D02*
Y135913D01*
X86000D02*
X86500Y135413D01*
Y121000D02*
Y135413D01*
X91000Y126000D02*
Y135913D01*
X30000Y145500D02*
X35925Y151425D01*
X42893D01*
X45771Y148547D01*
X47000D01*
X38886Y127886D02*
X41000Y130000D01*
X29890Y129886D02*
X34886D01*
X36000Y131000D02*
Y135913D01*
X34886Y129886D02*
X36000Y131000D01*
X26275Y133500D02*
X29890Y129886D01*
X17500Y133500D02*
X26275D01*
X14000Y130000D02*
X17500Y133500D01*
X10000Y130000D02*
X14000D01*
X41000D02*
Y135913D01*
X51000Y130500D02*
Y135913D01*
X45500Y125000D02*
X51000Y130500D01*
X20500Y125000D02*
X45500D01*
X41000Y100087D02*
Y104228D01*
X39114Y106114D02*
X41000Y104228D01*
X29890Y106114D02*
X39114D01*
X26275Y102500D02*
X29890Y106114D01*
X20500Y102500D02*
X26275D01*
X46000Y100087D02*
X46000Y100087D01*
X46000Y87953D02*
Y100087D01*
X36000D02*
X36000Y100087D01*
X97110Y94059D02*
X98681Y95630D01*
X92012Y94059D02*
X97110D01*
X86453Y88500D02*
X92012Y94059D01*
X88740Y80429D02*
Y86213D01*
X86453Y88500D02*
X88740Y86213D01*
X104429Y153071D02*
X105500Y152000D01*
X90240Y153071D02*
X104429D01*
X86500Y161929D02*
X97000D01*
X39000Y31500D02*
X41705Y34205D01*
X62248Y38937D02*
X65126D01*
X45098Y62402D02*
X55515D01*
X56394Y61523D01*
Y54106D02*
Y61523D01*
Y54106D02*
X58500Y52000D01*
X83500Y94059D02*
X85941D01*
X77059D02*
X83500D01*
Y86182D02*
Y94059D01*
Y86182D02*
X83941Y85741D01*
Y77544D02*
Y85741D01*
X83062Y76665D02*
X83941Y77544D01*
X70740Y80429D02*
X73478D01*
X63173Y75335D02*
X69081D01*
X52953Y70500D02*
X58339D01*
X63173Y75335D01*
X73000Y90000D02*
X77059Y94059D01*
X70953Y90000D02*
X73000D01*
X86000Y94000D02*
Y100087D01*
X85941Y94059D02*
X86000Y94000D01*
X66000Y95500D02*
Y100087D01*
X65047Y94547D02*
X66000Y95500D01*
X65047Y90000D02*
Y94547D01*
X63260Y88213D02*
X65047Y90000D01*
X63260Y80429D02*
Y88213D01*
X80547Y88500D02*
X81260Y87787D01*
Y80429D02*
Y87787D01*
X68938Y84193D02*
X72543D01*
X65174Y80429D02*
X68938Y84193D01*
X63260Y80429D02*
X65174D01*
X46000Y71724D02*
Y82047D01*
Y71547D02*
Y71724D01*
X47047Y70676D01*
X43952Y73772D02*
X46000Y71724D01*
X36047Y70500D02*
Y82000D01*
Y70500D02*
Y70500D01*
X36682D01*
X36000D02*
X36047D01*
X36682D02*
X39954Y73772D01*
X43952D01*
X47047Y70500D02*
Y70676D01*
X46000Y71547D02*
X47047Y70500D01*
X36000Y82047D02*
X36047Y82000D01*
X41953Y70500D02*
X42000Y70453D01*
Y65500D02*
Y70453D01*
Y65500D02*
X45098Y62402D01*
X38988Y23500D02*
X39000Y23512D01*
Y31500D01*
X30429D02*
X39000D01*
X26500Y27571D02*
X30429Y31500D01*
X97913Y135913D02*
X105500Y143500D01*
X96000Y135913D02*
X97913D01*
X16000Y173811D02*
Y192000D01*
Y173811D02*
X19559Y170251D01*
X35953Y159000D02*
X40500Y154453D01*
X31343Y159000D02*
X35953D01*
X19559Y170251D02*
X28249D01*
X30500Y168000D01*
X47224D01*
X50331Y164893D01*
Y160946D02*
Y164893D01*
Y160946D02*
X52048Y159228D01*
X56046D01*
X56925Y160107D01*
Y164743D01*
X57954Y165772D01*
X61952D01*
X65795Y161929D01*
X70500D01*
X41000Y135913D02*
Y148047D01*
X40500Y148547D02*
X41000Y148047D01*
X46000Y135913D02*
Y143500D01*
X47000Y144500D01*
Y148547D01*
X51000Y135913D02*
Y143000D01*
X53500Y145500D01*
Y148547D01*
X61000Y135913D02*
Y147047D01*
X59500Y148547D02*
X61000Y147047D01*
X62236Y148547D02*
X66760Y153071D01*
X59500Y148547D02*
X62236D01*
X75453Y136461D02*
X76000Y135913D01*
X75453Y136461D02*
Y146000D01*
X74240Y153071D02*
Y153909D01*
X77165Y156835D01*
X84562D01*
X88326Y153071D01*
X90240D01*
X66000Y135913D02*
Y142453D01*
X69547Y146000D01*
X72854Y149307D01*
X76043D01*
X79806Y153071D01*
X82760D01*
X90240Y148740D02*
Y153071D01*
X87500Y146000D02*
X90240Y148740D01*
X75453Y146000D02*
X87500D01*
X70476Y156835D02*
X74240Y153071D01*
X64957Y156835D02*
X70476D01*
X62576Y154453D02*
X64957Y156835D01*
X59500Y154453D02*
X62576D01*
X59500Y162047D02*
X59953Y162500D01*
X59500Y154453D02*
Y162047D01*
X59500Y154453D02*
X59500Y154453D01*
X53500Y154453D02*
X59500D01*
X47000D02*
X53500D01*
X47000Y162047D02*
X47453Y162500D01*
X47000Y154453D02*
Y162047D01*
X40500Y154453D02*
X47000D01*
X25843Y164500D02*
X31343Y159000D01*
X21500Y164500D02*
X25843D01*
X16087Y135913D02*
X31000D01*
X12000Y140000D02*
X16087Y135913D01*
X10000Y140000D02*
X12000D01*
X17000Y150000D02*
X21000Y154000D01*
X10000Y150000D02*
X17000D01*
X33000Y162500D02*
X41547D01*
X89012Y202012D02*
Y207500D01*
Y202012D02*
X92024Y199000D01*
X97158D01*
X43535Y202524D02*
X48512Y207500D01*
X58500Y169500D02*
Y189500D01*
X54047Y165047D02*
X58500Y169500D01*
X54047Y162500D02*
Y165047D01*
X80035Y202035D02*
Y207500D01*
X76035Y198035D02*
X80035Y202035D01*
X39535Y201035D02*
Y207500D01*
X27500Y197000D02*
X41192D01*
X43535Y199343D01*
Y202524D01*
X41547Y162500D02*
X41547Y162500D01*
X67000Y68500D02*
Y71571D01*
X97000Y161929D02*
Y166000D01*
X101000Y170000D01*
Y176000D01*
X64500Y6000D02*
Y14811D01*
X58811Y35500D02*
X62248Y38937D01*
X55515Y34205D02*
X56394Y35083D01*
Y35500D01*
X58811D01*
X80500Y71571D02*
X85000D01*
X66752Y27937D02*
X69937Y24752D01*
Y20248D02*
Y24752D01*
X64500Y14811D02*
X69937Y20248D01*
X67000Y68500D02*
X71000Y64500D01*
X70989Y44800D02*
Y64500D01*
X65126Y38937D02*
X70989Y44800D01*
X81988Y23500D02*
Y27039D01*
X74822Y34205D02*
X81988Y27039D01*
X74438Y34205D02*
X74822D01*
X73559Y35083D02*
X74438Y34205D01*
X73559Y35083D02*
Y61523D01*
X74438Y62402D01*
X78058D01*
X80500Y64843D01*
Y71571D01*
X72543Y84193D02*
X75735Y81000D01*
X78828D01*
X79399Y80429D01*
X81260D01*
X70935Y71565D02*
X76250Y66250D01*
X70935Y71565D02*
Y73480D01*
X69081Y75335D02*
X70935Y73480D01*
X76500Y86000D02*
Y86500D01*
X78547D01*
X80547Y88500D01*
X97000Y58827D02*
Y66547D01*
X91953Y72453D02*
X97000D01*
X91000Y71500D02*
X91953Y72453D01*
X85071Y71500D02*
X91000D01*
X85000Y71571D02*
X85071Y71500D01*
X26453Y22500D02*
X26500Y22547D01*
Y27571D01*
X20547Y22500D02*
Y28953D01*
X90965Y23500D02*
Y31000D01*
X59500Y190500D02*
X65500D01*
X58500Y189500D02*
X59500Y190500D01*
X73035Y198035D02*
X76035D01*
X65500Y190500D02*
X73035Y198035D01*
X41705Y34205D02*
X55515D01*
X62500Y27937D02*
X66752D01*
X62500D02*
Y28000D01*
X59500Y31000D02*
X62500Y28000D01*
X90965Y31000D02*
X93429D01*
X95429Y33000D01*
X99571D01*
X100571Y32000D01*
X103000D01*
X37106Y201035D02*
X39535D01*
X35071Y199000D02*
X37106Y201035D01*
X30929Y199000D02*
X35071D01*
X28929Y201000D02*
X30929Y199000D01*
X25500Y201000D02*
X28929D01*
X54458Y79000D02*
X55958Y77500D01*
X52000Y79000D02*
X54458D01*
X55958Y77500D02*
X60331D01*
X61000Y85000D02*
Y100087D01*
X58000Y82500D02*
X60500Y85000D01*
X61000D01*
X99132Y115500D02*
X105000D01*
X96000Y100087D02*
Y110500D01*
X88500Y109000D02*
Y111000D01*
X80500Y120000D02*
X83750Y116750D01*
X88500Y109000D02*
X91000Y106500D01*
X81000Y109500D02*
X86250Y114750D01*
X100000Y106843D02*
Y111803D01*
X98681Y105524D02*
X100000Y106843D01*
X98681Y95630D02*
Y105524D01*
X97882Y116750D02*
X99132Y115500D01*
X83750Y116750D02*
X97882D01*
X97053Y114750D02*
X100000Y111803D01*
X86250Y114750D02*
X97053D01*
X41000Y119000D02*
X43197D01*
X44447Y120250D01*
X47553D01*
X49750Y118053D01*
Y113407D02*
Y118053D01*
X35843Y121500D02*
X42868D01*
X43618Y122250D01*
X48382D01*
X49132Y121500D01*
X50500D01*
X46028Y109684D02*
X49750Y113407D01*
X76000Y124500D02*
Y135913D01*
X19425Y108114D02*
X37614D01*
X46000Y116500D01*
X66000Y100087D02*
Y111000D01*
X73500Y118500D01*
Y122000D01*
X76000Y124500D01*
D17*
X105500Y163932D02*
X114500Y154932D01*
X105495Y184177D02*
X114500D01*
Y173000D02*
Y184177D01*
X105500Y164000D02*
X114500Y173000D01*
X86327Y184500D02*
X105495Y184177D01*
X22000Y176000D02*
X39000D01*
X54500Y15500D02*
Y26000D01*
X20068Y165000D02*
X21932D01*
X53500Y14500D02*
X54500Y15500D01*
X35827Y174500D02*
X44024Y182697D01*
X10000Y160000D02*
Y170500D01*
Y180500D01*
Y190500D01*
Y200500D01*
X84524Y182697D02*
X86327Y184500D01*
X54000Y217500D02*
X54587Y216913D01*
X33000Y204000D02*
Y217500D01*
X54000D01*
X65250Y212750D02*
X70000Y217500D01*
X73461Y204000D02*
Y213695D01*
X54587Y207913D02*
Y216913D01*
Y207913D02*
X64500Y198000D01*
X97500Y15772D02*
Y28000D01*
X105500Y163932D02*
Y164000D01*
X54500Y26000D02*
X58000Y22500D01*
X63500D01*
X96000Y14500D02*
X96500Y15000D01*
X75000Y14500D02*
X96000D01*
X75000D02*
Y26760D01*
X85976Y48303D02*
X88779Y45500D01*
X39178Y44005D02*
X43476Y48303D01*
X14500Y30000D02*
X19500D01*
X33505Y44005D02*
X39178D01*
X19500Y30000D02*
X33505Y44005D01*
X88779Y45500D02*
X106874D01*
X114500Y53126D01*
X70000Y217500D02*
X95087D01*
X32500Y14500D02*
X53500D01*
X114500Y53126D02*
Y154932D01*
X19068Y164000D02*
X20068Y165000D01*
X15500Y164000D02*
X19068D01*
X11500Y160000D02*
X15500Y164000D01*
X10000Y160000D02*
X11500D01*
D18*
X70000Y31760D02*
X75000Y26760D01*
X95087Y204000D02*
Y217500D01*
D19*
X32500Y14500D02*
Y25500D01*
D20*
X114000Y165250D02*
D03*
D21*
X64250Y4750D02*
D03*
D22*
X21500Y126000D02*
D03*
X24500Y211000D02*
D03*
X10000Y200500D02*
D03*
X14500Y30000D02*
D03*
X10000Y190500D02*
D03*
X21500Y176000D02*
D03*
X10000Y170500D02*
D03*
Y180500D02*
D03*
Y160000D02*
D03*
X21500Y164500D02*
D03*
X64500Y210500D02*
D03*
X64000Y197000D02*
D03*
X64500Y183000D02*
D03*
X10000Y150000D02*
D03*
Y140000D02*
D03*
Y130000D02*
D03*
Y120000D02*
D03*
Y110000D02*
D03*
X21500Y102500D02*
D03*
X10000Y93000D02*
D03*
X21000Y154000D02*
D03*
Y144000D02*
D03*
X11000Y73500D02*
D03*
Y63500D02*
D03*
X21000Y68000D02*
D03*
Y57500D02*
D03*
Y47500D02*
D03*
X22500Y13000D02*
D03*
X11000Y42000D02*
D03*
Y52500D02*
D03*
X34000Y5000D02*
D03*
X44500D02*
D03*
X54500D02*
D03*
X64500D02*
D03*
X74500D02*
D03*
X84500D02*
D03*
X94500D02*
D03*
X106000Y23000D02*
D03*
X105500Y60500D02*
D03*
X65500Y58500D02*
D03*
X64500Y46000D02*
D03*
X67000Y33500D02*
D03*
X64500Y22500D02*
D03*
X105500Y132000D02*
D03*
X105000Y103000D02*
D03*
X105500Y142000D02*
D03*
Y152000D02*
D03*
Y164000D02*
D03*
X107000Y45500D02*
D03*
X105500Y184500D02*
D03*
X104000Y208000D02*
D03*
D23*
X79000Y114000D02*
D03*
X73679Y110179D02*
D03*
X86500Y121000D02*
D03*
X100500Y192500D02*
D03*
X114000Y40500D02*
D03*
X61000Y65500D02*
D03*
X105000Y115500D02*
D03*
X37500Y117500D02*
D03*
X56000Y91500D02*
D03*
Y127000D02*
D03*
X26500Y90000D02*
D03*
X22000Y80500D02*
D03*
X51000Y109000D02*
D03*
X71000Y126500D02*
D03*
X80500Y127000D02*
D03*
X91000Y126000D02*
D03*
X30000Y144500D02*
D03*
X58500Y52000D02*
D03*
X76500Y66500D02*
D03*
X33000Y163000D02*
D03*
X25500Y201000D02*
D03*
X101000Y176000D02*
D03*
X58500Y31500D02*
D03*
X76500Y86500D02*
D03*
X103000Y32000D02*
D03*
X47000Y30000D02*
D03*
X58000Y82500D02*
D03*
X88500Y111000D02*
D03*
X96000Y110500D02*
D03*
X46000Y116500D02*
D03*
X79000Y120500D02*
D03*
M02*
