%FSLAX25Y25*%
%MOIN*%
G70*
G01*
G75*
%ADD10R,0.02756X0.03543*%
%ADD11R,0.03543X0.02756*%
%ADD12O,0.02362X0.09055*%
%ADD13R,0.22835X0.25197*%
%ADD14R,0.03150X0.08661*%
%ADD15R,0.02362X0.04528*%
%ADD16C,0.01000*%
%ADD17C,0.07000*%
%ADD18C,0.06400*%
%ADD19C,0.06500*%
%ADD20R,0.60500X0.07500*%
%ADD21R,0.08000X0.18500*%
%ADD22C,0.07874*%
%ADD23C,0.04500*%
%ADD24R,0.03740X0.03543*%
%ADD25R,0.03543X0.03740*%
%ADD26C,0.01969*%
%ADD27R,0.09000X0.09500*%
%ADD28C,0.02362*%
%ADD29C,0.00984*%
%ADD30C,0.00600*%
%ADD31C,0.00787*%
%ADD32C,0.00500*%
D16*
X34000Y30000D02*
Y30500D01*
X30000Y17500D02*
Y62500D01*
Y17500D02*
X56000D01*
Y62500D01*
X30000D02*
X56000D01*
X77500Y30000D02*
Y30500D01*
X73500Y17500D02*
Y62500D01*
Y17500D02*
X99500D01*
Y62500D01*
X73500D02*
X99500D01*
X53000Y200500D02*
Y201000D01*
X57000Y168500D02*
Y213500D01*
X31000D02*
X57000D01*
X31000Y168500D02*
Y213500D01*
Y168500D02*
X57000D01*
X93500Y200500D02*
Y201000D01*
X97500Y168500D02*
Y213500D01*
X71500D02*
X97500D01*
X71500Y168500D02*
Y213500D01*
Y168500D02*
X97500D01*
D28*
X32988Y110126D02*
G03*
X32988Y110126I-1181J0D01*
G01*
D29*
X28146Y100087D02*
G03*
X28146Y100087I-492J0D01*
G01*
X74579Y80429D02*
G03*
X74579Y80429I-492J0D01*
G01*
X92579Y79929D02*
G03*
X92579Y79929I-492J0D01*
G01*
X63906Y153071D02*
G03*
X63906Y153071I-492J0D01*
G01*
X79905D02*
G03*
X79905Y153071I-492J0D01*
G01*
D30*
X91500Y92000D02*
X93000D01*
X93500Y91500D01*
X41500Y166500D02*
X42000Y166000D01*
X40000Y166500D02*
X41500D01*
X53500Y132000D02*
Y145500D01*
X58500Y131500D02*
Y140500D01*
X57500Y166000D02*
X59500Y168000D01*
Y157500D02*
Y159000D01*
X61500Y161000D01*
X95500Y82000D02*
X92301D01*
Y83600D01*
X92834Y84133D01*
X93901D01*
X94434Y83600D01*
Y82000D01*
Y83066D02*
X95500Y84133D01*
Y85199D02*
Y86265D01*
Y85732D01*
X92301D01*
X92834Y85199D01*
X94967Y87865D02*
X95500Y88398D01*
Y89464D01*
X94967Y89997D01*
X92834D01*
X92301Y89464D01*
Y88398D01*
X92834Y87865D01*
X93367D01*
X93901Y88398D01*
Y89997D01*
X56500Y85500D02*
X53301D01*
Y87099D01*
X53834Y87633D01*
X54900D01*
X55434Y87099D01*
Y85500D01*
Y86566D02*
X56500Y87633D01*
Y88699D02*
Y89765D01*
Y89232D01*
X53301D01*
X53834Y88699D01*
Y91365D02*
X53301Y91898D01*
Y92964D01*
X53834Y93497D01*
X54367D01*
X54900Y92964D01*
X55434Y93497D01*
X55967D01*
X56500Y92964D01*
Y91898D01*
X55967Y91365D01*
X55434D01*
X54900Y91898D01*
X54367Y91365D01*
X53834D01*
X54900Y91898D02*
Y92964D01*
X59500Y124000D02*
Y127199D01*
X61099D01*
X61633Y126666D01*
Y125600D01*
X61099Y125066D01*
X59500D01*
X60566D02*
X61633Y124000D01*
X62699D02*
X63765D01*
X63232D01*
Y127199D01*
X62699Y126666D01*
X65365Y124533D02*
X65898Y124000D01*
X66964D01*
X67497Y124533D01*
Y126666D01*
X66964Y127199D01*
X65898D01*
X65365Y126666D01*
Y126133D01*
X65898Y125600D01*
X67497D01*
X72000Y149000D02*
X68801D01*
Y150600D01*
X69334Y151133D01*
X70401D01*
X70934Y150600D01*
Y149000D01*
Y150066D02*
X72000Y151133D01*
Y152199D02*
Y153265D01*
Y152732D01*
X68801D01*
X69334Y152199D01*
X71467Y154865D02*
X72000Y155398D01*
Y156464D01*
X71467Y156997D01*
X69334D01*
X68801Y156464D01*
Y155398D01*
X69334Y154865D01*
X69867D01*
X70401Y155398D01*
Y156997D01*
X106500Y85000D02*
X103301D01*
Y86599D01*
X103834Y87133D01*
X104901D01*
X105434Y86599D01*
Y85000D01*
Y86066D02*
X106500Y87133D01*
Y88199D02*
Y89265D01*
Y88732D01*
X103301D01*
X103834Y88199D01*
X105967Y90865D02*
X106500Y91398D01*
Y92464D01*
X105967Y92997D01*
X103834D01*
X103301Y92464D01*
Y91398D01*
X103834Y90865D01*
X104367D01*
X104901Y91398D01*
Y92997D01*
X30500Y121699D02*
Y119033D01*
X31033Y118500D01*
X32100D01*
X32633Y119033D01*
Y121699D01*
X33699Y118500D02*
X34765D01*
X34232D01*
Y121699D01*
X33699Y121166D01*
X3500Y82199D02*
Y80066D01*
X4566Y79000D01*
X5633Y80066D01*
Y82199D01*
X6699Y79000D02*
Y82199D01*
X8298D01*
X8832Y81666D01*
Y80599D01*
X8298Y80066D01*
X6699D01*
X7765D02*
X8832Y79000D01*
X12031Y82199D02*
X9898D01*
Y79000D01*
X12031D01*
X9898Y80599D02*
X10964D01*
X15230Y82199D02*
X13097D01*
Y80599D01*
X14163D01*
X13097D01*
Y79000D01*
X16296Y81666D02*
X16829Y82199D01*
X17895D01*
X18428Y81666D01*
Y81133D01*
X17895Y80599D01*
X17362D01*
X17895D01*
X18428Y80066D01*
Y79533D01*
X17895Y79000D01*
X16829D01*
X16296Y79533D01*
X1801Y59000D02*
X3934D01*
X5000Y60066D01*
X3934Y61133D01*
X1801D01*
X5000Y62199D02*
X1801D01*
Y63798D01*
X2334Y64332D01*
X3401D01*
X3934Y63798D01*
Y62199D01*
Y63265D02*
X5000Y64332D01*
X1801Y67531D02*
Y65398D01*
X5000D01*
Y67531D01*
X3401Y65398D02*
Y66464D01*
X1801Y70730D02*
Y68597D01*
X3401D01*
Y69663D01*
Y68597D01*
X5000D01*
Y73928D02*
Y71796D01*
X2867Y73928D01*
X2334D01*
X1801Y73395D01*
Y72329D01*
X2334Y71796D01*
X3801Y24000D02*
X5934D01*
X7000Y25066D01*
X5934Y26133D01*
X3801D01*
Y27199D02*
X7000D01*
Y28798D01*
X6467Y29332D01*
X4334D01*
X3801Y28798D01*
Y27199D01*
Y30398D02*
X7000D01*
Y31997D01*
X6467Y32531D01*
X4334D01*
X3801Y31997D01*
Y30398D01*
X6467Y33597D02*
X7000Y34130D01*
Y35196D01*
X6467Y35730D01*
X4334D01*
X3801Y35196D01*
Y34130D01*
X4334Y33597D01*
X4867D01*
X5401Y34130D01*
Y35730D01*
X60500Y16699D02*
Y14566D01*
X61566Y13500D01*
X62633Y14566D01*
Y16699D01*
X63699Y15100D02*
X65832D01*
X68497Y13500D02*
Y16699D01*
X66898Y15100D01*
X69031D01*
X60000Y205199D02*
Y203066D01*
X61066Y202000D01*
X62133Y203066D01*
Y205199D01*
X63199Y203600D02*
X65332D01*
X68531Y202000D02*
X66398D01*
X68531Y204133D01*
Y204666D01*
X67997Y205199D01*
X66931D01*
X66398Y204666D01*
X60500Y219199D02*
Y217066D01*
X61566Y216000D01*
X62633Y217066D01*
Y219199D01*
X63699Y217600D02*
X65832D01*
X66898Y216000D02*
X67964D01*
X67431D01*
Y219199D01*
X66898Y218666D01*
X37000Y32699D02*
Y30033D01*
X37533Y29500D01*
X38600D01*
X39133Y30033D01*
Y32699D01*
X42332Y29500D02*
X40199D01*
X42332Y31633D01*
Y32166D01*
X41798Y32699D01*
X40732D01*
X40199Y32166D01*
X79527Y32699D02*
Y30033D01*
X80060Y29500D01*
X81126D01*
X81660Y30033D01*
Y32699D01*
X84859Y29500D02*
X82726D01*
X84859Y31633D01*
Y32166D01*
X84325Y32699D01*
X83259D01*
X82726Y32166D01*
X43500Y200699D02*
Y198033D01*
X44033Y197500D01*
X45099D01*
X45633Y198033D01*
Y200699D01*
X48832Y197500D02*
X46699D01*
X48832Y199633D01*
Y200166D01*
X48298Y200699D01*
X47232D01*
X46699Y200166D01*
X82500Y200699D02*
Y198033D01*
X83033Y197500D01*
X84100D01*
X84633Y198033D01*
Y200699D01*
X87832Y197500D02*
X85699D01*
X87832Y199633D01*
Y200166D01*
X87299Y200699D01*
X86232D01*
X85699Y200166D01*
X2334Y40133D02*
X1801Y39599D01*
Y38533D01*
X2334Y38000D01*
X2867D01*
X3401Y38533D01*
Y39599D01*
X3934Y40133D01*
X4467D01*
X5000Y39599D01*
Y38533D01*
X4467Y38000D01*
X5000Y41199D02*
X1801D01*
Y42799D01*
X2334Y43332D01*
X3401D01*
X3934Y42799D01*
Y41199D01*
X5000Y45997D02*
X1801D01*
X3401Y44398D01*
Y46531D01*
X19633Y76666D02*
X19099Y77199D01*
X18033D01*
X17500Y76666D01*
Y76133D01*
X18033Y75599D01*
X19099D01*
X19633Y75066D01*
Y74533D01*
X19099Y74000D01*
X18033D01*
X17500Y74533D01*
X20699Y74000D02*
Y77199D01*
X22298D01*
X22832Y76666D01*
Y75599D01*
X22298Y75066D01*
X20699D01*
X23898Y76666D02*
X24431Y77199D01*
X25497D01*
X26031Y76666D01*
Y76133D01*
X25497Y75599D01*
X24964D01*
X25497D01*
X26031Y75066D01*
Y74533D01*
X25497Y74000D01*
X24431D01*
X23898Y74533D01*
X2334Y51133D02*
X1801Y50599D01*
Y49533D01*
X2334Y49000D01*
X2867D01*
X3401Y49533D01*
Y50599D01*
X3934Y51133D01*
X4467D01*
X5000Y50599D01*
Y49533D01*
X4467Y49000D01*
X5000Y52199D02*
X1801D01*
Y53799D01*
X2334Y54332D01*
X3401D01*
X3934Y53799D01*
Y52199D01*
X5000Y55398D02*
Y56464D01*
Y55931D01*
X1801D01*
X2334Y55398D01*
X1334Y90133D02*
X801Y89600D01*
Y88533D01*
X1334Y88000D01*
X1867D01*
X2400Y88533D01*
Y89600D01*
X2934Y90133D01*
X3467D01*
X4000Y89600D01*
Y88533D01*
X3467Y88000D01*
X4000Y91199D02*
X801D01*
X4000Y93332D01*
X801D01*
X4000Y95997D02*
X801D01*
X2400Y94398D01*
Y96531D01*
X1834Y107133D02*
X1301Y106599D01*
Y105533D01*
X1834Y105000D01*
X2367D01*
X2901Y105533D01*
Y106599D01*
X3434Y107133D01*
X3967D01*
X4500Y106599D01*
Y105533D01*
X3967Y105000D01*
X4500Y108199D02*
X1301D01*
X4500Y110332D01*
X1301D01*
X4500Y113531D02*
Y111398D01*
X2367Y113531D01*
X1834D01*
X1301Y112997D01*
Y111931D01*
X1834Y111398D01*
Y118133D02*
X1301Y117599D01*
Y116533D01*
X1834Y116000D01*
X2367D01*
X2901Y116533D01*
Y117599D01*
X3434Y118133D01*
X3967D01*
X4500Y117599D01*
Y116533D01*
X3967Y116000D01*
X4500Y119199D02*
X1301D01*
X4500Y121332D01*
X1301D01*
X4500Y122398D02*
Y123464D01*
Y122931D01*
X1301D01*
X1834Y122398D01*
X64000Y84000D02*
Y87199D01*
X65600D01*
X66133Y86666D01*
Y85599D01*
X65600Y85066D01*
X64000D01*
X65066D02*
X66133Y84000D01*
X67199D02*
X68265D01*
X67732D01*
Y87199D01*
X67199Y86666D01*
X69865Y87199D02*
X71997D01*
Y86666D01*
X69865Y84533D01*
Y84000D01*
X77000Y80000D02*
Y83199D01*
X78600D01*
X79133Y82666D01*
Y81599D01*
X78600Y81066D01*
X77000D01*
X78066D02*
X79133Y80000D01*
X80199D02*
X81265D01*
X80732D01*
Y83199D01*
X80199Y82666D01*
X82865Y83199D02*
X84997D01*
Y82666D01*
X82865Y80533D01*
Y80000D01*
X67000Y162000D02*
X63801D01*
Y163600D01*
X64334Y164133D01*
X65400D01*
X65934Y163600D01*
Y162000D01*
Y163066D02*
X67000Y164133D01*
Y165199D02*
Y166265D01*
Y165732D01*
X63801D01*
X64334Y165199D01*
X63801Y167865D02*
Y169997D01*
X64334D01*
X66467Y167865D01*
X67000D01*
X89500Y143500D02*
Y146699D01*
X91100D01*
X91633Y146166D01*
Y145099D01*
X91100Y144566D01*
X89500D01*
X90566D02*
X91633Y143500D01*
X92699D02*
X93765D01*
X93232D01*
Y146699D01*
X92699Y146166D01*
X95365Y146699D02*
X97497D01*
Y146166D01*
X95365Y144033D01*
Y143500D01*
X34500Y74000D02*
Y77199D01*
X36099D01*
X36633Y76666D01*
Y75599D01*
X36099Y75066D01*
X34500D01*
X35566D02*
X36633Y74000D01*
X37699D02*
X38765D01*
X38232D01*
Y77199D01*
X37699Y76666D01*
X42497Y77199D02*
X41431Y76666D01*
X40365Y75599D01*
Y74533D01*
X40898Y74000D01*
X41964D01*
X42497Y74533D01*
Y75066D01*
X41964Y75599D01*
X40365D01*
X45500Y74000D02*
Y77199D01*
X47100D01*
X47633Y76666D01*
Y75599D01*
X47100Y75066D01*
X45500D01*
X46566D02*
X47633Y74000D01*
X48699D02*
X49765D01*
X49232D01*
Y77199D01*
X48699Y76666D01*
X53497Y77199D02*
X52431Y76666D01*
X51365Y75599D01*
Y74533D01*
X51898Y74000D01*
X52964D01*
X53497Y74533D01*
Y75066D01*
X52964Y75599D01*
X51365D01*
X30500Y163000D02*
Y166199D01*
X32100D01*
X32633Y165666D01*
Y164600D01*
X32100Y164066D01*
X30500D01*
X31566D02*
X32633Y163000D01*
X33699D02*
X34765D01*
X34232D01*
Y166199D01*
X33699Y165666D01*
X38497Y166199D02*
X37431Y165666D01*
X36365Y164600D01*
Y163533D01*
X36898Y163000D01*
X37964D01*
X38497Y163533D01*
Y164066D01*
X37964Y164600D01*
X36365D01*
X62000Y169500D02*
X58801D01*
Y171099D01*
X59334Y171633D01*
X60400D01*
X60934Y171099D01*
Y169500D01*
Y170566D02*
X62000Y171633D01*
Y172699D02*
Y173765D01*
Y173232D01*
X58801D01*
X59334Y172699D01*
X58801Y177497D02*
X59334Y176431D01*
X60400Y175365D01*
X61467D01*
X62000Y175898D01*
Y176964D01*
X61467Y177497D01*
X60934D01*
X60400Y176964D01*
Y175365D01*
X20000Y26000D02*
Y29199D01*
X21599D01*
X22133Y28666D01*
Y27599D01*
X21599Y27066D01*
X20000D01*
X21066D02*
X22133Y26000D01*
X23199D02*
X24265D01*
X23732D01*
Y29199D01*
X23199Y28666D01*
X27997Y29199D02*
X25865D01*
Y27599D01*
X26931Y28133D01*
X27464D01*
X27997Y27599D01*
Y26533D01*
X27464Y26000D01*
X26398D01*
X25865Y26533D01*
X104000Y66000D02*
X100801D01*
Y67599D01*
X101334Y68133D01*
X102401D01*
X102934Y67599D01*
Y66000D01*
Y67066D02*
X104000Y68133D01*
Y69199D02*
Y70265D01*
Y69732D01*
X100801D01*
X101334Y69199D01*
X100801Y73997D02*
Y71865D01*
X102401D01*
X101867Y72931D01*
Y73464D01*
X102401Y73997D01*
X103467D01*
X104000Y73464D01*
Y72398D01*
X103467Y71865D01*
X18500Y188000D02*
X15301D01*
Y189600D01*
X15834Y190133D01*
X16901D01*
X17434Y189600D01*
Y188000D01*
Y189066D02*
X18500Y190133D01*
Y191199D02*
Y192265D01*
Y191732D01*
X15301D01*
X15834Y191199D01*
X15301Y195997D02*
Y193865D01*
X16901D01*
X16367Y194931D01*
Y195464D01*
X16901Y195997D01*
X17967D01*
X18500Y195464D01*
Y194398D01*
X17967Y193865D01*
X114000Y193000D02*
X110801D01*
Y194599D01*
X111334Y195133D01*
X112400D01*
X112934Y194599D01*
Y193000D01*
Y194066D02*
X114000Y195133D01*
Y196199D02*
Y197265D01*
Y196732D01*
X110801D01*
X111334Y196199D01*
X110801Y200997D02*
Y198865D01*
X112400D01*
X111867Y199931D01*
Y200464D01*
X112400Y200997D01*
X113467D01*
X114000Y200464D01*
Y199398D01*
X113467Y198865D01*
X42500Y81000D02*
X39301D01*
Y82600D01*
X39834Y83133D01*
X40900D01*
X41434Y82600D01*
Y81000D01*
Y82066D02*
X42500Y83133D01*
Y84199D02*
Y85265D01*
Y84732D01*
X39301D01*
X39834Y84199D01*
Y86865D02*
X39301Y87398D01*
Y88464D01*
X39834Y88997D01*
X40367D01*
X40900Y88464D01*
Y87931D01*
Y88464D01*
X41434Y88997D01*
X41967D01*
X42500Y88464D01*
Y87398D01*
X41967Y86865D01*
X46000Y125000D02*
Y128199D01*
X47600D01*
X48133Y127666D01*
Y126600D01*
X47600Y126066D01*
X46000D01*
X47066D02*
X48133Y125000D01*
X49199D02*
X50265D01*
X49732D01*
Y128199D01*
X49199Y127666D01*
X51865Y125000D02*
X52931D01*
X52398D01*
Y128199D01*
X51865Y127666D01*
X43000Y142500D02*
Y145699D01*
X44600D01*
X45133Y145166D01*
Y144099D01*
X44600Y143566D01*
X43000D01*
X44066D02*
X45133Y142500D01*
X46199D02*
X47265D01*
X46732D01*
Y145699D01*
X46199Y145166D01*
X48865D02*
X49398Y145699D01*
X50464D01*
X50997Y145166D01*
Y143033D01*
X50464Y142500D01*
X49398D01*
X48865Y143033D01*
Y145166D01*
X37000Y149000D02*
X33801D01*
Y150600D01*
X34334Y151133D01*
X35401D01*
X35934Y150600D01*
Y149000D01*
Y150066D02*
X37000Y151133D01*
X36467Y152199D02*
X37000Y152732D01*
Y153798D01*
X36467Y154332D01*
X34334D01*
X33801Y153798D01*
Y152732D01*
X34334Y152199D01*
X34867D01*
X35401Y152732D01*
Y154332D01*
X32500Y83000D02*
X29301D01*
Y84600D01*
X29834Y85133D01*
X30900D01*
X31434Y84600D01*
Y83000D01*
Y84066D02*
X32500Y85133D01*
Y86199D02*
Y87265D01*
Y86732D01*
X29301D01*
X29834Y86199D01*
X57133Y78533D02*
Y80666D01*
X56599Y81199D01*
X55533D01*
X55000Y80666D01*
Y78533D01*
X55533Y78000D01*
X56599D01*
X56066Y79066D02*
X57133Y78000D01*
X56599D02*
X57133Y78533D01*
X58199Y80666D02*
X58732Y81199D01*
X59799D01*
X60332Y80666D01*
Y80133D01*
X59799Y79599D01*
X59265D01*
X59799D01*
X60332Y79066D01*
Y78533D01*
X59799Y78000D01*
X58732D01*
X58199Y78533D01*
X90133Y68033D02*
Y70166D01*
X89600Y70699D01*
X88533D01*
X88000Y70166D01*
Y68033D01*
X88533Y67500D01*
X89600D01*
X89066Y68566D02*
X90133Y67500D01*
X89600D02*
X90133Y68033D01*
X91199Y70166D02*
X91732Y70699D01*
X92799D01*
X93332Y70166D01*
Y69633D01*
X92799Y69099D01*
X92265D01*
X92799D01*
X93332Y68566D01*
Y68033D01*
X92799Y67500D01*
X91732D01*
X91199Y68033D01*
X75633Y162533D02*
Y164666D01*
X75099Y165199D01*
X74033D01*
X73500Y164666D01*
Y162533D01*
X74033Y162000D01*
X75099D01*
X74566Y163066D02*
X75633Y162000D01*
X75099D02*
X75633Y162533D01*
X76699Y164666D02*
X77232Y165199D01*
X78298D01*
X78832Y164666D01*
Y164133D01*
X78298Y163600D01*
X77765D01*
X78298D01*
X78832Y163066D01*
Y162533D01*
X78298Y162000D01*
X77232D01*
X76699Y162533D01*
X91633D02*
Y164666D01*
X91100Y165199D01*
X90033D01*
X89500Y164666D01*
Y162533D01*
X90033Y162000D01*
X91100D01*
X90566Y163066D02*
X91633Y162000D01*
X91100D02*
X91633Y162533D01*
X92699Y164666D02*
X93232Y165199D01*
X94298D01*
X94832Y164666D01*
Y164133D01*
X94298Y163600D01*
X93765D01*
X94298D01*
X94832Y163066D01*
Y162533D01*
X94298Y162000D01*
X93232D01*
X92699Y162533D01*
X114500Y98500D02*
X111301D01*
X112367Y99566D01*
X111301Y100633D01*
X114500D01*
X111301Y101699D02*
X111834D01*
X112900Y102765D01*
X111834Y103832D01*
X111301D01*
X112900Y102765D02*
X114500D01*
Y107031D02*
Y104898D01*
X112367Y107031D01*
X111834D01*
X111301Y106497D01*
Y105431D01*
X111834Y104898D01*
X8500Y17500D02*
Y20699D01*
X9566Y19633D01*
X10633Y20699D01*
Y17500D01*
X11699Y20699D02*
Y20166D01*
X12765Y19099D01*
X13832Y20166D01*
Y20699D01*
X12765Y19099D02*
Y17500D01*
X14898D02*
X15964D01*
X15431D01*
Y20699D01*
X14898Y20166D01*
X60500Y188500D02*
Y191699D01*
X61566Y190633D01*
X62633Y191699D01*
Y188500D01*
X63699Y191699D02*
Y189566D01*
X64765Y188500D01*
X65832Y189566D01*
Y191699D01*
X69031Y188500D02*
X66898D01*
X69031Y190633D01*
Y191166D01*
X68497Y191699D01*
X67431D01*
X66898Y191166D01*
X65000Y64500D02*
Y67699D01*
X66066Y66633D01*
X67133Y67699D01*
Y64500D01*
X68199Y67699D02*
Y65566D01*
X69265Y64500D01*
X70332Y65566D01*
Y67699D01*
X71398Y64500D02*
X72464D01*
X71931D01*
Y67699D01*
X71398Y67166D01*
X107000Y213500D02*
X103801D01*
X104867Y214566D01*
X103801Y215633D01*
X107000D01*
X103801Y216699D02*
X107000D01*
Y218299D01*
X106467Y218832D01*
X105934D01*
X105401Y218299D01*
Y216699D01*
Y218299D01*
X104867Y218832D01*
X104334D01*
X103801Y218299D01*
Y216699D01*
X107000Y222031D02*
Y219898D01*
X104867Y222031D01*
X104334D01*
X103801Y221497D01*
Y220431D01*
X104334Y219898D01*
X4500Y146000D02*
X1301D01*
X2367Y147066D01*
X1301Y148133D01*
X4500D01*
X2901Y149199D02*
Y151332D01*
X1834Y150265D02*
X3967D01*
X4500Y152398D02*
Y153464D01*
Y152931D01*
X1301D01*
X1834Y152398D01*
Y200633D02*
X1301Y200099D01*
Y199033D01*
X1834Y198500D01*
X3967D01*
X4500Y199033D01*
Y200099D01*
X3967Y200633D01*
X2901D01*
Y199566D01*
X1301Y201699D02*
Y203832D01*
X1834D01*
X3967Y201699D01*
X4500D01*
X113633Y62166D02*
X113100Y62699D01*
X112033D01*
X111500Y62166D01*
Y60033D01*
X112033Y59500D01*
X113100D01*
X113633Y60033D01*
Y61099D01*
X112566D01*
X116832Y62699D02*
X115765Y62166D01*
X114699Y61099D01*
Y60033D01*
X115232Y59500D01*
X116298D01*
X116832Y60033D01*
Y60566D01*
X116298Y61099D01*
X114699D01*
X1834Y180133D02*
X1301Y179599D01*
Y178533D01*
X1834Y178000D01*
X3967D01*
X4500Y178533D01*
Y179599D01*
X3967Y180133D01*
X2901D01*
Y179066D01*
X1301Y183332D02*
Y181199D01*
X2901D01*
X2367Y182265D01*
Y182799D01*
X2901Y183332D01*
X3967D01*
X4500Y182799D01*
Y181732D01*
X3967Y181199D01*
X1834Y190133D02*
X1301Y189600D01*
Y188533D01*
X1834Y188000D01*
X3967D01*
X4500Y188533D01*
Y189600D01*
X3967Y190133D01*
X2901D01*
Y189066D01*
X4500Y192798D02*
X1301D01*
X2901Y191199D01*
Y193332D01*
X1334Y159633D02*
X801Y159099D01*
Y158033D01*
X1334Y157500D01*
X3467D01*
X4000Y158033D01*
Y159099D01*
X3467Y159633D01*
X2400D01*
Y158566D01*
X1334Y160699D02*
X801Y161232D01*
Y162299D01*
X1334Y162832D01*
X1867D01*
X2400Y162299D01*
Y161765D01*
Y162299D01*
X2934Y162832D01*
X3467D01*
X4000Y162299D01*
Y161232D01*
X3467Y160699D01*
X1834Y170633D02*
X1301Y170099D01*
Y169033D01*
X1834Y168500D01*
X3967D01*
X4500Y169033D01*
Y170099D01*
X3967Y170633D01*
X2901D01*
Y169566D01*
X4500Y171699D02*
Y172765D01*
Y172232D01*
X1301D01*
X1834Y171699D01*
X1301Y136000D02*
X4500D01*
Y137600D01*
X3967Y138133D01*
X1834D01*
X1301Y137600D01*
Y136000D01*
Y139199D02*
Y140265D01*
Y139732D01*
X4500D01*
Y139199D01*
Y140265D01*
Y143997D02*
Y141865D01*
X2367Y143997D01*
X1834D01*
X1301Y143464D01*
Y142398D01*
X1834Y141865D01*
X1301Y126000D02*
X4500D01*
Y127600D01*
X3967Y128133D01*
X1834D01*
X1301Y127600D01*
Y126000D01*
Y129199D02*
Y130265D01*
Y129732D01*
X4500D01*
Y129199D01*
Y130265D01*
Y131865D02*
Y132931D01*
Y132398D01*
X1301D01*
X1834Y131865D01*
X18500Y108500D02*
Y110633D01*
X19566Y111699D01*
X20633Y110633D01*
Y108500D01*
Y110099D01*
X18500D01*
X21699Y111699D02*
X22765D01*
X22232D01*
Y108500D01*
X21699D01*
X22765D01*
X24365D02*
X25431D01*
X24898D01*
Y111699D01*
X24365Y111166D01*
X20133Y135166D02*
X19600Y135699D01*
X18533D01*
X18000Y135166D01*
Y134633D01*
X18533Y134099D01*
X19600D01*
X20133Y133566D01*
Y133033D01*
X19600Y132500D01*
X18533D01*
X18000Y133033D01*
X21199Y132500D02*
Y135699D01*
X23332Y132500D01*
Y135699D01*
X24398Y135166D02*
X24931Y135699D01*
X25997D01*
X26531Y135166D01*
Y134633D01*
X25997Y134099D01*
X25464D01*
X25997D01*
X26531Y133566D01*
Y133033D01*
X25997Y132500D01*
X24931D01*
X24398Y133033D01*
D31*
X83713Y90622D02*
X85287D01*
X83713Y93378D02*
X85287D01*
X61378Y88713D02*
Y90287D01*
X58622Y88713D02*
Y90287D01*
X58713Y142622D02*
X60287D01*
X58713Y145378D02*
X60287D01*
X70713Y147378D02*
X72287D01*
X70713Y144622D02*
X72287D01*
X101378Y87713D02*
Y89287D01*
X98622Y87713D02*
Y89287D01*
X99130Y106189D02*
Y129811D01*
X27870Y106189D02*
Y129811D01*
X99130D01*
X27870Y106189D02*
X99130D01*
X67213Y88622D02*
X68787D01*
X67213Y91378D02*
X68787D01*
X83713Y85122D02*
X85287D01*
X83713Y87878D02*
X85287D01*
X58122Y151213D02*
Y152787D01*
X60878Y151213D02*
Y152787D01*
X82213Y146878D02*
X83787D01*
X82213Y144122D02*
X83787D01*
X38213Y69122D02*
X39787D01*
X38213Y71878D02*
X39787D01*
X49213Y69122D02*
X50787D01*
X49213Y71878D02*
X50787D01*
X43713Y163878D02*
X45287D01*
X43713Y161122D02*
X45287D01*
X56213Y163878D02*
X57787D01*
X56213Y161122D02*
X57787D01*
X22213Y23878D02*
X23787D01*
X22213Y21122D02*
X23787D01*
X95622Y68713D02*
Y70287D01*
X98378Y68713D02*
Y70287D01*
X20622Y191213D02*
Y192787D01*
X23378Y191213D02*
Y192787D01*
X108378Y196213D02*
Y197787D01*
X105622Y196213D02*
Y197787D01*
X44622Y84213D02*
Y85787D01*
X47378Y84213D02*
Y85787D01*
X54878Y151213D02*
Y152787D01*
X52122Y151213D02*
Y152787D01*
X48378Y150713D02*
Y152287D01*
X45622Y150713D02*
Y152287D01*
X41878Y150713D02*
Y152287D01*
X39122Y150713D02*
Y152287D01*
X34622Y84213D02*
Y85787D01*
X37378Y84213D02*
Y85787D01*
X72905Y73244D02*
Y76787D01*
X69756Y73244D02*
X72905D01*
X61094D02*
Y76787D01*
Y73244D02*
X64244D01*
X90905Y72744D02*
Y76287D01*
X87756Y72744D02*
X90905D01*
X79094D02*
Y76287D01*
Y72744D02*
X82244D01*
X64595Y156713D02*
Y160256D01*
X67744D01*
X76406Y156713D02*
Y160256D01*
X73256D02*
X76406D01*
X80594Y156713D02*
Y160256D01*
X83744D01*
X92405Y156713D02*
Y160256D01*
X89256D02*
X92405D01*
D32*
X78500Y149500D02*
X79000Y149000D01*
X92563D01*
M02*
