%FSLAX25Y25*%
%MOIN*%
G70*
G01*
G75*
G04 Layer_Color=16776960*
%ADD10R,0.06890X0.10433*%
%ADD11R,0.08504X0.08898*%
%ADD12R,0.06693X0.02953*%
%ADD13R,0.08268X0.03937*%
%ADD14O,0.08268X0.03937*%
%ADD15O,0.02362X0.07087*%
%ADD16O,0.02362X0.08268*%
%ADD17R,0.03543X0.02756*%
%ADD18C,0.01000*%
%ADD19C,0.05000*%
%ADD20C,0.07000*%
%ADD21C,0.02000*%
%ADD22R,0.29000X0.24000*%
%ADD23R,0.30500X0.24000*%
%ADD24C,0.04724*%
G04:AMPARAMS|DCode=25|XSize=137.8mil|YSize=236.22mil|CornerRadius=34.45mil|HoleSize=0mil|Usage=FLASHONLY|Rotation=0.000|XOffset=0mil|YOffset=0mil|HoleType=Round|Shape=RoundedRectangle|*
%AMROUNDEDRECTD25*
21,1,0.13780,0.16732,0,0,0.0*
21,1,0.06890,0.23622,0,0,0.0*
1,1,0.06890,0.03445,-0.08366*
1,1,0.06890,-0.03445,-0.08366*
1,1,0.06890,-0.03445,0.08366*
1,1,0.06890,0.03445,0.08366*
%
%ADD25ROUNDEDRECTD25*%
G04:AMPARAMS|DCode=26|XSize=177.16mil|YSize=236.22mil|CornerRadius=44.29mil|HoleSize=0mil|Usage=FLASHONLY|Rotation=0.000|XOffset=0mil|YOffset=0mil|HoleType=Round|Shape=RoundedRectangle|*
%AMROUNDEDRECTD26*
21,1,0.17716,0.14764,0,0,0.0*
21,1,0.08858,0.23622,0,0,0.0*
1,1,0.08858,0.04429,-0.07382*
1,1,0.08858,-0.04429,-0.07382*
1,1,0.08858,-0.04429,0.07382*
1,1,0.08858,0.04429,0.07382*
%
%ADD26ROUNDEDRECTD26*%
G04:AMPARAMS|DCode=27|XSize=374.02mil|YSize=157.48mil|CornerRadius=39.37mil|HoleSize=0mil|Usage=FLASHONLY|Rotation=90.000|XOffset=0mil|YOffset=0mil|HoleType=Round|Shape=RoundedRectangle|*
%AMROUNDEDRECTD27*
21,1,0.37402,0.07874,0,0,90.0*
21,1,0.29528,0.15748,0,0,90.0*
1,1,0.07874,0.03937,0.14764*
1,1,0.07874,0.03937,-0.14764*
1,1,0.07874,-0.03937,-0.14764*
1,1,0.07874,-0.03937,0.14764*
%
%ADD27ROUNDEDRECTD27*%
G04:AMPARAMS|DCode=28|XSize=295.28mil|YSize=157.48mil|CornerRadius=39.37mil|HoleSize=0mil|Usage=FLASHONLY|Rotation=90.000|XOffset=0mil|YOffset=0mil|HoleType=Round|Shape=RoundedRectangle|*
%AMROUNDEDRECTD28*
21,1,0.29528,0.07874,0,0,90.0*
21,1,0.21654,0.15748,0,0,90.0*
1,1,0.07874,0.03937,0.10827*
1,1,0.07874,0.03937,-0.10827*
1,1,0.07874,-0.03937,-0.10827*
1,1,0.07874,-0.03937,0.10827*
%
%ADD28ROUNDEDRECTD28*%
%ADD29C,0.07874*%
%ADD30C,0.04500*%
%ADD31R,0.03150X0.03543*%
%ADD32R,0.03543X0.03150*%
%ADD33R,0.04528X0.02362*%
%ADD34R,0.02362X0.04528*%
%ADD35R,0.02756X0.03543*%
%ADD36R,0.05118X0.13189*%
%ADD37C,0.01500*%
%ADD38C,0.10000*%
%ADD39C,0.05500*%
%ADD40R,0.31000X0.24500*%
%ADD41R,0.30000X0.24000*%
%ADD42C,0.00787*%
%ADD43C,0.00984*%
%ADD44C,0.02362*%
%ADD45C,0.00600*%
%ADD46R,0.07690X0.11233*%
%ADD47R,0.09304X0.09698*%
%ADD48R,0.07493X0.03753*%
%ADD49R,0.09068X0.04737*%
%ADD50O,0.09068X0.04737*%
%ADD51O,0.03162X0.07887*%
%ADD52O,0.03162X0.09068*%
%ADD53R,0.04343X0.03556*%
G04:AMPARAMS|DCode=54|XSize=145.79mil|YSize=244.22mil|CornerRadius=38.45mil|HoleSize=0mil|Usage=FLASHONLY|Rotation=0.000|XOffset=0mil|YOffset=0mil|HoleType=Round|Shape=RoundedRectangle|*
%AMROUNDEDRECTD54*
21,1,0.14579,0.16732,0,0,0.0*
21,1,0.06890,0.24422,0,0,0.0*
1,1,0.07690,0.03445,-0.08366*
1,1,0.07690,-0.03445,-0.08366*
1,1,0.07690,-0.03445,0.08366*
1,1,0.07690,0.03445,0.08366*
%
%ADD54ROUNDEDRECTD54*%
G04:AMPARAMS|DCode=55|XSize=185.17mil|YSize=244.22mil|CornerRadius=48.29mil|HoleSize=0mil|Usage=FLASHONLY|Rotation=0.000|XOffset=0mil|YOffset=0mil|HoleType=Round|Shape=RoundedRectangle|*
%AMROUNDEDRECTD55*
21,1,0.18517,0.14764,0,0,0.0*
21,1,0.08858,0.24422,0,0,0.0*
1,1,0.09658,0.04429,-0.07382*
1,1,0.09658,-0.04429,-0.07382*
1,1,0.09658,-0.04429,0.07382*
1,1,0.09658,0.04429,0.07382*
%
%ADD55ROUNDEDRECTD55*%
G04:AMPARAMS|DCode=56|XSize=382.02mil|YSize=165.48mil|CornerRadius=43.37mil|HoleSize=0mil|Usage=FLASHONLY|Rotation=90.000|XOffset=0mil|YOffset=0mil|HoleType=Round|Shape=RoundedRectangle|*
%AMROUNDEDRECTD56*
21,1,0.38202,0.07874,0,0,90.0*
21,1,0.29528,0.16548,0,0,90.0*
1,1,0.08674,0.03937,0.14764*
1,1,0.08674,0.03937,-0.14764*
1,1,0.08674,-0.03937,-0.14764*
1,1,0.08674,-0.03937,0.14764*
%
%ADD56ROUNDEDRECTD56*%
G04:AMPARAMS|DCode=57|XSize=303.28mil|YSize=165.48mil|CornerRadius=43.37mil|HoleSize=0mil|Usage=FLASHONLY|Rotation=90.000|XOffset=0mil|YOffset=0mil|HoleType=Round|Shape=RoundedRectangle|*
%AMROUNDEDRECTD57*
21,1,0.30328,0.07874,0,0,90.0*
21,1,0.21654,0.16548,0,0,90.0*
1,1,0.08674,0.03937,0.10827*
1,1,0.08674,0.03937,-0.10827*
1,1,0.08674,-0.03937,-0.10827*
1,1,0.08674,-0.03937,0.10827*
%
%ADD57ROUNDEDRECTD57*%
%ADD58C,0.08674*%
%ADD59C,0.05300*%
%ADD60R,0.03950X0.04343*%
%ADD61R,0.04343X0.03950*%
%ADD62R,0.05328X0.03162*%
%ADD63R,0.03162X0.05328*%
%ADD64R,0.03556X0.04343*%
%ADD65R,0.05918X0.13989*%
D18*
X50000Y106500D02*
X51000Y107500D01*
Y112500D01*
X50000D02*
X51000D01*
X26000Y89500D02*
Y90500D01*
X35000Y114500D02*
Y122500D01*
X34000Y113500D02*
X35000Y114500D01*
X12500Y134000D02*
X14500D01*
X17000Y131500D01*
X2500Y122500D02*
Y123500D01*
Y122500D02*
X5000Y120000D01*
X11000Y113500D02*
X11500Y114000D01*
X14500D01*
X15500Y113000D01*
X44000Y87500D02*
X47000D01*
X48500Y89000D01*
X70500Y86500D02*
X71568Y85432D01*
X69000Y86500D02*
X70500D01*
X58000Y81500D02*
X59000D01*
X55500Y84000D02*
X58000Y81500D01*
X55500Y84000D02*
Y86500D01*
X54000Y88000D02*
X55500Y86500D01*
X51000Y88000D02*
X54000D01*
X49500Y86500D02*
X51000Y88000D01*
X43000Y86500D02*
X44000Y87500D01*
X41500Y86500D02*
X43000D01*
X40750Y85750D02*
X41500Y86500D01*
D24*
X0Y0D02*
Y179500D01*
Y0D02*
X88500D01*
X0Y179500D02*
X88500D01*
Y0D02*
Y179500D01*
D42*
X23244Y92095D02*
Y95244D01*
Y92095D02*
X26787D01*
X23244Y100756D02*
Y103906D01*
X26787D01*
X38047Y125543D02*
X41197D01*
X38047Y122000D02*
Y125543D01*
X46709D02*
X49858D01*
Y122000D02*
Y125543D01*
X16244Y117095D02*
Y120244D01*
Y117095D02*
X19787D01*
X16244Y125756D02*
Y128906D01*
X19787D01*
X54594Y99756D02*
X57744D01*
X54594Y96213D02*
Y99756D01*
X63256D02*
X66406D01*
Y96213D02*
Y99756D01*
X25713Y137878D02*
X27287D01*
X25713Y135122D02*
X27287D01*
X63713Y143122D02*
X65287D01*
X63713Y145878D02*
X65287D01*
X47878Y100713D02*
Y102287D01*
X45122Y100713D02*
Y102287D01*
X14713Y108122D02*
X16287D01*
X14713Y110878D02*
X16287D01*
X62213Y87378D02*
X63787D01*
X62213Y84622D02*
X63787D01*
X47213Y82122D02*
X48787D01*
X47213Y84878D02*
X48787D01*
X25378Y109213D02*
Y110787D01*
X22622Y109213D02*
Y110787D01*
X39878Y99213D02*
Y100787D01*
X37122Y99213D02*
Y100787D01*
X29122Y110213D02*
Y111787D01*
X31878Y110213D02*
Y111787D01*
X47713Y90622D02*
X49287D01*
X47713Y93378D02*
X49287D01*
X71213Y71622D02*
X72787D01*
X71213Y74378D02*
X72787D01*
X35823Y78201D02*
X51177D01*
X35823Y65799D02*
X51177D01*
D43*
X30921Y105087D02*
G03*
X30921Y105087I-492J0D01*
G01*
X51531Y118358D02*
G03*
X51531Y118358I-492J0D01*
G01*
X23921Y130087D02*
G03*
X23921Y130087I-492J0D01*
G01*
X68079Y92571D02*
G03*
X68079Y92571I-492J0D01*
G01*
D45*
X35750Y92250D02*
X38000Y94500D01*
X18299Y103000D02*
Y103799D01*
X21000Y106500D01*
X67699Y102500D02*
Y104633D01*
X67166D01*
X65033Y102500D01*
X64500D01*
Y104633D01*
X67699Y105699D02*
X64500D01*
Y107299D01*
X65033Y107832D01*
X67166D01*
X67699Y107299D01*
Y105699D01*
X64500Y108898D02*
Y109964D01*
Y109431D01*
X67699D01*
X67166Y108898D01*
X45287Y76000D02*
X42088D01*
Y74401D01*
X42622Y73867D01*
X43688D01*
X44221Y74401D01*
Y76000D01*
Y74934D02*
X45287Y73867D01*
Y72801D02*
Y71735D01*
Y72268D01*
X42088D01*
X42622Y72801D01*
Y70135D02*
X42088Y69602D01*
Y68536D01*
X42622Y68003D01*
X43155D01*
X43688Y68536D01*
Y69069D01*
Y68536D01*
X44221Y68003D01*
X44754D01*
X45287Y68536D01*
Y69602D01*
X44754Y70135D01*
X76500Y76500D02*
Y79699D01*
X74901D01*
X74367Y79166D01*
Y78100D01*
X74901Y77566D01*
X76500D01*
X75434D02*
X74367Y76500D01*
X73301D02*
X72235D01*
X72768D01*
Y79699D01*
X73301Y79166D01*
X68503Y76500D02*
X70635D01*
X68503Y78633D01*
Y79166D01*
X69036Y79699D01*
X70102D01*
X70635Y79166D01*
X40500Y80500D02*
Y83699D01*
X38901D01*
X38367Y83166D01*
Y82099D01*
X38901Y81566D01*
X40500D01*
X39434D02*
X38367Y80500D01*
X37301D02*
X36235D01*
X36768D01*
Y83699D01*
X37301Y83166D01*
X34635Y80500D02*
X33569D01*
X34102D01*
Y83699D01*
X34635Y83166D01*
X33000Y124500D02*
X36199D01*
Y126100D01*
X35666Y126633D01*
X34600D01*
X34066Y126100D01*
Y124500D01*
Y125566D02*
X33000Y126633D01*
Y127699D02*
Y128765D01*
Y128232D01*
X36199D01*
X35666Y127699D01*
Y130365D02*
X36199Y130898D01*
Y131964D01*
X35666Y132497D01*
X33533D01*
X33000Y131964D01*
Y130898D01*
X33533Y130365D01*
X35666D01*
X32000Y85500D02*
X35199D01*
Y87099D01*
X34666Y87633D01*
X33599D01*
X33066Y87099D01*
Y85500D01*
Y86566D02*
X32000Y87633D01*
X32533Y88699D02*
X32000Y89232D01*
Y90298D01*
X32533Y90832D01*
X34666D01*
X35199Y90298D01*
Y89232D01*
X34666Y88699D01*
X34133D01*
X33599Y89232D01*
Y90832D01*
X14500Y96000D02*
X17699D01*
Y97600D01*
X17166Y98133D01*
X16100D01*
X15566Y97600D01*
Y96000D01*
Y97066D02*
X14500Y98133D01*
X17699Y99199D02*
Y101332D01*
X17166D01*
X15033Y99199D01*
X14500D01*
X66500Y78000D02*
Y81199D01*
X64900D01*
X64367Y80666D01*
Y79599D01*
X64900Y79066D01*
X66500D01*
X65434D02*
X64367Y78000D01*
X61168Y81199D02*
X62235Y80666D01*
X63301Y79599D01*
Y78533D01*
X62768Y78000D01*
X61702D01*
X61168Y78533D01*
Y79066D01*
X61702Y79599D01*
X63301D01*
X79000Y81500D02*
Y84699D01*
X77400D01*
X76867Y84166D01*
Y83100D01*
X77400Y82566D01*
X79000D01*
X77934D02*
X76867Y81500D01*
X73668Y84699D02*
X75801D01*
Y83100D01*
X74735Y83633D01*
X74202D01*
X73668Y83100D01*
Y82033D01*
X74202Y81500D01*
X75268D01*
X75801Y82033D01*
X9000Y109287D02*
Y112486D01*
X7401D01*
X6867Y111953D01*
Y110887D01*
X7401Y110354D01*
X9000D01*
X7934D02*
X6867Y109287D01*
X4202D02*
Y112486D01*
X5801Y110887D01*
X3668D01*
X44500Y109000D02*
X47699D01*
Y110600D01*
X47166Y111133D01*
X46099D01*
X45566Y110600D01*
Y109000D01*
Y110066D02*
X44500Y111133D01*
X47166Y112199D02*
X47699Y112732D01*
Y113798D01*
X47166Y114332D01*
X46633D01*
X46099Y113798D01*
Y113265D01*
Y113798D01*
X45566Y114332D01*
X45033D01*
X44500Y113798D01*
Y112732D01*
X45033Y112199D01*
X67000Y148000D02*
Y151199D01*
X65400D01*
X64867Y150666D01*
Y149600D01*
X65400Y149066D01*
X67000D01*
X65934D02*
X64867Y148000D01*
X61668D02*
X63801D01*
X61668Y150133D01*
Y150666D01*
X62201Y151199D01*
X63268D01*
X63801Y150666D01*
X37000Y135500D02*
Y138699D01*
X35401D01*
X34867Y138166D01*
Y137100D01*
X35401Y136566D01*
X37000D01*
X35934D02*
X34867Y135500D01*
X33801D02*
X32735D01*
X33268D01*
Y138699D01*
X33801Y138166D01*
X7867Y132533D02*
Y134666D01*
X8400Y135199D01*
X9467D01*
X10000Y134666D01*
Y132533D01*
X9467Y132000D01*
X8400D01*
X8934Y133066D02*
X7867Y132000D01*
X8400D02*
X7867Y132533D01*
X6801Y134666D02*
X6268Y135199D01*
X5202D01*
X4668Y134666D01*
Y134133D01*
X5202Y133599D01*
X5735D01*
X5202D01*
X4668Y133066D01*
Y132533D01*
X5202Y132000D01*
X6268D01*
X6801Y132533D01*
X55367Y122033D02*
Y124166D01*
X55901Y124699D01*
X56967D01*
X57500Y124166D01*
Y122033D01*
X56967Y121500D01*
X55901D01*
X56434Y122566D02*
X55367Y121500D01*
X55901D02*
X55367Y122033D01*
X52168Y121500D02*
X54301D01*
X52168Y123633D01*
Y124166D01*
X52701Y124699D01*
X53768D01*
X54301Y124166D01*
X25867Y85033D02*
Y87166D01*
X26401Y87699D01*
X27467D01*
X28000Y87166D01*
Y85033D01*
X27467Y84500D01*
X26401D01*
X26934Y85566D02*
X25867Y84500D01*
X26401D02*
X25867Y85033D01*
X24801Y84500D02*
X23735D01*
X24268D01*
Y87699D01*
X24801Y87166D01*
X3666Y127633D02*
X4199Y127100D01*
Y126033D01*
X3666Y125500D01*
X1533D01*
X1000Y126033D01*
Y127100D01*
X1533Y127633D01*
X1000Y130832D02*
Y128699D01*
X3133Y130832D01*
X3666D01*
X4199Y130298D01*
Y129232D01*
X3666Y128699D01*
X80867Y150166D02*
X81401Y150699D01*
X82467D01*
X83000Y150166D01*
Y148033D01*
X82467Y147500D01*
X81401D01*
X80867Y148033D01*
X79801Y147500D02*
X78735D01*
X79268D01*
Y150699D01*
X79801Y150166D01*
M02*
