%FSLAX25Y25*%
%MOIN*%
G70*
G01*
G75*
G04 Layer_Physical_Order=1*
G04 Layer_Color=255*
%ADD10R,0.06890X0.10433*%
%ADD11R,0.08504X0.08898*%
%ADD12R,0.06693X0.02953*%
%ADD13R,0.08268X0.03937*%
%ADD14O,0.08268X0.03937*%
%ADD15O,0.02362X0.07087*%
%ADD16O,0.02362X0.08268*%
%ADD17R,0.03543X0.02756*%
%ADD18C,0.01000*%
%ADD19C,0.05000*%
%ADD20C,0.07000*%
%ADD21C,0.02000*%
%ADD22R,0.29000X0.24000*%
%ADD23R,0.30500X0.24000*%
%ADD24C,0.04724*%
G04:AMPARAMS|DCode=25|XSize=137.8mil|YSize=236.22mil|CornerRadius=34.45mil|HoleSize=0mil|Usage=FLASHONLY|Rotation=0.000|XOffset=0mil|YOffset=0mil|HoleType=Round|Shape=RoundedRectangle|*
%AMROUNDEDRECTD25*
21,1,0.13780,0.16732,0,0,0.0*
21,1,0.06890,0.23622,0,0,0.0*
1,1,0.06890,0.03445,-0.08366*
1,1,0.06890,-0.03445,-0.08366*
1,1,0.06890,-0.03445,0.08366*
1,1,0.06890,0.03445,0.08366*
%
%ADD25ROUNDEDRECTD25*%
G04:AMPARAMS|DCode=26|XSize=177.16mil|YSize=236.22mil|CornerRadius=44.29mil|HoleSize=0mil|Usage=FLASHONLY|Rotation=0.000|XOffset=0mil|YOffset=0mil|HoleType=Round|Shape=RoundedRectangle|*
%AMROUNDEDRECTD26*
21,1,0.17716,0.14764,0,0,0.0*
21,1,0.08858,0.23622,0,0,0.0*
1,1,0.08858,0.04429,-0.07382*
1,1,0.08858,-0.04429,-0.07382*
1,1,0.08858,-0.04429,0.07382*
1,1,0.08858,0.04429,0.07382*
%
%ADD26ROUNDEDRECTD26*%
G04:AMPARAMS|DCode=27|XSize=374.02mil|YSize=157.48mil|CornerRadius=39.37mil|HoleSize=0mil|Usage=FLASHONLY|Rotation=90.000|XOffset=0mil|YOffset=0mil|HoleType=Round|Shape=RoundedRectangle|*
%AMROUNDEDRECTD27*
21,1,0.37402,0.07874,0,0,90.0*
21,1,0.29528,0.15748,0,0,90.0*
1,1,0.07874,0.03937,0.14764*
1,1,0.07874,0.03937,-0.14764*
1,1,0.07874,-0.03937,-0.14764*
1,1,0.07874,-0.03937,0.14764*
%
%ADD27ROUNDEDRECTD27*%
G04:AMPARAMS|DCode=28|XSize=295.28mil|YSize=157.48mil|CornerRadius=39.37mil|HoleSize=0mil|Usage=FLASHONLY|Rotation=90.000|XOffset=0mil|YOffset=0mil|HoleType=Round|Shape=RoundedRectangle|*
%AMROUNDEDRECTD28*
21,1,0.29528,0.07874,0,0,90.0*
21,1,0.21654,0.15748,0,0,90.0*
1,1,0.07874,0.03937,0.10827*
1,1,0.07874,0.03937,-0.10827*
1,1,0.07874,-0.03937,-0.10827*
1,1,0.07874,-0.03937,0.10827*
%
%ADD28ROUNDEDRECTD28*%
%ADD29C,0.07874*%
%ADD30C,0.04500*%
G36*
X88500Y78000D02*
X83500D01*
X78500Y83000D01*
X72000D01*
Y132500D01*
X76000Y136500D01*
X88500D01*
Y78000D01*
D02*
G37*
G36*
Y152500D02*
X86243D01*
X86022Y152948D01*
X86339Y153361D01*
X86666Y154152D01*
X86712Y154500D01*
X80288D01*
X80334Y154152D01*
X80661Y153361D01*
X80978Y152948D01*
X80756Y152500D01*
X74656D01*
X71690Y149500D01*
Y141000D01*
X68967Y138247D01*
X68807Y138331D01*
X68685Y138816D01*
X69055Y139369D01*
X69224Y140220D01*
Y146126D01*
X69055Y146977D01*
X68572Y147698D01*
X67851Y148180D01*
X67000Y148350D01*
X66149Y148180D01*
X65428Y147698D01*
X64946Y146977D01*
X64776Y146126D01*
Y140220D01*
X64936Y139416D01*
X64750Y139189D01*
X64250D01*
X64064Y139416D01*
X64224Y140220D01*
Y146126D01*
X64055Y146977D01*
X63573Y147698D01*
X62851Y148180D01*
X62000Y148350D01*
X61149Y148180D01*
X60427Y147698D01*
X59945Y146977D01*
X59776Y146126D01*
Y144038D01*
X59750Y144029D01*
X55846D01*
X55654Y144491D01*
X59581Y148419D01*
X59913Y148915D01*
X60029Y149500D01*
Y155116D01*
X60139Y155161D01*
X60818Y155682D01*
X61339Y156361D01*
X61666Y157152D01*
X61778Y158000D01*
X61666Y158848D01*
X61339Y159639D01*
X60818Y160318D01*
X60139Y160839D01*
X59348Y161166D01*
X58500Y161278D01*
X57652Y161166D01*
X56861Y160839D01*
X56182Y160318D01*
X55661Y159639D01*
X55334Y158848D01*
X55222Y158000D01*
X55334Y157152D01*
X55661Y156361D01*
X56182Y155682D01*
X56861Y155161D01*
X56971Y155116D01*
Y150134D01*
X52867Y146029D01*
X51561D01*
X51401Y146503D01*
X52021Y146979D01*
X52812Y148010D01*
X53310Y149211D01*
X53480Y150500D01*
X53310Y151789D01*
X52812Y152990D01*
X52021Y154021D01*
X50990Y154813D01*
X49789Y155310D01*
X48500Y155480D01*
X47211Y155310D01*
X47128Y155275D01*
X45822Y156581D01*
X45325Y156913D01*
X44740Y157029D01*
X43134D01*
X32888Y167274D01*
X33055Y167523D01*
X33224Y168374D01*
Y173098D01*
X33055Y173949D01*
X32572Y174671D01*
X31851Y175153D01*
X31000Y175322D01*
X30149Y175153D01*
X29427Y174671D01*
X28945Y173949D01*
X28776Y173098D01*
Y168374D01*
X28850Y168001D01*
X28582Y167858D01*
X28180Y168155D01*
X28224Y168374D01*
Y173098D01*
X28055Y173949D01*
X27573Y174671D01*
X26851Y175153D01*
X26000Y175322D01*
X25149Y175153D01*
X24428Y174671D01*
X23945Y173949D01*
X23776Y173098D01*
Y168374D01*
X23945Y167523D01*
X24428Y166802D01*
X25149Y166320D01*
X25624Y166225D01*
X36638Y155211D01*
X36402Y154770D01*
X36000Y154850D01*
X35149Y154681D01*
X34427Y154199D01*
X33945Y153477D01*
X33776Y152626D01*
Y147902D01*
X33945Y147051D01*
X34427Y146329D01*
X35149Y145847D01*
X36000Y145678D01*
X36851Y145847D01*
X37573Y146329D01*
X38055Y147051D01*
X38224Y147902D01*
Y152626D01*
X38144Y153029D01*
X38585Y153264D01*
X39471Y152378D01*
Y148000D01*
X39587Y147415D01*
X39919Y146919D01*
X42837Y144000D01*
X42818Y143501D01*
X39505Y140661D01*
X39468Y140614D01*
X39419Y140581D01*
X39285Y140381D01*
X39136Y140192D01*
X39120Y140135D01*
X39087Y140085D01*
X39040Y139849D01*
X38975Y139617D01*
X38982Y139558D01*
X38971Y139500D01*
Y130273D01*
X32406Y125435D01*
X31848Y125666D01*
X31000Y125778D01*
X30152Y125666D01*
X29361Y125339D01*
X28682Y124818D01*
X28161Y124139D01*
X27834Y123348D01*
X27722Y122500D01*
X27834Y121652D01*
X28161Y120861D01*
X28682Y120182D01*
X29361Y119661D01*
X30152Y119334D01*
X31000Y119222D01*
X31848Y119334D01*
X32639Y119661D01*
X33318Y120182D01*
X33839Y120861D01*
X34166Y121652D01*
X34278Y122500D01*
X34216Y122970D01*
X41407Y128269D01*
X41485Y128354D01*
X41581Y128419D01*
X41684Y128573D01*
X41809Y128710D01*
X41849Y128819D01*
X41913Y128915D01*
X41949Y129097D01*
X42012Y129271D01*
X42007Y129386D01*
X42029Y129500D01*
Y138797D01*
X44566Y140971D01*
X59776D01*
Y140220D01*
X59945Y139369D01*
X59764Y139029D01*
X59697D01*
X59111Y138913D01*
X58615Y138581D01*
X58034Y138000D01*
X57500D01*
X54749Y135593D01*
X54281Y135769D01*
X54215Y136275D01*
X53916Y136997D01*
X53440Y137617D01*
X52820Y138093D01*
X52098Y138392D01*
X51323Y138494D01*
X46992D01*
X46217Y138392D01*
X45495Y138093D01*
X44875Y137617D01*
X44399Y136997D01*
X44100Y136275D01*
X43998Y135500D01*
X44100Y134725D01*
X44399Y134003D01*
X44875Y133383D01*
X45495Y132907D01*
X46217Y132608D01*
X46992Y132506D01*
X51323D01*
X51953Y132589D01*
X52174Y132140D01*
X51669Y131635D01*
X51337Y131139D01*
X51221Y130553D01*
Y113514D01*
X48919Y111211D01*
X48587Y110715D01*
X48471Y110130D01*
Y108494D01*
X46992D01*
X46217Y108392D01*
X45495Y108093D01*
X44875Y107617D01*
X44424Y107029D01*
X42945D01*
X40245Y108748D01*
X40278Y109000D01*
X40166Y109848D01*
X39839Y110639D01*
X39318Y111318D01*
X38639Y111839D01*
X37848Y112166D01*
X37000Y112278D01*
X36152Y112166D01*
X35361Y111839D01*
X34682Y111318D01*
X34161Y110639D01*
X33834Y109848D01*
X33722Y109000D01*
X33834Y108152D01*
X34161Y107361D01*
X34682Y106682D01*
X35361Y106161D01*
X36152Y105834D01*
X37000Y105722D01*
X37848Y105834D01*
X38623Y106154D01*
X41679Y104210D01*
X41804Y104161D01*
X41915Y104087D01*
X42079Y104054D01*
X42235Y103994D01*
X42369Y103997D01*
X42500Y103971D01*
X44424D01*
X44875Y103383D01*
X45495Y102907D01*
X46217Y102608D01*
X46992Y102506D01*
X50256D01*
X50923Y101839D01*
Y101331D01*
X49728D01*
Y96575D01*
X54759D01*
X54950Y96113D01*
X54262Y95425D01*
X49728D01*
Y90669D01*
X55272D01*
Y92109D01*
X56509Y93346D01*
X56971Y93154D01*
Y89529D01*
X45937D01*
X41135Y94331D01*
X40639Y94663D01*
X40053Y94779D01*
X36947D01*
X36459Y94682D01*
X36362Y94663D01*
X35865Y94331D01*
X31563Y90029D01*
X15425D01*
X11846Y93608D01*
Y96268D01*
X5404D01*
X5243Y96741D01*
X5818Y97182D01*
X6339Y97861D01*
X6666Y98652D01*
X6667Y98656D01*
X7161Y98861D01*
X7682Y98182D01*
X8361Y97661D01*
X9152Y97334D01*
X10000Y97222D01*
X10848Y97334D01*
X11639Y97661D01*
X12318Y98182D01*
X12839Y98861D01*
X13166Y99652D01*
X13278Y100500D01*
X13166Y101348D01*
X12839Y102139D01*
X12618Y102427D01*
X12683Y102923D01*
X13283Y103383D01*
X13758Y104003D01*
X14058Y104725D01*
X14160Y105500D01*
X14058Y106275D01*
X13758Y106997D01*
X13283Y107617D01*
X12662Y108093D01*
X11940Y108392D01*
X11165Y108494D01*
X6835D01*
X6060Y108392D01*
X5338Y108093D01*
X4718Y107617D01*
X4242Y106997D01*
X3943Y106275D01*
X3841Y105500D01*
X3943Y104725D01*
X4242Y104003D01*
X4718Y103383D01*
X5338Y102907D01*
X6060Y102608D01*
X6835Y102506D01*
X6863D01*
X7141Y102090D01*
X6834Y101348D01*
X6833Y101344D01*
X6339Y101139D01*
X5818Y101818D01*
X5139Y102339D01*
X4348Y102666D01*
X3500Y102778D01*
X2652Y102666D01*
X1861Y102339D01*
X1182Y101818D01*
X661Y101139D01*
X490Y100727D01*
X0Y100824D01*
Y179500D01*
X88500D01*
Y152500D01*
D02*
G37*
G36*
X41500Y79500D02*
Y57000D01*
X26000Y41500D01*
Y33500D01*
X20500Y29000D01*
X0D01*
Y69000D01*
X500Y69500D01*
X20500D01*
X30500Y79500D01*
X36000Y80000D01*
X41500Y79500D01*
D02*
G37*
G36*
X66000Y73500D02*
X72000D01*
X78500Y67000D01*
Y66500D01*
X88500D01*
Y29000D01*
X56500D01*
X52000Y33500D01*
Y41500D01*
X63000Y52000D01*
Y62000D01*
X58500Y66500D01*
X53500D01*
X50000Y70000D01*
Y79500D01*
X59000D01*
X59500Y80000D01*
X66000Y73500D01*
D02*
G37*
%LPC*%
G36*
X26000Y154850D02*
X25149Y154681D01*
X24428Y154199D01*
X23945Y153477D01*
X23776Y152626D01*
Y147902D01*
X23945Y147051D01*
X24428Y146329D01*
X25149Y145847D01*
X26000Y145678D01*
X26851Y145847D01*
X27573Y146329D01*
X28055Y147051D01*
X28224Y147902D01*
Y152626D01*
X28055Y153477D01*
X27573Y154199D01*
X26851Y154681D01*
X26000Y154850D01*
D02*
G37*
G36*
X85224Y166114D02*
X80776D01*
Y163661D01*
X80945Y162810D01*
X81428Y162089D01*
X81471Y162060D01*
Y157539D01*
X81182Y157318D01*
X80661Y156639D01*
X80334Y155848D01*
X80288Y155500D01*
X86712D01*
X86666Y155848D01*
X86339Y156639D01*
X85818Y157318D01*
X85139Y157839D01*
X84529Y158091D01*
Y162060D01*
X84572Y162089D01*
X85054Y162810D01*
X85224Y163661D01*
Y166114D01*
D02*
G37*
G36*
X31000Y154850D02*
X30149Y154681D01*
X29427Y154199D01*
X28945Y153477D01*
X28776Y152626D01*
Y147902D01*
X28945Y147051D01*
X29427Y146329D01*
X29471Y146300D01*
Y145384D01*
X29361Y145339D01*
X28682Y144818D01*
X28161Y144139D01*
X27834Y143348D01*
X27722Y142500D01*
X27834Y141652D01*
X28161Y140861D01*
X28682Y140182D01*
X29361Y139661D01*
X30152Y139334D01*
X31000Y139222D01*
X31848Y139334D01*
X32639Y139661D01*
X33318Y140182D01*
X33839Y140861D01*
X34166Y141652D01*
X34278Y142500D01*
X34166Y143348D01*
X33839Y144139D01*
X33318Y144818D01*
X32639Y145339D01*
X32529Y145384D01*
Y146300D01*
X32572Y146329D01*
X33055Y147051D01*
X33224Y147902D01*
Y152626D01*
X33055Y153477D01*
X32572Y154199D01*
X31851Y154681D01*
X31000Y154850D01*
D02*
G37*
G36*
X10500Y155480D02*
X9211Y155310D01*
X8010Y154813D01*
X6979Y154021D01*
X6188Y152990D01*
X5690Y151789D01*
X5520Y150500D01*
X5690Y149211D01*
X6188Y148010D01*
X6979Y146979D01*
X8010Y146187D01*
X9211Y145690D01*
X10500Y145520D01*
X11789Y145690D01*
X12990Y146187D01*
X14021Y146979D01*
X14812Y148010D01*
X15112Y148734D01*
X18776D01*
Y147902D01*
X18945Y147051D01*
X19428Y146329D01*
X19471Y146300D01*
Y145384D01*
X19361Y145339D01*
X18682Y144818D01*
X18161Y144139D01*
X17834Y143348D01*
X17722Y142500D01*
X17834Y141652D01*
X18161Y140861D01*
X18682Y140182D01*
X19361Y139661D01*
X19471Y139616D01*
Y134134D01*
X16154Y130817D01*
X9000D01*
X8415Y130700D01*
X7919Y130369D01*
X7587Y129873D01*
X7471Y129287D01*
Y128494D01*
X6835D01*
X6060Y128392D01*
X5338Y128093D01*
X4718Y127617D01*
X4242Y126997D01*
X3943Y126275D01*
X3841Y125500D01*
X3943Y124725D01*
X4242Y124003D01*
X4718Y123383D01*
X5338Y122907D01*
X6060Y122608D01*
X6835Y122506D01*
X11165D01*
X11940Y122608D01*
X12662Y122907D01*
X13283Y123383D01*
X13758Y124003D01*
X14058Y124725D01*
X14160Y125500D01*
X14058Y126275D01*
X13758Y126997D01*
X13519Y127310D01*
X13740Y127758D01*
X16787D01*
X17373Y127874D01*
X17869Y128206D01*
X22081Y132419D01*
X22413Y132915D01*
X22529Y133500D01*
Y139616D01*
X22639Y139661D01*
X23318Y140182D01*
X23839Y140861D01*
X24166Y141652D01*
X24278Y142500D01*
X24166Y143348D01*
X23839Y144139D01*
X23318Y144818D01*
X22639Y145339D01*
X22529Y145384D01*
Y146300D01*
X22572Y146329D01*
X23055Y147051D01*
X23224Y147902D01*
Y152626D01*
X23055Y153477D01*
X22572Y154199D01*
X21851Y154681D01*
X21000Y154850D01*
X20149Y154681D01*
X19428Y154199D01*
X18945Y153477D01*
X18776Y152626D01*
Y151793D01*
X15308D01*
X14812Y152990D01*
X14021Y154021D01*
X12990Y154813D01*
X11789Y155310D01*
X10500Y155480D01*
D02*
G37*
G36*
X8500Y135000D02*
X3866D01*
Y132531D01*
X8500D01*
Y135000D01*
D02*
G37*
G36*
X14134D02*
X9500D01*
Y132531D01*
X14134D01*
Y135000D01*
D02*
G37*
G36*
X36000Y175322D02*
X35149Y175153D01*
X34427Y174671D01*
X33945Y173949D01*
X33776Y173098D01*
Y168374D01*
X33945Y167523D01*
X34427Y166802D01*
X35149Y166320D01*
X36000Y166150D01*
X36851Y166320D01*
X37573Y166802D01*
X38055Y167523D01*
X38224Y168374D01*
Y169207D01*
X43130D01*
X44088Y168249D01*
X43690Y167289D01*
X43520Y166000D01*
X43690Y164711D01*
X44188Y163510D01*
X44979Y162479D01*
X46010Y161688D01*
X47211Y161190D01*
X48500Y161020D01*
X49789Y161190D01*
X50990Y161688D01*
X52021Y162479D01*
X52812Y163510D01*
X53310Y164711D01*
X53480Y166000D01*
X53310Y167289D01*
X52812Y168490D01*
X52021Y169521D01*
X50990Y170312D01*
X49789Y170810D01*
X48500Y170980D01*
X47211Y170810D01*
X46251Y170412D01*
X44845Y171818D01*
X44349Y172149D01*
X43764Y172266D01*
X38224D01*
Y173098D01*
X38055Y173949D01*
X37573Y174671D01*
X36851Y175153D01*
X36000Y175322D01*
D02*
G37*
G36*
X73000Y175712D02*
Y172500D01*
Y169288D01*
X73348Y169334D01*
X74139Y169661D01*
X74818Y170182D01*
X75339Y170861D01*
X75986Y170593D01*
X76020Y170530D01*
X75946Y170418D01*
X75776Y169567D01*
Y163661D01*
X75946Y162810D01*
X76428Y162089D01*
X76430Y162087D01*
X76463Y161588D01*
X76095Y161266D01*
X76000Y161278D01*
X75152Y161166D01*
X74361Y160839D01*
X73682Y160318D01*
X73161Y159639D01*
X72834Y158848D01*
X72722Y158000D01*
X72834Y157152D01*
X73161Y156361D01*
X73682Y155682D01*
X74361Y155161D01*
X75152Y154834D01*
X76000Y154722D01*
X76848Y154834D01*
X77639Y155161D01*
X78318Y155682D01*
X78839Y156361D01*
X79166Y157152D01*
X79278Y158000D01*
X79166Y158848D01*
X79116Y158970D01*
X79413Y159415D01*
X79529Y160000D01*
Y162060D01*
X79572Y162089D01*
X80054Y162810D01*
X80224Y163661D01*
Y169567D01*
X80054Y170418D01*
X79980Y170530D01*
X80070Y170699D01*
X80565Y170772D01*
X80941Y170396D01*
X80776Y169567D01*
Y167114D01*
X85224D01*
Y169567D01*
X85054Y170418D01*
X84572Y171140D01*
X84219Y171376D01*
X84081Y171581D01*
X82081Y173581D01*
X81585Y173913D01*
X81000Y174029D01*
X75384D01*
X75339Y174139D01*
X74818Y174818D01*
X74139Y175339D01*
X73348Y175666D01*
X73000Y175712D01*
D02*
G37*
G36*
X10000Y170914D02*
X9211Y170810D01*
X8010Y170312D01*
X6979Y169521D01*
X6188Y168490D01*
X5690Y167289D01*
X5586Y166500D01*
X10000D01*
Y170914D01*
D02*
G37*
G36*
X72000Y175712D02*
X71652Y175666D01*
X70861Y175339D01*
X70182Y174818D01*
X69661Y174139D01*
X69616Y174029D01*
X63500D01*
X62915Y173913D01*
X62419Y173581D01*
X60919Y172081D01*
X60587Y171585D01*
X60471Y171000D01*
Y170956D01*
X60427Y170927D01*
X59945Y170205D01*
X59776Y169354D01*
Y166902D01*
X64224D01*
Y169354D01*
X64055Y170205D01*
X63780Y170617D01*
X64134Y170971D01*
X64926D01*
X65162Y170530D01*
X64946Y170205D01*
X64776Y169354D01*
Y163449D01*
X64946Y162598D01*
X65428Y161876D01*
X65471Y161848D01*
Y157884D01*
X65361Y157839D01*
X64682Y157318D01*
X64161Y156639D01*
X63834Y155848D01*
X63722Y155000D01*
X63834Y154152D01*
X64161Y153361D01*
X64682Y152682D01*
X65361Y152161D01*
X66152Y151834D01*
X67000Y151722D01*
X67848Y151834D01*
X68639Y152161D01*
X69318Y152682D01*
X69839Y153361D01*
X70166Y154152D01*
X70278Y155000D01*
X70166Y155848D01*
X69839Y156639D01*
X69318Y157318D01*
X68639Y157839D01*
X68529Y157884D01*
Y161848D01*
X68572Y161876D01*
X69055Y162598D01*
X69224Y163449D01*
Y169354D01*
X69055Y170205D01*
X68838Y170530D01*
X69074Y170971D01*
X69616D01*
X69661Y170861D01*
X70182Y170182D01*
X70861Y169661D01*
X71652Y169334D01*
X72000Y169288D01*
Y172500D01*
Y175712D01*
D02*
G37*
G36*
X21500Y175223D02*
Y171236D01*
X23224D01*
Y173098D01*
X23055Y173949D01*
X22572Y174671D01*
X21851Y175153D01*
X21500Y175223D01*
D02*
G37*
G36*
X20500D02*
X20149Y175153D01*
X19428Y174671D01*
X18945Y173949D01*
X18776Y173098D01*
Y172029D01*
X16000D01*
X15415Y171913D01*
X14919Y171581D01*
X13363Y170026D01*
X12990Y170312D01*
X11789Y170810D01*
X11000Y170914D01*
Y166500D01*
X15414D01*
X15310Y167289D01*
X15205Y167542D01*
X16634Y168971D01*
X18776D01*
Y168374D01*
X18945Y167523D01*
X19428Y166802D01*
X20149Y166320D01*
X20500Y166250D01*
Y170736D01*
Y175223D01*
D02*
G37*
G36*
X15414Y165500D02*
X11000D01*
Y161086D01*
X11789Y161190D01*
X12990Y161688D01*
X14021Y162479D01*
X14812Y163510D01*
X15310Y164711D01*
X15414Y165500D01*
D02*
G37*
G36*
X10000D02*
X5586D01*
X5690Y164711D01*
X5941Y164104D01*
X1919Y160081D01*
X1587Y159585D01*
X1471Y159000D01*
Y146500D01*
X1587Y145915D01*
X1919Y145419D01*
X7471Y139866D01*
Y138469D01*
X3866D01*
Y136000D01*
X14134D01*
Y138469D01*
X10529D01*
Y140500D01*
X10413Y141085D01*
X10081Y141581D01*
X4529Y147134D01*
Y158367D01*
X7920Y161757D01*
X8010Y161688D01*
X9211Y161190D01*
X10000Y161086D01*
Y165500D01*
D02*
G37*
G36*
X61500Y165902D02*
X59776D01*
Y163449D01*
X59945Y162598D01*
X60427Y161876D01*
X61149Y161394D01*
X61500Y161325D01*
Y165902D01*
D02*
G37*
G36*
X23224Y170236D02*
X21500D01*
Y166250D01*
X21851Y166320D01*
X22572Y166802D01*
X23055Y167523D01*
X23224Y168374D01*
Y170236D01*
D02*
G37*
G36*
X64224Y165902D02*
X62500D01*
Y161325D01*
X62851Y161394D01*
X63573Y161876D01*
X64055Y162598D01*
X64224Y163449D01*
Y165902D01*
D02*
G37*
%LPD*%
D10*
X64000Y110035D02*
D03*
Y126965D02*
D03*
D11*
X56146Y74000D02*
D03*
X36854D02*
D03*
D12*
X7500Y80209D02*
D03*
Y93791D02*
D03*
D13*
X9000Y135500D02*
D03*
D14*
Y125500D02*
D03*
Y105500D02*
D03*
X49157Y135500D02*
D03*
Y105500D02*
D03*
D15*
X21000Y150264D02*
D03*
X26000D02*
D03*
X31000D02*
D03*
X36000D02*
D03*
X21000Y170736D02*
D03*
X26000D02*
D03*
X31000D02*
D03*
X36000D02*
D03*
D16*
X62000Y143173D02*
D03*
X67000D02*
D03*
X62000Y166402D02*
D03*
X67000D02*
D03*
X83000Y166614D02*
D03*
X78000D02*
D03*
X83000Y143386D02*
D03*
X78000D02*
D03*
D17*
X52500Y93047D02*
D03*
Y98953D02*
D03*
D18*
X2000Y90000D02*
X7000Y86500D01*
X2000Y90000D02*
Y96000D01*
X3500Y99500D01*
X50000Y105500D02*
Y110130D01*
X42500Y105500D02*
X49157D01*
X37000Y109000D02*
X42500Y105500D01*
X7000Y86500D02*
X33828D01*
X10000Y100500D02*
Y105000D01*
Y99500D02*
Y100500D01*
X9000Y105500D02*
X9500Y105000D01*
X9000Y125500D02*
Y129287D01*
X60000Y142500D02*
X62000Y143173D01*
X44000Y142500D02*
X60000D01*
X40500Y139500D02*
X44000Y142500D01*
X40500Y129500D02*
Y139500D01*
X31000Y122500D02*
X40500Y129500D01*
X52453Y98500D02*
Y102472D01*
X58500Y88000D02*
Y122500D01*
X49425Y105500D02*
X50000D01*
X49157D02*
X49425D01*
X50000Y110130D02*
X52750Y112880D01*
X66000Y137500D02*
X67000Y138500D01*
X59697Y137500D02*
X66000D01*
X52750Y130553D02*
X59697Y137500D01*
X80000Y104500D02*
Y128000D01*
X83000Y131000D01*
Y143386D01*
X66035Y112500D02*
X72000D01*
X80000Y104500D01*
X9000Y94291D02*
X14791Y88500D01*
X32197D02*
X36947Y93250D01*
X40053D01*
X45303Y88000D01*
X58500D01*
X52750Y112880D02*
Y130553D01*
X67000Y138500D02*
Y143173D01*
X33828Y86500D02*
X37664Y90336D01*
X14791Y88500D02*
X32197D01*
X63579Y128965D02*
X78000Y143386D01*
X58500Y122500D02*
X65500Y129500D01*
X13750Y74482D02*
X18482D01*
X25500Y81500D01*
X75500Y78500D02*
X81000Y73000D01*
X68500Y78500D02*
X75500D01*
X61000Y86000D02*
X68500Y78500D01*
X44475Y86000D02*
X61000D01*
X40975Y89500D02*
X44475Y86000D01*
X38500Y89500D02*
X40975D01*
X21000Y142500D02*
Y150264D01*
X31000Y142500D02*
Y150264D01*
X83000Y155500D02*
X83500Y155000D01*
X83000Y155500D02*
Y166614D01*
X78000Y160000D02*
Y166614D01*
X76000Y158000D02*
X78000Y160000D01*
X67000Y155000D02*
Y166402D01*
X9000Y129287D02*
X16787D01*
X21000Y133500D01*
Y142500D01*
X10736Y150264D02*
X21000D01*
X10500Y150500D02*
X10736Y150264D01*
X10000Y166000D02*
X11500D01*
X16000Y170500D01*
X20764D01*
X21000Y170736D01*
X3000Y146500D02*
X9000Y140500D01*
X3000Y159000D02*
X10000Y166000D01*
X9000Y135500D02*
Y140500D01*
X3000Y146500D02*
Y159000D01*
X36000Y170736D02*
X43764D01*
X48500Y166000D01*
X41000Y148000D02*
Y153012D01*
Y148000D02*
X44500Y144500D01*
X53500D01*
X58500Y149500D01*
Y158000D01*
X26000Y168012D02*
X41000Y153012D01*
X26000Y168012D02*
Y170736D01*
X44740Y155500D02*
X48953Y151287D01*
X42500Y155500D02*
X44740D01*
X31000Y167000D02*
X42500Y155500D01*
X31000Y167000D02*
Y170736D01*
X63500Y172500D02*
X72500D01*
X62000Y166402D02*
Y171000D01*
X63500Y172500D01*
X83000Y166614D02*
Y170500D01*
X81000Y172500D02*
X83000Y170500D01*
X72500Y172500D02*
X81000D01*
X52385Y93162D02*
X54162D01*
X56500Y95500D01*
Y129000D01*
X49425Y105500D02*
X52453Y102472D01*
D19*
X44957Y18000D02*
X46500Y19543D01*
X35461Y72606D02*
X36854Y74000D01*
D20*
X46500Y49500D02*
X55539Y58539D01*
X66500Y49421D02*
Y63646D01*
X56146Y74000D02*
X66500Y63646D01*
X64579Y47500D02*
X80500D01*
X55539Y38461D02*
X64579Y47500D01*
X66500Y49421D01*
X45500Y19043D02*
Y49000D01*
X8000Y48000D02*
X24921D01*
X35461Y58539D01*
Y72606D01*
D21*
X8000Y47291D02*
Y80000D01*
D22*
X74000Y12000D02*
D03*
D23*
X15250D02*
D03*
D24*
X0Y0D02*
Y179500D01*
Y0D02*
X88500D01*
X0Y179500D02*
X88500D01*
Y0D02*
Y179500D01*
D25*
X66413Y12094D02*
D03*
X23500D02*
D03*
D26*
X44957D02*
D03*
D27*
X80000Y104500D02*
D03*
D28*
X8000Y48000D02*
D03*
X80500Y47500D02*
D03*
D29*
X35461Y58539D02*
D03*
X55539D02*
D03*
X35461Y38461D02*
D03*
X55539D02*
D03*
X10500Y150500D02*
D03*
Y166000D02*
D03*
X48500Y150500D02*
D03*
X48500Y166000D02*
D03*
D30*
X10000Y100500D02*
D03*
X38500Y89500D02*
D03*
X56500Y129000D02*
D03*
X3500Y99500D02*
D03*
X13750Y74482D02*
D03*
X25500Y81500D02*
D03*
X81000Y73000D02*
D03*
X31000Y122500D02*
D03*
X21000Y142500D02*
D03*
X31000D02*
D03*
X83500Y155000D02*
D03*
X76000Y158000D02*
D03*
X67000Y155000D02*
D03*
X58500Y158000D02*
D03*
X72500Y172500D02*
D03*
X37000Y109000D02*
D03*
M02*
