M48
;Layer_Color=9474304
;FILE_FORMAT=2:5
INCH,LZ
;TYPE=PLATED
T1F00S00C0.02800
T2F00S00C0.03543
T3F00S00C0.05118
%
T01
X0081Y0073
X00835Y0155
X0076Y0158
X0067Y0155
X00585Y0158
X00725Y01725
X00565Y0129
X0031Y01225
X0037Y0109
X00385Y00895
X00255Y00815
X001375Y0074482
X001Y01005
X00035Y00995
X0021Y01425
X0031
T02
X0035461Y0038461
X0055539
Y0058539
X0035461
X00485Y01505
X00485Y0166
X00105
Y01505
T03
X00235Y0018
X0044957
X0066413
M30
