%FSLAX25Y25*%
%MOIN*%
G70*
G01*
G75*
G04 Layer_Color=255*
%ADD10R,0.06890X0.10433*%
%ADD11R,0.08504X0.08898*%
%ADD12R,0.06693X0.02953*%
%ADD13R,0.08268X0.03937*%
%ADD14O,0.08268X0.03937*%
%ADD15O,0.02362X0.07087*%
%ADD16O,0.02362X0.08268*%
%ADD17R,0.03543X0.02756*%
%ADD18C,0.01000*%
%ADD19C,0.05000*%
%ADD20C,0.07000*%
%ADD21C,0.02000*%
%ADD22R,0.29000X0.24000*%
%ADD23R,0.30500X0.24000*%
%ADD24C,0.04724*%
G04:AMPARAMS|DCode=25|XSize=137.8mil|YSize=236.22mil|CornerRadius=34.45mil|HoleSize=0mil|Usage=FLASHONLY|Rotation=0.000|XOffset=0mil|YOffset=0mil|HoleType=Round|Shape=RoundedRectangle|*
%AMROUNDEDRECTD25*
21,1,0.13780,0.16732,0,0,0.0*
21,1,0.06890,0.23622,0,0,0.0*
1,1,0.06890,0.03445,-0.08366*
1,1,0.06890,-0.03445,-0.08366*
1,1,0.06890,-0.03445,0.08366*
1,1,0.06890,0.03445,0.08366*
%
%ADD25ROUNDEDRECTD25*%
G04:AMPARAMS|DCode=26|XSize=177.16mil|YSize=236.22mil|CornerRadius=44.29mil|HoleSize=0mil|Usage=FLASHONLY|Rotation=0.000|XOffset=0mil|YOffset=0mil|HoleType=Round|Shape=RoundedRectangle|*
%AMROUNDEDRECTD26*
21,1,0.17716,0.14764,0,0,0.0*
21,1,0.08858,0.23622,0,0,0.0*
1,1,0.08858,0.04429,-0.07382*
1,1,0.08858,-0.04429,-0.07382*
1,1,0.08858,-0.04429,0.07382*
1,1,0.08858,0.04429,0.07382*
%
%ADD26ROUNDEDRECTD26*%
G04:AMPARAMS|DCode=27|XSize=374.02mil|YSize=157.48mil|CornerRadius=39.37mil|HoleSize=0mil|Usage=FLASHONLY|Rotation=90.000|XOffset=0mil|YOffset=0mil|HoleType=Round|Shape=RoundedRectangle|*
%AMROUNDEDRECTD27*
21,1,0.37402,0.07874,0,0,90.0*
21,1,0.29528,0.15748,0,0,90.0*
1,1,0.07874,0.03937,0.14764*
1,1,0.07874,0.03937,-0.14764*
1,1,0.07874,-0.03937,-0.14764*
1,1,0.07874,-0.03937,0.14764*
%
%ADD27ROUNDEDRECTD27*%
G04:AMPARAMS|DCode=28|XSize=295.28mil|YSize=157.48mil|CornerRadius=39.37mil|HoleSize=0mil|Usage=FLASHONLY|Rotation=90.000|XOffset=0mil|YOffset=0mil|HoleType=Round|Shape=RoundedRectangle|*
%AMROUNDEDRECTD28*
21,1,0.29528,0.07874,0,0,90.0*
21,1,0.21654,0.15748,0,0,90.0*
1,1,0.07874,0.03937,0.10827*
1,1,0.07874,0.03937,-0.10827*
1,1,0.07874,-0.03937,-0.10827*
1,1,0.07874,-0.03937,0.10827*
%
%ADD28ROUNDEDRECTD28*%
%ADD29C,0.07874*%
%ADD30C,0.04500*%
%ADD31R,0.03150X0.03543*%
%ADD32R,0.03543X0.03150*%
%ADD33R,0.04528X0.02362*%
%ADD34R,0.02362X0.04528*%
%ADD35R,0.02756X0.03543*%
%ADD36R,0.05118X0.13189*%
%ADD37C,0.01500*%
%ADD38C,0.10000*%
%ADD39C,0.05500*%
%ADD40R,0.31000X0.24500*%
%ADD41R,0.30000X0.24000*%
D17*
X46500Y98547D02*
D03*
Y104453D02*
D03*
X24000Y107047D02*
D03*
Y112953D02*
D03*
X38500Y97047D02*
D03*
Y102953D02*
D03*
X30500Y113953D02*
D03*
Y108047D02*
D03*
D24*
X0Y0D02*
Y179500D01*
Y0D02*
X88500D01*
X0Y179500D02*
X88500D01*
Y0D02*
Y179500D01*
D25*
X66413Y12094D02*
D03*
X23500D02*
D03*
D26*
X44957D02*
D03*
D27*
X80000Y104500D02*
D03*
D28*
X8000Y48000D02*
D03*
X80500Y47500D02*
D03*
D29*
X35461Y58539D02*
D03*
X55539D02*
D03*
X35461Y38461D02*
D03*
X55539D02*
D03*
X10500Y150500D02*
D03*
Y166000D02*
D03*
X48500Y150500D02*
D03*
X48500Y166000D02*
D03*
D31*
X83256Y144000D02*
D03*
X77744D02*
D03*
D32*
X7500Y116744D02*
D03*
Y122256D02*
D03*
D33*
X21571Y98000D02*
D03*
X30429Y94260D02*
D03*
Y101740D02*
D03*
X14571Y123000D02*
D03*
X23429Y119260D02*
D03*
Y126740D02*
D03*
D34*
X43953Y127217D02*
D03*
X40213Y118358D02*
D03*
X47693D02*
D03*
X60500Y101429D02*
D03*
X56760Y92571D02*
D03*
X64240D02*
D03*
D35*
X29453Y136500D02*
D03*
X23547D02*
D03*
X61547Y144500D02*
D03*
X67453D02*
D03*
X12547Y109500D02*
D03*
X18453D02*
D03*
X65953Y86000D02*
D03*
X60047D02*
D03*
X45047Y83500D02*
D03*
X50953D02*
D03*
X45547Y92000D02*
D03*
X51453D02*
D03*
X69047Y73000D02*
D03*
X74953D02*
D03*
D36*
X55213Y72000D02*
D03*
X31787D02*
D03*
M02*
