G04 Layer_Physical_Order=1*
G04 Layer_Color=255*
%FSLAX25Y25*%
%MOIN*%
G70*
G01*
G75*
%ADD10R,0.03543X0.03150*%
%ADD11R,0.02756X0.03543*%
%ADD12O,0.02362X0.08268*%
%ADD13R,0.03543X0.02756*%
%ADD14R,0.03150X0.03543*%
%ADD15O,0.08268X0.02362*%
%ADD16R,0.04528X0.02362*%
%ADD17O,0.09055X0.02362*%
%ADD18C,0.01000*%
%ADD19C,0.03000*%
%ADD20O,0.03937X0.05906*%
%ADD21O,0.05906X0.03937*%
%ADD22C,0.06000*%
%ADD23C,0.04724*%
%ADD24C,0.05000*%
G36*
X109500Y109550D02*
Y79663D01*
X107611Y77774D01*
X105995D01*
X105772Y79181D01*
X105772Y79181D01*
X105772Y79181D01*
Y81256D01*
X103000D01*
Y82256D01*
X105772D01*
Y84331D01*
X104529D01*
Y85700D01*
X104413Y86285D01*
X104081Y86781D01*
X101229Y89634D01*
Y99766D01*
X104081Y102619D01*
X104413Y103115D01*
X104529Y103700D01*
Y105169D01*
X105772D01*
Y107244D01*
X103000D01*
Y108244D01*
X105772D01*
Y110319D01*
X105772Y110319D01*
X105947Y111427D01*
X107450Y111599D01*
X109500Y109550D01*
D02*
G37*
D10*
X147000Y177756D02*
D03*
Y172244D02*
D03*
X232000Y122244D02*
D03*
Y127756D02*
D03*
Y142244D02*
D03*
Y147756D02*
D03*
Y162244D02*
D03*
Y167756D02*
D03*
Y182244D02*
D03*
Y187756D02*
D03*
Y82244D02*
D03*
Y87756D02*
D03*
Y102244D02*
D03*
Y107756D02*
D03*
X282000Y62244D02*
D03*
Y67756D02*
D03*
X242000Y47756D02*
D03*
Y42244D02*
D03*
X72000Y127756D02*
D03*
Y122244D02*
D03*
Y147756D02*
D03*
Y142244D02*
D03*
Y167756D02*
D03*
Y162244D02*
D03*
X82000Y187756D02*
D03*
Y182244D02*
D03*
X103000Y113256D02*
D03*
Y107744D02*
D03*
Y81756D02*
D03*
Y76244D02*
D03*
X31000Y37256D02*
D03*
Y31744D02*
D03*
X30500Y57756D02*
D03*
Y52244D02*
D03*
X282000Y42244D02*
D03*
Y47756D02*
D03*
X272000Y23244D02*
D03*
Y28756D02*
D03*
X62000Y57756D02*
D03*
Y52244D02*
D03*
X253000Y27756D02*
D03*
Y22244D02*
D03*
X253500Y67756D02*
D03*
Y62244D02*
D03*
X62000Y17756D02*
D03*
Y12244D02*
D03*
X72000Y107756D02*
D03*
Y102244D02*
D03*
X31000Y17756D02*
D03*
Y12244D02*
D03*
X62000Y37756D02*
D03*
Y32244D02*
D03*
D11*
X165547Y187500D02*
D03*
X171453D02*
D03*
X34047Y190000D02*
D03*
X39953D02*
D03*
X130047Y191500D02*
D03*
X135953D02*
D03*
X199047Y180000D02*
D03*
X204953D02*
D03*
X184953Y145000D02*
D03*
X179047D02*
D03*
X279953Y80000D02*
D03*
X274047D02*
D03*
X279953Y180000D02*
D03*
X274047D02*
D03*
X279953Y160000D02*
D03*
X274047D02*
D03*
X279953Y140000D02*
D03*
X274047D02*
D03*
X279953Y120000D02*
D03*
X274047D02*
D03*
X279953Y100000D02*
D03*
X274047D02*
D03*
X204953Y125000D02*
D03*
X199047D02*
D03*
X279047Y5000D02*
D03*
X284953D02*
D03*
Y15000D02*
D03*
X279047D02*
D03*
X244047D02*
D03*
X249953D02*
D03*
X194953Y45000D02*
D03*
X189047D02*
D03*
X194953Y65000D02*
D03*
X189047D02*
D03*
X18142Y170000D02*
D03*
X24047D02*
D03*
X18142Y150000D02*
D03*
X24047D02*
D03*
X109047Y50000D02*
D03*
X114953D02*
D03*
X109047Y40000D02*
D03*
X114953D02*
D03*
X109047Y30000D02*
D03*
X114953D02*
D03*
X146453Y39500D02*
D03*
X140547D02*
D03*
X167047D02*
D03*
X172953D02*
D03*
X189047Y25000D02*
D03*
X194953D02*
D03*
X18142Y110000D02*
D03*
X24047D02*
D03*
X18142Y130000D02*
D03*
X24047D02*
D03*
D12*
X204500Y166614D02*
D03*
X199500D02*
D03*
X204500Y143386D02*
D03*
X199500D02*
D03*
X184500Y186614D02*
D03*
X179500D02*
D03*
X184500Y163386D02*
D03*
X179500D02*
D03*
D13*
X222000Y122047D02*
D03*
Y127953D02*
D03*
Y182047D02*
D03*
Y187953D02*
D03*
Y162047D02*
D03*
Y167953D02*
D03*
Y142047D02*
D03*
Y147953D02*
D03*
Y82047D02*
D03*
Y87953D02*
D03*
Y102047D02*
D03*
Y107953D02*
D03*
X272000Y67953D02*
D03*
Y62047D02*
D03*
X242000D02*
D03*
Y67953D02*
D03*
X253000Y42047D02*
D03*
Y47953D02*
D03*
X83500Y127953D02*
D03*
Y122047D02*
D03*
Y147953D02*
D03*
Y142047D02*
D03*
Y167953D02*
D03*
Y162047D02*
D03*
X92000Y187953D02*
D03*
Y182047D02*
D03*
X157000Y177953D02*
D03*
Y172047D02*
D03*
X19000Y31047D02*
D03*
Y36953D02*
D03*
Y52047D02*
D03*
Y57953D02*
D03*
X272000Y47953D02*
D03*
Y42047D02*
D03*
X282500Y28453D02*
D03*
Y22547D02*
D03*
X51000Y52047D02*
D03*
Y57953D02*
D03*
X242000Y22047D02*
D03*
Y27953D02*
D03*
X83000Y107453D02*
D03*
Y101547D02*
D03*
X19000Y12047D02*
D03*
Y17953D02*
D03*
X51000Y12047D02*
D03*
Y17953D02*
D03*
Y32047D02*
D03*
Y37953D02*
D03*
D14*
X184756Y155000D02*
D03*
X179244D02*
D03*
X204756Y135000D02*
D03*
X199244D02*
D03*
D15*
X263614Y82500D02*
D03*
Y87500D02*
D03*
X240386Y82500D02*
D03*
Y87500D02*
D03*
X263614Y102500D02*
D03*
Y107500D02*
D03*
X240386Y102500D02*
D03*
Y107500D02*
D03*
X263614Y122500D02*
D03*
Y127500D02*
D03*
X240386Y122500D02*
D03*
Y127500D02*
D03*
X263614Y142500D02*
D03*
Y147500D02*
D03*
X240386Y142500D02*
D03*
Y147500D02*
D03*
X263614Y162500D02*
D03*
Y167500D02*
D03*
X240386Y162500D02*
D03*
Y167500D02*
D03*
X263614Y182500D02*
D03*
Y187500D02*
D03*
X240386Y182500D02*
D03*
Y187500D02*
D03*
X205386Y22500D02*
D03*
Y17500D02*
D03*
X228614Y22500D02*
D03*
Y17500D02*
D03*
X205386Y42500D02*
D03*
Y37500D02*
D03*
X228614Y42500D02*
D03*
Y37500D02*
D03*
X205386Y62500D02*
D03*
Y57500D02*
D03*
X228614Y62500D02*
D03*
Y57500D02*
D03*
X39480Y167500D02*
D03*
Y162500D02*
D03*
X62709Y167500D02*
D03*
Y162500D02*
D03*
X39480Y147500D02*
D03*
Y142500D02*
D03*
X62709Y147500D02*
D03*
Y142500D02*
D03*
X39480Y127500D02*
D03*
Y122500D02*
D03*
X62709Y127500D02*
D03*
Y122500D02*
D03*
X110386Y177500D02*
D03*
Y172500D02*
D03*
X133614Y177500D02*
D03*
Y172500D02*
D03*
X50386Y187500D02*
D03*
Y182500D02*
D03*
X73614Y187500D02*
D03*
Y182500D02*
D03*
X98614Y12500D02*
D03*
Y17500D02*
D03*
X75386Y12500D02*
D03*
Y17500D02*
D03*
X39480Y107500D02*
D03*
Y102500D02*
D03*
X62709Y107500D02*
D03*
Y102500D02*
D03*
X98614Y52500D02*
D03*
Y57500D02*
D03*
X75386Y52500D02*
D03*
Y57500D02*
D03*
X98614Y32500D02*
D03*
Y37500D02*
D03*
X75386Y32500D02*
D03*
Y37500D02*
D03*
D16*
X262571Y13740D02*
D03*
Y6260D02*
D03*
X271429Y10000D02*
D03*
D17*
X135183Y133000D02*
D03*
Y128000D02*
D03*
Y123000D02*
D03*
Y118000D02*
D03*
Y113000D02*
D03*
Y108000D02*
D03*
Y103000D02*
D03*
Y98000D02*
D03*
Y93000D02*
D03*
Y88000D02*
D03*
Y83000D02*
D03*
Y78000D02*
D03*
Y73000D02*
D03*
Y68000D02*
D03*
X171010Y133000D02*
D03*
Y128000D02*
D03*
Y123000D02*
D03*
Y118000D02*
D03*
Y113000D02*
D03*
Y108000D02*
D03*
Y103000D02*
D03*
Y98000D02*
D03*
Y93000D02*
D03*
Y88000D02*
D03*
Y83000D02*
D03*
Y78000D02*
D03*
Y73000D02*
D03*
Y68000D02*
D03*
D18*
X238500Y154500D02*
Y158744D01*
X238200Y159044D02*
X238500Y158744D01*
X87953Y107453D02*
X102500Y122000D01*
X83000Y107453D02*
X87953D01*
X102500Y122000D02*
X116183D01*
X80000Y116047D02*
X93000D01*
X81350Y118047D02*
X92000D01*
X72000Y109725D02*
X79456D01*
X249700Y121543D02*
Y182000D01*
X240157Y112000D02*
X249700Y121543D01*
X236843Y112000D02*
X240157D01*
X235243Y113600D02*
X236843Y112000D01*
X229100Y113600D02*
X235243D01*
X238244Y116000D02*
X238500D01*
X235944Y118300D02*
X238244Y116000D01*
X262000Y20000D02*
Y21500D01*
Y20000D02*
X266400Y15600D01*
X261256Y22244D02*
X262000Y21500D01*
X253000Y22244D02*
X261256D01*
X180601Y102047D02*
X222000D01*
X171588Y102378D02*
X180601Y102047D01*
X171010Y103000D02*
X171588Y102378D01*
X207900Y104939D02*
X225300D01*
X189839Y123000D02*
X207900Y104939D01*
X184700Y113000D02*
X190200Y107500D01*
X116512Y124500D02*
X133012Y108000D01*
X101453Y124500D02*
X116512D01*
X116840Y127000D02*
X130840Y113000D01*
X100953Y127000D02*
X116840D01*
X129156Y104344D02*
X130500Y103000D01*
X135183D01*
X129156Y104344D02*
Y109028D01*
X116183Y122000D02*
X129156Y109028D01*
X130840Y113000D02*
X135183D01*
X133012Y108000D02*
X135183D01*
X267500Y182500D02*
X271547D01*
X267500Y162500D02*
X271547D01*
X267500Y142500D02*
X271547D01*
X187000Y45400D02*
X189047D01*
X185800Y46600D02*
Y48647D01*
X267500Y122500D02*
X271547D01*
X267500Y102500D02*
X271547D01*
X267500Y82500D02*
X271547D01*
X167000Y59200D02*
Y63990D01*
X102500Y52500D02*
X106547D01*
X132800Y133000D02*
Y145800D01*
X169500Y191100D02*
X179500D01*
X208700Y189653D02*
X211500D01*
X279800Y189500D02*
X292000D01*
X277800D02*
X279800D01*
X275800Y187500D02*
X277800D01*
X263614D02*
X275800D01*
X36980Y100000D02*
X38480D01*
X7000D02*
X36980D01*
Y120000D02*
X38480D01*
X7000D02*
X36980D01*
Y140000D02*
X38480D01*
X7000D02*
X36980D01*
Y160000D02*
X38480D01*
X7000D02*
X36980D01*
X104508Y172992D02*
Y191500D01*
X237000Y27953D02*
X239000D01*
X237000Y25953D02*
Y27953D01*
Y18500D02*
Y25953D01*
X238200Y159044D02*
Y162500D01*
X229000Y29400D02*
Y29500D01*
Y22500D02*
Y29400D01*
X204756Y133000D02*
Y135000D01*
Y130097D02*
Y133000D01*
X200056Y128300D02*
X203653D01*
X174400D02*
X200056D01*
X174400Y128000D02*
Y128300D01*
X49728Y10000D02*
Y12047D01*
X47681Y10000D02*
X49728D01*
X81728Y107453D02*
Y109725D01*
X79456D02*
X81728D01*
X78228Y126181D02*
Y126528D01*
X77797Y127953D02*
X80000D01*
X86800Y140000D02*
Y147953D01*
Y131000D02*
Y140000D01*
Y125075D02*
Y131000D01*
X76100Y141700D02*
X78800Y139000D01*
X151939Y175061D02*
X154061D01*
X152000Y173000D02*
Y175000D01*
Y170169D02*
Y173000D01*
Y169169D02*
Y170169D01*
X151000Y169169D02*
X152000D01*
X145169D02*
X151000D01*
X152000Y170169D01*
X141211Y159380D02*
X151000Y169169D01*
X140905Y118694D02*
X141600Y118000D01*
X139640Y119960D02*
X140905Y118694D01*
X140211Y118000D02*
X141600D01*
X135183D02*
X140211D01*
X141211Y134111D02*
Y159380D01*
Y119000D02*
Y121889D01*
X140905Y118694D02*
X141211Y119000D01*
X140211Y118000D02*
X140905Y118694D01*
X62800Y167500D02*
Y185000D01*
Y167500D02*
X67200D01*
X229900Y166125D02*
Y167756D01*
X251700Y81400D02*
Y113000D01*
X218853Y84953D02*
X219053D01*
X226100Y74700D02*
X228300D01*
X196200Y17500D02*
X201000D01*
X131900Y159900D02*
Y172500D01*
X57000Y141500D02*
Y143500D01*
Y122500D02*
Y141500D01*
X58000Y142500D02*
X62709D01*
X57451D02*
X58000D01*
X57000Y122500D02*
X58000D01*
X57000Y121500D02*
Y122500D01*
X129000Y98000D02*
X135183D01*
X110669Y116331D02*
X129000Y98000D01*
X99700Y100400D02*
X103000Y103700D01*
X97000Y97700D02*
X99700Y100400D01*
X188500Y32500D02*
X188800Y32200D01*
X141757D02*
X172395D01*
X131200D02*
X141757D01*
X172395D02*
X188800D01*
X131200D02*
X131500Y32500D01*
X108700Y9700D02*
X131200Y32200D01*
X99700Y100400D02*
Y116331D01*
Y89000D02*
Y100400D01*
X95700Y17500D02*
Y27000D01*
Y17500D02*
X98614D01*
X92900Y16400D02*
Y29800D01*
Y10800D02*
Y16400D01*
Y38600D02*
Y56400D01*
Y36400D02*
Y38600D01*
X272700Y10000D02*
X274047D01*
X271429D02*
X272700D01*
X271547Y182500D02*
X274047Y180000D01*
X271547Y162500D02*
X274047Y160000D01*
X271547Y142500D02*
X274047Y140000D01*
X171010Y78000D02*
X177000D01*
X185800Y48647D02*
Y69200D01*
Y48647D02*
X189047Y45400D01*
Y45000D02*
Y45400D01*
X271547Y122500D02*
X274047Y120000D01*
X271547Y102500D02*
X274047Y100000D01*
X271547Y82500D02*
X274047Y80000D01*
X167000Y63990D02*
X171010Y68000D01*
X106547Y52500D02*
X109047Y50000D01*
X275800Y187500D02*
X277800Y189500D01*
X36980Y100000D02*
X39480Y102500D01*
X36980Y120000D02*
X39480Y122500D01*
X36980Y140000D02*
X39480Y142500D01*
X36980Y160000D02*
X39480Y162500D01*
X228614Y17500D02*
X235000D01*
X237000Y25953D02*
X239000Y27953D01*
X242000D01*
X238200Y162500D02*
X240386D01*
X232000Y162244D02*
X238200Y162500D01*
X189000Y118000D02*
X191900Y115100D01*
X235000Y162244D02*
X238200Y159044D01*
X232000Y162244D02*
X235000D01*
X232000Y122244D02*
X235944Y118300D01*
X174400Y128000D02*
X200056Y128300D01*
X204756Y133000D01*
X204953Y125000D02*
Y127000D01*
X204756Y135000D02*
X204953Y129900D01*
X42000Y10000D02*
X47681D01*
X49728Y12047D01*
X51000D01*
X31000Y8500D02*
X33000Y6500D01*
X66400D01*
X72400Y12500D01*
X72000Y107756D02*
Y109725D01*
X79456D02*
X81728Y107453D01*
X80000Y127953D02*
X83500D01*
X78228Y126181D02*
X80000Y127953D01*
X78228Y117819D02*
Y126181D01*
X67200Y167500D02*
X72000Y167756D01*
X62800Y185000D02*
X68700Y190900D01*
X100000Y172100D02*
X105000Y167100D01*
X159300Y181000D02*
X160300Y180000D01*
X154061Y175061D02*
X160300D01*
X152000Y173000D02*
X154061Y175061D01*
X57000Y143500D02*
X58000Y142500D01*
X57000Y143500D02*
Y161500D01*
X62709Y162500D01*
X94000Y9700D02*
X108700D01*
X94000Y57500D02*
X98614D01*
X92900Y36400D02*
X94000Y37500D01*
X98614D01*
X192000Y21700D02*
X196200Y17500D01*
X188800Y32200D02*
X192000Y29000D01*
X92900Y10800D02*
X94000Y9700D01*
X227456Y87756D02*
X232000D01*
X224653Y84953D02*
X227456Y87756D01*
X219053Y84953D02*
X224653D01*
X217000Y82900D02*
X219053Y84953D01*
X211100Y38600D02*
Y57500D01*
X245000Y74700D02*
X251700Y81400D01*
X240386Y187500D02*
X249200D01*
X251700Y185000D01*
X228300Y74700D02*
X245000D01*
X205386Y57500D02*
X211100D01*
X127800Y98000D02*
X129000D01*
X99700Y116331D02*
X110669D01*
X99700Y89000D02*
X103000Y85700D01*
Y81756D02*
Y85700D01*
X274047Y10000D02*
X279047Y15000D01*
X98614Y57500D02*
Y79370D01*
X101000Y81756D01*
X103000D01*
X107957Y113256D02*
X117000Y104213D01*
X103000Y113256D02*
X107957D01*
X83500Y147953D02*
X86800D01*
X80228Y125075D02*
X86800D01*
X76100Y141700D02*
Y146656D01*
X189047Y21700D02*
X196447Y14300D01*
X211100Y16400D02*
Y21400D01*
X210000Y22500D02*
X211100Y21400D01*
X205386Y22500D02*
X210000D01*
X177500Y73000D02*
X178573Y71927D01*
Y45480D02*
Y71927D01*
X194953Y25000D02*
Y29100D01*
X171453Y185000D02*
Y187500D01*
X175553Y180900D02*
X183400D01*
X184500Y182000D02*
Y186614D01*
X204500Y166614D02*
Y173000D01*
X204953Y173453D01*
Y180000D01*
X194953Y62500D02*
Y65000D01*
Y62500D02*
X205386D01*
X185000Y83000D02*
X189047Y78953D01*
X135183Y68000D02*
X141000D01*
X146500Y50000D02*
Y62500D01*
Y44747D02*
Y50000D01*
X146453Y44700D02*
X146500Y44747D01*
X167047Y39500D02*
Y44700D01*
X167000Y44747D02*
X167047Y44700D01*
X167000Y44747D02*
Y50000D01*
X98614Y12500D02*
X105000D01*
X109047Y16547D01*
X123500Y38547D02*
Y69000D01*
X127500Y73000D01*
X114953Y50000D02*
Y74153D01*
X123800Y83000D01*
X135183D01*
X98614Y32500D02*
X105200D01*
X109047Y36347D01*
X117900Y42947D02*
Y72400D01*
X123500Y78000D01*
X118154Y177500D02*
X128854Y188200D01*
X135953D02*
Y191500D01*
X132800Y133000D02*
X135183D01*
X149000Y184200D02*
X168500D01*
Y190100D01*
X169500Y191100D01*
X211500Y189653D02*
Y191500D01*
X199500Y166614D02*
Y171400D01*
X195700Y175200D02*
X199500Y171400D01*
X195700Y175200D02*
Y182500D01*
X199000Y185800D01*
Y191500D01*
X285400Y180000D02*
X286400Y179000D01*
X292000D01*
X279953Y160000D02*
X292000D01*
X279953Y140000D02*
X292000D01*
X279953Y120000D02*
X292000D01*
X279953Y100000D02*
X292000D01*
X279953Y80000D02*
X292000D01*
X7000Y110000D02*
X18142D01*
X7000Y130000D02*
X18142D01*
X7000Y150000D02*
X18142D01*
X7000Y170000D02*
X18142D01*
X20700Y191000D02*
X21700Y190000D01*
X34047D01*
X7500Y182000D02*
X28900D01*
X29400Y182500D01*
X50386D01*
X113000Y191500D02*
X130047D01*
X104508Y172992D02*
X105000Y172500D01*
X103000Y191500D02*
X104508D01*
X256300Y27756D02*
X258544Y30000D01*
X247400Y22047D02*
X247597Y22244D01*
X253000D01*
X266400Y7660D02*
Y15600D01*
X265000Y6260D02*
X266400Y7660D01*
X225300Y104939D02*
Y109800D01*
X249200Y182500D02*
X249700Y182000D01*
X236000Y182244D02*
X236256Y182500D01*
X227469Y182244D02*
X232000D01*
X227272Y182047D02*
X227469Y182244D01*
Y162244D02*
X232000D01*
X227272Y162047D02*
X227469Y162244D01*
X222000Y162047D02*
X227272D01*
X276900Y23244D02*
X277597Y22547D01*
X282500Y19953D02*
Y22547D01*
X289953Y20000D02*
X292000D01*
X287947Y30000D02*
X292000D01*
X282500Y28453D02*
X286400D01*
X277303D02*
X282500D01*
X277000Y28756D02*
X277303Y28453D01*
X272000Y28756D02*
X277000D01*
X171010Y113000D02*
X184700D01*
X227097Y142244D02*
X232000D01*
X236000D01*
X171010Y133000D02*
Y135000D01*
X184953Y145000D02*
Y149900D01*
X184756Y150097D02*
X184953Y149900D01*
X184500Y159256D02*
X184756Y159000D01*
X179244Y155000D02*
Y159000D01*
X179500Y159256D01*
Y163386D01*
X224000Y37500D02*
X228614D01*
X222900Y38600D02*
X224000Y37500D01*
X222900Y45656D02*
X225000Y47756D01*
X242000D02*
X247400D01*
X247597Y47953D01*
X253000D02*
X256400D01*
X242000Y42244D02*
X247400D01*
X247597Y42047D01*
X256400D02*
X258447Y40000D01*
X262000D01*
X276900Y42047D02*
X277097Y42244D01*
X282000D01*
X285800D02*
X288044Y40000D01*
X292000D01*
X228614Y42500D02*
X235700D01*
X267500Y39000D02*
Y46453D01*
X269000Y47953D02*
X272000D01*
X277097Y47756D02*
X282000D01*
X285800D01*
X288044Y50000D01*
X292000D01*
X232000Y122244D02*
X236000D01*
X236256Y122500D01*
X227097Y122244D02*
X232000D01*
X222000Y122047D02*
X226900D01*
X204756Y135000D02*
Y139000D01*
X204500Y139256D02*
Y143386D01*
X199244Y135000D02*
Y139000D01*
X199500Y139256D01*
Y143386D01*
X224000Y57500D02*
X228614D01*
X222900Y58600D02*
X224000Y57500D01*
X222900Y65853D02*
X225000Y67953D01*
X242000D02*
X247600D01*
X247797Y67756D01*
X256600D02*
X258844Y70000D01*
X247600Y62047D02*
X247797Y62244D01*
X253500D01*
X256600D02*
X258844Y60000D01*
X262000D01*
X236000Y102244D02*
X236256Y102500D01*
X240386D01*
X276900Y62047D02*
X277097Y62244D01*
X282000D01*
X285800D02*
X288044Y60000D01*
X292000D01*
X228614Y62500D02*
X233200D01*
X267500Y59000D02*
Y66453D01*
X269000Y67953D02*
X272000D01*
X277097Y67756D02*
X282000D01*
X285800D01*
X288044Y70000D01*
X292000D01*
X56400Y17953D02*
X56597Y17756D01*
X62000D01*
X68500D02*
X68756Y17500D01*
X75386D01*
X51000Y12047D02*
X56400D01*
X56597Y12244D01*
X62000D01*
X222000Y82047D02*
X227272D01*
X247000Y84500D02*
Y93000D01*
X242000Y98000D02*
X247000Y93000D01*
X25097Y17756D02*
X31000D01*
X7000Y10000D02*
X11900D01*
X13947Y12047D01*
X19000D01*
X24900D01*
X25097Y12244D01*
X31000D01*
X56400Y57953D02*
X56597Y57756D01*
X62000D01*
X68500D02*
X68756Y57500D01*
X75386D01*
X47447Y52047D02*
X51000D01*
X56400D01*
X56597Y52244D02*
X62000D01*
X56400Y37953D02*
X56597Y37756D01*
X62000D01*
X68500D02*
X68756Y37500D01*
X75386D01*
X47447Y32047D02*
X51000D01*
X56400D01*
X56597Y32244D02*
X62000D01*
X24797Y57756D02*
X30500D01*
X11900Y50000D02*
X13947Y52047D01*
X19000D02*
X24600D01*
X24797Y52244D02*
X30500D01*
X62709Y127500D02*
X67200D01*
X67456Y127756D01*
X77000D02*
X78228Y126528D01*
X19000Y36953D02*
X24800D01*
X25103Y37256D02*
X31000D01*
X13447Y31047D02*
X19000D01*
X24600D01*
X25297Y31744D02*
X31000D01*
X33000Y26500D02*
X65500D01*
X71500Y32500D01*
X67456Y147756D02*
X72000D01*
X108244Y76244D02*
X117000Y85000D01*
X120000Y88000D01*
X117000Y101208D02*
Y104213D01*
X77600Y167756D02*
X77797Y167953D01*
X83500D01*
X127900Y129000D02*
X128900Y128000D01*
X127900Y175420D02*
X129980Y177500D01*
X133614D02*
X140100D01*
X140356Y177756D02*
X147000D01*
X151900D01*
X73614Y187500D02*
X77600D01*
X77856Y187756D02*
X82000D01*
X86900D02*
X87097Y187953D01*
X93400D02*
X97200Y184153D01*
X62709Y102500D02*
X67200D01*
X67456Y102244D01*
X62709Y122500D02*
X67200D01*
X67456Y122244D02*
X72000D01*
X62709Y142500D02*
X67200D01*
X72000Y98700D02*
Y102244D01*
X73000Y97700D02*
X97000D01*
X103000Y103700D02*
Y107744D01*
X67200Y162500D02*
X67456Y162244D01*
X72000D01*
X75100D02*
X77930Y165075D01*
X86800D02*
Y181000D01*
X82000Y182244D02*
X85556D01*
X77600Y182500D02*
X77856Y182244D01*
X73614Y182500D02*
X77600D01*
X82000Y175100D02*
Y182244D01*
X201000Y37500D02*
X205386D01*
X240386Y107500D02*
X246200D01*
X236256Y87500D02*
X240386D01*
X232000Y107756D02*
X236000D01*
X232000Y87756D02*
Y89831D01*
X199631Y92831D02*
X229000D01*
X194800Y88000D02*
X199631Y92831D01*
X171010Y88000D02*
X194800D01*
X225300Y184925D02*
X228131Y187756D01*
X218728Y179672D02*
Y184925D01*
X227000Y178000D02*
X232000Y173000D01*
X236256Y167500D02*
X240386D01*
X218728Y159672D02*
X220400Y158000D01*
X227000D01*
X232000Y153000D01*
Y147756D02*
Y153000D01*
X247700Y130200D02*
Y145000D01*
X245000Y127500D02*
X247700Y130200D01*
X236256Y127500D02*
X240386D01*
X289953Y10000D02*
X292000D01*
X255600Y15000D02*
X256860Y13740D01*
X262571D01*
X279047Y5000D02*
Y15000D01*
X235000Y17500D02*
X236000D01*
X237000Y18500D01*
X251700Y113000D02*
Y185000D01*
X211100Y59700D02*
X214900Y63500D01*
X226100Y74700D01*
X57000Y103900D02*
Y121500D01*
X263614Y182500D02*
X267500D01*
X270000Y180000D01*
X274047D01*
X189047Y21700D02*
Y25000D01*
X196447Y14300D02*
X209000D01*
X211100Y16400D01*
X171010Y73000D02*
X177500D01*
X178573Y45480D02*
X194953Y29100D01*
X263614Y162500D02*
X267500D01*
X270000Y160000D01*
X274047D01*
X263614Y142500D02*
X267500D01*
X270000Y140000D01*
X274047D01*
X171453Y185000D02*
X175553Y180900D01*
X183400D02*
X184500Y182000D01*
X194953Y45000D02*
X197453Y42500D01*
X205386D01*
X177000Y78000D02*
X185800Y69200D01*
Y46600D02*
X187000Y45400D01*
X263614Y122500D02*
X267500D01*
X270000Y120000D01*
X274047D01*
X171010Y83000D02*
X185000D01*
X189047Y65000D02*
Y78953D01*
X263614Y102500D02*
X267500D01*
X270000Y100000D01*
X274047D01*
X263614Y82500D02*
X267500D01*
X270000Y80000D01*
X274047D01*
X141000Y68000D02*
X146500Y62500D01*
X146453Y39500D02*
Y44700D01*
X167000Y50000D02*
Y59200D01*
X171010Y63210D01*
Y68000D01*
X109047Y16547D02*
Y30000D01*
X114953D02*
X123500Y38547D01*
X127500Y73000D02*
X135183D01*
X24047Y110000D02*
X26547Y107500D01*
X39480D01*
X98614Y52500D02*
X102500D01*
X105000Y50000D01*
X109047D01*
Y36347D02*
Y40000D01*
X114953D02*
X117900Y42947D01*
X123500Y78000D02*
X135183D01*
X24047Y130000D02*
X26547Y127500D01*
X39480D01*
X24047Y150000D02*
X26547Y147500D01*
X39480D01*
X24047Y170000D02*
X26547Y167500D01*
X39480D01*
X110386Y177500D02*
X118154D01*
X128854Y188200D02*
X135953D01*
X39953Y190000D02*
X42453Y187500D01*
X50386D01*
X157000Y192000D02*
X161500Y187500D01*
X165547D01*
X146500Y186700D02*
Y191500D01*
Y186700D02*
X149000Y184200D01*
X179500Y186614D02*
Y191100D01*
X199047Y180000D02*
X208700Y189653D01*
X279953Y180000D02*
X285400D01*
X277800Y187500D02*
X279800Y189500D01*
X263614Y167500D02*
X266114Y170000D01*
X292000D01*
X263614Y147500D02*
X266114Y150000D01*
X292000D01*
X263614Y127500D02*
X266114Y130000D01*
X292000D01*
X263614Y107500D02*
X266114Y110000D01*
X292000D01*
X263614Y87500D02*
X266114Y90000D01*
X292000D01*
X38480Y100000D02*
X39480Y101000D01*
Y102500D01*
X38480Y120000D02*
X39480Y121000D01*
Y122500D01*
X38480Y140000D02*
X39480Y141000D01*
Y142500D01*
X38480Y160000D02*
X39480Y161000D01*
Y162500D01*
X7500Y191000D02*
X20700D01*
X105000Y172500D02*
X110386D01*
X242000Y27953D02*
X247400D01*
X247597Y27756D01*
X253000D01*
X256300D01*
X258544Y30000D02*
X262000D01*
X237500Y15000D02*
X244047D01*
X235000Y17500D02*
X237500Y15000D01*
X242000Y22047D02*
X247400D01*
X262571Y6260D02*
X265000D01*
X171010Y123000D02*
X189839D01*
X225300Y109800D02*
X229100Y113600D01*
X240386Y182500D02*
X249200D01*
X236256D02*
X240386D01*
X232000Y182244D02*
X236000D01*
X222000Y182047D02*
X227272D01*
X171010Y118000D02*
X189000D01*
X236256Y162500D02*
X238200D01*
X232000Y162244D02*
X236256Y162500D01*
X272000Y23244D02*
X276900D01*
X277597Y22547D02*
X282500D01*
Y19953D02*
X284953Y17500D01*
Y15000D02*
Y17500D01*
Y15000D02*
X289953Y20000D01*
X228614Y22500D02*
X229000D01*
X286400Y28453D02*
X287947Y30000D01*
X232000Y135000D02*
Y142244D01*
X226900Y142047D02*
X227097Y142244D01*
X222000Y142047D02*
X226900D01*
X236000Y142244D02*
X236256Y142500D01*
X240386D01*
X171010Y135000D02*
X173910Y137900D01*
X178253D01*
X184953Y144600D01*
Y145000D01*
X184756Y150097D02*
Y155000D01*
Y159000D01*
X184500Y159256D02*
Y163386D01*
X222900Y38600D02*
Y45656D01*
X225000Y47756D02*
X242000D01*
X247597Y47953D02*
X253000D01*
X256400D02*
X258447Y50000D01*
X262000D01*
X247597Y42047D02*
X253000D01*
X256400D01*
X272000D02*
X276900D01*
X282000Y42244D02*
X285800D01*
X235700Y42500D02*
X241700Y36500D01*
X265000D01*
X267500Y39000D01*
Y46453D02*
X269000Y47953D01*
X272000D02*
X276900D01*
X277097Y47756D01*
X166400Y108000D02*
X171010D01*
X160900Y101500D02*
X166400Y108000D01*
X236256Y122500D02*
X240386D01*
X226900Y122047D02*
X227097Y122244D01*
X171010Y128000D02*
X174400D01*
X203653Y128300D02*
X204953Y127000D01*
Y129900D01*
X204756Y130097D02*
X204953Y129900D01*
X204500Y139256D02*
X204756Y139000D01*
X222900Y58600D02*
Y65853D01*
X225000Y67953D02*
X242000D01*
X247797Y67756D02*
X253500D01*
X256600D01*
X258844Y70000D02*
X262000D01*
X242000Y62047D02*
X247600D01*
X253500Y62244D02*
X256600D01*
X222000Y102047D02*
X226900D01*
X227097Y102244D01*
X232000D01*
X236000D01*
X272000Y62047D02*
X276900D01*
X282000Y62244D02*
X285800D01*
X233200Y62500D02*
X239200Y56500D01*
X265000D01*
X267500Y59000D01*
Y66453D02*
X269000Y67953D01*
X272000D02*
X276900D01*
X277097Y67756D01*
X47447Y17953D02*
X51000D01*
X45400Y20000D02*
X47447Y17953D01*
X42000Y20000D02*
X45400D01*
X51000Y17953D02*
X56400D01*
X62000Y17756D02*
X68500D01*
X227272Y82047D02*
X227469Y82244D01*
X232000D01*
X236000D01*
X236256Y82500D01*
X240386D01*
X245000D01*
X247000Y84500D01*
X171010Y98000D02*
X242000D01*
X13947Y17953D02*
X19000D01*
X11900Y20000D02*
X13947Y17953D01*
X7000Y20000D02*
X11900D01*
X19000Y17953D02*
X24900D01*
X25097Y17756D01*
X31000Y8500D02*
Y12244D01*
X72400Y12500D02*
X75386D01*
X62709Y107500D02*
X67200D01*
X67456Y107756D01*
X72000D01*
X81728Y107453D02*
X83000D01*
X47447Y57953D02*
X51000D01*
X45400Y60000D02*
X47447Y57953D01*
X42000Y60000D02*
X45400D01*
X51000Y57953D02*
X56400D01*
X62000Y57756D02*
X68500D01*
X42000Y50000D02*
X45400D01*
X47447Y52047D01*
X56400D02*
X56597Y52244D01*
X47447Y37953D02*
X51000D01*
X45400Y40000D02*
X47447Y37953D01*
X42000Y40000D02*
X45400D01*
X51000Y37953D02*
X56400D01*
X62000Y37756D02*
X68500D01*
X42000Y30000D02*
X45400D01*
X47447Y32047D01*
X56400D02*
X56597Y32244D01*
X13947Y57953D02*
X19000D01*
X11900Y60000D02*
X13947Y57953D01*
X7000Y60000D02*
X11900D01*
X19000Y57953D02*
X24600D01*
X24797Y57756D01*
X7000Y50000D02*
X11900D01*
X13947Y52047D02*
X19000D01*
X24600D02*
X24797Y52244D01*
X30500Y48300D02*
Y52244D01*
Y48300D02*
X33000Y45800D01*
X65500D01*
X72200Y52500D01*
X75386D01*
X67456Y127756D02*
X72000D01*
X77600D02*
X77797Y127953D01*
X77000Y127756D02*
X77600D01*
X93000Y116047D02*
X101453Y124500D01*
X72000Y127756D02*
X77000D01*
X78228Y117819D02*
X80000Y116047D01*
X14447Y36953D02*
X19000D01*
X11400Y40000D02*
X14447Y36953D01*
X7000Y40000D02*
X11400D01*
X24800Y36953D02*
X25103Y37256D01*
X7000Y30000D02*
X12400D01*
X13447Y31047D01*
X24600D02*
X25297Y31744D01*
X31000Y28500D02*
Y31744D01*
Y28500D02*
X33000Y26500D01*
X71500Y32500D02*
X75386D01*
X67200Y147500D02*
X67456Y147756D01*
X62709Y147500D02*
X67200D01*
X72000Y147756D02*
X75000D01*
X76100Y146656D01*
X80228Y119169D02*
Y125075D01*
X85800Y139000D02*
X86800Y140000D01*
X78800Y139000D02*
X85800D01*
X78800D02*
X86800Y131000D01*
X80228Y119169D02*
X81350Y118047D01*
X92000D02*
X100953Y127000D01*
X103000Y76244D02*
X108244D01*
X120000Y88000D02*
X135183D01*
X117000Y101208D02*
X125208Y93000D01*
X135183D01*
X67200Y167500D02*
X67456Y167756D01*
X72000D01*
X77600D01*
X62709Y167500D02*
X62800D01*
X68700Y190900D02*
X95300D01*
X100000Y186200D01*
Y172100D02*
Y186200D01*
X105000Y167100D02*
X115700D01*
X129600Y181000D01*
X159300D01*
X160300Y175061D02*
Y180000D01*
X151939Y175061D02*
X152000Y175000D01*
X137000Y161000D02*
X145169Y169169D01*
X137000Y138322D02*
Y161000D01*
Y138322D02*
X141211Y134111D01*
Y121889D02*
Y134111D01*
X139640Y120319D02*
X141211Y121889D01*
X139640Y119960D02*
Y120319D01*
X128900Y128000D02*
X135183D01*
X127900Y129000D02*
Y175420D01*
X129980Y177500D02*
X133614D01*
X140100D02*
X140356Y177756D01*
X151900D02*
X152097Y177953D01*
X157000D01*
X77600Y187500D02*
X77856Y187756D01*
X82000D02*
X86900D01*
X87097Y187953D02*
X92000D01*
X93400D01*
X97200Y153800D02*
Y184153D01*
Y153800D02*
X128000Y123000D01*
X135183D01*
X67456Y102244D02*
X72000D01*
X67200Y122500D02*
X67456Y122244D01*
X67200Y142500D02*
X67456Y142244D01*
X72000D01*
X58400Y102500D02*
X62709D01*
X57000Y103900D02*
X58400Y102500D01*
X57000Y141500D02*
X58000Y142500D01*
X57000Y161500D02*
X58000Y162500D01*
Y122500D02*
X62709D01*
X57000Y121500D02*
X58000Y122500D01*
Y162500D02*
X62709D01*
X72000Y98700D02*
X73000Y97700D01*
X62709Y162500D02*
X67200D01*
X72000Y162244D02*
X75100D01*
X77930Y165075D02*
X86800D01*
X85556Y182244D02*
X86800Y181000D01*
X77856Y182244D02*
X82000D01*
X131900Y172500D02*
X133614D01*
X140100D01*
X140356Y172244D01*
X147000D01*
X92900Y29800D02*
Y36400D01*
X172695Y32500D02*
X188500D01*
X197300Y21700D02*
X198600Y23000D01*
X198800Y19700D02*
Y35300D01*
X92900Y56400D02*
X94000Y57500D01*
X92900Y38600D02*
X94000Y37500D01*
X92900Y29800D02*
X95700Y27000D01*
X94000Y17500D02*
X95700D01*
X92900Y16400D02*
X94000Y17500D01*
X141457Y32500D02*
X141757Y32200D01*
X192000Y21700D02*
X197300D01*
X131500Y32500D02*
X141457D01*
X172395Y32200D02*
X172695Y32500D01*
X192000Y21700D02*
Y29000D01*
X198600Y23000D02*
Y35100D01*
X198800Y19700D02*
X201000Y17500D01*
X198600Y35100D02*
X198800Y35300D01*
X201000Y37500D01*
Y17500D02*
X205386D01*
Y37500D02*
X210000D01*
X211100Y38600D01*
X214900Y81000D02*
X218853Y84953D01*
X214900Y63500D02*
Y81000D01*
X211100Y57500D02*
Y59700D01*
X246200Y107500D02*
X251700Y113000D01*
X232000Y87756D02*
X236000D01*
X236256Y87500D01*
Y107500D02*
X240386D01*
X236000Y107756D02*
X236256Y107500D01*
Y187500D02*
X240386D01*
X236000Y187756D02*
X236256Y187500D01*
X232000Y187756D02*
X236000D01*
X229000Y92831D02*
X232000Y89831D01*
X228131Y187756D02*
X232000D01*
X218728Y184925D02*
X225300D01*
X218728Y179672D02*
X220400Y178000D01*
X227000D01*
X232000Y167756D02*
Y173000D01*
Y167756D02*
X236000D01*
X236256Y167500D01*
X229900Y167756D02*
X232000D01*
X228700Y164925D02*
X229900Y166125D01*
X218728Y164925D02*
X228700D01*
X218728Y159672D02*
Y164925D01*
X232000Y147756D02*
X236000D01*
X236256Y147500D01*
X240386D01*
X245200D01*
X247700Y145000D01*
X240386Y127500D02*
X245000D01*
X236000Y127756D02*
X236256Y127500D01*
X232000Y127756D02*
X236000D01*
X284953Y5000D02*
X289953Y10000D01*
X249953Y15000D02*
X255600D01*
X272700Y10000D02*
X277700Y15000D01*
X279047D01*
D19*
X83806Y103500D02*
X92500D01*
X81853Y101547D02*
X83806Y103500D01*
X218747Y107953D02*
X222000D01*
X217700Y109000D02*
X218747Y107953D01*
X214873Y160145D02*
X215728Y161000D01*
Y167925D01*
Y170972D01*
Y150972D02*
Y161000D01*
Y170972D02*
Y187925D01*
X211728Y157000D02*
X214873Y160145D01*
X219000Y147953D02*
X222000D01*
X216477Y146653D02*
X217700D01*
X215728D02*
X216477D01*
X215728Y150972D02*
X216221Y148132D01*
X216477Y146653D01*
X217700Y139600D01*
X216221Y148132D02*
X217700Y146653D01*
X215728Y148625D02*
X216221Y148132D01*
X214555Y149798D02*
X215728Y148625D01*
X217700Y139600D02*
Y146653D01*
Y119000D02*
Y127953D01*
Y109000D02*
Y119000D01*
X211028Y146272D02*
X217700Y139600D01*
X219700Y127953D02*
X222000D01*
X217700D02*
X219700D01*
X217027D02*
X217700D01*
X215728Y119000D02*
X217700D01*
X206274D02*
X215728D01*
X202747D02*
X206274D01*
X215728Y110972D02*
X217700Y109000D01*
X215728Y148625D02*
Y150972D01*
Y146653D02*
Y148625D01*
X214555Y149798D02*
X215728Y150972D01*
X211028Y146272D02*
X214555Y149798D01*
X215728Y119000D02*
Y126654D01*
Y110972D02*
Y119000D01*
X200300Y157000D02*
X211028Y146272D01*
X91600Y163247D02*
Y182047D01*
X92000D01*
X89800D02*
X91600D01*
X172500Y149000D02*
Y149300D01*
Y145000D02*
Y149000D01*
Y145000D02*
X176500D01*
X172500Y149000D02*
X176500Y145000D01*
X172350Y149150D02*
X172500Y149000D01*
X172350Y149150D02*
X172500Y149300D01*
X155900Y132700D02*
X172350Y149150D01*
X151000Y127800D02*
X155900Y132700D01*
X89800Y162047D02*
X90400D01*
X89800D02*
Y182047D01*
Y151800D02*
Y162047D01*
Y122075D02*
Y151800D01*
Y122047D02*
Y122075D01*
X83900Y157700D02*
Y162047D01*
X89800Y122047D02*
X89827D01*
X159900Y93000D02*
X171010D01*
X151000Y88149D02*
Y127800D01*
Y41000D02*
Y88149D01*
Y37200D02*
Y41000D01*
X149000Y35200D02*
X156800D01*
X172953Y37000D02*
Y39500D01*
X171153Y35200D02*
X172953Y37000D01*
X156800Y35200D02*
X171153D01*
X151000Y41000D02*
X156800Y35200D01*
X172500Y149300D02*
Y169000D01*
X185253Y172047D01*
X140547Y37653D02*
Y39500D01*
X143000Y35200D02*
X149000D01*
X151000Y37200D01*
X199047Y122700D02*
X202747Y119000D01*
X214555Y149798D02*
X214873Y160145D01*
X155851Y93000D02*
X159900D01*
X217700Y127953D02*
Y139600D01*
X215728Y187925D02*
X222000Y187953D01*
X176500Y145000D02*
X179047D01*
X185253Y172047D02*
X200300Y157000D01*
X211728D01*
X215756Y187953D02*
X222000D01*
X83500Y122047D02*
X89800D01*
Y122075D02*
X89827Y122047D01*
X83500Y162047D02*
X83900D01*
X89800D01*
X207300Y87953D02*
X222000D01*
X80247Y162047D02*
X83500D01*
X79200Y161000D02*
X80247Y162047D01*
X79200Y143847D02*
Y161000D01*
Y143847D02*
X81000Y142047D01*
X83500D01*
X215226Y127953D02*
X217027D01*
X171010Y93000D02*
X189000D01*
X155900Y97000D02*
X159900Y93000D01*
X140547Y37653D02*
X143000Y35200D01*
X151000Y88149D02*
X155851Y93000D01*
X215756Y167953D02*
X218747D01*
X155900Y97000D02*
Y132700D01*
X169453Y172047D02*
X172500Y169000D01*
X199047Y122700D02*
Y125000D01*
X206274Y119000D02*
X215226Y127953D01*
X172500Y149300D02*
X172600Y149400D01*
X169453Y172047D02*
X185253D01*
X215728Y187925D02*
X215756Y187953D01*
X215728Y126654D02*
X217027Y127953D01*
X217700Y139600D02*
X219700Y127953D01*
X215728Y150972D02*
X218747Y147953D01*
X157000Y172047D02*
X169453D01*
X217700Y146653D02*
X219000Y147953D01*
X218747D02*
X219000D01*
X215728Y167925D02*
X215756Y167953D01*
X215728Y170972D02*
X218747Y167953D01*
X222000D01*
X83900Y157700D02*
X89800Y151800D01*
X90400Y162047D02*
X91600Y163247D01*
X81853Y101547D02*
X83000D01*
X83500Y122047D02*
X89800Y122075D01*
D20*
X146500Y50000D02*
D03*
X167000D02*
D03*
X189000Y93000D02*
D03*
X211500Y191500D02*
D03*
X199000D02*
D03*
X146500D02*
D03*
X157000Y192000D02*
D03*
X118000Y152000D02*
D03*
D21*
X292000Y10000D02*
D03*
X7000D02*
D03*
Y20000D02*
D03*
Y60000D02*
D03*
Y50000D02*
D03*
Y40000D02*
D03*
Y30000D02*
D03*
X292000Y50000D02*
D03*
Y40000D02*
D03*
Y70000D02*
D03*
Y60000D02*
D03*
Y20000D02*
D03*
X262000Y30000D02*
D03*
X292000D02*
D03*
X262000Y21500D02*
D03*
Y40000D02*
D03*
X7000Y100000D02*
D03*
Y110000D02*
D03*
Y130000D02*
D03*
Y140000D02*
D03*
Y120000D02*
D03*
Y150000D02*
D03*
Y160000D02*
D03*
Y170000D02*
D03*
X113000Y191500D02*
D03*
X103000D02*
D03*
X7500Y191000D02*
D03*
Y182000D02*
D03*
X262000Y60000D02*
D03*
X292000Y80000D02*
D03*
Y90000D02*
D03*
Y120000D02*
D03*
Y130000D02*
D03*
Y140000D02*
D03*
Y150000D02*
D03*
Y160000D02*
D03*
Y170000D02*
D03*
Y179000D02*
D03*
Y189500D02*
D03*
X262000Y70000D02*
D03*
X292000Y110000D02*
D03*
X42000Y20000D02*
D03*
Y10000D02*
D03*
Y30000D02*
D03*
X292000Y100000D02*
D03*
X42000Y60000D02*
D03*
Y40000D02*
D03*
Y50000D02*
D03*
X262000D02*
D03*
D22*
X152000Y155000D02*
D03*
X157500Y16000D02*
D03*
X24500Y80500D02*
D03*
D23*
X117000Y85000D02*
D03*
Y104213D02*
D03*
D24*
X238500Y154500D02*
D03*
X92500Y103500D02*
D03*
X238500Y116000D02*
D03*
X190200Y107500D02*
D03*
X89827Y122047D02*
D03*
X191900Y115100D02*
D03*
X229000Y29400D02*
D03*
X160900Y101500D02*
D03*
X207300Y87953D02*
D03*
X127800Y98000D02*
D03*
X132800Y145800D02*
D03*
X232000Y135000D02*
D03*
X82000Y175100D02*
D03*
X131900Y159900D02*
D03*
M02*
