G04 Layer_Color=65535*
%FSLAX25Y25*%
%MOIN*%
G70*
G01*
G75*
%ADD18C,0.01000*%
%ADD25C,0.00984*%
%ADD26C,0.02362*%
%ADD27C,0.00787*%
%ADD28C,0.00600*%
%ADD29C,0.00500*%
D18*
X109520Y80980D02*
G03*
X117000Y73500I7480J0D01*
G01*
X124461Y108000D02*
G03*
X116980Y115480I-7480J0D01*
G01*
D02*
G03*
X109500Y108000I0J-7480D01*
G01*
X117000Y73500D02*
G03*
X124480Y80980I0J7480D01*
G01*
X124461Y80000D02*
Y108000D01*
X109500Y80000D02*
Y108000D01*
X270000Y85500D02*
Y91498D01*
X272999D01*
X273999Y90498D01*
Y88499D01*
X272999Y87499D01*
X270000D01*
X271999D02*
X273999Y85500D01*
X279997D02*
X275998D01*
X279997Y89499D01*
Y90498D01*
X278997Y91498D01*
X276998D01*
X275998Y90498D01*
X284995Y85500D02*
Y91498D01*
X281996Y88499D01*
X285995D01*
X270500Y184000D02*
Y189998D01*
X273499D01*
X274499Y188998D01*
Y186999D01*
X273499Y185999D01*
X270500D01*
X272499D02*
X274499Y184000D01*
X279497D02*
Y189998D01*
X276498Y186999D01*
X280497D01*
X282496Y189998D02*
X286495D01*
Y188998D01*
X282496Y185000D01*
Y184000D01*
X269500Y164500D02*
Y170498D01*
X272499D01*
X273499Y169498D01*
Y167499D01*
X272499Y166499D01*
X269500D01*
X271499D02*
X273499Y164500D01*
X278497D02*
Y170498D01*
X275498Y167499D01*
X279497D01*
X285495Y170498D02*
X281496D01*
Y167499D01*
X283495Y168499D01*
X284495D01*
X285495Y167499D01*
Y165500D01*
X284495Y164500D01*
X282496D01*
X281496Y165500D01*
X270500Y144500D02*
Y150498D01*
X273499D01*
X274499Y149498D01*
Y147499D01*
X273499Y146499D01*
X270500D01*
X272499D02*
X274499Y144500D01*
X279497D02*
Y150498D01*
X276498Y147499D01*
X280497D01*
X282496Y144500D02*
X284495D01*
X283496D01*
Y150498D01*
X282496Y149498D01*
X270500Y125500D02*
Y131498D01*
X273499D01*
X274499Y130498D01*
Y128499D01*
X273499Y127499D01*
X270500D01*
X272499D02*
X274499Y125500D01*
X276498Y130498D02*
X277498Y131498D01*
X279497D01*
X280497Y130498D01*
Y129499D01*
X279497Y128499D01*
X278497D01*
X279497D01*
X280497Y127499D01*
Y126500D01*
X279497Y125500D01*
X277498D01*
X276498Y126500D01*
X285495Y125500D02*
Y131498D01*
X282496Y128499D01*
X286495D01*
X270000Y105500D02*
Y111498D01*
X272999D01*
X273999Y110498D01*
Y108499D01*
X272999Y107499D01*
X270000D01*
X271999D02*
X273999Y105500D01*
X279997D02*
X275998D01*
X279997Y109499D01*
Y110498D01*
X278997Y111498D01*
X276998D01*
X275998Y110498D01*
X281996D02*
X282996Y111498D01*
X284995D01*
X285995Y110498D01*
Y109499D01*
X284995Y108499D01*
X285995Y107499D01*
Y106500D01*
X284995Y105500D01*
X282996D01*
X281996Y106500D01*
Y107499D01*
X282996Y108499D01*
X281996Y109499D01*
Y110498D01*
X282996Y108499D02*
X284995D01*
X253499Y4500D02*
Y8498D01*
X252499Y9498D01*
X250500D01*
X249500Y8498D01*
Y4500D01*
X250500Y3500D01*
X252499D01*
X251499Y5499D02*
X253499Y3500D01*
X252499D02*
X253499Y4500D01*
X255498Y3500D02*
X257497D01*
X256498D01*
Y9498D01*
X255498Y8498D01*
X228000Y3500D02*
Y9498D01*
X230999D01*
X231999Y8498D01*
Y6499D01*
X230999Y5499D01*
X228000D01*
X229999D02*
X231999Y3500D01*
X236997D02*
Y9498D01*
X233998Y6499D01*
X237997D01*
X239996Y4500D02*
X240996Y3500D01*
X242995D01*
X243995Y4500D01*
Y8498D01*
X242995Y9498D01*
X240996D01*
X239996Y8498D01*
Y7499D01*
X240996Y6499D01*
X243995D01*
X180000Y51000D02*
Y56998D01*
X182999D01*
X183999Y55998D01*
Y53999D01*
X182999Y52999D01*
X180000D01*
X181999D02*
X183999Y51000D01*
X185998Y55998D02*
X186998Y56998D01*
X188997D01*
X189997Y55998D01*
Y54999D01*
X188997Y53999D01*
X187997D01*
X188997D01*
X189997Y52999D01*
Y52000D01*
X188997Y51000D01*
X186998D01*
X185998Y52000D01*
X195995Y56998D02*
X193995Y55998D01*
X191996Y53999D01*
Y52000D01*
X192996Y51000D01*
X194995D01*
X195995Y52000D01*
Y52999D01*
X194995Y53999D01*
X191996D01*
X181500Y71000D02*
Y76998D01*
X184499D01*
X185499Y75998D01*
Y73999D01*
X184499Y72999D01*
X181500D01*
X183499D02*
X185499Y71000D01*
X191497D02*
X187498D01*
X191497Y74999D01*
Y75998D01*
X190497Y76998D01*
X188498D01*
X187498Y75998D01*
X193496Y72000D02*
X194496Y71000D01*
X196495D01*
X197495Y72000D01*
Y75998D01*
X196495Y76998D01*
X194496D01*
X193496Y75998D01*
Y74999D01*
X194496Y73999D01*
X197495D01*
X90000Y142500D02*
Y148498D01*
X92999D01*
X93999Y147498D01*
Y145499D01*
X92999Y144499D01*
X90000D01*
X91999D02*
X93999Y142500D01*
X95998Y148498D02*
X99997D01*
Y147498D01*
X95998Y143500D01*
Y142500D01*
X89500Y162000D02*
Y167998D01*
X92499D01*
X93499Y166998D01*
Y164999D01*
X92499Y163999D01*
X89500D01*
X91499D02*
X93499Y162000D01*
X99497Y167998D02*
X95498D01*
Y164999D01*
X97497Y165999D01*
X98497D01*
X99497Y164999D01*
Y163000D01*
X98497Y162000D01*
X96498D01*
X95498Y163000D01*
X116500Y189998D02*
Y185000D01*
X117500Y184000D01*
X119499D01*
X120499Y185000D01*
Y189998D01*
X126497Y184000D02*
X122498D01*
X126497Y187999D01*
Y188998D01*
X125497Y189998D01*
X123498D01*
X122498Y188998D01*
X15500Y157000D02*
Y162998D01*
X18499D01*
X19499Y161998D01*
Y159999D01*
X18499Y158999D01*
X15500D01*
X17499D02*
X19499Y157000D01*
X25497Y162998D02*
X23497Y161998D01*
X21498Y159999D01*
Y158000D01*
X22498Y157000D01*
X24497D01*
X25497Y158000D01*
Y158999D01*
X24497Y159999D01*
X21498D01*
X15500Y138500D02*
Y144498D01*
X18499D01*
X19499Y143498D01*
Y141499D01*
X18499Y140499D01*
X15500D01*
X17499D02*
X19499Y138500D01*
X21498Y143498D02*
X22498Y144498D01*
X24497D01*
X25497Y143498D01*
Y142499D01*
X24497Y141499D01*
X25497Y140499D01*
Y139500D01*
X24497Y138500D01*
X22498D01*
X21498Y139500D01*
Y140499D01*
X22498Y141499D01*
X21498Y142499D01*
Y143498D01*
X22498Y141499D02*
X24497D01*
X120000Y46500D02*
Y52498D01*
X122999D01*
X123999Y51498D01*
Y49499D01*
X122999Y48499D01*
X120000D01*
X121999D02*
X123999Y46500D01*
X125998D02*
X127997D01*
X126998D01*
Y52498D01*
X125998Y51498D01*
X133995Y46500D02*
Y52498D01*
X130996Y49499D01*
X134995D01*
X120500Y36500D02*
Y42498D01*
X123499D01*
X124499Y41498D01*
Y39499D01*
X123499Y38499D01*
X120500D01*
X122499D02*
X124499Y36500D01*
X126498D02*
X128497D01*
X127498D01*
Y42498D01*
X126498Y41498D01*
X135495Y36500D02*
X131496D01*
X135495Y40499D01*
Y41498D01*
X134495Y42498D01*
X132496D01*
X131496Y41498D01*
X109000Y17500D02*
Y23498D01*
X111999D01*
X112999Y22498D01*
Y20499D01*
X111999Y19499D01*
X109000D01*
X110999D02*
X112999Y17500D01*
X118997D02*
X114998D01*
X118997Y21499D01*
Y22498D01*
X117997Y23498D01*
X115998D01*
X114998Y22498D01*
X120996D02*
X121996Y23498D01*
X123995D01*
X124995Y22498D01*
Y18500D01*
X123995Y17500D01*
X121996D01*
X120996Y18500D01*
Y22498D01*
X137500Y28500D02*
Y34498D01*
X140499D01*
X141499Y33498D01*
Y31499D01*
X140499Y30499D01*
X137500D01*
X139499D02*
X141499Y28500D01*
X147497D02*
X143498D01*
X147497Y32499D01*
Y33498D01*
X146497Y34498D01*
X144498D01*
X143498Y33498D01*
X149496D02*
X150496Y34498D01*
X152495D01*
X153495Y33498D01*
Y32499D01*
X152495Y31499D01*
X151496D01*
X152495D01*
X153495Y30499D01*
Y29500D01*
X152495Y28500D01*
X150496D01*
X149496Y29500D01*
X158500Y28500D02*
Y34498D01*
X161499D01*
X162499Y33498D01*
Y31499D01*
X161499Y30499D01*
X158500D01*
X160499D02*
X162499Y28500D01*
X168497D02*
X164498D01*
X168497Y32499D01*
Y33498D01*
X167497Y34498D01*
X165498D01*
X164498Y33498D01*
X174495Y28500D02*
X170496D01*
X174495Y32499D01*
Y33498D01*
X173495Y34498D01*
X171496D01*
X170496Y33498D01*
X181500Y31500D02*
Y37498D01*
X184499D01*
X185499Y36498D01*
Y34499D01*
X184499Y33499D01*
X181500D01*
X183499D02*
X185499Y31500D01*
X190497D02*
Y37498D01*
X187498Y34499D01*
X191497D01*
X197495Y37498D02*
X195495Y36498D01*
X193496Y34499D01*
Y32500D01*
X194496Y31500D01*
X196495D01*
X197495Y32500D01*
Y33499D01*
X196495Y34499D01*
X193496D01*
X101502Y123999D02*
X100502Y122999D01*
Y121000D01*
X101502Y120000D01*
X105500D01*
X106500Y121000D01*
Y122999D01*
X105500Y123999D01*
X106500Y128997D02*
X100502D01*
X103501Y125998D01*
Y129997D01*
X89502Y76499D02*
X88502Y75499D01*
Y73500D01*
X89502Y72500D01*
X93500D01*
X94500Y73500D01*
Y75499D01*
X93500Y76499D01*
X88502Y82497D02*
Y78498D01*
X91501D01*
X90501Y80497D01*
Y81497D01*
X91501Y82497D01*
X93500D01*
X94500Y81497D01*
Y79498D01*
X93500Y78498D01*
X15000Y118500D02*
Y124498D01*
X17999D01*
X18999Y123498D01*
Y121499D01*
X17999Y120499D01*
X15000D01*
X16999D02*
X18999Y118500D01*
X20998D02*
X22997D01*
X21998D01*
Y124498D01*
X20998Y123498D01*
X25996D02*
X26996Y124498D01*
X28995D01*
X29995Y123498D01*
Y119500D01*
X28995Y118500D01*
X26996D01*
X25996Y119500D01*
Y123498D01*
X15500Y99500D02*
Y105498D01*
X18499D01*
X19499Y104498D01*
Y102499D01*
X18499Y101499D01*
X15500D01*
X17499D02*
X19499Y99500D01*
X21498D02*
X23497D01*
X22498D01*
Y105498D01*
X21498Y104498D01*
X26496Y105498D02*
X30495D01*
Y104498D01*
X26496Y100500D01*
Y99500D01*
X147000Y120998D02*
Y116000D01*
X148000Y115000D01*
X149999D01*
X150999Y116000D01*
Y120998D01*
X152998Y119998D02*
X153998Y120998D01*
X155997D01*
X156997Y119998D01*
Y118999D01*
X155997Y117999D01*
X154997D01*
X155997D01*
X156997Y116999D01*
Y116000D01*
X155997Y115000D01*
X153998D01*
X152998Y116000D01*
X97000Y95998D02*
Y94998D01*
X98999Y92999D01*
X100999Y94998D01*
Y95998D01*
X98999Y92999D02*
Y90000D01*
X102998D02*
X104997D01*
X103998D01*
Y95998D01*
X102998Y94998D01*
D25*
X208339Y166614D02*
G03*
X208339Y166614I-492J0D01*
G01*
X264106Y79154D02*
G03*
X264106Y79154I-492J0D01*
G01*
Y99154D02*
G03*
X264106Y99154I-492J0D01*
G01*
Y119153D02*
G03*
X264106Y119153I-492J0D01*
G01*
Y139154D02*
G03*
X264106Y139154I-492J0D01*
G01*
Y159153D02*
G03*
X264106Y159153I-492J0D01*
G01*
Y179154D02*
G03*
X264106Y179154I-492J0D01*
G01*
X263063Y17087D02*
G03*
X263063Y17087I-492J0D01*
G01*
X205878Y25846D02*
G03*
X205878Y25846I-492J0D01*
G01*
Y45847D02*
G03*
X205878Y45847I-492J0D01*
G01*
Y65847D02*
G03*
X205878Y65847I-492J0D01*
G01*
X39972Y170846D02*
G03*
X39972Y170846I-492J0D01*
G01*
Y150847D02*
G03*
X39972Y150847I-492J0D01*
G01*
Y130847D02*
G03*
X39972Y130847I-492J0D01*
G01*
X110878Y180847D02*
G03*
X110878Y180847I-492J0D01*
G01*
X50878Y190847D02*
G03*
X50878Y190847I-492J0D01*
G01*
X99106Y9154D02*
G03*
X99106Y9154I-492J0D01*
G01*
X188339Y186614D02*
G03*
X188339Y186614I-492J0D01*
G01*
X39972Y110846D02*
G03*
X39972Y110846I-492J0D01*
G01*
X99106Y49154D02*
G03*
X99106Y49154I-492J0D01*
G01*
Y29153D02*
G03*
X99106Y29153I-492J0D01*
G01*
X135676Y136346D02*
G03*
X135676Y136346I-492J0D01*
G01*
D26*
X204953Y156968D02*
G03*
X204953Y156968I-1181J0D01*
G01*
X255150Y83228D02*
G03*
X255150Y83228I-1181J0D01*
G01*
Y103228D02*
G03*
X255150Y103228I-1181J0D01*
G01*
Y123228D02*
G03*
X255150Y123228I-1181J0D01*
G01*
Y143228D02*
G03*
X255150Y143228I-1181J0D01*
G01*
Y163228D02*
G03*
X255150Y163228I-1181J0D01*
G01*
Y183228D02*
G03*
X255150Y183228I-1181J0D01*
G01*
X216213Y21772D02*
G03*
X216213Y21772I-1181J0D01*
G01*
Y41772D02*
G03*
X216213Y41772I-1181J0D01*
G01*
Y61772D02*
G03*
X216213Y61772I-1181J0D01*
G01*
X50307Y166772D02*
G03*
X50307Y166772I-1181J0D01*
G01*
Y146772D02*
G03*
X50307Y146772I-1181J0D01*
G01*
Y126772D02*
G03*
X50307Y126772I-1181J0D01*
G01*
X121213Y176772D02*
G03*
X121213Y176772I-1181J0D01*
G01*
X61213Y186772D02*
G03*
X61213Y186772I-1181J0D01*
G01*
X90150Y13228D02*
G03*
X90150Y13228I-1181J0D01*
G01*
X184953Y176969D02*
G03*
X184953Y176969I-1181J0D01*
G01*
X50307Y106772D02*
G03*
X50307Y106772I-1181J0D01*
G01*
X90150Y53228D02*
G03*
X90150Y53228I-1181J0D01*
G01*
Y33228D02*
G03*
X90150Y33228I-1181J0D01*
G01*
X146404Y132193D02*
G03*
X146404Y132193I-1181J0D01*
G01*
D27*
X167713Y188878D02*
X169287D01*
X167713Y186122D02*
X169287D01*
X36213Y191378D02*
X37787D01*
X36213Y188622D02*
X37787D01*
X132213Y192878D02*
X133787D01*
X132213Y190122D02*
X133787D01*
X201213Y181378D02*
X202787D01*
X201213Y178622D02*
X202787D01*
X196291Y160906D02*
X207709D01*
X196291Y149094D02*
X207709D01*
Y160906D01*
X196291Y149094D02*
Y160906D01*
X220622Y124213D02*
Y125787D01*
X223378Y124213D02*
Y125787D01*
X181213Y143622D02*
X182787D01*
X181213Y146378D02*
X182787D01*
X276213Y78622D02*
X277787D01*
X276213Y81378D02*
X277787D01*
X276213Y178622D02*
X277787D01*
X276213Y181378D02*
X277787D01*
X276213Y158622D02*
X277787D01*
X276213Y161378D02*
X277787D01*
X276213Y138622D02*
X277787D01*
X276213Y141378D02*
X277787D01*
X276213Y118622D02*
X277787D01*
X276213Y121378D02*
X277787D01*
X276213Y98622D02*
X277787D01*
X276213Y101378D02*
X277787D01*
X257906Y79291D02*
Y90709D01*
X246094Y79291D02*
Y90709D01*
Y79291D02*
X257906D01*
X246094Y90709D02*
X257906D01*
Y99291D02*
Y110709D01*
X246094Y99291D02*
Y110709D01*
Y99291D02*
X257906D01*
X246094Y110709D02*
X257906D01*
Y119291D02*
Y130709D01*
X246094Y119291D02*
Y130709D01*
Y119291D02*
X257906D01*
X246094Y130709D02*
X257906D01*
Y139291D02*
Y150709D01*
X246094Y139291D02*
Y150709D01*
Y139291D02*
X257906D01*
X246094Y150709D02*
X257906D01*
Y159291D02*
Y170709D01*
X246094Y159291D02*
Y170709D01*
Y159291D02*
X257906D01*
X246094Y170709D02*
X257906D01*
Y179291D02*
Y190709D01*
X246094Y179291D02*
Y190709D01*
Y179291D02*
X257906D01*
X246094Y190709D02*
X257906D01*
X220622Y184213D02*
Y185787D01*
X223378Y184213D02*
Y185787D01*
X220622Y164213D02*
Y165787D01*
X223378Y164213D02*
Y165787D01*
X220622Y144213D02*
Y145787D01*
X223378Y144213D02*
Y145787D01*
X201213Y123622D02*
X202787D01*
X201213Y126378D02*
X202787D01*
X220622Y84213D02*
Y85787D01*
X223378Y84213D02*
Y85787D01*
X220622Y104213D02*
Y105787D01*
X223378Y104213D02*
Y105787D01*
X281213Y6378D02*
X282787D01*
X281213Y3622D02*
X282787D01*
X281213Y13622D02*
X282787D01*
X281213Y16378D02*
X282787D01*
X266213Y15906D02*
X269756D01*
Y12756D02*
Y15906D01*
X266213Y4094D02*
X269756D01*
Y7244D01*
X273378Y64213D02*
Y65787D01*
X270622Y64213D02*
Y65787D01*
X240622Y64213D02*
Y65787D01*
X243378Y64213D02*
Y65787D01*
X251622Y44213D02*
Y45787D01*
X254378Y44213D02*
Y45787D01*
X246213Y16378D02*
X247787D01*
X246213Y13622D02*
X247787D01*
X211094Y14291D02*
Y25709D01*
X222906Y14291D02*
Y25709D01*
X211094D02*
X222906D01*
X211094Y14291D02*
X222906D01*
X211094Y34291D02*
Y45709D01*
X222906Y34291D02*
Y45709D01*
X211094D02*
X222906D01*
X211094Y34291D02*
X222906D01*
X211094Y54291D02*
Y65709D01*
X222906Y54291D02*
Y65709D01*
X211094D02*
X222906D01*
X211094Y54291D02*
X222906D01*
X191213Y43622D02*
X192787D01*
X191213Y46378D02*
X192787D01*
X191213Y63622D02*
X192787D01*
X191213Y66378D02*
X192787D01*
X45189Y159291D02*
Y170709D01*
X57000Y159291D02*
Y170709D01*
X45189D02*
X57000D01*
X45189Y159291D02*
X57000D01*
X45189Y139291D02*
Y150709D01*
X57000Y139291D02*
Y150709D01*
X45189D02*
X57000D01*
X45189Y139291D02*
X57000D01*
X45189Y119291D02*
Y130709D01*
X57000Y119291D02*
Y130709D01*
X45189D02*
X57000D01*
X45189Y119291D02*
X57000D01*
X84878Y124213D02*
Y125787D01*
X82122Y124213D02*
Y125787D01*
X84878Y144213D02*
Y145787D01*
X82122Y144213D02*
Y145787D01*
X84878Y164213D02*
Y165787D01*
X82122Y164213D02*
Y165787D01*
X93378Y184213D02*
Y185787D01*
X90622Y184213D02*
Y185787D01*
X158378Y174213D02*
Y175787D01*
X155622Y174213D02*
Y175787D01*
X116094Y169291D02*
Y180709D01*
X127906Y169291D02*
Y180709D01*
X116094D02*
X127906D01*
X116094Y169291D02*
X127906D01*
X56094Y179291D02*
Y190709D01*
X67906Y179291D02*
Y190709D01*
X56094D02*
X67906D01*
X56094Y179291D02*
X67906D01*
X20307Y171378D02*
X21882D01*
X20307Y168622D02*
X21882D01*
X20307Y151378D02*
X21882D01*
X20307Y148622D02*
X21882D01*
X92906Y9291D02*
Y20709D01*
X81094Y9291D02*
Y20709D01*
Y9291D02*
X92906D01*
X81094Y20709D02*
X92906D01*
X111213Y51378D02*
X112787D01*
X111213Y48622D02*
X112787D01*
X111213Y41378D02*
X112787D01*
X111213Y38622D02*
X112787D01*
X111213Y31378D02*
X112787D01*
X111213Y28622D02*
X112787D01*
X142713Y38122D02*
X144287D01*
X142713Y40878D02*
X144287D01*
X169213D02*
X170787D01*
X169213Y38122D02*
X170787D01*
X191213Y26378D02*
X192787D01*
X191213Y23622D02*
X192787D01*
X176291Y180906D02*
X187709D01*
X176291Y169094D02*
X187709D01*
Y180906D01*
X176291Y169094D02*
Y180906D01*
X17622Y33213D02*
Y34787D01*
X20378Y33213D02*
Y34787D01*
X17622Y54213D02*
Y55787D01*
X20378Y54213D02*
Y55787D01*
X273378Y44213D02*
Y45787D01*
X270622Y44213D02*
Y45787D01*
X283878Y24713D02*
Y26287D01*
X281122Y24713D02*
Y26287D01*
X45189Y99291D02*
Y110709D01*
X57000Y99291D02*
Y110709D01*
X45189D02*
X57000D01*
X45189Y99291D02*
X57000D01*
X92906Y49291D02*
Y60709D01*
X81094Y49291D02*
Y60709D01*
Y49291D02*
X92906D01*
X81094Y60709D02*
X92906D01*
X49622Y54213D02*
Y55787D01*
X52378Y54213D02*
Y55787D01*
X92906Y29291D02*
Y40709D01*
X81094Y29291D02*
Y40709D01*
Y29291D02*
X92906D01*
X81094Y40709D02*
X92906D01*
X240622Y24213D02*
Y25787D01*
X243378Y24213D02*
Y25787D01*
X141286Y64870D02*
Y136130D01*
X164908Y64870D02*
Y136130D01*
X141286D02*
X164908D01*
X141286Y64870D02*
X164908D01*
X84378Y103713D02*
Y105287D01*
X81622Y103713D02*
Y105287D01*
X20307Y111378D02*
X21882D01*
X20307Y108622D02*
X21882D01*
X20307Y131378D02*
X21882D01*
X20307Y128622D02*
X21882D01*
X17622Y14213D02*
Y15787D01*
X20378Y14213D02*
Y15787D01*
X49622Y14213D02*
Y15787D01*
X52378Y14213D02*
Y15787D01*
X49622Y34213D02*
Y35787D01*
X52378Y34213D02*
Y35787D01*
D28*
X141001Y174999D02*
X140501Y174499D01*
Y173500D01*
X141001Y173000D01*
X143000D01*
X143500Y173500D01*
Y174499D01*
X143000Y174999D01*
X143500Y177998D02*
Y175999D01*
X141501Y177998D01*
X141001D01*
X140501Y177499D01*
Y176499D01*
X141001Y175999D01*
X164500Y191500D02*
Y194499D01*
X165999D01*
X166499Y193999D01*
Y192999D01*
X165999Y192500D01*
X164500D01*
X165500D02*
X166499Y191500D01*
X167499Y193999D02*
X167999Y194499D01*
X168999D01*
X169498Y193999D01*
Y193499D01*
X168999Y192999D01*
X168499D01*
X168999D01*
X169498Y192500D01*
Y192000D01*
X168999Y191500D01*
X167999D01*
X167499Y192000D01*
X170498D02*
X170998Y191500D01*
X171998D01*
X172497Y192000D01*
Y193999D01*
X171998Y194499D01*
X170998D01*
X170498Y193999D01*
Y193499D01*
X170998Y192999D01*
X172497D01*
X36000Y181500D02*
Y184499D01*
X37499D01*
X37999Y183999D01*
Y183000D01*
X37499Y182500D01*
X36000D01*
X37000D02*
X37999Y181500D01*
X38999Y183999D02*
X39499Y184499D01*
X40499D01*
X40998Y183999D01*
Y183499D01*
X40499Y183000D01*
X39999D01*
X40499D01*
X40998Y182500D01*
Y182000D01*
X40499Y181500D01*
X39499D01*
X38999Y182000D01*
X131500Y184000D02*
Y186999D01*
X133000D01*
X133499Y186499D01*
Y185500D01*
X133000Y185000D01*
X131500D01*
X132500D02*
X133499Y184000D01*
X135999D02*
Y186999D01*
X134499Y185500D01*
X136498D01*
X201500Y184500D02*
Y187499D01*
X202999D01*
X203499Y186999D01*
Y186000D01*
X202999Y185500D01*
X201500D01*
X202500D02*
X203499Y184500D01*
X204499Y186999D02*
X204999Y187499D01*
X205998D01*
X206498Y186999D01*
Y186499D01*
X205998Y186000D01*
X205499D01*
X205998D01*
X206498Y185500D01*
Y185000D01*
X205998Y184500D01*
X204999D01*
X204499Y185000D01*
X207498Y186999D02*
X207998Y187499D01*
X208998D01*
X209497Y186999D01*
Y186499D01*
X208998Y186000D01*
X208498D01*
X208998D01*
X209497Y185500D01*
Y185000D01*
X208998Y184500D01*
X207998D01*
X207498Y185000D01*
X210501Y152500D02*
X213000D01*
X213500Y153000D01*
Y153999D01*
X213000Y154499D01*
X210501D01*
X213500Y155499D02*
Y156499D01*
Y155999D01*
X210501D01*
X211001Y155499D01*
X213500Y159498D02*
X210501D01*
X212000Y157998D01*
Y159998D01*
X226001Y122999D02*
X225501Y122500D01*
Y121500D01*
X226001Y121000D01*
X228000D01*
X228500Y121500D01*
Y122500D01*
X228000Y122999D01*
X228500Y125998D02*
Y123999D01*
X226501Y125998D01*
X226001D01*
X225501Y125499D01*
Y124499D01*
X226001Y123999D01*
X228500Y128997D02*
Y126998D01*
X226501Y128997D01*
X226001D01*
X225501Y128498D01*
Y127498D01*
X226001Y126998D01*
Y142999D02*
X225501Y142499D01*
Y141500D01*
X226001Y141000D01*
X228000D01*
X228500Y141500D01*
Y142499D01*
X228000Y142999D01*
X228500Y145998D02*
Y143999D01*
X226501Y145998D01*
X226001D01*
X225501Y145499D01*
Y144499D01*
X226001Y143999D01*
X225501Y148997D02*
X226001Y147998D01*
X227000Y146998D01*
X228000D01*
X228500Y147498D01*
Y148498D01*
X228000Y148997D01*
X227500D01*
X227000Y148498D01*
Y146998D01*
X226001Y163499D02*
X225501Y162999D01*
Y162000D01*
X226001Y161500D01*
X228000D01*
X228500Y162000D01*
Y162999D01*
X228000Y163499D01*
X228500Y166498D02*
Y164499D01*
X226501Y166498D01*
X226001D01*
X225501Y165999D01*
Y164999D01*
X226001Y164499D01*
Y167498D02*
X225501Y167998D01*
Y168998D01*
X226001Y169497D01*
X226501D01*
X227000Y168998D01*
X227500Y169497D01*
X228000D01*
X228500Y168998D01*
Y167998D01*
X228000Y167498D01*
X227500D01*
X227000Y167998D01*
X226501Y167498D01*
X226001D01*
X227000Y167998D02*
Y168998D01*
X217500Y121500D02*
X214501D01*
Y123000D01*
X215001Y123499D01*
X216001D01*
X216500Y123000D01*
Y121500D01*
Y122500D02*
X217500Y123499D01*
X215001Y124499D02*
X214501Y124999D01*
Y125999D01*
X215001Y126498D01*
X215501D01*
X216001Y125999D01*
Y125499D01*
Y125999D01*
X216500Y126498D01*
X217000D01*
X217500Y125999D01*
Y124999D01*
X217000Y124499D01*
X217500Y129497D02*
Y127498D01*
X215501Y129497D01*
X215001D01*
X214501Y128998D01*
Y127998D01*
X215001Y127498D01*
X165000Y143000D02*
Y145999D01*
X166499D01*
X166999Y145499D01*
Y144500D01*
X166499Y144000D01*
X165000D01*
X166000D02*
X166999Y143000D01*
X167999Y145499D02*
X168499Y145999D01*
X169499D01*
X169998Y145499D01*
Y144999D01*
X169499Y144500D01*
X168999D01*
X169499D01*
X169998Y144000D01*
Y143500D01*
X169499Y143000D01*
X168499D01*
X167999Y143500D01*
X170998Y145999D02*
X172997D01*
Y145499D01*
X170998Y143500D01*
Y143000D01*
X166999Y156499D02*
X166499Y156999D01*
X165500D01*
X165000Y156499D01*
Y154500D01*
X165500Y154000D01*
X166499D01*
X166999Y154500D01*
X169998Y154000D02*
X167999D01*
X169998Y155999D01*
Y156499D01*
X169499Y156999D01*
X168499D01*
X167999Y156499D01*
X172997Y156999D02*
X170998D01*
Y155499D01*
X171998Y155999D01*
X172498D01*
X172997Y155499D01*
Y154500D01*
X172498Y154000D01*
X171498D01*
X170998Y154500D01*
X251000Y96999D02*
Y94500D01*
X251500Y94000D01*
X252500D01*
X252999Y94500D01*
Y96999D01*
X253999Y94000D02*
X254999D01*
X254499D01*
Y96999D01*
X253999Y96499D01*
X256498Y94000D02*
X257498D01*
X256998D01*
Y96999D01*
X256498Y96499D01*
X249500Y116499D02*
Y114000D01*
X250000Y113500D01*
X250999D01*
X251499Y114000D01*
Y116499D01*
X252499Y113500D02*
X253499D01*
X252999D01*
Y116499D01*
X252499Y115999D01*
X256998Y113500D02*
X254998D01*
X256998Y115499D01*
Y115999D01*
X256498Y116499D01*
X255498D01*
X254998Y115999D01*
X249500Y136499D02*
Y134000D01*
X250000Y133500D01*
X250999D01*
X251499Y134000D01*
Y136499D01*
X252499Y133500D02*
X253499D01*
X252999D01*
Y136499D01*
X252499Y135999D01*
X256998Y136499D02*
X254998D01*
Y135000D01*
X255998Y135499D01*
X256498D01*
X256998Y135000D01*
Y134000D01*
X256498Y133500D01*
X255498D01*
X254998Y134000D01*
X249500Y156499D02*
Y154000D01*
X250000Y153500D01*
X250999D01*
X251499Y154000D01*
Y156499D01*
X252499Y153500D02*
X253499D01*
X252999D01*
Y156499D01*
X252499Y155999D01*
X254998D02*
X255498Y156499D01*
X256498D01*
X256998Y155999D01*
Y155499D01*
X256498Y154999D01*
X256998Y154500D01*
Y154000D01*
X256498Y153500D01*
X255498D01*
X254998Y154000D01*
Y154500D01*
X255498Y154999D01*
X254998Y155499D01*
Y155999D01*
X255498Y154999D02*
X256498D01*
X251000Y175999D02*
Y173500D01*
X251500Y173000D01*
X252500D01*
X252999Y173500D01*
Y175999D01*
X253999Y173000D02*
X254999D01*
X254499D01*
Y175999D01*
X253999Y175499D01*
X256498Y173500D02*
X256998Y173000D01*
X257998D01*
X258498Y173500D01*
Y175499D01*
X257998Y175999D01*
X256998D01*
X256498Y175499D01*
Y174999D01*
X256998Y174499D01*
X258498D01*
X234000Y176499D02*
Y174000D01*
X234500Y173500D01*
X235500D01*
X235999Y174000D01*
Y176499D01*
X238998Y173500D02*
X236999D01*
X238998Y175499D01*
Y175999D01*
X238498Y176499D01*
X237499D01*
X236999Y175999D01*
X239998Y173500D02*
X240998D01*
X240498D01*
Y176499D01*
X239998Y175999D01*
X217500Y161000D02*
X214501D01*
Y162499D01*
X215001Y162999D01*
X216001D01*
X216500Y162499D01*
Y161000D01*
Y162000D02*
X217500Y162999D01*
Y165499D02*
X214501D01*
X216001Y163999D01*
Y165998D01*
X217500Y168997D02*
Y166998D01*
X215501Y168997D01*
X215001D01*
X214501Y168498D01*
Y167498D01*
X215001Y166998D01*
X217500Y141000D02*
X214501D01*
Y142499D01*
X215001Y142999D01*
X216001D01*
X216500Y142499D01*
Y141000D01*
Y142000D02*
X217500Y142999D01*
X215001Y143999D02*
X214501Y144499D01*
Y145499D01*
X215001Y145998D01*
X215501D01*
X216001Y145499D01*
Y144999D01*
Y145499D01*
X216500Y145998D01*
X217000D01*
X217500Y145499D01*
Y144499D01*
X217000Y143999D01*
X215001Y146998D02*
X214501Y147498D01*
Y148498D01*
X215001Y148997D01*
X215501D01*
X216001Y148498D01*
X216500Y148997D01*
X217000D01*
X217500Y148498D01*
Y147498D01*
X217000Y146998D01*
X216500D01*
X216001Y147498D01*
X215501Y146998D01*
X215001D01*
X216001Y147498D02*
Y148498D01*
X188999Y135999D02*
X188499Y136499D01*
X187500D01*
X187000Y135999D01*
Y134000D01*
X187500Y133500D01*
X188499D01*
X188999Y134000D01*
X191998Y133500D02*
X189999D01*
X191998Y135499D01*
Y135999D01*
X191499Y136499D01*
X190499D01*
X189999Y135999D01*
X192998Y133500D02*
X193998D01*
X193498D01*
Y136499D01*
X192998Y135999D01*
X186000Y123500D02*
Y126499D01*
X187499D01*
X187999Y125999D01*
Y124999D01*
X187499Y124500D01*
X186000D01*
X187000D02*
X187999Y123500D01*
X188999Y125999D02*
X189499Y126499D01*
X190499D01*
X190998Y125999D01*
Y125499D01*
X190499Y124999D01*
X189999D01*
X190499D01*
X190998Y124500D01*
Y124000D01*
X190499Y123500D01*
X189499D01*
X188999Y124000D01*
X191998Y123500D02*
X192998D01*
X192498D01*
Y126499D01*
X191998Y125999D01*
X226001Y83499D02*
X225501Y82999D01*
Y82000D01*
X226001Y81500D01*
X228000D01*
X228500Y82000D01*
Y82999D01*
X228000Y83499D01*
X228500Y84499D02*
Y85499D01*
Y84999D01*
X225501D01*
X226001Y84499D01*
X225501Y88998D02*
X226001Y87998D01*
X227000Y86998D01*
X228000D01*
X228500Y87498D01*
Y88498D01*
X228000Y88998D01*
X227500D01*
X227000Y88498D01*
Y86998D01*
X217500Y81500D02*
X214501D01*
Y82999D01*
X215001Y83499D01*
X216001D01*
X216500Y82999D01*
Y81500D01*
Y82500D02*
X217500Y83499D01*
Y86498D02*
Y84499D01*
X215501Y86498D01*
X215001D01*
X214501Y85999D01*
Y84999D01*
X215001Y84499D01*
X217500Y87498D02*
Y88498D01*
Y87998D01*
X214501D01*
X215001Y87498D01*
X226001Y103499D02*
X225501Y102999D01*
Y102000D01*
X226001Y101500D01*
X228000D01*
X228500Y102000D01*
Y102999D01*
X228000Y103499D01*
X228500Y104499D02*
Y105499D01*
Y104999D01*
X225501D01*
X226001Y104499D01*
X228000Y106998D02*
X228500Y107498D01*
Y108498D01*
X228000Y108998D01*
X226001D01*
X225501Y108498D01*
Y107498D01*
X226001Y106998D01*
X226501D01*
X227000Y107498D01*
Y108998D01*
X218000Y101500D02*
X215001D01*
Y102999D01*
X215501Y103499D01*
X216500D01*
X217000Y102999D01*
Y101500D01*
Y102500D02*
X218000Y103499D01*
Y106498D02*
Y104499D01*
X216001Y106498D01*
X215501D01*
X215001Y105999D01*
Y104999D01*
X215501Y104499D01*
X215001Y109497D02*
X215501Y108498D01*
X216500Y107498D01*
X217500D01*
X218000Y107998D01*
Y108998D01*
X217500Y109497D01*
X217000D01*
X216500Y108998D01*
Y107498D01*
X289500Y2500D02*
Y5499D01*
X291000D01*
X291499Y4999D01*
Y3999D01*
X291000Y3500D01*
X289500D01*
X290500D02*
X291499Y2500D01*
X294498Y5499D02*
X292499D01*
Y3999D01*
X293499Y4499D01*
X293999D01*
X294498Y3999D01*
Y3000D01*
X293999Y2500D01*
X292999D01*
X292499Y3000D01*
X295498Y2500D02*
X296498D01*
X295998D01*
Y5499D01*
X295498Y4999D01*
X278000Y8500D02*
Y11499D01*
X279500D01*
X279999Y10999D01*
Y10000D01*
X279500Y9500D01*
X278000D01*
X279000D02*
X279999Y8500D01*
X282998Y11499D02*
X280999D01*
Y10000D01*
X281999Y10499D01*
X282499D01*
X282998Y10000D01*
Y9000D01*
X282499Y8500D01*
X281499D01*
X280999Y9000D01*
X283998Y10999D02*
X284498Y11499D01*
X285498D01*
X285997Y10999D01*
Y9000D01*
X285498Y8500D01*
X284498D01*
X283998Y9000D01*
Y10999D01*
X276001Y62999D02*
X275501Y62499D01*
Y61500D01*
X276001Y61000D01*
X278000D01*
X278500Y61500D01*
Y62499D01*
X278000Y62999D01*
X278500Y63999D02*
Y64999D01*
Y64499D01*
X275501D01*
X276001Y63999D01*
Y66498D02*
X275501Y66998D01*
Y67998D01*
X276001Y68498D01*
X276501D01*
X277000Y67998D01*
X277500Y68498D01*
X278000D01*
X278500Y67998D01*
Y66998D01*
X278000Y66498D01*
X277500D01*
X277000Y66998D01*
X276501Y66498D01*
X276001D01*
X277000Y66998D02*
Y67998D01*
X269000Y62000D02*
X266001D01*
Y63499D01*
X266501Y63999D01*
X267500D01*
X268000Y63499D01*
Y62000D01*
Y63000D02*
X269000Y63999D01*
Y66998D02*
Y64999D01*
X267001Y66998D01*
X266501D01*
X266001Y66499D01*
Y65499D01*
X266501Y64999D01*
X266001Y67998D02*
Y69997D01*
X266501D01*
X268500Y67998D01*
X269000D01*
X238500Y61000D02*
X235501D01*
Y62499D01*
X236001Y62999D01*
X237000D01*
X237500Y62499D01*
Y61000D01*
Y62000D02*
X238500Y62999D01*
X236001Y63999D02*
X235501Y64499D01*
Y65499D01*
X236001Y65998D01*
X236501D01*
X237000Y65499D01*
Y64999D01*
Y65499D01*
X237500Y65998D01*
X238000D01*
X238500Y65499D01*
Y64499D01*
X238000Y63999D01*
X236001Y66998D02*
X235501Y67498D01*
Y68498D01*
X236001Y68997D01*
X238000D01*
X238500Y68498D01*
Y67498D01*
X238000Y66998D01*
X236001D01*
X249500Y41500D02*
X246501D01*
Y43000D01*
X247001Y43499D01*
X248001D01*
X248500Y43000D01*
Y41500D01*
Y42500D02*
X249500Y43499D01*
Y45999D02*
X246501D01*
X248001Y44499D01*
Y46498D01*
X247001Y47498D02*
X246501Y47998D01*
Y48998D01*
X247001Y49497D01*
X249000D01*
X249500Y48998D01*
Y47998D01*
X249000Y47498D01*
X247001D01*
X236001Y43499D02*
X235501Y43000D01*
Y42000D01*
X236001Y41500D01*
X238000D01*
X238500Y42000D01*
Y43000D01*
X238000Y43499D01*
X238500Y46498D02*
Y44499D01*
X236501Y46498D01*
X236001D01*
X235501Y45999D01*
Y44999D01*
X236001Y44499D01*
X238500Y48998D02*
X235501D01*
X237000Y47498D01*
Y49497D01*
X212000Y31499D02*
Y29000D01*
X212500Y28500D01*
X213499D01*
X213999Y29000D01*
Y31499D01*
X216998Y28500D02*
X214999D01*
X216998Y30499D01*
Y30999D01*
X216498Y31499D01*
X215499D01*
X214999Y30999D01*
X217998D02*
X218498Y31499D01*
X219498D01*
X219997Y30999D01*
Y29000D01*
X219498Y28500D01*
X218498D01*
X217998Y29000D01*
Y30999D01*
X212500Y51999D02*
Y49500D01*
X213000Y49000D01*
X214000D01*
X214499Y49500D01*
Y51999D01*
X215499Y49000D02*
X216499D01*
X215999D01*
Y51999D01*
X215499Y51499D01*
X219998Y51999D02*
X218998Y51499D01*
X217998Y50499D01*
Y49500D01*
X218498Y49000D01*
X219498D01*
X219998Y49500D01*
Y50000D01*
X219498Y50499D01*
X217998D01*
X212500Y72499D02*
Y70000D01*
X213000Y69500D01*
X214000D01*
X214499Y70000D01*
Y72499D01*
X215499Y69500D02*
X216499D01*
X215999D01*
Y72499D01*
X215499Y71999D01*
X217998D02*
X218498Y72499D01*
X219498D01*
X219998Y71999D01*
Y71499D01*
X219498Y70999D01*
X218998D01*
X219498D01*
X219998Y70500D01*
Y70000D01*
X219498Y69500D01*
X218498D01*
X217998Y70000D01*
X46000Y175499D02*
Y173000D01*
X46500Y172500D01*
X47499D01*
X47999Y173000D01*
Y175499D01*
X50499Y172500D02*
Y175499D01*
X48999Y174000D01*
X50998D01*
X45000Y156999D02*
Y154500D01*
X45500Y154000D01*
X46499D01*
X46999Y154500D01*
Y156999D01*
X49998D02*
X47999D01*
Y155499D01*
X48999Y155999D01*
X49499D01*
X49998Y155499D01*
Y154500D01*
X49499Y154000D01*
X48499D01*
X47999Y154500D01*
X45500Y136499D02*
Y134000D01*
X46000Y133500D01*
X46999D01*
X47499Y134000D01*
Y136499D01*
X50498D02*
X49499Y135999D01*
X48499Y135000D01*
Y134000D01*
X48999Y133500D01*
X49999D01*
X50498Y134000D01*
Y134500D01*
X49999Y135000D01*
X48499D01*
X76501Y124999D02*
X76001Y124499D01*
Y123500D01*
X76501Y123000D01*
X78500D01*
X79000Y123500D01*
Y124499D01*
X78500Y124999D01*
X76501Y125999D02*
X76001Y126499D01*
Y127499D01*
X76501Y127998D01*
X77001D01*
X77500Y127499D01*
X78000Y127998D01*
X78500D01*
X79000Y127499D01*
Y126499D01*
X78500Y125999D01*
X78000D01*
X77500Y126499D01*
X77001Y125999D01*
X76501D01*
X77500Y126499D02*
Y127499D01*
X76501Y144499D02*
X76001Y144000D01*
Y143000D01*
X76501Y142500D01*
X78500D01*
X79000Y143000D01*
Y144000D01*
X78500Y144499D01*
X76001Y147498D02*
X76501Y146499D01*
X77500Y145499D01*
X78500D01*
X79000Y145999D01*
Y146999D01*
X78500Y147498D01*
X78000D01*
X77500Y146999D01*
Y145499D01*
X90500Y127500D02*
X87501D01*
Y128999D01*
X88001Y129499D01*
X89000D01*
X89500Y128999D01*
Y127500D01*
Y128500D02*
X90500Y129499D01*
X90000Y130499D02*
X90500Y130999D01*
Y131999D01*
X90000Y132498D01*
X88001D01*
X87501Y131999D01*
Y130999D01*
X88001Y130499D01*
X88501D01*
X89000Y130999D01*
Y132498D01*
X76501Y164499D02*
X76001Y163999D01*
Y163000D01*
X76501Y162500D01*
X78500D01*
X79000Y163000D01*
Y163999D01*
X78500Y164499D01*
X76501Y165499D02*
X76001Y165999D01*
Y166999D01*
X76501Y167498D01*
X77001D01*
X77500Y166999D01*
Y166499D01*
Y166999D01*
X78000Y167498D01*
X78500D01*
X79000Y166999D01*
Y165999D01*
X78500Y165499D01*
X80501Y174999D02*
X80001Y174499D01*
Y173500D01*
X80501Y173000D01*
X82500D01*
X83000Y173500D01*
Y174499D01*
X82500Y174999D01*
X83000Y175999D02*
Y176999D01*
Y176499D01*
X80001D01*
X80501Y175999D01*
X93000Y173500D02*
X90001D01*
Y174999D01*
X90501Y175499D01*
X91501D01*
X92000Y174999D01*
Y173500D01*
Y174500D02*
X93000Y175499D01*
Y176499D02*
Y177499D01*
Y176999D01*
X90001D01*
X90501Y176499D01*
X164500Y174500D02*
X161501D01*
Y175999D01*
X162001Y176499D01*
X163001D01*
X163500Y175999D01*
Y174500D01*
Y175500D02*
X164500Y176499D01*
Y179498D02*
Y177499D01*
X162501Y179498D01*
X162001D01*
X161501Y178999D01*
Y177999D01*
X162001Y177499D01*
X61500Y175499D02*
Y173000D01*
X62000Y172500D01*
X62999D01*
X63499Y173000D01*
Y175499D01*
X64499Y172500D02*
X65499D01*
X64999D01*
Y175499D01*
X64499Y174999D01*
X81500Y46499D02*
Y44000D01*
X82000Y43500D01*
X82999D01*
X83499Y44000D01*
Y46499D01*
X84499Y43500D02*
X85499D01*
X84999D01*
Y46499D01*
X84499Y45999D01*
X86998D02*
X87498Y46499D01*
X88498D01*
X88998Y45999D01*
Y44000D01*
X88498Y43500D01*
X87498D01*
X86998Y44000D01*
Y45999D01*
X35001Y34499D02*
X34501Y33999D01*
Y33000D01*
X35001Y32500D01*
X37000D01*
X37500Y33000D01*
Y33999D01*
X37000Y34499D01*
X34501Y35499D02*
Y37498D01*
X35001D01*
X37000Y35499D01*
X37500D01*
X35001Y54499D02*
X34501Y54000D01*
Y53000D01*
X35001Y52500D01*
X37000D01*
X37500Y53000D01*
Y54000D01*
X37000Y54499D01*
Y55499D02*
X37500Y55999D01*
Y56999D01*
X37000Y57498D01*
X35001D01*
X34501Y56999D01*
Y55999D01*
X35001Y55499D01*
X35501D01*
X36000Y55999D01*
Y57498D01*
X66001Y33499D02*
X65501Y33000D01*
Y32000D01*
X66001Y31500D01*
X68000D01*
X68500Y32000D01*
Y33000D01*
X68000Y33499D01*
X68500Y34499D02*
Y35499D01*
Y34999D01*
X65501D01*
X66001Y34499D01*
X68500Y38998D02*
Y36998D01*
X66501Y38998D01*
X66001D01*
X65501Y38498D01*
Y37498D01*
X66001Y36998D01*
X66501Y52999D02*
X66001Y52500D01*
Y51500D01*
X66501Y51000D01*
X68500D01*
X69000Y51500D01*
Y52500D01*
X68500Y52999D01*
X69000Y53999D02*
Y54999D01*
Y54499D01*
X66001D01*
X66501Y53999D01*
Y56498D02*
X66001Y56998D01*
Y57998D01*
X66501Y58498D01*
X67001D01*
X67501Y57998D01*
Y57498D01*
Y57998D01*
X68000Y58498D01*
X68500D01*
X69000Y57998D01*
Y56998D01*
X68500Y56498D01*
X71001Y90499D02*
X70501Y90000D01*
Y89000D01*
X71001Y88500D01*
X73000D01*
X73500Y89000D01*
Y90000D01*
X73000Y90499D01*
X73500Y91499D02*
Y92499D01*
Y91999D01*
X70501D01*
X71001Y91499D01*
X73500Y95498D02*
X70501D01*
X72000Y93998D01*
Y95998D01*
X35001Y12999D02*
X34501Y12500D01*
Y11500D01*
X35001Y11000D01*
X37000D01*
X37500Y11500D01*
Y12500D01*
X37000Y12999D01*
X37500Y13999D02*
Y14999D01*
Y14499D01*
X34501D01*
X35001Y13999D01*
X34501Y18498D02*
Y16498D01*
X36000D01*
X35501Y17498D01*
Y17998D01*
X36000Y18498D01*
X37000D01*
X37500Y17998D01*
Y16998D01*
X37000Y16498D01*
X65501Y13999D02*
X65001Y13499D01*
Y12500D01*
X65501Y12000D01*
X67500D01*
X68000Y12500D01*
Y13499D01*
X67500Y13999D01*
X68000Y14999D02*
Y15999D01*
Y15499D01*
X65001D01*
X65501Y14999D01*
X65001Y17498D02*
Y19498D01*
X65501D01*
X67500Y17498D01*
X68000D01*
X247501Y62999D02*
X247001Y62499D01*
Y61500D01*
X247501Y61000D01*
X249500D01*
X250000Y61500D01*
Y62499D01*
X249500Y62999D01*
X250000Y65998D02*
Y63999D01*
X248001Y65998D01*
X247501D01*
X247001Y65499D01*
Y64499D01*
X247501Y63999D01*
Y66998D02*
X247001Y67498D01*
Y68498D01*
X247501Y68997D01*
X249500D01*
X250000Y68498D01*
Y67498D01*
X249500Y66998D01*
X247501D01*
X276001Y42999D02*
X275501Y42500D01*
Y41500D01*
X276001Y41000D01*
X278000D01*
X278500Y41500D01*
Y42500D01*
X278000Y42999D01*
X278500Y45998D02*
Y43999D01*
X276501Y45998D01*
X276001D01*
X275501Y45499D01*
Y44499D01*
X276001Y43999D01*
Y46998D02*
X275501Y47498D01*
Y48498D01*
X276001Y48997D01*
X276501D01*
X277000Y48498D01*
Y47998D01*
Y48498D01*
X277500Y48997D01*
X278000D01*
X278500Y48498D01*
Y47498D01*
X278000Y46998D01*
X266501Y24499D02*
X266001Y24000D01*
Y23000D01*
X266501Y22500D01*
X268500D01*
X269000Y23000D01*
Y24000D01*
X268500Y24499D01*
X269000Y27498D02*
Y25499D01*
X267001Y27498D01*
X266501D01*
X266001Y26999D01*
Y25999D01*
X266501Y25499D01*
X266001Y28498D02*
Y30497D01*
X266501D01*
X268500Y28498D01*
X269000D01*
X247001Y23499D02*
X246501Y22999D01*
Y22000D01*
X247001Y21500D01*
X249000D01*
X249500Y22000D01*
Y22999D01*
X249000Y23499D01*
X247001Y24499D02*
X246501Y24999D01*
Y25999D01*
X247001Y26498D01*
X247501D01*
X248001Y25999D01*
Y25499D01*
Y25999D01*
X248500Y26498D01*
X249000D01*
X249500Y25999D01*
Y24999D01*
X249000Y24499D01*
X247001Y27498D02*
X246501Y27998D01*
Y28998D01*
X247001Y29497D01*
X249000D01*
X249500Y28998D01*
Y27998D01*
X249000Y27498D01*
X247001D01*
X26000Y31000D02*
X23001D01*
Y32500D01*
X23501Y32999D01*
X24500D01*
X25000Y32500D01*
Y31000D01*
Y32000D02*
X26000Y32999D01*
Y33999D02*
Y34999D01*
Y34499D01*
X23001D01*
X23501Y33999D01*
X26000Y36498D02*
Y37498D01*
Y36998D01*
X23001D01*
X23501Y36498D01*
X26000Y50500D02*
X23001D01*
Y51999D01*
X23501Y52499D01*
X24500D01*
X25000Y51999D01*
Y50500D01*
Y51500D02*
X26000Y52499D01*
Y53499D02*
Y54499D01*
Y53999D01*
X23001D01*
X23501Y53499D01*
Y55998D02*
X23001Y56498D01*
Y57498D01*
X23501Y57998D01*
X24001D01*
X24500Y57498D01*
Y56998D01*
Y57498D01*
X25000Y57998D01*
X25500D01*
X26000Y57498D01*
Y56498D01*
X25500Y55998D01*
X84500Y87500D02*
X81501D01*
Y88999D01*
X82001Y89499D01*
X83000D01*
X83500Y88999D01*
Y87500D01*
Y88500D02*
X84500Y89499D01*
Y90499D02*
Y91499D01*
Y90999D01*
X81501D01*
X82001Y90499D01*
X81501Y94998D02*
Y92998D01*
X83000D01*
X82501Y93998D01*
Y94498D01*
X83000Y94998D01*
X84000D01*
X84500Y94498D01*
Y93498D01*
X84000Y92998D01*
X58000Y31000D02*
X55001D01*
Y32500D01*
X55501Y32999D01*
X56501D01*
X57000Y32500D01*
Y31000D01*
Y32000D02*
X58000Y32999D01*
Y33999D02*
Y34999D01*
Y34499D01*
X55001D01*
X55501Y33999D01*
X55001Y38498D02*
X55501Y37498D01*
X56501Y36498D01*
X57500D01*
X58000Y36998D01*
Y37998D01*
X57500Y38498D01*
X57000D01*
X56501Y37998D01*
Y36498D01*
X58000Y51000D02*
X55001D01*
Y52500D01*
X55501Y52999D01*
X56501D01*
X57000Y52500D01*
Y51000D01*
Y52000D02*
X58000Y52999D01*
Y53999D02*
Y54999D01*
Y54499D01*
X55001D01*
X55501Y53999D01*
Y56498D02*
X55001Y56998D01*
Y57998D01*
X55501Y58498D01*
X56001D01*
X56501Y57998D01*
X57000Y58498D01*
X57500D01*
X58000Y57998D01*
Y56998D01*
X57500Y56498D01*
X57000D01*
X56501Y56998D01*
X56001Y56498D01*
X55501D01*
X56501Y56998D02*
Y57998D01*
X26000Y11500D02*
X23001D01*
Y13000D01*
X23501Y13499D01*
X24500D01*
X25000Y13000D01*
Y11500D01*
Y12500D02*
X26000Y13499D01*
Y14499D02*
Y15499D01*
Y14999D01*
X23001D01*
X23501Y14499D01*
X25500Y16998D02*
X26000Y17498D01*
Y18498D01*
X25500Y18998D01*
X23501D01*
X23001Y18498D01*
Y17498D01*
X23501Y16998D01*
X24001D01*
X24500Y17498D01*
Y18998D01*
X58000Y11500D02*
X55001D01*
Y13000D01*
X55501Y13499D01*
X56501D01*
X57000Y13000D01*
Y11500D01*
Y12500D02*
X58000Y13499D01*
Y16498D02*
Y14499D01*
X56001Y16498D01*
X55501D01*
X55001Y15999D01*
Y14999D01*
X55501Y14499D01*
X55001Y19497D02*
Y17498D01*
X56501D01*
X56001Y18498D01*
Y18998D01*
X56501Y19497D01*
X57500D01*
X58000Y18998D01*
Y17998D01*
X57500Y17498D01*
X269000Y40500D02*
X266001D01*
Y42000D01*
X266501Y42499D01*
X267500D01*
X268000Y42000D01*
Y40500D01*
Y41500D02*
X269000Y42499D01*
X266501Y43499D02*
X266001Y43999D01*
Y44999D01*
X266501Y45498D01*
X267001D01*
X267500Y44999D01*
Y44499D01*
Y44999D01*
X268000Y45498D01*
X268500D01*
X269000Y44999D01*
Y43999D01*
X268500Y43499D01*
X266001Y48497D02*
Y46498D01*
X267500D01*
X267001Y47498D01*
Y47998D01*
X267500Y48497D01*
X268500D01*
X269000Y47998D01*
Y46998D01*
X268500Y46498D01*
X279500Y21000D02*
X276501D01*
Y22500D01*
X277001Y22999D01*
X278000D01*
X278500Y22500D01*
Y21000D01*
Y22000D02*
X279500Y22999D01*
Y25499D02*
X276501D01*
X278000Y23999D01*
Y25998D01*
X277001Y26998D02*
X276501Y27498D01*
Y28498D01*
X277001Y28997D01*
X277501D01*
X278000Y28498D01*
Y27998D01*
Y28498D01*
X278500Y28997D01*
X279000D01*
X279500Y28498D01*
Y27498D01*
X279000Y26998D01*
X238000Y21500D02*
X235001D01*
Y22999D01*
X235501Y23499D01*
X236501D01*
X237000Y22999D01*
Y21500D01*
Y22500D02*
X238000Y23499D01*
Y25999D02*
X235001D01*
X236501Y24499D01*
Y26498D01*
X235501Y27498D02*
X235001Y27998D01*
Y28998D01*
X235501Y29497D01*
X236001D01*
X236501Y28998D01*
X237000Y29497D01*
X237500D01*
X238000Y28998D01*
Y27998D01*
X237500Y27498D01*
X237000D01*
X236501Y27998D01*
X236001Y27498D01*
X235501D01*
X236501Y27998D02*
Y28998D01*
X82000Y25999D02*
Y23500D01*
X82500Y23000D01*
X83499D01*
X83999Y23500D01*
Y25999D01*
X84999D02*
X86998D01*
Y25499D01*
X84999Y23500D01*
Y23000D01*
X81500Y67499D02*
Y65000D01*
X82000Y64500D01*
X82999D01*
X83499Y65000D01*
Y67499D01*
X84499Y66999D02*
X84999Y67499D01*
X85999D01*
X86498Y66999D01*
Y66499D01*
X85999Y66000D01*
X86498Y65500D01*
Y65000D01*
X85999Y64500D01*
X84999D01*
X84499Y65000D01*
Y65500D01*
X84999Y66000D01*
X84499Y66499D01*
Y66999D01*
X84999Y66000D02*
X85999D01*
X46500Y116499D02*
Y114000D01*
X47000Y113500D01*
X48000D01*
X48499Y114000D01*
Y116499D01*
X49499Y114000D02*
X49999Y113500D01*
X50999D01*
X51498Y114000D01*
Y115999D01*
X50999Y116499D01*
X49999D01*
X49499Y115999D01*
Y115499D01*
X49999Y114999D01*
X51498D01*
X170501Y169000D02*
X173000D01*
X173500Y169500D01*
Y170500D01*
X173000Y170999D01*
X170501D01*
X173500Y171999D02*
Y172999D01*
Y172499D01*
X170501D01*
X171001Y171999D01*
X170501Y174498D02*
Y176498D01*
X171001D01*
X173000Y174498D01*
X173500D01*
D29*
X226001Y182999D02*
X225501Y182500D01*
Y181500D01*
X226001Y181000D01*
X228000D01*
X228500Y181500D01*
Y182500D01*
X228000Y182999D01*
X228500Y185998D02*
Y183999D01*
X226501Y185998D01*
X226001D01*
X225501Y185499D01*
Y184499D01*
X226001Y183999D01*
X228000Y186998D02*
X228500Y187498D01*
Y188498D01*
X228000Y188997D01*
X226001D01*
X225501Y188498D01*
Y187498D01*
X226001Y186998D01*
X226501D01*
X227000Y187498D01*
Y188997D01*
X217500Y181000D02*
X214501D01*
Y182500D01*
X215001Y182999D01*
X216001D01*
X216500Y182500D01*
Y181000D01*
Y182000D02*
X217500Y182999D01*
Y185499D02*
X214501D01*
X216001Y183999D01*
Y185998D01*
X217500Y188498D02*
X214501D01*
X216001Y186998D01*
Y188997D01*
M02*
