G04 Layer_Color=16711935*
%FSLAX25Y25*%
%MOIN*%
G70*
G01*
G75*
%ADD34R,0.03950X0.04343*%
%ADD38O,0.04737X0.06706*%
%ADD39O,0.06706X0.04737*%
%ADD40C,0.06800*%
%ADD41C,0.05524*%
%ADD42C,0.05800*%
D34*
X150244Y90000D02*
D03*
X155756D02*
D03*
X150244Y97000D02*
D03*
X155756D02*
D03*
D38*
X146500Y50000D02*
D03*
X167000D02*
D03*
X189000Y93000D02*
D03*
X211500Y191500D02*
D03*
X199000D02*
D03*
X146500D02*
D03*
X157000Y192000D02*
D03*
X118000Y152000D02*
D03*
D39*
X292000Y10000D02*
D03*
X7000D02*
D03*
Y20000D02*
D03*
Y60000D02*
D03*
Y50000D02*
D03*
Y40000D02*
D03*
Y30000D02*
D03*
X292000Y50000D02*
D03*
Y40000D02*
D03*
Y70000D02*
D03*
Y60000D02*
D03*
Y20000D02*
D03*
X262000Y30000D02*
D03*
X292000D02*
D03*
X262000Y21500D02*
D03*
Y40000D02*
D03*
X7000Y100000D02*
D03*
Y110000D02*
D03*
Y130000D02*
D03*
Y140000D02*
D03*
Y120000D02*
D03*
Y150000D02*
D03*
Y160000D02*
D03*
Y170000D02*
D03*
X113000Y191500D02*
D03*
X103000D02*
D03*
X7500Y191000D02*
D03*
Y182000D02*
D03*
X262000Y60000D02*
D03*
X292000Y80000D02*
D03*
Y90000D02*
D03*
Y120000D02*
D03*
Y130000D02*
D03*
Y140000D02*
D03*
Y150000D02*
D03*
Y160000D02*
D03*
Y170000D02*
D03*
Y179000D02*
D03*
Y189500D02*
D03*
X262000Y70000D02*
D03*
X292000Y110000D02*
D03*
X42000Y20000D02*
D03*
Y10000D02*
D03*
Y30000D02*
D03*
X292000Y100000D02*
D03*
X42000Y60000D02*
D03*
Y40000D02*
D03*
Y50000D02*
D03*
X262000D02*
D03*
D40*
X152000Y155000D02*
D03*
X157500Y16000D02*
D03*
X24500Y80500D02*
D03*
D41*
X117000Y85000D02*
D03*
Y104213D02*
D03*
D42*
X238500Y154500D02*
D03*
X92500Y103500D02*
D03*
X238500Y116000D02*
D03*
X190200Y107500D02*
D03*
X89827Y122047D02*
D03*
X191900Y115100D02*
D03*
X229000Y29400D02*
D03*
X160900Y101500D02*
D03*
X207300Y87953D02*
D03*
X127800Y98000D02*
D03*
X132800Y145800D02*
D03*
X232000Y135000D02*
D03*
X82000Y175100D02*
D03*
X131900Y159900D02*
D03*
M02*
