M48
;Layer_Color=9474304
;FILE_FORMAT=2:5
INCH,LZ
;TYPE=PLATED
T1F00S00C0.02362
T2F00S00C0.02800
;TYPE=NON_PLATED
T3F00S00C0.15748
%
T01
X01465Y005
X0167
X0262
Y004
Y003
Y00215
X0292Y002
Y003
Y004
Y005
Y001
X0042
Y002
Y003
Y004
Y005
X0007
Y004
Y003
Y002
Y001
Y006
X0042
X0007Y01
Y011
Y012
Y013
Y014
Y015
Y016
Y017
X00075Y0182
Y0191
X0103Y01915
X0113
X0118Y0152
X0117Y0104213
Y0085
X0189Y0093
X0262Y007
Y006
X0292
Y007
Y008
Y009
Y01
Y011
Y012
Y013
Y014
Y015
Y016
Y017
Y0179
Y01895
X02115Y01915
X0199
X0157Y0192
X01465Y01915
T02
X0229Y00294
X01278Y0098
X00925Y01035
X0089827Y0122047
X0082Y01751
X01319Y01599
X01328Y01458
X01609Y01015
X01902Y01075
X01919Y01151
X02073Y0087953
X02385Y0116
X0232Y0135
X02385Y01545
T03
X01575Y0016
X00245Y00805
X0152Y0155
M30
